<svg width="72" height="18" viewBox="0 0 72 18" fill="none" xmlns="http://www.w3.org/2000/svg">
<path d="M39.8828 0H43.0548V17.9993H39.8828V0Z" fill="#121A16"/>
<path d="M51.566 15.1288C52.3918 15.1288 53.1105 14.8165 53.7218 14.1914C54.3329 13.5664 54.639 12.6374 54.639 11.404C54.639 10.1709 54.3329 9.24151 53.7218 8.61655C53.1105 7.99159 52.4 7.67911 51.5906 7.67911C50.7481 7.67911 50.0253 7.99159 49.4223 8.61655C48.8189 9.24151 48.5179 10.1709 48.5179 11.404C48.5179 12.6374 48.8189 13.5664 49.4223 14.1914C50.0253 14.8165 50.7397 15.1288 51.566 15.1288ZM51.566 17.9037C50.3764 17.9037 49.3065 17.6288 48.3567 17.0787C47.4064 16.5287 46.655 15.7664 46.1015 14.7913C45.5479 13.8164 45.2715 12.6874 45.2715 11.404C45.2715 10.1208 45.5523 8.99149 46.114 8.01661C46.6756 7.04156 47.4312 6.27907 48.3815 5.72918C49.3315 5.17928 50.4012 4.90424 51.5906 4.90424C52.7636 4.90424 53.825 5.17928 54.7751 5.72918C55.7251 6.27907 56.4766 7.04156 57.0303 8.01661C57.5836 8.99149 57.8604 10.1208 57.8604 11.404C57.8604 12.6874 57.5836 13.8164 57.0303 14.7913C56.4766 15.7664 55.7206 16.5287 54.7628 17.0787C53.8044 17.6288 52.7388 17.9037 51.566 17.9037Z" fill="#121A16"/>
<path d="M59.9561 17.9993V0H63.1279V7.49969C63.5407 6.8166 64.0983 6.27912 64.8006 5.88726C65.5028 5.49594 66.3082 5.29992 67.2168 5.29992C68.7367 5.29992 69.9138 5.7834 70.7481 6.74964C71.5823 7.71659 71.9996 9.13319 71.9996 10.9996V17.9993H68.8523V11.2995C68.8523 10.2332 68.6419 9.41633 68.2205 8.84969C67.7992 8.28323 67.1342 7.99973 66.2258 7.99973C65.3336 7.99973 64.594 8.31653 64.0077 8.94977C63.4212 9.58319 63.1279 10.4665 63.1279 11.5996V17.9993H59.9561Z" fill="#121A16"/>
<path d="M37.1211 5.5998H34.7544L34.7512 4.62474C34.7512 4.10832 34.8664 3.74166 35.0982 3.52476C35.3293 3.30858 35.7177 3.19986 36.2628 3.19986H37.1211V0H35.7707C34.4817 0 33.4616 0.31662 32.7099 0.949859C31.958 1.58364 31.5824 2.64978 31.5824 4.14972V5.5998H29.8975V8.49977H31.5824V17.9992H34.7544V8.49977H37.1211V5.5998Z" fill="#121A16"/>
<path d="M5.87707 0C4.58826 0 3.56742 0.317376 2.81586 0.950633C2.06395 1.58423 1.68951 2.65133 1.68951 4.15126V5.6025H0V8.49938H1.68951V18H4.86226V8.49938H10.4494V16.965C10.4494 17.5366 10.9086 18 11.4754 18H13.6556C16.4536 17.9258 17.3609 14.092 18.2557 12.0375C18.7537 10.894 19.7317 9.00824 21.0828 8.73563C21.5624 8.63888 21.9657 8.74749 22.3095 8.98313C22.5841 9.17135 22.8139 9.44394 23.0177 9.74249C23.2773 10.1232 23.4889 10.5535 23.659 10.9463C24.274 12.3679 24.5624 13.9161 25.0807 15.373C25.5247 16.6206 26.382 18.0097 27.8576 18C28.3603 17.9963 29.4013 18 29.9041 18V17.128V15.7669V14.7544C29.9027 14.8068 28.7564 14.7627 28.7052 14.76C28.0721 14.725 27.7931 14.1418 27.6512 13.5957C26.9402 10.8564 26.0701 7.50896 23.3355 6.10876C23.0862 5.98114 22.8227 5.87473 22.5548 5.79376C22.0954 5.6548 21.6175 5.59049 21.1385 5.58563C20.4062 5.57825 19.6832 5.75998 19.0308 6.09188C16.6784 7.28906 15.687 10.1467 14.7149 12.4313C14.4057 13.1575 14.1024 13.9026 13.6556 14.5575V6.63749C13.6556 6.06578 13.1963 5.60251 12.6296 5.6025H4.86226L4.85667 4.62938C4.85667 4.11296 4.97078 3.74378 5.20238 3.52688C5.43363 3.31052 5.82265 3.20067 6.36775 3.20063H7.22648V0H5.87707ZM11.0628 0.0168839C10.1868 0.0168839 9.47917 0.730763 9.47917 1.61438C9.47917 2.498 10.1868 3.21188 11.0628 3.21188C11.9388 3.21188 12.6519 2.498 12.6519 1.61438C12.6519 0.730763 11.9388 0.0168839 11.0628 0.0168839Z" fill="#121A16"/>
</svg>
