<svg width="115" height="148" viewBox="0 0 115 148" fill="none" xmlns="http://www.w3.org/2000/svg">
<g clip-path="url(#clip0_1428_5554)">
<path d="M10.0757 109.096L57.9258 133.445L103.959 109.096V13.8806H10.0757V109.096Z" fill="white"/>
<path d="M104.928 14.2441L9.1064 110.792L58.7735 135.383L104.928 111.761V14.2441Z" fill="#F2F3F2" fill-opacity="0.5"/>
<path d="M6.92591 45.6191V111.155L8.62186 112.003L56.4719 136.352L57.9256 137.079L59.3792 136.352L105.533 112.003L107.229 111.155V10.731H6.92591V45.6191ZM10.0755 109.338V13.8806H104.08V109.338L57.9256 133.687L10.0755 109.338Z" fill="#DCDEDC"/>
<path d="M57.0776 15.4554C57.5622 15.4554 58.0468 15.4554 58.5313 15.5765L57.0776 18.3627C54.8971 18.2416 52.9589 19.9375 52.8378 22.1181C52.7166 24.2986 54.4126 26.2368 56.5931 26.3579H57.0776C58.0468 26.3579 59.0159 25.9945 59.7427 25.3888L61.3175 28.0539C60.1061 28.9019 58.6525 29.3864 57.0776 29.3864C53.2012 29.5076 49.9304 26.6002 49.8093 22.7238C49.6881 18.8473 52.5955 15.5765 56.4719 15.4554H57.0776ZM62.0444 21.3912L63.8614 24.4197L62.0444 27.327L60.3484 24.4197H56.8354L58.6525 21.3912H62.0444ZM59.137 20.301C59.137 19.8164 59.2582 19.3319 59.5004 18.9684C59.7427 18.605 60.2273 18.2416 60.5907 17.9993L60.833 17.8782C61.3175 17.6359 61.4387 17.5148 61.4387 17.2725C61.4387 17.0302 61.0752 16.7879 60.833 16.7879C60.3484 16.7879 59.985 17.0302 59.7427 17.5148L59.137 16.9091C59.2581 16.6668 59.5004 16.4245 59.7427 16.1822C60.1061 15.9399 60.4695 15.9399 60.833 15.9399C61.1964 15.9399 61.6809 16.0611 61.9232 16.3034C62.1655 16.5456 62.4078 16.9091 62.4078 17.2725C62.4078 17.8782 62.0444 18.3627 61.3175 18.605L60.9541 18.8473C60.5907 19.0896 60.3484 19.2107 60.2273 19.5741H62.4078V20.4221L59.137 20.301ZM57.0776 35.4434L68.5859 28.9019V10.731H45.4483V28.7807L57.0776 35.4434Z" fill="#FF492C"/>
<path d="M109.531 78.3267H4.62449L0.748027 86.8064L4.62449 95.2862H109.531L113.286 86.8064L109.531 78.3267Z" fill="#FFD200"/>
<path d="M20.9056 72.8755C20.8248 72.8755 20.7643 72.8351 20.7239 72.7543L19.0643 69.0596C19.0401 69.0273 19.0118 69.0111 18.9795 69.0111H17.7439C17.6954 69.0111 17.6712 69.0354 17.6712 69.0838V72.718C17.6712 72.7584 17.655 72.7947 17.6227 72.827C17.5985 72.8593 17.5622 72.8755 17.5137 72.8755H15.951C15.9106 72.8755 15.8743 72.8593 15.842 72.827C15.8097 72.7947 15.7935 72.7584 15.7935 72.718V63.7052C15.7935 63.6648 15.8097 63.6285 15.842 63.5962C15.8743 63.5639 15.9106 63.5477 15.951 63.5477H19.7669C20.3322 63.5477 20.8329 63.6648 21.269 63.899C21.697 64.1252 22.0282 64.4522 22.2624 64.8803C22.4966 65.3083 22.6137 65.8009 22.6137 66.3582C22.6137 66.9639 22.4643 67.4807 22.1654 67.9088C21.8586 68.3449 21.4346 68.6517 20.8935 68.8294C20.8531 68.8456 20.841 68.8738 20.8571 68.9142L22.6742 72.6938C22.6904 72.7261 22.6985 72.7503 22.6985 72.7664C22.6985 72.8391 22.65 72.8755 22.5531 72.8755H20.9056ZM17.7439 65.1589C17.6954 65.1589 17.6712 65.1831 17.6712 65.2316V67.509C17.6712 67.5494 17.6954 67.5696 17.7439 67.5696H19.4883C19.8598 67.5696 20.1626 67.4605 20.3968 67.2425C20.631 67.0164 20.7481 66.7256 20.7481 66.3703C20.7481 66.0149 20.631 65.7242 20.3968 65.4981C20.1626 65.272 19.8598 65.1589 19.4883 65.1589H17.7439ZM29.8215 68.7446C29.878 69.0838 29.8982 69.4634 29.882 69.8833C29.8739 69.9883 29.8134 70.0408 29.7003 70.0408H25.5937C25.5372 70.0408 25.517 70.061 25.5331 70.1014C25.5574 70.279 25.6058 70.4567 25.6785 70.6344C25.9127 71.1351 26.3851 71.3855 27.0958 71.3855C27.6611 71.3774 28.1094 71.1472 28.4405 70.695C28.4728 70.6384 28.5132 70.6102 28.5616 70.6102C28.5858 70.6102 28.6181 70.6263 28.6585 70.6586L29.6155 71.6156C29.6559 71.656 29.6761 71.6923 29.6761 71.7246C29.6761 71.7489 29.6599 71.7852 29.6276 71.8337C29.3369 72.1971 28.9573 72.4797 28.4889 72.6816C28.0286 72.8835 27.5238 72.9845 26.9747 72.9845C26.2075 72.9845 25.5614 72.8109 25.0365 72.4636C24.5034 72.1163 24.1239 71.6318 23.8977 71.0099C23.712 70.5657 23.6191 69.9843 23.6191 69.2655C23.6191 68.7729 23.6837 68.3408 23.8129 67.9693C24.0229 67.3394 24.3823 66.8387 24.8911 66.4672C25.3999 66.0957 26.0056 65.91 26.7082 65.91C27.5965 65.91 28.3113 66.1684 28.8523 66.6852C29.3854 67.194 29.7084 67.8805 29.8215 68.7446ZM26.7203 67.5332C26.163 67.5332 25.7956 67.7957 25.6179 68.3206C25.5775 68.4337 25.5452 68.575 25.521 68.7446C25.521 68.7931 25.5452 68.8173 25.5937 68.8173H27.8953C27.9438 68.8173 27.9599 68.7931 27.9438 68.7446C27.9034 68.4862 27.8832 68.361 27.8832 68.3691C27.8025 68.1026 27.6611 67.8966 27.4592 67.7513C27.2573 67.6059 27.011 67.5332 26.7203 67.5332ZM35.2848 66.1886C35.2848 66.1401 35.301 66.0997 35.3333 66.0674C35.3656 66.0432 35.406 66.0311 35.4544 66.0311H37.005C37.0535 66.0311 37.0939 66.0432 37.1262 66.0674C37.1504 66.0997 37.1625 66.1401 37.1625 66.1886V75.1892C37.1625 75.2377 37.1504 75.2781 37.1262 75.3104C37.0939 75.3427 37.0535 75.3588 37.005 75.3588H35.4544C35.406 75.3588 35.3656 75.3427 35.3333 75.3104C35.301 75.2781 35.2848 75.2377 35.2848 75.1892V72.3425C35.2848 72.3182 35.2768 72.3021 35.2606 72.294C35.2445 72.2859 35.2283 72.294 35.2122 72.3182C34.8568 72.7624 34.3601 72.9845 33.7221 72.9845C33.068 72.9845 32.5229 72.8189 32.0868 72.4878C31.6426 72.1486 31.3195 71.6964 31.1176 71.1311C30.9561 70.6627 30.8754 70.1054 30.8754 69.4593C30.8754 68.8617 30.9521 68.3287 31.1055 67.8603C31.2994 67.2546 31.6224 66.7781 32.0746 66.4309C32.5188 66.0917 33.0518 65.9221 33.6737 65.9221C34.3278 65.9221 34.8407 66.1644 35.2122 66.6489C35.2283 66.6731 35.2445 66.6812 35.2606 66.6731C35.2768 66.6651 35.2848 66.6489 35.2848 66.6247V66.1886ZM34.982 70.8403C35.1758 70.5092 35.2727 70.0448 35.2727 69.4472C35.2727 68.8819 35.1839 68.4337 35.0062 68.1026C34.7882 67.723 34.4772 67.5332 34.0734 67.5332C33.6373 67.5332 33.3103 67.723 33.0922 68.1026C32.9065 68.4579 32.8136 68.9021 32.8136 69.4351C32.8136 70.0327 32.9226 70.5052 33.1407 70.8524C33.3668 71.1997 33.6818 71.3733 34.0856 71.3733C34.4813 71.3733 34.7801 71.1957 34.982 70.8403ZM42.6017 66.1886C42.6017 66.1401 42.6178 66.0997 42.6501 66.0674C42.6824 66.0432 42.7188 66.0311 42.7591 66.0311H44.3218C44.3703 66.0311 44.4107 66.0432 44.443 66.0674C44.4672 66.0997 44.4793 66.1401 44.4793 66.1886V72.718C44.4793 72.7584 44.4672 72.7947 44.443 72.827C44.4107 72.8593 44.3703 72.8755 44.3218 72.8755H42.7591C42.7188 72.8755 42.6824 72.8593 42.6501 72.827C42.6178 72.7947 42.6017 72.7584 42.6017 72.718V72.2577C42.6017 72.2334 42.5936 72.2213 42.5774 72.2213C42.5613 72.2132 42.5451 72.2213 42.529 72.2455C42.1736 72.7301 41.6204 72.9724 40.8694 72.9724C40.1991 72.9724 39.6459 72.7664 39.2098 72.3546C38.7737 71.9508 38.5556 71.3774 38.5556 70.6344V66.1886C38.5556 66.1401 38.5718 66.0997 38.6041 66.0674C38.6364 66.0432 38.6727 66.0311 38.7131 66.0311H40.2637C40.304 66.0311 40.3404 66.0432 40.3727 66.0674C40.405 66.0997 40.4212 66.1401 40.4212 66.1886V70.1741C40.4212 70.5294 40.5181 70.8161 40.7119 71.0342C40.8976 71.2603 41.1601 71.3733 41.4993 71.3733C41.7981 71.3733 42.0485 71.2805 42.2504 71.0947C42.4442 70.917 42.5613 70.6788 42.6017 70.38V66.1886ZM46.8779 65.2558C46.5791 65.2558 46.3287 65.1549 46.1268 64.953C45.9249 64.7511 45.824 64.5007 45.824 64.2019C45.824 63.8869 45.9249 63.6325 46.1268 63.4387C46.3206 63.2449 46.571 63.148 46.8779 63.148C47.1928 63.148 47.4472 63.2449 47.6411 63.4387C47.8349 63.6325 47.9318 63.8869 47.9318 64.2019C47.9318 64.5007 47.8349 64.7511 47.6411 64.953C47.4392 65.1549 47.1848 65.2558 46.8779 65.2558ZM46.0784 72.8755C46.038 72.8755 46.0016 72.8593 45.9693 72.827C45.937 72.7947 45.9209 72.7584 45.9209 72.718V66.1765C45.9209 66.128 45.937 66.0876 45.9693 66.0553C46.0016 66.023 46.038 66.0069 46.0784 66.0069H47.6411C47.6895 66.0069 47.7259 66.023 47.7501 66.0553C47.7824 66.0876 47.7985 66.128 47.7985 66.1765V72.718C47.7985 72.7584 47.7824 72.7947 47.7501 72.827C47.7259 72.8593 47.6895 72.8755 47.6411 72.8755H46.0784ZM52.6805 65.9342C52.9954 65.9342 53.2498 65.9948 53.4436 66.1159C53.5082 66.1563 53.5325 66.2249 53.5163 66.3218L53.2377 67.8361C53.2296 67.9411 53.169 67.9734 53.056 67.933C52.9187 67.8845 52.7612 67.8603 52.5835 67.8603C52.5109 67.8603 52.4139 67.8724 52.2928 67.8966C51.9698 67.9209 51.6992 68.038 51.4812 68.2479C51.255 68.4579 51.142 68.7365 51.142 69.0838V72.718C51.142 72.7584 51.1299 72.7947 51.1056 72.827C51.0733 72.8593 51.033 72.8755 50.9845 72.8755H49.4218C49.3814 72.8755 49.3451 72.8593 49.3128 72.827C49.2805 72.7947 49.2643 72.7584 49.2643 72.718V66.1886C49.2643 66.1401 49.2805 66.0997 49.3128 66.0674C49.3451 66.0432 49.3814 66.0311 49.4218 66.0311H50.9845C51.033 66.0311 51.0733 66.0432 51.1056 66.0674C51.1299 66.0997 51.142 66.1401 51.142 66.1886V66.6974C51.142 66.7216 51.1541 66.7377 51.1783 66.7458C51.1945 66.7539 51.2066 66.7499 51.2147 66.7337C51.5781 66.2007 52.0667 65.9342 52.6805 65.9342ZM60.2638 68.7446C60.3122 69.0838 60.3284 69.4634 60.3122 69.8833C60.3042 69.9883 60.2476 70.0408 60.1426 70.0408H56.0239C55.9674 70.0408 55.9512 70.061 55.9754 70.1014C55.9997 70.279 56.0481 70.4567 56.1208 70.6344C56.3469 71.1351 56.8153 71.3855 57.526 71.3855C58.0994 71.3774 58.5476 71.1472 58.8707 70.695C58.9111 70.6384 58.9514 70.6102 58.9918 70.6102C59.0241 70.6102 59.0564 70.6263 59.0887 70.6586L60.0457 71.6156C60.0942 71.656 60.1184 71.6923 60.1184 71.7246C60.1184 71.7489 60.0982 71.7852 60.0578 71.8337C59.7671 72.1971 59.3916 72.4797 58.9312 72.6816C58.4709 72.8835 57.9621 72.9845 57.4049 72.9845C56.6457 72.9845 55.9997 72.8109 55.4667 72.4636C54.9417 72.1163 54.5621 71.6318 54.3279 71.0099C54.1422 70.5657 54.0493 69.9843 54.0493 69.2655C54.0493 68.7729 54.118 68.3408 54.2553 67.9693C54.4572 67.3394 54.8125 66.8387 55.3213 66.4672C55.8301 66.0957 56.4358 65.91 57.1384 65.91C58.0267 65.91 58.7415 66.1684 59.2825 66.6852C59.8156 67.194 60.1426 67.8805 60.2638 68.7446ZM57.1505 67.5332C56.5933 67.5332 56.2258 67.7957 56.0481 68.3206C56.0158 68.4337 55.9835 68.575 55.9512 68.7446C55.9512 68.7931 55.9754 68.8173 56.0239 68.8173H58.3255C58.3821 68.8173 58.4023 68.7931 58.3861 68.7446C58.3377 68.4862 58.3134 68.361 58.3134 68.3691C58.2327 68.1026 58.0954 67.8966 57.9016 67.7513C57.6997 67.6059 57.4493 67.5332 57.1505 67.5332ZM69.0706 65.9221C69.7651 65.9221 70.3062 66.132 70.6939 66.552C71.0815 66.9639 71.2753 67.5494 71.2753 68.3085V72.718C71.2753 72.7584 71.2632 72.7947 71.239 72.827C71.2067 72.8593 71.1663 72.8755 71.1179 72.8755H69.5673C69.5188 72.8755 69.4784 72.8593 69.4461 72.827C69.4138 72.7947 69.3977 72.7584 69.3977 72.718V68.7204C69.3977 68.357 69.3048 68.0662 69.1191 67.8482C68.9333 67.6382 68.687 67.5332 68.3801 67.5332C68.0651 67.5332 67.8108 67.6382 67.6169 67.8482C67.4231 68.0662 67.3262 68.3529 67.3262 68.7083V72.718C67.3262 72.7584 67.31 72.7947 67.2777 72.827C67.2454 72.8593 67.2091 72.8755 67.1687 72.8755H65.6181C65.5697 72.8755 65.5333 72.8593 65.5091 72.827C65.4768 72.7947 65.4607 72.7584 65.4607 72.718V68.7204C65.4607 68.365 65.3637 68.0784 65.1699 67.8603C64.968 67.6423 64.7136 67.5332 64.4067 67.5332C64.1241 67.5332 63.8858 67.618 63.692 67.7876C63.4982 67.9572 63.3851 68.1914 63.3528 68.4902V72.718C63.3528 72.7584 63.3367 72.7947 63.3044 72.827C63.2721 72.8593 63.2357 72.8755 63.1953 72.8755H61.6326C61.5923 72.8755 61.5559 72.8593 61.5236 72.827C61.4913 72.7947 61.4752 72.7584 61.4752 72.718V66.1886C61.4752 66.1401 61.4913 66.0997 61.5236 66.0674C61.5559 66.0432 61.5923 66.0311 61.6326 66.0311H63.1953C63.2357 66.0311 63.2721 66.0432 63.3044 66.0674C63.3367 66.0997 63.3528 66.1401 63.3528 66.1886V66.7095C63.3528 66.7337 63.3609 66.7499 63.3771 66.7579C63.3932 66.766 63.4134 66.7579 63.4376 66.7337C63.801 66.1926 64.3623 65.9221 65.1215 65.9221C65.5656 65.9221 65.9573 66.0149 66.2965 66.2007C66.6276 66.3864 66.882 66.6529 67.0597 67.0002C67.0839 67.0487 67.1122 67.0487 67.1445 67.0002C67.3464 66.6368 67.6129 66.3662 67.944 66.1886C68.2751 66.0109 68.6507 65.9221 69.0706 65.9221ZM78.6285 68.7446C78.677 69.0838 78.6931 69.4634 78.677 69.8833C78.6689 69.9883 78.6123 70.0408 78.5074 70.0408H74.3886C74.3321 70.0408 74.3119 70.061 74.328 70.1014C74.3604 70.279 74.4088 70.4567 74.4734 70.6344C74.7076 71.1351 75.1801 71.3855 75.8908 71.3855C76.4561 71.3774 76.9043 71.1472 77.2354 70.695C77.2758 70.6384 77.3162 70.6102 77.3565 70.6102C77.3808 70.6102 77.4131 70.6263 77.4534 70.6586L78.4104 71.6156C78.4508 71.656 78.471 71.6923 78.471 71.7246C78.471 71.7489 78.4549 71.7852 78.4226 71.8337C78.1318 72.1971 77.7563 72.4797 77.296 72.6816C76.8276 72.8835 76.3188 72.9845 75.7696 72.9845C75.0105 72.9845 74.3644 72.8109 73.8314 72.4636C73.3064 72.1163 72.9269 71.6318 72.6927 71.0099C72.5069 70.5657 72.4141 69.9843 72.4141 69.2655C72.4141 68.7729 72.4787 68.3408 72.6079 67.9693C72.8178 67.3394 73.1772 66.8387 73.686 66.4672C74.1948 66.0957 74.8005 65.91 75.5031 65.91C76.3915 65.91 77.1062 66.1684 77.6473 66.6852C78.1803 67.194 78.5074 67.8805 78.6285 68.7446ZM75.5152 67.5332C74.958 67.5332 74.5905 67.7957 74.4128 68.3206C74.3805 68.4337 74.3482 68.575 74.3159 68.7446C74.3159 68.7931 74.3402 68.8173 74.3886 68.8173H76.6903C76.7468 68.8173 76.763 68.7931 76.7387 68.7446C76.6983 68.4862 76.6782 68.361 76.6782 68.3691C76.5974 68.1026 76.4561 67.8966 76.2542 67.7513C76.0603 67.6059 75.814 67.5332 75.5152 67.5332ZM83.4014 65.9221C84.1121 65.9221 84.6855 66.1401 85.1216 66.5762C85.5577 67.0123 85.7757 67.6019 85.7757 68.3449V72.718C85.7757 72.7584 85.7596 72.7947 85.7273 72.827C85.703 72.8593 85.6667 72.8755 85.6182 72.8755H84.0555C84.0152 72.8755 83.9788 72.8593 83.9465 72.827C83.9142 72.7947 83.8981 72.7584 83.8981 72.718V68.7325C83.8981 68.3772 83.7971 68.0864 83.5952 67.8603C83.4014 67.6423 83.1389 67.5332 82.8078 67.5332C82.4767 67.5332 82.2142 67.6423 82.0204 67.8603C81.8185 68.0864 81.7176 68.3772 81.7176 68.7325V72.718C81.7176 72.7584 81.7014 72.7947 81.6691 72.827C81.6368 72.8593 81.6004 72.8755 81.5601 72.8755H79.9974C79.9489 72.8755 79.9126 72.8593 79.8884 72.827C79.856 72.7947 79.8399 72.7584 79.8399 72.718V66.1886C79.8399 66.1401 79.856 66.0997 79.8884 66.0674C79.9126 66.0432 79.9489 66.0311 79.9974 66.0311H81.5601C81.6004 66.0311 81.6368 66.0432 81.6691 66.0674C81.7014 66.0997 81.7176 66.1401 81.7176 66.1886V66.6489C81.7176 66.6812 81.7256 66.7014 81.7418 66.7095C81.7579 66.7176 81.77 66.7135 81.7781 66.6974C82.1415 66.1805 82.6826 65.9221 83.4014 65.9221ZM91.0574 67.3757C91.0574 67.4161 91.0412 67.4525 91.0089 67.4848C90.9766 67.5171 90.9403 67.5332 90.8999 67.5332H89.6158C89.5755 67.5332 89.5553 67.5534 89.5553 67.5938V70.4285C89.5553 70.7192 89.6118 70.9372 89.7249 71.0826C89.846 71.2199 90.0398 71.2885 90.3063 71.2885H90.7545C90.7949 71.2885 90.8313 71.3047 90.8636 71.337C90.8959 71.3693 90.912 71.4056 90.912 71.446V72.718C90.912 72.8149 90.8595 72.8714 90.7545 72.8876C90.375 72.9037 90.1085 72.9118 89.955 72.9118C89.212 72.9118 88.6588 72.7907 88.2954 72.5484C87.932 72.3061 87.7463 71.8458 87.7382 71.1674V67.5938C87.7382 67.5534 87.714 67.5332 87.6655 67.5332H86.9144C86.866 67.5332 86.8256 67.5171 86.7933 67.4848C86.7691 67.4525 86.757 67.4161 86.757 67.3757V66.1886C86.757 66.1401 86.7691 66.0997 86.7933 66.0674C86.8256 66.0432 86.866 66.0311 86.9144 66.0311H87.6655C87.714 66.0311 87.7382 66.0069 87.7382 65.9584V64.3715C87.7382 64.3311 87.7543 64.2948 87.7866 64.2625C87.8189 64.2302 87.8553 64.214 87.8957 64.214H89.3857C89.4341 64.214 89.4745 64.2302 89.5068 64.2625C89.5391 64.2948 89.5553 64.3311 89.5553 64.3715V65.9584C89.5553 66.0069 89.5755 66.0311 89.6158 66.0311H90.8999C90.9403 66.0311 90.9766 66.0432 91.0089 66.0674C91.0412 66.0997 91.0574 66.1401 91.0574 66.1886V67.3757ZM94.9217 72.9724C94.3241 72.9724 93.8032 72.8876 93.359 72.718C92.9149 72.5484 92.5716 72.3142 92.3294 72.0154C92.0871 71.7085 91.9659 71.3653 91.9659 70.9857V70.8524C91.9659 70.804 91.9821 70.7636 92.0144 70.7313C92.0386 70.7071 92.075 70.695 92.1234 70.695H93.6013C93.6417 70.695 93.678 70.7071 93.7103 70.7313C93.7427 70.7636 93.7588 70.804 93.7588 70.8524V70.8646C93.7588 71.0584 93.8678 71.2239 94.0859 71.3612C94.3039 71.4985 94.5785 71.5672 94.9096 71.5672C95.2084 71.5672 95.4507 71.5066 95.6365 71.3855C95.8222 71.2643 95.9151 71.1189 95.9151 70.9494C95.9151 70.7878 95.8384 70.6667 95.6849 70.5859C95.5234 70.5052 95.2609 70.4204 94.8975 70.3315C94.4776 70.2266 94.1465 70.1256 93.9042 70.0287C93.3389 69.8268 92.8866 69.5845 92.5474 69.3019C92.2082 69.0192 92.0386 68.6114 92.0386 68.0784C92.0386 67.4242 92.2971 66.9033 92.8139 66.5157C93.3227 66.128 93.997 65.9342 94.8369 65.9342C95.4103 65.9342 95.907 66.023 96.327 66.2007C96.755 66.3864 97.0861 66.6449 97.3203 66.976C97.5626 67.299 97.6837 67.6705 97.6837 68.0905C97.6837 68.1389 97.6676 68.1753 97.6353 68.1995C97.603 68.2318 97.5626 68.2479 97.5141 68.2479H96.0968C96.0483 68.2479 96.008 68.2318 95.9757 68.1995C95.9434 68.1753 95.9272 68.1389 95.9272 68.0905C95.9272 67.8966 95.8303 67.7311 95.6365 67.5938C95.4346 67.4646 95.1681 67.4 94.8369 67.4C94.5462 67.4 94.308 67.4525 94.1222 67.5575C93.9365 67.6624 93.8436 67.8078 93.8436 67.9936C93.8436 68.1712 93.9324 68.3045 94.1101 68.3933C94.2959 68.4821 94.6027 68.5791 95.0308 68.684C95.1277 68.7083 95.2367 68.7365 95.3578 68.7688C95.4871 68.8011 95.6203 68.8375 95.7576 68.8779C96.3875 69.0636 96.8842 69.3019 97.2476 69.5926C97.611 69.8914 97.7927 70.3194 97.7927 70.8767C97.7927 71.5308 97.5343 72.0436 97.0175 72.4151C96.5006 72.7866 95.802 72.9724 94.9217 72.9724ZM30.1728 54.6925C30.1162 54.7167 30.1162 54.7409 30.1728 54.7651C31.0127 55.2012 31.4326 55.924 31.4326 56.9335C31.4326 57.7977 31.1378 58.4518 30.5483 58.896C29.9668 59.3321 29.1996 59.5501 28.2466 59.5501H24.7942C24.7538 59.5501 24.7175 59.534 24.6851 59.5017C24.6528 59.4694 24.6367 59.433 24.6367 59.3927V50.3799C24.6367 50.3395 24.6528 50.3032 24.6851 50.2709C24.7175 50.2386 24.7538 50.2224 24.7942 50.2224H28.1376C30.2454 50.2224 31.2994 51.0744 31.2994 52.7785C31.2994 53.6668 30.9238 54.3048 30.1728 54.6925ZM26.587 51.8336C26.5386 51.8336 26.5144 51.8578 26.5144 51.9062V53.9777C26.5144 54.0262 26.5386 54.0504 26.587 54.0504H28.1376C28.5576 54.0504 28.8846 53.9495 29.1188 53.7476C29.345 53.5537 29.458 53.2913 29.458 52.9602C29.458 52.6129 29.345 52.3383 29.1188 52.1364C28.8846 51.9345 28.5576 51.8336 28.1376 51.8336H26.587ZM28.2466 57.9269C28.6585 57.9269 28.9775 57.8219 29.2036 57.6119C29.4378 57.4019 29.5549 57.1152 29.5549 56.7518C29.5549 56.3884 29.4378 56.1017 29.2036 55.8917C28.9775 55.6818 28.6545 55.5768 28.2345 55.5768H26.587C26.5386 55.5768 26.5144 55.601 26.5144 55.6495V57.8542C26.5144 57.9026 26.5386 57.9269 26.587 57.9269H28.2466ZM38.8463 55.4193C38.8948 55.7585 38.9109 56.138 38.8948 56.558C38.8867 56.663 38.8302 56.7155 38.7252 56.7155H34.6065C34.5499 56.7155 34.5297 56.7357 34.5459 56.7761C34.5782 56.9537 34.6307 57.1314 34.7034 57.3091C34.9295 57.8098 35.3979 58.0601 36.1086 58.0601C36.682 58.0521 37.1302 57.8219 37.4532 57.3696C37.4936 57.3131 37.534 57.2848 37.5744 57.2848C37.5986 57.2848 37.6309 57.301 37.6713 57.3333L38.6283 58.2903C38.6767 58.3307 38.701 58.367 38.701 58.3993C38.701 58.4235 38.6808 58.4599 38.6404 58.5083C38.3497 58.8718 37.9741 59.1544 37.5138 59.3563C37.0454 59.5582 36.5366 59.6592 35.9874 59.6592C35.2283 59.6592 34.5822 59.4855 34.0492 59.1383C33.5243 58.791 33.1447 58.3064 32.9105 57.6846C32.7248 57.2404 32.6319 56.659 32.6319 55.9402C32.6319 55.4476 32.7005 55.0155 32.8378 54.644C33.0397 54.0141 33.3951 53.5134 33.9039 53.1419C34.4126 52.7704 35.0183 52.5846 35.7209 52.5846C36.6093 52.5846 37.324 52.8431 37.8651 53.3599C38.3981 53.8687 38.7252 54.5552 38.8463 55.4193ZM35.7331 54.2079C35.1758 54.2079 34.8084 54.4704 34.6307 54.9953C34.5984 55.1084 34.5661 55.2497 34.5338 55.4193C34.5338 55.4677 34.558 55.492 34.6065 55.492H36.9081C36.9646 55.492 36.9848 55.4677 36.9687 55.4193C36.9202 55.1609 36.896 55.0357 36.896 55.0438C36.8152 54.7773 36.6739 54.5713 36.472 54.4259C36.2782 54.2806 36.0319 54.2079 35.7331 54.2079ZM42.6986 59.6471C42.1009 59.6471 41.58 59.5623 41.1359 59.3927C40.6917 59.2231 40.3485 58.9889 40.1062 58.6901C39.8558 58.3832 39.7307 58.0399 39.7307 57.6604V57.5271C39.7307 57.4787 39.7468 57.4383 39.7791 57.406C39.8114 57.3817 39.8518 57.3696 39.9002 57.3696H41.3781C41.4185 57.3696 41.4549 57.3817 41.4872 57.406C41.5195 57.4383 41.5356 57.4787 41.5356 57.5271V57.5392C41.5356 57.7331 41.6447 57.8986 41.8627 58.0359C42.0808 58.1732 42.3513 58.2418 42.6743 58.2418C42.9812 58.2418 43.2275 58.1813 43.4133 58.0601C43.599 57.939 43.6919 57.7936 43.6919 57.624C43.6919 57.4625 43.6112 57.3414 43.4496 57.2606C43.2881 57.1798 43.0256 57.0951 42.6622 57.0062C42.2504 56.9012 41.9233 56.8003 41.681 56.7034C41.1157 56.5015 40.6634 56.2592 40.3242 55.9765C39.985 55.6939 39.8155 55.286 39.8155 54.753C39.8155 54.0989 40.0698 53.578 40.5786 53.1903C41.0874 52.8027 41.7658 52.6089 42.6138 52.6089C43.1791 52.6089 43.6758 52.6977 44.1038 52.8754C44.5318 53.0611 44.8629 53.3195 45.0971 53.6507C45.3313 53.9737 45.4484 54.3452 45.4484 54.7651C45.4484 54.8136 45.4323 54.8499 45.4 54.8742C45.3757 54.9065 45.3394 54.9226 45.2909 54.9226H43.8615C43.8211 54.9226 43.7848 54.9065 43.7525 54.8742C43.7202 54.8499 43.704 54.8136 43.704 54.7651C43.704 54.5713 43.6031 54.4058 43.4012 54.2685C43.2074 54.1393 42.9449 54.0746 42.6138 54.0746C42.323 54.0746 42.0848 54.1271 41.899 54.2321C41.7052 54.3371 41.6083 54.4825 41.6083 54.6682C41.6083 54.8459 41.7012 54.9791 41.8869 55.068C42.0727 55.1568 42.3755 55.2537 42.7955 55.3587L43.1347 55.4435L43.5344 55.5525C44.1644 55.7383 44.661 55.9765 45.0244 56.2673C45.3879 56.5661 45.5696 56.9941 45.5696 57.5513C45.5696 58.2055 45.3111 58.7183 44.7943 59.0898C44.2693 59.4613 43.5708 59.6471 42.6986 59.6471ZM50.5726 54.0504C50.5726 54.0908 50.5565 54.1271 50.5242 54.1594C50.4919 54.1917 50.4515 54.2079 50.403 54.2079H49.1311C49.0826 54.2079 49.0584 54.2281 49.0584 54.2685V57.1031C49.0584 57.3939 49.119 57.6119 49.2401 57.7573C49.3612 57.8946 49.5551 57.9632 49.8216 57.9632H50.2577C50.3061 57.9632 50.3465 57.9794 50.3788 58.0117C50.4111 58.044 50.4273 58.0803 50.4273 58.1207V59.3927C50.4273 59.4896 50.3707 59.5461 50.2577 59.5623C49.8862 59.5784 49.6197 59.5865 49.4581 59.5865C48.7232 59.5865 48.1741 59.4653 47.8106 59.2231C47.4472 58.9808 47.2615 58.5205 47.2534 57.8421V54.2685C47.2534 54.2281 47.2292 54.2079 47.1807 54.2079H46.4297C46.3812 54.2079 46.3408 54.1917 46.3085 54.1594C46.2762 54.1271 46.2601 54.0908 46.2601 54.0504V52.8633C46.2601 52.8148 46.2762 52.7744 46.3085 52.7421C46.3408 52.7179 46.3812 52.7058 46.4297 52.7058H47.1807C47.2292 52.7058 47.2534 52.6815 47.2534 52.6331V51.0462C47.2534 51.0058 47.2696 50.9694 47.3019 50.9371C47.3261 50.9048 47.3624 50.8887 47.4109 50.8887H48.9009C48.9494 50.8887 48.9897 50.9048 49.022 50.9371C49.0463 50.9694 49.0584 51.0058 49.0584 51.0462V52.6331C49.0584 52.6815 49.0826 52.7058 49.1311 52.7058H50.403C50.4515 52.7058 50.4919 52.7179 50.5242 52.7421C50.5565 52.7744 50.5726 52.8148 50.5726 52.8633V54.0504ZM60.4818 50.3314C60.5303 50.2588 60.5909 50.2224 60.6635 50.2224H62.2262C62.2747 50.2224 62.3151 50.2386 62.3474 50.2709C62.3716 50.3032 62.3837 50.3395 62.3837 50.3799V59.3927C62.3837 59.433 62.3716 59.4694 62.3474 59.5017C62.3151 59.534 62.2747 59.5501 62.2262 59.5501H60.6635C60.6232 59.5501 60.5868 59.534 60.5545 59.5017C60.5222 59.4694 60.5061 59.433 60.5061 59.3927V53.5174C60.5061 53.477 60.498 53.4568 60.4818 53.4568C60.4657 53.4568 60.4495 53.473 60.4334 53.5053L59.016 55.71C58.9757 55.7827 58.9151 55.819 58.8343 55.819H58.0469C57.9662 55.819 57.9016 55.7827 57.8531 55.71L56.4479 53.5053C56.4317 53.473 56.4115 53.4609 56.3873 53.4689C56.3712 53.4689 56.3631 53.4891 56.3631 53.5295V59.3927C56.3631 59.433 56.3469 59.4694 56.3146 59.5017C56.2823 59.534 56.246 59.5501 56.2056 59.5501H54.6429C54.6025 59.5501 54.5662 59.534 54.5339 59.5017C54.5016 59.4694 54.4854 59.433 54.4854 59.3927V50.3799C54.4854 50.3395 54.5016 50.3032 54.5339 50.2709C54.5662 50.2386 54.6025 50.2224 54.6429 50.2224H56.2056C56.2864 50.2224 56.3469 50.2588 56.3873 50.3314L58.3861 53.4326C58.4184 53.4891 58.4467 53.4891 58.4709 53.4326L60.4818 50.3314ZM69.9549 55.4193C70.0115 55.7585 70.0316 56.138 70.0155 56.558C69.9993 56.663 69.9388 56.7155 69.8338 56.7155H65.715C65.6666 56.7155 65.6504 56.7357 65.6666 56.7761C65.6908 56.9537 65.7393 57.1314 65.812 57.3091C66.0462 57.8098 66.5186 58.0601 67.2293 58.0601C67.7946 58.0521 68.2428 57.8219 68.5739 57.3696C68.6062 57.3131 68.6466 57.2848 68.6951 57.2848C68.7193 57.2848 68.7476 57.301 68.7799 57.3333L69.749 58.2903C69.7894 58.3307 69.8096 58.367 69.8096 58.3993C69.8096 58.4235 69.7934 58.4599 69.7611 58.5083C69.4623 58.8718 69.0827 59.1544 68.6224 59.3563C68.1621 59.5582 67.6573 59.6592 67.1081 59.6592C66.3409 59.6592 65.6949 59.4855 65.1699 59.1383C64.6369 58.791 64.2573 58.3064 64.0312 57.6846C63.8455 57.2404 63.7526 56.659 63.7526 55.9402C63.7526 55.4476 63.8172 55.0155 63.9464 54.644C64.1483 54.0141 64.5077 53.5134 65.0245 53.1419C65.5333 52.7704 66.139 52.5846 66.8416 52.5846C67.73 52.5846 68.4407 52.8431 68.9737 53.3599C69.5148 53.8687 69.8419 54.5552 69.9549 55.4193ZM66.8538 54.2079C66.2965 54.2079 65.9291 54.4704 65.7514 54.9953C65.711 55.1084 65.6787 55.2497 65.6545 55.4193C65.6545 55.4677 65.6747 55.492 65.715 55.492H68.0288C68.0773 55.492 68.0934 55.4677 68.0773 55.4193C68.0369 55.1609 68.0167 55.0357 68.0167 55.0438C67.9359 54.7773 67.7946 54.5713 67.5927 54.4259C67.3908 54.2806 67.1445 54.2079 66.8538 54.2079ZM77.2354 55.4193C77.2839 55.7585 77.3 56.138 77.2839 56.558C77.2758 56.663 77.2192 56.7155 77.1143 56.7155H72.9955C72.939 56.7155 72.9228 56.7357 72.9471 56.7761C72.9713 56.9537 73.0197 57.1314 73.0924 57.3091C73.3186 57.8098 73.787 58.0601 74.4976 58.0601C75.071 58.0521 75.5193 57.8219 75.8423 57.3696C75.8827 57.3131 75.9231 57.2848 75.9634 57.2848C75.9957 57.2848 76.028 57.301 76.0603 57.3333L77.0173 58.2903C77.0658 58.3307 77.09 58.367 77.09 58.3993C77.09 58.4235 77.0698 58.4599 77.0295 58.5083C76.7387 58.8718 76.3632 59.1544 75.9029 59.3563C75.4425 59.5582 74.9338 59.6592 74.3765 59.6592C73.6174 59.6592 72.9713 59.4855 72.4383 59.1383C71.9133 58.791 71.5338 58.3064 71.2996 57.6846C71.1138 57.2404 71.0209 56.659 71.0209 55.9402C71.0209 55.4476 71.0896 55.0155 71.2269 54.644C71.4288 54.0141 71.7841 53.5134 72.2929 53.1419C72.8017 52.7704 73.4074 52.5846 74.11 52.5846C74.9984 52.5846 75.7131 52.8431 76.2542 53.3599C76.7872 53.8687 77.1143 54.5552 77.2354 55.4193ZM74.1221 54.2079C73.5649 54.2079 73.1974 54.4704 73.0197 54.9953C72.9874 55.1084 72.9551 55.2497 72.9228 55.4193C72.9228 55.4677 72.9471 55.492 72.9955 55.492H75.2972C75.3537 55.492 75.3739 55.4677 75.3577 55.4193C75.3093 55.1609 75.2851 55.0357 75.2851 55.0438C75.2043 54.7773 75.067 54.5713 74.8732 54.4259C74.6713 54.2806 74.4209 54.2079 74.1221 54.2079ZM82.2142 54.0504C82.2142 54.0908 82.1981 54.1271 82.1658 54.1594C82.1415 54.1917 82.1052 54.2079 82.0567 54.2079H80.7727C80.7323 54.2079 80.7121 54.2281 80.7121 54.2685V57.1031C80.7121 57.3939 80.7727 57.6119 80.8938 57.7573C81.0149 57.8946 81.2088 57.9632 81.4753 57.9632H81.9114C81.9518 57.9632 81.9881 57.9794 82.0204 58.0117C82.0527 58.044 82.0689 58.0803 82.0689 58.1207V59.3927C82.0689 59.4896 82.0164 59.5461 81.9114 59.5623C81.5399 59.5784 81.2734 59.5865 81.1119 59.5865C80.3769 59.5865 79.8237 59.4653 79.4522 59.2231C79.0888 58.9808 78.9031 58.5205 78.895 57.8421V54.2685C78.895 54.2281 78.8748 54.2079 78.8344 54.2079H78.0713C78.0309 54.2079 77.9945 54.1917 77.9622 54.1594C77.9299 54.1271 77.9138 54.0908 77.9138 54.0504V52.8633C77.9138 52.8148 77.9299 52.7744 77.9622 52.7421C77.9945 52.7179 78.0309 52.7058 78.0713 52.7058H78.8344C78.8748 52.7058 78.895 52.6815 78.895 52.6331V51.0462C78.895 51.0058 78.9112 50.9694 78.9435 50.9371C78.9758 50.9048 79.0121 50.8887 79.0525 50.8887H80.5546C80.595 50.8887 80.6313 50.9048 80.6636 50.9371C80.6959 50.9694 80.7121 51.0058 80.7121 51.0462V52.6331C80.7121 52.6815 80.7323 52.7058 80.7727 52.7058H82.0567C82.1052 52.7058 82.1415 52.7179 82.1658 52.7421C82.1981 52.7744 82.2142 52.8148 82.2142 52.8633V54.0504ZM86.0786 59.6471C85.489 59.6471 84.9681 59.5623 84.5159 59.3927C84.0717 59.2231 83.7285 58.9889 83.4862 58.6901C83.2439 58.3832 83.1228 58.0399 83.1228 57.6604V57.5271C83.1228 57.4787 83.1389 57.4383 83.1712 57.406C83.2035 57.3817 83.2399 57.3696 83.2803 57.3696H84.7581C84.8066 57.3696 84.847 57.3817 84.8793 57.406C84.9035 57.4383 84.9156 57.4787 84.9156 57.5271V57.5392C84.9156 57.7331 85.0247 57.8986 85.2427 58.0359C85.4608 58.1732 85.7353 58.2418 86.0665 58.2418C86.3653 58.2418 86.6116 58.1813 86.8054 58.0601C86.9912 57.939 87.084 57.7936 87.084 57.624C87.084 57.4625 87.0033 57.3414 86.8417 57.2606C86.6802 57.1798 86.4178 57.0951 86.0543 57.0062C85.6344 56.9012 85.3073 56.8003 85.0731 56.7034C84.4997 56.5015 84.0434 56.2592 83.7042 55.9765C83.3731 55.6939 83.2076 55.286 83.2076 54.753C83.2076 54.0989 83.462 53.578 83.9707 53.1903C84.4795 52.8027 85.1579 52.6089 86.0059 52.6089C86.5712 52.6089 87.0679 52.6977 87.4959 52.8754C87.9239 53.0611 88.255 53.3195 88.4892 53.6507C88.7234 53.9737 88.8405 54.3452 88.8405 54.7651C88.8405 54.8136 88.8244 54.8499 88.7921 54.8742C88.7598 54.9065 88.7234 54.9226 88.6831 54.9226H87.2536C87.2052 54.9226 87.1688 54.9065 87.1446 54.8742C87.1123 54.8499 87.0961 54.8136 87.0961 54.7651C87.0961 54.5713 86.9952 54.4058 86.7933 54.2685C86.5914 54.1393 86.3289 54.0746 86.0059 54.0746C85.7071 54.0746 85.4648 54.1271 85.279 54.2321C85.0933 54.3371 85.0004 54.4825 85.0004 54.6682C85.0004 54.8459 85.0933 54.9791 85.279 55.068C85.4567 55.1568 85.7596 55.2537 86.1876 55.3587C86.2845 55.3829 86.3935 55.4112 86.5147 55.4435C86.6439 55.4758 86.7771 55.5122 86.9144 55.5525C87.5524 55.7383 88.0531 55.9765 88.4165 56.2673C88.78 56.5661 88.9617 56.9941 88.9617 57.5513C88.9617 58.2055 88.6992 58.7183 88.1743 59.0898C87.6574 59.4613 86.9588 59.6471 86.0786 59.6471Z" fill="#252530"/>
<path d="M40.409 91.6279C39.7791 91.6279 39.2299 91.527 38.7615 91.3251C38.2931 91.1232 37.9297 90.8405 37.6713 90.4771C37.4209 90.1137 37.2957 89.6857 37.2957 89.193V88.8902C37.2957 88.8498 37.3119 88.8134 37.3442 88.7811C37.3684 88.7569 37.4007 88.7448 37.4411 88.7448H38.5192C38.5596 88.7448 38.596 88.7569 38.6283 88.7811C38.6525 88.8134 38.6646 88.8498 38.6646 88.8902V89.1203C38.6646 89.4918 38.8302 89.7987 39.1613 90.041C39.4924 90.2913 39.9446 90.4165 40.518 90.4165C41.0107 90.4165 41.3822 90.3115 41.6325 90.1016C41.8829 89.8916 42.008 89.6211 42.008 89.2899C42.008 89.0638 41.9394 88.87 41.8021 88.7085C41.6648 88.555 41.471 88.4137 41.2206 88.2845C40.9622 88.1553 40.5786 87.9937 40.0698 87.7999C39.4964 87.5899 39.0321 87.3921 38.6767 87.2063C38.3214 87.0206 38.0266 86.7662 37.7924 86.4432C37.5501 86.1282 37.429 85.7325 37.429 85.256C37.429 84.5453 37.6874 83.984 38.2043 83.5722C38.7211 83.1603 39.4116 82.9543 40.2758 82.9543C40.8815 82.9543 41.4185 83.0593 41.8869 83.2693C42.3472 83.4793 42.7066 83.7741 42.965 84.1536C43.2235 84.5251 43.3527 84.9572 43.3527 85.4498V85.6558C43.3527 85.6961 43.3365 85.7325 43.3042 85.7648C43.28 85.789 43.2477 85.8011 43.2073 85.8011H42.1171C42.0767 85.8011 42.0444 85.789 42.0202 85.7648C41.9879 85.7325 41.9717 85.6961 41.9717 85.6558V85.5225C41.9717 85.1429 41.8183 84.8239 41.5114 84.5655C41.1964 84.299 40.7643 84.1657 40.2152 84.1657C39.771 84.1657 39.4278 84.2586 39.1855 84.4444C38.9351 84.6301 38.81 84.8926 38.81 85.2318C38.81 85.474 38.8746 85.6719 39.0038 85.8254C39.133 85.9788 39.3268 86.1161 39.5853 86.2372C39.8437 86.3664 40.2435 86.528 40.7845 86.7218C41.3579 86.9398 41.8183 87.1377 42.1655 87.3154C42.5047 87.493 42.7995 87.7393 43.0498 88.0543C43.2921 88.3773 43.4133 88.7771 43.4133 89.2536C43.4133 89.9804 43.1427 90.5579 42.6016 90.9859C42.0686 91.4139 41.3377 91.6279 40.409 91.6279ZM48.2346 83.0391C48.7434 83.0391 49.1916 83.1441 49.5793 83.3541C49.9669 83.5641 50.2657 83.8588 50.4757 84.2384C50.6937 84.6261 50.8028 85.0703 50.8028 85.571C50.8028 86.0636 50.6937 86.4997 50.4757 86.8793C50.2576 87.2588 49.9507 87.5496 49.555 87.7515C49.1512 87.9614 48.6869 88.0664 48.1619 88.0664H46.2237C46.1833 88.0664 46.1631 88.0866 46.1631 88.127V91.3856C46.1631 91.426 46.151 91.4583 46.1268 91.4826C46.0945 91.5149 46.0581 91.531 46.0178 91.531H44.9033C44.8629 91.531 44.8306 91.5149 44.8064 91.4826C44.7741 91.4583 44.7579 91.426 44.7579 91.3856V83.1845C44.7579 83.1441 44.7741 83.1078 44.8064 83.0755C44.8306 83.0513 44.8629 83.0391 44.9033 83.0391H48.2346ZM48.0287 86.9277C48.4405 86.9277 48.7717 86.8066 49.022 86.5643C49.2724 86.322 49.3975 86.003 49.3975 85.6073C49.3975 85.2035 49.2724 84.8764 49.022 84.6261C48.7717 84.3757 48.4405 84.2505 48.0287 84.2505H46.2237C46.1833 84.2505 46.1631 84.2707 46.1631 84.3111V86.8672C46.1631 86.9075 46.1833 86.9277 46.2237 86.9277H48.0287ZM56.7992 91.531C56.7184 91.531 56.6619 91.4947 56.6296 91.422L55.0305 87.9332C55.0144 87.9009 54.9902 87.8847 54.9578 87.8847H53.5042C53.4638 87.8847 53.4436 87.9049 53.4436 87.9453V91.3856C53.4436 91.426 53.4275 91.4583 53.3951 91.4826C53.3709 91.5149 53.3386 91.531 53.2982 91.531H52.1838C52.1434 91.531 52.1111 91.5149 52.0868 91.4826C52.0545 91.4583 52.0384 91.426 52.0384 91.3856V83.1966C52.0384 83.1562 52.0545 83.1239 52.0868 83.0997C52.1111 83.0674 52.1434 83.0513 52.1838 83.0513H55.5151C56.0077 83.0513 56.4438 83.1522 56.8234 83.3541C57.203 83.5641 57.4977 83.8548 57.7077 84.2263C57.9177 84.6059 58.0227 85.0379 58.0227 85.5225C58.0227 86.0797 57.8813 86.5522 57.5987 86.9398C57.3079 87.3356 56.9082 87.6101 56.3994 87.7636C56.3833 87.7636 56.3711 87.7717 56.3631 87.7878C56.355 87.804 56.355 87.8201 56.3631 87.8363L58.0711 91.3614C58.0873 91.3937 58.0954 91.4179 58.0954 91.4341C58.0954 91.4987 58.0509 91.531 57.9621 91.531H56.7992ZM53.5042 84.2627C53.4638 84.2627 53.4436 84.2828 53.4436 84.3232V86.7339C53.4436 86.7743 53.4638 86.7945 53.5042 86.7945H55.3213C55.7089 86.7945 56.0198 86.6774 56.254 86.4432C56.4963 86.217 56.6175 85.9142 56.6175 85.5346C56.6175 85.155 56.4963 84.8482 56.254 84.614C56.0198 84.3798 55.7089 84.2627 55.3213 84.2627H53.5042ZM59.6096 91.531C59.5692 91.531 59.5329 91.5149 59.5006 91.4826C59.4763 91.4583 59.4642 91.426 59.4642 91.3856V83.1966C59.4642 83.1562 59.4763 83.1239 59.5006 83.0997C59.5329 83.0674 59.5692 83.0513 59.6096 83.0513H60.7241C60.7645 83.0513 60.7968 83.0674 60.821 83.0997C60.8533 83.1239 60.8694 83.1562 60.8694 83.1966V91.3856C60.8694 91.426 60.8533 91.4583 60.821 91.4826C60.7968 91.5149 60.7645 91.531 60.7241 91.531H59.6096ZM67.5685 83.1966C67.5685 83.1562 67.5846 83.1239 67.6169 83.0997C67.6411 83.0674 67.6734 83.0513 67.7138 83.0513H68.8283C68.8687 83.0513 68.905 83.0674 68.9373 83.0997C68.9616 83.1239 68.9737 83.1562 68.9737 83.1966V91.3856C68.9737 91.426 68.9616 91.4583 68.9373 91.4826C68.905 91.5149 68.8687 91.531 68.8283 91.531H67.7502C67.6694 91.531 67.6129 91.4987 67.5806 91.4341L64.0917 85.7163C64.0756 85.6921 64.0594 85.68 64.0433 85.68C64.0271 85.6881 64.0191 85.7083 64.0191 85.7406L64.0433 91.3856C64.0433 91.426 64.0271 91.4583 63.9948 91.4826C63.9706 91.5149 63.9383 91.531 63.8979 91.531H62.7834C62.7431 91.531 62.7108 91.5149 62.6865 91.4826C62.6542 91.4583 62.6381 91.426 62.6381 91.3856V83.1966C62.6381 83.1562 62.6542 83.1239 62.6865 83.0997C62.7108 83.0674 62.7431 83.0513 62.7834 83.0513H63.8616C63.9423 83.0513 63.9989 83.0836 64.0312 83.1482L67.5079 88.8659C67.524 88.8902 67.5402 88.8983 67.5563 88.8902C67.5725 88.8902 67.5806 88.874 67.5806 88.8417L67.5685 83.1966ZM73.577 91.6279C72.9713 91.6279 72.4383 91.5108 71.9779 91.2766C71.5176 91.0343 71.1623 90.6951 70.9119 90.259C70.6615 89.8229 70.5364 89.3222 70.5364 88.7569V85.8254C70.5364 85.252 70.6615 84.7472 70.9119 84.3111C71.1623 83.8831 71.5176 83.5479 71.9779 83.3057C72.4383 83.0714 72.9713 82.9543 73.577 82.9543C74.1746 82.9543 74.7036 83.0714 75.1639 83.3057C75.6161 83.5399 75.9674 83.8589 76.2178 84.2627C76.4682 84.6665 76.5933 85.1227 76.5933 85.6315V85.7284C76.5933 85.7688 76.5812 85.8011 76.557 85.8254C76.5247 85.8577 76.4883 85.8738 76.448 85.8738H75.3456C75.3052 85.8738 75.2729 85.8577 75.2487 85.8254C75.2164 85.8011 75.2002 85.7688 75.2002 85.7284V85.6679C75.2002 85.2318 75.0508 84.8724 74.752 84.5897C74.4613 84.3071 74.0696 84.1657 73.577 84.1657C73.0843 84.1657 72.6886 84.3151 72.3898 84.614C72.091 84.9047 71.9416 85.2923 71.9416 85.7769V88.8054C71.9416 89.2899 72.0991 89.6816 72.414 89.9804C72.729 90.2712 73.1368 90.4165 73.6375 90.4165C74.1221 90.4165 74.5057 90.2873 74.7884 90.0289C75.0629 89.7785 75.2002 89.4313 75.2002 88.9871V88.236C75.2002 88.1956 75.18 88.1754 75.1397 88.1754H73.6496C73.6093 88.1754 73.5729 88.1593 73.5406 88.127C73.5164 88.1028 73.5043 88.0705 73.5043 88.0301V87.1336C73.5043 87.0933 73.5164 87.061 73.5406 87.0367C73.5729 87.0044 73.6093 86.9883 73.6496 86.9883H76.448C76.4883 86.9883 76.5247 87.0044 76.557 87.0367C76.5812 87.061 76.5933 87.0933 76.5933 87.1336V88.6842C76.5933 89.613 76.3228 90.3358 75.7817 90.8526C75.2325 91.3695 74.4976 91.6279 73.577 91.6279Z" fill="#242530"/>
<path d="M40.8329 113.409C40.8087 113.433 40.8006 113.457 40.8087 113.481C40.8248 113.505 40.8491 113.518 40.8814 113.518H45.6421C45.6987 113.518 45.7471 113.538 45.7875 113.578C45.836 113.619 45.8602 113.667 45.8602 113.724V115.432C45.8602 115.488 45.836 115.537 45.7875 115.577C45.7471 115.617 45.6987 115.638 45.6421 115.638H37.7439C37.6793 115.638 37.6268 115.617 37.5864 115.577C37.546 115.537 37.5258 115.488 37.5258 115.432V113.808C37.5258 113.703 37.5622 113.615 37.6348 113.542C38.2082 112.985 38.7937 112.375 39.3914 111.713C39.989 111.05 40.3645 110.639 40.518 110.477C40.841 110.089 41.1721 109.718 41.5113 109.363C42.5773 108.183 43.1103 107.307 43.1103 106.734C43.1103 106.322 42.965 105.983 42.6742 105.716C42.3835 105.458 42.0039 105.329 41.5355 105.329C41.0671 105.329 40.6876 105.458 40.3968 105.716C40.098 105.983 39.9486 106.334 39.9486 106.77V107.206C39.9486 107.263 39.9284 107.311 39.888 107.352C39.8476 107.392 39.7992 107.412 39.7427 107.412H37.6712C37.6146 107.412 37.5662 107.392 37.5258 107.352C37.4774 107.311 37.4531 107.263 37.4531 107.206V106.383C37.4935 105.753 37.6954 105.191 38.0588 104.699C38.4222 104.214 38.9028 103.843 39.5004 103.584C40.1061 103.326 40.7845 103.197 41.5355 103.197C42.3673 103.197 43.0901 103.354 43.7039 103.669C44.3177 103.976 44.7901 104.392 45.1212 104.917C45.4604 105.45 45.63 106.035 45.63 106.673C45.63 107.166 45.5049 107.671 45.2545 108.187C45.0122 108.704 44.6448 109.262 44.1521 109.859C43.7887 110.311 43.397 110.764 42.9771 111.216C42.5571 111.66 41.9312 112.302 41.0994 113.142L40.8329 113.409ZM51.5659 115.831C50.2737 115.831 49.2561 115.472 48.5132 114.753C47.7621 114.034 47.3866 113.053 47.3866 111.81V107.17C47.3866 105.95 47.7621 104.985 48.5132 104.275C49.2561 103.556 50.2737 103.197 51.5659 103.197C52.8499 103.197 53.8715 103.556 54.6307 104.275C55.3818 104.985 55.7573 105.95 55.7573 107.17V111.81C55.7573 113.053 55.3818 114.034 54.6307 114.753C53.8715 115.472 52.8499 115.831 51.5659 115.831ZM51.5659 113.711C52.0908 113.711 52.5067 113.55 52.8136 113.227C53.1286 112.904 53.286 112.472 53.286 111.931V107.097C53.286 106.564 53.1286 106.136 52.8136 105.813C52.5067 105.49 52.0908 105.329 51.5659 105.329C51.049 105.329 50.6371 105.49 50.3302 105.813C50.0153 106.136 49.8578 106.564 49.8578 107.097V111.931C49.8578 112.472 50.0153 112.904 50.3302 113.227C50.6371 113.55 51.049 113.711 51.5659 113.711ZM60.6755 113.409C60.6513 113.433 60.6473 113.457 60.6634 113.481C60.6715 113.505 60.6957 113.518 60.7361 113.518H65.4969C65.5534 113.518 65.6019 113.538 65.6423 113.578C65.6826 113.619 65.7028 113.667 65.7028 113.724V115.432C65.7028 115.488 65.6826 115.537 65.6423 115.577C65.6019 115.617 65.5534 115.638 65.4969 115.638H57.5865C57.53 115.638 57.4815 115.617 57.4411 115.577C57.4007 115.537 57.3806 115.488 57.3806 115.432V113.808C57.3806 113.703 57.4129 113.615 57.4775 113.542C58.0589 112.985 58.6444 112.375 59.234 111.713C59.8316 111.05 60.2071 110.639 60.3606 110.477C60.6917 110.089 61.0268 109.718 61.366 109.363C62.4321 108.183 62.9651 107.307 62.9651 106.734C62.9651 106.322 62.8197 105.983 62.529 105.716C62.2302 105.458 61.8466 105.329 61.3782 105.329C60.9097 105.329 60.5302 105.458 60.2394 105.716C59.9487 105.983 59.8033 106.334 59.8033 106.77V107.206C59.8033 107.263 59.7831 107.311 59.7428 107.352C59.7024 107.392 59.6499 107.412 59.5853 107.412H57.5138C57.4573 107.412 57.4088 107.392 57.3684 107.352C57.3281 107.311 57.3079 107.263 57.3079 107.206V106.383C57.3402 105.753 57.538 105.191 57.9015 104.699C58.2649 104.214 58.7494 103.843 59.3551 103.584C59.9608 103.326 60.6352 103.197 61.3782 103.197C62.21 103.197 62.9328 103.354 63.5465 103.669C64.1684 103.976 64.6449 104.392 64.976 104.917C65.3071 105.45 65.4727 106.035 65.4727 106.673C65.4727 107.166 65.3515 107.671 65.1092 108.187C64.8589 108.704 64.4874 109.262 63.9948 109.859C63.6313 110.311 63.2397 110.764 62.8197 111.216C62.3998 111.66 61.7739 112.302 60.942 113.142L60.6755 113.409ZM76.0118 110.283C76.0683 110.283 76.1208 110.303 76.1693 110.344C76.2096 110.384 76.2298 110.433 76.2298 110.489V112.27C76.2298 112.326 76.2096 112.375 76.1693 112.415C76.1208 112.456 76.0683 112.476 76.0118 112.476H75.2607C75.2042 112.476 75.1759 112.504 75.1759 112.561V115.432C75.1759 115.488 75.1557 115.537 75.1154 115.577C75.0669 115.617 75.0144 115.638 74.9579 115.638H72.9106C72.846 115.638 72.7935 115.617 72.7531 115.577C72.7128 115.537 72.6926 115.488 72.6926 115.432V112.561C72.6926 112.504 72.6643 112.476 72.6078 112.476H67.2171C67.1605 112.476 67.108 112.456 67.0596 112.415C67.0192 112.375 66.999 112.326 66.999 112.27V110.865C66.999 110.792 67.0192 110.703 67.0596 110.598L70.2213 103.499C70.2698 103.394 70.3505 103.342 70.4636 103.342H72.6562C72.737 103.342 72.7935 103.362 72.8258 103.402C72.8581 103.443 72.8541 103.503 72.8137 103.584L69.8821 110.174C69.8741 110.198 69.8741 110.223 69.8821 110.247C69.8983 110.271 69.9185 110.283 69.9427 110.283H72.6078C72.6643 110.283 72.6926 110.251 72.6926 110.186V108.018C72.6926 107.953 72.7128 107.901 72.7531 107.86C72.7935 107.82 72.846 107.8 72.9106 107.8H74.9579C75.0144 107.8 75.0669 107.82 75.1154 107.86C75.1557 107.901 75.1759 107.953 75.1759 108.018V110.186C75.1759 110.251 75.2042 110.283 75.2607 110.283H76.0118Z" fill="#252530"/>
</g>
<defs>
<clipPath id="clip0_1428_5554">
<rect width="113.871" height="147.79" fill="white" transform="translate(0.263428 0.191895)"/>
</clipPath>
</defs>
</svg>
