<svg width="115" height="148" viewBox="0 0 115 148" fill="none" xmlns="http://www.w3.org/2000/svg">
<g clip-path="url(#clip0_1428_5563)">
<path d="M10.2303 109.096L58.0803 133.445L104.113 109.096V13.8806H10.2303V109.096Z" fill="white"/>
<path d="M105.082 14.2441L9.26093 110.792L58.9281 135.383L105.082 111.761V14.2441Z" fill="#F2F3F2" fill-opacity="0.5"/>
<path d="M7.08043 45.6191V111.155L8.77638 112.003L56.6264 136.352L58.0801 137.079L59.5338 136.352L105.688 112.003L107.384 111.155V10.731H7.08043V45.6191ZM10.2301 109.338V13.8806H104.234V109.338L58.0801 133.687L10.2301 109.338Z" fill="#DCDEDC"/>
<path d="M57.2322 15.4554C57.7167 15.4554 58.2013 15.4554 58.6858 15.5765L57.2322 18.3627C55.0517 18.2416 53.1134 19.9375 52.9923 22.1181C52.8711 24.2986 54.5671 26.2368 56.7476 26.3579H57.2322C58.2013 26.3579 59.1704 25.9945 59.8972 25.3888L61.472 28.0539C60.2606 28.9019 58.807 29.3864 57.2322 29.3864C53.3557 29.5076 50.0849 26.6002 49.9638 22.7238C49.8427 18.8473 52.75 15.5765 56.6265 15.4554H57.2322ZM62.1989 21.3912L64.016 24.4197L62.1989 27.327L60.5029 24.4197H56.9899L58.807 21.3912H62.1989ZM59.2915 20.301C59.2915 19.8164 59.4127 19.3319 59.655 18.9684C59.8972 18.605 60.3818 18.2416 60.7452 17.9993L60.9875 17.8782C61.472 17.6359 61.5932 17.5148 61.5932 17.2725C61.5932 17.0302 61.2298 16.7879 60.9875 16.7879C60.5029 16.7879 60.1395 17.0302 59.8972 17.5148L59.2915 16.9091C59.4127 16.6668 59.6549 16.4245 59.8972 16.1822C60.2606 15.9399 60.6241 15.9399 60.9875 15.9399C61.3509 15.9399 61.8355 16.0611 62.0777 16.3034C62.32 16.5456 62.5623 16.9091 62.5623 17.2725C62.5623 17.8782 62.1989 18.3627 61.472 18.605L61.1086 18.8473C60.7452 19.0896 60.5029 19.2107 60.3818 19.5741H62.5623V20.4221L59.2915 20.301ZM57.2322 35.4434L68.7404 28.9019V10.731H45.6028V28.7807L57.2322 35.4434Z" fill="#FF492C"/>
<path d="M109.686 78.3267H4.77902L0.902557 86.8064L4.77902 95.2862H109.686L113.441 86.8064L109.686 78.3267Z" fill="#FFD200"/>
<path d="M40.3817 60.156C40.4382 60.156 40.4907 60.1762 40.5391 60.2165C40.5795 60.265 40.5997 60.3175 40.5997 60.374V62.1548C40.5997 62.2113 40.5795 62.2638 40.5391 62.3123C40.4907 62.3526 40.4382 62.3728 40.3817 62.3728H37.123C37.0665 62.3728 37.0382 62.4051 37.0382 62.4697V72.6576C37.0382 72.7222 37.018 72.7747 36.9776 72.815C36.9292 72.8554 36.8767 72.8756 36.8202 72.8756H34.6881C34.6316 72.8756 34.5831 72.8554 34.5427 72.815C34.4943 72.7747 34.4701 72.7222 34.4701 72.6576V62.4697C34.4701 62.4051 34.4418 62.3728 34.3853 62.3728H31.2235C31.167 62.3728 31.1145 62.3526 31.066 62.3123C31.0257 62.2638 31.0055 62.2113 31.0055 62.1548V60.374C31.0055 60.3175 31.0257 60.265 31.066 60.2165C31.1145 60.1762 31.167 60.156 31.2235 60.156H40.3817ZM44.67 73.021C43.6524 73.021 42.7802 72.7545 42.0534 72.2214C41.3265 71.6884 40.8299 70.9616 40.5634 70.0409C40.3938 69.4756 40.309 68.8578 40.309 68.1875C40.309 67.4768 40.3938 66.8348 40.5634 66.2614C40.846 65.365 41.3467 64.6624 42.0655 64.1536C42.8004 63.6448 43.6726 63.3904 44.6821 63.3904C45.6835 63.3904 46.5355 63.6407 47.2382 64.1415C47.9408 64.6502 48.4334 65.3528 48.716 66.2493C48.9179 66.855 49.0189 67.4889 49.0189 68.1512C49.0189 68.8053 48.9301 69.4191 48.7524 69.9925C48.494 70.9374 48.0013 71.6763 47.2745 72.2093C46.5557 72.7504 45.6876 73.021 44.67 73.021ZM44.67 70.8284C45.0738 70.8284 45.413 70.7072 45.6876 70.4649C45.9702 70.2226 46.1721 69.8875 46.2933 69.4595C46.3902 69.0718 46.4386 68.6478 46.4386 68.1875C46.4386 67.6787 46.3902 67.2507 46.2933 66.9034C46.156 66.4916 45.95 66.1685 45.6755 65.9343C45.3928 65.7082 45.0536 65.5951 44.6579 65.5951C44.246 65.5951 43.9028 65.7082 43.6282 65.9343C43.3536 66.1685 43.1558 66.4916 43.0346 66.9034C42.9377 67.1861 42.8892 67.6141 42.8892 68.1875C42.8892 68.7367 42.9337 69.1607 43.0225 69.4595C43.1356 69.8875 43.3375 70.2226 43.6282 70.4649C43.9109 70.7072 44.2581 70.8284 44.67 70.8284ZM59.0735 73.021C58.1447 73.021 57.325 72.8393 56.6143 72.4758C55.9117 72.1124 55.3626 71.5996 54.9668 70.9374C54.5711 70.2751 54.3733 69.516 54.3733 68.66V60.374C54.3733 60.3175 54.3934 60.265 54.4338 60.2165C54.4823 60.1762 54.5348 60.156 54.5913 60.156H56.7113C56.7759 60.156 56.8283 60.1762 56.8687 60.2165C56.9172 60.265 56.9414 60.3175 56.9414 60.374V68.6842C56.9414 69.3222 57.1352 69.839 57.5229 70.2348C57.9186 70.6305 58.4355 70.8284 59.0735 70.8284C59.7195 70.8284 60.2404 70.6305 60.6362 70.2348C61.0319 69.839 61.2297 69.3222 61.2297 68.6842V60.374C61.2297 60.3175 61.2499 60.265 61.2903 60.2165C61.3307 60.1762 61.3832 60.156 61.4478 60.156H63.5677C63.6323 60.156 63.6848 60.1762 63.7252 60.2165C63.7656 60.265 63.7858 60.3175 63.7858 60.374V68.66C63.7858 69.516 63.5879 70.2751 63.1922 70.9374C62.8046 71.5996 62.2554 72.1124 61.5447 72.4758C60.834 72.8393 60.0103 73.021 59.0735 73.021ZM69.4551 72.9967C68.6475 72.9967 67.9409 72.8837 67.3352 72.6576C66.7295 72.4314 66.257 72.1124 65.9178 71.7006C65.5867 71.2887 65.4212 70.8203 65.4212 70.2953V70.1136C65.4212 70.0571 65.4414 70.0046 65.4817 69.9561C65.5221 69.9158 65.5746 69.8956 65.6392 69.8956H67.6622C67.7188 69.8956 67.7672 69.9158 67.8076 69.9561C67.8561 70.0046 67.8803 70.0571 67.8803 70.1136V70.1257C67.8803 70.4003 68.0257 70.6305 68.3164 70.8162C68.6152 71.002 68.9867 71.0949 69.4309 71.0949C69.8508 71.0949 70.186 71.0141 70.4363 70.8526C70.6867 70.683 70.8119 70.4811 70.8119 70.2469C70.8119 70.0288 70.7069 69.8633 70.4969 69.7502C70.2708 69.6452 69.9114 69.5322 69.4188 69.411C68.8535 69.2656 68.4052 69.1243 68.0741 68.987C67.2988 68.7205 66.681 68.3934 66.2207 68.0058C65.7604 67.6182 65.5302 67.0609 65.5302 66.3341C65.5302 65.4376 65.8775 64.727 66.572 64.202C67.2665 63.6771 68.1912 63.4146 69.3461 63.4146C70.1214 63.4146 70.7998 63.5358 71.3812 63.778C71.9627 64.0284 72.4149 64.3797 72.738 64.832C73.061 65.2761 73.2225 65.7849 73.2225 66.3583C73.2225 66.4148 73.1983 66.4633 73.1499 66.5037C73.1095 66.5441 73.061 66.5642 73.0045 66.5642H71.0541C70.9976 66.5642 70.9451 66.5441 70.8967 66.5037C70.8563 66.4633 70.8361 66.4148 70.8361 66.3583C70.8361 66.0918 70.6988 65.8657 70.4242 65.6799C70.1577 65.4942 69.7983 65.4013 69.3461 65.4013C68.9423 65.4013 68.6152 65.478 68.3649 65.6315C68.1145 65.7768 67.9893 65.9747 67.9893 66.225C67.9893 66.4673 68.1105 66.649 68.3527 66.7702C68.6031 66.8913 69.019 67.0205 69.6005 67.1578L70.0608 67.2668C70.2304 67.3072 70.4081 67.3597 70.5938 67.4243C71.4579 67.6828 72.1363 68.0098 72.629 68.4056C73.1297 68.8094 73.38 69.3908 73.38 70.15C73.38 71.0464 73.0247 71.745 72.314 72.2457C71.6033 72.7464 70.6504 72.9967 69.4551 72.9967ZM83.1196 67.2426C83.1923 67.703 83.2165 68.2158 83.1923 68.7811C83.1762 68.9345 83.0954 69.0113 82.95 69.0113H77.3413C77.2686 69.0113 77.2444 69.0395 77.2686 69.0961C77.309 69.3383 77.3736 69.5806 77.4624 69.8229C77.7774 70.5013 78.4235 70.8405 79.4006 70.8405C80.1759 70.8324 80.7857 70.5174 81.2299 69.8956C81.2783 69.8229 81.3348 69.7866 81.3994 69.7866C81.4318 69.7866 81.4721 69.8108 81.5206 69.8592L82.8289 71.1433C82.8854 71.2079 82.9137 71.2644 82.9137 71.3129C82.9137 71.3371 82.8935 71.3856 82.8531 71.4583C82.4493 71.959 81.9325 72.3426 81.3025 72.6091C80.6726 72.8837 79.9821 73.021 79.2311 73.021C78.1893 73.021 77.309 72.7868 76.5902 72.3184C75.8715 71.8419 75.3546 71.1797 75.0396 70.3317C74.7812 69.726 74.652 68.9345 74.652 67.9573C74.652 67.287 74.7449 66.6975 74.9306 66.1887C75.2052 65.3327 75.6897 64.6502 76.3843 64.1415C77.0788 63.6327 77.9066 63.3783 78.8676 63.3783C80.079 63.3783 81.0522 63.7296 81.7871 64.4322C82.522 65.1348 82.9662 66.0716 83.1196 67.2426ZM78.8919 65.5951C78.1246 65.5951 77.6199 65.9505 77.3776 66.6612C77.3292 66.8227 77.2847 67.0165 77.2444 67.2426C77.2444 67.2992 77.2767 67.3274 77.3413 67.3274H80.4909C80.5636 67.3274 80.5878 67.2992 80.5636 67.2426C80.499 66.8954 80.4667 66.7258 80.4667 66.7338C80.3617 66.3704 80.1719 66.0878 79.8973 65.8859C79.6227 65.692 79.2876 65.5951 78.8919 65.5951ZM36.6021 43.9596C36.6021 44.0242 36.5779 44.0767 36.5294 44.1171C36.4891 44.1575 36.4406 44.1777 36.3841 44.1777H30.4119C30.3554 44.1777 30.3271 44.21 30.3271 44.2746V47.085C30.3271 47.1496 30.3554 47.1819 30.4119 47.1819H34.3247C34.3812 47.1819 34.4337 47.2021 34.4822 47.2425C34.5226 47.291 34.5427 47.3435 34.5427 47.4V49.1565C34.5427 49.2211 34.5226 49.2736 34.4822 49.314C34.4337 49.3625 34.3812 49.3867 34.3247 49.3867H30.4119C30.3554 49.3867 30.3271 49.4149 30.3271 49.4715V52.4152C30.3271 52.4798 30.3554 52.5121 30.4119 52.5121H36.3841C36.4406 52.5121 36.4891 52.5323 36.5294 52.5726C36.5779 52.613 36.6021 52.6615 36.6021 52.718V54.4866C36.6021 54.5513 36.5779 54.6038 36.5294 54.6441C36.4891 54.6845 36.4406 54.7047 36.3841 54.7047H27.977C27.9205 54.7047 27.872 54.6845 27.8316 54.6441C27.7832 54.6038 27.7589 54.5513 27.7589 54.4866V42.2031C27.7589 42.1466 27.7832 42.0941 27.8316 42.0456C27.872 42.0053 27.9205 41.9851 27.977 41.9851H36.3841C36.4406 41.9851 36.4891 42.0053 36.5294 42.0456C36.5779 42.0941 36.6021 42.1466 36.6021 42.2031V43.9596ZM41.9444 45.2195C42.7277 45.2195 43.4303 45.3568 44.0522 45.6314C44.666 45.9059 45.1465 46.2774 45.4937 46.7458C45.8329 47.2223 46.0025 47.7513 46.0025 48.3328V54.4866C46.0025 54.5513 45.9823 54.6038 45.942 54.6441C45.9016 54.6845 45.8491 54.7047 45.7845 54.7047H43.6645C43.5999 54.7047 43.5474 54.6845 43.5071 54.6441C43.4667 54.6038 43.4465 54.5513 43.4465 54.4866V53.8931C43.4465 53.8527 43.4344 53.8285 43.4101 53.8204C43.3859 53.8042 43.3617 53.8163 43.3375 53.8567C42.8287 54.519 42.009 54.8501 40.8783 54.8501C39.9334 54.8501 39.1743 54.6199 38.6009 54.1596C38.0114 53.6992 37.7166 53.0209 37.7166 52.1244C37.7166 51.1957 38.0477 50.4729 38.7099 49.956C39.356 49.4392 40.2848 49.1807 41.4961 49.1807H43.3617C43.4182 49.1807 43.4465 49.1525 43.4465 49.0959V48.6962C43.4465 48.2924 43.3254 47.9774 43.0831 47.7513C42.8408 47.5332 42.4774 47.4242 41.9928 47.4242C41.6213 47.4242 41.3104 47.4888 41.06 47.6181C40.8097 47.7553 40.6482 47.9451 40.5755 48.1874C40.5432 48.3166 40.4624 48.3772 40.3332 48.3691L38.1406 48.0784C37.9952 48.0541 37.9266 47.9976 37.9346 47.9088C37.9912 47.4 38.1971 46.9397 38.5525 46.5278C38.9078 46.1159 39.3802 45.7969 39.9698 45.5708C40.5513 45.3366 41.2094 45.2195 41.9444 45.2195ZM41.5688 52.9482C42.0938 52.9482 42.5379 52.8069 42.9014 52.5242C43.2648 52.2415 43.4465 51.8822 43.4465 51.4461V50.7919C43.4465 50.7354 43.4182 50.7071 43.3617 50.7071H42.0534C41.5042 50.7071 41.0762 50.8121 40.7693 51.0221C40.4624 51.224 40.309 51.5147 40.309 51.8943C40.309 52.2173 40.422 52.4717 40.6482 52.6574C40.8743 52.8513 41.1812 52.9482 41.5688 52.9482ZM51.5386 54.8258C50.7229 54.8258 50.0122 54.7128 49.4065 54.4866C48.8008 54.2605 48.3324 53.9415 48.0013 53.5296C47.6621 53.1178 47.4925 52.6494 47.4925 52.1244V51.9427C47.4925 51.8862 47.5168 51.8337 47.5652 51.7852C47.6056 51.7449 47.6541 51.7247 47.7106 51.7247H49.7336C49.7982 51.7247 49.8507 51.7449 49.8911 51.7852C49.9315 51.8337 49.9517 51.8862 49.9517 51.9427V51.9548C49.9517 52.2294 50.1011 52.4596 50.3999 52.6453C50.6906 52.8311 51.0621 52.924 51.5144 52.924C51.9262 52.924 52.2574 52.8432 52.5077 52.6817C52.7661 52.5121 52.8954 52.3102 52.8954 52.076C52.8954 51.8579 52.7863 51.6924 52.5683 51.5793C52.3502 51.4743 51.9909 51.3613 51.4901 51.2401C50.9248 51.0947 50.4766 50.9534 50.1455 50.8161C49.3702 50.5496 48.7524 50.2225 48.2921 49.8349C47.8317 49.4473 47.6016 48.89 47.6016 48.1632C47.6016 47.2667 47.9529 46.5561 48.6555 46.0311C49.35 45.5062 50.2747 45.2437 51.4296 45.2437C52.2049 45.2437 52.8832 45.3649 53.4647 45.6071C54.0381 45.8575 54.4863 46.2088 54.8094 46.661C55.1324 47.1052 55.2939 47.614 55.2939 48.1874C55.2939 48.2439 55.2737 48.2924 55.2333 48.3328C55.193 48.3732 55.1405 48.3933 55.0759 48.3933H53.1376C53.073 48.3933 53.0205 48.3732 52.9802 48.3328C52.9398 48.2924 52.9196 48.2439 52.9196 48.1874C52.9196 47.9209 52.7823 47.6948 52.5077 47.509C52.2331 47.3233 51.8738 47.2304 51.4296 47.2304C51.0258 47.2304 50.6947 47.3071 50.4362 47.4606C50.1859 47.6059 50.0607 47.8038 50.0607 48.0541C50.0607 48.2964 50.1859 48.4781 50.4362 48.5993C50.6785 48.7204 51.0944 48.8496 51.684 48.9869C51.8132 49.0192 51.9626 49.0556 52.1322 49.0959C52.3018 49.1363 52.4835 49.1888 52.6773 49.2534C53.5414 49.5119 54.2198 49.8389 54.7125 50.2347C55.2051 50.6385 55.4514 51.2199 55.4514 51.9791C55.4514 52.8755 55.1001 53.5741 54.3975 54.0748C53.6868 54.5755 52.7338 54.8258 51.5386 54.8258ZM58.3103 44.3109C57.8984 44.3109 57.5552 44.1737 57.2806 43.8991C57.0141 43.6326 56.8808 43.2934 56.8808 42.8815C56.8808 42.4535 57.0141 42.1062 57.2806 41.8397C57.5471 41.5732 57.8903 41.4399 58.3103 41.4399C58.7383 41.4399 59.0815 41.5732 59.34 41.8397C59.6146 42.1062 59.7518 42.4535 59.7518 42.8815C59.7518 43.2934 59.6146 43.6326 59.34 43.8991C59.0654 44.1737 58.7222 44.3109 58.3103 44.3109ZM57.22 54.7047C57.1635 54.7047 57.111 54.6845 57.0626 54.6441C57.0222 54.6038 57.002 54.5513 57.002 54.4866V45.5708C57.002 45.5062 57.0222 45.4537 57.0626 45.4133C57.111 45.3729 57.1635 45.3527 57.22 45.3527H59.34C59.4046 45.3527 59.4571 45.3729 59.4975 45.4133C59.5378 45.4537 59.558 45.5062 59.558 45.5708V54.4866C59.558 54.5513 59.5378 54.6038 59.4975 54.6441C59.4571 54.6845 59.4046 54.7047 59.34 54.7047H57.22ZM69.8306 49.0717C69.9033 49.532 69.9276 50.0449 69.9033 50.6102C69.8952 50.7636 69.8185 50.8404 69.6732 50.8404H64.0523C63.9796 50.8404 63.9554 50.8686 63.9796 50.9252C64.02 51.1674 64.0886 51.4097 64.1855 51.652C64.5005 52.3304 65.1385 52.6696 66.0996 52.6696C66.8748 52.6615 67.4886 52.3465 67.9409 51.7247C67.9893 51.652 68.0459 51.6156 68.1105 51.6156C68.1428 51.6156 68.1831 51.6399 68.2316 51.6883L69.5399 52.9724C69.6045 53.037 69.6368 53.0935 69.6368 53.142C69.6368 53.1662 69.6086 53.2147 69.552 53.2874C69.1563 53.7881 68.6435 54.1717 68.0135 54.4382C67.3836 54.7128 66.6931 54.8501 65.9421 54.8501C64.9003 54.8501 64.02 54.6159 63.3012 54.1475C62.5825 53.671 62.0616 53.0088 61.7385 52.1608C61.4882 51.5551 61.363 50.7636 61.363 49.7864C61.363 49.1161 61.4559 48.5266 61.6416 48.0178C61.9162 47.1618 62.4008 46.4793 63.0953 45.9706C63.7979 45.4618 64.6257 45.2074 65.5787 45.2074C66.79 45.2074 67.7632 45.5587 68.4981 46.2613C69.233 46.9639 69.6772 47.9007 69.8306 49.0717ZM65.5908 47.4242C64.8316 47.4242 64.3309 47.7796 64.0886 48.4903C64.0402 48.6518 63.9998 48.8456 63.9675 49.0717C63.9675 49.1283 63.9958 49.1565 64.0523 49.1565H67.2019C67.2665 49.1565 67.2867 49.1283 67.2625 49.0717C67.206 48.7245 67.1777 48.5549 67.1777 48.5629C67.0646 48.1995 66.8748 47.9169 66.6083 47.715C66.3338 47.5211 65.9946 47.4242 65.5908 47.4242ZM75.0881 54.8258C74.2724 54.8258 73.5617 54.7128 72.956 54.4866C72.3503 54.2605 71.8819 53.9415 71.5508 53.5296C71.2197 53.1178 71.0541 52.6494 71.0541 52.1244V51.9427C71.0541 51.8862 71.0743 51.8337 71.1147 51.7852C71.1551 51.7449 71.2076 51.7247 71.2722 51.7247H73.2831C73.3477 51.7247 73.4002 51.7449 73.4406 51.7852C73.481 51.8337 73.5012 51.8862 73.5012 51.9427V51.9548C73.5012 52.2294 73.6506 52.4596 73.9494 52.6453C74.2482 52.8311 74.6197 52.924 75.0639 52.924C75.4757 52.924 75.8109 52.8432 76.0693 52.6817C76.3197 52.5121 76.4448 52.3102 76.4448 52.076C76.4448 51.8579 76.3358 51.6924 76.1178 51.5793C75.8997 51.4743 75.5444 51.3613 75.0518 51.2401C74.4784 51.0947 74.0301 50.9534 73.7071 50.8161C72.9318 50.5496 72.314 50.2225 71.8537 49.8349C71.3933 49.4473 71.1632 48.89 71.1632 48.1632C71.1632 47.2667 71.5104 46.5561 72.205 46.0311C72.8995 45.5062 73.8242 45.2437 74.9791 45.2437C75.7544 45.2437 76.4327 45.3649 77.0142 45.6071C77.5957 45.8575 78.0439 46.2088 78.3588 46.661C78.6819 47.1052 78.8434 47.614 78.8434 48.1874C78.8434 48.2439 78.8232 48.2924 78.7828 48.3328C78.7425 48.3732 78.69 48.3933 78.6254 48.3933H76.6871C76.6225 48.3933 76.57 48.3732 76.5297 48.3328C76.4893 48.2924 76.4691 48.2439 76.4691 48.1874C76.4691 47.9209 76.3318 47.6948 76.0572 47.509C75.7826 47.3233 75.4232 47.2304 74.9791 47.2304C74.5753 47.2304 74.2482 47.3071 73.9978 47.4606C73.7394 47.6059 73.6102 47.8038 73.6102 48.0541C73.6102 48.2964 73.7354 48.4781 73.9857 48.5993C74.2361 48.7204 74.652 48.8496 75.2335 48.9869C75.3627 49.0192 75.5121 49.0556 75.6817 49.0959C75.8513 49.1363 76.033 49.1888 76.2268 49.2534C77.0909 49.5119 77.7693 49.8389 78.2619 50.2347C78.7627 50.6385 79.013 51.2199 79.013 51.9791C79.013 52.8755 78.6577 53.5741 77.947 54.0748C77.2363 54.5755 76.2833 54.8258 75.0881 54.8258ZM85.821 47.2062C85.821 47.2627 85.8008 47.3112 85.7605 47.3515C85.7201 47.4 85.6676 47.4242 85.603 47.4242H83.8586C83.802 47.4242 83.7738 47.4525 83.7738 47.509V51.3613C83.7738 51.757 83.8545 52.0558 84.0161 52.2577C84.1776 52.4515 84.4401 52.5484 84.8035 52.5484H85.4092C85.4657 52.5484 85.5141 52.5686 85.5545 52.609C85.603 52.6494 85.6272 52.7019 85.6272 52.7665V54.4866C85.6272 54.6239 85.5545 54.7007 85.4092 54.7168C84.9004 54.741 84.537 54.7532 84.3189 54.7532C83.3094 54.7532 82.5584 54.5876 82.0657 54.2565C81.565 53.9254 81.3106 53.2995 81.3025 52.3788V47.509C81.3025 47.4525 81.2702 47.4242 81.2056 47.4242H80.1759C80.1113 47.4242 80.0588 47.4 80.0185 47.3515C79.9781 47.3112 79.9579 47.2627 79.9579 47.2062V45.5829C79.9579 45.5264 79.9781 45.4739 80.0185 45.4254C80.0588 45.385 80.1113 45.3649 80.1759 45.3649H81.2056C81.2702 45.3649 81.3025 45.3326 81.3025 45.2679V43.1117C81.3025 43.0551 81.3227 43.0026 81.3631 42.9542C81.4035 42.9138 81.456 42.8936 81.5206 42.8936H83.5557C83.6123 42.8936 83.6607 42.9138 83.7011 42.9542C83.7496 43.0026 83.7738 43.0551 83.7738 43.1117V45.2679C83.7738 45.3326 83.802 45.3649 83.8586 45.3649H85.603C85.6676 45.3649 85.7201 45.385 85.7605 45.4254C85.8008 45.4739 85.821 45.5264 85.821 45.5829V47.2062Z" fill="#252530"/>
<path d="M40.5635 91.6279C39.9336 91.6279 39.3844 91.527 38.916 91.3251C38.4476 91.1232 38.0842 90.8405 37.8258 90.4771C37.5754 90.1137 37.4503 89.6857 37.4503 89.193V88.8902C37.4503 88.8498 37.4664 88.8134 37.4987 88.7811C37.5229 88.7569 37.5552 88.7448 37.5956 88.7448H38.6738C38.7141 88.7448 38.7505 88.7569 38.7828 88.7811C38.807 88.8134 38.8191 88.8498 38.8191 88.8902V89.1203C38.8191 89.4918 38.9847 89.7987 39.3158 90.041C39.6469 90.2913 40.0992 90.4165 40.6726 90.4165C41.1652 90.4165 41.5367 90.3115 41.787 90.1016C42.0374 89.8916 42.1626 89.6211 42.1626 89.2899C42.1626 89.0638 42.0939 88.87 41.9566 88.7085C41.8194 88.555 41.6255 88.4137 41.3752 88.2845C41.1167 88.1553 40.7331 87.9937 40.2243 87.7999C39.651 87.5899 39.1866 87.3921 38.8312 87.2063C38.4759 87.0206 38.1811 86.7662 37.9469 86.4432C37.7046 86.1282 37.5835 85.7325 37.5835 85.256C37.5835 84.5453 37.8419 83.984 38.3588 83.5722C38.8757 83.1603 39.5662 82.9543 40.4303 82.9543C41.036 82.9543 41.573 83.0593 42.0414 83.2693C42.5018 83.4793 42.8611 83.7741 43.1196 84.1536C43.378 84.5251 43.5072 84.9572 43.5072 85.4498V85.6558C43.5072 85.6961 43.4911 85.7325 43.4588 85.7648C43.4345 85.789 43.4022 85.8011 43.3619 85.8011H42.2716C42.2312 85.8011 42.1989 85.789 42.1747 85.7648C42.1424 85.7325 42.1262 85.6961 42.1262 85.6558V85.5225C42.1262 85.1429 41.9728 84.8239 41.6659 84.5655C41.3509 84.299 40.9189 84.1657 40.3697 84.1657C39.9255 84.1657 39.5823 84.2586 39.34 84.4444C39.0897 84.6301 38.9645 84.8926 38.9645 85.2318C38.9645 85.474 39.0291 85.6719 39.1583 85.8254C39.2875 85.9788 39.4814 86.1161 39.7398 86.2372C39.9982 86.3664 40.398 86.528 40.9391 86.7218C41.5125 86.9398 41.9728 87.1377 42.3201 87.3154C42.6592 87.493 42.954 87.7393 43.2044 88.0543C43.4467 88.3773 43.5678 88.7771 43.5678 89.2536C43.5678 89.9804 43.2973 90.5579 42.7562 90.9859C42.2231 91.4139 41.4923 91.6279 40.5635 91.6279ZM48.3891 83.0391C48.8979 83.0391 49.3461 83.1441 49.7338 83.3541C50.1214 83.5641 50.4202 83.8588 50.6302 84.2384C50.8483 84.6261 50.9573 85.0703 50.9573 85.571C50.9573 86.0636 50.8483 86.4997 50.6302 86.8793C50.4122 87.2588 50.1053 87.5496 49.7096 87.7515C49.3058 87.9614 48.8414 88.0664 48.3165 88.0664H46.3782C46.3378 88.0664 46.3177 88.0866 46.3177 88.127V91.3856C46.3177 91.426 46.3055 91.4583 46.2813 91.4826C46.249 91.5149 46.2127 91.531 46.1723 91.531H45.0578C45.0174 91.531 44.9851 91.5149 44.9609 91.4826C44.9286 91.4583 44.9124 91.426 44.9124 91.3856V83.1845C44.9124 83.1441 44.9286 83.1078 44.9609 83.0755C44.9851 83.0513 45.0174 83.0391 45.0578 83.0391H48.3891ZM48.1832 86.9277C48.5951 86.9277 48.9262 86.8066 49.1765 86.5643C49.4269 86.322 49.5521 86.003 49.5521 85.6073C49.5521 85.2035 49.4269 84.8764 49.1765 84.6261C48.9262 84.3757 48.5951 84.2505 48.1832 84.2505H46.3782C46.3378 84.2505 46.3177 84.2707 46.3177 84.3111V86.8672C46.3177 86.9075 46.3378 86.9277 46.3782 86.9277H48.1832ZM56.9537 91.531C56.8729 91.531 56.8164 91.4947 56.7841 91.422L55.1851 87.9332C55.1689 87.9009 55.1447 87.8847 55.1124 87.8847H53.6587C53.6183 87.8847 53.5981 87.9049 53.5981 87.9453V91.3856C53.5981 91.426 53.582 91.4583 53.5497 91.4826C53.5254 91.5149 53.4931 91.531 53.4528 91.531H52.3383C52.2979 91.531 52.2656 91.5149 52.2414 91.4826C52.2091 91.4583 52.1929 91.426 52.1929 91.3856V83.1966C52.1929 83.1562 52.2091 83.1239 52.2414 83.0997C52.2656 83.0674 52.2979 83.0513 52.3383 83.0513H55.6696C56.1622 83.0513 56.5983 83.1522 56.9779 83.3541C57.3575 83.5641 57.6523 83.8548 57.8622 84.2263C58.0722 84.6059 58.1772 85.0379 58.1772 85.5225C58.1772 86.0797 58.0359 86.5522 57.7532 86.9398C57.4625 87.3356 57.0627 87.6101 56.5539 87.7636C56.5378 87.7636 56.5257 87.7717 56.5176 87.7878C56.5095 87.804 56.5095 87.8201 56.5176 87.8363L58.2257 91.3614C58.2418 91.3937 58.2499 91.4179 58.2499 91.4341C58.2499 91.4987 58.2055 91.531 58.1166 91.531H56.9537ZM53.6587 84.2627C53.6183 84.2627 53.5981 84.2828 53.5981 84.3232V86.7339C53.5981 86.7743 53.6183 86.7945 53.6587 86.7945H55.4758C55.8634 86.7945 56.1744 86.6774 56.4086 86.4432C56.6508 86.217 56.772 85.9142 56.772 85.5346C56.772 85.155 56.6508 84.8482 56.4086 84.614C56.1744 84.3798 55.8634 84.2627 55.4758 84.2627H53.6587ZM59.7641 91.531C59.7237 91.531 59.6874 91.5149 59.6551 91.4826C59.6309 91.4583 59.6188 91.426 59.6188 91.3856V83.1966C59.6188 83.1562 59.6309 83.1239 59.6551 83.0997C59.6874 83.0674 59.7237 83.0513 59.7641 83.0513H60.8786C60.919 83.0513 60.9513 83.0674 60.9755 83.0997C61.0078 83.1239 61.024 83.1562 61.024 83.1966V91.3856C61.024 91.426 61.0078 91.4583 60.9755 91.4826C60.9513 91.5149 60.919 91.531 60.8786 91.531H59.7641ZM67.723 83.1966C67.723 83.1562 67.7391 83.1239 67.7714 83.0997C67.7957 83.0674 67.828 83.0513 67.8683 83.0513H68.9828C69.0232 83.0513 69.0595 83.0674 69.0919 83.0997C69.1161 83.1239 69.1282 83.1562 69.1282 83.1966V91.3856C69.1282 91.426 69.1161 91.4583 69.0919 91.4826C69.0595 91.5149 69.0232 91.531 68.9828 91.531H67.9047C67.8239 91.531 67.7674 91.4987 67.7351 91.4341L64.2463 85.7163C64.2301 85.6921 64.214 85.68 64.1978 85.68C64.1817 85.6881 64.1736 85.7083 64.1736 85.7406L64.1978 91.3856C64.1978 91.426 64.1817 91.4583 64.1494 91.4826C64.1251 91.5149 64.0928 91.531 64.0525 91.531H62.938C62.8976 91.531 62.8653 91.5149 62.8411 91.4826C62.8088 91.4583 62.7926 91.426 62.7926 91.3856V83.1966C62.7926 83.1562 62.8088 83.1239 62.8411 83.0997C62.8653 83.0674 62.8976 83.0513 62.938 83.0513H64.0161C64.0969 83.0513 64.1534 83.0836 64.1857 83.1482L67.6624 88.8659C67.6786 88.8902 67.6947 88.8983 67.7109 88.8902C67.727 88.8902 67.7351 88.874 67.7351 88.8417L67.723 83.1966ZM73.7315 91.6279C73.1258 91.6279 72.5928 91.5108 72.1325 91.2766C71.6721 91.0343 71.3168 90.6951 71.0664 90.259C70.8161 89.8229 70.6909 89.3222 70.6909 88.7569V85.8254C70.6909 85.252 70.8161 84.7472 71.0664 84.3111C71.3168 83.8831 71.6721 83.5479 72.1325 83.3057C72.5928 83.0714 73.1258 82.9543 73.7315 82.9543C74.3291 82.9543 74.8581 83.0714 75.3184 83.3057C75.7707 83.5399 76.122 83.8589 76.3723 84.2627C76.6227 84.6665 76.7479 85.1227 76.7479 85.6315V85.7284C76.7479 85.7688 76.7357 85.8011 76.7115 85.8254C76.6792 85.8577 76.6429 85.8738 76.6025 85.8738H75.5001C75.4597 85.8738 75.4274 85.8577 75.4032 85.8254C75.3709 85.8011 75.3548 85.7688 75.3548 85.7284V85.6679C75.3548 85.2318 75.2054 84.8724 74.9065 84.5897C74.6158 84.3071 74.2241 84.1657 73.7315 84.1657C73.2389 84.1657 72.8431 84.3151 72.5443 84.614C72.2455 84.9047 72.0961 85.2923 72.0961 85.7769V88.8054C72.0961 89.2899 72.2536 89.6816 72.5686 89.9804C72.8835 90.2712 73.2914 90.4165 73.7921 90.4165C74.2766 90.4165 74.6602 90.2873 74.9429 90.0289C75.2175 89.7785 75.3548 89.4313 75.3548 88.9871V88.236C75.3548 88.1956 75.3346 88.1754 75.2942 88.1754H73.8042C73.7638 88.1754 73.7275 88.1593 73.6952 88.127C73.6709 88.1028 73.6588 88.0705 73.6588 88.0301V87.1336C73.6588 87.0933 73.6709 87.061 73.6952 87.0367C73.7275 87.0044 73.7638 86.9883 73.8042 86.9883H76.6025C76.6429 86.9883 76.6792 87.0044 76.7115 87.0367C76.7357 87.061 76.7479 87.0933 76.7479 87.1336V88.6842C76.7479 89.613 76.4773 90.3358 75.9362 90.8526C75.3871 91.3695 74.6521 91.6279 73.7315 91.6279Z" fill="#242530"/>
<path d="M40.9874 113.409C40.9632 113.433 40.9551 113.457 40.9632 113.481C40.9794 113.505 41.0036 113.518 41.0359 113.518H45.7967C45.8532 113.518 45.9017 113.538 45.942 113.578C45.9905 113.619 46.0147 113.667 46.0147 113.724V115.432C46.0147 115.488 45.9905 115.537 45.942 115.577C45.9017 115.617 45.8532 115.638 45.7967 115.638H37.8984C37.8338 115.638 37.7813 115.617 37.7409 115.577C37.7005 115.537 37.6803 115.488 37.6803 115.432V113.808C37.6803 113.703 37.7167 113.615 37.7894 113.542C38.3628 112.985 38.9483 112.375 39.5459 111.713C40.1435 111.05 40.519 110.639 40.6725 110.477C40.9955 110.089 41.3266 109.718 41.6658 109.363C42.7318 108.183 43.2649 107.307 43.2649 106.734C43.2649 106.322 43.1195 105.983 42.8288 105.716C42.538 105.458 42.1585 105.329 41.69 105.329C41.2216 105.329 40.8421 105.458 40.5513 105.716C40.2525 105.983 40.1031 106.334 40.1031 106.77V107.206C40.1031 107.263 40.0829 107.311 40.0425 107.352C40.0022 107.392 39.9537 107.412 39.8972 107.412H37.8257C37.7692 107.412 37.7207 107.392 37.6803 107.352C37.6319 107.311 37.6077 107.263 37.6077 107.206V106.383C37.648 105.753 37.8499 105.191 38.2133 104.699C38.5768 104.214 39.0573 103.843 39.6549 103.584C40.2606 103.326 40.939 103.197 41.69 103.197C42.5219 103.197 43.2447 103.354 43.8584 103.669C44.4722 103.976 44.9447 104.392 45.2758 104.917C45.615 105.45 45.7846 106.035 45.7846 106.673C45.7846 107.166 45.6594 107.671 45.409 108.187C45.1667 108.704 44.7993 109.262 44.3067 109.859C43.9432 110.311 43.5516 110.764 43.1316 111.216C42.7117 111.66 42.0858 112.302 41.2539 113.142L40.9874 113.409ZM51.7204 115.831C50.4282 115.831 49.4107 115.472 48.6677 114.753C47.9166 114.034 47.5411 113.053 47.5411 111.81V107.17C47.5411 105.95 47.9166 104.985 48.6677 104.275C49.4107 103.556 50.4282 103.197 51.7204 103.197C53.0045 103.197 54.0261 103.556 54.7852 104.275C55.5363 104.985 55.9118 105.95 55.9118 107.17V111.81C55.9118 113.053 55.5363 114.034 54.7852 114.753C54.0261 115.472 53.0045 115.831 51.7204 115.831ZM51.7204 113.711C52.2453 113.711 52.6612 113.55 52.9681 113.227C53.2831 112.904 53.4406 112.472 53.4406 111.931V107.097C53.4406 106.564 53.2831 106.136 52.9681 105.813C52.6612 105.49 52.2453 105.329 51.7204 105.329C51.2035 105.329 50.7917 105.49 50.4848 105.813C50.1698 106.136 50.0123 106.564 50.0123 107.097V111.931C50.0123 112.472 50.1698 112.904 50.4848 113.227C50.7917 113.55 51.2035 113.711 51.7204 113.711ZM60.8301 113.409C60.8058 113.433 60.8018 113.457 60.818 113.481C60.826 113.505 60.8503 113.518 60.8906 113.518H65.6514C65.7079 113.518 65.7564 113.538 65.7968 113.578C65.8372 113.619 65.8573 113.667 65.8573 113.724V115.432C65.8573 115.488 65.8372 115.537 65.7968 115.577C65.7564 115.617 65.7079 115.638 65.6514 115.638H57.741C57.6845 115.638 57.636 115.617 57.5956 115.577C57.5553 115.537 57.5351 115.488 57.5351 115.432V113.808C57.5351 113.703 57.5674 113.615 57.632 113.542C58.2135 112.985 58.799 112.375 59.3885 111.713C59.9861 111.05 60.3617 110.639 60.5151 110.477C60.8462 110.089 61.1814 109.718 61.5206 109.363C62.5866 108.183 63.1196 107.307 63.1196 106.734C63.1196 106.322 62.9742 105.983 62.6835 105.716C62.3847 105.458 62.0011 105.329 61.5327 105.329C61.0643 105.329 60.6847 105.458 60.394 105.716C60.1032 105.983 59.9579 106.334 59.9579 106.77V107.206C59.9579 107.263 59.9377 107.311 59.8973 107.352C59.8569 107.392 59.8044 107.412 59.7398 107.412H57.6683C57.6118 107.412 57.5633 107.392 57.523 107.352C57.4826 107.311 57.4624 107.263 57.4624 107.206V106.383C57.4947 105.753 57.6926 105.191 58.056 104.699C58.4194 104.214 58.9039 103.843 59.5096 103.584C60.1153 103.326 60.7897 103.197 61.5327 103.197C62.3645 103.197 63.0873 103.354 63.7011 103.669C64.3229 103.976 64.7994 104.392 65.1305 104.917C65.4616 105.45 65.6272 106.035 65.6272 106.673C65.6272 107.166 65.506 107.671 65.2638 108.187C65.0134 108.704 64.6419 109.262 64.1493 109.859C63.7859 110.311 63.3942 110.764 62.9742 111.216C62.5543 111.66 61.9284 112.302 61.0966 113.142L60.8301 113.409ZM76.1663 110.283C76.2228 110.283 76.2753 110.303 76.3238 110.344C76.3642 110.384 76.3844 110.433 76.3844 110.489V112.27C76.3844 112.326 76.3642 112.375 76.3238 112.415C76.2753 112.456 76.2228 112.476 76.1663 112.476H75.4152C75.3587 112.476 75.3304 112.504 75.3304 112.561V115.432C75.3304 115.488 75.3103 115.537 75.2699 115.577C75.2214 115.617 75.1689 115.638 75.1124 115.638H73.0651C73.0005 115.638 72.948 115.617 72.9077 115.577C72.8673 115.537 72.8471 115.488 72.8471 115.432V112.561C72.8471 112.504 72.8188 112.476 72.7623 112.476H67.3716C67.3151 112.476 67.2626 112.456 67.2141 112.415C67.1737 112.375 67.1535 112.326 67.1535 112.27V110.865C67.1535 110.792 67.1737 110.703 67.2141 110.598L70.3758 103.499C70.4243 103.394 70.5051 103.342 70.6181 103.342H72.8107C72.8915 103.342 72.948 103.362 72.9803 103.402C73.0126 103.443 73.0086 103.503 72.9682 103.584L70.0367 110.174C70.0286 110.198 70.0286 110.223 70.0367 110.247C70.0528 110.271 70.073 110.283 70.0972 110.283H72.7623C72.8188 110.283 72.8471 110.251 72.8471 110.186V108.018C72.8471 107.953 72.8673 107.901 72.9077 107.86C72.948 107.82 73.0005 107.8 73.0651 107.8H75.1124C75.1689 107.8 75.2214 107.82 75.2699 107.86C75.3103 107.901 75.3304 107.953 75.3304 108.018V110.186C75.3304 110.251 75.3587 110.283 75.4152 110.283H76.1663Z" fill="#252530"/>
</g>
<defs>
<clipPath id="clip0_1428_5563">
<rect width="113.871" height="147.79" fill="white" transform="translate(0.41803 0.191895)"/>
</clipPath>
</defs>
</svg>
