<svg width="115" height="149" viewBox="0 0 115 149" fill="none" xmlns="http://www.w3.org/2000/svg">
<path d="M10.6895 109.546L58.5386 133.894L104.571 109.546V14.3318H10.6895V109.546Z" fill="white"/>
<path d="M105.54 14.6951L9.72046 111.241L59.3867 135.832L105.54 112.21V14.6951Z" fill="#F2F3F2"/>
<path d="M7.54004 46.0699V111.605L9.23596 112.453L57.0851 136.802L58.5387 137.528L59.9924 136.802L106.146 112.453L107.842 111.605V11.1824H7.54004V46.0699ZM10.6896 109.788V14.3319H104.692V109.788L58.5387 134.137L10.6896 109.788Z" fill="#DCDEDC"/>
<path d="M57.6908 15.9067C58.1754 15.9067 58.6599 15.9067 59.1444 16.0279L57.6908 18.814C55.5103 18.6929 53.5721 20.3888 53.451 22.5693C53.3299 24.7497 55.0258 26.6879 57.2063 26.8091H57.6908C58.6599 26.8091 59.629 26.4456 60.3558 25.84L61.9306 28.505C60.7192 29.3529 59.2656 29.8375 57.6908 29.8375C53.8144 29.9586 50.5437 27.0513 50.4226 23.1749C50.3014 19.2986 53.2087 16.0279 57.0851 15.9067H57.6908ZM62.6574 21.8424L64.4745 24.8709L62.6574 27.7782L60.9615 24.8709H57.4485L59.2656 21.8424H62.6574ZM59.7501 20.7522C59.7501 20.2677 59.8713 19.7831 60.1135 19.4197C60.3558 19.0563 60.8404 18.6929 61.2038 18.4506L61.4461 18.3295C61.9306 18.0872 62.0517 17.966 62.0517 17.7238C62.0517 17.4815 61.6883 17.2392 61.4461 17.2392C60.9615 17.2392 60.5981 17.4815 60.3558 17.966L59.7501 17.3604C59.8713 17.1181 60.1135 16.8758 60.3558 16.6335C60.7192 16.3913 61.0826 16.3913 61.4461 16.3913C61.8095 16.3913 62.294 16.5124 62.5363 16.7547C62.7786 16.997 63.0208 17.3604 63.0208 17.7238C63.0208 18.3295 62.6574 18.814 61.9306 19.0563L61.5672 19.2986C61.2038 19.5408 60.9615 19.662 60.8404 20.0254H63.0208V20.8733L59.7501 20.7522ZM57.6908 35.8943L69.1988 29.3529V11.1824H46.0616V29.2318L57.6908 35.8943ZM110.143 78.7769H5.23845L1.36206 87.2565L5.23845 95.7361H110.143L113.898 87.2565L110.143 78.7769Z" fill="#FF492C"/>
<path d="M21.8341 60.5939C22.6336 60.5939 23.3362 60.7555 23.9419 61.0785C24.5476 61.4015 25.016 61.8659 25.3471 62.4716C25.6782 63.0692 25.8437 63.7556 25.8437 64.5309C25.8437 65.2981 25.6741 65.9724 25.3349 66.5539C24.9877 67.1273 24.5031 67.5755 23.8813 67.8985C23.2595 68.2215 22.5407 68.3831 21.7251 68.3831H19.1448C19.0883 68.3831 19.06 68.4154 19.06 68.48V73.1074C19.06 73.172 19.0358 73.2245 18.9874 73.2649C18.947 73.3053 18.8945 73.3255 18.8299 73.3255H16.71C16.6454 73.3255 16.5929 73.3053 16.5525 73.2649C16.5121 73.2245 16.4919 73.172 16.4919 73.1074V60.812C16.4919 60.7474 16.5121 60.6949 16.5525 60.6545C16.5929 60.6141 16.6454 60.5939 16.71 60.5939H21.8341ZM21.4464 66.3358C22.0118 66.3358 22.46 66.1743 22.7911 65.8513C23.1303 65.5283 23.2998 65.1083 23.2998 64.5915C23.2998 64.0504 23.1303 63.6183 22.7911 63.2953C22.46 62.9642 22.0118 62.7986 21.4464 62.7986H19.1448C19.0883 62.7986 19.06 62.8309 19.06 62.8955V66.2389C19.06 66.3035 19.0883 66.3358 19.1448 66.3358H21.4464ZM35.0138 67.6926C35.0784 68.1529 35.0986 68.6657 35.0744 69.231C35.0663 69.3845 34.9896 69.4612 34.8442 69.4612H29.2356C29.1629 69.4612 29.1346 69.4894 29.1508 69.546C29.1911 69.7882 29.2598 70.0305 29.3567 70.2728C29.6717 70.9512 30.3137 71.2903 31.2828 71.2903C32.0581 71.2823 32.6678 70.9673 33.1119 70.3455C33.1685 70.2728 33.225 70.2365 33.2815 70.2365C33.3138 70.2365 33.3542 70.2607 33.4027 70.3091L34.711 71.5932C34.7756 71.6578 34.8079 71.7143 34.8079 71.7628C34.8079 71.787 34.7836 71.8355 34.7352 71.9081C34.3314 72.4088 33.8186 72.7924 33.1967 73.0589C32.5588 73.3335 31.8642 73.4708 31.1132 73.4708C30.0795 73.4708 29.1992 73.2366 28.4724 72.7682C27.7537 72.2917 27.2368 71.6295 26.9218 70.7816C26.6634 70.1759 26.5342 69.3845 26.5342 68.4073C26.5342 67.737 26.6271 67.1475 26.8128 66.6387C27.0955 65.7826 27.5841 65.1002 28.2786 64.5915C28.9731 64.0827 29.7968 63.8283 30.7498 63.8283C31.9611 63.8283 32.9343 64.1796 33.6692 64.8822C34.4041 65.5848 34.8523 66.5216 35.0138 67.6926ZM30.774 66.0451C30.0068 66.0451 29.5021 66.4004 29.2598 67.1111C29.2113 67.2726 29.171 67.4665 29.1387 67.6926C29.1387 67.7491 29.171 67.7774 29.2356 67.7774H32.373C32.4457 67.7774 32.4699 67.7491 32.4457 67.6926C32.3811 67.3453 32.3488 67.1757 32.3488 67.1838C32.2438 66.8204 32.054 66.5377 31.7794 66.3358C31.5129 66.142 31.1778 66.0451 30.774 66.0451ZM41.3129 63.8646C41.749 63.8646 42.0963 63.9494 42.3547 64.119C42.4435 64.1675 42.4758 64.2563 42.4516 64.3855L42.0761 66.457C42.068 66.6023 41.9832 66.6468 41.8217 66.5902C41.636 66.5256 41.426 66.4933 41.1918 66.4933C41.0949 66.4933 40.9576 66.5054 40.7799 66.5297C40.3519 66.57 39.9845 66.7316 39.6776 67.0142C39.3788 67.2969 39.2294 67.6764 39.2294 68.1529V73.1074C39.2294 73.172 39.2051 73.2245 39.1567 73.2649C39.1163 73.3053 39.0679 73.3255 39.0113 73.3255H36.8793C36.8228 73.3255 36.7703 73.3053 36.7218 73.2649C36.6815 73.2245 36.6613 73.172 36.6613 73.1074V64.2038C36.6613 64.1473 36.6815 64.0948 36.7218 64.0464C36.7703 64.006 36.8228 63.9858 36.8793 63.9858H39.0113C39.0679 63.9858 39.1163 64.006 39.1567 64.0464C39.2051 64.0948 39.2294 64.1473 39.2294 64.2038V64.8943C39.2294 64.9266 39.2415 64.9508 39.2657 64.967C39.2819 64.9831 39.298 64.9751 39.3142 64.9428C39.8149 64.224 40.4811 63.8646 41.3129 63.8646ZM49.0536 63.9737C49.1182 63.9737 49.1707 63.9939 49.2111 64.0342C49.2514 64.0746 49.2716 64.1271 49.2716 64.1917V65.9119C49.2716 65.9765 49.2514 66.029 49.2111 66.0693C49.1707 66.1097 49.1182 66.1299 49.0536 66.1299H47.2971C47.2325 66.1299 47.2002 66.1582 47.2002 66.2147V73.1074C47.2002 73.172 47.18 73.2245 47.1396 73.2649C47.0992 73.3053 47.0468 73.3255 46.9821 73.3255H44.8622C44.7976 73.3255 44.7451 73.3053 44.7048 73.2649C44.6644 73.2245 44.6442 73.172 44.6442 73.1074V66.2147C44.6442 66.1582 44.6119 66.1299 44.5473 66.1299H43.4813C43.4167 66.1299 43.3642 66.1097 43.3238 66.0693C43.2834 66.029 43.2632 65.9765 43.2632 65.9119V64.1917C43.2632 64.1271 43.2834 64.0746 43.3238 64.0342C43.3642 63.9939 43.4167 63.9737 43.4813 63.9737H44.5473C44.6119 63.9737 44.6442 63.9414 44.6442 63.8768V63.477C44.6442 62.726 44.7573 62.1405 44.9834 61.7205C45.2176 61.3087 45.5891 61.0139 46.0978 60.8362C46.6147 60.6586 47.3294 60.5818 48.242 60.6061H48.9324C48.989 60.6061 49.0374 60.6262 49.0778 60.6666C49.1263 60.7151 49.1505 60.7676 49.1505 60.8241V62.2899C49.1505 62.3545 49.1263 62.407 49.0778 62.4473C49.0374 62.4958 48.989 62.52 48.9324 62.52H48.3268C47.9068 62.5281 47.6121 62.6129 47.4425 62.7744C47.2809 62.944 47.2002 63.2468 47.2002 63.6829V63.8768C47.2002 63.9414 47.2325 63.9737 47.2971 63.9737H49.0536ZM54.3231 73.4708C53.3055 73.4708 52.4333 73.2043 51.7065 72.6713C50.9797 72.1383 50.483 71.4115 50.2165 70.4908C50.0469 69.9255 49.9621 69.3077 49.9621 68.6374C49.9621 67.9268 50.0469 67.2847 50.2165 66.7114C50.4992 65.815 51.0039 65.1124 51.7307 64.6036C52.4575 64.0948 53.3297 63.8404 54.3473 63.8404C55.3325 63.8404 56.1805 64.0908 56.8912 64.5915C57.5857 65.1002 58.0783 65.8028 58.369 66.6993C58.5709 67.3049 58.6719 67.9389 58.6719 68.6011C58.6719 69.2552 58.5871 69.869 58.4175 70.4424C58.151 71.3873 57.6543 72.1262 56.9275 72.6592C56.2088 73.2003 55.3406 73.4708 54.3231 73.4708ZM54.3231 71.2782C54.7188 71.2782 55.0579 71.1571 55.3406 70.9148C55.6233 70.6725 55.8251 70.3374 55.9463 69.9094C56.0351 69.5217 56.0795 69.0978 56.0795 68.6374C56.0795 68.1287 56.0351 67.7007 55.9463 67.3534C55.809 66.9415 55.6031 66.6185 55.3285 66.3843C55.0458 66.1582 54.7026 66.0451 54.2988 66.0451C53.895 66.0451 53.5558 66.1582 53.2813 66.3843C53.0067 66.6185 52.8088 66.9415 52.6877 67.3534C52.5908 67.636 52.5423 68.0641 52.5423 68.6374C52.5423 69.1866 52.5868 69.6106 52.6756 69.9094C52.7967 70.3374 52.9986 70.6725 53.2813 70.9148C53.5639 71.1571 53.9112 71.2782 54.3231 71.2782ZM64.971 63.8646C65.4071 63.8646 65.7544 63.9494 66.0128 64.119C66.1097 64.1675 66.142 64.2563 66.1097 64.3855L65.7342 66.457C65.7261 66.6023 65.6413 66.6468 65.4798 66.5902C65.294 66.5256 65.0841 66.4933 64.8499 66.4933C64.753 66.4933 64.6197 66.5054 64.4501 66.5297C64.014 66.57 63.6425 66.7316 63.3357 67.0142C63.0368 67.2969 62.8874 67.6764 62.8874 68.1529V73.1074C62.8874 73.172 62.8632 73.2245 62.8148 73.2649C62.7744 73.3053 62.7219 73.3255 62.6573 73.3255H60.5374C60.4809 73.3255 60.4284 73.3053 60.3799 73.2649C60.3395 73.2245 60.3193 73.172 60.3193 73.1074V64.2038C60.3193 64.1473 60.3395 64.0948 60.3799 64.0464C60.4284 64.006 60.4809 63.9858 60.5374 63.9858H62.6573C62.7219 63.9858 62.7744 64.006 62.8148 64.0464C62.8632 64.0948 62.8874 64.1473 62.8874 64.2038V64.8943C62.8874 64.9266 62.8955 64.9508 62.9117 64.967C62.944 64.9831 62.9642 64.9751 62.9722 64.9428C63.4729 64.224 64.1392 63.8646 64.971 63.8646ZM77.6298 63.8404C78.5747 63.8404 79.3136 64.1231 79.8466 64.6884C80.3796 65.2618 80.6461 66.0653 80.6461 67.099V73.1074C80.6461 73.172 80.626 73.2245 80.5856 73.2649C80.5452 73.3053 80.4967 73.3255 80.4402 73.3255H78.3082C78.2517 73.3255 78.1992 73.3053 78.1507 73.2649C78.1103 73.2245 78.0901 73.172 78.0901 73.1074V67.6562C78.0901 67.1636 77.965 66.7719 77.7146 66.4812C77.4562 66.1905 77.113 66.0451 76.685 66.0451C76.265 66.0451 75.9218 66.1905 75.6553 66.4812C75.3888 66.7719 75.2555 67.1596 75.2555 67.6441V73.1074C75.2555 73.172 75.2353 73.2245 75.195 73.2649C75.1465 73.3053 75.094 73.3255 75.0375 73.3255H72.9297C72.8651 73.3255 72.8126 73.3053 72.7722 73.2649C72.7318 73.2245 72.7117 73.172 72.7117 73.1074V67.6562C72.7117 67.1717 72.5784 66.78 72.3119 66.4812C72.0454 66.1905 71.6981 66.0451 71.2701 66.0451C70.8906 66.0451 70.5675 66.1582 70.301 66.3843C70.0426 66.6185 69.8892 66.9415 69.8407 67.3534V73.1074C69.8407 73.172 69.8205 73.2245 69.7801 73.2649C69.7317 73.3053 69.6792 73.3255 69.6227 73.3255H67.5028C67.4382 73.3255 67.3857 73.3053 67.3453 73.2649C67.3049 73.2245 67.2847 73.172 67.2847 73.1074V64.2038C67.2847 64.1473 67.3049 64.0948 67.3453 64.0464C67.3857 64.006 67.4382 63.9858 67.5028 63.9858H69.6227C69.6792 63.9858 69.7317 64.006 69.7801 64.0464C69.8205 64.0948 69.8407 64.1473 69.8407 64.2038V64.9185C69.8407 64.9508 69.8528 64.9751 69.877 64.9912C69.9013 64.9993 69.9255 64.9831 69.9497 64.9428C70.4504 64.2079 71.2217 63.8404 72.2635 63.8404C72.8691 63.8404 73.3981 63.9696 73.8503 64.2281C74.3026 64.4784 74.6498 64.8418 74.8921 65.3183C74.9244 65.391 74.9688 65.391 75.0254 65.3183C75.2838 64.8176 75.6432 64.4461 76.1035 64.2038C76.5557 63.9616 77.0645 63.8404 77.6298 63.8404ZM90.6642 67.6926C90.7369 68.1529 90.7611 68.6657 90.7369 69.231C90.7207 69.3845 90.6399 69.4612 90.4946 69.4612H84.8859C84.8132 69.4612 84.789 69.4894 84.8133 69.546C84.8456 69.7882 84.9102 70.0305 85.0071 70.2728C85.322 70.9512 85.9641 71.2903 86.9332 71.2903C87.7084 71.2823 88.3222 70.9673 88.7744 70.3455C88.8229 70.2728 88.8754 70.2365 88.9319 70.2365C88.9723 70.2365 89.0167 70.2607 89.0652 70.3091L90.3734 71.5932C90.43 71.6578 90.4582 71.7143 90.4582 71.7628C90.4582 71.787 90.434 71.8355 90.3856 71.9081C89.9898 72.4088 89.477 72.7924 88.8471 73.0589C88.2172 73.3335 87.5267 73.4708 86.7757 73.4708C85.7339 73.4708 84.8536 73.2366 84.1349 72.7682C83.4081 72.2917 82.8872 71.6295 82.5722 70.7816C82.3219 70.1759 82.1967 69.3845 82.1967 68.4073C82.1967 67.737 82.2855 67.1475 82.4632 66.6387C82.7458 65.7826 83.2344 65.1002 83.9289 64.5915C84.6235 64.0827 85.4512 63.8283 86.4123 63.8283C87.6236 63.8283 88.5968 64.1796 89.3317 64.8822C90.0666 65.5848 90.5107 66.5216 90.6642 67.6926ZM86.4244 66.0451C85.6653 66.0451 85.1645 66.4004 84.9223 67.1111C84.8738 67.2726 84.8294 67.4665 84.789 67.6926C84.789 67.7491 84.8213 67.7774 84.8859 67.7774H88.0234C88.0961 67.7774 88.1203 67.7491 88.0961 67.6926C88.0395 67.3453 88.0113 67.1757 88.0113 67.1838C87.8982 66.8204 87.7084 66.5377 87.4419 66.3358C87.1674 66.142 86.8282 66.0451 86.4244 66.0451ZM96.9633 63.8646C97.3994 63.8646 97.7467 63.9494 98.0051 64.119C98.102 64.1675 98.1383 64.2563 98.1141 64.3855L97.7386 66.457C97.7224 66.6023 97.6336 66.6468 97.4721 66.5902C97.2944 66.5256 97.0844 66.4933 96.8422 66.4933C96.7453 66.4933 96.612 66.5054 96.4424 66.5297C96.0063 66.57 95.6348 66.7316 95.3279 67.0142C95.0291 67.2969 94.8797 67.6764 94.8797 68.1529V73.1074C94.8797 73.172 94.8596 73.2245 94.8192 73.2649C94.7707 73.3053 94.7182 73.3255 94.6617 73.3255H92.5297C92.4732 73.3255 92.4247 73.3053 92.3843 73.2649C92.3359 73.2245 92.3116 73.172 92.3116 73.1074V64.2038C92.3116 64.1473 92.3359 64.0948 92.3843 64.0464C92.4247 64.006 92.4732 63.9858 92.5297 63.9858H94.6617C94.7182 63.9858 94.7707 64.006 94.8192 64.0464C94.8596 64.0948 94.8797 64.1473 94.8797 64.2038V64.8943C94.8797 64.9266 94.8919 64.9508 94.9161 64.967C94.9403 64.9831 94.9605 64.9751 94.9767 64.9428C95.4693 64.224 96.1315 63.8646 96.9633 63.8646ZM46.9821 42.6535C46.9821 42.597 47.0023 42.5445 47.0427 42.4961C47.0831 42.4557 47.1315 42.4355 47.1881 42.4355H49.3201C49.3766 42.4355 49.4291 42.4557 49.4776 42.4961C49.5179 42.5445 49.5381 42.597 49.5381 42.6535V54.9368C49.5381 55.0015 49.5179 55.0539 49.4776 55.0943C49.4291 55.1347 49.3766 55.1549 49.3201 55.1549H47.1881C47.1315 55.1549 47.0831 55.1347 47.0427 55.0943C47.0023 55.0539 46.9821 55.0015 46.9821 54.9368V49.9218C46.9821 49.8652 46.9498 49.837 46.8852 49.837H42.8635C42.807 49.837 42.7787 49.8652 42.7787 49.9218V54.9368C42.7787 55.0015 42.7585 55.0539 42.7181 55.0943C42.6697 55.1347 42.6172 55.1549 42.5606 55.1549H40.4286C40.3721 55.1549 40.3236 55.1347 40.2833 55.0943C40.2348 55.0539 40.2106 55.0015 40.2106 54.9368V42.6535C40.2106 42.597 40.2348 42.5445 40.2833 42.4961C40.3236 42.4557 40.3721 42.4355 40.4286 42.4355H42.5606C42.6172 42.4355 42.6697 42.4557 42.7181 42.4961C42.7585 42.5445 42.7787 42.597 42.7787 42.6535V47.5354C42.7787 47.6 42.807 47.6323 42.8635 47.6323H46.8852C46.9498 47.6323 46.9821 47.6 46.9821 47.5354V42.6535ZM52.8452 44.7613C52.4333 44.7613 52.0901 44.624 51.8155 44.3495C51.5409 44.083 51.4036 43.7438 51.4036 43.3319C51.4036 42.9039 51.5369 42.5566 51.8034 42.2901C52.0699 42.0236 52.4172 41.8904 52.8452 41.8904C53.2732 41.8904 53.6205 42.0236 53.887 42.2901C54.1535 42.5566 54.2867 42.9039 54.2867 43.3319C54.2867 43.7438 54.1494 44.083 53.8748 44.3495C53.6003 44.624 53.257 44.7613 52.8452 44.7613ZM51.7549 55.1549C51.6984 55.1549 51.6459 55.1347 51.5975 55.0943C51.5571 55.0539 51.5369 55.0015 51.5369 54.9368V46.0212C51.5369 45.9565 51.5571 45.9041 51.5975 45.8637C51.6459 45.8233 51.6984 45.8031 51.7549 45.8031H53.887C53.9435 45.8031 53.9919 45.8233 54.0323 45.8637C54.0808 45.9041 54.105 45.9565 54.105 46.0212V54.9368C54.105 55.0015 54.0808 55.0539 54.0323 55.0943C53.9919 55.1347 53.9435 55.1549 53.887 55.1549H51.7549ZM61.7972 46.0333C61.7972 45.9767 61.8214 45.9242 61.8699 45.8758C61.9103 45.8354 61.9587 45.8152 62.0153 45.8152H64.1473C64.2038 45.8152 64.2563 45.8354 64.3047 45.8758C64.3451 45.9242 64.3653 45.9767 64.3653 46.0333V54.319C64.3653 55.9019 63.909 57.0325 62.9965 57.7109C62.0839 58.3973 60.9048 58.7405 59.4593 58.7405C59.0312 58.7405 58.5588 58.7082 58.042 58.6436C57.9208 58.6275 57.8603 58.5508 57.8603 58.4135L57.9329 56.5359C57.9329 56.3743 58.0177 56.3057 58.1873 56.3299C58.6234 56.4026 59.0232 56.4389 59.3866 56.4389C60.1619 56.4389 60.7595 56.2734 61.1794 55.9423C61.5913 55.595 61.7972 55.0499 61.7972 54.3069C61.7972 54.2666 61.7851 54.2423 61.7609 54.2343C61.7366 54.2262 61.7124 54.2383 61.6882 54.2706C61.2279 54.7632 60.5576 55.0095 59.6773 55.0095C58.8859 55.0095 58.1631 54.8197 57.509 54.4402C56.8467 54.0606 56.3743 53.4469 56.0917 52.5989C55.914 52.0417 55.8252 51.3189 55.8252 50.4305C55.8252 49.4857 55.9342 48.7185 56.1522 48.1289C56.4026 47.386 56.8306 46.7924 57.4363 46.3482C58.042 45.896 58.7486 45.6699 59.5562 45.6699C60.4849 45.6699 61.1956 45.9485 61.6882 46.5057C61.7124 46.5299 61.7366 46.538 61.7609 46.5299C61.7851 46.5219 61.7972 46.5017 61.7972 46.4694V46.0333ZM61.6518 51.8963C61.7488 51.541 61.7972 51.0443 61.7972 50.4063C61.7972 50.0348 61.7851 49.7481 61.7609 49.5462C61.7366 49.3363 61.6963 49.1384 61.6397 48.9527C61.5267 48.6296 61.345 48.3672 61.0946 48.1653C60.8443 47.9715 60.5293 47.8746 60.1497 47.8746C59.7863 47.8746 59.4795 47.9715 59.2291 48.1653C58.9707 48.3672 58.7809 48.6296 58.6598 48.9527C58.4902 49.3161 58.4054 49.8087 58.4054 50.4305C58.4054 51.1089 58.4781 51.5935 58.6234 51.8842C58.7284 52.2153 58.9182 52.4778 59.1928 52.6716C59.4673 52.8735 59.7904 52.9744 60.1619 52.9744C60.5495 52.9744 60.8725 52.8735 61.131 52.6716C61.3813 52.4778 61.5549 52.2193 61.6518 51.8963ZM71.0763 45.6699C72.0454 45.6699 72.8247 45.9687 73.4143 46.5663C74.0038 47.1558 74.2986 47.9594 74.2986 48.9769V54.9368C74.2986 55.0015 74.2784 55.0539 74.238 55.0943C74.1976 55.1347 74.1492 55.1549 74.0926 55.1549H71.9606C71.9041 55.1549 71.8516 55.1347 71.8031 55.0943C71.7627 55.0539 71.7426 55.0015 71.7426 54.9368V49.4978C71.7426 49.0213 71.6053 48.6296 71.3307 48.3228C71.0642 48.024 70.7048 47.8746 70.2526 47.8746C69.8084 47.8746 69.449 48.024 69.1745 48.3228C68.8999 48.6296 68.7626 49.0213 68.7626 49.4978V54.9368C68.7626 55.0015 68.7424 55.0539 68.702 55.0943C68.6616 55.1347 68.6091 55.1549 68.5445 55.1549H66.4246C66.36 55.1549 66.3075 55.1347 66.2672 55.0943C66.2268 55.0539 66.2066 55.0015 66.2066 54.9368V42.6535C66.2066 42.597 66.2268 42.5445 66.2672 42.4961C66.3075 42.4557 66.36 42.4355 66.4246 42.4355H68.5445C68.6091 42.4355 68.6616 42.4557 68.702 42.4961C68.7424 42.5445 68.7626 42.597 68.7626 42.6535V46.6753C68.7626 46.7076 68.7747 46.7318 68.7989 46.748C68.8232 46.7561 68.8393 46.748 68.8474 46.7238C69.3481 46.0212 70.0911 45.6699 71.0763 45.6699Z" fill="#252530"/>
<path d="M21.3496 92.0775C20.7196 92.0775 20.1705 91.9766 19.7021 91.7747C19.2337 91.5728 18.8703 91.2901 18.6119 90.9267C18.3615 90.5633 18.2363 90.1353 18.2363 89.6427V89.3398C18.2363 89.2995 18.2525 89.2631 18.2848 89.2308C18.309 89.2066 18.3413 89.1945 18.3817 89.1945H19.4598C19.5002 89.1945 19.5365 89.2066 19.5688 89.2308C19.5931 89.2631 19.6052 89.2995 19.6052 89.3398V89.57C19.6052 89.9415 19.7707 90.2484 20.1018 90.4906C20.4329 90.741 20.8852 90.8662 21.4586 90.8662C21.9512 90.8662 22.3227 90.7612 22.573 90.5512C22.8234 90.3412 22.9486 90.0707 22.9486 89.7396C22.9486 89.5135 22.8799 89.3196 22.7426 89.1581C22.6053 89.0047 22.4115 88.8634 22.1612 88.7342C21.9027 88.6049 21.5191 88.4434 21.0104 88.2496C20.437 88.0396 19.9726 87.8418 19.6173 87.656C19.262 87.4703 18.9672 87.2159 18.733 86.8929C18.4907 86.5779 18.3696 86.1822 18.3696 85.7057C18.3696 84.9951 18.628 84.4338 19.1449 84.0219C19.6617 83.6101 20.3522 83.4041 21.2163 83.4041C21.822 83.4041 22.359 83.5091 22.8274 83.7191C23.2877 83.929 23.6471 84.2238 23.9055 84.6034C24.164 84.9749 24.2932 85.4069 24.2932 85.8995V86.1055C24.2932 86.1459 24.277 86.1822 24.2447 86.2145C24.2205 86.2387 24.1882 86.2508 24.1478 86.2508H23.0576C23.0172 86.2508 22.9849 86.2387 22.9607 86.2145C22.9284 86.1822 22.9122 86.1459 22.9122 86.1055V85.9722C22.9122 85.5927 22.7588 85.2737 22.4519 85.0152C22.1369 84.7487 21.7049 84.6155 21.1557 84.6155C20.7116 84.6155 20.3683 84.7084 20.1261 84.8941C19.8757 85.0799 19.7505 85.3423 19.7505 85.6815C19.7505 85.9238 19.8151 86.1216 19.9444 86.2751C20.0736 86.4285 20.2674 86.5658 20.5258 86.6869C20.7842 86.8161 21.184 86.9777 21.7251 87.1715C22.2985 87.3895 22.7588 87.5874 23.106 87.7651C23.4452 87.9427 23.74 88.189 23.9903 88.504C24.2326 88.827 24.3537 89.2268 24.3537 89.7032C24.3537 90.4301 24.0832 91.0075 23.5421 91.4355C23.0091 91.8635 22.2783 92.0775 21.3496 92.0775ZM32.264 85.6936C32.8858 85.6936 33.3744 85.8794 33.7298 86.2508C34.077 86.6304 34.2507 87.1553 34.2507 87.8256V91.8353C34.2507 91.8756 34.2385 91.9079 34.2143 91.9322C34.182 91.9645 34.1457 91.9806 34.1053 91.9806H33.0029C32.9626 91.9806 32.9303 91.9645 32.906 91.9322C32.8737 91.9079 32.8576 91.8756 32.8576 91.8353V88.1164C32.8576 87.7449 32.7607 87.4501 32.5668 87.2321C32.365 87.014 32.0984 86.905 31.7673 86.905C31.4362 86.905 31.1657 87.014 30.9557 87.2321C30.7458 87.4501 30.6408 87.7408 30.6408 88.1042V91.8353C30.6408 91.8756 30.6287 91.9079 30.6044 91.9322C30.5721 91.9645 30.5358 91.9806 30.4954 91.9806H29.3931C29.3527 91.9806 29.3163 91.9645 29.284 91.9322C29.2598 91.9079 29.2477 91.8756 29.2477 91.8353V88.1164C29.2477 87.7449 29.1467 87.4501 28.9448 87.2321C28.743 87.014 28.4764 86.905 28.1453 86.905C27.8385 86.905 27.5841 86.9938 27.3822 87.1715C27.1884 87.3492 27.0753 87.5914 27.043 87.8983V91.8353C27.043 91.8756 27.0309 91.9079 27.0067 91.9322C26.9743 91.9645 26.938 91.9806 26.8976 91.9806H25.7832C25.7428 91.9806 25.7105 91.9645 25.6863 91.9322C25.654 91.9079 25.6378 91.8756 25.6378 91.8353V85.9359C25.6378 85.8955 25.654 85.8592 25.6863 85.8269C25.7105 85.8026 25.7428 85.7905 25.7832 85.7905H26.8976C26.938 85.7905 26.9743 85.8026 27.0067 85.8269C27.0309 85.8592 27.043 85.8955 27.043 85.9359V86.3356C27.043 86.3599 27.0511 86.376 27.0672 86.3841C27.0834 86.3922 27.0995 86.3841 27.1157 86.3599C27.2933 86.1337 27.5114 85.9682 27.7698 85.8632C28.0363 85.7501 28.3311 85.6936 28.6541 85.6936C29.0498 85.6936 29.3971 85.7744 29.6959 85.9359C29.9947 86.0974 30.2249 86.3316 30.3864 86.6385C30.4106 86.6708 30.4389 86.6708 30.4712 86.6385C30.6488 86.3154 30.8952 86.0772 31.2101 85.9238C31.5251 85.7703 31.8764 85.6936 32.264 85.6936ZM38.0422 85.6936C38.551 85.6936 38.9992 85.7824 39.3869 85.9601C39.7745 86.1378 40.0733 86.3801 40.2833 86.6869C40.4932 87.0019 40.5982 87.3572 40.5982 87.7529V91.8353C40.5982 91.8756 40.5861 91.9079 40.5619 91.9322C40.5296 91.9645 40.4932 91.9806 40.4529 91.9806H39.3384C39.298 91.9806 39.2657 91.9645 39.2415 91.9322C39.2092 91.9079 39.193 91.8756 39.193 91.8353V91.4476C39.193 91.4234 39.185 91.4072 39.1688 91.3992C39.1527 91.3992 39.1365 91.4072 39.1204 91.4234C38.7246 91.8595 38.1513 92.0775 37.4002 92.0775C36.7945 92.0775 36.2979 91.9241 35.9102 91.6172C35.5145 91.3103 35.3167 90.8541 35.3167 90.2484C35.3167 89.6185 35.5387 89.1258 35.9829 88.7705C36.419 88.4232 37.0368 88.2496 37.8363 88.2496H39.1325C39.1729 88.2496 39.193 88.2294 39.193 88.189V87.8983C39.193 87.5833 39.1002 87.337 38.9144 87.1594C38.7287 86.9898 38.4501 86.905 38.0786 86.905C37.7717 86.905 37.5254 86.9615 37.3396 87.0746C37.1458 87.1796 37.0247 87.329 36.9762 87.5228C36.952 87.6197 36.8955 87.6601 36.8066 87.6439L35.6316 87.4985C35.5912 87.4905 35.5589 87.4784 35.5347 87.4622C35.5024 87.438 35.4903 87.4097 35.4984 87.3774C35.563 86.8848 35.8295 86.481 36.2979 86.166C36.7582 85.8511 37.3396 85.6936 38.0422 85.6936ZM37.7515 90.9631C38.1472 90.9631 38.4864 90.8581 38.7691 90.6481C39.0517 90.4381 39.193 90.1716 39.193 89.8486V89.2793C39.193 89.2389 39.1729 89.2187 39.1325 89.2187H38.1149C37.6869 89.2187 37.3518 89.2995 37.1095 89.461C36.8591 89.6225 36.734 89.8526 36.734 90.1515C36.734 90.4099 36.8309 90.6077 37.0247 90.745C37.2104 90.8904 37.4527 90.9631 37.7515 90.9631ZM42.1488 91.9806C42.1084 91.9806 42.0761 91.9645 42.0519 91.9322C42.0196 91.9079 42.0034 91.8756 42.0034 91.8353V83.6464C42.0034 83.606 42.0196 83.5737 42.0519 83.5495C42.0761 83.5172 42.1084 83.501 42.1488 83.501H43.2633C43.3036 83.501 43.34 83.5172 43.3723 83.5495C43.3965 83.5737 43.4086 83.606 43.4086 83.6464V91.8353C43.4086 91.8756 43.3965 91.9079 43.3723 91.9322C43.34 91.9645 43.3036 91.9806 43.2633 91.9806H42.1488ZM45.044 91.9806C45.0036 91.9806 44.9713 91.9645 44.9471 91.9322C44.9148 91.9079 44.8986 91.8756 44.8986 91.8353V83.6464C44.8986 83.606 44.9148 83.5737 44.9471 83.5495C44.9713 83.5172 45.0036 83.501 45.044 83.501H46.1584C46.1988 83.501 46.2351 83.5172 46.2675 83.5495C46.2917 83.5737 46.3038 83.606 46.3038 83.6464V91.8353C46.3038 91.8756 46.2917 91.9079 46.2675 91.9322C46.2351 91.9645 46.1988 91.9806 46.1584 91.9806H45.044ZM55.0862 87.5591C55.0378 87.5833 55.0378 87.6076 55.0862 87.6318C55.91 88.0194 56.3218 88.6857 56.3218 89.6306C56.3218 90.3978 56.0674 90.9833 55.5587 91.3871C55.0418 91.7828 54.3715 91.9806 53.5478 91.9806H50.4951C50.4548 91.9806 50.4225 91.9645 50.3982 91.9322C50.3659 91.9079 50.3498 91.8756 50.3498 91.8353V83.6464C50.3498 83.606 50.3659 83.5737 50.3982 83.5495C50.4225 83.5172 50.4548 83.501 50.4951 83.501H53.4509C54.3311 83.501 55.0095 83.6908 55.486 84.0704C55.9625 84.4499 56.2007 85.0233 56.2007 85.7905C56.2007 86.6385 55.8292 87.228 55.0862 87.5591ZM51.8155 84.7124C51.7751 84.7124 51.755 84.7326 51.755 84.773V87.014C51.755 87.0544 51.7751 87.0746 51.8155 87.0746H53.4509C53.8789 87.0746 54.2181 86.9736 54.4684 86.7717C54.7107 86.5618 54.8318 86.2751 54.8318 85.9117C54.8318 85.5402 54.7107 85.2454 54.4684 85.0274C54.2181 84.8174 53.8789 84.7124 53.4509 84.7124H51.8155ZM53.5478 90.7571C53.9677 90.7571 54.3029 90.6441 54.5532 90.418C54.7955 90.1918 54.9166 89.885 54.9166 89.4973C54.9166 89.1016 54.7915 88.7947 54.5411 88.5767C54.2908 88.3505 53.9516 88.2375 53.5236 88.2375H51.8155C51.7751 88.2375 51.755 88.2577 51.755 88.2981V90.6966C51.755 90.7369 51.7751 90.7571 51.8155 90.7571H53.5478ZM61.3006 85.9359C61.3006 85.8955 61.3127 85.8592 61.3369 85.8269C61.3692 85.8026 61.4055 85.7905 61.4459 85.7905H62.5483C62.5887 85.7905 62.625 85.8026 62.6573 85.8269C62.6815 85.8592 62.6936 85.8955 62.6936 85.9359V91.8353C62.6936 91.8756 62.6815 91.9079 62.6573 91.9322C62.625 91.9645 62.5887 91.9806 62.5483 91.9806H61.4459C61.4055 91.9806 61.3692 91.9645 61.3369 91.9322C61.3127 91.9079 61.3006 91.8756 61.3006 91.8353V91.4476C61.3006 91.4234 61.2925 91.4072 61.2763 91.3992C61.2602 91.3911 61.244 91.3992 61.2279 91.4234C60.8968 91.8514 60.4001 92.0654 59.7379 92.0654C59.1241 92.0654 58.6113 91.8878 58.1994 91.5324C57.7795 91.1771 57.5695 90.6723 57.5695 90.0182V85.9359C57.5695 85.8955 57.5817 85.8592 57.6059 85.8269C57.6382 85.8026 57.6745 85.7905 57.7149 85.7905H58.8294C58.8697 85.7905 58.9061 85.8026 58.9384 85.8269C58.9626 85.8592 58.9747 85.8955 58.9747 85.9359V89.6184C58.9747 89.998 59.0757 90.3009 59.2776 90.527C59.4714 90.7531 59.746 90.8662 60.1013 90.8662C60.4647 90.8662 60.7554 90.7531 60.9735 90.527C61.1915 90.3009 61.3006 89.998 61.3006 89.6184V85.9359ZM66.4973 92.0533C65.9886 92.0533 65.5404 91.9766 65.1527 91.8231C64.7732 91.6778 64.4784 91.4719 64.2684 91.2053C64.0584 90.9469 63.9535 90.6562 63.9535 90.3332V90.2241C63.9535 90.1838 63.9656 90.1474 63.9898 90.1151C64.0221 90.0909 64.0584 90.0788 64.0988 90.0788H65.1648C65.2052 90.0788 65.2375 90.0909 65.2617 90.1151C65.294 90.1474 65.3102 90.1838 65.3102 90.2241V90.2484C65.3102 90.4503 65.4192 90.6279 65.6373 90.7814C65.8634 90.9267 66.146 90.9994 66.4852 90.9994C66.8083 90.9994 67.0707 90.9348 67.2726 90.8056C67.4745 90.6683 67.5755 90.4987 67.5755 90.2968C67.5755 90.1111 67.4907 89.9698 67.3211 89.8728C67.1596 89.784 66.8931 89.6871 66.5216 89.5821L66.0613 89.4367C65.6494 89.3156 65.3021 89.1864 65.0195 89.0491C64.7368 88.9118 64.4986 88.722 64.3048 88.4798C64.1109 88.2456 64.014 87.9427 64.014 87.5712C64.014 87.0059 64.2361 86.5577 64.6803 86.2266C65.1245 85.8874 65.71 85.7178 66.4368 85.7178C66.9294 85.7178 67.3615 85.7946 67.7329 85.948C68.1044 86.1095 68.3911 86.3276 68.593 86.6021C68.7949 86.8848 68.8959 87.2038 68.8959 87.5591C68.8959 87.5995 68.8797 87.6358 68.8474 87.6681C68.8232 87.6924 68.7909 87.7045 68.7505 87.7045H67.7208C67.6804 87.7045 67.6441 87.6924 67.6118 87.6681C67.5876 87.6358 67.5755 87.5995 67.5755 87.5591C67.5755 87.3492 67.4705 87.1755 67.2605 87.0382C67.0586 86.8929 66.78 86.8202 66.4247 86.8202C66.1097 86.8202 65.8513 86.8767 65.6494 86.9898C65.4556 87.1109 65.3587 87.2765 65.3587 87.4864C65.3587 87.6803 65.4515 87.8256 65.6373 87.9225C65.8311 88.0275 66.1501 88.1406 66.5942 88.2617L66.8608 88.3344C67.2888 88.4636 67.6481 88.5928 67.9389 88.722C68.2296 88.8593 68.4759 89.0451 68.6778 89.2793C68.8797 89.5215 68.9807 89.8325 68.9807 90.212C68.9807 90.7854 68.7545 91.2336 68.3023 91.5566C67.85 91.8878 67.2484 92.0533 66.4973 92.0533ZM70.9673 84.9426C70.7169 84.9426 70.511 84.8618 70.3495 84.7003C70.188 84.5388 70.1072 84.3328 70.1072 84.0825C70.1072 83.8321 70.188 83.6262 70.3495 83.4647C70.511 83.3032 70.7169 83.2224 70.9673 83.2224C71.2176 83.2224 71.4236 83.3032 71.5851 83.4647C71.7466 83.6262 71.8274 83.8321 71.8274 84.0825C71.8274 84.3328 71.7466 84.5388 71.5851 84.7003C71.4236 84.8618 71.2176 84.9426 70.9673 84.9426ZM70.3858 91.9806C70.3455 91.9806 70.3091 91.9645 70.2768 91.9322C70.2526 91.9079 70.2405 91.8756 70.2405 91.8353V85.9238C70.2405 85.8834 70.2526 85.8511 70.2768 85.8269C70.3091 85.7946 70.3455 85.7784 70.3858 85.7784H71.5003C71.5407 85.7784 71.573 85.7946 71.5972 85.8269C71.6295 85.8511 71.6457 85.8834 71.6457 85.9238V91.8353C71.6457 91.8756 71.6295 91.9079 71.5972 91.9322C71.573 91.9645 71.5407 91.9806 71.5003 91.9806H70.3858ZM76.2247 85.6936C76.8788 85.6936 77.3997 85.8874 77.7873 86.2751C78.183 86.6627 78.3809 87.1917 78.3809 87.862V91.8353C78.3809 91.8756 78.3647 91.9079 78.3324 91.9322C78.3082 91.9645 78.2759 91.9806 78.2355 91.9806H77.1211C77.0807 91.9806 77.0443 91.9645 77.012 91.9322C76.9878 91.9079 76.9757 91.8756 76.9757 91.8353V88.1527C76.9757 87.7812 76.8707 87.4784 76.6607 87.2442C76.4508 87.018 76.1722 86.905 75.8249 86.905C75.4776 86.905 75.195 87.018 74.9769 87.2442C74.767 87.4703 74.662 87.7691 74.662 88.1406V91.8353C74.662 91.8756 74.6458 91.9079 74.6135 91.9322C74.5893 91.9645 74.557 91.9806 74.5166 91.9806H73.4022C73.3618 91.9806 73.3254 91.9645 73.2931 91.9322C73.2689 91.9079 73.2568 91.8756 73.2568 91.8353V85.9359C73.2568 85.8955 73.2689 85.8592 73.2931 85.8269C73.3254 85.8026 73.3618 85.7905 73.4022 85.7905H74.5166C74.557 85.7905 74.5893 85.8026 74.6135 85.8269C74.6458 85.8592 74.662 85.8955 74.662 85.9359V86.3235C74.662 86.3478 74.6701 86.3639 74.6862 86.372C74.7024 86.38 74.7145 86.372 74.7225 86.3478C75.0537 85.9117 75.5544 85.6936 76.2247 85.6936ZM85.0192 88.189C85.0515 88.3909 85.0677 88.6171 85.0677 88.8674L85.0555 89.2429C85.0555 89.3398 85.0071 89.3883 84.9102 89.3883H81.1186C81.0782 89.3883 81.058 89.4085 81.058 89.4489C81.0822 89.7154 81.1186 89.8971 81.167 89.994C81.3609 90.5754 81.8333 90.8702 82.5843 90.8783C83.1335 90.8783 83.5696 90.6522 83.8926 90.1999C83.9249 90.1515 83.9653 90.1272 84.0138 90.1272C84.0461 90.1272 84.0743 90.1393 84.0986 90.1636L84.8496 90.7814C84.9223 90.8379 84.9344 90.9025 84.8859 90.9752C84.6356 91.3305 84.3004 91.6051 83.8805 91.7989C83.4686 91.9927 83.0083 92.0896 82.4995 92.0896C81.8696 92.0896 81.3326 91.9483 80.8884 91.6657C80.4523 91.383 80.1333 90.9873 79.9314 90.4785C79.7457 90.0424 79.6528 89.4368 79.6528 88.6615C79.6528 88.1931 79.7013 87.8135 79.7982 87.5228C79.9597 86.9575 80.2626 86.5093 80.7067 86.1782C81.159 85.8551 81.7 85.6936 82.33 85.6936C83.9209 85.6936 84.8173 86.5254 85.0192 88.189ZM82.33 86.905C82.0311 86.905 81.7808 86.9817 81.5789 87.1351C81.3851 87.2805 81.2478 87.4864 81.167 87.7529C81.1186 87.8902 81.0863 88.0679 81.0701 88.2859C81.054 88.3263 81.0701 88.3465 81.1186 88.3465H83.5777C83.618 88.3465 83.6382 88.3263 83.6382 88.2859C83.6221 88.084 83.5979 87.9306 83.5656 87.8256C83.4929 87.5349 83.3475 87.3088 83.1295 87.1473C82.9195 86.9857 82.653 86.905 82.33 86.905ZM88.5564 92.0533C88.0476 92.0533 87.5994 91.9766 87.2118 91.8231C86.8322 91.6778 86.5375 91.4719 86.3275 91.2053C86.1175 90.9469 86.0125 90.6562 86.0125 90.3332V90.2241C86.0125 90.1838 86.0246 90.1474 86.0489 90.1151C86.0812 90.0909 86.1175 90.0788 86.1579 90.0788H87.2239C87.2643 90.0788 87.2966 90.0909 87.3208 90.1151C87.3531 90.1474 87.3693 90.1838 87.3693 90.2241V90.2484C87.3693 90.4503 87.4783 90.6279 87.6963 90.7814C87.9224 90.9267 88.2051 90.9994 88.5443 90.9994C88.8673 90.9994 89.1298 90.9348 89.3317 90.8056C89.5336 90.6683 89.6345 90.4987 89.6345 90.2968C89.6345 90.1111 89.5497 89.9698 89.3801 89.8728C89.2186 89.784 88.9521 89.6871 88.5806 89.5821L88.1203 89.4367C87.7084 89.3156 87.3612 89.1864 87.0785 89.0491C86.7959 88.9118 86.5576 88.722 86.3638 88.4798C86.17 88.2456 86.0731 87.9427 86.0731 87.5712C86.0731 87.0059 86.2952 86.5577 86.7393 86.2266C87.1835 85.8874 87.769 85.7178 88.4958 85.7178C88.9885 85.7178 89.4205 85.7946 89.792 85.948C90.1635 86.1095 90.4502 86.3276 90.6521 86.6021C90.854 86.8848 90.9549 87.2038 90.9549 87.5591C90.9549 87.5995 90.9388 87.6358 90.9065 87.6681C90.8822 87.6924 90.8499 87.7045 90.8095 87.7045H89.7799C89.7395 87.7045 89.7032 87.6924 89.6709 87.6681C89.6466 87.6358 89.6345 87.5995 89.6345 87.5591C89.6345 87.3492 89.5295 87.1755 89.3196 87.0382C89.1177 86.8929 88.8391 86.8202 88.4837 86.8202C88.1688 86.8202 87.9103 86.8767 87.7084 86.9898C87.5146 87.1109 87.4177 87.2765 87.4177 87.4864C87.4177 87.6803 87.5106 87.8256 87.6963 87.9225C87.8901 88.0275 88.2091 88.1406 88.6533 88.2617L88.9198 88.3344C89.3478 88.4636 89.7072 88.5928 89.9979 88.722C90.2887 88.8593 90.535 89.0451 90.7369 89.2793C90.9388 89.5215 91.0397 89.8325 91.0397 90.212C91.0397 90.7854 90.8136 91.2336 90.3614 91.5566C89.9091 91.8878 89.3074 92.0533 88.5564 92.0533ZM94.4073 92.0533C93.8985 92.0533 93.4503 91.9766 93.0627 91.8231C92.6831 91.6778 92.3884 91.4719 92.1784 91.2053C91.9684 90.9469 91.8634 90.6562 91.8634 90.3332V90.2241C91.8634 90.1838 91.8756 90.1474 91.8998 90.1151C91.9321 90.0909 91.9684 90.0788 92.0088 90.0788H93.0748C93.1152 90.0788 93.1475 90.0909 93.1717 90.1151C93.204 90.1474 93.2202 90.1838 93.2202 90.2241V90.2484C93.2202 90.4503 93.3292 90.6279 93.5472 90.7814C93.7734 90.9267 94.056 90.9994 94.3952 90.9994C94.7182 90.9994 94.9807 90.9348 95.1826 90.8056C95.3845 90.6683 95.4854 90.4987 95.4854 90.2968C95.4854 90.1111 95.4007 89.9698 95.2311 89.8728C95.0695 89.784 94.803 89.6871 94.4316 89.5821L93.9712 89.4367C93.5594 89.3156 93.2121 89.1864 92.9295 89.0491C92.6468 88.9118 92.4086 88.722 92.2147 88.4798C92.0209 88.2456 91.924 87.9427 91.924 87.5712C91.924 87.0059 92.1461 86.5577 92.5903 86.2266C93.0344 85.8874 93.6199 85.7178 94.3468 85.7178C94.8394 85.7178 95.2714 85.7946 95.6429 85.948C96.0144 86.1095 96.3011 86.3276 96.503 86.6021C96.7049 86.8848 96.8058 87.2038 96.8058 87.5591C96.8058 87.5995 96.7897 87.6358 96.7574 87.6681C96.7332 87.6924 96.7009 87.7045 96.6605 87.7045H95.6308C95.5904 87.7045 95.5541 87.6924 95.5218 87.6681C95.4976 87.6358 95.4854 87.5995 95.4854 87.5591C95.4854 87.3492 95.3805 87.1755 95.1705 87.0382C94.9686 86.8929 94.69 86.8202 94.3346 86.8202C94.0197 86.8202 93.7613 86.8767 93.5594 86.9898C93.3655 87.1109 93.2686 87.2765 93.2686 87.4864C93.2686 87.6803 93.3615 87.8256 93.5472 87.9225C93.7411 88.0275 94.0601 88.1406 94.5042 88.2617L94.7707 88.3344C95.1988 88.4636 95.5581 88.5928 95.8489 88.722C96.1396 88.8593 96.3859 89.0451 96.5878 89.2793C96.7897 89.5215 96.8906 89.8325 96.8906 90.212C96.8906 90.7854 96.6645 91.2336 96.2123 91.5566C95.76 91.8878 95.1584 92.0533 94.4073 92.0533Z" fill="white"/>
<path d="M38.6239 109.061C38.5351 109.061 38.4786 109.021 38.4543 108.94L36.3102 100.739L36.2981 100.69C36.2981 100.618 36.3425 100.581 36.4313 100.581H37.9334C38.0142 100.581 38.0667 100.622 38.0909 100.702L39.2417 105.633C39.2498 105.665 39.2619 105.681 39.2781 105.681C39.2942 105.681 39.3063 105.665 39.3144 105.633L40.4289 100.715C40.4531 100.626 40.5056 100.581 40.5863 100.581H42.0521C42.1409 100.581 42.1975 100.622 42.2217 100.702L43.4331 105.633C43.4411 105.657 43.4533 105.673 43.4694 105.681C43.4856 105.681 43.4977 105.665 43.5058 105.633L44.6202 100.715C44.6444 100.626 44.6969 100.581 44.7777 100.581H46.2071C46.3202 100.581 46.3646 100.634 46.3404 100.739L44.3537 108.94C44.3295 109.021 44.273 109.061 44.1841 109.061H42.7426C42.6618 109.061 42.6093 109.021 42.5851 108.94L41.3495 103.695C41.3414 103.662 41.3293 103.646 41.3132 103.646C41.297 103.646 41.2849 103.662 41.2768 103.695L40.126 108.928C40.1099 109.016 40.0574 109.061 39.9685 109.061H38.6239ZM47.5154 109.061C47.475 109.061 47.4387 109.045 47.4064 109.012C47.3821 108.988 47.37 108.956 47.37 108.916V100.727C47.37 100.686 47.3821 100.654 47.4064 100.63C47.4387 100.597 47.475 100.581 47.5154 100.581H48.9327C48.9731 100.581 49.0054 100.597 49.0296 100.63C49.0619 100.654 49.0781 100.686 49.0781 100.727V108.916C49.0781 108.956 49.0619 108.988 49.0296 109.012C49.0054 109.045 48.9731 109.061 48.9327 109.061H47.5154ZM55.4256 100.727C55.4256 100.686 55.4378 100.654 55.462 100.63C55.4943 100.597 55.5306 100.581 55.571 100.581H56.9883C57.0287 100.581 57.061 100.597 57.0852 100.63C57.1175 100.654 57.1337 100.686 57.1337 100.727V108.916C57.1337 108.956 57.1175 108.988 57.0852 109.012C57.061 109.045 57.0287 109.061 56.9883 109.061H55.6195C55.5387 109.061 55.4822 109.029 55.4499 108.964L52.3124 103.779C52.2963 103.755 52.2801 103.747 52.264 103.755C52.2478 103.755 52.2397 103.771 52.2397 103.804L52.264 108.916C52.264 108.956 52.2478 108.988 52.2155 109.012C52.1913 109.045 52.159 109.061 52.1186 109.061H50.7013C50.6609 109.061 50.6246 109.045 50.5923 109.012C50.568 108.988 50.5559 108.956 50.5559 108.916V100.727C50.5559 100.686 50.568 100.654 50.5923 100.63C50.6246 100.597 50.6609 100.581 50.7013 100.581H52.0701C52.1509 100.581 52.2074 100.614 52.2397 100.678L55.3651 105.839C55.3812 105.863 55.3974 105.871 55.4135 105.863C55.4297 105.863 55.4378 105.847 55.4378 105.814L55.4256 100.727ZM64.4625 100.581C64.5028 100.581 64.5351 100.597 64.5594 100.63C64.5917 100.654 64.6078 100.686 64.6078 100.727V101.914C64.6078 101.954 64.5917 101.986 64.5594 102.011C64.5351 102.043 64.5028 102.059 64.4625 102.059H62.2941C62.2537 102.059 62.2335 102.079 62.2335 102.12V108.916C62.2335 108.956 62.2174 108.988 62.1851 109.012C62.1609 109.045 62.1286 109.061 62.0882 109.061H60.6709C60.6305 109.061 60.5942 109.045 60.5619 109.012C60.5376 108.988 60.5255 108.956 60.5255 108.916V102.12C60.5255 102.079 60.5053 102.059 60.4649 102.059H58.3572C58.3168 102.059 58.2804 102.043 58.2481 102.011C58.2239 101.986 58.2118 101.954 58.2118 101.914V100.727C58.2118 100.686 58.2239 100.654 58.2481 100.63C58.2804 100.597 58.3168 100.581 58.3572 100.581H64.4625ZM71.5853 101.902C71.5853 101.942 71.5732 101.974 71.549 101.999C71.5167 102.031 71.4803 102.047 71.44 102.047H67.4667C67.4263 102.047 67.4061 102.067 67.4061 102.108V103.985C67.4061 104.026 67.4263 104.046 67.4667 104.046H70.0711C70.1115 104.046 70.1438 104.058 70.168 104.082C70.2003 104.114 70.2165 104.151 70.2165 104.191V105.366C70.2165 105.407 70.2003 105.443 70.168 105.475C70.1438 105.499 70.1115 105.512 70.0711 105.512H67.4667C67.4263 105.512 67.4061 105.532 67.4061 105.572V107.535C67.4061 107.575 67.4263 107.595 67.4667 107.595H71.44C71.4803 107.595 71.5167 107.607 71.549 107.631C71.5732 107.664 71.5853 107.7 71.5853 107.741V108.916C71.5853 108.956 71.5732 108.988 71.549 109.012C71.5167 109.045 71.4803 109.061 71.44 109.061H65.8434C65.803 109.061 65.7667 109.045 65.7344 109.012C65.7102 108.988 65.6981 108.956 65.6981 108.916V100.727C65.6981 100.686 65.7102 100.654 65.7344 100.63C65.7667 100.597 65.803 100.581 65.8434 100.581H71.44C71.4803 100.581 71.5167 100.597 71.549 100.63C71.5732 100.654 71.5853 100.686 71.5853 100.727V101.902ZM77.4241 109.061C77.3434 109.061 77.2868 109.025 77.2545 108.952L75.7403 105.596C75.7242 105.564 75.6999 105.548 75.6676 105.548H74.5411C74.5007 105.548 74.4805 105.568 74.4805 105.608V108.916C74.4805 108.956 74.4644 108.988 74.432 109.012C74.4078 109.045 74.3755 109.061 74.3351 109.061H72.9178C72.8775 109.061 72.8411 109.045 72.8088 109.012C72.7846 108.988 72.7725 108.956 72.7725 108.916V100.727C72.7725 100.686 72.7846 100.654 72.8088 100.63C72.8411 100.597 72.8775 100.581 72.9178 100.581H76.3824C76.8992 100.581 77.3514 100.686 77.7391 100.896C78.1348 101.106 78.4376 101.405 78.6476 101.793C78.8657 102.18 78.9747 102.629 78.9747 103.137C78.9747 103.686 78.8374 104.155 78.5628 104.542C78.2882 104.938 77.9046 105.217 77.412 105.378C77.3716 105.394 77.3595 105.423 77.3757 105.463L79.0231 108.891C79.0393 108.924 79.0474 108.948 79.0474 108.964C79.0474 109.029 79.003 109.061 78.9141 109.061H77.4241ZM74.5411 102.047C74.5007 102.047 74.4805 102.067 74.4805 102.108V104.179C74.4805 104.219 74.5007 104.24 74.5411 104.24H76.128C76.4671 104.24 76.7417 104.139 76.9517 103.937C77.1697 103.735 77.2788 103.472 77.2788 103.149C77.2788 102.826 77.1697 102.56 76.9517 102.35C76.7417 102.148 76.4671 102.047 76.128 102.047H74.5411ZM46.5221 118.909C46.5059 118.925 46.5019 118.942 46.5099 118.958C46.518 118.974 46.5342 118.982 46.5584 118.982H49.8412C49.8816 118.982 49.9179 118.994 49.9502 119.018C49.9745 119.051 49.9866 119.087 49.9866 119.127V120.302C49.9866 120.343 49.9745 120.375 49.9502 120.399C49.9179 120.432 49.8816 120.448 49.8412 120.448H44.39C44.3497 120.448 44.3133 120.432 44.281 120.399C44.2568 120.375 44.2447 120.343 44.2447 120.302V119.188C44.2447 119.115 44.2689 119.055 44.3174 119.006C44.7131 118.619 45.1169 118.199 45.5287 117.746C45.9406 117.286 46.199 116.999 46.304 116.886C46.5301 116.62 46.7603 116.365 46.9945 116.123C47.7294 115.308 48.0968 114.702 48.0968 114.306C48.0968 114.023 47.9959 113.789 47.794 113.604C47.5921 113.426 47.3296 113.337 47.0066 113.337C46.6836 113.337 46.4211 113.426 46.2192 113.604C46.0173 113.789 45.9164 114.032 45.9164 114.33V114.633C45.9164 114.674 45.9002 114.71 45.8679 114.742C45.8437 114.766 45.8114 114.779 45.771 114.779H44.3416C44.3012 114.779 44.2689 114.766 44.2447 114.742C44.2124 114.71 44.1962 114.674 44.1962 114.633V114.064C44.2205 113.628 44.3577 113.24 44.6081 112.901C44.8584 112.57 45.1896 112.315 45.6014 112.138C46.0214 111.96 46.4898 111.871 47.0066 111.871C47.58 111.871 48.0807 111.976 48.5087 112.186C48.9287 112.404 49.2557 112.695 49.4899 113.058C49.716 113.422 49.8291 113.826 49.8291 114.27C49.8291 114.609 49.7443 114.956 49.5747 115.312C49.4051 115.667 49.1507 116.051 48.8116 116.462C48.5612 116.777 48.2907 117.088 47.9999 117.395C47.7092 117.702 47.2772 118.146 46.7038 118.728L46.5221 118.909ZM53.9235 120.581C53.0352 120.581 52.3326 120.331 51.8158 119.83C51.2989 119.337 51.0405 118.663 51.0405 117.807V114.609C51.0405 113.769 51.2989 113.103 51.8158 112.61C52.3326 112.118 53.0352 111.871 53.9235 111.871C54.8119 111.871 55.5185 112.118 56.0434 112.61C56.5603 113.103 56.8187 113.769 56.8187 114.609V117.807C56.8187 118.663 56.5603 119.337 56.0434 119.83C55.5185 120.331 54.8119 120.581 53.9235 120.581ZM53.9235 119.115C54.287 119.115 54.5777 119.002 54.7957 118.776C55.0057 118.558 55.1107 118.263 55.1107 117.892V114.561C55.1107 114.189 55.0057 113.894 54.7957 113.676C54.5777 113.45 54.287 113.337 53.9235 113.337C53.5682 113.337 53.2856 113.45 53.0756 113.676C52.8575 113.894 52.7485 114.189 52.7485 114.561V117.892C52.7485 118.263 52.8575 118.558 53.0756 118.776C53.2856 119.002 53.5682 119.115 53.9235 119.115ZM60.2106 118.909C60.1944 118.925 60.1904 118.942 60.1984 118.958C60.2065 118.974 60.2227 118.982 60.2469 118.982H63.5297C63.5701 118.982 63.6064 118.994 63.6387 119.018C63.663 119.051 63.6751 119.087 63.6751 119.127V120.302C63.6751 120.343 63.663 120.375 63.6387 120.399C63.6064 120.432 63.5701 120.448 63.5297 120.448H58.0785C58.0382 120.448 58.0059 120.432 57.9816 120.399C57.9493 120.375 57.9332 120.343 57.9332 120.302V119.188C57.9332 119.115 57.9574 119.055 58.0059 119.006C58.4016 118.619 58.8054 118.199 59.2172 117.746C59.6291 117.286 59.8875 116.999 59.9925 116.886C60.2186 116.62 60.4488 116.365 60.683 116.123C61.4179 115.308 61.7853 114.702 61.7853 114.306C61.7853 114.023 61.6844 113.789 61.4825 113.604C61.2806 113.426 61.0181 113.337 60.6951 113.337C60.3721 113.337 60.1096 113.426 59.9077 113.604C59.7058 113.789 59.6049 114.032 59.6049 114.33V114.633C59.6049 114.674 59.5928 114.71 59.5685 114.742C59.5362 114.766 59.4999 114.779 59.4595 114.779H58.0301C57.9897 114.779 57.9574 114.766 57.9332 114.742C57.9009 114.71 57.8847 114.674 57.8847 114.633V114.064C57.909 113.628 58.0462 113.24 58.2966 112.901C58.5469 112.57 58.8821 112.315 59.302 112.138C59.7139 111.96 60.1783 111.871 60.6951 111.871C61.2685 111.871 61.7692 111.976 62.1972 112.186C62.6171 112.404 62.9442 112.695 63.1784 113.058C63.4045 113.422 63.5176 113.826 63.5176 114.27C63.5176 114.609 63.4328 114.956 63.2632 115.312C63.0936 115.667 62.8392 116.051 62.5 116.462C62.2497 116.777 61.9792 117.088 61.6884 117.395C61.3977 117.702 60.9656 118.146 60.3923 118.728L60.2106 118.909ZM70.7858 116.753C70.8262 116.753 70.8625 116.765 70.8948 116.789C70.9191 116.822 70.9312 116.858 70.9312 116.898V118.122C70.9312 118.162 70.9191 118.199 70.8948 118.231C70.8625 118.255 70.8262 118.267 70.7858 118.267H70.2649C70.2245 118.267 70.2044 118.288 70.2044 118.328V120.302C70.2044 120.343 70.1922 120.375 70.168 120.399C70.1357 120.432 70.0994 120.448 70.059 120.448H68.6417C68.6013 120.448 68.569 120.432 68.5448 120.399C68.5125 120.375 68.4963 120.343 68.4963 120.302V118.328C68.4963 118.288 68.4761 118.267 68.4358 118.267H64.7169C64.6765 118.267 64.6442 118.255 64.6199 118.231C64.5876 118.199 64.5715 118.162 64.5715 118.122V117.153C64.5715 117.104 64.5836 117.044 64.6078 116.971L66.7883 112.077C66.8206 112.005 66.8771 111.968 66.9579 111.968H68.4721C68.5286 111.968 68.569 111.984 68.5932 112.017C68.6094 112.041 68.6054 112.081 68.5811 112.138L66.5581 116.68C66.5501 116.697 66.5501 116.713 66.5581 116.729C66.5662 116.745 66.5783 116.753 66.5945 116.753H68.4358C68.4761 116.753 68.4963 116.733 68.4963 116.693V115.19C68.4963 115.15 68.5125 115.118 68.5448 115.094C68.569 115.061 68.6013 115.045 68.6417 115.045H70.059C70.0994 115.045 70.1357 115.061 70.168 115.094C70.1922 115.118 70.2044 115.15 70.2044 115.19V116.693C70.2044 116.733 70.2245 116.753 70.2649 116.753H70.7858Z" fill="#252530"/>
</svg>
