<svg width="114" height="148" viewBox="0 0 114 148" fill="none" xmlns="http://www.w3.org/2000/svg">
<g clip-path="url(#clip0_1428_5546)">
<path d="M9.9212 109.096L57.7712 133.445L103.804 109.096V13.8806H9.9212V109.096Z" fill="white"/>
<path d="M104.773 14.2441L8.95187 110.792L58.619 135.383L104.773 111.761V14.2441Z" fill="#F2F3F2" fill-opacity="0.5"/>
<path d="M6.77138 45.6191V111.155L8.46733 112.003L56.3174 136.352L57.771 137.079L59.2247 136.352L105.379 112.003L107.075 111.155V10.731H6.77138V45.6191ZM9.921 109.338V13.8806H103.925V109.338L57.771 133.687L9.921 109.338Z" fill="#DCDEDC"/>
<path d="M56.9233 15.4554C57.4078 15.4554 57.8924 15.4554 58.377 15.5765L56.9233 18.3627C54.7428 18.2416 52.8046 19.9375 52.6834 22.1181C52.5623 24.2986 54.2582 26.2368 56.4387 26.3579H56.9233C57.8924 26.3579 58.8615 25.9945 59.5884 25.3888L61.1632 28.0539C59.9518 28.9019 58.4981 29.3864 56.9233 29.3864C53.0468 29.5076 49.7761 26.6002 49.6549 22.7238C49.5338 18.8473 52.4411 15.5765 56.3176 15.4554H56.9233ZM61.89 21.3912L63.7071 24.4197L61.89 27.327L60.1941 24.4197H56.681L58.4981 21.3912H61.89ZM58.9827 20.301C58.9827 19.8164 59.1038 19.3319 59.3461 18.9684C59.5884 18.605 60.0729 18.2416 60.4363 17.9993L60.6786 17.8782C61.1632 17.6359 61.2843 17.5148 61.2843 17.2725C61.2843 17.0302 60.9209 16.7879 60.6786 16.7879C60.1941 16.7879 59.8306 17.0302 59.5884 17.5148L58.9827 16.9091C59.1038 16.6668 59.3461 16.4245 59.5884 16.1822C59.9518 15.9399 60.3152 15.9399 60.6786 15.9399C61.042 15.9399 61.5266 16.0611 61.7689 16.3034C62.0111 16.5456 62.2534 16.9091 62.2534 17.2725C62.2534 17.8782 61.89 18.3627 61.1632 18.605L60.7997 18.8473C60.4363 19.0896 60.1941 19.2107 60.0729 19.5741H62.2534V20.4221L58.9827 20.301ZM56.9233 35.4434L68.4315 28.9019V10.731H45.2939V28.7807L56.9233 35.4434ZM109.377 78.3267H4.46995L0.593491 86.8065L4.46995 95.2862H109.377L113.132 86.8065L109.377 78.3267Z" fill="#FF492C"/>
<path d="M21.066 60.1439C21.8655 60.1439 22.5681 60.3054 23.1738 60.6284C23.7795 60.9515 24.2479 61.4158 24.579 62.0215C24.9101 62.6191 25.0757 63.3056 25.0757 64.0809C25.0757 64.8481 24.9061 65.5224 24.5669 66.1039C24.2196 66.6773 23.7351 67.1255 23.1132 67.4486C22.4914 67.7716 21.7726 67.9331 20.957 67.9331H18.3767C18.3202 67.9331 18.2919 67.9654 18.2919 68.03V72.6576C18.2919 72.7222 18.2677 72.7747 18.2192 72.815C18.1788 72.8554 18.1263 72.8756 18.0617 72.8756H15.9418C15.8772 72.8756 15.8247 72.8554 15.7843 72.815C15.7439 72.7747 15.7237 72.7222 15.7237 72.6576V60.3619C15.7237 60.2973 15.7439 60.2448 15.7843 60.2044C15.8247 60.164 15.8772 60.1439 15.9418 60.1439H21.066ZM20.6783 65.8859C21.2437 65.8859 21.6919 65.7243 22.023 65.4013C22.3622 65.0783 22.5318 64.6583 22.5318 64.1415C22.5318 63.6004 22.3622 63.1683 22.023 62.8453C21.6919 62.5142 21.2437 62.3486 20.6783 62.3486H18.3767C18.3202 62.3486 18.2919 62.3809 18.2919 62.4455V65.789C18.2919 65.8536 18.3202 65.8859 18.3767 65.8859H20.6783ZM34.2459 67.2426C34.3106 67.703 34.3307 68.2158 34.3065 68.7811C34.2984 68.9345 34.2217 69.0113 34.0764 69.0113H28.4676C28.3949 69.0113 28.3667 69.0395 28.3828 69.0961C28.4232 69.3383 28.4918 69.5806 28.5887 69.8229C28.9037 70.5013 29.5457 70.8405 30.5149 70.8405C31.2901 70.8324 31.8999 70.5174 32.3441 69.8956C32.4006 69.8229 32.4571 69.7866 32.5137 69.7866C32.546 69.7866 32.5863 69.8108 32.6348 69.8592L33.9431 71.1433C34.0077 71.2079 34.04 71.2644 34.04 71.3129C34.04 71.3371 34.0158 71.3856 33.9673 71.4583C33.5635 71.959 33.0507 72.3426 32.4289 72.6091C31.7909 72.8837 31.0963 73.021 30.3453 73.021C29.3115 73.021 28.4313 72.7868 27.7044 72.3184C26.9857 71.8419 26.4688 71.1797 26.1538 70.3317C25.8954 69.726 25.7662 68.9345 25.7662 67.9573C25.7662 67.287 25.8591 66.6975 26.0448 66.1887C26.3275 65.3327 26.8161 64.6502 27.5106 64.1415C28.2051 63.6327 29.0289 63.3783 29.9818 63.3783C31.1932 63.3783 32.1664 63.7296 32.9013 64.4322C33.6362 65.1348 34.0844 66.0716 34.2459 67.2426ZM30.0061 65.5951C29.2389 65.5951 28.7341 65.9505 28.4918 66.6612C28.4434 66.8227 28.403 67.0165 28.3707 67.2426C28.3707 67.2992 28.403 67.3274 28.4676 67.3274H31.6051C31.6778 67.3274 31.702 67.2992 31.6778 67.2426C31.6132 66.8954 31.5809 66.7258 31.5809 66.7338C31.4759 66.3704 31.2861 66.0878 31.0115 65.8859C30.745 65.692 30.4099 65.5951 30.0061 65.5951ZM40.5452 63.4146C40.9813 63.4146 41.3286 63.4994 41.587 63.669C41.6758 63.7175 41.7081 63.8063 41.6839 63.9355L41.3084 66.007C41.3003 66.1524 41.2155 66.1968 41.054 66.1403C40.8682 66.0756 40.6583 66.0433 40.4241 66.0433C40.3271 66.0433 40.1899 66.0555 40.0122 66.0797C39.5842 66.1201 39.2167 66.2816 38.9098 66.5642C38.611 66.8469 38.4616 67.2265 38.4616 67.703V72.6576C38.4616 72.7222 38.4374 72.7747 38.3889 72.815C38.3485 72.8554 38.3001 72.8756 38.2435 72.8756H36.1115C36.055 72.8756 36.0025 72.8554 35.954 72.815C35.9136 72.7747 35.8934 72.7222 35.8934 72.6576V63.7538C35.8934 63.6973 35.9136 63.6448 35.954 63.5963C36.0025 63.556 36.055 63.5358 36.1115 63.5358H38.2435C38.3001 63.5358 38.3485 63.556 38.3889 63.5963C38.4374 63.6448 38.4616 63.6973 38.4616 63.7538V64.4443C38.4616 64.4766 38.4737 64.5008 38.4979 64.517C38.5141 64.5331 38.5302 64.5251 38.5464 64.4928C39.0471 63.774 39.7134 63.4146 40.5452 63.4146ZM48.286 63.5236C48.3506 63.5236 48.4031 63.5438 48.4435 63.5842C48.4839 63.6246 48.5041 63.6771 48.5041 63.7417V65.4619C48.5041 65.5265 48.4839 65.579 48.4435 65.6194C48.4031 65.6597 48.3506 65.6799 48.286 65.6799H46.5295C46.4649 65.6799 46.4326 65.7082 46.4326 65.7647V72.6576C46.4326 72.7222 46.4124 72.7747 46.372 72.815C46.3316 72.8554 46.2791 72.8756 46.2145 72.8756H44.0946C44.03 72.8756 43.9775 72.8554 43.9371 72.815C43.8967 72.7747 43.8765 72.7222 43.8765 72.6576V65.7647C43.8765 65.7082 43.8442 65.6799 43.7796 65.6799H42.7136C42.649 65.6799 42.5965 65.6597 42.5561 65.6194C42.5157 65.579 42.4955 65.5265 42.4955 65.4619V63.7417C42.4955 63.6771 42.5157 63.6246 42.5561 63.5842C42.5965 63.5438 42.649 63.5236 42.7136 63.5236H43.7796C43.8442 63.5236 43.8765 63.4913 43.8765 63.4267V63.027C43.8765 62.2759 43.9896 61.6904 44.2157 61.2705C44.4499 60.8586 44.8214 60.5638 45.3302 60.3861C45.8471 60.2085 46.5618 60.1317 47.4744 60.156H48.1649C48.2214 60.156 48.2698 60.1762 48.3102 60.2165C48.3587 60.265 48.3829 60.3175 48.3829 60.374V61.8398C48.3829 61.9044 48.3587 61.9569 48.3102 61.9973C48.2698 62.0457 48.2214 62.07 48.1649 62.07H47.5592C47.1392 62.0781 46.8444 62.1628 46.6748 62.3244C46.5133 62.494 46.4326 62.7968 46.4326 63.2329V63.4267C46.4326 63.4913 46.4649 63.5236 46.5295 63.5236H48.286ZM53.5556 73.021C52.538 73.021 51.6658 72.7545 50.9389 72.2214C50.2121 71.6884 49.7154 70.9616 49.4489 70.0409C49.2793 69.4756 49.1945 68.8578 49.1945 68.1875C49.1945 67.4768 49.2793 66.8348 49.4489 66.2614C49.7316 65.365 50.2363 64.6624 50.9632 64.1536C51.69 63.6448 52.5622 63.3904 53.5798 63.3904C54.5651 63.3904 55.413 63.6407 56.1237 64.1415C56.8183 64.6502 57.3109 65.3528 57.6016 66.2493C57.8035 66.855 57.9045 67.4889 57.9045 68.1512C57.9045 68.8053 57.8197 69.4191 57.6501 69.9925C57.3836 70.9374 56.8869 71.6763 56.1601 72.2093C55.4413 72.7504 54.5731 73.021 53.5556 73.021ZM53.5556 70.8284C53.9513 70.8284 54.2905 70.7072 54.5731 70.4649C54.8558 70.2226 55.0577 69.8875 55.1788 69.4595C55.2677 69.0718 55.3121 68.6478 55.3121 68.1875C55.3121 67.6787 55.2677 67.2507 55.1788 66.9034C55.0415 66.4916 54.8356 66.1685 54.561 65.9343C54.2784 65.7082 53.9351 65.5951 53.5313 65.5951C53.1275 65.5951 52.7883 65.7082 52.5138 65.9343C52.2392 66.1685 52.0413 66.4916 51.9202 66.9034C51.8233 67.1861 51.7748 67.6141 51.7748 68.1875C51.7748 68.7367 51.8192 69.1607 51.9081 69.4595C52.0292 69.8875 52.2311 70.2226 52.5138 70.4649C52.7964 70.7072 53.1437 70.8284 53.5556 70.8284ZM64.2037 63.4146C64.6398 63.4146 64.9871 63.4994 65.2455 63.669C65.3424 63.7175 65.3747 63.8063 65.3424 63.9355L64.9669 66.007C64.9588 66.1524 64.874 66.1968 64.7125 66.1403C64.5268 66.0756 64.3168 66.0433 64.0826 66.0433C63.9857 66.0433 63.8524 66.0555 63.6828 66.0797C63.2467 66.1201 62.8752 66.2816 62.5683 66.5642C62.2695 66.8469 62.1201 67.2265 62.1201 67.703V72.6576C62.1201 72.7222 62.0959 72.7747 62.0474 72.815C62.0071 72.8554 61.9546 72.8756 61.8899 72.8756H59.77C59.7135 72.8756 59.661 72.8554 59.6125 72.815C59.5721 72.7747 59.552 72.7222 59.552 72.6576V63.7538C59.552 63.6973 59.5721 63.6448 59.6125 63.5963C59.661 63.556 59.7135 63.5358 59.77 63.5358H61.8899C61.9546 63.5358 62.0071 63.556 62.0474 63.5963C62.0959 63.6448 62.1201 63.6973 62.1201 63.7538V64.4443C62.1201 64.4766 62.1282 64.5008 62.1443 64.517C62.1766 64.5331 62.1968 64.5251 62.2049 64.4928C62.7056 63.774 63.3719 63.4146 64.2037 63.4146ZM76.8628 63.3904C77.8077 63.3904 78.5466 63.673 79.0796 64.2384C79.6126 64.8118 79.8791 65.6153 79.8791 66.649V72.6576C79.8791 72.7222 79.859 72.7747 79.8186 72.815C79.7782 72.8554 79.7297 72.8756 79.6732 72.8756H77.5412C77.4846 72.8756 77.4321 72.8554 77.3837 72.815C77.3433 72.7747 77.3231 72.7222 77.3231 72.6576V67.2063C77.3231 66.7136 77.1979 66.322 76.9476 66.0312C76.6891 65.7405 76.3459 65.5951 75.9179 65.5951C75.4979 65.5951 75.1547 65.7405 74.8882 66.0312C74.6217 66.322 74.4884 66.7096 74.4884 67.1942V72.6576C74.4884 72.7222 74.4683 72.7747 74.4279 72.815C74.3794 72.8554 74.3269 72.8756 74.2704 72.8756H72.1626C72.098 72.8756 72.0455 72.8554 72.0051 72.815C71.9647 72.7747 71.9445 72.7222 71.9445 72.6576V67.2063C71.9445 66.7217 71.8113 66.33 71.5448 66.0312C71.2783 65.7405 70.931 65.5951 70.503 65.5951C70.1234 65.5951 69.8004 65.7082 69.5338 65.9343C69.2754 66.1685 69.122 66.4916 69.0735 66.9034V72.6576C69.0735 72.7222 69.0533 72.7747 69.0129 72.815C68.9645 72.8554 68.912 72.8756 68.8555 72.8756H66.7355C66.6709 72.8756 66.6184 72.8554 66.578 72.815C66.5377 72.7747 66.5175 72.7222 66.5175 72.6576V63.7538C66.5175 63.6973 66.5377 63.6448 66.578 63.5963C66.6184 63.556 66.6709 63.5358 66.7355 63.5358H68.8555C68.912 63.5358 68.9645 63.556 69.0129 63.5963C69.0533 63.6448 69.0735 63.6973 69.0735 63.7538V64.4685C69.0735 64.5008 69.0856 64.5251 69.1099 64.5412C69.1341 64.5493 69.1583 64.5331 69.1825 64.4928C69.6833 63.7579 70.4545 63.3904 71.4963 63.3904C72.102 63.3904 72.631 63.5196 73.0832 63.778C73.5355 64.0284 73.8827 64.3918 74.125 64.8683C74.1573 64.941 74.2017 64.941 74.2583 64.8683C74.5167 64.3676 74.8761 63.9961 75.3364 63.7538C75.7887 63.5115 76.2975 63.3904 76.8628 63.3904ZM89.8974 67.2426C89.9701 67.703 89.9943 68.2158 89.9701 68.7811C89.9539 68.9345 89.8731 69.0113 89.7278 69.0113H84.119C84.0463 69.0113 84.0221 69.0395 84.0463 69.0961C84.0786 69.3383 84.1432 69.5806 84.2402 69.8229C84.5551 70.5013 85.1972 70.8405 86.1663 70.8405C86.9416 70.8324 87.5553 70.5174 88.0076 69.8956C88.056 69.8229 88.1086 69.7866 88.1651 69.7866C88.2055 69.7866 88.2499 69.8108 88.2983 69.8592L89.6066 71.1433C89.6632 71.2079 89.6914 71.2644 89.6914 71.3129C89.6914 71.3371 89.6672 71.3856 89.6188 71.4583C89.223 71.959 88.7102 72.3426 88.0803 72.6091C87.4504 72.8837 86.7599 73.021 86.0088 73.021C84.967 73.021 84.0867 72.7868 83.368 72.3184C82.6411 71.8419 82.1202 71.1797 81.8053 70.3317C81.5549 69.726 81.4297 68.9345 81.4297 67.9573C81.4297 67.287 81.5186 66.6975 81.6962 66.1887C81.9789 65.3327 82.4675 64.6502 83.162 64.1415C83.8566 63.6327 84.6843 63.3783 85.6454 63.3783C86.8568 63.3783 87.8299 63.7296 88.5648 64.4322C89.2997 65.1348 89.7439 66.0716 89.8974 67.2426ZM85.6575 65.5951C84.8984 65.5951 84.3976 65.9505 84.1554 66.6612C84.1069 66.8227 84.0625 67.0165 84.0221 67.2426C84.0221 67.2992 84.0544 67.3274 84.119 67.3274H87.2565C87.3292 67.3274 87.3534 67.2992 87.3292 67.2426C87.2727 66.8954 87.2444 66.7258 87.2444 66.7338C87.1314 66.3704 86.9416 66.0878 86.6751 65.8859C86.4005 65.692 86.0613 65.5951 85.6575 65.5951ZM96.1966 63.4146C96.6327 63.4146 96.98 63.4994 97.2384 63.669C97.3353 63.7175 97.3717 63.8063 97.3474 63.9355L96.9719 66.007C96.9558 66.1524 96.8669 66.1968 96.7054 66.1403C96.5277 66.0756 96.3178 66.0433 96.0755 66.0433C95.9786 66.0433 95.8453 66.0555 95.6757 66.0797C95.2396 66.1201 94.8681 66.2816 94.5612 66.5642C94.2624 66.8469 94.113 67.2265 94.113 67.703V72.6576C94.113 72.7222 94.0928 72.7747 94.0525 72.815C94.004 72.8554 93.9515 72.8756 93.895 72.8756H91.7629C91.7064 72.8756 91.6579 72.8554 91.6176 72.815C91.5691 72.7747 91.5449 72.7222 91.5449 72.6576V63.7538C91.5449 63.6973 91.5691 63.6448 91.6176 63.5963C91.6579 63.556 91.7064 63.5358 91.7629 63.5358H93.895C93.9515 63.5358 94.004 63.556 94.0525 63.5963C94.0928 63.6448 94.113 63.6973 94.113 63.7538V64.4443C94.113 64.4766 94.1251 64.5008 94.1494 64.517C94.1736 64.5331 94.1938 64.5251 94.2099 64.4928C94.7026 63.774 95.3648 63.4146 96.1966 63.4146ZM46.2145 42.2031C46.2145 42.1466 46.2347 42.0941 46.2751 42.0456C46.3155 42.0053 46.3639 41.9851 46.4205 41.9851H48.5525C48.609 41.9851 48.6615 42.0053 48.71 42.0456C48.7504 42.0941 48.7706 42.1466 48.7706 42.2031V54.4866C48.7706 54.5513 48.7504 54.6038 48.71 54.6441C48.6615 54.6845 48.609 54.7047 48.5525 54.7047H46.4205C46.3639 54.7047 46.3155 54.6845 46.2751 54.6441C46.2347 54.6038 46.2145 54.5513 46.2145 54.4866V49.4715C46.2145 49.4149 46.1822 49.3867 46.1176 49.3867H42.0958C42.0392 49.3867 42.011 49.4149 42.011 49.4715V54.4866C42.011 54.5513 41.9908 54.6038 41.9504 54.6441C41.902 54.6845 41.8495 54.7047 41.7929 54.7047H39.6609C39.6043 54.7047 39.5559 54.6845 39.5155 54.6441C39.4671 54.6038 39.4428 54.5513 39.4428 54.4866V42.2031C39.4428 42.1466 39.4671 42.0941 39.5155 42.0456C39.5559 42.0053 39.6043 41.9851 39.6609 41.9851H41.7929C41.8495 41.9851 41.902 42.0053 41.9504 42.0456C41.9908 42.0941 42.011 42.1466 42.011 42.2031V47.085C42.011 47.1496 42.0392 47.1819 42.0958 47.1819H46.1176C46.1822 47.1819 46.2145 47.1496 46.2145 47.085V42.2031ZM52.0777 44.3109C51.6658 44.3109 51.3226 44.1737 51.048 43.8991C50.7734 43.6326 50.6361 43.2934 50.6361 42.8815C50.6361 42.4535 50.7694 42.1062 51.0359 41.8397C51.3024 41.5732 51.6496 41.4399 52.0777 41.4399C52.5057 41.4399 52.853 41.5732 53.1195 41.8397C53.386 42.1062 53.5192 42.4535 53.5192 42.8815C53.5192 43.2934 53.3819 43.6326 53.1073 43.8991C52.8328 44.1737 52.4895 44.3109 52.0777 44.3109ZM50.9874 54.7047C50.9309 54.7047 50.8784 54.6845 50.8299 54.6441C50.7895 54.6038 50.7694 54.5513 50.7694 54.4866V45.5708C50.7694 45.5062 50.7895 45.4537 50.8299 45.4133C50.8784 45.3729 50.9309 45.3527 50.9874 45.3527H53.1195C53.176 45.3527 53.2244 45.3729 53.2648 45.4133C53.3133 45.4537 53.3375 45.5062 53.3375 45.5708V54.4866C53.3375 54.5513 53.3133 54.6038 53.2648 54.6441C53.2244 54.6845 53.176 54.7047 53.1195 54.7047H50.9874ZM61.0299 45.5829C61.0299 45.5264 61.0541 45.4739 61.1025 45.4254C61.1429 45.385 61.1914 45.3649 61.2479 45.3649H63.38C63.4365 45.3649 63.489 45.385 63.5374 45.4254C63.5778 45.4739 63.598 45.5264 63.598 45.5829V53.8688C63.598 55.4517 63.1417 56.5824 62.2291 57.2607C61.3166 57.9472 60.1375 58.2904 58.6919 58.2904C58.2638 58.2904 57.7914 58.2581 57.2745 58.1935C57.1534 58.1774 57.0928 58.1006 57.0928 57.9633L57.1655 56.0857C57.1655 55.9242 57.2503 55.8555 57.4199 55.8798C57.856 55.9524 58.2558 55.9888 58.6192 55.9888C59.3945 55.9888 59.9921 55.8232 60.412 55.4921C60.8239 55.1448 61.0299 54.5997 61.0299 53.8567C61.0299 53.8163 61.0177 53.7921 60.9935 53.784C60.9693 53.776 60.9451 53.7881 60.9208 53.8204C60.4605 54.313 59.7902 54.5593 58.9099 54.5593C58.1185 54.5593 57.3957 54.3695 56.7415 53.99C56.0793 53.6104 55.6069 52.9966 55.3242 52.1487C55.1465 51.5914 55.0577 50.8686 55.0577 49.9803C55.0577 49.0354 55.1667 48.2682 55.3848 47.6786C55.6351 46.9356 56.0631 46.342 56.6688 45.8979C57.2745 45.4456 57.9812 45.2195 58.7888 45.2195C59.7175 45.2195 60.4282 45.4981 60.9208 46.0554C60.9451 46.0796 60.9693 46.0877 60.9935 46.0796C61.0177 46.0715 61.0299 46.0513 61.0299 46.019V45.5829ZM60.8845 51.4461C60.9814 51.0907 61.0299 50.594 61.0299 49.956C61.0299 49.5845 61.0177 49.2978 60.9935 49.0959C60.9693 48.886 60.9289 48.6881 60.8724 48.5024C60.7593 48.1793 60.5776 47.9169 60.3273 47.715C60.0769 47.5211 59.7619 47.4242 59.3824 47.4242C59.0189 47.4242 58.7121 47.5211 58.4617 47.715C58.2033 47.9169 58.0135 48.1793 57.8924 48.5024C57.7228 48.8658 57.638 49.3584 57.638 49.9803C57.638 50.6586 57.7106 51.1432 57.856 51.4339C57.961 51.7651 58.1508 52.0275 58.4254 52.2213C58.6999 52.4232 59.023 52.5242 59.3945 52.5242C59.7821 52.5242 60.1052 52.4232 60.3636 52.2213C60.614 52.0275 60.7876 51.7691 60.8845 51.4461ZM70.3091 45.2195C71.2783 45.2195 72.0576 45.5183 72.6471 46.1159C73.2367 46.7055 73.5314 47.509 73.5314 48.5266V54.4866C73.5314 54.5513 73.5113 54.6038 73.4709 54.6441C73.4305 54.6845 73.382 54.7047 73.3255 54.7047H71.1935C71.1369 54.7047 71.0844 54.6845 71.036 54.6441C70.9956 54.6038 70.9754 54.5513 70.9754 54.4866V49.0475C70.9754 48.571 70.8381 48.1793 70.5635 47.8724C70.297 47.5736 69.9376 47.4242 69.4854 47.4242C69.0412 47.4242 68.6818 47.5736 68.4072 47.8724C68.1327 48.1793 67.9954 48.571 67.9954 49.0475V54.4866C67.9954 54.5513 67.9752 54.6038 67.9348 54.6441C67.8944 54.6845 67.8419 54.7047 67.7773 54.7047H65.6574C65.5928 54.7047 65.5403 54.6845 65.4999 54.6441C65.4595 54.6038 65.4393 54.5513 65.4393 54.4866V42.2031C65.4393 42.1466 65.4595 42.0941 65.4999 42.0456C65.5403 42.0053 65.5928 41.9851 65.6574 41.9851H67.7773C67.8419 41.9851 67.8944 42.0053 67.9348 42.0456C67.9752 42.0941 67.9954 42.1466 67.9954 42.2031V46.2249C67.9954 46.2573 68.0075 46.2815 68.0317 46.2976C68.0559 46.3057 68.0721 46.2976 68.0802 46.2734C68.5809 45.5708 69.3239 45.2195 70.3091 45.2195Z" fill="#252530"/>
<path d="M40.2545 91.6279C39.6246 91.6279 39.0754 91.527 38.607 91.3251C38.1386 91.1232 37.7752 90.8405 37.5167 90.4771C37.2664 90.1137 37.1412 89.6857 37.1412 89.193V88.8902C37.1412 88.8498 37.1574 88.8134 37.1897 88.7811C37.2139 88.7569 37.2462 88.7448 37.2866 88.7448H38.3647C38.4051 88.7448 38.4414 88.7569 38.4737 88.7811C38.498 88.8134 38.5101 88.8498 38.5101 88.8902V89.1203C38.5101 89.4918 38.6756 89.7987 39.0068 90.041C39.3379 90.2913 39.7901 90.4165 40.3635 90.4165C40.8561 90.4165 41.2276 90.3115 41.478 90.1016C41.7284 89.8916 41.8535 89.6211 41.8535 89.2899C41.8535 89.0638 41.7849 88.87 41.6476 88.7085C41.5103 88.555 41.3165 88.4137 41.0661 88.2845C40.8077 88.1553 40.4241 87.9937 39.9153 87.7999C39.3419 87.5899 38.8775 87.3921 38.5222 87.2063C38.1669 87.0206 37.8721 86.7662 37.6379 86.4432C37.3956 86.1282 37.2745 85.7325 37.2745 85.256C37.2745 84.5453 37.5329 83.984 38.0497 83.5722C38.5666 83.1603 39.2571 82.9543 40.1212 82.9543C40.7269 82.9543 41.264 83.0593 41.7324 83.2693C42.1927 83.4793 42.5521 83.7741 42.8105 84.1536C43.069 84.5251 43.1982 84.9572 43.1982 85.4498V85.6558C43.1982 85.6961 43.182 85.7325 43.1497 85.7648C43.1255 85.789 43.0932 85.8011 43.0528 85.8011H41.9626C41.9222 85.8011 41.8899 85.789 41.8656 85.7648C41.8333 85.7325 41.8172 85.6961 41.8172 85.6558V85.5225C41.8172 85.1429 41.6637 84.8239 41.3569 84.5655C41.0419 84.299 40.6098 84.1657 40.0607 84.1657C39.6165 84.1657 39.2733 84.2586 39.031 84.4444C38.7806 84.6301 38.6554 84.8926 38.6554 85.2318C38.6554 85.474 38.7201 85.6719 38.8493 85.8254C38.9785 85.9788 39.1723 86.1161 39.4307 86.2372C39.6892 86.3664 40.0889 86.528 40.63 86.7218C41.2034 86.9398 41.6637 87.1377 42.011 87.3154C42.3502 87.493 42.645 87.7393 42.8953 88.0543C43.1376 88.3773 43.2587 88.7771 43.2587 89.2536C43.2587 89.9804 42.9882 90.5579 42.4471 90.9859C41.9141 91.4139 41.1832 91.6279 40.2545 91.6279ZM48.0801 83.0391C48.5889 83.0391 49.0371 83.1441 49.4247 83.3541C49.8124 83.5641 50.1112 83.8588 50.3212 84.2384C50.5392 84.6261 50.6482 85.0703 50.6482 85.571C50.6482 86.0636 50.5392 86.4997 50.3212 86.8793C50.1031 87.2588 49.7962 87.5496 49.4005 87.7515C48.9967 87.9614 48.5323 88.0664 48.0074 88.0664H46.0692C46.0288 88.0664 46.0086 88.0866 46.0086 88.127V91.3856C46.0086 91.426 45.9965 91.4583 45.9723 91.4826C45.94 91.5149 45.9036 91.531 45.8632 91.531H44.7488C44.7084 91.531 44.6761 91.5149 44.6518 91.4826C44.6195 91.4583 44.6034 91.426 44.6034 91.3856V83.1845C44.6034 83.1441 44.6195 83.1078 44.6518 83.0755C44.6761 83.0513 44.7084 83.0391 44.7488 83.0391H48.0801ZM47.8742 86.9277C48.286 86.9277 48.6171 86.8066 48.8675 86.5643C49.1178 86.322 49.243 86.003 49.243 85.6073C49.243 85.2035 49.1178 84.8764 48.8675 84.6261C48.6171 84.3757 48.286 84.2505 47.8742 84.2505H46.0692C46.0288 84.2505 46.0086 84.2707 46.0086 84.3111V86.8672C46.0086 86.9075 46.0288 86.9277 46.0692 86.9277H47.8742ZM56.6446 91.531C56.5639 91.531 56.5073 91.4947 56.475 91.422L54.876 87.9332C54.8599 87.9009 54.8356 87.8847 54.8033 87.8847H53.3497C53.3093 87.8847 53.2891 87.9049 53.2891 87.9453V91.3856C53.2891 91.426 53.2729 91.4583 53.2406 91.4826C53.2164 91.5149 53.1841 91.531 53.1437 91.531H52.0292C51.9889 91.531 51.9565 91.5149 51.9323 91.4826C51.9 91.4583 51.8839 91.426 51.8839 91.3856V83.1966C51.8839 83.1562 51.9 83.1239 51.9323 83.0997C51.9565 83.0674 51.9889 83.0513 52.0292 83.0513H55.3606C55.8532 83.0513 56.2893 83.1522 56.6689 83.3541C57.0484 83.5641 57.3432 83.8548 57.5532 84.2263C57.7632 84.6059 57.8681 85.0379 57.8681 85.5225C57.8681 86.0797 57.7268 86.5522 57.4442 86.9398C57.1534 87.3356 56.7537 87.6101 56.2449 87.7636C56.2287 87.7636 56.2166 87.7717 56.2085 87.7878C56.2005 87.804 56.2005 87.8201 56.2085 87.8363L57.9166 91.3614C57.9328 91.3937 57.9408 91.4179 57.9408 91.4341C57.9408 91.4987 57.8964 91.531 57.8076 91.531H56.6446ZM53.3497 84.2627C53.3093 84.2627 53.2891 84.2828 53.2891 84.3232V86.7339C53.2891 86.7743 53.3093 86.7945 53.3497 86.7945H55.1667C55.5544 86.7945 55.8653 86.6774 56.0995 86.4432C56.3418 86.217 56.4629 85.9142 56.4629 85.5346C56.4629 85.155 56.3418 84.8482 56.0995 84.614C55.8653 84.3798 55.5544 84.2627 55.1667 84.2627H53.3497ZM59.4551 91.531C59.4147 91.531 59.3784 91.5149 59.3461 91.4826C59.3218 91.4583 59.3097 91.426 59.3097 91.3856V83.1966C59.3097 83.1562 59.3218 83.1239 59.3461 83.0997C59.3784 83.0674 59.4147 83.0513 59.4551 83.0513H60.5696C60.6099 83.0513 60.6422 83.0674 60.6665 83.0997C60.6988 83.1239 60.7149 83.1562 60.7149 83.1966V91.3856C60.7149 91.426 60.6988 91.4583 60.6665 91.4826C60.6422 91.5149 60.6099 91.531 60.5696 91.531H59.4551ZM67.4139 83.1966C67.4139 83.1562 67.4301 83.1239 67.4624 83.0997C67.4866 83.0674 67.5189 83.0513 67.5593 83.0513H68.6738C68.7142 83.0513 68.7505 83.0674 68.7828 83.0997C68.807 83.1239 68.8191 83.1562 68.8191 83.1966V91.3856C68.8191 91.426 68.807 91.4583 68.7828 91.4826C68.7505 91.5149 68.7142 91.531 68.6738 91.531H67.5956C67.5149 91.531 67.4583 91.4987 67.426 91.4341L63.9372 85.7163C63.9211 85.6921 63.9049 85.68 63.8888 85.68C63.8726 85.6881 63.8645 85.7083 63.8645 85.7406L63.8888 91.3856C63.8888 91.426 63.8726 91.4583 63.8403 91.4826C63.8161 91.5149 63.7838 91.531 63.7434 91.531H62.6289C62.5885 91.531 62.5562 91.5149 62.532 91.4826C62.4997 91.4583 62.4836 91.426 62.4836 91.3856V83.1966C62.4836 83.1562 62.4997 83.1239 62.532 83.0997C62.5562 83.0674 62.5885 83.0513 62.6289 83.0513H63.7071C63.7878 83.0513 63.8444 83.0836 63.8767 83.1482L67.3534 88.8659C67.3695 88.8902 67.3857 88.8983 67.4018 88.8902C67.418 88.8902 67.426 88.874 67.426 88.8417L67.4139 83.1966ZM73.4224 91.6279C72.8167 91.6279 72.2837 91.5108 71.8234 91.2766C71.3631 91.0343 71.0077 90.6951 70.7574 90.259C70.507 89.8229 70.3818 89.3222 70.3818 88.7569V85.8254C70.3818 85.252 70.507 84.7472 70.7574 84.3111C71.0077 83.8831 71.3631 83.5479 71.8234 83.3057C72.2837 83.0714 72.8167 82.9543 73.4224 82.9543C74.0201 82.9543 74.549 83.0714 75.0094 83.3057C75.4616 83.5399 75.8129 83.8589 76.0633 84.2627C76.3136 84.6665 76.4388 85.1227 76.4388 85.6315V85.7284C76.4388 85.7688 76.4267 85.8011 76.4025 85.8254C76.3702 85.8577 76.3338 85.8738 76.2934 85.8738H75.1911C75.1507 85.8738 75.1184 85.8577 75.0942 85.8254C75.0619 85.8011 75.0457 85.7688 75.0457 85.7284V85.6679C75.0457 85.2318 74.8963 84.8724 74.5975 84.5897C74.3068 84.3071 73.9151 84.1657 73.4224 84.1657C72.9298 84.1657 72.5341 84.3151 72.2353 84.614C71.9365 84.9047 71.7871 85.2923 71.7871 85.7769V88.8054C71.7871 89.2899 71.9445 89.6816 72.2595 89.9804C72.5745 90.2712 72.9823 90.4165 73.483 90.4165C73.9676 90.4165 74.3512 90.2873 74.6338 90.0289C74.9084 89.7785 75.0457 89.4313 75.0457 88.9871V88.236C75.0457 88.1956 75.0255 88.1754 74.9851 88.1754H73.4951C73.4547 88.1754 73.4184 88.1593 73.3861 88.127C73.3619 88.1028 73.3498 88.0705 73.3498 88.0301V87.1336C73.3498 87.0933 73.3619 87.061 73.3861 87.0367C73.4184 87.0044 73.4547 86.9883 73.4951 86.9883H76.2934C76.3338 86.9883 76.3702 87.0044 76.4025 87.0367C76.4267 87.061 76.4388 87.0933 76.4388 87.1336V88.6842C76.4388 89.613 76.1683 90.3358 75.6272 90.8526C75.078 91.3695 74.3431 91.6279 73.4224 91.6279Z" fill="white"/>
<path d="M40.6784 113.409C40.6542 113.433 40.6461 113.457 40.6542 113.481C40.6703 113.505 40.6945 113.518 40.7268 113.518H45.4876C45.5441 113.518 45.5926 113.538 45.633 113.578C45.6814 113.619 45.7057 113.667 45.7057 113.724V115.432C45.7057 115.488 45.6814 115.537 45.633 115.577C45.5926 115.617 45.5441 115.638 45.4876 115.638H37.5893C37.5247 115.638 37.4722 115.617 37.4319 115.577C37.3915 115.537 37.3713 115.488 37.3713 115.432V113.808C37.3713 113.703 37.4076 113.615 37.4803 113.542C38.0537 112.985 38.6392 112.375 39.2368 111.713C39.8344 111.05 40.21 110.639 40.3634 110.477C40.6865 110.089 41.0176 109.718 41.3568 109.363C42.4228 108.183 42.9558 107.307 42.9558 106.734C42.9558 106.322 42.8104 105.983 42.5197 105.716C42.229 105.458 41.8494 105.329 41.381 105.329C40.9126 105.329 40.533 105.458 40.2423 105.716C39.9435 105.983 39.7941 106.334 39.7941 106.77V107.206C39.7941 107.263 39.7739 107.311 39.7335 107.352C39.6931 107.392 39.6447 107.412 39.5881 107.412H37.5166C37.4601 107.412 37.4117 107.392 37.3713 107.352C37.3228 107.311 37.2986 107.263 37.2986 107.206V106.383C37.339 105.753 37.5409 105.191 37.9043 104.699C38.2677 104.214 38.7482 103.843 39.3459 103.584C39.9515 103.326 40.6299 103.197 41.381 103.197C42.2128 103.197 42.9356 103.354 43.5494 103.669C44.1632 103.976 44.6356 104.392 44.9667 104.917C45.3059 105.45 45.4755 106.035 45.4755 106.673C45.4755 107.166 45.3503 107.671 45.1 108.187C44.8577 108.704 44.4902 109.262 43.9976 109.859C43.6342 110.311 43.2425 110.764 42.8226 111.216C42.4026 111.66 41.7767 112.302 40.9449 113.142L40.6784 113.409ZM51.4113 115.831C50.1192 115.831 49.1016 115.472 48.3586 114.753C47.6076 114.034 47.232 113.053 47.232 111.81V107.17C47.232 105.95 47.6076 104.985 48.3586 104.275C49.1016 103.556 50.1192 103.197 51.4113 103.197C52.6954 103.197 53.717 103.556 54.4762 104.275C55.2272 104.985 55.6028 105.95 55.6028 107.17V111.81C55.6028 113.053 55.2272 114.034 54.4762 114.753C53.717 115.472 52.6954 115.831 51.4113 115.831ZM51.4113 113.711C51.9363 113.711 52.3522 113.55 52.6591 113.227C52.974 112.904 53.1315 112.472 53.1315 111.931V107.097C53.1315 106.564 52.974 106.136 52.6591 105.813C52.3522 105.49 51.9363 105.329 51.4113 105.329C50.8945 105.329 50.4826 105.49 50.1757 105.813C49.8608 106.136 49.7033 106.564 49.7033 107.097V111.931C49.7033 112.472 49.8608 112.904 50.1757 113.227C50.4826 113.55 50.8945 113.711 51.4113 113.711ZM60.521 113.409C60.4968 113.433 60.4927 113.457 60.5089 113.481C60.517 113.505 60.5412 113.518 60.5816 113.518H65.3424C65.3989 113.518 65.4473 113.538 65.4877 113.578C65.5281 113.619 65.5483 113.667 65.5483 113.724V115.432C65.5483 115.488 65.5281 115.537 65.4877 115.577C65.4473 115.617 65.3989 115.638 65.3424 115.638H57.432C57.3754 115.638 57.327 115.617 57.2866 115.577C57.2462 115.537 57.226 115.488 57.226 115.432V113.808C57.226 113.703 57.2583 113.615 57.3229 113.542C57.9044 112.985 58.4899 112.375 59.0795 111.713C59.6771 111.05 60.0526 110.639 60.2061 110.477C60.5372 110.089 60.8723 109.718 61.2115 109.363C62.2775 108.183 62.8105 107.307 62.8105 106.734C62.8105 106.322 62.6652 105.983 62.3744 105.716C62.0756 105.458 61.692 105.329 61.2236 105.329C60.7552 105.329 60.3756 105.458 60.0849 105.716C59.7942 105.983 59.6488 106.334 59.6488 106.77V107.206C59.6488 107.263 59.6286 107.311 59.5882 107.352C59.5479 107.392 59.4954 107.412 59.4308 107.412H57.3593C57.3027 107.412 57.2543 107.392 57.2139 107.352C57.1735 107.311 57.1533 107.263 57.1533 107.206V106.383C57.1856 105.753 57.3835 105.191 57.7469 104.699C58.1103 104.214 58.5949 103.843 59.2006 103.584C59.8063 103.326 60.4806 103.197 61.2236 103.197C62.0554 103.197 62.7782 103.354 63.392 103.669C64.0139 103.976 64.4903 104.392 64.8215 104.917C65.1526 105.45 65.3181 106.035 65.3181 106.673C65.3181 107.166 65.197 107.671 64.9547 108.187C64.7044 108.704 64.3329 109.262 63.8402 109.859C63.4768 110.311 63.0851 110.764 62.6652 111.216C62.2452 111.66 61.6193 112.302 60.7875 113.142L60.521 113.409ZM75.8573 110.283C75.9138 110.283 75.9663 110.303 76.0147 110.344C76.0551 110.384 76.0753 110.433 76.0753 110.489V112.27C76.0753 112.326 76.0551 112.375 76.0147 112.415C75.9663 112.456 75.9138 112.476 75.8573 112.476H75.1062C75.0497 112.476 75.0214 112.504 75.0214 112.561V115.432C75.0214 115.488 75.0012 115.537 74.9608 115.577C74.9124 115.617 74.8599 115.638 74.8033 115.638H72.7561C72.6915 115.638 72.639 115.617 72.5986 115.577C72.5582 115.537 72.538 115.488 72.538 115.432V112.561C72.538 112.504 72.5098 112.476 72.4532 112.476H67.0625C67.006 112.476 66.9535 112.456 66.9051 112.415C66.8647 112.375 66.8445 112.326 66.8445 112.27V110.865C66.8445 110.792 66.8647 110.703 66.9051 110.598L70.0668 103.499C70.1152 103.394 70.196 103.342 70.3091 103.342H72.5017C72.5825 103.342 72.639 103.362 72.6713 103.402C72.7036 103.443 72.6996 103.503 72.6592 103.584L69.7276 110.174C69.7195 110.198 69.7195 110.223 69.7276 110.247C69.7438 110.271 69.7639 110.283 69.7882 110.283H72.4532C72.5098 110.283 72.538 110.251 72.538 110.186V108.018C72.538 107.953 72.5582 107.901 72.5986 107.86C72.639 107.82 72.6915 107.8 72.7561 107.8H74.8033C74.8599 107.8 74.9124 107.82 74.9608 107.86C75.0012 107.901 75.0214 107.953 75.0214 108.018V110.186C75.0214 110.251 75.0497 110.283 75.1062 110.283H75.8573Z" fill="#252530"/>
</g>
<defs>
<clipPath id="clip0_1428_5546">
<rect width="113.871" height="147.79" fill="white" transform="translate(0.108826 0.191895)"/>
</clipPath>
</defs>
</svg>
