<svg width="582" height="518" viewBox="0 0 582 518" fill="none" xmlns="http://www.w3.org/2000/svg">
<rect x="28" width="259" height="159" rx="7" fill="#14572E"/>
<path d="M47.5 131.501C50.6667 122.167 68.1809 125.501 126.5 125.501C147.71 125.501 167.461 107.495 215.515 130.533C216.685 131.095 218.124 130.858 219.051 129.949C242.173 107.276 257.347 113.359 273 107" stroke="#96D300" stroke-linecap="round"/>
<path d="M230.578 60H229.426V51.324H230.578L233.566 58.62L236.554 51.324H237.73V60H236.578V56.568C236.578 54.948 236.59 54.36 236.65 53.748L234.118 60H233.014L230.494 53.772C230.554 54.192 230.578 55.08 230.578 56.292V60ZM242.09 60.144C240.362 60.144 239.174 58.896 239.174 57.072C239.174 55.236 240.338 53.964 242.042 53.964C243.71 53.964 244.802 55.116 244.802 56.856V57.276L240.266 57.288C240.35 58.524 240.998 59.208 242.114 59.208C242.99 59.208 243.566 58.848 243.758 58.176H244.814C244.526 59.436 243.542 60.144 242.09 60.144ZM242.042 54.912C241.058 54.912 240.434 55.5 240.29 56.532H243.674C243.674 55.56 243.038 54.912 242.042 54.912ZM248.414 60.144C246.71 60.144 245.678 58.872 245.678 57.084C245.678 55.284 246.722 53.964 248.462 53.964C249.362 53.964 250.118 54.36 250.514 55.08V51.168H251.63V60H250.622L250.526 58.932C250.142 59.736 249.35 60.144 248.414 60.144ZM248.642 59.124C249.794 59.124 250.502 58.272 250.502 57.048C250.502 55.848 249.794 54.984 248.642 54.984C247.49 54.984 246.818 55.848 246.818 57.048C246.818 58.26 247.49 59.124 248.642 59.124ZM253.809 52.74C253.401 52.74 253.065 52.404 253.065 51.996C253.065 51.576 253.401 51.252 253.809 51.252C254.217 51.252 254.553 51.576 254.553 51.996C254.553 52.404 254.217 52.74 253.809 52.74ZM253.257 60V54.132H254.385V60H253.257ZM259.716 54.132H260.832V60H259.824L259.704 59.112C259.368 59.724 258.588 60.144 257.724 60.144C256.356 60.144 255.588 59.22 255.588 57.78V54.132H256.716V57.408C256.716 58.668 257.256 59.148 258.12 59.148C259.152 59.148 259.716 58.488 259.716 57.228V54.132ZM263.596 60H262.468V54.132H263.476L263.584 54.9C263.884 54.348 264.508 53.964 265.336 53.964C266.248 53.964 266.896 54.42 267.196 55.152C267.472 54.42 268.18 53.964 269.092 53.964C270.436 53.964 271.252 54.804 271.252 56.16V60H270.148V56.436C270.148 55.512 269.632 54.984 268.84 54.984C267.988 54.984 267.424 55.584 267.424 56.52V60H266.308V56.424C266.308 55.5 265.804 54.996 265.012 54.996C264.16 54.996 263.596 55.584 263.596 56.52V60Z" fill="#EAEDD6"/>
<path d="M228.554 44.11C226.554 44.11 225.194 42.62 225.194 40.42C225.194 38.22 226.574 36.72 228.594 36.72C230.134 36.72 231.344 37.65 231.634 39.07H230.864C230.564 38.04 229.684 37.41 228.564 37.41C226.994 37.41 225.944 38.61 225.944 40.42C225.944 42.22 226.994 43.42 228.564 43.42C229.694 43.42 230.594 42.81 230.904 41.85H231.674C231.344 43.2 230.094 44.11 228.554 44.11ZM235.299 39.1V39.72H234.919C234.029 39.72 233.459 40.32 233.459 41.24V44H232.769V39.16H233.419L233.469 39.91C233.659 39.39 234.169 39.05 234.849 39.05C234.999 39.05 235.129 39.06 235.299 39.1ZM238.061 44.12C236.641 44.12 235.691 43.1 235.691 41.58C235.691 40.07 236.631 39.03 238.011 39.03C239.321 39.03 240.211 39.96 240.211 41.33V41.67H236.361C236.411 42.85 237.031 43.53 238.071 43.53C238.861 43.53 239.371 43.19 239.551 42.55H240.211C239.951 43.57 239.201 44.12 238.061 44.12ZM238.011 39.62C237.101 39.62 236.501 40.22 236.381 41.17H239.521C239.521 40.24 238.921 39.62 238.011 39.62ZM243.214 44.12C241.804 44.12 240.974 43.04 240.974 41.59C240.974 40.13 241.804 39.03 243.244 39.03C244.044 39.03 244.684 39.38 245.024 40.08V36.71H245.714V44H245.114L245.044 43.01C244.704 43.76 244.024 44.12 243.214 44.12ZM243.334 43.49C244.394 43.49 245.014 42.69 245.014 41.57C245.014 40.46 244.394 39.65 243.334 39.65C242.284 39.65 241.674 40.46 241.674 41.57C241.674 42.69 242.284 43.49 243.334 43.49ZM247.494 37.83C247.214 37.83 246.984 37.6 246.984 37.32C246.984 37.04 247.214 36.8 247.494 36.8C247.774 36.8 248.014 37.04 248.014 37.32C248.014 37.6 247.774 37.83 247.494 37.83ZM247.154 44V39.16H247.844V44H247.154ZM250.393 44H249.713V39.74H248.743V39.16H249.713V37.63H250.393V39.16H251.363V39.74H250.393V44ZM255.904 44H255.184V36.84H257.854C259.304 36.84 260.184 37.64 260.184 38.91C260.184 39.94 259.644 40.66 258.724 40.91L260.254 44H259.454L257.994 41.03H255.904V44ZM255.904 37.49V40.38H257.874C258.864 40.38 259.444 39.84 259.444 38.93C259.444 38 258.834 37.49 257.854 37.49H255.904ZM261.771 37.83C261.491 37.83 261.261 37.6 261.261 37.32C261.261 37.04 261.491 36.8 261.771 36.8C262.051 36.8 262.291 37.04 262.291 37.32C262.291 37.6 262.051 37.83 261.771 37.83ZM261.431 44V39.16H262.121V44H261.431ZM263.15 42.64H263.81C263.81 43.2 264.23 43.55 264.91 43.55C265.66 43.55 266.1 43.23 266.1 42.71C266.1 42.31 265.9 42.08 265.33 41.94L264.5 41.73C263.66 41.52 263.25 41.08 263.25 40.42C263.25 39.57 263.96 39.03 265 39.03C266.02 39.03 266.68 39.59 266.71 40.49H266.04C266.02 39.93 265.63 39.6 264.98 39.6C264.3 39.6 263.92 39.89 263.92 40.41C263.92 40.78 264.18 41.04 264.71 41.17L265.54 41.38C266.38 41.59 266.76 41.98 266.76 42.68C266.76 43.55 266.02 44.12 264.92 44.12C263.83 44.12 263.15 43.54 263.15 42.64ZM268.616 44H267.926V36.71H268.616V41.66L271.016 39.16H271.886L270.026 41.09L271.896 44H271.096L269.556 41.58L268.616 42.55V44Z" fill="#EAEDD6"/>
<path d="M43.6 95.37H41.59V98H40.87V90.84H43.6C44.98 90.84 45.85 91.74 45.85 93.09C45.85 94.39 44.97 95.37 43.6 95.37ZM43.5 91.49H41.59V94.72H43.46C44.5 94.72 45.1 94.06 45.1 93.08C45.1 92.09 44.49 91.49 43.5 91.49ZM48.0573 98.12C47.0273 98.12 46.4173 97.54 46.4173 96.69C46.4173 95.8 47.0973 95.24 48.2273 95.15L49.8273 95.02V94.86C49.8273 93.91 49.2573 93.61 48.5473 93.61C47.7073 93.61 47.2073 93.99 47.2073 94.64H46.5773C46.5773 93.66 47.3773 93.03 48.5673 93.03C49.6873 93.03 50.5073 93.59 50.5073 94.87V98H49.9273L49.8373 97.15C49.5373 97.76 48.8773 98.12 48.0573 98.12ZM48.2173 97.56C49.2373 97.56 49.8273 96.85 49.8273 95.8V95.54L48.3973 95.65C47.4873 95.73 47.1173 96.13 47.1173 96.67C47.1173 97.26 47.5573 97.56 48.2173 97.56ZM51.2945 100.11V99.54H51.8245C52.2445 99.54 52.6645 99.51 52.9045 98.86L53.1145 98.29L51.1545 93.16H51.8845L53.4445 97.38L54.9745 93.16H55.6845L53.4645 99.11C53.1845 99.87 52.7145 100.18 52.0245 100.18C51.7345 100.18 51.5145 100.16 51.2945 100.11ZM57.1815 98H56.4915V93.16H57.0915L57.1715 93.85C57.4115 93.34 57.9515 93.03 58.6315 93.03C59.3915 93.03 59.9615 93.43 60.1915 94.06C60.4115 93.43 61.0015 93.03 61.7815 93.03C62.8315 93.03 63.5215 93.71 63.5215 94.83V98H62.8515V94.97C62.8515 94.14 62.3915 93.65 61.6515 93.65C60.8415 93.65 60.3615 94.26 60.3615 95.01V98H59.6815V94.96C59.6815 94.14 59.2115 93.66 58.4815 93.66C57.6715 93.66 57.1815 94.26 57.1815 95V98ZM66.9395 98.12C65.5195 98.12 64.5695 97.1 64.5695 95.58C64.5695 94.07 65.5095 93.03 66.8895 93.03C68.1995 93.03 69.0895 93.96 69.0895 95.33V95.67H65.2395C65.2895 96.85 65.9095 97.53 66.9495 97.53C67.7395 97.53 68.2495 97.19 68.4295 96.55H69.0895C68.8295 97.57 68.0795 98.12 66.9395 98.12ZM66.8895 93.62C65.9795 93.62 65.3795 94.22 65.2595 95.17H68.3995C68.3995 94.24 67.7995 93.62 66.8895 93.62ZM70.8827 98H70.1927V93.16H70.7927L70.8927 94C71.2127 93.38 71.8527 93.03 72.5527 93.03C73.8827 93.03 74.4327 93.82 74.4327 95.04V98H73.7427V95.19C73.7427 94.06 73.2327 93.66 72.4327 93.66C71.4427 93.66 70.8827 94.38 70.8827 95.47V98ZM76.9179 98H76.2379V93.74H75.2679V93.16H76.2379V91.63H76.9179V93.16H77.8879V93.74H76.9179V98ZM81.7098 98V90.84H84.3298C85.7098 90.84 86.5598 91.54 86.5598 92.69C86.5598 93.53 86.1898 94.1 85.4498 94.39C86.2798 94.66 86.6998 95.24 86.6998 96.12C86.6998 97.27 85.8398 98 84.4798 98H81.7098ZM84.3198 91.48H82.4298V94.1H84.4098C85.3098 94.1 85.8198 93.6 85.8198 92.75C85.8198 91.95 85.2798 91.48 84.3198 91.48ZM84.4798 94.73H82.4298V97.35H84.4798C85.4198 97.35 85.9698 96.86 85.9698 96.03C85.9698 95.22 85.4098 94.73 84.4798 94.73ZM89.8789 98.12C88.4589 98.12 87.5089 97.1 87.5089 95.58C87.5089 94.07 88.4489 93.03 89.8289 93.03C91.1389 93.03 92.0289 93.96 92.0289 95.33V95.67H88.1789C88.2289 96.85 88.8489 97.53 89.8889 97.53C90.6789 97.53 91.1889 97.19 91.3689 96.55H92.0289C91.7689 97.57 91.0189 98.12 89.8789 98.12ZM89.8289 93.62C88.9189 93.62 88.3189 94.22 88.1989 95.17H91.3389C91.3389 94.24 90.7389 93.62 89.8289 93.62ZM93.8221 97.99H93.1321V90.71H93.8221V94C94.1321 93.42 94.7221 93.03 95.5321 93.03C96.8021 93.03 97.3721 93.82 97.3721 95.04V98H96.6821V95.19C96.6821 94.06 96.1521 93.66 95.4021 93.66C94.3621 93.66 93.8221 94.43 93.8221 95.36V97.99ZM100.137 98.12C99.1073 98.12 98.4973 97.54 98.4973 96.69C98.4973 95.8 99.1773 95.24 100.307 95.15L101.907 95.02V94.86C101.907 93.91 101.337 93.61 100.627 93.61C99.7873 93.61 99.2873 93.99 99.2873 94.64H98.6573C98.6573 93.66 99.4573 93.03 100.647 93.03C101.767 93.03 102.587 93.59 102.587 94.87V98H102.007L101.917 97.15C101.617 97.76 100.957 98.12 100.137 98.12ZM100.297 97.56C101.317 97.56 101.907 96.85 101.907 95.8V95.54L100.477 95.65C99.5673 95.73 99.1973 96.13 99.1973 96.67C99.1973 97.26 99.6373 97.56 100.297 97.56ZM105.127 98L103.147 93.16H103.887L105.137 96.28C105.267 96.63 105.397 96.96 105.487 97.28C105.577 96.95 105.707 96.63 105.847 96.28L107.117 93.16H107.827L105.817 98H105.127ZM108.98 91.83C108.7 91.83 108.47 91.6 108.47 91.32C108.47 91.04 108.7 90.8 108.98 90.8C109.26 90.8 109.5 91.04 109.5 91.32C109.5 91.6 109.26 91.83 108.98 91.83ZM108.64 98V93.16H109.33V98H108.64ZM110.429 95.58C110.429 94.1 111.469 93.03 112.889 93.03C114.309 93.03 115.349 94.1 115.349 95.58C115.349 97.05 114.309 98.12 112.889 98.12C111.469 98.12 110.429 97.05 110.429 95.58ZM111.129 95.57C111.129 96.71 111.849 97.5 112.889 97.5C113.919 97.5 114.649 96.71 114.649 95.57C114.649 94.45 113.919 93.65 112.889 93.65C111.849 93.65 111.129 94.45 111.129 95.57ZM119.735 93.16H120.425V98H119.825L119.735 97.18C119.465 97.74 118.795 98.12 118.035 98.12C116.895 98.12 116.275 97.34 116.275 96.16V93.15H116.975V95.94C116.975 97.09 117.485 97.5 118.255 97.5C119.185 97.5 119.735 96.88 119.735 95.73V93.16ZM124.393 93.1V93.72H124.013C123.123 93.72 122.553 94.32 122.553 95.24V98H121.863V93.16H122.513L122.563 93.91C122.753 93.39 123.263 93.05 123.943 93.05C124.093 93.05 124.223 93.06 124.393 93.1Z" fill="#EAEDD6"/>
<path d="M44.752 50.502L40.306 43.986H42.412L44.446 46.884C45.022 47.73 45.454 48.45 45.832 49.17L49.27 43.986H51.304L46.948 50.484L51.358 57H49.27L47.272 54.138C46.768 53.4 46.282 52.608 45.85 51.852L42.358 57H40.288L44.752 50.502ZM56.1916 51.708L51.7816 43.986H53.7616L56.6596 49.188C56.8396 49.494 56.9476 49.746 57.0916 50.052C57.2536 49.728 57.2896 49.62 57.5236 49.188L60.4036 43.986H62.3296L57.9556 51.708V57H56.1916V51.708ZM72.3636 57H63.1656V55.362L70.1496 45.606H63.2736V43.986H72.3456V45.57L65.3076 55.362H72.3636V57ZM81.2096 43.986V57H79.4456V43.986H81.2096ZM85.6484 57H83.9564V48.198H85.4864L85.6664 49.548C86.2244 48.54 87.3404 47.946 88.5824 47.946C90.9044 47.946 91.9664 49.368 91.9664 51.618V57H90.2744V51.996C90.2744 50.214 89.4464 49.494 88.1504 49.494C86.5664 49.494 85.6484 50.628 85.6484 52.338V57ZM93.7339 52.608C93.7339 49.854 95.4799 47.946 98.0539 47.946C100.268 47.946 101.816 49.206 102.122 51.168H100.43C100.142 50.052 99.2419 49.458 98.1079 49.458C96.5059 49.458 95.4079 50.682 95.4079 52.59C95.4079 54.48 96.4339 55.704 98.0359 55.704C99.2419 55.704 100.142 55.074 100.448 54.03H102.14C101.798 55.938 100.16 57.216 98.0359 57.216C95.4439 57.216 93.7339 55.38 93.7339 52.608ZM104.834 57.216C104.132 57.216 103.538 56.64 103.538 55.956C103.538 55.254 104.132 54.678 104.834 54.678C105.518 54.678 106.112 55.254 106.112 55.956C106.112 56.64 105.518 57.216 104.834 57.216Z" fill="#EAEDD6"/>
<circle cx="44.9655" cy="15.9655" r="4.96552" fill="#00954A"/>
<circle cx="58.0007" cy="15.9655" r="4.96552" fill="#00954A"/>
<circle cx="71.0358" cy="15.9655" r="4.96552" fill="#00954A"/>
<rect x="314" y="65" width="202" height="43" rx="3" fill="#00954A"/>
<path d="M332.627 89.2413L333.826 86.6339L336.433 85.435L333.826 84.2388L332.627 81.6372L331.431 84.2388L328.829 85.435L331.431 86.6339L332.627 89.2413ZM332.627 91.6391L330.692 87.3785L326.423 85.435L330.692 83.4999L332.627 79.231L334.57 83.4999L338.831 85.435L334.57 87.3785L332.627 91.6391ZM339.47 93.7693L338.513 91.6229L336.373 90.6631L338.51 89.6888L339.47 87.5653L340.453 89.6888L342.577 90.6631L340.452 91.6229L339.47 93.7693Z" fill="#002211"/>
<path d="M355.596 92H354.168L357.864 81.878H359.39L363.1 92H361.658L360.748 89.48H356.492L355.596 92ZM358.452 84.062L356.912 88.29H360.342L358.788 84.062C358.718 83.866 358.648 83.628 358.62 83.474C358.592 83.614 358.522 83.852 358.452 84.062ZM365.818 81.878V92H364.446V81.878H365.818ZM376.206 92.154C373.322 92.154 371.404 90.082 371.404 86.946C371.404 83.824 373.378 81.71 376.276 81.71C378.558 81.71 380.308 83.068 380.686 85.14H379.216C378.838 83.824 377.704 83.026 376.234 83.026C374.19 83.026 372.846 84.566 372.846 86.932C372.846 89.298 374.19 90.838 376.234 90.838C377.718 90.838 378.894 90.04 379.272 88.794H380.728C380.294 90.81 378.488 92.154 376.206 92.154ZM381.738 88.57C381.738 86.456 383.25 84.972 385.308 84.972C387.352 84.972 388.864 86.456 388.864 88.57C388.864 90.684 387.352 92.168 385.308 92.168C383.25 92.168 381.738 90.684 381.738 88.57ZM383.068 88.57C383.068 89.998 383.978 90.992 385.308 90.992C386.624 90.992 387.548 89.998 387.548 88.57C387.548 87.142 386.624 86.148 385.308 86.148C383.978 86.148 383.068 87.142 383.068 88.57ZM391.665 92H390.349V81.696H391.665V92ZM394.946 92H393.63V81.696H394.946V92ZM399.838 92.168C397.822 92.168 396.436 90.712 396.436 88.584C396.436 86.442 397.794 84.958 399.782 84.958C401.728 84.958 403.002 86.302 403.002 88.332V88.822L397.71 88.836C397.808 90.278 398.564 91.076 399.866 91.076C400.888 91.076 401.56 90.656 401.784 89.872H403.016C402.68 91.342 401.532 92.168 399.838 92.168ZM399.782 86.064C398.634 86.064 397.906 86.75 397.738 87.954H401.686C401.686 86.82 400.944 86.064 399.782 86.064ZM404.024 88.584C404.024 86.442 405.382 84.958 407.384 84.958C409.106 84.958 410.31 85.938 410.548 87.464H409.232C409.008 86.596 408.308 86.134 407.426 86.134C406.18 86.134 405.326 87.086 405.326 88.57C405.326 90.04 406.124 90.992 407.37 90.992C408.308 90.992 409.008 90.502 409.246 89.69H410.562C410.296 91.174 409.022 92.168 407.37 92.168C405.354 92.168 404.024 90.74 404.024 88.584ZM413.882 92H412.566V86.26H411.222V85.154H412.566V83.012H413.882V85.154H415.226V86.26H413.882V92ZM417.051 83.53C416.575 83.53 416.183 83.138 416.183 82.662C416.183 82.172 416.575 81.794 417.051 81.794C417.527 81.794 417.919 82.172 417.919 82.662C417.919 83.138 417.527 83.53 417.051 83.53ZM416.407 92V85.154H417.723V92H416.407ZM419.186 88.57C419.186 86.456 420.698 84.972 422.756 84.972C424.8 84.972 426.312 86.456 426.312 88.57C426.312 90.684 424.8 92.168 422.756 92.168C420.698 92.168 419.186 90.684 419.186 88.57ZM420.516 88.57C420.516 89.998 421.426 90.992 422.756 90.992C424.072 90.992 424.996 89.998 424.996 88.57C424.996 87.142 424.072 86.148 422.756 86.148C421.426 86.148 420.516 87.142 420.516 88.57ZM429.084 92H427.768V85.154H428.958L429.098 86.204C429.532 85.42 430.4 84.958 431.366 84.958C433.172 84.958 433.998 86.064 433.998 87.814V92H432.682V88.108C432.682 86.722 432.038 86.162 431.03 86.162C429.798 86.162 429.084 87.044 429.084 88.374V92ZM444.213 82.998C442.029 82.998 440.713 84.608 440.713 87.002C440.713 89.452 442.141 90.866 444.227 90.866C445.949 90.866 447.335 89.984 447.335 87.94V87.646H443.947V86.428H448.623V92.014H447.475L447.377 90.642C446.831 91.524 445.599 92.168 444.115 92.168C441.245 92.168 439.271 90.096 439.271 86.974C439.271 83.894 441.259 81.71 444.241 81.71C446.453 81.71 448.175 82.984 448.511 84.93H447.055C446.677 83.642 445.557 82.998 444.213 82.998ZM453.308 92.168C451.292 92.168 449.906 90.712 449.906 88.584C449.906 86.442 451.264 84.958 453.252 84.958C455.198 84.958 456.472 86.302 456.472 88.332V88.822L451.18 88.836C451.278 90.278 452.034 91.076 453.336 91.076C454.358 91.076 455.03 90.656 455.254 89.872H456.486C456.15 91.342 455.002 92.168 453.308 92.168ZM453.252 86.064C452.104 86.064 451.376 86.75 451.208 87.954H455.156C455.156 86.82 454.414 86.064 453.252 86.064ZM459.258 92H457.942V85.154H459.132L459.272 86.204C459.706 85.42 460.574 84.958 461.54 84.958C463.346 84.958 464.172 86.064 464.172 87.814V92H462.856V88.108C462.856 86.722 462.212 86.162 461.204 86.162C459.972 86.162 459.258 87.044 459.258 88.374V92ZM468.949 92.168C466.933 92.168 465.547 90.712 465.547 88.584C465.547 86.442 466.905 84.958 468.893 84.958C470.839 84.958 472.113 86.302 472.113 88.332V88.822L466.821 88.836C466.919 90.278 467.675 91.076 468.977 91.076C469.999 91.076 470.671 90.656 470.895 89.872H472.127C471.791 91.342 470.643 92.168 468.949 92.168ZM468.893 86.064C467.745 86.064 467.017 86.75 466.849 87.954H470.797C470.797 86.82 470.055 86.064 468.893 86.064ZM477.503 85.098V86.302H476.915C475.669 86.302 474.899 87.058 474.899 88.374V92H473.583V85.168H474.815L474.899 86.204C475.179 85.49 475.865 85.014 476.803 85.014C477.041 85.014 477.237 85.042 477.503 85.098ZM480.466 92.168C478.996 92.168 478.128 91.342 478.128 90.096C478.128 88.836 479.066 88.052 480.676 87.926L482.832 87.758V87.562C482.832 86.414 482.146 86.008 481.222 86.008C480.116 86.008 479.486 86.498 479.486 87.324H478.338C478.338 85.896 479.514 84.958 481.278 84.958C482.972 84.958 484.12 85.854 484.12 87.702V92H483L482.86 90.894C482.51 91.678 481.572 92.168 480.466 92.168ZM480.844 91.146C482.09 91.146 482.846 90.334 482.846 89.046V88.682L481.096 88.822C479.934 88.934 479.458 89.382 479.458 90.054C479.458 90.782 479.99 91.146 480.844 91.146ZM487.765 92H486.449V86.26H485.105V85.154H486.449V83.012H487.765V85.154H489.109V86.26H487.765V92ZM493.176 92.168C491.16 92.168 489.774 90.712 489.774 88.584C489.774 86.442 491.132 84.958 493.12 84.958C495.066 84.958 496.34 86.302 496.34 88.332V88.822L491.048 88.836C491.146 90.278 491.902 91.076 493.204 91.076C494.226 91.076 494.898 90.656 495.122 89.872H496.354C496.018 91.342 494.87 92.168 493.176 92.168ZM493.12 86.064C491.972 86.064 491.244 86.75 491.076 87.954H495.024C495.024 86.82 494.282 86.064 493.12 86.064ZM500.553 92.168C498.565 92.168 497.361 90.684 497.361 88.598C497.361 86.498 498.579 84.958 500.609 84.958C501.659 84.958 502.541 85.42 503.003 86.26V81.696H504.305V92H503.129L503.017 90.754C502.569 91.692 501.645 92.168 500.553 92.168ZM500.819 90.978C502.163 90.978 502.989 89.984 502.989 88.556C502.989 87.156 502.163 86.148 500.819 86.148C499.475 86.148 498.691 87.156 498.691 88.556C498.691 89.97 499.475 90.978 500.819 90.978Z" fill="#EAEDD6"/>
<rect x="121" y="135" width="325" height="311" rx="6.20795" fill="#EAEDD6"/>
<path d="M363.714 285.182C363.99 285.182 364.225 285.085 364.419 284.891C364.613 284.697 364.71 284.463 364.71 284.187C364.71 283.912 364.613 283.677 364.419 283.483C364.225 283.289 363.99 283.192 363.714 283.192C363.432 283.192 363.195 283.289 363.005 283.483C362.814 283.677 362.719 283.912 362.719 284.187C362.719 284.463 362.814 284.697 363.005 284.891C363.195 285.085 363.432 285.182 363.714 285.182ZM368.563 285.182C368.838 285.182 369.073 285.085 369.267 284.891C369.461 284.697 369.558 284.463 369.558 284.187C369.558 283.912 369.461 283.677 369.267 283.483C369.073 283.289 368.838 283.192 368.563 283.192C368.287 283.192 368.053 283.289 367.859 283.483C367.665 283.677 367.568 283.912 367.568 284.187C367.568 284.463 367.665 284.697 367.859 284.891C368.053 285.085 368.287 285.182 368.563 285.182ZM373.268 285.182C373.544 285.182 373.778 285.085 373.972 284.891C374.166 284.697 374.263 284.463 374.263 284.187C374.263 283.912 374.166 283.677 373.972 283.483C373.778 283.289 373.544 283.192 373.268 283.192C372.993 283.192 372.758 283.289 372.564 283.483C372.37 283.677 372.273 283.912 372.273 284.187C372.273 284.463 372.37 284.697 372.564 284.891C372.758 285.085 372.993 285.182 373.268 285.182ZM357.812 296.668V277.435C357.812 276.994 357.973 276.613 358.293 276.293C358.613 275.973 358.994 275.812 359.435 275.812H377.565C378.006 275.812 378.387 275.973 378.707 276.293C379.027 276.613 379.187 276.994 379.187 277.435V291.065C379.187 291.506 379.027 291.887 378.707 292.207C378.387 292.527 378.006 292.687 377.565 292.687H361.793L357.812 296.668Z" fill="#16582E"/>
<path d="M233.435 252.937C232.992 252.937 232.611 252.778 232.292 252.458C231.972 252.139 231.812 251.758 231.812 251.315V237.685C231.812 237.242 231.972 236.861 232.292 236.542C232.611 236.222 232.992 236.062 233.435 236.062H251.565C252.008 236.062 252.389 236.222 252.708 236.542C253.028 236.861 253.187 237.242 253.187 237.685V251.315C253.187 251.758 253.028 252.139 252.708 252.458C252.389 252.778 252.008 252.937 251.565 252.937H233.435ZM242.5 244.671L251.911 238.442L251.738 237.339L242.5 243.33L233.262 237.339L233.089 238.442L242.5 244.671Z" fill="#16582E"/>
<path d="M275.435 294.937C274.992 294.937 274.611 294.778 274.292 294.458C273.972 294.139 273.812 293.758 273.812 293.315V279.685C273.812 279.242 273.972 278.861 274.292 278.542C274.611 278.222 274.992 278.062 275.435 278.062H293.565C294.008 278.062 294.389 278.222 294.708 278.542C295.028 278.861 295.187 279.242 295.187 279.685V293.315C295.187 293.758 295.028 294.139 294.708 294.458C294.389 294.778 294.008 294.937 293.565 294.937H275.435ZM284.5 286.671L293.911 280.442L293.738 279.339L284.5 285.33L275.262 279.339L275.089 280.442L284.5 286.671Z" fill="#16582E"/>
<path d="M234.623 335.875C234.18 335.875 233.799 335.715 233.479 335.396C233.16 335.076 233 334.695 233 334.252V320.623C233 320.18 233.16 319.799 233.479 319.479C233.799 319.16 234.18 319 234.623 319H252.752C253.195 319 253.576 319.16 253.896 319.479C254.215 319.799 254.375 320.18 254.375 320.623V334.252C254.375 334.695 254.215 335.076 253.896 335.396C253.576 335.715 253.195 335.875 252.752 335.875H234.623ZM243.687 327.608L253.099 321.38L252.925 320.276L243.687 326.267L234.45 320.276L234.276 321.38L243.687 327.608Z" fill="#16582E"/>
<path d="M258.623 228.141H257.309V227.556H259.244V234H258.623V228.141Z" fill="#192104"/>
<path d="M254.948 274.245C254.948 273.453 255.425 272.823 256.19 272.562C255.542 272.301 255.173 271.77 255.173 271.104C255.173 270.114 256.019 269.439 257.252 269.439C258.476 269.439 259.295 270.114 259.295 271.113C259.295 271.788 258.935 272.319 258.296 272.562C259.043 272.796 259.538 273.444 259.538 274.254C259.538 275.352 258.611 276.108 257.243 276.108C255.875 276.108 254.948 275.352 254.948 274.245ZM255.785 271.122C255.785 271.833 256.361 272.31 257.243 272.31C258.116 272.31 258.683 271.851 258.683 271.14C258.683 270.447 258.116 270.015 257.243 270.015C256.361 270.015 255.785 270.447 255.785 271.122ZM255.587 274.191C255.587 274.992 256.253 275.523 257.252 275.523C258.233 275.523 258.899 274.992 258.899 274.191C258.899 273.399 258.251 272.886 257.234 272.886C256.235 272.886 255.587 273.399 255.587 274.191Z" fill="#192104"/>
<path d="M254.528 360H250.28V359.487L252.341 357.687C253.529 356.652 253.835 356.202 253.835 355.437C253.835 354.564 253.313 354.033 252.458 354.033C251.567 354.033 250.982 354.681 250.955 355.68H250.307C250.343 354.33 251.198 353.439 252.467 353.439C253.682 353.439 254.492 354.222 254.492 355.401C254.492 356.337 254.069 356.958 252.782 358.083L251.279 359.397H254.528V360ZM259.599 360H255.351V359.487L257.412 357.687C258.6 356.652 258.906 356.202 258.906 355.437C258.906 354.564 258.384 354.033 257.529 354.033C256.638 354.033 256.053 354.681 256.026 355.68H255.378C255.414 354.33 256.269 353.439 257.538 353.439C258.753 353.439 259.563 354.222 259.563 355.401C259.563 356.337 259.14 356.958 257.853 358.083L256.35 359.397H259.599V360Z" fill="#192104"/>
<path d="M254.176 402H249.928V401.487L251.989 399.687C253.177 398.652 253.483 398.202 253.483 397.437C253.483 396.564 252.961 396.033 252.106 396.033C251.215 396.033 250.63 396.681 250.603 397.68H249.955C249.991 396.33 250.846 395.439 252.115 395.439C253.33 395.439 254.14 396.222 254.14 397.401C254.14 398.337 253.717 398.958 252.43 400.083L250.927 401.397H254.176V402ZM258.78 399.822L257.169 402H256.413L258.105 399.75C257.808 399.912 257.529 399.966 257.223 399.966C255.882 399.966 254.991 398.985 254.991 397.725C254.991 396.411 255.99 395.439 257.277 395.439C258.573 395.439 259.59 396.438 259.59 397.734C259.59 398.481 259.392 399.003 258.78 399.822ZM258.942 397.725C258.942 396.744 258.258 396.033 257.277 396.033C256.323 396.033 255.639 396.744 255.639 397.725C255.639 398.697 256.323 399.399 257.277 399.399C258.258 399.399 258.942 398.697 258.942 397.725Z" fill="#192104"/>
<path d="M213.546 269.556H217.929V270.15L215.391 276H214.725L217.272 270.15H213.546V269.556Z" fill="#192104"/>
<path d="M210.981 312.141H209.667V311.556H211.602V318H210.981V312.141ZM217.487 316.632H216.731V318H216.101V316.632H212.717V316.056L215.867 311.556H216.731V316.056H217.487V316.632ZM213.419 316.056H216.101V312.222L213.419 316.056Z" fill="#192104"/>
<path d="M214.576 360H210.328V359.487L212.389 357.687C213.577 356.652 213.883 356.202 213.883 355.437C213.883 354.564 213.361 354.033 212.506 354.033C211.615 354.033 211.03 354.681 211.003 355.68H210.355C210.391 354.33 211.246 353.439 212.515 353.439C213.73 353.439 214.54 354.222 214.54 355.401C214.54 356.337 214.117 356.958 212.83 358.083L211.327 359.397H214.576V360ZM216.623 354.141H215.309V353.556H217.244V360H216.623V354.141Z" fill="#192104"/>
<path d="M212.089 402H207.841V401.487L209.902 399.687C211.09 398.652 211.396 398.202 211.396 397.437C211.396 396.564 210.874 396.033 210.019 396.033C209.128 396.033 208.543 396.681 208.516 397.68H207.868C207.904 396.33 208.759 395.439 210.028 395.439C211.243 395.439 212.053 396.222 212.053 397.401C212.053 398.337 211.63 398.958 210.343 400.083L208.84 401.397H212.089V402ZM212.948 400.245C212.948 399.453 213.425 398.823 214.19 398.562C213.542 398.301 213.173 397.77 213.173 397.104C213.173 396.114 214.019 395.439 215.252 395.439C216.476 395.439 217.295 396.114 217.295 397.113C217.295 397.788 216.935 398.319 216.296 398.562C217.043 398.796 217.538 399.444 217.538 400.254C217.538 401.352 216.611 402.108 215.243 402.108C213.875 402.108 212.948 401.352 212.948 400.245ZM213.785 397.122C213.785 397.833 214.361 398.31 215.243 398.31C216.116 398.31 216.683 397.851 216.683 397.14C216.683 396.447 216.116 396.015 215.243 396.015C214.361 396.015 213.785 396.447 213.785 397.122ZM213.587 400.191C213.587 400.992 214.253 401.523 215.252 401.523C216.233 401.523 216.899 400.992 216.899 400.191C216.899 399.399 216.251 398.886 215.234 398.886C214.235 398.886 213.587 399.399 213.587 400.191Z" fill="#192104"/>
<path d="M171.801 271.725L173.412 269.556H174.168L172.476 271.797C172.782 271.644 173.061 271.581 173.358 271.581C174.699 271.581 175.59 272.562 175.59 273.822C175.59 275.145 174.591 276.108 173.304 276.108C172.008 276.108 170.991 275.109 170.991 273.822C170.991 273.075 171.198 272.553 171.801 271.725ZM171.648 273.831C171.648 274.812 172.323 275.523 173.304 275.523C174.258 275.523 174.942 274.812 174.942 273.831C174.942 272.85 174.258 272.148 173.304 272.148C172.323 272.148 171.648 272.85 171.648 273.831Z" fill="#192104"/>
<circle cx="299" cy="273" r="8" fill="#96D300"/>
<path d="M169.508 312.141H168.194V311.556H170.129V318H169.508V312.141ZM173.162 314.544H172.649V314.094L174.638 312.132H171.551V311.556H175.457V312.078L173.531 313.995C174.737 314.058 175.601 314.823 175.601 315.993C175.601 317.271 174.665 318.108 173.36 318.108C172.091 318.108 171.236 317.325 171.236 316.038H171.875C171.875 316.965 172.451 317.523 173.36 317.523C174.323 317.523 174.944 316.911 174.944 315.975C174.944 315.093 174.314 314.544 173.162 314.544Z" fill="#192104"/>
<circle cx="296" cy="399" r="8" fill="#96D300"/>
<path d="M169.456 360H165.208V359.487L167.269 357.687C168.457 356.652 168.763 356.202 168.763 355.437C168.763 354.564 168.241 354.033 167.386 354.033C166.495 354.033 165.91 354.681 165.883 355.68H165.235C165.271 354.33 166.126 353.439 167.395 353.439C168.61 353.439 169.42 354.222 169.42 355.401C169.42 356.337 168.997 356.958 167.71 358.083L166.207 359.397H169.456V360ZM170.351 356.778C170.351 354.78 171.332 353.43 172.934 353.43C174.527 353.43 175.508 354.78 175.508 356.778C175.508 358.785 174.545 360.117 172.934 360.117C171.314 360.117 170.351 358.785 170.351 356.778ZM170.99 356.778C170.99 358.452 171.701 359.532 172.934 359.532C174.167 359.532 174.878 358.452 174.878 356.778C174.878 355.095 174.167 354.024 172.934 354.024C171.701 354.024 170.99 355.095 170.99 356.778Z" fill="#192104"/>
<path d="M171.134 402H166.886V401.487L168.947 399.687C170.135 398.652 170.441 398.202 170.441 397.437C170.441 396.564 169.919 396.033 169.064 396.033C168.173 396.033 167.588 396.681 167.561 397.68H166.913C166.949 396.33 167.804 395.439 169.073 395.439C170.288 395.439 171.098 396.222 171.098 397.401C171.098 398.337 170.675 398.958 169.388 400.083L167.885 401.397H171.134V402ZM171.546 395.556H175.929V396.15L173.391 402H172.725L175.272 396.15H171.546V395.556Z" fill="#192104"/>
<path d="M301.599 234H297.351V233.487L299.412 231.687C300.6 230.652 300.906 230.202 300.906 229.437C300.906 228.564 300.384 228.033 299.529 228.033C298.638 228.033 298.053 228.681 298.026 229.68H297.378C297.414 228.33 298.269 227.439 299.538 227.439C300.753 227.439 301.563 228.222 301.563 229.401C301.563 230.337 301.14 230.958 299.853 232.083L298.35 233.397H301.599V234Z" fill="#192104"/>
<path d="M300.78 273.822L299.169 276H298.413L300.105 273.75C299.808 273.912 299.529 273.966 299.223 273.966C297.882 273.966 296.991 272.985 296.991 271.725C296.991 270.411 297.99 269.439 299.277 269.439C300.573 269.439 301.59 270.438 301.59 271.734C301.59 272.481 301.392 273.003 300.78 273.822ZM300.942 271.725C300.942 270.744 300.258 270.033 299.277 270.033C298.323 270.033 297.639 270.744 297.639 271.725C297.639 272.697 298.323 273.399 299.277 273.399C300.258 273.399 300.942 272.697 300.942 271.725Z" fill="#192104"/>
<path d="M295.2 312.141H293.886V311.556H295.821V318H295.2V312.141ZM297.801 313.725L299.412 311.556H300.168L298.476 313.797C298.782 313.644 299.061 313.581 299.358 313.581C300.699 313.581 301.59 314.562 301.59 315.822C301.59 317.145 300.591 318.108 299.304 318.108C298.008 318.108 296.991 317.109 296.991 315.822C296.991 315.075 297.198 314.553 297.801 313.725ZM297.648 315.831C297.648 316.812 298.323 317.523 299.304 317.523C300.258 317.523 300.942 316.812 300.942 315.831C300.942 314.85 300.258 314.148 299.304 314.148C298.323 314.148 297.648 314.85 297.648 315.831Z" fill="#192104"/>
<path d="M296.466 360H292.218V359.487L294.279 357.687C295.467 356.652 295.773 356.202 295.773 355.437C295.773 354.564 295.251 354.033 294.396 354.033C293.505 354.033 292.92 354.681 292.893 355.68H292.245C292.281 354.33 293.136 353.439 294.405 353.439C295.62 353.439 296.43 354.222 296.43 355.401C296.43 356.337 296.007 356.958 294.72 358.083L293.217 359.397H296.466V360ZM299.162 356.544H298.649V356.094L300.638 354.132H297.551V353.556H301.457V354.078L299.531 355.995C300.737 356.058 301.601 356.823 301.601 357.993C301.601 359.271 300.665 360.108 299.36 360.108C298.091 360.108 297.236 359.325 297.236 358.038H297.875C297.875 358.965 298.451 359.523 299.36 359.523C300.323 359.523 300.944 358.911 300.944 357.975C300.944 357.093 300.314 356.544 299.162 356.544Z" fill="#192104"/>
<path d="M293.018 398.544H292.505V398.094L294.494 396.132H291.407V395.556H295.313V396.078L293.387 397.995C294.593 398.058 295.457 398.823 295.457 399.993C295.457 401.271 294.521 402.108 293.216 402.108C291.947 402.108 291.092 401.325 291.092 400.038H291.731C291.731 400.965 292.307 401.523 293.216 401.523C294.179 401.523 294.8 400.911 294.8 399.975C294.8 399.093 294.17 398.544 293.018 398.544ZM296.351 398.778C296.351 396.78 297.332 395.43 298.934 395.43C300.527 395.43 301.508 396.78 301.508 398.778C301.508 400.785 300.545 402.117 298.934 402.117C297.314 402.117 296.351 400.785 296.351 398.778ZM296.99 398.778C296.99 400.452 297.701 401.532 298.934 401.532C300.167 401.532 300.878 400.452 300.878 398.778C300.878 397.095 300.167 396.024 298.934 396.024C297.701 396.024 296.99 397.095 296.99 398.778Z" fill="#192104"/>
<path d="M341.162 230.544H340.649V230.094L342.638 228.132H339.551V227.556H343.457V228.078L341.531 229.995C342.737 230.058 343.601 230.823 343.601 231.993C343.601 233.271 342.665 234.108 341.36 234.108C340.091 234.108 339.236 233.325 339.236 232.038H339.875C339.875 232.965 340.451 233.523 341.36 233.523C342.323 233.523 342.944 232.911 342.944 231.975C342.944 231.093 342.314 230.544 341.162 230.544Z" fill="#192104"/>
<path d="M336.48 270.141H335.166V269.556H337.101V276H336.48V270.141ZM338.351 272.778C338.351 270.78 339.332 269.43 340.934 269.43C342.527 269.43 343.508 270.78 343.508 272.778C343.508 274.785 342.545 276.117 340.934 276.117C339.314 276.117 338.351 274.785 338.351 272.778ZM338.99 272.778C338.99 274.452 339.701 275.532 340.934 275.532C342.167 275.532 342.878 274.452 342.878 272.778C342.878 271.095 342.167 270.024 340.934 270.024C339.701 270.024 338.99 271.095 338.99 272.778Z" fill="#192104"/>
<path d="M337.868 312.141H336.554V311.556H338.489V318H337.868V312.141ZM339.546 311.556H343.929V312.15L341.391 318H340.725L343.272 312.15H339.546V311.556Z" fill="#192104"/>
<path d="M338.212 360H333.964V359.487L336.025 357.687C337.213 356.652 337.519 356.202 337.519 355.437C337.519 354.564 336.997 354.033 336.142 354.033C335.251 354.033 334.666 354.681 334.639 355.68H333.991C334.027 354.33 334.882 353.439 336.151 353.439C337.366 353.439 338.176 354.222 338.176 355.401C338.176 356.337 337.753 356.958 336.466 358.083L334.963 359.397H338.212V360ZM343.487 358.632H342.731V360H342.101V358.632H338.717V358.056L341.867 353.556H342.731V358.056H343.487V358.632ZM339.419 358.056H342.101V354.222L339.419 358.056Z" fill="#192104"/>
<path d="M338.244 398.544H337.731V398.094L339.72 396.132H336.633V395.556H340.539V396.078L338.613 397.995C339.819 398.058 340.683 398.823 340.683 399.993C340.683 401.271 339.747 402.108 338.442 402.108C337.173 402.108 336.318 401.325 336.318 400.038H336.957C336.957 400.965 337.533 401.523 338.442 401.523C339.405 401.523 340.026 400.911 340.026 399.975C340.026 399.093 339.396 398.544 338.244 398.544ZM342.623 396.141H341.309V395.556H343.244V402H342.623V396.141Z" fill="#192104"/>
<path d="M385.487 232.632H384.731V234H384.101V232.632H380.717V232.056L383.867 227.556H384.731V232.056H385.487V232.632ZM381.419 232.056H384.101V228.222L381.419 232.056Z" fill="#192104"/>
<path d="M381.652 270.141H380.338V269.556H382.273V276H381.652V270.141ZM384.623 270.141H383.309V269.556H385.244V276H384.623V270.141Z" fill="#192104"/>
<path d="M379.13 312.141H377.816V311.556H379.751V318H379.13V312.141ZM380.948 316.245C380.948 315.453 381.425 314.823 382.19 314.562C381.542 314.301 381.173 313.77 381.173 313.104C381.173 312.114 382.019 311.439 383.252 311.439C384.476 311.439 385.295 312.114 385.295 313.113C385.295 313.788 384.935 314.319 384.296 314.562C385.043 314.796 385.538 315.444 385.538 316.254C385.538 317.352 384.611 318.108 383.243 318.108C381.875 318.108 380.948 317.352 380.948 316.245ZM381.785 313.122C381.785 313.833 382.361 314.31 383.243 314.31C384.116 314.31 384.683 313.851 384.683 313.14C384.683 312.447 384.116 312.015 383.243 312.015C382.361 312.015 381.785 312.447 381.785 313.122ZM381.587 316.191C381.587 316.992 382.253 317.523 383.252 317.523C384.233 317.523 384.899 316.992 384.899 316.191C384.899 315.399 384.251 314.886 383.234 314.886C382.235 314.886 381.587 315.399 381.587 316.191Z" fill="#192104"/>
<path d="M380.405 360H376.157V359.487L378.218 357.687C379.406 356.652 379.712 356.202 379.712 355.437C379.712 354.564 379.19 354.033 378.335 354.033C377.444 354.033 376.859 354.681 376.832 355.68H376.184C376.22 354.33 377.075 353.439 378.344 353.439C379.559 353.439 380.369 354.222 380.369 355.401C380.369 356.337 379.946 356.958 378.659 358.083L377.156 359.397H380.405V360ZM383.363 360.108C382.067 360.108 381.239 359.298 381.239 358.029H381.887C381.887 358.956 382.454 359.514 383.372 359.514C384.344 359.514 384.974 358.866 384.974 357.912C384.974 357.012 384.389 356.301 383.372 356.301C382.778 356.301 382.238 356.571 381.887 356.958L381.374 356.796L382.148 353.556H385.262V354.15H382.616L382.13 356.175C382.49 355.887 382.958 355.725 383.462 355.725C384.803 355.725 385.631 356.688 385.631 357.894C385.631 359.19 384.713 360.108 383.363 360.108Z" fill="#192104"/>
<path d="M425.363 234.108C424.067 234.108 423.239 233.298 423.239 232.029H423.887C423.887 232.956 424.454 233.514 425.372 233.514C426.344 233.514 426.974 232.866 426.974 231.912C426.974 231.012 426.389 230.301 425.372 230.301C424.778 230.301 424.238 230.571 423.887 230.958L423.374 230.796L424.148 227.556H427.262V228.15H424.616L424.13 230.175C424.49 229.887 424.958 229.725 425.462 229.725C426.803 229.725 427.631 230.688 427.631 231.894C427.631 233.19 426.713 234.108 425.363 234.108Z" fill="#192104"/>
<path d="M421.569 270.141H420.255V269.556H422.19V276H421.569V270.141ZM427.599 276H423.351V275.487L425.412 273.687C426.6 272.652 426.906 272.202 426.906 271.437C426.906 270.564 426.384 270.033 425.529 270.033C424.638 270.033 424.053 270.681 424.026 271.68H423.378C423.414 270.33 424.269 269.439 425.538 269.439C426.753 269.439 427.563 270.222 427.563 271.401C427.563 272.337 427.14 272.958 425.853 274.083L424.35 275.397H427.599V276Z" fill="#192104"/>
<path d="M421.2 312.141H419.886V311.556H421.821V318H421.2V312.141ZM426.78 315.822L425.169 318H424.413L426.105 315.75C425.808 315.912 425.529 315.966 425.223 315.966C423.882 315.966 422.991 314.985 422.991 313.725C422.991 312.411 423.99 311.439 425.277 311.439C426.573 311.439 427.59 312.438 427.59 313.734C427.59 314.481 427.392 315.003 426.78 315.822ZM426.942 313.725C426.942 312.744 426.258 312.033 425.277 312.033C424.323 312.033 423.639 312.744 423.639 313.725C423.639 314.697 424.323 315.399 425.277 315.399C426.258 315.399 426.942 314.697 426.942 313.725Z" fill="#192104"/>
<path d="M422.176 360H417.928V359.487L419.989 357.687C421.177 356.652 421.483 356.202 421.483 355.437C421.483 354.564 420.961 354.033 420.106 354.033C419.215 354.033 418.63 354.681 418.603 355.68H417.955C417.991 354.33 418.846 353.439 420.115 353.439C421.33 353.439 422.14 354.222 422.14 355.401C422.14 356.337 421.717 356.958 420.43 358.083L418.927 359.397H422.176V360ZM423.801 355.725L425.412 353.556H426.168L424.476 355.797C424.782 355.644 425.061 355.581 425.358 355.581C426.699 355.581 427.59 356.562 427.59 357.822C427.59 359.145 426.591 360.108 425.304 360.108C424.008 360.108 422.991 359.109 422.991 357.822C422.991 357.075 423.198 356.553 423.801 355.725ZM423.648 357.831C423.648 358.812 424.323 359.523 425.304 359.523C426.258 359.523 426.942 358.812 426.942 357.831C426.942 356.85 426.258 356.148 425.304 356.148C424.323 356.148 423.648 356.85 423.648 357.831Z" fill="#192104"/>
<path d="M412.944 191.5L416.596 187.849L417.323 188.576L414.398 191.5L417.323 194.425L416.596 195.151L412.944 191.5ZM423.623 188.576L424.35 187.849L428.001 191.5L424.35 195.151L423.623 194.425L426.547 191.5L423.623 188.576Z" fill="#192104"/>
<path d="M136.252 182.606V180.986H145.846V182.606H141.94V194H140.176V182.606H136.252ZM149.023 193.982H147.331V180.752H149.023V186.548C149.581 185.594 150.643 184.946 152.011 184.946C154.261 184.946 155.341 186.368 155.341 188.618V194H153.649V188.996C153.649 187.214 152.803 186.494 151.543 186.494C149.905 186.494 149.023 187.682 149.023 189.194V193.982ZM158.513 183.11C157.901 183.11 157.397 182.606 157.397 181.994C157.397 181.364 157.901 180.878 158.513 180.878C159.125 180.878 159.629 181.364 159.629 181.994C159.629 182.606 159.125 183.11 158.513 183.11ZM157.685 194V185.198H159.377V194H157.685ZM161.113 191.444H162.733C162.733 192.344 163.417 192.884 164.533 192.884C165.721 192.884 166.405 192.398 166.405 191.588C166.405 190.994 166.117 190.634 165.199 190.4L163.651 190.04C162.085 189.662 161.347 188.888 161.347 187.592C161.347 185.972 162.715 184.946 164.659 184.946C166.585 184.946 167.845 186.026 167.881 187.7H166.261C166.225 186.818 165.631 186.26 164.605 186.26C163.543 186.26 162.949 186.728 162.949 187.538C162.949 188.132 163.381 188.528 164.245 188.744L165.793 189.122C167.287 189.482 168.025 190.166 168.025 191.48C168.025 193.154 166.585 194.216 164.497 194.216C162.427 194.216 161.113 193.118 161.113 191.444ZM176.84 194H175.112V180.986H176.84L181.322 191.93L185.804 180.986H187.568V194H185.84V188.852C185.84 186.422 185.858 185.54 185.948 184.622L182.15 194H180.494L176.714 184.658C176.804 185.288 176.84 186.62 176.84 188.438V194ZM189.734 189.59C189.734 186.872 191.678 184.964 194.324 184.964C196.952 184.964 198.896 186.872 198.896 189.59C198.896 192.308 196.952 194.216 194.324 194.216C191.678 194.216 189.734 192.308 189.734 189.59ZM191.444 189.59C191.444 191.426 192.614 192.704 194.324 192.704C196.016 192.704 197.204 191.426 197.204 189.59C197.204 187.754 196.016 186.476 194.324 186.476C192.614 186.476 191.444 187.754 191.444 189.59ZM202.461 194H200.769V185.198H202.299L202.479 186.548C203.037 185.54 204.153 184.946 205.395 184.946C207.717 184.946 208.779 186.368 208.779 188.618V194H207.087V188.996C207.087 187.214 206.259 186.494 204.963 186.494C203.379 186.494 202.461 187.628 202.461 189.338V194ZM213.606 194H211.914V186.62H210.186V185.198H211.914V182.444H213.606V185.198H215.334V186.62H213.606V194ZM218.545 193.982H216.853V180.752H218.545V186.548C219.103 185.594 220.165 184.946 221.533 184.946C223.783 184.946 224.863 186.368 224.863 188.618V194H223.171V188.996C223.171 187.214 222.325 186.494 221.065 186.494C219.427 186.494 218.545 187.682 218.545 189.194V193.982Z" fill="#192104"/>
<path d="M138.908 169H138.044V160.408H141.248C142.988 160.408 144.044 161.368 144.044 162.892C144.044 164.128 143.396 164.992 142.292 165.292L144.128 169H143.168L141.416 165.436H138.908V169ZM138.908 161.188V164.656H141.272C142.46 164.656 143.156 164.008 143.156 162.916C143.156 161.8 142.424 161.188 141.248 161.188H138.908ZM147.554 169.144C145.85 169.144 144.71 167.92 144.71 166.096C144.71 164.284 145.838 163.036 147.494 163.036C149.066 163.036 150.134 164.152 150.134 165.796V166.204H145.514C145.574 167.62 146.318 168.436 147.566 168.436C148.514 168.436 149.126 168.028 149.342 167.26H150.134C149.822 168.484 148.922 169.144 147.554 169.144ZM147.494 163.744C146.402 163.744 145.682 164.464 145.538 165.604H149.306C149.306 164.488 148.586 163.744 147.494 163.744ZM152.286 169H151.458V163.192H152.178L152.274 164.02C152.562 163.408 153.21 163.036 154.026 163.036C154.938 163.036 155.622 163.516 155.898 164.272C156.162 163.516 156.87 163.036 157.806 163.036C159.066 163.036 159.894 163.852 159.894 165.196V169H159.09V165.364C159.09 164.368 158.538 163.78 157.65 163.78C156.678 163.78 156.102 164.512 156.102 165.412V169H155.286V165.352C155.286 164.368 154.722 163.792 153.846 163.792C152.874 163.792 152.286 164.512 152.286 165.4V169ZM161.967 161.596C161.631 161.596 161.355 161.32 161.355 160.984C161.355 160.648 161.631 160.36 161.967 160.36C162.303 160.36 162.591 160.648 162.591 160.984C162.591 161.32 162.303 161.596 161.967 161.596ZM161.559 169V163.192H162.387V169H161.559ZM164.942 169H164.114V163.192H164.834L164.954 164.2C165.338 163.456 166.106 163.036 166.946 163.036C168.542 163.036 169.202 163.984 169.202 165.448V169H168.374V165.628C168.374 164.272 167.762 163.792 166.802 163.792C165.614 163.792 164.942 164.656 164.942 165.964V169ZM173.132 169.144C171.44 169.144 170.444 167.848 170.444 166.108C170.444 164.356 171.44 163.036 173.168 163.036C174.128 163.036 174.896 163.456 175.304 164.296V160.252H176.132V169H175.412L175.328 167.812C174.92 168.712 174.104 169.144 173.132 169.144ZM173.276 168.388C174.548 168.388 175.292 167.428 175.292 166.084C175.292 164.752 174.548 163.78 173.276 163.78C172.016 163.78 171.284 164.752 171.284 166.084C171.284 167.428 172.016 168.388 173.276 168.388ZM180.296 169.144C178.592 169.144 177.452 167.92 177.452 166.096C177.452 164.284 178.58 163.036 180.236 163.036C181.808 163.036 182.876 164.152 182.876 165.796V166.204H178.256C178.316 167.62 179.06 168.436 180.308 168.436C181.256 168.436 181.868 168.028 182.084 167.26H182.876C182.564 168.484 181.664 169.144 180.296 169.144ZM180.236 163.744C179.144 163.744 178.424 164.464 178.28 165.604H182.048C182.048 164.488 181.328 163.744 180.236 163.744ZM187.236 163.12V163.864H186.78C185.712 163.864 185.028 164.584 185.028 165.688V169H184.2V163.192H184.98L185.04 164.092C185.268 163.468 185.88 163.06 186.696 163.06C186.876 163.06 187.032 163.072 187.236 163.12ZM187.845 167.368H188.637C188.637 168.04 189.141 168.46 189.957 168.46C190.857 168.46 191.385 168.076 191.385 167.452C191.385 166.972 191.145 166.696 190.461 166.528L189.465 166.276C188.457 166.024 187.965 165.496 187.965 164.704C187.965 163.684 188.817 163.036 190.065 163.036C191.289 163.036 192.081 163.708 192.117 164.788H191.313C191.289 164.116 190.821 163.72 190.041 163.72C189.225 163.72 188.769 164.068 188.769 164.692C188.769 165.136 189.081 165.448 189.717 165.604L190.713 165.856C191.721 166.108 192.177 166.576 192.177 167.416C192.177 168.46 191.289 169.144 189.969 169.144C188.661 169.144 187.845 168.448 187.845 167.368Z" fill="#192104"/>
<rect x="136.2" y="222.2" width="294.6" height="209.6" rx="2.8" stroke="#96D300" stroke-width="0.4"/>
<path d="M179 222V432" stroke="#96D300" stroke-width="0.4" stroke-linecap="round"/>
<path d="M221 222V432" stroke="#96D300" stroke-width="0.4" stroke-linecap="round"/>
<path d="M263 222V432" stroke="#96D300" stroke-width="0.4" stroke-linecap="round"/>
<path d="M305 222V432" stroke="#96D300" stroke-width="0.4" stroke-linecap="round"/>
<path d="M347 222V432" stroke="#96D300" stroke-width="0.4" stroke-linecap="round"/>
<path d="M389 222V432" stroke="#96D300" stroke-width="0.4" stroke-linecap="round"/>
<path d="M431 264L137 264" stroke="#96D300" stroke-width="0.4" stroke-linecap="round"/>
<path d="M431 306L137 306" stroke="#96D300" stroke-width="0.4" stroke-linecap="round"/>
<path d="M431 348L137 348" stroke="#96D300" stroke-width="0.4" stroke-linecap="round"/>
<path d="M431 390L137 390" stroke="#96D300" stroke-width="0.4" stroke-linecap="round"/>
<path d="M497.128 251H493.972V242.228H497.044C499.636 242.228 501.424 244.016 501.424 246.632C501.424 249.212 499.672 251 497.128 251ZM496.9 243.644H495.508V249.584H496.984C498.736 249.584 499.804 248.456 499.804 246.632C499.804 244.772 498.712 243.644 496.9 243.644ZM506.659 245.072H508.123V251H506.767L506.659 250.208C506.299 250.772 505.531 251.156 504.739 251.156C503.371 251.156 502.567 250.232 502.567 248.78V245.072H504.031V248.264C504.031 249.392 504.475 249.848 505.291 249.848C506.215 249.848 506.659 249.308 506.659 248.18V245.072ZM512.17 251.156C510.406 251.156 509.17 249.872 509.17 248.036C509.17 246.176 510.382 244.892 512.122 244.892C513.898 244.892 515.026 246.08 515.026 247.928V248.372L510.562 248.384C510.67 249.428 511.222 249.956 512.194 249.956C512.998 249.956 513.526 249.644 513.694 249.08H515.05C514.798 250.376 513.718 251.156 512.17 251.156ZM512.134 246.092C511.27 246.092 510.742 246.56 510.598 247.448H513.574C513.574 246.632 513.01 246.092 512.134 246.092ZM522.804 251H519.648V242.228H522.72C525.312 242.228 527.1 244.016 527.1 246.632C527.1 249.212 525.348 251 522.804 251ZM522.576 243.644H521.184V249.584H522.66C524.412 249.584 525.48 248.456 525.48 246.632C525.48 244.772 524.388 243.644 522.576 243.644ZM530.079 251.156C528.819 251.156 528.051 250.424 528.051 249.308C528.051 248.216 528.843 247.532 530.247 247.424L532.023 247.292V247.16C532.023 246.356 531.543 246.032 530.799 246.032C529.935 246.032 529.455 246.392 529.455 247.016H528.207C528.207 245.732 529.263 244.892 530.871 244.892C532.467 244.892 533.451 245.756 533.451 247.4V251H532.167L532.059 250.124C531.807 250.736 531.003 251.156 530.079 251.156ZM530.559 250.052C531.459 250.052 532.035 249.512 532.035 248.6V248.288L530.799 248.384C529.887 248.468 529.539 248.768 529.539 249.248C529.539 249.788 529.899 250.052 530.559 250.052ZM536.823 251H535.359V246.296H534.219V245.072H535.359V243.224H536.823V245.072H537.975V246.296H536.823V251ZM541.478 251.156C539.714 251.156 538.478 249.872 538.478 248.036C538.478 246.176 539.69 244.892 541.43 244.892C543.206 244.892 544.334 246.08 544.334 247.928V248.372L539.87 248.384C539.978 249.428 540.53 249.956 541.502 249.956C542.306 249.956 542.834 249.644 543.002 249.08H544.358C544.106 250.376 543.026 251.156 541.478 251.156ZM541.442 246.092C540.578 246.092 540.05 246.56 539.906 247.448H542.882C542.882 246.632 542.318 246.092 541.442 246.092Z" fill="#15582E"/>
<path d="M497.44 422.976H495.508V426H493.972V417.228H497.44C499.204 417.228 500.344 418.38 500.344 420.096C500.344 421.788 499.192 422.976 497.44 422.976ZM497.14 418.596H495.508V421.608H497.116C498.172 421.608 498.736 421.044 498.736 420.084C498.736 419.124 498.16 418.596 497.14 418.596ZM502.95 426.156C501.69 426.156 500.922 425.424 500.922 424.308C500.922 423.216 501.714 422.532 503.118 422.424L504.894 422.292V422.16C504.894 421.356 504.414 421.032 503.67 421.032C502.806 421.032 502.326 421.392 502.326 422.016H501.078C501.078 420.732 502.134 419.892 503.742 419.892C505.338 419.892 506.322 420.756 506.322 422.4V426H505.038L504.93 425.124C504.678 425.736 503.874 426.156 502.95 426.156ZM503.43 425.052C504.33 425.052 504.906 424.512 504.906 423.6V423.288L503.67 423.384C502.758 423.468 502.41 423.768 502.41 424.248C502.41 424.788 502.77 425.052 503.43 425.052ZM507.08 428.748V427.524H507.956C508.532 427.524 508.892 427.392 509.144 426.696L509.312 426.252L506.924 420.072H508.472L509.996 424.392L511.604 420.072H513.116L510.212 427.32C509.768 428.424 509.144 428.88 508.172 428.88C507.764 428.88 507.404 428.832 507.08 428.748ZM515.411 426H513.947V420.072H515.291L515.411 420.768C515.711 420.276 516.311 419.892 517.163 419.892C518.063 419.892 518.687 420.336 518.999 421.02C519.299 420.336 519.995 419.892 520.895 419.892C522.335 419.892 523.127 420.756 523.127 422.124V426H521.675V422.508C521.675 421.656 521.219 421.212 520.523 421.212C519.815 421.212 519.275 421.668 519.275 422.64V426H517.811V422.496C517.811 421.668 517.367 421.224 516.671 421.224C515.975 421.224 515.411 421.68 515.411 422.64V426ZM527.217 426.156C525.453 426.156 524.217 424.872 524.217 423.036C524.217 421.176 525.429 419.892 527.169 419.892C528.945 419.892 530.073 421.08 530.073 422.928V423.372L525.609 423.384C525.717 424.428 526.269 424.956 527.241 424.956C528.045 424.956 528.573 424.644 528.741 424.08H530.097C529.845 425.376 528.765 426.156 527.217 426.156ZM527.181 421.092C526.317 421.092 525.789 421.56 525.645 422.448H528.621C528.621 421.632 528.057 421.092 527.181 421.092ZM532.708 426H531.244V420.072H532.6L532.72 420.84C533.092 420.24 533.812 419.892 534.616 419.892C536.104 419.892 536.872 420.816 536.872 422.352V426H535.408V422.7C535.408 421.704 534.916 421.224 534.16 421.224C533.26 421.224 532.708 421.848 532.708 422.808V426ZM540.327 426H538.863V421.296H537.723V420.072H538.863V418.224H540.327V420.072H541.479V421.296H540.327V426ZM548.995 426H545.839V417.228H548.911C551.503 417.228 553.291 419.016 553.291 421.632C553.291 424.212 551.539 426 548.995 426ZM548.767 418.644H547.375V424.584H548.851C550.603 424.584 551.671 423.456 551.671 421.632C551.671 419.772 550.579 418.644 548.767 418.644ZM556.27 426.156C555.01 426.156 554.242 425.424 554.242 424.308C554.242 423.216 555.034 422.532 556.438 422.424L558.214 422.292V422.16C558.214 421.356 557.734 421.032 556.99 421.032C556.126 421.032 555.646 421.392 555.646 422.016H554.398C554.398 420.732 555.454 419.892 557.062 419.892C558.658 419.892 559.642 420.756 559.642 422.4V426H558.358L558.25 425.124C557.998 425.736 557.194 426.156 556.27 426.156ZM556.75 425.052C557.65 425.052 558.226 424.512 558.226 423.6V423.288L556.99 423.384C556.078 423.468 555.73 423.768 555.73 424.248C555.73 424.788 556.09 425.052 556.75 425.052ZM563.014 426H561.55V421.296H560.41V420.072H561.55V418.224H563.014V420.072H564.166V421.296H563.014V426ZM567.67 426.156C565.906 426.156 564.67 424.872 564.67 423.036C564.67 421.176 565.882 419.892 567.622 419.892C569.398 419.892 570.526 421.08 570.526 422.928V423.372L566.062 423.384C566.17 424.428 566.722 424.956 567.694 424.956C568.498 424.956 569.026 424.644 569.194 424.08H570.55C570.298 425.376 569.218 426.156 567.67 426.156ZM567.634 421.092C566.77 421.092 566.242 421.56 566.098 422.448H569.074C569.074 421.632 568.51 421.092 567.634 421.092ZM495.796 442L493.18 433.228H494.776L496.168 437.86C496.3 438.34 496.432 438.832 496.564 439.6C496.708 438.82 496.84 438.364 496.996 437.86L498.376 433.228H500.068L501.424 437.86C501.568 438.352 501.7 438.856 501.844 439.6C502.012 438.784 502.132 438.316 502.264 437.872L503.68 433.228H505.24L502.576 442H501.088L499.216 435.616L497.308 442H495.796ZM506.91 434.884C506.406 434.884 506.01 434.488 506.01 433.996C506.01 433.504 506.406 433.12 506.91 433.12C507.39 433.12 507.786 433.504 507.786 433.996C507.786 434.488 507.39 434.884 506.91 434.884ZM506.178 442V436.072H507.642V442H506.178ZM511.17 442H509.706V437.296H508.566V436.072H509.706V434.224H511.17V436.072H512.322V437.296H511.17V442ZM514.697 442H513.233V433.072H514.709V436.84C515.081 436.264 515.777 435.892 516.629 435.892C518.093 435.892 518.861 436.816 518.861 438.352V442H517.397V438.7C517.397 437.704 516.905 437.224 516.161 437.224C515.237 437.224 514.697 437.872 514.697 438.76V442ZM519.951 439.024C519.951 437.176 521.283 435.904 523.119 435.904C524.955 435.904 526.287 437.176 526.287 439.024C526.287 440.872 524.955 442.144 523.119 442.144C521.283 442.144 519.951 440.872 519.951 439.024ZM521.415 439.024C521.415 440.104 522.111 440.836 523.119 440.836C524.127 440.836 524.823 440.104 524.823 439.024C524.823 437.944 524.127 437.212 523.119 437.212C522.111 437.212 521.415 437.944 521.415 439.024ZM531.327 436.072H532.791V442H531.435L531.327 441.208C530.967 441.772 530.199 442.156 529.407 442.156C528.039 442.156 527.235 441.232 527.235 439.78V436.072H528.699V439.264C528.699 440.392 529.143 440.848 529.959 440.848C530.883 440.848 531.327 440.308 531.327 439.18V436.072ZM536.319 442H534.855V437.296H533.715V436.072H534.855V434.224H536.319V436.072H537.471V437.296H536.319V442ZM546.631 438.412H543.367V442H541.831V433.228H547.255V434.644H543.367V437.032H546.631V438.412ZM549.156 434.884C548.652 434.884 548.256 434.488 548.256 433.996C548.256 433.504 548.652 433.12 549.156 433.12C549.636 433.12 550.032 433.504 550.032 433.996C550.032 434.488 549.636 434.884 549.156 434.884ZM548.424 442V436.072H549.888V442H548.424ZM552.865 442H551.401V436.072H552.757L552.877 436.84C553.249 436.24 553.969 435.892 554.773 435.892C556.261 435.892 557.029 436.816 557.029 438.352V442H555.565V438.7C555.565 437.704 555.073 437.224 554.317 437.224C553.417 437.224 552.865 437.848 552.865 438.808V442ZM563.483 438.412H560.219V442H558.683V433.228H564.107V434.644H560.219V437.032H563.483V438.412ZM566.752 442H565.3V433.072H566.752V442ZM567.939 439.024C567.939 437.176 569.271 435.904 571.107 435.904C572.943 435.904 574.275 437.176 574.275 439.024C574.275 440.872 572.943 442.144 571.107 442.144C569.271 442.144 567.939 440.872 567.939 439.024ZM569.403 439.024C569.403 440.104 570.099 440.836 571.107 440.836C572.115 440.836 572.811 440.104 572.811 439.024C572.811 437.944 572.115 437.212 571.107 437.212C570.099 437.212 569.403 437.944 569.403 439.024ZM576.9 442H575.436V433.072H576.912V436.84C577.284 436.264 577.98 435.892 578.832 435.892C580.296 435.892 581.064 436.816 581.064 438.352V442H579.6V438.7C579.6 437.704 579.108 437.224 578.364 437.224C577.44 437.224 576.9 437.872 576.9 438.76V442Z" fill="#15582E"/>
<path d="M300.5 405L317.121 421.621C317.684 422.184 318.447 422.5 319.243 422.5H484.5" stroke="#00954A" stroke-width="2" stroke-linecap="round" stroke-dasharray="7 7"/>
<path d="M304 267.5L322.621 248.879C323.184 248.316 323.947 248 324.743 248H485.5" stroke="#00954A" stroke-width="2" stroke-linecap="round" stroke-dasharray="7 7"/>
<rect x="47.5" y="466" width="279" height="52" rx="3" fill="#EAEDD6"/>
<circle cx="72.5" cy="492" r="15" fill="#00954A"/>
<path d="M73 498.172L79.6719 491.5L78.9719 490.8L73.5031 496.269V484.828H72.4969V496.269L67.0281 490.8L66.3281 491.5L73 498.172Z" fill="#EAEDD6"/>
<path d="M101.668 498H97.844V486.432H101.604C105.06 486.432 107.396 488.768 107.396 492.224C107.396 495.664 105.092 498 101.668 498ZM101.492 487.872H99.412V496.544H101.556C104.132 496.544 105.764 494.88 105.764 492.224C105.764 489.536 104.132 487.872 101.492 487.872ZM108.719 489.552C108.719 487.568 110.319 486.224 112.703 486.224C114.911 486.224 116.335 487.456 116.463 489.456H114.879C114.799 488.304 113.983 487.632 112.687 487.632C111.231 487.632 110.287 488.368 110.287 489.504C110.287 490.432 110.815 490.992 111.903 491.248L113.807 491.696C115.695 492.128 116.655 493.152 116.655 494.784C116.655 496.864 115.039 498.192 112.575 498.192C110.223 498.192 108.655 496.96 108.559 494.976H110.159C110.191 496.08 111.119 496.784 112.575 496.784C114.111 496.784 115.087 496.064 115.087 494.912C115.087 494 114.591 493.424 113.487 493.168L111.583 492.736C109.695 492.304 108.719 491.216 108.719 489.552ZM129.057 492.208C129.057 495.728 126.753 498.192 123.473 498.192C120.209 498.192 117.937 495.728 117.937 492.208C117.937 488.704 120.225 486.224 123.489 486.224C126.769 486.224 129.057 488.688 129.057 492.208ZM127.409 492.208C127.409 489.52 125.841 487.744 123.489 487.744C121.137 487.744 119.585 489.52 119.585 492.208C119.585 494.896 121.137 496.688 123.489 496.688C125.841 496.688 127.409 494.88 127.409 492.208Z" fill="#14572E"/>
<circle cx="175.5" cy="492" r="15" fill="#00954A"/>
<path d="M176 484.828L182.672 491.5L181.972 492.2L176.503 486.731V498.172H175.497V486.731L170.028 492.2L169.328 491.5L176 484.828Z" fill="#EAEDD6"/>
<path d="M203.18 498L199.74 486.432H201.372L203.484 493.504C203.644 494.112 203.804 494.72 203.964 495.6C204.156 494.672 204.332 494.112 204.508 493.504L206.7 486.432H208.396L210.572 493.504C210.764 494.128 210.924 494.736 211.1 495.6C211.292 494.624 211.452 494.032 211.612 493.52L213.74 486.432H215.34L211.852 498H210.348L207.548 488.848L204.716 498H203.18ZM215.139 494.08C215.139 491.664 216.867 489.968 219.219 489.968C221.555 489.968 223.283 491.664 223.283 494.08C223.283 496.496 221.555 498.192 219.219 498.192C216.867 498.192 215.139 496.496 215.139 494.08ZM216.659 494.08C216.659 495.712 217.699 496.848 219.219 496.848C220.723 496.848 221.779 495.712 221.779 494.08C221.779 492.448 220.723 491.312 219.219 491.312C217.699 491.312 216.659 492.448 216.659 494.08ZM229.427 490.112V491.488H228.755C227.331 491.488 226.451 492.352 226.451 493.856V498H224.947V490.192H226.355L226.451 491.376C226.771 490.56 227.555 490.016 228.627 490.016C228.899 490.016 229.123 490.048 229.427 490.112ZM232.374 498H230.87V486.224H232.374V493.856L235.846 490.176H237.734L234.742 493.296L237.718 498H235.99L233.702 494.384L232.374 495.776V498ZM239.699 488.32C239.155 488.32 238.707 487.872 238.707 487.328C238.707 486.768 239.155 486.336 239.699 486.336C240.243 486.336 240.691 486.768 240.691 487.328C240.691 487.872 240.243 488.32 239.699 488.32ZM238.963 498V490.176H240.467V498H238.963ZM244.155 498H242.651V490.176H244.011L244.171 491.376C244.667 490.48 245.659 489.952 246.763 489.952C248.827 489.952 249.771 491.216 249.771 493.216V498H248.267V493.552C248.267 491.968 247.531 491.328 246.379 491.328C244.971 491.328 244.155 492.336 244.155 493.856V498ZM251.358 493.888C251.358 491.68 252.782 489.952 255.054 489.952C256.318 489.952 257.294 490.528 257.79 491.504L257.902 490.176H259.246V497.68C259.246 500.144 257.726 501.712 255.326 501.712C253.198 501.712 251.742 500.512 251.454 498.528H252.958C253.15 499.68 254.014 500.352 255.326 500.352C256.798 500.352 257.758 499.392 257.758 497.904V496.336C257.246 497.248 256.222 497.792 254.99 497.792C252.766 497.792 251.358 496.08 251.358 493.888ZM252.862 493.856C252.862 495.328 253.774 496.48 255.246 496.48C256.766 496.48 257.694 495.392 257.694 493.856C257.694 492.352 256.798 491.264 255.262 491.264C253.758 491.264 252.862 492.416 252.862 493.856ZM270.847 498.176C267.551 498.176 265.359 495.808 265.359 492.224C265.359 488.656 267.615 486.24 270.927 486.24C273.535 486.24 275.535 487.792 275.967 490.16H274.287C273.855 488.656 272.559 487.744 270.879 487.744C268.543 487.744 267.007 489.504 267.007 492.208C267.007 494.912 268.543 496.672 270.879 496.672C272.575 496.672 273.919 495.76 274.351 494.336H276.015C275.519 496.64 273.455 498.176 270.847 498.176ZM279.814 498.192C278.134 498.192 277.142 497.248 277.142 495.824C277.142 494.384 278.214 493.488 280.054 493.344L282.518 493.152V492.928C282.518 491.616 281.734 491.152 280.678 491.152C279.414 491.152 278.694 491.712 278.694 492.656H277.382C277.382 491.024 278.726 489.952 280.742 489.952C282.678 489.952 283.99 490.976 283.99 493.088V498H282.71L282.55 496.736C282.15 497.632 281.078 498.192 279.814 498.192ZM280.246 497.024C281.67 497.024 282.534 496.096 282.534 494.624V494.208L280.534 494.368C279.206 494.496 278.662 495.008 278.662 495.776C278.662 496.608 279.27 497.024 280.246 497.024ZM286.072 501.504V490.176H287.432L287.544 491.584C288.072 490.512 289.128 489.952 290.376 489.952C292.616 489.952 294.008 491.632 294.008 494.032C294.008 496.416 292.696 498.208 290.376 498.208C289.128 498.208 288.088 497.68 287.576 496.72V501.504H286.072ZM287.592 494.096C287.592 495.696 288.52 496.848 290.056 496.848C291.592 496.848 292.504 495.696 292.504 494.096C292.504 492.48 291.592 491.328 290.056 491.328C288.52 491.328 287.592 492.464 287.592 494.096ZM296.402 488.32C295.858 488.32 295.41 487.872 295.41 487.328C295.41 486.768 295.858 486.336 296.402 486.336C296.946 486.336 297.394 486.768 297.394 487.328C297.394 487.872 296.946 488.32 296.402 488.32ZM295.666 498V490.176H297.17V498H295.666ZM301.562 498H300.058V491.44H298.522V490.176H300.058V487.728H301.562V490.176H303.098V491.44H301.562V498ZM306.642 498.192C304.962 498.192 303.97 497.248 303.97 495.824C303.97 494.384 305.042 493.488 306.882 493.344L309.346 493.152V492.928C309.346 491.616 308.562 491.152 307.506 491.152C306.242 491.152 305.522 491.712 305.522 492.656H304.21C304.21 491.024 305.554 489.952 307.57 489.952C309.506 489.952 310.818 490.976 310.818 493.088V498H309.538L309.378 496.736C308.978 497.632 307.906 498.192 306.642 498.192ZM307.074 497.024C308.498 497.024 309.362 496.096 309.362 494.624V494.208L307.362 494.368C306.034 494.496 305.49 495.008 305.49 495.776C305.49 496.608 306.098 497.024 307.074 497.024ZM314.437 498H312.933V486.224H314.437V498Z" fill="#14572E"/>
<circle cx="256" cy="315" r="8" fill="#96D300"/>
<path d="M253.394 312.141H252.08V311.556H254.015V318H253.394V312.141ZM257.363 318.108C256.067 318.108 255.239 317.298 255.239 316.029H255.887C255.887 316.956 256.454 317.514 257.372 317.514C258.344 317.514 258.974 316.866 258.974 315.912C258.974 315.012 258.389 314.301 257.372 314.301C256.778 314.301 256.238 314.571 255.887 314.958L255.374 314.796L256.148 311.556H259.262V312.15H256.616L256.13 314.175C256.49 313.887 256.958 313.725 257.462 313.725C258.803 313.725 259.631 314.688 259.631 315.894C259.631 317.19 258.713 318.108 257.363 318.108Z" fill="#192104"/>
<path d="M4.49859 341.976H2.56659V345H1.03059V336.228H4.49859C6.26259 336.228 7.40259 337.38 7.40259 339.096C7.40259 340.788 6.25059 341.976 4.49859 341.976ZM4.19859 337.596H2.56659V340.608H4.17459C5.23059 340.608 5.79459 340.044 5.79459 339.084C5.79459 338.124 5.21859 337.596 4.19859 337.596ZM10.0083 345.156C8.74828 345.156 7.98028 344.424 7.98028 343.308C7.98028 342.216 8.77228 341.532 10.1763 341.424L11.9523 341.292V341.16C11.9523 340.356 11.4723 340.032 10.7283 340.032C9.86428 340.032 9.38428 340.392 9.38428 341.016H8.13628C8.13628 339.732 9.19228 338.892 10.8003 338.892C12.3963 338.892 13.3803 339.756 13.3803 341.4V345H12.0963L11.9883 344.124C11.7363 344.736 10.9323 345.156 10.0083 345.156ZM10.4883 344.052C11.3883 344.052 11.9643 343.512 11.9643 342.6V342.288L10.7283 342.384C9.81628 342.468 9.46828 342.768 9.46828 343.248C9.46828 343.788 9.82828 344.052 10.4883 344.052ZM14.1384 347.748V346.524H15.0144C15.5904 346.524 15.9504 346.392 16.2024 345.696L16.3704 345.252L13.9824 339.072H15.5304L17.0544 343.392L18.6624 339.072H20.1744L17.2704 346.32C16.8264 347.424 16.2024 347.88 15.2304 347.88C14.8224 347.88 14.4624 347.832 14.1384 347.748ZM22.47 345H21.006V339.072H22.35L22.47 339.768C22.77 339.276 23.37 338.892 24.222 338.892C25.122 338.892 25.746 339.336 26.058 340.02C26.358 339.336 27.054 338.892 27.954 338.892C29.394 338.892 30.186 339.756 30.186 341.124V345H28.734V341.508C28.734 340.656 28.278 340.212 27.582 340.212C26.874 340.212 26.334 340.668 26.334 341.64V345H24.87V341.496C24.87 340.668 24.426 340.224 23.73 340.224C23.034 340.224 22.47 340.68 22.47 341.64V345ZM34.2752 345.156C32.5112 345.156 31.2752 343.872 31.2752 342.036C31.2752 340.176 32.4872 338.892 34.2272 338.892C36.0032 338.892 37.1312 340.08 37.1312 341.928V342.372L32.6672 342.384C32.7752 343.428 33.3272 343.956 34.2992 343.956C35.1032 343.956 35.6312 343.644 35.7992 343.08H37.1552C36.9032 344.376 35.8232 345.156 34.2752 345.156ZM34.2392 340.092C33.3752 340.092 32.8472 340.56 32.7032 341.448H35.6792C35.6792 340.632 35.1152 340.092 34.2392 340.092ZM39.7669 345H38.3029V339.072H39.6589L39.7789 339.84C40.1509 339.24 40.8709 338.892 41.6749 338.892C43.1629 338.892 43.9309 339.816 43.9309 341.352V345H42.4669V341.7C42.4669 340.704 41.9749 340.224 41.2189 340.224C40.3189 340.224 39.7669 340.848 39.7669 341.808V345ZM47.3853 345H45.9213V340.296H44.7813V339.072H45.9213V337.224H47.3853V339.072H48.5373V340.296H47.3853V345ZM56.0538 345H52.8978V336.228H55.9698C58.5618 336.228 60.3498 338.016 60.3498 340.632C60.3498 343.212 58.5978 345 56.0538 345ZM55.8258 337.644H54.4338V343.584H55.9098C57.6618 343.584 58.7298 342.456 58.7298 340.632C58.7298 338.772 57.6378 337.644 55.8258 337.644ZM63.3286 345.156C62.0686 345.156 61.3006 344.424 61.3006 343.308C61.3006 342.216 62.0926 341.532 63.4966 341.424L65.2726 341.292V341.16C65.2726 340.356 64.7926 340.032 64.0486 340.032C63.1846 340.032 62.7046 340.392 62.7046 341.016H61.4566C61.4566 339.732 62.5126 338.892 64.1206 338.892C65.7166 338.892 66.7006 339.756 66.7006 341.4V345H65.4166L65.3086 344.124C65.0566 344.736 64.2526 345.156 63.3286 345.156ZM63.8086 344.052C64.7086 344.052 65.2846 343.512 65.2846 342.6V342.288L64.0486 342.384C63.1366 342.468 62.7886 342.768 62.7886 343.248C62.7886 343.788 63.1486 344.052 63.8086 344.052ZM70.0728 345H68.6088V340.296H67.4688V339.072H68.6088V337.224H70.0728V339.072H71.2248V340.296H70.0728V345ZM74.7283 345.156C72.9643 345.156 71.7283 343.872 71.7283 342.036C71.7283 340.176 72.9403 338.892 74.6803 338.892C76.4563 338.892 77.5843 340.08 77.5843 341.928V342.372L73.1203 342.384C73.2283 343.428 73.7803 343.956 74.7523 343.956C75.5563 343.956 76.0843 343.644 76.2523 343.08H77.6083C77.3563 344.376 76.2763 345.156 74.7283 345.156ZM74.6923 340.092C73.8283 340.092 73.3003 340.56 73.1563 341.448H76.1323C76.1323 340.632 75.5683 340.092 74.6923 340.092ZM10.1319 361L7.51594 352.228H9.11194L10.5039 356.86C10.6359 357.34 10.7679 357.832 10.8999 358.6C11.0439 357.82 11.1759 357.364 11.3319 356.86L12.7119 352.228H14.4039L15.7599 356.86C15.9039 357.352 16.0359 357.856 16.1799 358.6C16.3479 357.784 16.4679 357.316 16.5999 356.872L18.0159 352.228H19.5759L16.9119 361H15.4239L13.5519 354.616L11.6439 361H10.1319ZM21.2458 353.884C20.7418 353.884 20.3458 353.488 20.3458 352.996C20.3458 352.504 20.7418 352.12 21.2458 352.12C21.7258 352.12 22.1218 352.504 22.1218 352.996C22.1218 353.488 21.7258 353.884 21.2458 353.884ZM20.5138 361V355.072H21.9778V361H20.5138ZM25.5064 361H24.0424V356.296H22.9024V355.072H24.0424V353.224H25.5064V355.072H26.6584V356.296H25.5064V361ZM29.0325 361H27.5685V352.072H29.0445V355.84C29.4165 355.264 30.1125 354.892 30.9645 354.892C32.4285 354.892 33.1965 355.816 33.1965 357.352V361H31.7325V357.7C31.7325 356.704 31.2405 356.224 30.4965 356.224C29.5725 356.224 29.0325 356.872 29.0325 357.76V361ZM42.8853 357.412H39.6213V361H38.0853V352.228H43.5093V353.644H39.6213V356.032H42.8853V357.412ZM45.4099 353.884C44.9059 353.884 44.5099 353.488 44.5099 352.996C44.5099 352.504 44.9059 352.12 45.4099 352.12C45.8899 352.12 46.2859 352.504 46.2859 352.996C46.2859 353.488 45.8899 353.884 45.4099 353.884ZM44.6779 361V355.072H46.1419V361H44.6779ZM49.1184 361H47.6544V355.072H49.0104L49.1304 355.84C49.5024 355.24 50.2224 354.892 51.0264 354.892C52.5144 354.892 53.2824 355.816 53.2824 357.352V361H51.8184V357.7C51.8184 356.704 51.3264 356.224 50.5704 356.224C49.6704 356.224 49.1184 356.848 49.1184 357.808V361ZM59.7368 357.412H56.4728V361H54.9368V352.228H60.3608V353.644H56.4728V356.032H59.7368V357.412ZM63.0054 361H61.5534V352.072H63.0054V361ZM64.1932 358.024C64.1932 356.176 65.5252 354.904 67.3612 354.904C69.1972 354.904 70.5292 356.176 70.5292 358.024C70.5292 359.872 69.1972 361.144 67.3612 361.144C65.5252 361.144 64.1932 359.872 64.1932 358.024ZM65.6572 358.024C65.6572 359.104 66.3532 359.836 67.3612 359.836C68.3692 359.836 69.0652 359.104 69.0652 358.024C69.0652 356.944 68.3692 356.212 67.3612 356.212C66.3532 356.212 65.6572 356.944 65.6572 358.024ZM73.1536 361H71.6896V352.072H73.1656V355.84C73.5376 355.264 74.2336 354.892 75.0856 354.892C76.5496 354.892 77.3176 355.816 77.3176 357.352V361H75.8536V357.7C75.8536 356.704 75.3616 356.224 74.6176 356.224C73.6936 356.224 73.1536 356.872 73.1536 357.76V361Z" fill="#15582E"/>
<path d="M252 321.5L232.379 341.121C231.816 341.684 231.053 342 230.257 342H85.5" stroke="#00954A" stroke-width="2" stroke-linecap="round"/>
<path d="M209.175 283.756C209.006 282.406 208.5 281.112 207.769 279.931C206.138 277.456 203.831 275.994 200.906 275.544C200.456 275.487 199.95 275.431 199.5 275.431C198.938 275.431 198.431 275.487 197.869 275.544C196.744 275.712 195.619 276.106 194.663 276.669C192.694 277.794 191.231 279.481 190.388 281.619C190.05 282.519 189.825 283.475 189.713 284.487C189.656 285.387 189.713 286.287 189.938 287.244C190.106 287.919 190.331 288.65 190.669 289.437C190.725 289.55 190.781 289.662 190.781 289.887C190.613 290.787 190.388 291.687 190.219 292.587L189.713 294.894C189.713 295.006 189.713 295.062 189.713 295.062C189.713 295.062 189.769 295.062 189.881 295.062C191.513 294.669 193.088 294.331 194.719 293.937C194.888 293.881 195.113 293.881 195.281 293.994C196.631 294.612 198.038 294.95 199.556 294.95C199.669 294.95 199.894 294.95 200.063 294.95C200.175 294.95 200.288 294.95 200.456 294.95C200.513 294.95 200.513 294.95 200.569 294.95C200.625 294.95 200.625 294.95 200.681 294.95C202.425 294.781 204 294.162 205.294 293.15C208.388 290.675 209.681 287.525 209.175 283.756ZM205.575 290.619C204.394 291.912 202.931 292.756 201.188 293.094C200.625 293.206 200.006 293.262 199.444 293.262C198.094 293.262 196.8 292.925 195.563 292.25C195.338 292.137 195.113 292.081 194.888 292.137C194.325 292.306 193.763 292.419 193.2 292.531L192.581 292.644C192.469 292.7 192.188 292.756 192.075 292.587C191.906 292.419 191.963 292.194 191.963 292.081L192.075 291.631C192.244 290.9 192.356 290.169 192.525 289.437C192.525 289.381 192.525 289.381 192.469 289.269C192.131 288.594 191.738 287.806 191.513 286.906C191.288 285.894 191.231 284.937 191.4 283.981C191.681 281.844 192.75 280.044 194.494 278.694C195.563 277.85 196.856 277.287 198.263 277.062C198.656 277.062 199.05 277.062 199.444 277.062H199.5C203.269 277.062 206.531 279.594 207.431 283.194C208.106 285.95 207.488 288.425 205.575 290.619Z" fill="#16582E"/>
<path fill-rule="evenodd" clip-rule="evenodd" d="M190.92 292.11L191.408 289.911C191.468 289.64 191.471 289.359 191.417 289.087L190.674 285.374C190.56 284.804 190.615 284.212 190.831 283.672L192.154 280.365C192.379 279.802 192.77 279.32 193.275 278.983L194.964 277.857C195.317 277.622 195.716 277.464 196.135 277.394L200.41 276.681C201.113 276.564 201.835 276.701 202.447 277.068L205.75 279.05C206.24 279.344 206.635 279.771 206.89 280.281L207.683 281.866C207.891 282.283 208 282.742 208 283.208V286.884C208 287.29 207.917 287.692 207.757 288.066L206.83 290.228C206.614 290.733 206.263 291.169 205.817 291.488L203.782 292.941C203.273 293.304 202.663 293.5 202.038 293.5H199.5H195.748C195.583 293.5 195.418 293.486 195.255 293.459L192.795 293.049C192.603 293.017 192.406 293.047 192.232 293.134C191.537 293.481 190.751 292.867 190.92 292.11ZM204.563 288.312L204.563 288.312C204.624 288.22 204.652 288.145 204.673 288.087C204.692 288.038 204.706 288 204.731 287.974C204.675 287.862 204.563 287.749 204.394 287.693L203.213 287.356L202.931 287.243C202.559 287.157 202.376 287.115 202.219 287.161C202.069 287.206 201.942 287.332 201.694 287.581C201.131 288.087 200.738 288.143 200.119 287.749C199.5 287.412 198.938 286.962 198.263 286.343C197.813 285.949 197.363 285.499 197.025 284.993C196.688 284.599 196.688 284.206 197.025 283.756C197.081 283.671 197.138 283.601 197.194 283.531C197.25 283.46 197.306 283.39 197.363 283.306C197.475 283.137 197.531 282.968 197.419 282.743C197.334 282.546 197.25 282.364 197.166 282.181C197.081 281.998 196.997 281.815 196.913 281.618L196.631 280.999C196.575 280.831 196.406 280.718 196.294 280.662H196.238C196.125 280.662 196.013 280.718 195.9 280.831C195.785 280.908 195.696 281.011 195.615 281.104C195.578 281.148 195.542 281.189 195.506 281.224L195.394 281.337C194.831 281.899 194.606 282.631 194.775 283.474C194.888 284.149 195.113 284.768 195.506 285.331C196.406 286.793 197.7 288.031 199.331 288.987C200.231 289.549 201.131 289.831 202.088 289.831C202.875 289.774 203.381 289.662 203.775 289.268C204.113 288.987 204.338 288.649 204.563 288.312Z" fill="#16582E"/>
</svg>
