<svg width="40" height="40" viewBox="0 0 40 40" fill="none" xmlns="http://www.w3.org/2000/svg">
<path id="arrow_circle_up" d="M22 12H18V20.4L14.8 17.2L12 20L20 28L28 20L25.2 17.2L22 20.4V12ZM20 0C22.7667 0 25.3667 0.525002 27.8 1.575C30.2333 2.625 32.35 4.05 34.15 5.85C35.95 7.65 37.375 9.76666 38.425 12.2C39.475 14.6333 40 17.2333 40 20C40 22.7667 39.475 25.3667 38.425 27.8C37.375 30.2333 35.95 32.35 34.15 34.15C32.35 35.95 30.2333 37.375 27.8 38.425C25.3667 39.475 22.7667 40 20 40C17.2333 40 14.6333 39.475 12.2 38.425C9.76666 37.375 7.65 35.95 5.85 34.15C4.05 32.35 2.625 30.2333 1.575 27.8C0.525002 25.3667 0 22.7667 0 20C0 17.2333 0.525002 14.6333 1.575 12.2C2.625 9.76666 4.05 7.65 5.85 5.85C7.65 4.05 9.76666 2.625 12.2 1.575C14.6333 0.525002 17.2333 0 20 0Z" fill="#00954A"/>
</svg>
