<svg width="585" height="403" viewBox="0 0 585 403" fill="none" xmlns="http://www.w3.org/2000/svg">
<rect x="321" y="28" width="245" height="71" rx="3" fill="#00954A"/>
<rect x="340" y="144" width="245" height="71" rx="3" fill="#00954A"/>
<rect x="469" y="18" width="78" height="21" rx="10.5" fill="#16582E"/>
<path d="M486.746 33H485.594V24.324H486.746L489.734 31.62L492.722 24.324H493.898V33H492.746V29.568C492.746 27.948 492.758 27.36 492.818 26.748L490.286 33H489.182L486.662 26.772C486.722 27.192 486.746 28.08 486.746 29.292V33ZM497.442 33.144C496.182 33.144 495.438 32.436 495.438 31.368C495.438 30.288 496.242 29.616 497.622 29.508L499.47 29.364V29.196C499.47 28.212 498.882 27.864 498.09 27.864C497.142 27.864 496.602 28.284 496.602 28.992H495.618C495.618 27.768 496.626 26.964 498.138 26.964C499.59 26.964 500.574 27.732 500.574 29.316V33H499.614L499.494 32.052C499.194 32.724 498.39 33.144 497.442 33.144ZM497.766 32.268C498.834 32.268 499.482 31.572 499.482 30.468V30.156L497.982 30.276C496.986 30.372 496.578 30.756 496.578 31.332C496.578 31.956 497.034 32.268 497.766 32.268ZM503.699 33H502.571V28.08H501.419V27.132H502.571V25.296H503.699V27.132H504.851V28.08H503.699V33ZM505.42 30.072C505.42 28.236 506.584 26.964 508.3 26.964C509.776 26.964 510.808 27.804 511.012 29.112H509.884C509.692 28.368 509.092 27.972 508.336 27.972C507.268 27.972 506.536 28.788 506.536 30.06C506.536 31.32 507.22 32.136 508.288 32.136C509.092 32.136 509.692 31.716 509.896 31.02H511.024C510.796 32.292 509.704 33.144 508.288 33.144C506.56 33.144 505.42 31.92 505.42 30.072ZM513.342 32.988H512.214V24.168H513.342V28.032C513.714 27.396 514.422 26.964 515.334 26.964C516.834 26.964 517.554 27.912 517.554 29.412V33H516.426V29.664C516.426 28.476 515.862 27.996 515.022 27.996C513.93 27.996 513.342 28.788 513.342 29.796V32.988ZM521.649 33.144C519.921 33.144 518.733 31.896 518.733 30.072C518.733 28.236 519.897 26.964 521.601 26.964C523.269 26.964 524.361 28.116 524.361 29.856V30.276L519.825 30.288C519.909 31.524 520.557 32.208 521.673 32.208C522.549 32.208 523.125 31.848 523.317 31.176H524.373C524.085 32.436 523.101 33.144 521.649 33.144ZM521.601 27.912C520.617 27.912 519.993 28.5 519.849 29.532H523.233C523.233 28.56 522.597 27.912 521.601 27.912ZM527.973 33.144C526.269 33.144 525.237 31.872 525.237 30.084C525.237 28.284 526.281 26.964 528.021 26.964C528.921 26.964 529.677 27.36 530.073 28.08V24.168H531.189V33H530.181L530.085 31.932C529.701 32.736 528.909 33.144 527.973 33.144ZM528.201 32.124C529.353 32.124 530.061 31.272 530.061 30.048C530.061 28.848 529.353 27.984 528.201 27.984C527.049 27.984 526.377 28.848 526.377 30.048C526.377 31.26 527.049 32.124 528.201 32.124Z" fill="#EAEDD6"/>
<rect x="366" y="54" width="66" height="19" rx="9.5" fill="white"/>
<path d="M381.936 64.11H382.936L383.216 62.66H382.056L382.236 61.78H383.396L383.786 59.77H384.716L384.326 61.78H385.856L386.246 59.77H387.186L386.796 61.78H387.826L387.656 62.66H386.616L386.336 64.11H387.456L387.286 64.99H386.156L385.766 67H384.836L385.226 64.99H383.686L383.296 67H382.366L382.756 64.99H381.756L381.936 64.11ZM383.866 64.11H385.396L385.686 62.66H384.146L383.866 64.11ZM390.099 59.77V67H389.119V59.77H390.099ZM392.765 67H391.785V59.77H392.765L396.465 65.36V59.77H397.445V67H396.465L392.765 61.41V67ZM401.139 67L398.389 59.77H399.439L401.199 64.39C401.359 64.8 401.499 65.21 401.649 65.75C401.819 65.18 401.989 64.7 402.109 64.38L403.859 59.77H404.879L402.159 67H401.139ZM407.899 67.12C406.419 67.12 405.459 66.18 405.459 64.74H406.429C406.429 65.67 406.999 66.24 407.919 66.24C408.899 66.24 409.529 65.59 409.529 64.61C409.529 63.68 408.939 62.99 407.929 62.99C407.319 62.99 406.759 63.28 406.429 63.69L405.599 63.48L406.479 59.77H410.099V60.67H407.189L406.709 62.59C407.089 62.3 407.569 62.15 408.109 62.15C409.579 62.15 410.529 63.18 410.529 64.57C410.529 66.07 409.459 67.12 407.899 67.12ZM412.297 62.06L413.987 59.77H415.127L413.317 62.17C413.567 62.07 413.827 62.02 414.077 62.02C415.577 62.02 416.587 63.1 416.587 64.53C416.587 66.04 415.447 67.12 413.957 67.12C412.457 67.12 411.297 65.99 411.297 64.53C411.297 63.67 411.557 63.07 412.297 62.06ZM412.297 64.54C412.297 65.53 412.977 66.24 413.957 66.24C414.917 66.24 415.597 65.53 415.597 64.54C415.597 63.55 414.917 62.85 413.957 62.85C412.977 62.85 412.297 63.55 412.297 64.54Z" fill="#16582E"/>
<rect x="385" y="170" width="64" height="19" rx="9.5" fill="white"/>
<path d="M401.563 180.11H402.563L402.843 178.66H401.683L401.863 177.78H403.023L403.413 175.77H404.343L403.953 177.78H405.483L405.873 175.77H406.813L406.423 177.78H407.453L407.283 178.66H406.243L405.963 180.11H407.083L406.913 180.99H405.783L405.393 183H404.463L404.853 180.99H403.313L402.923 183H401.993L402.383 180.99H401.383L401.563 180.11ZM403.493 180.11H405.023L405.313 178.66H403.773L403.493 180.11ZM409.726 175.77V183H408.746V175.77H409.726ZM412.392 183H411.412V175.77H412.392L416.092 181.36V175.77H417.072V183H416.092L412.392 177.41V183ZM420.766 183L418.016 175.77H419.066L420.826 180.39C420.986 180.8 421.126 181.21 421.276 181.75C421.446 181.18 421.616 180.7 421.736 180.38L423.486 175.77H424.506L421.786 183H420.766ZM426.475 176.65H424.955V175.77H427.415V183H426.475V176.65ZM433.588 182.99L428.708 183V182.25L431.038 180.24C432.208 179.23 432.538 178.74 432.538 177.97C432.538 177.06 432.018 176.52 431.148 176.52C430.258 176.52 429.678 177.17 429.658 178.2H428.678C428.708 176.65 429.688 175.64 431.158 175.64C432.608 175.64 433.538 176.52 433.538 177.91C433.538 178.94 433.028 179.67 431.748 180.78L430.248 182.08H433.588V182.99Z" fill="#16582E"/>
<rect x="488" y="134" width="78" height="21" rx="10.5" fill="#16582E"/>
<path d="M505.746 149H504.594V140.324H505.746L508.734 147.62L511.722 140.324H512.898V149H511.746V145.568C511.746 143.948 511.758 143.36 511.818 142.748L509.286 149H508.182L505.662 142.772C505.722 143.192 505.746 144.08 505.746 145.292V149ZM516.442 149.144C515.182 149.144 514.438 148.436 514.438 147.368C514.438 146.288 515.242 145.616 516.622 145.508L518.47 145.364V145.196C518.47 144.212 517.882 143.864 517.09 143.864C516.142 143.864 515.602 144.284 515.602 144.992H514.618C514.618 143.768 515.626 142.964 517.138 142.964C518.59 142.964 519.574 143.732 519.574 145.316V149H518.614L518.494 148.052C518.194 148.724 517.39 149.144 516.442 149.144ZM516.766 148.268C517.834 148.268 518.482 147.572 518.482 146.468V146.156L516.982 146.276C515.986 146.372 515.578 146.756 515.578 147.332C515.578 147.956 516.034 148.268 516.766 148.268ZM522.699 149H521.571V144.08H520.419V143.132H521.571V141.296H522.699V143.132H523.851V144.08H522.699V149ZM524.42 146.072C524.42 144.236 525.584 142.964 527.3 142.964C528.776 142.964 529.808 143.804 530.012 145.112H528.884C528.692 144.368 528.092 143.972 527.336 143.972C526.268 143.972 525.536 144.788 525.536 146.06C525.536 147.32 526.22 148.136 527.288 148.136C528.092 148.136 528.692 147.716 528.896 147.02H530.024C529.796 148.292 528.704 149.144 527.288 149.144C525.56 149.144 524.42 147.92 524.42 146.072ZM532.342 148.988H531.214V140.168H532.342V144.032C532.714 143.396 533.422 142.964 534.334 142.964C535.834 142.964 536.554 143.912 536.554 145.412V149H535.426V145.664C535.426 144.476 534.862 143.996 534.022 143.996C532.93 143.996 532.342 144.788 532.342 145.796V148.988ZM540.649 149.144C538.921 149.144 537.733 147.896 537.733 146.072C537.733 144.236 538.897 142.964 540.601 142.964C542.269 142.964 543.361 144.116 543.361 145.856V146.276L538.825 146.288C538.909 147.524 539.557 148.208 540.673 148.208C541.549 148.208 542.125 147.848 542.317 147.176H543.373C543.085 148.436 542.101 149.144 540.649 149.144ZM540.601 143.912C539.617 143.912 538.993 144.5 538.849 145.532H542.233C542.233 144.56 541.597 143.912 540.601 143.912ZM546.973 149.144C545.269 149.144 544.237 147.872 544.237 146.084C544.237 144.284 545.281 142.964 547.021 142.964C547.921 142.964 548.677 143.36 549.073 144.08V140.168H550.189V149H549.181L549.085 147.932C548.701 148.736 547.909 149.144 546.973 149.144ZM547.201 148.124C548.353 148.124 549.061 147.272 549.061 146.048C549.061 144.848 548.353 143.984 547.201 143.984C546.049 143.984 545.377 144.848 545.377 146.048C545.377 147.26 546.049 148.124 547.201 148.124Z" fill="#EAEDD6"/>
<path d="M522.211 55.716L519.211 51.408H520.231L521.827 53.664C522.235 54.24 522.511 54.696 522.715 55.08L525.211 51.408H526.207L523.255 55.692L526.255 60H525.223L523.591 57.696C523.303 57.288 522.955 56.76 522.739 56.376L520.231 60H519.223L522.211 55.716ZM529.427 56.412L526.511 51.408H527.483L529.607 55.116C529.703 55.296 529.775 55.44 529.859 55.632C529.967 55.416 529.967 55.416 530.123 55.116L532.223 51.408H533.171L530.291 56.412V60H529.427V56.412ZM539.761 60H533.785V59.208L538.729 52.2H533.821V51.408H539.785V52.176L534.817 59.208H539.761V60ZM542.426 52.188H540.674V51.408H543.254V60H542.426V52.188ZM550.466 60H544.802V59.316L547.55 56.916C549.134 55.536 549.542 54.936 549.542 53.916C549.542 52.752 548.846 52.044 547.706 52.044C546.518 52.044 545.738 52.908 545.702 54.24H544.838C544.886 52.44 546.026 51.252 547.718 51.252C549.338 51.252 550.418 52.296 550.418 53.868C550.418 55.116 549.854 55.944 548.138 57.444L546.134 59.196H550.466V60Z" fill="#EAEDD6"/>
<path d="M491.814 176H490.938L494.094 167.408H495.162L498.354 176H497.454L496.614 173.72H492.654L491.814 176ZM494.514 168.62L492.918 172.964H496.338L494.73 168.62C494.694 168.5 494.634 168.356 494.622 168.272C494.61 168.344 494.562 168.5 494.514 168.62ZM499.548 176V167.408H502.692C504.348 167.408 505.368 168.248 505.368 169.628C505.368 170.636 504.924 171.32 504.036 171.668C505.032 171.992 505.536 172.688 505.536 173.744C505.536 175.124 504.504 176 502.872 176H499.548ZM502.68 168.176H500.412V171.32H502.788C503.868 171.32 504.48 170.72 504.48 169.7C504.48 168.74 503.832 168.176 502.68 168.176ZM502.872 172.076H500.412V175.22H502.872C504 175.22 504.66 174.632 504.66 173.636C504.66 172.664 503.988 172.076 502.872 172.076ZM510.599 176.132C508.199 176.132 506.567 174.344 506.567 171.704C506.567 169.064 508.223 167.264 510.647 167.264C512.495 167.264 513.947 168.38 514.295 170.084H513.371C513.011 168.848 511.955 168.092 510.611 168.092C508.727 168.092 507.467 169.532 507.467 171.704C507.467 173.864 508.727 175.304 510.611 175.304C511.967 175.304 513.047 174.572 513.419 173.42H514.343C513.947 175.04 512.447 176.132 510.599 176.132ZM516.965 168.188H515.213V167.408H517.793V176H516.965V168.188ZM525.005 176H519.341V175.316L522.089 172.916C523.673 171.536 524.081 170.936 524.081 169.916C524.081 168.752 523.385 168.044 522.245 168.044C521.057 168.044 520.277 168.908 520.241 170.24H519.377C519.425 168.44 520.565 167.252 522.257 167.252C523.877 167.252 524.957 168.296 524.957 169.868C524.957 171.116 524.393 171.944 522.677 173.444L520.673 175.196H525.005V176ZM527.914 175.592C527.914 176.336 527.338 176.984 526.594 177.092V176.648C527.026 176.576 527.338 176.264 527.338 175.928C527.266 175.976 527.17 176.012 527.026 176.012C526.69 176.012 526.402 175.772 526.402 175.364C526.402 174.944 526.69 174.644 527.11 174.644C527.542 174.644 527.914 174.992 527.914 175.592ZM533.099 176H532.223L535.379 167.408H536.447L539.639 176H538.739L537.899 173.72H533.939L533.099 176ZM535.799 168.62L534.203 172.964H537.623L536.015 168.62C535.979 168.5 535.919 168.356 535.907 168.272C535.895 168.344 535.847 168.5 535.799 168.62ZM540.833 176V167.408H543.977C545.633 167.408 546.653 168.248 546.653 169.628C546.653 170.636 546.209 171.32 545.321 171.668C546.317 171.992 546.821 172.688 546.821 173.744C546.821 175.124 545.789 176 544.157 176H540.833ZM543.965 168.176H541.697V171.32H544.073C545.153 171.32 545.765 170.72 545.765 169.7C545.765 168.74 545.117 168.176 543.965 168.176ZM544.157 172.076H541.697V175.22H544.157C545.285 175.22 545.945 174.632 545.945 173.636C545.945 172.664 545.273 172.076 544.157 172.076ZM551.884 176.132C549.484 176.132 547.852 174.344 547.852 171.704C547.852 169.064 549.508 167.264 551.932 167.264C553.78 167.264 555.232 168.38 555.58 170.084H554.656C554.296 168.848 553.24 168.092 551.896 168.092C550.012 168.092 548.752 169.532 548.752 171.704C548.752 173.864 550.012 175.304 551.896 175.304C553.252 175.304 554.332 174.572 554.704 173.42H555.628C555.232 175.04 553.732 176.132 551.884 176.132ZM562.282 176H556.618V175.316L559.366 172.916C560.95 171.536 561.358 170.936 561.358 169.916C561.358 168.752 560.662 168.044 559.522 168.044C558.334 168.044 557.554 168.908 557.518 170.24H556.654C556.702 168.44 557.842 167.252 559.534 167.252C561.154 167.252 562.234 168.296 562.234 169.868C562.234 171.116 561.67 171.944 559.954 173.444L557.95 175.196H562.282V176ZM569.317 174.176H568.309V176H567.469V174.176H562.957V173.408L567.157 167.408H568.309V173.408H569.317V174.176ZM563.893 173.408H567.469V168.296L563.893 173.408Z" fill="#EAEDD6"/>
<path d="M501.224 77.33V76.168C499.278 76.028 498.032 74.894 497.99 73.186H499.782C499.796 73.984 500.314 74.488 501.224 74.6V71.618L500.776 71.52C499.012 71.142 498.13 70.162 498.13 68.622C498.13 66.984 499.362 65.808 501.224 65.612V64.422H502.302V65.612C504.066 65.794 505.158 66.9 505.214 68.58H503.478C503.45 67.824 503.03 67.334 502.302 67.18V70.19L502.778 70.302C504.57 70.694 505.382 71.562 505.382 73.046C505.382 74.754 504.178 75.93 502.302 76.14V77.33H501.224ZM501.168 69.938L501.224 69.952V67.166C500.384 67.306 499.88 67.81 499.88 68.566C499.88 69.308 500.272 69.742 501.168 69.938ZM502.4 71.87L502.302 71.842V74.572C503.142 74.404 503.646 73.914 503.646 73.2C503.646 72.486 503.24 72.052 502.4 71.87ZM513.773 76.168C511.631 76.168 510.217 74.796 510.217 72.724H511.995C511.995 73.886 512.681 74.572 513.815 74.572C515.019 74.572 515.789 73.788 515.789 72.542C515.789 71.352 515.075 70.54 513.843 70.54C513.059 70.54 512.345 70.932 511.981 71.464L510.399 71.128L511.659 65.766H516.993V67.418H512.947L512.401 69.546C512.891 69.224 513.507 69.042 514.207 69.042C516.251 69.042 517.609 70.428 517.609 72.444C517.609 74.656 516.055 76.168 513.773 76.168ZM520.982 75.384C520.982 76.546 520.142 77.47 519.008 77.61V76.924C519.638 76.812 520.114 76.434 520.114 75.944C520.002 76 519.876 76.028 519.708 76.028C519.162 76.028 518.714 75.622 518.714 75.062C518.714 74.39 519.148 73.942 519.778 73.942C520.478 73.942 520.982 74.516 520.982 75.384ZM521.989 70.904C521.989 67.726 523.697 65.57 526.315 65.57C528.933 65.57 530.655 67.726 530.655 70.904C530.655 74.068 529.031 76.182 526.315 76.182C523.599 76.182 521.989 74.068 521.989 70.904ZM523.753 70.904C523.753 73.27 524.705 74.6 526.315 74.6C527.939 74.6 528.891 73.27 528.891 70.904C528.891 68.482 527.939 67.152 526.315 67.152C524.705 67.152 523.753 68.482 523.753 70.904ZM531.86 70.904C531.86 67.726 533.568 65.57 536.186 65.57C538.804 65.57 540.526 67.726 540.526 70.904C540.526 74.068 538.902 76.182 536.186 76.182C533.47 76.182 531.86 74.068 531.86 70.904ZM533.624 70.904C533.624 73.27 534.576 74.6 536.186 74.6C537.81 74.6 538.762 73.27 538.762 70.904C538.762 68.482 537.81 67.152 536.186 67.152C534.576 67.152 533.624 68.482 533.624 70.904ZM541.731 70.904C541.731 67.726 543.439 65.57 546.057 65.57C548.675 65.57 550.397 67.726 550.397 70.904C550.397 74.068 548.773 76.182 546.057 76.182C543.341 76.182 541.731 74.068 541.731 70.904ZM543.495 70.904C543.495 73.27 544.447 74.6 546.057 74.6C547.681 74.6 548.633 73.27 548.633 70.904C548.633 68.482 547.681 67.152 546.057 67.152C544.447 67.152 543.495 68.482 543.495 70.904Z" fill="#EAEDD6"/>
<path d="M518.324 193.33V192.168C516.378 192.028 515.132 190.894 515.09 189.186H516.882C516.896 189.984 517.414 190.488 518.324 190.6V187.618L517.876 187.52C516.112 187.142 515.23 186.162 515.23 184.622C515.23 182.984 516.462 181.808 518.324 181.612V180.422H519.402V181.612C521.166 181.794 522.258 182.9 522.314 184.58H520.578C520.55 183.824 520.13 183.334 519.402 183.18V186.19L519.878 186.302C521.67 186.694 522.482 187.562 522.482 189.046C522.482 190.754 521.278 191.93 519.402 192.14V193.33H518.324ZM518.268 185.938L518.324 185.952V183.166C517.484 183.306 516.98 183.81 516.98 184.566C516.98 185.308 517.372 185.742 518.268 185.938ZM519.5 187.87L519.402 187.842V190.572C520.242 190.404 520.746 189.914 520.746 189.2C520.746 188.486 520.34 188.052 519.5 187.87ZM529.458 183.376H527.218V181.766H531.18V192H529.458V183.376ZM532.813 189.102C532.813 187.884 533.499 186.904 534.563 186.498C533.667 186.092 533.177 185.322 533.177 184.328C533.177 182.704 534.619 181.584 536.733 181.584C538.833 181.584 540.247 182.69 540.247 184.356C540.247 185.35 539.743 186.12 538.833 186.498C539.911 186.876 540.611 187.87 540.611 189.102C540.611 190.95 539.085 192.168 536.705 192.168C534.339 192.168 532.813 190.964 532.813 189.102ZM534.801 184.482C534.801 185.336 535.543 185.882 536.705 185.882C537.853 185.882 538.581 185.35 538.581 184.496C538.581 183.642 537.853 183.11 536.705 183.11C535.543 183.11 534.801 183.642 534.801 184.482ZM534.563 188.976C534.563 189.97 535.389 190.586 536.719 190.586C538.021 190.586 538.847 189.97 538.847 188.976C538.847 187.982 538.021 187.366 536.705 187.366C535.389 187.366 534.563 187.982 534.563 188.976ZM544.275 191.384C544.275 192.546 543.435 193.47 542.301 193.61V192.924C542.931 192.812 543.407 192.434 543.407 191.944C543.295 192 543.169 192.028 543.001 192.028C542.455 192.028 542.007 191.622 542.007 191.062C542.007 190.39 542.441 189.942 543.071 189.942C543.771 189.942 544.275 190.516 544.275 191.384ZM545.282 186.904C545.282 183.726 546.99 181.57 549.608 181.57C552.226 181.57 553.948 183.726 553.948 186.904C553.948 190.068 552.324 192.182 549.608 192.182C546.892 192.182 545.282 190.068 545.282 186.904ZM547.046 186.904C547.046 189.27 547.998 190.6 549.608 190.6C551.232 190.6 552.184 189.27 552.184 186.904C552.184 184.482 551.232 183.152 549.608 183.152C547.998 183.152 547.046 184.482 547.046 186.904ZM557.267 183.376H555.027V181.766H558.989V192H557.267V183.376ZM560.731 186.904C560.731 183.726 562.439 181.57 565.057 181.57C567.675 181.57 569.397 183.726 569.397 186.904C569.397 190.068 567.773 192.182 565.057 192.182C562.341 192.182 560.731 190.068 560.731 186.904ZM562.495 186.904C562.495 189.27 563.447 190.6 565.057 190.6C566.681 190.6 567.633 189.27 567.633 186.904C567.633 184.482 566.681 183.152 565.057 183.152C563.447 183.152 562.495 184.482 562.495 186.904Z" fill="#EAEDD6"/>
<path d="M339.352 72.3509H350.648V70.649H339.352V72.3509ZM339.352 66.0769H350.648V64.375H339.352V66.0769ZM335.913 78.2499C335.325 78.2499 334.818 78.0364 334.391 77.6094C333.964 77.1823 333.75 76.6747 333.75 76.0864V51.9135C333.75 51.3253 333.964 50.8176 334.391 50.3906C334.818 49.9635 335.325 49.75 335.913 49.75H348.946L356.25 57.0538V76.0864C356.25 76.6747 356.036 77.1823 355.609 77.6094C355.182 78.0364 354.675 78.2499 354.086 78.2499H335.913ZM348.095 57.8211V51.4519H335.913C335.798 51.4519 335.692 51.5 335.596 51.5961C335.5 51.6923 335.452 51.7981 335.452 51.9135V76.0864C335.452 76.2018 335.5 76.3076 335.596 76.4038C335.692 76.4999 335.798 76.548 335.913 76.548H354.086C354.202 76.548 354.308 76.4999 354.404 76.4038C354.5 76.3076 354.548 76.2018 354.548 76.0864V57.8211H348.095Z" fill="#EAEDD6"/>
<path d="M358.352 188.351H369.648V186.649H358.352V188.351ZM358.352 182.077H369.648V180.375H358.352V182.077ZM354.913 194.25C354.325 194.25 353.818 194.036 353.391 193.609C352.964 193.182 352.75 192.675 352.75 192.086V167.913C352.75 167.325 352.964 166.818 353.391 166.391C353.818 165.964 354.325 165.75 354.913 165.75H367.946L375.25 173.054V192.086C375.25 192.675 375.036 193.182 374.609 193.609C374.182 194.036 373.675 194.25 373.086 194.25H354.913ZM367.095 173.821V167.452H354.913C354.798 167.452 354.692 167.5 354.596 167.596C354.5 167.692 354.452 167.798 354.452 167.913V192.086C354.452 192.202 354.5 192.308 354.596 192.404C354.692 192.5 354.798 192.548 354.913 192.548H373.086C373.202 192.548 373.308 192.5 373.404 192.404C373.5 192.308 373.548 192.202 373.548 192.086V173.821H367.095Z" fill="#EAEDD6"/>
<rect width="287" height="365" rx="7" fill="#EAEDD6"/>
<circle cx="19.9655" cy="19.9655" r="4.96552" fill="#16582E"/>
<circle cx="33.0007" cy="19.9655" r="4.96552" fill="#16582E"/>
<circle cx="46.0358" cy="19.9655" r="4.96552" fill="#16582E"/>
<rect x="6" y="55" width="272" height="299" rx="3" fill="#16582E"/>
<rect x="44" y="84" width="196" height="241" fill="white"/>
<rect x="51" y="126" width="182" height="30" rx="3" fill="#00954A"/>
<path d="M62.8867 140.668L59.9228 136.324H61.3268L62.6828 138.256C63.0668 138.82 63.3548 139.3 63.6068 139.78L65.8988 136.324H67.2548L64.3508 140.656L67.2908 145H65.8988L64.5668 143.092C64.2308 142.6 63.9068 142.072 63.6188 141.568L61.2908 145H59.9108L62.8867 140.668ZM70.5131 141.472L67.5731 136.324H68.8931L70.8251 139.792C70.9451 139.996 71.0171 140.164 71.1131 140.368C71.2211 140.152 71.2451 140.08 71.4011 139.792L73.3211 136.324H74.6051L71.6891 141.472V145H70.5131V141.472ZM81.2945 145H75.1625V143.908L79.8185 137.404H75.2345V136.324H81.2825V137.38L76.5905 143.908H81.2945V145ZM83.9706 137.38H82.1466V136.324H85.0986V145H83.9706V137.38ZM92.5057 144.988L86.6497 145V144.1L89.4457 141.688C90.8497 140.476 91.2457 139.888 91.2457 138.964C91.2457 137.872 90.6217 137.224 89.5777 137.224C88.5097 137.224 87.8137 138.004 87.7897 139.24H86.6137C86.6497 137.38 87.8257 136.168 89.5897 136.168C91.3297 136.168 92.4457 137.224 92.4457 138.892C92.4457 140.128 91.8337 141.004 90.2977 142.336L88.4977 143.896H92.5057V144.988Z" fill="#EAEDD6"/>
<rect x="51" y="186" width="182" height="60" rx="3" fill="#00954A"/>
<path d="M60.5672 205H59.3432L62.5112 196.324H63.8192L66.9992 205H65.7632L64.9832 202.84H61.3352L60.5672 205ZM63.0152 198.196L61.6952 201.82H64.6352L63.3032 198.196C63.2432 198.028 63.1832 197.824 63.1592 197.692C63.1352 197.812 63.0752 198.016 63.0152 198.196ZM68.1525 205V196.324H71.4645C73.1565 196.324 74.1885 197.188 74.1885 198.616C74.1885 199.612 73.7565 200.284 72.8925 200.644C73.8525 200.956 74.3445 201.652 74.3445 202.684C74.3445 204.124 73.3005 205 71.5845 205H68.1525ZM71.3925 197.368H69.3285V200.152H71.4645C72.4365 200.152 72.9885 199.624 72.9885 198.724C72.9885 197.86 72.4125 197.368 71.3925 197.368ZM71.5605 201.172H69.3285V203.956H71.5605C72.5685 203.956 73.1325 203.44 73.1325 202.54C73.1325 201.676 72.5565 201.172 71.5605 201.172ZM79.4166 205.132C76.9446 205.132 75.3006 203.356 75.3006 200.668C75.3006 197.992 76.9926 196.18 79.4766 196.18C81.4326 196.18 82.9326 197.344 83.2566 199.12H81.9966C81.6726 197.992 80.7006 197.308 79.4406 197.308C77.6886 197.308 76.5366 198.628 76.5366 200.656C76.5366 202.684 77.6886 204.004 79.4406 204.004C80.7126 204.004 81.7206 203.32 82.0446 202.252H83.2926C82.9206 203.98 81.3726 205.132 79.4166 205.132ZM85.9706 197.38H84.1466V196.324H87.0986V205H85.9706V197.38ZM94.5057 204.988L88.6497 205V204.1L91.4457 201.688C92.8497 200.476 93.2457 199.888 93.2457 198.964C93.2457 197.872 92.6217 197.224 91.5777 197.224C90.5097 197.224 89.8137 198.004 89.7897 199.24H88.6137C88.6497 197.38 89.8257 196.168 91.5897 196.168C93.3297 196.168 94.4457 197.224 94.4457 198.892C94.4457 200.128 93.8337 201.004 92.2977 202.336L90.4977 203.896H94.5057V204.988Z" fill="#EAEDD6"/>
<path d="M60.5438 236H59.3198L62.4878 227.324H63.7958L66.9758 236H65.7398L64.9598 233.84H61.3118L60.5438 236ZM62.9918 229.196L61.6718 232.82H64.6118L63.2798 229.196C63.2198 229.028 63.1598 228.824 63.1358 228.692C63.1118 228.812 63.0518 229.016 62.9918 229.196ZM68.1291 236V227.324H71.4411C73.1331 227.324 74.1651 228.188 74.1651 229.616C74.1651 230.612 73.7331 231.284 72.8691 231.644C73.8291 231.956 74.3211 232.652 74.3211 233.684C74.3211 235.124 73.2771 236 71.5611 236H68.1291ZM71.3691 228.368H69.3051V231.152H71.4411C72.4131 231.152 72.9651 230.624 72.9651 229.724C72.9651 228.86 72.3891 228.368 71.3691 228.368ZM71.5371 232.172H69.3051V234.956H71.5371C72.5451 234.956 73.1091 234.44 73.1091 233.54C73.1091 232.676 72.5331 232.172 71.5371 232.172ZM79.3932 236.132C76.9212 236.132 75.2772 234.356 75.2772 231.668C75.2772 228.992 76.9692 227.18 79.4532 227.18C81.4092 227.18 82.9092 228.344 83.2332 230.12H81.9732C81.6492 228.992 80.6772 228.308 79.4172 228.308C77.6652 228.308 76.5132 229.628 76.5132 231.656C76.5132 233.684 77.6652 235.004 79.4172 235.004C80.6892 235.004 81.6972 234.32 82.0212 233.252H83.2692C82.8972 234.98 81.3492 236.132 79.3932 236.132ZM90.1111 235.988L84.2551 236V235.1L87.0511 232.688C88.4551 231.476 88.8511 230.888 88.8511 229.964C88.8511 228.872 88.2271 228.224 87.1831 228.224C86.1151 228.224 85.4191 229.004 85.3951 230.24H84.2191C84.2551 228.38 85.4311 227.168 87.1951 227.168C88.9351 227.168 90.0511 228.224 90.0511 229.892C90.0511 231.128 89.4391 232.004 87.9031 233.336L86.1031 234.896H90.1111V235.988ZM97.4271 234.248H96.3951V236H95.2671V234.248H90.7791V233.204L94.8711 227.324H96.3951V233.204H97.4271V234.248ZM92.0511 233.204H95.2671V228.572L92.0511 233.204Z" fill="#EAEDD6"/>
<path d="M174.224 147.33V146.168C172.278 146.028 171.032 144.894 170.99 143.186H172.782C172.796 143.984 173.314 144.488 174.224 144.6V141.618L173.776 141.52C172.012 141.142 171.13 140.162 171.13 138.622C171.13 136.984 172.362 135.808 174.224 135.612V134.422H175.302V135.612C177.066 135.794 178.158 136.9 178.214 138.58H176.478C176.45 137.824 176.03 137.334 175.302 137.18V140.19L175.778 140.302C177.57 140.694 178.382 141.562 178.382 143.046C178.382 144.754 177.178 145.93 175.302 146.14V147.33H174.224ZM174.168 139.938L174.224 139.952V137.166C173.384 137.306 172.88 137.81 172.88 138.566C172.88 139.308 173.272 139.742 174.168 139.938ZM175.4 141.87L175.302 141.842V144.572C176.142 144.404 176.646 143.914 176.646 143.2C176.646 142.486 176.24 142.052 175.4 141.87ZM186.773 146.168C184.631 146.168 183.217 144.796 183.217 142.724H184.995C184.995 143.886 185.681 144.572 186.815 144.572C188.019 144.572 188.789 143.788 188.789 142.542C188.789 141.352 188.075 140.54 186.843 140.54C186.059 140.54 185.345 140.932 184.981 141.464L183.399 141.128L184.659 135.766H189.993V137.418H185.947L185.401 139.546C185.891 139.224 186.507 139.042 187.207 139.042C189.251 139.042 190.609 140.428 190.609 142.444C190.609 144.656 189.055 146.168 186.773 146.168ZM193.982 145.384C193.982 146.546 193.142 147.47 192.008 147.61V146.924C192.638 146.812 193.114 146.434 193.114 145.944C193.002 146 192.876 146.028 192.708 146.028C192.162 146.028 191.714 145.622 191.714 145.062C191.714 144.39 192.148 143.942 192.778 143.942C193.478 143.942 193.982 144.516 193.982 145.384ZM194.989 140.904C194.989 137.726 196.697 135.57 199.315 135.57C201.933 135.57 203.655 137.726 203.655 140.904C203.655 144.068 202.031 146.182 199.315 146.182C196.599 146.182 194.989 144.068 194.989 140.904ZM196.753 140.904C196.753 143.27 197.705 144.6 199.315 144.6C200.939 144.6 201.891 143.27 201.891 140.904C201.891 138.482 200.939 137.152 199.315 137.152C197.705 137.152 196.753 138.482 196.753 140.904ZM204.86 140.904C204.86 137.726 206.568 135.57 209.186 135.57C211.804 135.57 213.526 137.726 213.526 140.904C213.526 144.068 211.902 146.182 209.186 146.182C206.47 146.182 204.86 144.068 204.86 140.904ZM206.624 140.904C206.624 143.27 207.576 144.6 209.186 144.6C210.81 144.6 211.762 143.27 211.762 140.904C211.762 138.482 210.81 137.152 209.186 137.152C207.576 137.152 206.624 138.482 206.624 140.904ZM214.731 140.904C214.731 137.726 216.439 135.57 219.057 135.57C221.675 135.57 223.397 137.726 223.397 140.904C223.397 144.068 221.773 146.182 219.057 146.182C216.341 146.182 214.731 144.068 214.731 140.904ZM216.495 140.904C216.495 143.27 217.447 144.6 219.057 144.6C220.681 144.6 221.633 143.27 221.633 140.904C221.633 138.482 220.681 137.152 219.057 137.152C217.447 137.152 216.495 138.482 216.495 140.904Z" fill="#EAEDD6"/>
<path d="M192.666 177.358V176.154C190.818 176.042 189.6 174.992 189.516 173.354H190.916C190.944 174.25 191.602 174.838 192.666 174.95V171.464L192.162 171.352C190.51 170.974 189.656 170.05 189.656 168.608C189.656 167.012 190.846 165.878 192.666 165.724V164.506H193.562V165.71C195.256 165.864 196.334 166.9 196.432 168.524H195.074C195.018 167.628 194.472 167.054 193.562 166.928V170.4L194.108 170.526C195.788 170.904 196.6 171.786 196.6 173.186C196.6 174.852 195.41 175.972 193.562 176.14V177.358H192.666ZM192.442 170.134L192.666 170.19V166.928C191.63 167.068 191 167.67 191 168.566C191 169.378 191.462 169.896 192.442 170.134ZM193.828 171.744L193.562 171.688V174.922C194.612 174.782 195.256 174.18 195.256 173.298C195.256 172.486 194.794 171.968 193.828 171.744ZM203.595 167.11H201.467V165.878H204.911V176H203.595V167.11ZM210.109 176.168C208.037 176.168 206.693 174.852 206.693 172.836H208.051C208.051 174.138 208.849 174.936 210.137 174.936C211.509 174.936 212.391 174.026 212.391 172.654C212.391 171.352 211.565 170.386 210.151 170.386C209.297 170.386 208.513 170.792 208.051 171.366L206.889 171.072L208.121 165.878H213.189V167.138H209.115L208.443 169.826C208.975 169.42 209.647 169.21 210.403 169.21C212.461 169.21 213.791 170.652 213.791 172.598C213.791 174.698 212.293 176.168 210.109 176.168ZM214.979 170.946C214.979 167.81 216.603 165.682 219.151 165.682C221.685 165.682 223.309 167.81 223.309 170.946C223.309 174.096 221.755 176.182 219.151 176.182C216.533 176.182 214.979 174.096 214.979 170.946ZM216.337 170.946C216.337 173.438 217.373 174.95 219.151 174.95C220.929 174.95 221.951 173.438 221.951 170.946C221.951 168.426 220.929 166.914 219.151 166.914C217.373 166.914 216.337 168.426 216.337 170.946Z" fill="#16582E"/>
<rect x="6" y="55" width="272" height="183" fill="#96D300" fill-opacity="0.2"/>
<path d="M177.806 207.33V206.168C175.86 206.028 174.614 204.894 174.572 203.186H176.364C176.378 203.984 176.896 204.488 177.806 204.6V201.618L177.358 201.52C175.594 201.142 174.712 200.162 174.712 198.622C174.712 196.984 175.944 195.808 177.806 195.612V194.422H178.884V195.612C180.648 195.794 181.74 196.9 181.796 198.58H180.06C180.032 197.824 179.612 197.334 178.884 197.18V200.19L179.36 200.302C181.152 200.694 181.964 201.562 181.964 203.046C181.964 204.754 180.76 205.93 178.884 206.14V207.33H177.806ZM177.75 199.938L177.806 199.952V197.166C176.966 197.306 176.462 197.81 176.462 198.566C176.462 199.308 176.854 199.742 177.75 199.938ZM178.982 201.87L178.884 201.842V204.572C179.724 204.404 180.228 203.914 180.228 203.2C180.228 202.486 179.822 202.052 178.982 201.87ZM186.813 203.102C186.813 201.884 187.499 200.904 188.563 200.498C187.667 200.092 187.177 199.322 187.177 198.328C187.177 196.704 188.619 195.584 190.733 195.584C192.833 195.584 194.247 196.69 194.247 198.356C194.247 199.35 193.743 200.12 192.833 200.498C193.911 200.876 194.611 201.87 194.611 203.102C194.611 204.95 193.085 206.168 190.705 206.168C188.339 206.168 186.813 204.964 186.813 203.102ZM188.801 198.482C188.801 199.336 189.543 199.882 190.705 199.882C191.853 199.882 192.581 199.35 192.581 198.496C192.581 197.642 191.853 197.11 190.705 197.11C189.543 197.11 188.801 197.642 188.801 198.482ZM188.563 202.976C188.563 203.97 189.389 204.586 190.719 204.586C192.021 204.586 192.847 203.97 192.847 202.976C192.847 201.982 192.021 201.366 190.705 201.366C189.389 201.366 188.563 201.982 188.563 202.976ZM198.275 205.384C198.275 206.546 197.435 207.47 196.301 207.61V206.924C196.931 206.812 197.407 206.434 197.407 205.944C197.295 206 197.169 206.028 197.001 206.028C196.455 206.028 196.007 205.622 196.007 205.062C196.007 204.39 196.441 203.942 197.071 203.942C197.771 203.942 198.275 204.516 198.275 205.384ZM199.282 200.904C199.282 197.726 200.99 195.57 203.608 195.57C206.226 195.57 207.948 197.726 207.948 200.904C207.948 204.068 206.324 206.182 203.608 206.182C200.892 206.182 199.282 204.068 199.282 200.904ZM201.046 200.904C201.046 203.27 201.998 204.6 203.608 204.6C205.232 204.6 206.184 203.27 206.184 200.904C206.184 198.482 205.232 197.152 203.608 197.152C201.998 197.152 201.046 198.482 201.046 200.904ZM211.267 197.376H209.027V195.766H212.989V206H211.267V197.376ZM214.731 200.904C214.731 197.726 216.439 195.57 219.057 195.57C221.675 195.57 223.397 197.726 223.397 200.904C223.397 204.068 221.773 206.182 219.057 206.182C216.341 206.182 214.731 204.068 214.731 200.904ZM216.495 200.904C216.495 203.27 217.447 204.6 219.057 204.6C220.681 204.6 221.633 203.27 221.633 200.904C221.633 198.482 220.681 197.152 219.057 197.152C217.447 197.152 216.495 198.482 216.495 200.904Z" fill="#EAEDD6"/>
<path d="M167.456 237.33V236.168C165.51 236.028 164.264 234.894 164.222 233.186H166.014C166.028 233.984 166.546 234.488 167.456 234.6V231.618L167.008 231.52C165.244 231.142 164.362 230.162 164.362 228.622C164.362 226.984 165.594 225.808 167.456 225.612V224.422H168.534V225.612C170.298 225.794 171.39 226.9 171.446 228.58H169.71C169.682 227.824 169.262 227.334 168.534 227.18V230.19L169.01 230.302C170.802 230.694 171.614 231.562 171.614 233.046C171.614 234.754 170.41 235.93 168.534 236.14V237.33H167.456ZM167.4 229.938L167.456 229.952V227.166C166.616 227.306 166.112 227.81 166.112 228.566C166.112 229.308 166.504 229.742 167.4 229.938ZM168.632 231.87L168.534 231.842V234.572C169.374 234.404 169.878 233.914 169.878 233.2C169.878 232.486 169.472 232.052 168.632 231.87ZM178.591 227.376H176.351V225.766H180.313V236H178.591V227.376ZM182.055 230.904C182.055 227.726 183.763 225.57 186.381 225.57C188.999 225.57 190.721 227.726 190.721 230.904C190.721 234.068 189.097 236.182 186.381 236.182C183.665 236.182 182.055 234.068 182.055 230.904ZM183.819 230.904C183.819 233.27 184.771 234.6 186.381 234.6C188.005 234.6 188.957 233.27 188.957 230.904C188.957 228.482 188.005 227.152 186.381 227.152C184.771 227.152 183.819 228.482 183.819 230.904ZM193.982 235.384C193.982 236.546 193.142 237.47 192.008 237.61V236.924C192.638 236.812 193.114 236.434 193.114 235.944C193.002 236 192.876 236.028 192.708 236.028C192.162 236.028 191.714 235.622 191.714 235.062C191.714 234.39 192.148 233.942 192.778 233.942C193.478 233.942 193.982 234.516 193.982 235.384ZM194.989 230.904C194.989 227.726 196.697 225.57 199.315 225.57C201.933 225.57 203.655 227.726 203.655 230.904C203.655 234.068 202.031 236.182 199.315 236.182C196.599 236.182 194.989 234.068 194.989 230.904ZM196.753 230.904C196.753 233.27 197.705 234.6 199.315 234.6C200.939 234.6 201.891 233.27 201.891 230.904C201.891 228.482 200.939 227.152 199.315 227.152C197.705 227.152 196.753 228.482 196.753 230.904ZM204.86 230.904C204.86 227.726 206.568 225.57 209.186 225.57C211.804 225.57 213.526 227.726 213.526 230.904C213.526 234.068 211.902 236.182 209.186 236.182C206.47 236.182 204.86 234.068 204.86 230.904ZM206.624 230.904C206.624 233.27 207.576 234.6 209.186 234.6C210.81 234.6 211.762 233.27 211.762 230.904C211.762 228.482 210.81 227.152 209.186 227.152C207.576 227.152 206.624 228.482 206.624 230.904ZM214.731 230.904C214.731 227.726 216.439 225.57 219.057 225.57C221.675 225.57 223.397 227.726 223.397 230.904C223.397 234.068 221.773 236.182 219.057 236.182C216.341 236.182 214.731 234.068 214.731 230.904ZM216.495 230.904C216.495 233.27 217.447 234.6 219.057 234.6C220.681 234.6 221.633 233.27 221.633 230.904C221.633 228.482 220.681 227.152 219.057 227.152C217.447 227.152 216.495 228.482 216.495 230.904Z" fill="#EAEDD6"/>
<path d="M188.223 267.358V266.154C186.375 266.042 185.157 264.992 185.073 263.354H186.473C186.501 264.25 187.159 264.838 188.223 264.95V261.464L187.719 261.352C186.067 260.974 185.213 260.05 185.213 258.608C185.213 257.012 186.403 255.878 188.223 255.724V254.506H189.119V255.71C190.813 255.864 191.891 256.9 191.989 258.524H190.631C190.575 257.628 190.029 257.054 189.119 256.928V260.4L189.665 260.526C191.345 260.904 192.157 261.786 192.157 263.186C192.157 264.852 190.967 265.972 189.119 266.14V267.358H188.223ZM187.999 260.134L188.223 260.19V256.928C187.187 257.068 186.557 257.67 186.557 258.566C186.557 259.378 187.019 259.896 187.999 260.134ZM189.385 261.744L189.119 261.688V264.922C190.169 264.782 190.813 264.18 190.813 263.298C190.813 262.486 190.351 261.968 189.385 261.744ZM204.009 265.986L197.177 266V264.95L200.439 262.136C202.077 260.722 202.539 260.036 202.539 258.958C202.539 257.684 201.811 256.928 200.593 256.928C199.347 256.928 198.535 257.838 198.507 259.28H197.135C197.177 257.11 198.549 255.696 200.607 255.696C202.637 255.696 203.939 256.928 203.939 258.874C203.939 260.316 203.225 261.338 201.433 262.892L199.333 264.712H204.009V265.986ZM205.272 260.946C205.272 257.81 206.896 255.682 209.444 255.682C211.978 255.682 213.602 257.81 213.602 260.946C213.602 264.096 212.048 266.182 209.444 266.182C206.826 266.182 205.272 264.096 205.272 260.946ZM206.63 260.946C206.63 263.438 207.666 264.95 209.444 264.95C211.222 264.95 212.244 263.438 212.244 260.946C212.244 258.426 211.222 256.914 209.444 256.914C207.666 256.914 206.63 258.426 206.63 260.946ZM214.979 260.946C214.979 257.81 216.603 255.682 219.151 255.682C221.685 255.682 223.309 257.81 223.309 260.946C223.309 264.096 221.755 266.182 219.151 266.182C216.533 266.182 214.979 264.096 214.979 260.946ZM216.337 260.946C216.337 263.438 217.373 264.95 219.151 264.95C220.929 264.95 221.951 263.438 221.951 260.946C221.951 258.426 220.929 256.914 219.151 256.914C217.373 256.914 216.337 258.426 216.337 260.946Z" fill="#16582E"/>
<path d="M188.004 297.358V296.154C186.156 296.042 184.938 294.992 184.854 293.354H186.254C186.282 294.25 186.94 294.838 188.004 294.95V291.464L187.5 291.352C185.848 290.974 184.994 290.05 184.994 288.608C184.994 287.012 186.184 285.878 188.004 285.724V284.506H188.9V285.71C190.594 285.864 191.672 286.9 191.77 288.524H190.412C190.356 287.628 189.81 287.054 188.9 286.928V290.4L189.446 290.526C191.126 290.904 191.938 291.786 191.938 293.186C191.938 294.852 190.748 295.972 188.9 296.14V297.358H188.004ZM187.78 290.134L188.004 290.19V286.928C186.968 287.068 186.338 287.67 186.338 288.566C186.338 289.378 186.8 289.896 187.78 290.134ZM189.166 291.744L188.9 291.688V294.922C189.95 294.782 190.594 294.18 190.594 293.298C190.594 292.486 190.132 291.968 189.166 291.744ZM200.402 296.168C198.33 296.168 196.986 294.852 196.986 292.836H198.344C198.344 294.138 199.142 294.936 200.43 294.936C201.802 294.936 202.684 294.026 202.684 292.654C202.684 291.352 201.858 290.386 200.444 290.386C199.59 290.386 198.806 290.792 198.344 291.366L197.182 291.072L198.414 285.878H203.482V287.138H199.408L198.736 289.826C199.268 289.42 199.94 289.21 200.696 289.21C202.754 289.21 204.084 290.652 204.084 292.598C204.084 294.698 202.586 296.168 200.402 296.168ZM205.272 290.946C205.272 287.81 206.896 285.682 209.444 285.682C211.978 285.682 213.602 287.81 213.602 290.946C213.602 294.096 212.048 296.182 209.444 296.182C206.826 296.182 205.272 294.096 205.272 290.946ZM206.63 290.946C206.63 293.438 207.666 294.95 209.444 294.95C211.222 294.95 212.244 293.438 212.244 290.946C212.244 288.426 211.222 286.914 209.444 286.914C207.666 286.914 206.63 288.426 206.63 290.946ZM214.979 290.946C214.979 287.81 216.603 285.682 219.151 285.682C221.685 285.682 223.309 287.81 223.309 290.946C223.309 294.096 221.755 296.182 219.151 296.182C216.533 296.182 214.979 294.096 214.979 290.946ZM216.337 290.946C216.337 293.438 217.373 294.95 219.151 294.95C220.929 294.95 221.951 293.438 221.951 290.946C221.951 288.426 220.929 286.914 219.151 286.914C217.373 286.914 216.337 288.426 216.337 290.946Z" fill="#192104"/>
<path d="M57.134 109V98.766H61.208C63.224 98.766 64.456 99.816 64.456 101.524C64.456 102.658 63.952 103.47 62.986 103.876C64.064 104.226 64.61 105.038 64.61 106.228C64.61 107.978 63.392 109 61.278 109H57.134ZM61.054 100.348H58.926V103.134H61.096C62.076 103.134 62.622 102.616 62.622 101.706C62.622 100.824 62.062 100.348 61.054 100.348ZM61.208 104.646H58.926V107.418H61.208C62.216 107.418 62.776 106.928 62.776 106.004C62.776 105.136 62.202 104.646 61.208 104.646ZM68.0591 109.182C66.5891 109.182 65.6931 108.328 65.6931 107.026C65.6931 105.752 66.6171 104.954 68.2551 104.828L70.3271 104.674V104.52C70.3271 103.582 69.7671 103.204 68.8991 103.204C67.8911 103.204 67.3311 103.624 67.3311 104.352H65.8751C65.8751 102.854 67.1071 101.874 68.9831 101.874C70.8451 101.874 71.9931 102.882 71.9931 104.8V109H70.4951L70.3691 107.978C70.0751 108.692 69.1371 109.182 68.0591 109.182ZM68.6191 107.894C69.6691 107.894 70.3411 107.264 70.3411 106.2V105.836L68.8991 105.948C67.8351 106.046 67.4291 106.396 67.4291 106.956C67.4291 107.586 67.8491 107.894 68.6191 107.894ZM75.3791 109H73.6711V102.084H75.2531L75.3931 102.98C75.8271 102.28 76.6671 101.874 77.6051 101.874C79.3411 101.874 80.2371 102.952 80.2371 104.744V109H78.5291V105.15C78.5291 103.988 77.9551 103.428 77.0731 103.428C76.0231 103.428 75.3791 104.156 75.3791 105.276V109ZM83.6372 109H81.9432V98.584H83.6372V104.982L86.3252 102.084H88.4672L85.8352 104.828L88.4112 109H86.4512L84.6452 106.088L83.6372 107.138V109ZM92.8858 101.622C92.8858 99.83 94.3698 98.584 96.5258 98.584C98.5978 98.584 99.9138 99.732 99.9698 101.58H98.1778C98.1358 100.698 97.5058 100.18 96.4978 100.18C95.3918 100.18 94.6778 100.712 94.6778 101.566C94.6778 102.294 95.0698 102.7 95.9238 102.896L97.5338 103.246C99.2838 103.624 100.138 104.52 100.138 106.046C100.138 107.95 98.6538 109.182 96.3998 109.182C94.2158 109.182 92.7878 108.02 92.7458 106.186H94.5378C94.5518 107.054 95.2518 107.572 96.3998 107.572C97.5898 107.572 98.3458 107.054 98.3458 106.2C98.3458 105.514 97.9958 105.108 97.1558 104.926L95.5318 104.562C93.7958 104.184 92.8858 103.19 92.8858 101.622ZM103.859 109H102.151V103.512H100.821V102.084H102.151V99.928H103.859V102.084H105.203V103.512H103.859V109ZM108.282 109.182C106.812 109.182 105.916 108.328 105.916 107.026C105.916 105.752 106.84 104.954 108.478 104.828L110.55 104.674V104.52C110.55 103.582 109.99 103.204 109.122 103.204C108.114 103.204 107.554 103.624 107.554 104.352H106.098C106.098 102.854 107.33 101.874 109.206 101.874C111.068 101.874 112.216 102.882 112.216 104.8V109H110.718L110.592 107.978C110.298 108.692 109.36 109.182 108.282 109.182ZM108.842 107.894C109.892 107.894 110.564 107.264 110.564 106.2V105.836L109.122 105.948C108.058 106.046 107.652 106.396 107.652 106.956C107.652 107.586 108.072 107.894 108.842 107.894ZM116.15 109H114.442V103.512H113.112V102.084H114.442V99.928H116.15V102.084H117.494V103.512H116.15V109ZM121.581 109.182C119.523 109.182 118.081 107.684 118.081 105.542C118.081 103.372 119.495 101.874 121.525 101.874C123.597 101.874 124.913 103.26 124.913 105.416V105.934L119.705 105.948C119.831 107.166 120.475 107.782 121.609 107.782C122.547 107.782 123.163 107.418 123.359 106.76H124.941C124.647 108.272 123.387 109.182 121.581 109.182ZM121.539 103.274C120.531 103.274 119.915 103.82 119.747 104.856H123.219C123.219 103.904 122.561 103.274 121.539 103.274ZM127.988 109H126.28V102.084H127.848L127.988 102.896C128.338 102.322 129.038 101.874 130.032 101.874C131.082 101.874 131.81 102.392 132.174 103.19C132.524 102.392 133.336 101.874 134.386 101.874C136.066 101.874 136.99 102.882 136.99 104.478V109H135.296V104.926C135.296 103.932 134.764 103.414 133.952 103.414C133.126 103.414 132.496 103.946 132.496 105.08V109H130.788V104.912C130.788 103.946 130.27 103.428 129.458 103.428C128.646 103.428 127.988 103.96 127.988 105.08V109ZM141.761 109.182C139.703 109.182 138.261 107.684 138.261 105.542C138.261 103.372 139.675 101.874 141.705 101.874C143.777 101.874 145.093 103.26 145.093 105.416V105.934L139.885 105.948C140.011 107.166 140.655 107.782 141.789 107.782C142.727 107.782 143.343 107.418 143.539 106.76H145.121C144.827 108.272 143.567 109.182 141.761 109.182ZM141.719 103.274C140.711 103.274 140.095 103.82 139.927 104.856H143.399C143.399 103.904 142.741 103.274 141.719 103.274ZM148.168 109H146.46V102.084H148.042L148.182 102.98C148.616 102.28 149.456 101.874 150.394 101.874C152.13 101.874 153.026 102.952 153.026 104.744V109H151.318V105.15C151.318 103.988 150.744 103.428 149.862 103.428C148.812 103.428 148.168 104.156 148.168 105.276V109ZM157.056 109H155.348V103.512H154.018V102.084H155.348V99.928H157.056V102.084H158.4V103.512H157.056V109Z" fill="#192104"/>
<path d="M232 142L320 64" stroke="#16582E" stroke-width="2" stroke-linecap="round"/>
<path d="M232 216L339.5 182" stroke="#16582E" stroke-width="2" stroke-linecap="round"/>
<rect x="60" y="168" width="66" height="6" rx="3" fill="#16582E"/>
<rect x="60" y="258" width="66" height="6" rx="3" fill="#16582E"/>
<rect x="60" y="288" width="66" height="6" rx="3" fill="#16582E"/>
<circle cx="340" cy="182" r="4" fill="#16582E"/>
<circle cx="321" cy="63" r="4" fill="#16582E"/>
<rect x="6" y="233" width="272" height="5" fill="#96D300"/>
<mask id="mask0_226_5279" style="mask-type:alpha" maskUnits="userSpaceOnUse" x="0" y="0" width="287" height="365">
<rect width="287" height="365" rx="7" fill="#EAEDD6"/>
</mask>
<g mask="url(#mask0_226_5279)">
<g filter="url(#filter0_f_226_5279)">
<rect x="126" y="269" width="154" height="129" rx="11" fill="#90945B"/>
</g>
</g>
<rect x="142" y="283" width="433" height="120" rx="11" fill="#EAEDD6"/>
<path d="M567 358L150 358" stroke="#96D300" stroke-width="0.5"/>
<path d="M567 320L150 320" stroke="#96D300"/>
<path d="M149 297C149 293.134 152.134 290 156 290H561C564.866 290 568 293.134 568 297V320H149V297Z" fill="#16582E"/>
<path d="M159.508 301.228V310H157.972V301.228H159.508ZM162.7 310H161.236V304.072H162.592L162.712 304.84C163.084 304.24 163.804 303.892 164.608 303.892C166.096 303.892 166.864 304.816 166.864 306.352V310H165.4V306.7C165.4 305.704 164.908 305.224 164.152 305.224C163.252 305.224 162.7 305.848 162.7 306.808V310ZM169.866 310L167.514 304.072H169.074L170.106 306.796C170.358 307.504 170.562 308.116 170.634 308.44C170.718 308.068 170.934 307.444 171.186 306.796L172.266 304.072H173.778L171.306 310H169.866ZM173.978 307.024C173.978 305.176 175.31 303.904 177.146 303.904C178.982 303.904 180.314 305.176 180.314 307.024C180.314 308.872 178.982 310.144 177.146 310.144C175.31 310.144 173.978 308.872 173.978 307.024ZM175.442 307.024C175.442 308.104 176.138 308.836 177.146 308.836C178.154 308.836 178.85 308.104 178.85 307.024C178.85 305.944 178.154 305.212 177.146 305.212C176.138 305.212 175.442 305.944 175.442 307.024ZM182.207 302.884C181.703 302.884 181.307 302.488 181.307 301.996C181.307 301.504 181.703 301.12 182.207 301.12C182.687 301.12 183.083 301.504 183.083 301.996C183.083 302.488 182.687 302.884 182.207 302.884ZM181.475 310V304.072H182.939V310H181.475ZM184.103 307.024C184.103 305.188 185.315 303.892 187.067 303.892C188.687 303.892 189.791 304.792 189.947 306.22H188.483C188.315 305.548 187.823 305.2 187.127 305.2C186.191 305.2 185.567 305.908 185.567 307.024C185.567 308.14 186.143 308.836 187.079 308.836C187.811 308.836 188.327 308.476 188.483 307.828H189.959C189.779 309.208 188.627 310.156 187.079 310.156C185.279 310.156 184.103 308.908 184.103 307.024ZM193.701 310.156C191.937 310.156 190.701 308.872 190.701 307.036C190.701 305.176 191.913 303.892 193.653 303.892C195.429 303.892 196.557 305.08 196.557 306.928V307.372L192.093 307.384C192.201 308.428 192.753 308.956 193.725 308.956C194.529 308.956 195.057 308.644 195.225 308.08H196.581C196.329 309.376 195.249 310.156 193.701 310.156ZM193.665 305.092C192.801 305.092 192.273 305.56 192.129 306.448H195.105C195.105 305.632 194.541 305.092 193.665 305.092ZM202.715 301.228V310H201.179V301.228H202.715ZM207.816 310H204.66V301.228H207.732C210.324 301.228 212.112 303.016 212.112 305.632C212.112 308.212 210.36 310 207.816 310ZM207.588 302.644H206.196V308.584H207.672C209.424 308.584 210.492 307.456 210.492 305.632C210.492 303.772 209.4 302.644 207.588 302.644Z" fill="#EAEDD6"/>
<path d="M245.68 310.144C243.124 310.144 241.468 308.368 241.468 305.62C241.468 302.896 243.184 301.084 245.752 301.084C247.828 301.084 249.376 302.296 249.676 304.18H248.056C247.756 303.16 246.88 302.56 245.716 302.56C244.096 302.56 243.076 303.736 243.076 305.608C243.076 307.468 244.108 308.668 245.716 308.668C246.904 308.668 247.816 308.044 248.104 307.072H249.7C249.364 308.92 247.756 310.144 245.68 310.144ZM254.881 304.072H256.345V310H254.989L254.881 309.208C254.521 309.772 253.753 310.156 252.961 310.156C251.593 310.156 250.789 309.232 250.789 307.78V304.072H252.253V307.264C252.253 308.392 252.697 308.848 253.513 308.848C254.437 308.848 254.881 308.308 254.881 307.18V304.072ZM257.284 308.2H258.676C258.688 308.716 259.072 309.04 259.744 309.04C260.428 309.04 260.8 308.764 260.8 308.332C260.8 308.032 260.644 307.816 260.116 307.696L259.048 307.444C257.98 307.204 257.464 306.7 257.464 305.752C257.464 304.588 258.448 303.892 259.816 303.892C261.148 303.892 262.048 304.66 262.06 305.812H260.668C260.656 305.308 260.32 304.984 259.756 304.984C259.18 304.984 258.844 305.248 258.844 305.692C258.844 306.028 259.108 306.244 259.612 306.364L260.68 306.616C261.676 306.844 262.18 307.3 262.18 308.212C262.18 309.412 261.16 310.156 259.696 310.156C258.22 310.156 257.284 309.364 257.284 308.2ZM265.311 310H263.847V305.296H262.707V304.072H263.847V302.224H265.311V304.072H266.463V305.296H265.311V310ZM266.967 307.024C266.967 305.176 268.299 303.904 270.135 303.904C271.971 303.904 273.303 305.176 273.303 307.024C273.303 308.872 271.971 310.144 270.135 310.144C268.299 310.144 266.967 308.872 266.967 307.024ZM268.431 307.024C268.431 308.104 269.127 308.836 270.135 308.836C271.143 308.836 271.839 308.104 271.839 307.024C271.839 305.944 271.143 305.212 270.135 305.212C269.127 305.212 268.431 305.944 268.431 307.024ZM275.927 310H274.463V304.072H275.807L275.927 304.768C276.227 304.276 276.827 303.892 277.679 303.892C278.579 303.892 279.203 304.336 279.515 305.02C279.815 304.336 280.511 303.892 281.411 303.892C282.851 303.892 283.643 304.756 283.643 306.124V310H282.191V306.508C282.191 305.656 281.735 305.212 281.039 305.212C280.331 305.212 279.791 305.668 279.791 306.64V310H278.327V306.496C278.327 305.668 277.883 305.224 277.187 305.224C276.491 305.224 275.927 305.68 275.927 306.64V310ZM287.732 310.156C285.968 310.156 284.732 308.872 284.732 307.036C284.732 305.176 285.944 303.892 287.684 303.892C289.46 303.892 290.588 305.08 290.588 306.928V307.372L286.124 307.384C286.232 308.428 286.784 308.956 287.756 308.956C288.56 308.956 289.088 308.644 289.256 308.08H290.612C290.36 309.376 289.28 310.156 287.732 310.156ZM287.696 305.092C286.832 305.092 286.304 305.56 286.16 306.448H289.136C289.136 305.632 288.572 305.092 287.696 305.092ZM295.48 304.048V305.404H294.94C293.884 305.404 293.224 305.968 293.224 307.12V310H291.76V304.084H293.14L293.224 304.948C293.476 304.36 294.04 303.964 294.832 303.964C295.036 303.964 295.24 303.988 295.48 304.048Z" fill="#EAEDD6"/>
<path d="M244.168 339.668L241.204 335.324H242.608L243.964 337.256C244.348 337.82 244.636 338.3 244.888 338.78L247.18 335.324H248.536L245.632 339.656L248.572 344H247.18L245.848 342.092C245.512 341.6 245.188 341.072 244.9 340.568L242.572 344H241.192L244.168 339.668ZM251.794 340.472L248.854 335.324H250.174L252.106 338.792C252.226 338.996 252.298 339.164 252.394 339.368C252.502 339.152 252.526 339.08 252.682 338.792L254.602 335.324H255.886L252.97 340.472V344H251.794V340.472ZM259.999 344.132C257.527 344.132 255.883 342.356 255.883 339.668C255.883 336.992 257.575 335.18 260.059 335.18C262.015 335.18 263.515 336.344 263.839 338.12H262.579C262.255 336.992 261.283 336.308 260.023 336.308C258.271 336.308 257.119 337.628 257.119 339.656C257.119 341.684 258.271 343.004 260.023 343.004C261.295 343.004 262.303 342.32 262.627 341.252H263.875C263.503 342.98 261.955 344.132 259.999 344.132ZM269.774 335.324V344H268.598V335.324H269.774ZM272.733 344H271.605V338.132H272.625L272.745 339.032C273.117 338.36 273.861 337.964 274.689 337.964C276.237 337.964 276.945 338.912 276.945 340.412V344H275.817V340.664C275.817 339.476 275.265 338.996 274.401 338.996C273.345 338.996 272.733 339.752 272.733 340.892V344ZM278.123 341.072C278.123 339.236 279.287 337.964 281.003 337.964C282.479 337.964 283.511 338.804 283.715 340.112H282.587C282.395 339.368 281.795 338.972 281.039 338.972C279.971 338.972 279.239 339.788 279.239 341.06C279.239 342.32 279.923 343.136 280.991 343.136C281.795 343.136 282.395 342.716 282.599 342.02H283.727C283.499 343.292 282.407 344.144 280.991 344.144C279.263 344.144 278.123 342.92 278.123 341.072ZM285.523 344.144C285.055 344.144 284.659 343.76 284.659 343.304C284.659 342.836 285.055 342.452 285.523 342.452C285.979 342.452 286.375 342.836 286.375 343.304C286.375 343.76 285.979 344.144 285.523 344.144Z" fill="#002211"/>
<path d="M242.368 382H241.144L244.312 373.324H245.62L248.8 382H247.564L246.784 379.84H243.136L242.368 382ZM244.816 375.196L243.496 378.82H246.436L245.104 375.196C245.044 375.028 244.984 374.824 244.96 374.692C244.936 374.812 244.876 375.016 244.816 375.196ZM249.953 382V373.324H253.265C254.957 373.324 255.989 374.188 255.989 375.616C255.989 376.612 255.557 377.284 254.693 377.644C255.653 377.956 256.145 378.652 256.145 379.684C256.145 381.124 255.101 382 253.385 382H249.953ZM253.193 374.368H251.129V377.152H253.265C254.237 377.152 254.789 376.624 254.789 375.724C254.789 374.86 254.213 374.368 253.193 374.368ZM253.361 378.172H251.129V380.956H253.361C254.369 380.956 254.933 380.44 254.933 379.54C254.933 378.676 254.357 378.172 253.361 378.172ZM261.217 382.132C258.745 382.132 257.101 380.356 257.101 377.668C257.101 374.992 258.793 373.18 261.277 373.18C263.233 373.18 264.733 374.344 265.057 376.12H263.797C263.473 374.992 262.501 374.308 261.241 374.308C259.489 374.308 258.337 375.628 258.337 377.656C258.337 379.684 259.489 381.004 261.241 381.004C262.513 381.004 263.521 380.32 263.845 379.252H265.093C264.721 380.98 263.173 382.132 261.217 382.132ZM270.993 373.324V382H269.817V373.324H270.993ZM273.952 382H272.824V376.132H273.844L273.964 377.032C274.336 376.36 275.08 375.964 275.908 375.964C277.456 375.964 278.164 376.912 278.164 378.412V382H277.036V378.664C277.036 377.476 276.484 376.996 275.62 376.996C274.564 376.996 273.952 377.752 273.952 378.892V382ZM279.342 379.072C279.342 377.236 280.506 375.964 282.222 375.964C283.698 375.964 284.73 376.804 284.934 378.112H283.806C283.614 377.368 283.014 376.972 282.258 376.972C281.19 376.972 280.458 377.788 280.458 379.06C280.458 380.32 281.142 381.136 282.21 381.136C283.014 381.136 283.614 380.716 283.818 380.02H284.946C284.718 381.292 283.626 382.144 282.21 382.144C280.482 382.144 279.342 380.92 279.342 379.072ZM286.742 382.144C286.274 382.144 285.878 381.76 285.878 381.304C285.878 380.836 286.274 380.452 286.742 380.452C287.198 380.452 287.594 380.836 287.594 381.304C287.594 381.76 287.198 382.144 286.742 382.144Z" fill="#002211"/>
<path d="M157.744 340.532H158.944L159.28 338.792H157.888L158.104 337.736H159.496L159.964 335.324H161.08L160.612 337.736H162.448L162.916 335.324H164.044L163.576 337.736H164.812L164.608 338.792H163.36L163.024 340.532H164.368L164.164 341.588H162.808L162.34 344H161.224L161.692 341.588H159.844L159.376 344H158.26L158.728 341.588H157.528L157.744 340.532ZM160.06 340.532H161.896L162.244 338.792H160.396L160.06 340.532ZM167.539 335.324V344H166.363V335.324H167.539ZM170.739 344H169.563V335.324H170.739L175.179 342.032V335.324H176.355V344H175.179L170.739 337.292V344ZM180.787 344L177.487 335.324H178.747L180.859 340.868C181.051 341.36 181.219 341.852 181.399 342.5C181.603 341.816 181.807 341.24 181.951 340.856L184.051 335.324H185.275L182.011 344H180.787ZM188.899 344.144C187.123 344.144 185.971 343.016 185.971 341.288H187.135C187.135 342.404 187.819 343.088 188.923 343.088C190.099 343.088 190.855 342.308 190.855 341.132C190.855 340.016 190.147 339.188 188.935 339.188C188.203 339.188 187.531 339.536 187.135 340.028L186.139 339.776L187.195 335.324H191.539V336.404H188.047L187.471 338.708C187.927 338.36 188.503 338.18 189.151 338.18C190.915 338.18 192.055 339.416 192.055 341.084C192.055 342.884 190.771 344.144 188.899 344.144ZM194.176 338.072L196.204 335.324H197.572L195.4 338.204C195.7 338.084 196.012 338.024 196.312 338.024C198.112 338.024 199.324 339.32 199.324 341.036C199.324 342.848 197.956 344.144 196.168 344.144C194.368 344.144 192.976 342.788 192.976 341.036C192.976 340.004 193.288 339.284 194.176 338.072ZM194.176 341.048C194.176 342.236 194.992 343.088 196.168 343.088C197.32 343.088 198.136 342.236 198.136 341.048C198.136 339.86 197.32 339.02 196.168 339.02C194.992 339.02 194.176 339.86 194.176 341.048Z" fill="#002211"/>
<path d="M157.744 378.532H158.944L159.28 376.792H157.888L158.104 375.736H159.496L159.964 373.324H161.08L160.612 375.736H162.448L162.916 373.324H164.044L163.576 375.736H164.812L164.608 376.792H163.36L163.024 378.532H164.368L164.164 379.588H162.808L162.34 382H161.224L161.692 379.588H159.844L159.376 382H158.26L158.728 379.588H157.528L157.744 378.532ZM160.06 378.532H161.896L162.244 376.792H160.396L160.06 378.532ZM167.539 373.324V382H166.363V373.324H167.539ZM170.739 382H169.563V373.324H170.739L175.179 380.032V373.324H176.355V382H175.179L170.739 375.292V382ZM180.787 382L177.487 373.324H178.747L180.859 378.868C181.051 379.36 181.219 379.852 181.399 380.5C181.603 379.816 181.807 379.24 181.951 378.856L184.051 373.324H185.275L182.011 382H180.787ZM187.639 374.38H185.815V373.324H188.767V382H187.639V374.38ZM196.174 381.988L190.318 382V381.1L193.114 378.688C194.518 377.476 194.914 376.888 194.914 375.964C194.914 374.872 194.29 374.224 193.246 374.224C192.178 374.224 191.482 375.004 191.458 376.24H190.282C190.318 374.38 191.494 373.168 193.258 373.168C194.998 373.168 196.114 374.224 196.114 375.892C196.114 377.128 195.502 378.004 193.966 379.336L192.166 380.896H196.174V381.988Z" fill="#002211"/>
<path d="M332.204 302.644V301.228H338.876V302.644H336.308V310H334.772V302.644H332.204ZM340.339 310H338.671L340.711 307.096L338.671 304.072H340.375L341.683 306.088L342.943 304.072H344.587L342.571 307.072L344.527 310H342.847L341.587 308.044L340.339 310ZM346.923 310H345.459V304.072H346.815L346.935 304.84C347.307 304.24 348.027 303.892 348.831 303.892C350.319 303.892 351.087 304.816 351.087 306.352V310H349.623V306.7C349.623 305.704 349.131 305.224 348.375 305.224C347.475 305.224 346.923 305.848 346.923 306.808V310ZM357.488 310H355.976V301.228H357.5L361.616 307.444V301.228H363.128V310H361.616L357.488 303.784V310ZM364.506 307.024C364.506 305.176 365.838 303.904 367.674 303.904C369.51 303.904 370.842 305.176 370.842 307.024C370.842 308.872 369.51 310.144 367.674 310.144C365.838 310.144 364.506 308.872 364.506 307.024ZM365.97 307.024C365.97 308.104 366.666 308.836 367.674 308.836C368.682 308.836 369.378 308.104 369.378 307.024C369.378 305.944 368.682 305.212 367.674 305.212C366.666 305.212 365.97 305.944 365.97 307.024ZM372.623 310.144C372.095 310.144 371.651 309.712 371.651 309.196C371.651 308.668 372.095 308.236 372.623 308.236C373.151 308.236 373.595 308.668 373.595 309.196C373.595 309.712 373.151 310.144 372.623 310.144Z" fill="#EAEDD6"/>
<path d="M335.168 339.668L332.204 335.324H333.608L334.964 337.256C335.348 337.82 335.636 338.3 335.888 338.78L338.18 335.324H339.536L336.632 339.656L339.572 344H338.18L336.848 342.092C336.512 341.6 336.188 341.072 335.9 340.568L333.572 344H332.192L335.168 339.668ZM342.794 340.472L339.854 335.324H341.174L343.106 338.792C343.226 338.996 343.298 339.164 343.394 339.368C343.502 339.152 343.526 339.08 343.682 338.792L345.602 335.324H346.886L343.97 340.472V344H342.794V340.472ZM353.576 344H347.444V342.908L352.1 336.404H347.516V335.324H353.564V336.38L348.872 342.908H353.576V344ZM356.252 336.38H354.428V335.324H357.38V344H356.252V336.38ZM364.787 343.988L358.931 344V343.1L361.727 340.688C363.131 339.476 363.527 338.888 363.527 337.964C363.527 336.872 362.903 336.224 361.859 336.224C360.791 336.224 360.095 337.004 360.071 338.24H358.895C358.931 336.38 360.107 335.168 361.871 335.168C363.611 335.168 364.727 336.224 364.727 337.892C364.727 339.128 364.115 340.004 362.579 341.336L360.779 342.896H364.787V343.988Z" fill="#002211"/>
<path d="M333.368 382H332.144L335.312 373.324H336.62L339.8 382H338.564L337.784 379.84H334.136L333.368 382ZM335.816 375.196L334.496 378.82H337.436L336.104 375.196C336.044 375.028 335.984 374.824 335.96 374.692C335.936 374.812 335.876 375.016 335.816 375.196ZM340.953 382V373.324H344.265C345.957 373.324 346.989 374.188 346.989 375.616C346.989 376.612 346.557 377.284 345.693 377.644C346.653 377.956 347.145 378.652 347.145 379.684C347.145 381.124 346.101 382 344.385 382H340.953ZM344.193 374.368H342.129V377.152H344.265C345.237 377.152 345.789 376.624 345.789 375.724C345.789 374.86 345.213 374.368 344.193 374.368ZM344.361 378.172H342.129V380.956H344.361C345.369 380.956 345.933 380.44 345.933 379.54C345.933 378.676 345.357 378.172 344.361 378.172ZM352.217 382.132C349.745 382.132 348.101 380.356 348.101 377.668C348.101 374.992 349.793 373.18 352.277 373.18C354.233 373.18 355.733 374.344 356.057 376.12H354.797C354.473 374.992 353.501 374.308 352.241 374.308C350.489 374.308 349.337 375.628 349.337 377.656C349.337 379.684 350.489 381.004 352.241 381.004C353.513 381.004 354.521 380.32 354.845 379.252H356.093C355.721 380.98 354.173 382.132 352.217 382.132ZM358.771 374.38H356.947V373.324H359.899V382H358.771V374.38ZM367.306 381.988L361.45 382V381.1L364.246 378.688C365.65 377.476 366.046 376.888 366.046 375.964C366.046 374.872 365.422 374.224 364.378 374.224C363.31 374.224 362.614 375.004 362.59 376.24H361.414C361.45 374.38 362.626 373.168 364.39 373.168C366.13 373.168 367.246 374.224 367.246 375.892C367.246 377.128 366.634 378.004 365.098 379.336L363.298 380.896H367.306V381.988ZM370.414 381.532C370.414 382.396 369.766 383.116 368.914 383.224V382.72C369.406 382.636 369.754 382.312 369.754 381.94C369.67 381.988 369.574 382.012 369.43 382.012C369.034 382.012 368.698 381.724 368.698 381.28C368.698 380.8 369.022 380.452 369.502 380.452C370.006 380.452 370.414 380.872 370.414 381.532ZM375.872 382H374.648L377.816 373.324H379.124L382.304 382H381.068L380.288 379.84H376.64L375.872 382ZM378.32 375.196L377 378.82H379.94L378.608 375.196C378.548 375.028 378.488 374.824 378.464 374.692C378.44 374.812 378.38 375.016 378.32 375.196ZM383.457 382V373.324H386.769C388.461 373.324 389.493 374.188 389.493 375.616C389.493 376.612 389.061 377.284 388.197 377.644C389.157 377.956 389.649 378.652 389.649 379.684C389.649 381.124 388.605 382 386.889 382H383.457ZM386.697 374.368H384.633V377.152H386.769C387.741 377.152 388.293 376.624 388.293 375.724C388.293 374.86 387.717 374.368 386.697 374.368ZM386.865 378.172H384.633V380.956H386.865C387.873 380.956 388.437 380.44 388.437 379.54C388.437 378.676 387.861 378.172 386.865 378.172ZM391.769 382.144C391.301 382.144 390.905 381.76 390.905 381.304C390.905 380.836 391.301 380.452 391.769 380.452C392.225 380.452 392.621 380.836 392.621 381.304C392.621 381.76 392.225 382.144 391.769 382.144ZM394.541 382.144C394.061 382.144 393.677 381.76 393.677 381.304C393.677 380.836 394.061 380.452 394.541 380.452C394.997 380.452 395.393 380.836 395.393 381.304C395.393 381.76 394.997 382.144 394.541 382.144ZM397.301 382.144C396.833 382.144 396.449 381.76 396.449 381.304C396.449 380.836 396.833 380.452 397.301 380.452C397.769 380.452 398.165 380.836 398.165 381.304C398.165 381.76 397.769 382.144 397.301 382.144Z" fill="#002211"/>
<path d="M496.468 303.676C496.468 302.14 497.74 301.072 499.588 301.072C501.364 301.072 502.492 302.056 502.54 303.64H501.004C500.968 302.884 500.428 302.44 499.564 302.44C498.616 302.44 498.004 302.896 498.004 303.628C498.004 304.252 498.34 304.6 499.072 304.768L500.452 305.068C501.952 305.392 502.684 306.16 502.684 307.468C502.684 309.1 501.412 310.156 499.48 310.156C497.608 310.156 496.384 309.16 496.348 307.588H497.884C497.896 308.332 498.496 308.776 499.48 308.776C500.5 308.776 501.148 308.332 501.148 307.6C501.148 307.012 500.848 306.664 500.128 306.508L498.736 306.196C497.248 305.872 496.468 305.02 496.468 303.676ZM505.874 310H504.41V305.296H503.27V304.072H504.41V302.224H505.874V304.072H507.026V305.296H505.874V310ZM509.665 310.156C508.405 310.156 507.637 309.424 507.637 308.308C507.637 307.216 508.429 306.532 509.833 306.424L511.609 306.292V306.16C511.609 305.356 511.129 305.032 510.385 305.032C509.521 305.032 509.041 305.392 509.041 306.016H507.793C507.793 304.732 508.849 303.892 510.457 303.892C512.053 303.892 513.037 304.756 513.037 306.4V310H511.753L511.645 309.124C511.393 309.736 510.589 310.156 509.665 310.156ZM510.145 309.052C511.045 309.052 511.621 308.512 511.621 307.6V307.288L510.385 307.384C509.473 307.468 509.125 307.768 509.125 308.248C509.125 308.788 509.485 309.052 510.145 309.052ZM516.409 310H514.945V305.296H513.805V304.072H514.945V302.224H516.409V304.072H517.561V305.296H516.409V310ZM522.491 304.072H523.955V310H522.599L522.491 309.208C522.131 309.772 521.363 310.156 520.571 310.156C519.203 310.156 518.399 309.232 518.399 307.78V304.072H519.863V307.264C519.863 308.392 520.307 308.848 521.123 308.848C522.047 308.848 522.491 308.308 522.491 307.18V304.072ZM524.894 308.2H526.286C526.298 308.716 526.682 309.04 527.354 309.04C528.038 309.04 528.41 308.764 528.41 308.332C528.41 308.032 528.254 307.816 527.726 307.696L526.658 307.444C525.59 307.204 525.074 306.7 525.074 305.752C525.074 304.588 526.058 303.892 527.426 303.892C528.758 303.892 529.658 304.66 529.67 305.812H528.278C528.266 305.308 527.93 304.984 527.366 304.984C526.79 304.984 526.454 305.248 526.454 305.692C526.454 306.028 526.718 306.244 527.222 306.364L528.29 306.616C529.286 306.844 529.79 307.3 529.79 308.212C529.79 309.412 528.77 310.156 527.306 310.156C525.83 310.156 524.894 309.364 524.894 308.2Z" fill="#EAEDD6"/>
<path d="M423.226 310H421.63L424.798 301.228H426.37L429.538 310H427.918L427.21 307.972H423.934L423.226 310ZM425.386 303.844L424.39 306.676H426.766L425.758 303.844C425.686 303.616 425.602 303.352 425.578 303.172C425.542 303.34 425.47 303.604 425.386 303.844ZM431.886 310H430.422V304.072H431.766L431.886 304.768C432.186 304.276 432.786 303.892 433.638 303.892C434.538 303.892 435.162 304.336 435.474 305.02C435.774 304.336 436.47 303.892 437.37 303.892C438.81 303.892 439.602 304.756 439.602 306.124V310H438.15V306.508C438.15 305.656 437.694 305.212 436.998 305.212C436.29 305.212 435.75 305.668 435.75 306.64V310H434.286V306.496C434.286 305.668 433.842 305.224 433.146 305.224C432.45 305.224 431.886 305.68 431.886 306.64V310ZM440.691 307.024C440.691 305.176 442.023 303.904 443.859 303.904C445.695 303.904 447.027 305.176 447.027 307.024C447.027 308.872 445.695 310.144 443.859 310.144C442.023 310.144 440.691 308.872 440.691 307.024ZM442.155 307.024C442.155 308.104 442.851 308.836 443.859 308.836C444.867 308.836 445.563 308.104 445.563 307.024C445.563 305.944 444.867 305.212 443.859 305.212C442.851 305.212 442.155 305.944 442.155 307.024ZM452.067 304.072H453.531V310H452.175L452.067 309.208C451.707 309.772 450.939 310.156 450.147 310.156C448.779 310.156 447.975 309.232 447.975 307.78V304.072H449.439V307.264C449.439 308.392 449.883 308.848 450.699 308.848C451.623 308.848 452.067 308.308 452.067 307.18V304.072ZM456.507 310H455.043V304.072H456.399L456.519 304.84C456.891 304.24 457.611 303.892 458.415 303.892C459.903 303.892 460.671 304.816 460.671 306.352V310H459.207V306.7C459.207 305.704 458.715 305.224 457.959 305.224C457.059 305.224 456.507 305.848 456.507 306.808V310ZM464.125 310H462.661V305.296H461.521V304.072H462.661V302.224H464.125V304.072H465.277V305.296H464.125V310Z" fill="#EAEDD6"/>
<path d="M423.691 345.164V344.132C422.107 344.036 421.063 343.136 420.991 341.732H422.191C422.215 342.5 422.779 343.004 423.691 343.1V340.112L423.259 340.016C421.843 339.692 421.111 338.9 421.111 337.664C421.111 336.296 422.131 335.324 423.691 335.192V334.148H424.459V335.18C425.911 335.312 426.835 336.2 426.919 337.592H425.755C425.707 336.824 425.239 336.332 424.459 336.224V339.2L424.927 339.308C426.367 339.632 427.063 340.388 427.063 341.588C427.063 343.016 426.043 343.976 424.459 344.12V345.164H423.691ZM423.499 338.972L423.691 339.02V336.224C422.803 336.344 422.263 336.86 422.263 337.628C422.263 338.324 422.659 338.768 423.499 338.972ZM424.687 340.352L424.459 340.304V343.076C425.359 342.956 425.911 342.44 425.911 341.684C425.911 340.988 425.515 340.544 424.687 340.352ZM434.318 344.144C432.542 344.144 431.39 343.016 431.39 341.288H432.554C432.554 342.404 433.238 343.088 434.342 343.088C435.518 343.088 436.274 342.308 436.274 341.132C436.274 340.016 435.566 339.188 434.354 339.188C433.622 339.188 432.95 339.536 432.554 340.028L431.558 339.776L432.614 335.324H436.958V336.404H433.466L432.89 338.708C433.346 338.36 433.922 338.18 434.57 338.18C436.334 338.18 437.474 339.416 437.474 341.084C437.474 342.884 436.19 344.144 434.318 344.144ZM440.154 343.532C440.154 344.396 439.506 345.116 438.654 345.224V344.72C439.146 344.636 439.494 344.312 439.494 343.94C439.41 343.988 439.314 344.012 439.17 344.012C438.774 344.012 438.438 343.724 438.438 343.28C438.438 342.8 438.762 342.452 439.242 342.452C439.746 342.452 440.154 342.872 440.154 343.532ZM441.058 339.668C441.058 336.98 442.45 335.156 444.634 335.156C446.806 335.156 448.198 336.98 448.198 339.668C448.198 342.368 446.866 344.156 444.634 344.156C442.39 344.156 441.058 342.368 441.058 339.668ZM442.222 339.668C442.222 341.804 443.11 343.1 444.634 343.1C446.158 343.1 447.034 341.804 447.034 339.668C447.034 337.508 446.158 336.212 444.634 336.212C443.11 336.212 442.222 337.508 442.222 339.668ZM449.379 339.668C449.379 336.98 450.771 335.156 452.955 335.156C455.127 335.156 456.519 336.98 456.519 339.668C456.519 342.368 455.187 344.156 452.955 344.156C450.711 344.156 449.379 342.368 449.379 339.668ZM450.543 339.668C450.543 341.804 451.431 343.1 452.955 343.1C454.479 343.1 455.355 341.804 455.355 339.668C455.355 337.508 454.479 336.212 452.955 336.212C451.431 336.212 450.543 337.508 450.543 339.668ZM457.699 339.668C457.699 336.98 459.091 335.156 461.275 335.156C463.447 335.156 464.839 336.98 464.839 339.668C464.839 342.368 463.507 344.156 461.275 344.156C459.031 344.156 457.699 342.368 457.699 339.668ZM458.863 339.668C458.863 341.804 459.751 343.1 461.275 343.1C462.799 343.1 463.675 341.804 463.675 339.668C463.675 337.508 462.799 336.212 461.275 336.212C459.751 336.212 458.863 337.508 458.863 339.668Z" fill="#002211"/>
<path d="M422.777 383.164V382.132C421.193 382.036 420.149 381.136 420.077 379.732H421.277C421.301 380.5 421.865 381.004 422.777 381.1V378.112L422.345 378.016C420.929 377.692 420.197 376.9 420.197 375.664C420.197 374.296 421.217 373.324 422.777 373.192V372.148H423.545V373.18C424.997 373.312 425.921 374.2 426.005 375.592H424.841C424.793 374.824 424.325 374.332 423.545 374.224V377.2L424.013 377.308C425.453 377.632 426.149 378.388 426.149 379.588C426.149 381.016 425.129 381.976 423.545 382.12V383.164H422.777ZM422.585 376.972L422.777 377.02V374.224C421.889 374.344 421.349 374.86 421.349 375.628C421.349 376.324 421.745 376.768 422.585 376.972ZM423.773 378.352L423.545 378.304V381.076C424.445 380.956 424.997 380.44 424.997 379.684C424.997 378.988 424.601 378.544 423.773 378.352ZM432.144 374.38H430.32V373.324H433.272V382H432.144V374.38ZM434.788 379.588C434.788 378.544 435.4 377.704 436.36 377.356C435.544 377.008 435.1 376.324 435.1 375.448C435.1 374.092 436.264 373.168 437.992 373.168C439.696 373.168 440.848 374.092 440.848 375.46C440.848 376.348 440.392 377.032 439.576 377.356C440.548 377.668 441.172 378.532 441.172 379.6C441.172 381.124 439.9 382.144 437.98 382.144C436.048 382.144 434.788 381.124 434.788 379.588ZM436.18 375.52C436.18 376.372 436.888 376.924 437.968 376.924C439.06 376.924 439.744 376.384 439.744 375.544C439.744 374.716 439.06 374.188 437.968 374.188C436.888 374.188 436.18 374.716 436.18 375.52ZM435.94 379.504C435.94 380.476 436.744 381.1 437.98 381.1C439.204 381.1 440.008 380.476 440.008 379.504C440.008 378.544 439.216 377.932 437.968 377.932C436.732 377.932 435.94 378.544 435.94 379.504ZM444.103 381.532C444.103 382.396 443.455 383.116 442.603 383.224V382.72C443.095 382.636 443.443 382.312 443.443 381.94C443.359 381.988 443.263 382.012 443.119 382.012C442.723 382.012 442.387 381.724 442.387 381.28C442.387 380.8 442.711 380.452 443.191 380.452C443.695 380.452 444.103 380.872 444.103 381.532ZM445.008 377.668C445.008 374.98 446.4 373.156 448.584 373.156C450.756 373.156 452.148 374.98 452.148 377.668C452.148 380.368 450.816 382.156 448.584 382.156C446.34 382.156 445.008 380.368 445.008 377.668ZM446.172 377.668C446.172 379.804 447.06 381.1 448.584 381.1C450.108 381.1 450.984 379.804 450.984 377.668C450.984 375.508 450.108 374.212 448.584 374.212C447.06 374.212 446.172 375.508 446.172 377.668ZM454.984 374.38H453.16V373.324H456.112V382H454.984V374.38ZM457.699 377.668C457.699 374.98 459.091 373.156 461.275 373.156C463.447 373.156 464.839 374.98 464.839 377.668C464.839 380.368 463.507 382.156 461.275 382.156C459.031 382.156 457.699 380.368 457.699 377.668ZM458.863 377.668C458.863 379.804 459.751 381.1 461.275 381.1C462.799 381.1 463.675 379.804 463.675 377.668C463.675 375.508 462.799 374.212 461.275 374.212C459.751 374.212 458.863 375.508 458.863 377.668Z" fill="#002211"/>
<rect x="497" y="337.5" width="5" height="5" rx="1" fill="#00954A"/>
<rect x="497" y="375.5" width="5" height="5" rx="1" fill="#00954A"/>
<path d="M510.38 341.904H508.184V345H507.008V336.324H510.38C512.084 336.324 513.176 337.44 513.176 339.108C513.176 340.728 512.072 341.904 510.38 341.904ZM510.176 337.38H508.184V340.848H510.128C511.292 340.848 511.94 340.164 511.94 339.096C511.94 338.004 511.28 337.38 510.176 337.38ZM515.798 345.144C514.538 345.144 513.794 344.436 513.794 343.368C513.794 342.288 514.598 341.616 515.978 341.508L517.826 341.364V341.196C517.826 340.212 517.238 339.864 516.446 339.864C515.498 339.864 514.958 340.284 514.958 340.992H513.974C513.974 339.768 514.982 338.964 516.494 338.964C517.946 338.964 518.93 339.732 518.93 341.316V345H517.97L517.85 344.052C517.55 344.724 516.746 345.144 515.798 345.144ZM516.122 344.268C517.19 344.268 517.838 343.572 517.838 342.468V342.156L516.338 342.276C515.342 342.372 514.934 342.756 514.934 343.332C514.934 343.956 515.39 344.268 516.122 344.268ZM521.044 337.74C520.636 337.74 520.3 337.404 520.3 336.996C520.3 336.576 520.636 336.252 521.044 336.252C521.452 336.252 521.788 336.576 521.788 336.996C521.788 337.404 521.452 337.74 521.044 337.74ZM520.492 345V339.132H521.62V345H520.492ZM525.609 345.144C523.905 345.144 522.873 343.872 522.873 342.084C522.873 340.284 523.917 338.964 525.657 338.964C526.557 338.964 527.313 339.36 527.709 340.08V336.168H528.825V345H527.817L527.721 343.932C527.337 344.736 526.545 345.144 525.609 345.144ZM525.837 344.124C526.989 344.124 527.697 343.272 527.697 342.048C527.697 340.848 526.989 339.984 525.837 339.984C524.685 339.984 524.013 340.848 524.013 342.048C524.013 343.26 524.685 344.124 525.837 344.124Z" fill="#002211"/>
<path d="M510.38 379.904H508.184V383H507.008V374.324H510.38C512.084 374.324 513.176 375.44 513.176 377.108C513.176 378.728 512.072 379.904 510.38 379.904ZM510.176 375.38H508.184V378.848H510.128C511.292 378.848 511.94 378.164 511.94 377.096C511.94 376.004 511.28 375.38 510.176 375.38ZM515.798 383.144C514.538 383.144 513.794 382.436 513.794 381.368C513.794 380.288 514.598 379.616 515.978 379.508L517.826 379.364V379.196C517.826 378.212 517.238 377.864 516.446 377.864C515.498 377.864 514.958 378.284 514.958 378.992H513.974C513.974 377.768 514.982 376.964 516.494 376.964C517.946 376.964 518.93 377.732 518.93 379.316V383H517.97L517.85 382.052C517.55 382.724 516.746 383.144 515.798 383.144ZM516.122 382.268C517.19 382.268 517.838 381.572 517.838 380.468V380.156L516.338 380.276C515.342 380.372 514.934 380.756 514.934 381.332C514.934 381.956 515.39 382.268 516.122 382.268ZM523.852 377.084V378.116H523.348C522.28 378.116 521.62 378.764 521.62 379.892V383H520.492V377.144H521.548L521.62 378.032C521.86 377.42 522.448 377.012 523.252 377.012C523.456 377.012 523.624 377.036 523.852 377.084ZM526.8 383H525.672V378.08H524.52V377.132H525.672V375.296H526.8V377.132H527.952V378.08H526.8V383ZM529.516 375.74C529.108 375.74 528.772 375.404 528.772 374.996C528.772 374.576 529.108 374.252 529.516 374.252C529.924 374.252 530.26 374.576 530.26 374.996C530.26 375.404 529.924 375.74 529.516 375.74ZM528.964 383V377.132H530.092V383H528.964ZM533.446 383.144C532.186 383.144 531.442 382.436 531.442 381.368C531.442 380.288 532.246 379.616 533.626 379.508L535.474 379.364V379.196C535.474 378.212 534.886 377.864 534.094 377.864C533.146 377.864 532.606 378.284 532.606 378.992H531.622C531.622 377.768 532.63 376.964 534.142 376.964C535.594 376.964 536.578 377.732 536.578 379.316V383H535.618L535.498 382.052C535.198 382.724 534.394 383.144 533.446 383.144ZM533.77 382.268C534.838 382.268 535.486 381.572 535.486 380.468V380.156L533.986 380.276C532.99 380.372 532.582 380.756 532.582 381.332C532.582 381.956 533.038 382.268 533.77 382.268ZM539.292 383H538.164V374.168H539.292V383Z" fill="#002211"/>
<defs>
<filter id="filter0_f_226_5279" x="6" y="149" width="394" height="369" filterUnits="userSpaceOnUse" color-interpolation-filters="sRGB">
<feFlood flood-opacity="0" result="BackgroundImageFix"/>
<feBlend mode="normal" in="SourceGraphic" in2="BackgroundImageFix" result="shape"/>
<feGaussianBlur stdDeviation="60" result="effect1_foregroundBlur_226_5279"/>
</filter>
</defs>
</svg>
