<svg width="528" height="511" viewBox="0 0 528 511" fill="none" xmlns="http://www.w3.org/2000/svg">
<rect width="325" height="311" rx="6.20795" fill="#EAEDD6"/>
<path d="M163 147C88.4416 147 28 207.442 28 282H298C298 207.442 237.558 147 163 147Z" fill="#16582E"/>
<mask id="mask0_226_5355" style="mask-type:alpha" maskUnits="userSpaceOnUse" x="28" y="147" width="270" height="135">
<path d="M163 147C88.4416 147 28 207.442 28 282H298C298 207.442 237.558 147 163 147Z" fill="#16582E"/>
</mask>
<g mask="url(#mask0_226_5355)">
<path fill-rule="evenodd" clip-rule="evenodd" d="M209.093 198.25C207.419 197.283 205.279 197.857 204.312 199.531L161.687 273.36C157.338 272.697 152.832 274.698 150.5 278.737C147.462 283.998 149.265 290.726 154.526 293.763C159.787 296.801 166.515 294.998 169.552 289.737C172.07 285.377 171.262 280.009 167.917 276.569L210.374 203.031C211.341 201.357 210.767 199.216 209.093 198.25Z" fill="white"/>
</g>
<path d="M24.752 32.502L20.306 25.986H22.412L24.446 28.884C25.022 29.73 25.454 30.45 25.832 31.17L29.27 25.986H31.304L26.948 32.484L31.358 39H29.27L27.272 36.138C26.768 35.4 26.282 34.608 25.85 33.852L22.358 39H20.288L24.752 32.502ZM36.1916 33.708L31.7816 25.986H33.7616L36.6596 31.188C36.8396 31.494 36.9476 31.746 37.0916 32.052C37.2536 31.728 37.2896 31.62 37.5236 31.188L40.4036 25.986H42.3296L37.9556 33.708V39H36.1916V33.708ZM52.3636 39H43.1656V37.362L50.1496 27.606H43.2736V25.986H52.3456V27.57L45.3076 37.362H52.3636V39ZM61.2096 25.986V39H59.4456V25.986H61.2096ZM65.6484 39H63.9564V30.198H65.4864L65.6664 31.548C66.2244 30.54 67.3404 29.946 68.5824 29.946C70.9044 29.946 71.9664 31.368 71.9664 33.618V39H70.2744V33.996C70.2744 32.214 69.4464 31.494 68.1504 31.494C66.5664 31.494 65.6484 32.628 65.6484 34.338V39ZM73.7339 34.608C73.7339 31.854 75.4799 29.946 78.0539 29.946C80.2679 29.946 81.8159 31.206 82.1219 33.168H80.4299C80.1419 32.052 79.2419 31.458 78.1079 31.458C76.5059 31.458 75.4079 32.682 75.4079 34.59C75.4079 36.48 76.4339 37.704 78.0359 37.704C79.2419 37.704 80.1419 37.074 80.4479 36.03H82.1399C81.7979 37.938 80.1599 39.216 78.0359 39.216C75.4439 39.216 73.7339 37.38 73.7339 34.608ZM84.8336 39.216C84.1316 39.216 83.5376 38.64 83.5376 37.956C83.5376 37.254 84.1316 36.678 84.8336 36.678C85.5176 36.678 86.1116 37.254 86.1116 37.956C86.1116 38.64 85.5176 39.216 84.8336 39.216Z" fill="#192104"/>
<mask id="mask1_226_5355" style="mask-type:alpha" maskUnits="userSpaceOnUse" x="0" y="0" width="325" height="311">
<rect width="325" height="311" rx="6.20795" fill="#EAEDD6"/>
</mask>
<g mask="url(#mask1_226_5355)">
<g filter="url(#filter0_f_226_5355)">
<rect x="177" y="178" width="189" height="174" rx="6.20795" fill="#90945B"/>
</g>
</g>
<rect x="287" y="88" width="241" height="68" rx="3" fill="#00954A"/>
<path d="M306.548 114.132C304.148 114.132 302.516 112.344 302.516 109.704C302.516 107.064 304.172 105.264 306.596 105.264C308.444 105.264 309.896 106.38 310.244 108.084H309.32C308.96 106.848 307.904 106.092 306.56 106.092C304.676 106.092 303.416 107.532 303.416 109.704C303.416 111.864 304.676 113.304 306.56 113.304C307.916 113.304 308.996 112.572 309.368 111.42H310.292C309.896 113.04 308.396 114.132 306.548 114.132ZM314.642 108.12V108.864H314.186C313.118 108.864 312.434 109.584 312.434 110.688V114H311.606V108.192H312.386L312.446 109.092C312.674 108.468 313.286 108.06 314.102 108.06C314.282 108.06 314.438 108.072 314.642 108.12ZM317.956 114.144C316.252 114.144 315.112 112.92 315.112 111.096C315.112 109.284 316.24 108.036 317.896 108.036C319.468 108.036 320.536 109.152 320.536 110.796V111.204H315.916C315.976 112.62 316.72 113.436 317.968 113.436C318.916 113.436 319.528 113.028 319.744 112.26H320.536C320.224 113.484 319.324 114.144 317.956 114.144ZM317.896 108.744C316.804 108.744 316.084 109.464 315.94 110.604H319.708C319.708 109.488 318.988 108.744 317.896 108.744ZM324.14 114.144C322.448 114.144 321.452 112.848 321.452 111.108C321.452 109.356 322.448 108.036 324.176 108.036C325.136 108.036 325.904 108.456 326.312 109.296V105.252H327.14V114H326.42L326.336 112.812C325.928 113.712 325.112 114.144 324.14 114.144ZM324.284 113.388C325.556 113.388 326.3 112.428 326.3 111.084C326.3 109.752 325.556 108.78 324.284 108.78C323.024 108.78 322.292 109.752 322.292 111.084C322.292 112.428 323.024 113.388 324.284 113.388ZM329.276 106.596C328.94 106.596 328.664 106.32 328.664 105.984C328.664 105.648 328.94 105.36 329.276 105.36C329.612 105.36 329.9 105.648 329.9 105.984C329.9 106.32 329.612 106.596 329.276 106.596ZM328.868 114V108.192H329.696V114H328.868ZM332.755 114H331.939V108.888H330.775V108.192H331.939V106.356H332.755V108.192H333.919V108.888H332.755V114ZM337.989 107.64C337.989 106.2 339.141 105.252 340.869 105.252C342.417 105.252 343.437 106.116 343.569 107.556H342.693C342.597 106.584 341.937 106.032 340.857 106.032C339.645 106.032 338.853 106.656 338.853 107.628C338.853 108.384 339.297 108.864 340.197 109.092L341.673 109.452C343.017 109.776 343.713 110.544 343.713 111.708C343.713 113.196 342.561 114.144 340.785 114.144C339.117 114.144 337.989 113.268 337.881 111.864H338.769C338.817 112.764 339.609 113.352 340.785 113.352C342.045 113.352 342.849 112.74 342.849 111.756C342.849 110.988 342.417 110.484 341.493 110.268L340.041 109.908C338.697 109.584 337.989 108.816 337.989 107.64ZM344.679 111.108C344.679 109.284 345.795 108.036 347.487 108.036C348.831 108.036 349.815 108.816 350.043 110.016H349.215C348.999 109.212 348.303 108.768 347.499 108.768C346.323 108.768 345.495 109.668 345.495 111.096C345.495 112.476 346.263 113.4 347.439 113.4C348.303 113.4 348.999 112.92 349.227 112.176H350.067C349.791 113.364 348.759 114.144 347.439 114.144C345.795 114.144 344.679 112.932 344.679 111.108ZM350.913 111.096C350.913 109.32 352.161 108.036 353.865 108.036C355.569 108.036 356.817 109.32 356.817 111.096C356.817 112.86 355.569 114.144 353.865 114.144C352.161 114.144 350.913 112.86 350.913 111.096ZM351.753 111.084C351.753 112.452 352.617 113.4 353.865 113.4C355.101 113.4 355.977 112.452 355.977 111.084C355.977 109.74 355.101 108.78 353.865 108.78C352.617 108.78 351.753 109.74 351.753 111.084ZM361.177 108.12V108.864H360.721C359.653 108.864 358.969 109.584 358.969 110.688V114H358.141V108.192H358.921L358.981 109.092C359.209 108.468 359.821 108.06 360.637 108.06C360.817 108.06 360.973 108.072 361.177 108.12ZM364.491 114.144C362.787 114.144 361.647 112.92 361.647 111.096C361.647 109.284 362.775 108.036 364.431 108.036C366.003 108.036 367.071 109.152 367.071 110.796V111.204H362.451C362.511 112.62 363.255 113.436 364.503 113.436C365.451 113.436 366.063 113.028 366.279 112.26H367.071C366.759 113.484 365.859 114.144 364.491 114.144ZM364.431 108.744C363.339 108.744 362.619 109.464 362.475 110.604H366.243C366.243 109.488 365.523 108.744 364.431 108.744Z" fill="#EAEDD6"/>
<path d="M306.672 138.192C304.304 138.192 302.768 136.688 302.768 134.384H304.32C304.32 135.872 305.232 136.784 306.704 136.784C308.272 136.784 309.28 135.744 309.28 134.176C309.28 132.688 308.336 131.584 306.72 131.584C305.744 131.584 304.848 132.048 304.32 132.704L302.992 132.368L304.4 126.432H310.192V127.872H305.536L304.768 130.944C305.376 130.48 306.144 130.24 307.008 130.24C309.36 130.24 310.88 131.888 310.88 134.112C310.88 136.512 309.168 138.192 306.672 138.192ZM313.709 130.096L316.413 126.432H318.237L315.341 130.272C315.741 130.112 316.157 130.032 316.557 130.032C318.957 130.032 320.573 131.76 320.573 134.048C320.573 136.464 318.749 138.192 316.365 138.192C313.965 138.192 312.109 136.384 312.109 134.048C312.109 132.672 312.525 131.712 313.709 130.096ZM313.709 134.064C313.709 135.648 314.797 136.784 316.365 136.784C317.901 136.784 318.989 135.648 318.989 134.064C318.989 132.48 317.901 131.36 316.365 131.36C314.797 131.36 313.709 132.48 313.709 134.064ZM322.018 132.224C322.018 128.64 323.874 126.208 326.786 126.208C329.682 126.208 331.538 128.64 331.538 132.224C331.538 135.824 329.762 138.208 326.786 138.208C323.794 138.208 322.018 135.824 322.018 132.224ZM323.57 132.224C323.57 135.072 324.754 136.8 326.786 136.8C328.818 136.8 329.986 135.072 329.986 132.224C329.986 129.344 328.818 127.616 326.786 127.616C324.754 127.616 323.57 129.344 323.57 132.224ZM333.582 138H332.094L336.606 126.448H338.11L333.582 138ZM338.549 134.784C338.549 133.392 339.365 132.272 340.645 131.808C339.557 131.344 338.965 130.432 338.965 129.264C338.965 127.456 340.517 126.224 342.821 126.224C345.093 126.224 346.629 127.456 346.629 129.28C346.629 130.464 346.021 131.376 344.933 131.808C346.229 132.224 347.061 133.376 347.061 134.8C347.061 136.832 345.365 138.192 342.805 138.192C340.229 138.192 338.549 136.832 338.549 134.784ZM340.405 129.36C340.405 130.496 341.349 131.232 342.789 131.232C344.245 131.232 345.157 130.512 345.157 129.392C345.157 128.288 344.245 127.584 342.789 127.584C341.349 127.584 340.405 128.288 340.405 129.36ZM340.085 134.672C340.085 135.968 341.157 136.8 342.805 136.8C344.437 136.8 345.509 135.968 345.509 134.672C345.509 133.392 344.453 132.576 342.789 132.576C341.141 132.576 340.085 133.392 340.085 134.672ZM348.581 132.224C348.581 128.64 350.437 126.208 353.349 126.208C356.245 126.208 358.101 128.64 358.101 132.224C358.101 135.824 356.325 138.208 353.349 138.208C350.357 138.208 348.581 135.824 348.581 132.224ZM350.133 132.224C350.133 135.072 351.317 136.8 353.349 136.8C355.381 136.8 356.549 135.072 356.549 132.224C356.549 129.344 355.381 127.616 353.349 127.616C351.317 127.616 350.133 129.344 350.133 132.224ZM359.675 132.224C359.675 128.64 361.531 126.208 364.443 126.208C367.339 126.208 369.195 128.64 369.195 132.224C369.195 135.824 367.419 138.208 364.443 138.208C361.451 138.208 359.675 135.824 359.675 132.224ZM361.227 132.224C361.227 135.072 362.411 136.8 364.443 136.8C366.475 136.8 367.643 135.072 367.643 132.224C367.643 129.344 366.475 127.616 364.443 127.616C362.411 127.616 361.227 129.344 361.227 132.224Z" fill="#EAEDD6"/>
<path d="M422.908 114H422.044V105.408H425.248C426.988 105.408 428.044 106.368 428.044 107.892C428.044 109.128 427.396 109.992 426.292 110.292L428.128 114H427.168L425.416 110.436H422.908V114ZM422.908 106.188V109.656H425.272C426.46 109.656 427.156 109.008 427.156 107.916C427.156 106.8 426.424 106.188 425.248 106.188H422.908ZM429.948 106.596C429.612 106.596 429.336 106.32 429.336 105.984C429.336 105.648 429.612 105.36 429.948 105.36C430.284 105.36 430.572 105.648 430.572 105.984C430.572 106.32 430.284 106.596 429.948 106.596ZM429.54 114V108.192H430.368V114H429.54ZM431.602 112.368H432.394C432.394 113.04 432.898 113.46 433.714 113.46C434.614 113.46 435.142 113.076 435.142 112.452C435.142 111.972 434.902 111.696 434.218 111.528L433.222 111.276C432.214 111.024 431.722 110.496 431.722 109.704C431.722 108.684 432.574 108.036 433.822 108.036C435.046 108.036 435.838 108.708 435.874 109.788H435.07C435.046 109.116 434.578 108.72 433.798 108.72C432.982 108.72 432.526 109.068 432.526 109.692C432.526 110.136 432.838 110.448 433.474 110.604L434.47 110.856C435.478 111.108 435.934 111.576 435.934 112.416C435.934 113.46 435.046 114.144 433.726 114.144C432.418 114.144 431.602 113.448 431.602 112.368ZM438.162 114H437.334V105.252H438.162V111.192L441.042 108.192H442.086L439.854 110.508L442.098 114H441.138L439.29 111.096L438.162 112.26V114ZM445.695 106.2V105.408H451.851V106.2H449.199V114H448.335V106.2H445.695ZM451.862 116.532V115.848H452.498C453.002 115.848 453.506 115.812 453.794 115.032L454.046 114.348L451.694 108.192H452.57L454.442 113.256L456.278 108.192H457.13L454.466 115.332C454.13 116.244 453.566 116.616 452.738 116.616C452.39 116.616 452.126 116.592 451.862 116.532ZM458.098 116.532V108.192H458.818L458.902 109.368C459.31 108.468 460.126 108.036 461.098 108.036C462.778 108.036 463.786 109.32 463.786 111.072C463.786 112.824 462.814 114.144 461.098 114.144C460.114 114.144 459.334 113.724 458.926 112.884V116.532H458.098ZM458.938 111.096C458.938 112.428 459.682 113.4 460.954 113.4C462.214 113.4 462.946 112.428 462.946 111.096C462.946 109.752 462.214 108.792 460.954 108.792C459.682 108.792 458.938 109.752 458.938 111.096ZM467.542 114.144C465.838 114.144 464.698 112.92 464.698 111.096C464.698 109.284 465.826 108.036 467.482 108.036C469.054 108.036 470.122 109.152 470.122 110.796V111.204H465.502C465.562 112.62 466.306 113.436 467.554 113.436C468.502 113.436 469.114 113.028 469.33 112.26H470.122C469.81 113.484 468.91 114.144 467.542 114.144ZM467.482 108.744C466.39 108.744 465.67 109.464 465.526 110.604H469.294C469.294 109.488 468.574 108.744 467.482 108.744Z" fill="#EAEDD6"/>
<path d="M423.88 138H422.344V126.432H423.88L427.864 136.16L431.848 126.432H433.416V138H431.88V133.424C431.88 131.264 431.896 130.48 431.976 129.664L428.6 138H427.128L423.768 129.696C423.848 130.256 423.88 131.44 423.88 133.056V138ZM439.23 138.192C436.926 138.192 435.342 136.528 435.342 134.096C435.342 131.648 436.894 129.952 439.166 129.952C441.39 129.952 442.846 131.488 442.846 133.808V134.368L436.798 134.384C436.91 136.032 437.774 136.944 439.262 136.944C440.43 136.944 441.198 136.464 441.454 135.568H442.862C442.478 137.248 441.166 138.192 439.23 138.192ZM439.166 131.216C437.854 131.216 437.022 132 436.83 133.376H441.342C441.342 132.08 440.494 131.216 439.166 131.216ZM447.661 138.192C445.39 138.192 444.014 136.496 444.014 134.112C444.014 131.712 445.406 129.952 447.726 129.952C448.926 129.952 449.934 130.48 450.462 131.44V126.224H451.95V138H450.606L450.478 136.576C449.966 137.648 448.91 138.192 447.661 138.192ZM447.966 136.832C449.502 136.832 450.446 135.696 450.446 134.064C450.446 132.464 449.502 131.312 447.966 131.312C446.43 131.312 445.534 132.464 445.534 134.064C445.534 135.68 446.43 136.832 447.966 136.832ZM454.855 128.32C454.311 128.32 453.863 127.872 453.863 127.328C453.863 126.768 454.311 126.336 454.855 126.336C455.399 126.336 455.847 126.768 455.847 127.328C455.847 127.872 455.399 128.32 454.855 128.32ZM454.119 138V130.176H455.623V138H454.119ZM462.73 130.176H464.218V138H462.874L462.714 136.816C462.266 137.632 461.226 138.192 460.074 138.192C458.25 138.192 457.226 136.96 457.226 135.04V130.176H458.73V134.544C458.73 136.224 459.45 136.864 460.602 136.864C461.978 136.864 462.73 135.984 462.73 134.304V130.176ZM467.905 138H466.401V130.176H467.745L467.889 131.2C468.289 130.464 469.121 129.952 470.225 129.952C471.441 129.952 472.305 130.56 472.705 131.536C473.073 130.56 474.017 129.952 475.233 129.952C477.025 129.952 478.113 131.072 478.113 132.88V138H476.641V133.248C476.641 132.016 475.953 131.312 474.897 131.312C473.76 131.312 473.009 132.112 473.009 133.36V138H471.521V133.232C471.521 132 470.849 131.328 469.793 131.328C468.657 131.328 467.905 132.112 467.905 133.36V138ZM486.396 138H484.828V126.432H489.196C491.676 126.432 493.148 127.744 493.148 129.904C493.148 131.504 492.348 132.656 490.908 133.12L493.26 138H491.516L489.356 133.424H486.396V138ZM486.396 127.84V132.032H489.212C490.668 132.032 491.5 131.248 491.5 129.92C491.5 128.576 490.636 127.84 489.196 127.84H486.396ZM495.777 128.32C495.233 128.32 494.785 127.872 494.785 127.328C494.785 126.768 495.233 126.336 495.777 126.336C496.321 126.336 496.769 126.768 496.769 127.328C496.769 127.872 496.321 128.32 495.777 128.32ZM495.041 138V130.176H496.545V138H495.041ZM498.089 135.728H499.529C499.529 136.528 500.137 137.008 501.129 137.008C502.185 137.008 502.793 136.576 502.793 135.856C502.793 135.328 502.537 135.008 501.721 134.8L500.345 134.48C498.953 134.144 498.297 133.456 498.297 132.304C498.297 130.864 499.513 129.952 501.241 129.952C502.953 129.952 504.073 130.912 504.105 132.4H502.665C502.633 131.616 502.105 131.12 501.193 131.12C500.249 131.12 499.721 131.536 499.721 132.256C499.721 132.784 500.105 133.136 500.873 133.328L502.249 133.664C503.577 133.984 504.233 134.592 504.233 135.76C504.233 137.248 502.953 138.192 501.097 138.192C499.257 138.192 498.089 137.216 498.089 135.728ZM507.437 138H505.933V126.224H507.437V133.856L510.909 130.176H512.797L509.805 133.296L512.781 138H511.053L508.765 134.384L507.437 135.776V138Z" fill="#EAEDD6"/>
<rect x="196" y="190" width="325" height="321" rx="6.20795" fill="#EAEDD6"/>
<rect x="216.25" y="210.25" width="284.5" height="83.5" rx="2.75" stroke="#90945B" stroke-width="0.5"/>
<path d="M236 267H481" stroke="#16582E" stroke-width="3"/>
<path d="M358 267C358 271.418 361.582 275 366 275C370.418 275 374 271.418 374 267C374 262.582 370.418 259 366 259C361.582 259 358 262.582 358 267ZM236 268.5H366V265.5H236V268.5Z" fill="#00954A"/>
<path d="M239.608 236.132C237.136 236.132 235.492 234.356 235.492 231.668C235.492 228.992 237.184 227.18 239.668 227.18C241.624 227.18 243.124 228.344 243.448 230.12H242.188C241.864 228.992 240.892 228.308 239.632 228.308C237.88 228.308 236.728 229.628 236.728 231.656C236.728 233.684 237.88 235.004 239.632 235.004C240.904 235.004 241.912 234.32 242.236 233.252H243.484C243.112 234.98 241.564 236.132 239.608 236.132ZM248.094 230.084V231.116H247.59C246.522 231.116 245.862 231.764 245.862 232.892V236H244.734V230.144H245.79L245.862 231.032C246.102 230.42 246.69 230.012 247.494 230.012C247.698 230.012 247.866 230.036 248.094 230.084ZM251.473 236.144C249.745 236.144 248.557 234.896 248.557 233.072C248.557 231.236 249.721 229.964 251.425 229.964C253.093 229.964 254.185 231.116 254.185 232.856V233.276L249.649 233.288C249.733 234.524 250.381 235.208 251.497 235.208C252.373 235.208 252.949 234.848 253.141 234.176H254.197C253.909 235.436 252.925 236.144 251.473 236.144ZM251.425 230.912C250.441 230.912 249.817 231.5 249.673 232.532H253.057C253.057 231.56 252.421 230.912 251.425 230.912ZM257.797 236.144C256.093 236.144 255.061 234.872 255.061 233.084C255.061 231.284 256.105 229.964 257.845 229.964C258.745 229.964 259.501 230.36 259.897 231.08V227.168H261.013V236H260.005L259.909 234.932C259.525 235.736 258.733 236.144 257.797 236.144ZM258.025 235.124C259.177 235.124 259.885 234.272 259.885 233.048C259.885 231.848 259.177 230.984 258.025 230.984C256.873 230.984 256.201 231.848 256.201 233.048C256.201 234.26 256.873 235.124 258.025 235.124ZM263.192 228.74C262.784 228.74 262.448 228.404 262.448 227.996C262.448 227.576 262.784 227.252 263.192 227.252C263.6 227.252 263.936 227.576 263.936 227.996C263.936 228.404 263.6 228.74 263.192 228.74ZM262.64 236V230.132H263.768V236H262.64ZM267.062 236H265.934V231.08H264.782V230.132H265.934V228.296H267.062V230.132H268.214V231.08H267.062V236ZM273.875 227.324V234.908H277.691V236H272.699V227.324H273.875ZM279.329 228.74C278.921 228.74 278.585 228.404 278.585 227.996C278.585 227.576 278.921 227.252 279.329 227.252C279.737 227.252 280.073 227.576 280.073 227.996C280.073 228.404 279.737 228.74 279.329 228.74ZM278.777 236V230.132H279.905V236H278.777ZM282.671 236H281.543V230.132H282.551L282.659 230.9C282.959 230.348 283.583 229.964 284.411 229.964C285.323 229.964 285.971 230.42 286.271 231.152C286.547 230.42 287.255 229.964 288.167 229.964C289.511 229.964 290.327 230.804 290.327 232.16V236H289.223V232.436C289.223 231.512 288.707 230.984 287.915 230.984C287.063 230.984 286.499 231.584 286.499 232.52V236H285.383V232.424C285.383 231.5 284.879 230.996 284.087 230.996C283.235 230.996 282.671 231.584 282.671 232.52V236ZM292.442 228.74C292.034 228.74 291.698 228.404 291.698 227.996C291.698 227.576 292.034 227.252 292.442 227.252C292.85 227.252 293.186 227.576 293.186 227.996C293.186 228.404 292.85 228.74 292.442 228.74ZM291.89 236V230.132H293.018V236H291.89ZM296.312 236H295.184V231.08H294.032V230.132H295.184V228.296H296.312V230.132H297.464V231.08H296.312V236Z" fill="#192104"/>
<path d="M220.38 318.904H218.184V322H217.008V313.324H220.38C222.084 313.324 223.176 314.44 223.176 316.108C223.176 317.728 222.072 318.904 220.38 318.904ZM220.176 314.38H218.184V317.848H220.128C221.292 317.848 221.94 317.164 221.94 316.096C221.94 315.004 221.28 314.38 220.176 314.38ZM227.676 316.084V317.116H227.172C226.104 317.116 225.444 317.764 225.444 318.892V322H224.316V316.144H225.372L225.444 317.032C225.684 316.42 226.272 316.012 227.076 316.012C227.28 316.012 227.448 316.036 227.676 316.084ZM229.286 314.74C228.878 314.74 228.542 314.404 228.542 313.996C228.542 313.576 228.878 313.252 229.286 313.252C229.694 313.252 230.03 313.576 230.03 313.996C230.03 314.404 229.694 314.74 229.286 314.74ZM228.734 322V316.132H229.862V322H228.734ZM231.116 319.072C231.116 317.236 232.28 315.964 233.996 315.964C235.472 315.964 236.504 316.804 236.708 318.112H235.58C235.388 317.368 234.788 316.972 234.032 316.972C232.964 316.972 232.232 317.788 232.232 319.06C232.232 320.32 232.916 321.136 233.984 321.136C234.788 321.136 235.388 320.716 235.592 320.02H236.72C236.492 321.292 235.4 322.144 233.984 322.144C232.256 322.144 231.116 320.92 231.116 319.072ZM238.462 314.74C238.054 314.74 237.718 314.404 237.718 313.996C237.718 313.576 238.054 313.252 238.462 313.252C238.87 313.252 239.206 313.576 239.206 313.996C239.206 314.404 238.87 314.74 238.462 314.74ZM237.91 322V316.132H239.038V322H237.91ZM241.803 322H240.675V316.132H241.695L241.815 317.032C242.187 316.36 242.931 315.964 243.759 315.964C245.307 315.964 246.015 316.912 246.015 318.412V322H244.887V318.664C244.887 317.476 244.335 316.996 243.471 316.996C242.415 316.996 241.803 317.752 241.803 318.892V322ZM247.206 318.916C247.206 317.26 248.274 315.964 249.978 315.964C250.926 315.964 251.658 316.396 252.03 317.128L252.114 316.132H253.122V321.76C253.122 323.608 251.982 324.784 250.182 324.784C248.586 324.784 247.494 323.884 247.278 322.396H248.406C248.55 323.26 249.198 323.764 250.182 323.764C251.286 323.764 252.006 323.044 252.006 321.928V320.752C251.622 321.436 250.854 321.844 249.93 321.844C248.262 321.844 247.206 320.56 247.206 318.916ZM248.334 318.892C248.334 319.996 249.018 320.86 250.122 320.86C251.262 320.86 251.958 320.044 251.958 318.892C251.958 317.764 251.286 316.948 250.134 316.948C249.006 316.948 248.334 317.812 248.334 318.892Z" fill="#192104"/>
<path d="M292.31 371.216C289.556 371.216 287.738 369.452 287.738 366.788H290.024C290.024 368.282 290.906 369.164 292.364 369.164C293.912 369.164 294.902 368.156 294.902 366.554C294.902 365.024 293.984 363.98 292.4 363.98C291.392 363.98 290.474 364.484 290.006 365.168L287.972 364.736L289.592 357.842H296.45V359.966H291.248L290.546 362.702C291.176 362.288 291.968 362.054 292.868 362.054C295.496 362.054 297.242 363.836 297.242 366.428C297.242 369.272 295.244 371.216 292.31 371.216ZM298.567 364.448C298.567 360.362 300.763 357.59 304.129 357.59C307.495 357.59 309.709 360.362 309.709 364.448C309.709 368.516 307.621 371.234 304.129 371.234C300.637 371.234 298.567 368.516 298.567 364.448ZM300.835 364.448C300.835 367.49 302.059 369.2 304.129 369.2C306.217 369.2 307.441 367.49 307.441 364.448C307.441 361.334 306.217 359.624 304.129 359.624C302.059 359.624 300.835 361.334 300.835 364.448ZM313.902 370.208C313.902 371.702 312.822 372.89 311.364 373.07V372.188C312.174 372.044 312.786 371.558 312.786 370.928C312.642 371 312.48 371.036 312.264 371.036C311.562 371.036 310.986 370.514 310.986 369.794C310.986 368.93 311.544 368.354 312.354 368.354C313.254 368.354 313.902 369.092 313.902 370.208ZM315.196 364.448C315.196 360.362 317.392 357.59 320.758 357.59C324.124 357.59 326.338 360.362 326.338 364.448C326.338 368.516 324.25 371.234 320.758 371.234C317.266 371.234 315.196 368.516 315.196 364.448ZM317.464 364.448C317.464 367.49 318.688 369.2 320.758 369.2C322.846 369.2 324.07 367.49 324.07 364.448C324.07 361.334 322.846 359.624 320.758 359.624C318.688 359.624 317.464 361.334 317.464 364.448ZM327.887 364.448C327.887 360.362 330.083 357.59 333.449 357.59C336.815 357.59 339.029 360.362 339.029 364.448C339.029 368.516 336.941 371.234 333.449 371.234C329.957 371.234 327.887 368.516 327.887 364.448ZM330.155 364.448C330.155 367.49 331.379 369.2 333.449 369.2C335.537 369.2 336.761 367.49 336.761 364.448C336.761 361.334 335.537 359.624 333.449 359.624C331.379 359.624 330.155 361.334 330.155 364.448ZM340.579 364.448C340.579 360.362 342.775 357.59 346.141 357.59C349.507 357.59 351.721 360.362 351.721 364.448C351.721 368.516 349.633 371.234 346.141 371.234C342.649 371.234 340.579 368.516 340.579 364.448ZM342.847 364.448C342.847 367.49 344.071 369.2 346.141 369.2C348.229 369.2 349.453 367.49 349.453 364.448C349.453 361.334 348.229 359.624 346.141 359.624C344.071 359.624 342.847 361.334 342.847 364.448Z" fill="#16582E"/>
<rect x="216" y="339" width="49" height="49" rx="3" fill="#16582E"/>
<path d="M239.68 372.71V371.216C237.178 371.036 235.576 369.578 235.522 367.382H237.826C237.844 368.408 238.51 369.056 239.68 369.2V365.366L239.104 365.24C236.836 364.754 235.702 363.494 235.702 361.514C235.702 359.408 237.286 357.896 239.68 357.644V356.114H241.066V357.644C243.334 357.878 244.738 359.3 244.81 361.46H242.578C242.542 360.488 242.002 359.858 241.066 359.66V363.53L241.678 363.674C243.982 364.178 245.026 365.294 245.026 367.202C245.026 369.398 243.478 370.91 241.066 371.18V372.71H239.68ZM239.608 363.206L239.68 363.224V359.642C238.6 359.822 237.952 360.47 237.952 361.442C237.952 362.396 238.456 362.954 239.608 363.206ZM241.192 365.69L241.066 365.654V369.164C242.146 368.948 242.794 368.318 242.794 367.4C242.794 366.482 242.272 365.924 241.192 365.69Z" fill="white"/>
<rect x="273.5" y="339.5" width="133" height="48" rx="2.5" stroke="#16582E"/>
<rect x="216" y="407" width="285" height="84" rx="3" fill="#16582E"/>
<path d="M236 464H481" stroke="#00954A" stroke-width="3"/>
<path d="M411 464C411 468.418 414.582 472 419 472C423.418 472 427 468.418 427 464C427 459.582 423.418 456 419 456C414.582 456 411 459.582 411 464ZM236 465.5H419V462.5H236V465.5Z" fill="white"/>
<path d="M239.608 433.132C237.136 433.132 235.492 431.356 235.492 428.668C235.492 425.992 237.184 424.18 239.668 424.18C241.624 424.18 243.124 425.344 243.448 427.12H242.188C241.864 425.992 240.892 425.308 239.632 425.308C237.88 425.308 236.728 426.628 236.728 428.656C236.728 430.684 237.88 432.004 239.632 432.004C240.904 432.004 241.912 431.32 242.236 430.252H243.484C243.112 431.98 241.564 433.132 239.608 433.132ZM248.094 427.084V428.116H247.59C246.522 428.116 245.862 428.764 245.862 429.892V433H244.734V427.144H245.79L245.862 428.032C246.102 427.42 246.69 427.012 247.494 427.012C247.698 427.012 247.866 427.036 248.094 427.084ZM251.473 433.144C249.745 433.144 248.557 431.896 248.557 430.072C248.557 428.236 249.721 426.964 251.425 426.964C253.093 426.964 254.185 428.116 254.185 429.856V430.276L249.649 430.288C249.733 431.524 250.381 432.208 251.497 432.208C252.373 432.208 252.949 431.848 253.141 431.176H254.197C253.909 432.436 252.925 433.144 251.473 433.144ZM251.425 427.912C250.441 427.912 249.817 428.5 249.673 429.532H253.057C253.057 428.56 252.421 427.912 251.425 427.912ZM257.797 433.144C256.093 433.144 255.061 431.872 255.061 430.084C255.061 428.284 256.105 426.964 257.845 426.964C258.745 426.964 259.501 427.36 259.897 428.08V424.168H261.013V433H260.005L259.909 431.932C259.525 432.736 258.733 433.144 257.797 433.144ZM258.025 432.124C259.177 432.124 259.885 431.272 259.885 430.048C259.885 428.848 259.177 427.984 258.025 427.984C256.873 427.984 256.201 428.848 256.201 430.048C256.201 431.26 256.873 432.124 258.025 432.124ZM263.192 425.74C262.784 425.74 262.448 425.404 262.448 424.996C262.448 424.576 262.784 424.252 263.192 424.252C263.6 424.252 263.936 424.576 263.936 424.996C263.936 425.404 263.6 425.74 263.192 425.74ZM262.64 433V427.132H263.768V433H262.64ZM267.062 433H265.934V428.08H264.782V427.132H265.934V425.296H267.062V427.132H268.214V428.08H267.062V433ZM276.071 429.904H273.875V433H272.699V424.324H276.071C277.775 424.324 278.867 425.44 278.867 427.108C278.867 428.728 277.763 429.904 276.071 429.904ZM275.867 425.38H273.875V428.848H275.819C276.983 428.848 277.631 428.164 277.631 427.096C277.631 426.004 276.971 425.38 275.867 425.38ZM282.27 433.144C280.542 433.144 279.354 431.896 279.354 430.072C279.354 428.236 280.518 426.964 282.222 426.964C283.89 426.964 284.982 428.116 284.982 429.856V430.276L280.446 430.288C280.53 431.524 281.178 432.208 282.294 432.208C283.17 432.208 283.746 431.848 283.938 431.176H284.994C284.706 432.436 283.722 433.144 282.27 433.144ZM282.222 427.912C281.238 427.912 280.614 428.5 280.47 429.532H283.854C283.854 428.56 283.218 427.912 282.222 427.912ZM289.602 427.084V428.116H289.098C288.03 428.116 287.37 428.764 287.37 429.892V433H286.242V427.144H287.298L287.37 428.032C287.61 427.42 288.198 427.012 289.002 427.012C289.206 427.012 289.374 427.036 289.602 427.084ZM291.212 425.74C290.804 425.74 290.468 425.404 290.468 424.996C290.468 424.576 290.804 424.252 291.212 424.252C291.62 424.252 291.956 424.576 291.956 424.996C291.956 425.404 291.62 425.74 291.212 425.74ZM290.66 433V427.132H291.788V433H290.66ZM293.041 430.06C293.041 428.248 294.337 426.976 296.101 426.976C297.853 426.976 299.149 428.248 299.149 430.06C299.149 431.872 297.853 433.144 296.101 433.144C294.337 433.144 293.041 431.872 293.041 430.06ZM294.181 430.06C294.181 431.284 294.961 432.136 296.101 432.136C297.229 432.136 298.021 431.284 298.021 430.06C298.021 428.836 297.229 427.984 296.101 427.984C294.961 427.984 294.181 428.836 294.181 430.06ZM302.75 433.144C301.046 433.144 300.014 431.872 300.014 430.084C300.014 428.284 301.058 426.964 302.798 426.964C303.698 426.964 304.454 427.36 304.85 428.08V424.168H305.966V433H304.958L304.862 431.932C304.478 432.736 303.686 433.144 302.75 433.144ZM302.978 432.124C304.13 432.124 304.838 431.272 304.838 430.048C304.838 428.848 304.13 427.984 302.978 427.984C301.826 427.984 301.154 428.848 301.154 430.048C301.154 431.26 301.826 432.124 302.978 432.124Z" fill="white"/>
<path fill-rule="evenodd" clip-rule="evenodd" d="M377 391C375.343 391 374 392.343 374 394V439C374 440.657 375.343 442 377 442H414.665L419.07 448.142L423.475 442H460C461.657 442 463 440.657 463 439V394C463 392.343 461.657 391 460 391H377Z" fill="#96D300"/>
<path d="M395.962 420.498H394.36V423H392.182V420.498H385.504V418.482L391.462 409.842H394.36V418.482H395.962V420.498ZM387.952 418.482H392.182V412.326L387.952 418.482ZM401.841 423.216C399.087 423.216 397.269 421.452 397.269 418.788H399.555C399.555 420.282 400.437 421.164 401.895 421.164C403.443 421.164 404.433 420.156 404.433 418.554C404.433 417.024 403.515 415.98 401.931 415.98C400.923 415.98 400.005 416.484 399.537 417.168L397.503 416.736L399.123 409.842H405.981V411.966H400.779L400.077 414.702C400.707 414.288 401.499 414.054 402.399 414.054C405.027 414.054 406.773 415.836 406.773 418.428C406.773 421.272 404.775 423.216 401.841 423.216ZM418.368 423H413.634V409.842H418.242C422.13 409.842 424.812 412.524 424.812 416.448C424.812 420.318 422.184 423 418.368 423ZM418.026 411.966H415.938V420.876H418.152C420.78 420.876 422.382 419.184 422.382 416.448C422.382 413.658 420.744 411.966 418.026 411.966ZM429.28 423.234C427.39 423.234 426.238 422.136 426.238 420.462C426.238 418.824 427.426 417.798 429.532 417.636L432.196 417.438V417.24C432.196 416.034 431.476 415.548 430.36 415.548C429.064 415.548 428.344 416.088 428.344 417.024H426.472C426.472 415.098 428.056 413.838 430.468 413.838C432.862 413.838 434.338 415.134 434.338 417.6V423H432.412L432.25 421.686C431.872 422.604 430.666 423.234 429.28 423.234ZM430 421.578C431.35 421.578 432.214 420.768 432.214 419.4V418.932L430.36 419.076C428.992 419.202 428.47 419.652 428.47 420.372C428.47 421.182 429.01 421.578 430 421.578ZM435.475 427.122V425.286H436.789C437.653 425.286 438.193 425.088 438.571 424.044L438.823 423.378L435.241 414.108H437.563L439.849 420.588L442.261 414.108H444.529L440.173 424.98C439.507 426.636 438.571 427.32 437.113 427.32C436.501 427.32 435.961 427.248 435.475 427.122ZM444.899 420.3H446.987C447.005 421.074 447.581 421.56 448.589 421.56C449.615 421.56 450.173 421.146 450.173 420.498C450.173 420.048 449.939 419.724 449.147 419.544L447.545 419.166C445.943 418.806 445.169 418.05 445.169 416.628C445.169 414.882 446.645 413.838 448.697 413.838C450.695 413.838 452.045 414.99 452.063 416.718H449.975C449.957 415.962 449.453 415.476 448.607 415.476C447.743 415.476 447.239 415.872 447.239 416.538C447.239 417.042 447.635 417.366 448.391 417.546L449.993 417.924C451.487 418.266 452.243 418.95 452.243 420.318C452.243 422.118 450.713 423.234 448.517 423.234C446.303 423.234 444.899 422.046 444.899 420.3Z" fill="#1A2205"/>
<path d="M28.2938 78.5903L23.4258 73.7223L24.3361 72.8204L28.2938 76.7781L36.6719 68.3916L37.5822 69.3019L28.2938 78.5903Z" fill="#192104"/>
<path d="M28.2938 112.59L23.4258 107.722L24.3361 106.82L28.2938 110.778L36.6719 102.392L37.5822 103.302L28.2938 112.59Z" fill="#192104"/>
<path d="M164.294 78.5903L159.426 73.7223L160.336 72.8204L164.294 76.7781L172.672 68.3916L173.582 69.3019L164.294 78.5903Z" fill="#192104"/>
<path d="M164.294 112.59L159.426 107.722L160.336 106.82L164.294 110.778L172.672 102.392L173.582 103.302L164.294 112.59Z" fill="#192104"/>
<path d="M50.38 75.404H48.184V78.5H47.008V69.824H50.38C52.084 69.824 53.176 70.94 53.176 72.608C53.176 74.228 52.072 75.404 50.38 75.404ZM50.176 70.88H48.184V74.348H50.128C51.292 74.348 51.94 73.664 51.94 72.596C51.94 71.504 51.28 70.88 50.176 70.88ZM55.7976 78.644C54.5376 78.644 53.7936 77.936 53.7936 76.868C53.7936 75.788 54.5976 75.116 55.9776 75.008L57.8256 74.864V74.696C57.8256 73.712 57.2376 73.364 56.4456 73.364C55.4976 73.364 54.9576 73.784 54.9576 74.492H53.9736C53.9736 73.268 54.9816 72.464 56.4936 72.464C57.9456 72.464 58.9296 73.232 58.9296 74.816V78.5H57.9696L57.8496 77.552C57.5496 78.224 56.7456 78.644 55.7976 78.644ZM56.1216 77.768C57.1896 77.768 57.8376 77.072 57.8376 75.968V75.656L56.3376 75.776C55.3416 75.872 54.9336 76.256 54.9336 76.832C54.9336 77.456 55.3896 77.768 56.1216 77.768ZM59.7872 81.128V80.204H60.5432C61.0832 80.204 61.5152 80.12 61.7912 79.376L61.9952 78.812L59.6312 72.632H60.8192L62.5232 77.36L64.2632 72.632H65.4272L62.6552 79.82C62.2592 80.828 61.6712 81.248 60.7712 81.248C60.3992 81.248 60.0872 81.2 59.7872 81.128ZM67.4557 78.5H66.3277V72.632H67.3357L67.4437 73.4C67.7437 72.848 68.3677 72.464 69.1957 72.464C70.1077 72.464 70.7557 72.92 71.0557 73.652C71.3317 72.92 72.0397 72.464 72.9517 72.464C74.2957 72.464 75.1117 73.304 75.1117 74.66V78.5H74.0077V74.936C74.0077 74.012 73.4917 73.484 72.6997 73.484C71.8477 73.484 71.2837 74.084 71.2837 75.02V78.5H70.1677V74.924C70.1677 74 69.6637 73.496 68.8717 73.496C68.0197 73.496 67.4557 74.084 67.4557 75.02V78.5ZM79.2074 78.644C77.4794 78.644 76.2914 77.396 76.2914 75.572C76.2914 73.736 77.4554 72.464 79.1594 72.464C80.8274 72.464 81.9194 73.616 81.9194 75.356V75.776L77.3834 75.788C77.4674 77.024 78.1154 77.708 79.2314 77.708C80.1074 77.708 80.6834 77.348 80.8754 76.676H81.9314C81.6434 77.936 80.6594 78.644 79.2074 78.644ZM79.1594 73.412C78.1754 73.412 77.5514 74 77.4074 75.032H80.7914C80.7914 74.06 80.1554 73.412 79.1594 73.412ZM84.3073 78.5H83.1793V72.632H84.1993L84.3193 73.532C84.6913 72.86 85.4353 72.464 86.2633 72.464C87.8113 72.464 88.5193 73.412 88.5193 74.912V78.5H87.3913V75.164C87.3913 73.976 86.8393 73.496 85.9753 73.496C84.9193 73.496 84.3073 74.252 84.3073 75.392V78.5ZM91.7376 78.5H90.6096V73.58H89.4576V72.632H90.6096V70.796H91.7376V72.632H92.8896V73.58H91.7376V78.5ZM98.5512 78.5H97.3752V69.824H98.5512V73.556H102.847V69.824H104.023V78.5H102.847V74.648H98.5512V78.5ZM106.395 71.24C105.987 71.24 105.651 70.904 105.651 70.496C105.651 70.076 105.987 69.752 106.395 69.752C106.803 69.752 107.139 70.076 107.139 70.496C107.139 70.904 106.803 71.24 106.395 71.24ZM105.843 78.5V72.632H106.971V78.5H105.843ZM108.129 76.796H109.209C109.209 77.396 109.665 77.756 110.409 77.756C111.201 77.756 111.657 77.432 111.657 76.892C111.657 76.496 111.465 76.256 110.853 76.1L109.821 75.86C108.777 75.608 108.285 75.092 108.285 74.228C108.285 73.148 109.197 72.464 110.493 72.464C111.777 72.464 112.617 73.184 112.641 74.3H111.561C111.537 73.712 111.141 73.34 110.457 73.34C109.749 73.34 109.353 73.652 109.353 74.192C109.353 74.588 109.641 74.852 110.217 74.996L111.249 75.248C112.245 75.488 112.737 75.944 112.737 76.82C112.737 77.936 111.777 78.644 110.385 78.644C109.005 78.644 108.129 77.912 108.129 76.796ZM115.644 78.5H114.516V73.58H113.364V72.632H114.516V70.796H115.644V72.632H116.796V73.58H115.644V78.5ZM117.366 75.56C117.366 73.748 118.662 72.476 120.426 72.476C122.178 72.476 123.474 73.748 123.474 75.56C123.474 77.372 122.178 78.644 120.426 78.644C118.662 78.644 117.366 77.372 117.366 75.56ZM118.506 75.56C118.506 76.784 119.286 77.636 120.426 77.636C121.554 77.636 122.346 76.784 122.346 75.56C122.346 74.336 121.554 73.484 120.426 73.484C119.286 73.484 118.506 74.336 118.506 75.56ZM128.082 72.584V73.616H127.578C126.51 73.616 125.85 74.264 125.85 75.392V78.5H124.722V72.644H125.778L125.85 73.532C126.09 72.92 126.678 72.512 127.482 72.512C127.686 72.512 127.854 72.536 128.082 72.584ZM128.752 81.128V80.204H129.508C130.048 80.204 130.48 80.12 130.756 79.376L130.96 78.812L128.596 72.632H129.784L131.488 77.36L133.228 72.632H134.392L131.62 79.82C131.224 80.828 130.636 81.248 129.736 81.248C129.364 81.248 129.052 81.2 128.752 81.128Z" fill="#192104"/>
<path d="M54.832 106.656C54.832 109.296 53.104 111.144 50.644 111.144C48.196 111.144 46.492 109.296 46.492 106.656C46.492 104.028 48.208 102.168 50.656 102.168C53.116 102.168 54.832 104.016 54.832 106.656ZM53.596 106.656C53.596 104.64 52.42 103.308 50.656 103.308C48.892 103.308 47.728 104.64 47.728 106.656C47.728 108.672 48.892 110.016 50.656 110.016C52.42 110.016 53.596 108.66 53.596 106.656ZM60.2001 105.132H61.3161V111H60.3081L60.1881 110.112C59.8521 110.724 59.0721 111.144 58.2081 111.144C56.8401 111.144 56.0721 110.22 56.0721 108.78V105.132H57.2001V108.408C57.2001 109.668 57.7401 110.148 58.6041 110.148C59.6361 110.148 60.2001 109.488 60.2001 108.228V105.132ZM64.6087 111H63.4807V106.08H62.3287V105.132H63.4807V103.296H64.6087V105.132H65.7607V106.08H64.6087V111ZM66.293 109.296H67.373C67.373 109.896 67.829 110.256 68.573 110.256C69.365 110.256 69.821 109.932 69.821 109.392C69.821 108.996 69.629 108.756 69.017 108.6L67.985 108.36C66.941 108.108 66.449 107.592 66.449 106.728C66.449 105.648 67.361 104.964 68.657 104.964C69.941 104.964 70.781 105.684 70.805 106.8H69.725C69.701 106.212 69.305 105.84 68.621 105.84C67.913 105.84 67.517 106.152 67.517 106.692C67.517 107.088 67.805 107.352 68.381 107.496L69.413 107.748C70.409 107.988 70.901 108.444 70.901 109.32C70.901 110.436 69.941 111.144 68.549 111.144C67.169 111.144 66.293 110.412 66.293 109.296ZM73.8079 111H72.6799V106.08H71.5279V105.132H72.6799V103.296H73.8079V105.132H74.9599V106.08H73.8079V111ZM77.6179 111.144C76.3579 111.144 75.6139 110.436 75.6139 109.368C75.6139 108.288 76.4179 107.616 77.7979 107.508L79.6459 107.364V107.196C79.6459 106.212 79.0579 105.864 78.2659 105.864C77.3179 105.864 76.7779 106.284 76.7779 106.992H75.7939C75.7939 105.768 76.8019 104.964 78.3139 104.964C79.7659 104.964 80.7499 105.732 80.7499 107.316V111H79.7899L79.6699 110.052C79.3699 110.724 78.5659 111.144 77.6179 111.144ZM77.9419 110.268C79.0099 110.268 79.6579 109.572 79.6579 108.468V108.156L78.1579 108.276C77.1619 108.372 76.7539 108.756 76.7539 109.332C76.7539 109.956 77.2099 110.268 77.9419 110.268ZM83.4401 111H82.3121V105.132H83.3321L83.4521 106.032C83.8241 105.36 84.5681 104.964 85.3961 104.964C86.9441 104.964 87.6521 105.912 87.6521 107.412V111H86.5241V107.664C86.5241 106.476 85.9721 105.996 85.1081 105.996C84.0521 105.996 83.4401 106.752 83.4401 107.892V111ZM91.5664 111.144C89.8624 111.144 88.8304 109.872 88.8304 108.084C88.8304 106.284 89.8744 104.964 91.6144 104.964C92.5144 104.964 93.2704 105.36 93.6664 106.08V102.168H94.7824V111H93.7744L93.6784 109.932C93.2944 110.736 92.5024 111.144 91.5664 111.144ZM91.7944 110.124C92.9464 110.124 93.6544 109.272 93.6544 108.048C93.6544 106.848 92.9464 105.984 91.7944 105.984C90.6424 105.984 89.9704 106.848 89.9704 108.048C89.9704 109.26 90.6424 110.124 91.7944 110.124ZM96.9618 103.74C96.5538 103.74 96.2178 103.404 96.2178 102.996C96.2178 102.576 96.5538 102.252 96.9618 102.252C97.3698 102.252 97.7058 102.576 97.7058 102.996C97.7058 103.404 97.3698 103.74 96.9618 103.74ZM96.4098 111V105.132H97.5378V111H96.4098ZM100.303 111H99.1754V105.132H100.195L100.315 106.032C100.687 105.36 101.431 104.964 102.259 104.964C103.807 104.964 104.515 105.912 104.515 107.412V111H103.387V107.664C103.387 106.476 102.835 105.996 101.971 105.996C100.915 105.996 100.303 106.752 100.303 107.892V111ZM105.706 107.916C105.706 106.26 106.774 104.964 108.478 104.964C109.426 104.964 110.158 105.396 110.53 106.128L110.614 105.132H111.622V110.76C111.622 112.608 110.482 113.784 108.682 113.784C107.086 113.784 105.994 112.884 105.778 111.396H106.906C107.05 112.26 107.698 112.764 108.682 112.764C109.786 112.764 110.506 112.044 110.506 110.928V109.752C110.122 110.436 109.354 110.844 108.43 110.844C106.762 110.844 105.706 109.56 105.706 107.916ZM106.834 107.892C106.834 108.996 107.518 109.86 108.622 109.86C109.762 109.86 110.458 109.044 110.458 107.892C110.458 106.764 109.786 105.948 108.634 105.948C107.506 105.948 106.834 106.812 106.834 107.892ZM48.184 127H47.008V118.324H50.284C52.144 118.324 53.248 119.308 53.248 120.928C53.248 122.128 52.648 122.992 51.568 123.34L53.332 127H52.024L50.404 123.568H48.184V127ZM48.184 119.38V122.524H50.296C51.388 122.524 52.012 121.936 52.012 120.94C52.012 119.932 51.364 119.38 50.284 119.38H48.184ZM56.7777 127.144C55.0497 127.144 53.8617 125.896 53.8617 124.072C53.8617 122.236 55.0257 120.964 56.7297 120.964C58.3977 120.964 59.4897 122.116 59.4897 123.856V124.276L54.9537 124.288C55.0377 125.524 55.6857 126.208 56.8017 126.208C57.6777 126.208 58.2537 125.848 58.4457 125.176H59.5017C59.2137 126.436 58.2297 127.144 56.7777 127.144ZM56.7297 121.912C55.7457 121.912 55.1217 122.5 54.9777 123.532H58.3617C58.3617 122.56 57.7257 121.912 56.7297 121.912ZM60.3656 124.072C60.3656 122.236 61.5296 120.964 63.2456 120.964C64.7216 120.964 65.7536 121.804 65.9576 123.112H64.8296C64.6376 122.368 64.0376 121.972 63.2816 121.972C62.2136 121.972 61.4816 122.788 61.4816 124.06C61.4816 125.32 62.1656 126.136 63.2336 126.136C64.0376 126.136 64.6376 125.716 64.8416 125.02H65.9696C65.7416 126.292 64.6496 127.144 63.2336 127.144C61.5056 127.144 60.3656 125.92 60.3656 124.072ZM69.6918 127.144C67.9638 127.144 66.7758 125.896 66.7758 124.072C66.7758 122.236 67.9398 120.964 69.6438 120.964C71.3118 120.964 72.4037 122.116 72.4037 123.856V124.276L67.8678 124.288C67.9518 125.524 68.5998 126.208 69.7158 126.208C70.5918 126.208 71.1678 125.848 71.3598 125.176H72.4158C72.1278 126.436 71.1438 127.144 69.6918 127.144ZM69.6438 121.912C68.6598 121.912 68.0358 122.5 67.8918 123.532H71.2758C71.2758 122.56 70.6398 121.912 69.6438 121.912ZM74.2157 119.74C73.8077 119.74 73.4717 119.404 73.4717 118.996C73.4717 118.576 73.8077 118.252 74.2157 118.252C74.6237 118.252 74.9597 118.576 74.9597 118.996C74.9597 119.404 74.6237 119.74 74.2157 119.74ZM73.6637 127V121.132H74.7917V127H73.6637ZM78.0733 127L75.7093 121.132H76.9093L78.1933 124.408C78.3973 124.96 78.5653 125.452 78.6613 125.812C78.7573 125.428 78.9493 124.924 79.1533 124.408L80.4613 121.132H81.6373L79.1893 127H78.0733ZM83.9812 127.144C82.7212 127.144 81.9772 126.436 81.9772 125.368C81.9772 124.288 82.7812 123.616 84.1612 123.508L86.0092 123.364V123.196C86.0092 122.212 85.4212 121.864 84.6292 121.864C83.6812 121.864 83.1412 122.284 83.1412 122.992H82.1572C82.1572 121.768 83.1652 120.964 84.6772 120.964C86.1292 120.964 87.1132 121.732 87.1132 123.316V127H86.1532L86.0332 126.052C85.7332 126.724 84.9292 127.144 83.9812 127.144ZM84.3052 126.268C85.3732 126.268 86.0212 125.572 86.0212 124.468V124.156L84.5212 124.276C83.5252 124.372 83.1172 124.756 83.1172 125.332C83.1172 125.956 83.5732 126.268 84.3052 126.268ZM89.6954 127H88.6754V118.168H89.8034V122.14C90.1874 121.372 90.9794 120.964 91.9394 120.964C93.6194 120.964 94.6274 122.284 94.6274 124.096C94.6274 125.872 93.5714 127.144 91.8674 127.144C90.9434 127.144 90.1634 126.736 89.7794 125.932L89.6954 127ZM89.8154 124.048C89.8154 125.272 90.5114 126.124 91.6634 126.124C92.8154 126.124 93.4994 125.26 93.4994 124.048C93.4994 122.848 92.8154 121.984 91.6634 121.984C90.5114 121.984 89.8154 122.848 89.8154 124.048ZM97.0227 127H95.8947V118.168H97.0227V127ZM101.215 127.144C99.4872 127.144 98.2992 125.896 98.2992 124.072C98.2992 122.236 99.4632 120.964 101.167 120.964C102.835 120.964 103.927 122.116 103.927 123.856V124.276L99.3912 124.288C99.4752 125.524 100.123 126.208 101.239 126.208C102.115 126.208 102.691 125.848 102.883 125.176H103.939C103.651 126.436 102.667 127.144 101.215 127.144ZM101.167 121.912C100.183 121.912 99.5592 122.5 99.4152 123.532H102.799C102.799 122.56 102.163 121.912 101.167 121.912ZM104.707 125.296H105.787C105.787 125.896 106.243 126.256 106.987 126.256C107.779 126.256 108.235 125.932 108.235 125.392C108.235 124.996 108.043 124.756 107.431 124.6L106.399 124.36C105.355 124.108 104.863 123.592 104.863 122.728C104.863 121.648 105.775 120.964 107.071 120.964C108.355 120.964 109.195 121.684 109.219 122.8H108.139C108.115 122.212 107.719 121.84 107.035 121.84C106.327 121.84 105.931 122.152 105.931 122.692C105.931 123.088 106.219 123.352 106.795 123.496L107.827 123.748C108.823 123.988 109.315 124.444 109.315 125.32C109.315 126.436 108.355 127.144 106.963 127.144C105.583 127.144 104.707 126.412 104.707 125.296Z" fill="#192104"/>
<path d="M184.16 78.5H183.008V69.824H184.16L187.148 77.12L190.136 69.824H191.312V78.5H190.16V75.068C190.16 73.448 190.172 72.86 190.232 72.248L187.7 78.5H186.596L184.076 72.272C184.136 72.692 184.16 73.58 184.16 74.792V78.5ZM194.856 78.644C193.596 78.644 192.852 77.936 192.852 76.868C192.852 75.788 193.656 75.116 195.036 75.008L196.884 74.864V74.696C196.884 73.712 196.296 73.364 195.504 73.364C194.556 73.364 194.016 73.784 194.016 74.492H193.032C193.032 73.268 194.04 72.464 195.552 72.464C197.004 72.464 197.988 73.232 197.988 74.816V78.5H197.028L196.908 77.552C196.608 78.224 195.804 78.644 194.856 78.644ZM195.18 77.768C196.248 77.768 196.896 77.072 196.896 75.968V75.656L195.396 75.776C194.4 75.872 193.992 76.256 193.992 76.832C193.992 77.456 194.448 77.768 195.18 77.768ZM202.91 72.584V73.616H202.406C201.338 73.616 200.678 74.264 200.678 75.392V78.5H199.55V72.644H200.606L200.678 73.532C200.918 72.92 201.506 72.512 202.31 72.512C202.514 72.512 202.682 72.536 202.91 72.584ZM205.12 78.5H203.992V69.668H205.12V75.392L207.724 72.632H209.14L206.896 74.972L209.128 78.5H207.832L206.116 75.788L205.12 76.832V78.5ZM212.371 78.644C210.643 78.644 209.455 77.396 209.455 75.572C209.455 73.736 210.619 72.464 212.323 72.464C213.991 72.464 215.083 73.616 215.083 75.356V75.776L210.547 75.788C210.631 77.024 211.279 77.708 212.395 77.708C213.271 77.708 213.847 77.348 214.039 76.676H215.095C214.807 77.936 213.823 78.644 212.371 78.644ZM212.323 73.412C211.339 73.412 210.715 74 210.571 75.032H213.955C213.955 74.06 213.319 73.412 212.323 73.412ZM217.941 78.5H216.813V73.58H215.661V72.632H216.813V70.796H217.941V72.632H219.093V73.58H217.941V78.5ZM224.754 69.824V78.5H223.578V69.824H224.754ZM227.714 78.5H226.586V72.632H227.606L227.726 73.532C228.098 72.86 228.842 72.464 229.67 72.464C231.218 72.464 231.926 73.412 231.926 74.912V78.5H230.798V75.164C230.798 73.976 230.246 73.496 229.382 73.496C228.326 73.496 227.714 74.252 227.714 75.392V78.5ZM232.938 76.796H234.018C234.018 77.396 234.474 77.756 235.218 77.756C236.01 77.756 236.466 77.432 236.466 76.892C236.466 76.496 236.274 76.256 235.662 76.1L234.63 75.86C233.586 75.608 233.094 75.092 233.094 74.228C233.094 73.148 234.006 72.464 235.302 72.464C236.586 72.464 237.426 73.184 237.45 74.3H236.37C236.346 73.712 235.95 73.34 235.266 73.34C234.558 73.34 234.162 73.652 234.162 74.192C234.162 74.588 234.45 74.852 235.026 74.996L236.058 75.248C237.054 75.488 237.546 75.944 237.546 76.82C237.546 77.936 236.586 78.644 235.194 78.644C233.814 78.644 232.938 77.912 232.938 76.796ZM239.348 71.24C238.94 71.24 238.604 70.904 238.604 70.496C238.604 70.076 238.94 69.752 239.348 69.752C239.756 69.752 240.092 70.076 240.092 70.496C240.092 70.904 239.756 71.24 239.348 71.24ZM238.796 78.5V72.632H239.924V78.5H238.796ZM241.19 75.416C241.19 73.76 242.258 72.464 243.962 72.464C244.91 72.464 245.642 72.896 246.014 73.628L246.098 72.632H247.106V78.26C247.106 80.108 245.966 81.284 244.166 81.284C242.57 81.284 241.478 80.384 241.262 78.896H242.39C242.534 79.76 243.182 80.264 244.166 80.264C245.27 80.264 245.99 79.544 245.99 78.428V77.252C245.606 77.936 244.838 78.344 243.914 78.344C242.246 78.344 241.19 77.06 241.19 75.416ZM242.318 75.392C242.318 76.496 243.002 77.36 244.106 77.36C245.246 77.36 245.942 76.544 245.942 75.392C245.942 74.264 245.27 73.448 244.118 73.448C242.99 73.448 242.318 74.312 242.318 75.392ZM249.862 78.488H248.734V69.668H249.862V73.532C250.234 72.896 250.942 72.464 251.854 72.464C253.354 72.464 254.074 73.412 254.074 74.912V78.5H252.946V75.164C252.946 73.976 252.382 73.496 251.542 73.496C250.45 73.496 249.862 74.288 249.862 75.296V78.488ZM257.292 78.5H256.164V73.58H255.012V72.632H256.164V70.796H257.292V72.632H258.444V73.58H257.292V78.5ZM258.977 76.796H260.057C260.057 77.396 260.513 77.756 261.257 77.756C262.049 77.756 262.505 77.432 262.505 76.892C262.505 76.496 262.313 76.256 261.701 76.1L260.669 75.86C259.625 75.608 259.133 75.092 259.133 74.228C259.133 73.148 260.045 72.464 261.341 72.464C262.625 72.464 263.465 73.184 263.489 74.3H262.409C262.385 73.712 261.989 73.34 261.305 73.34C260.597 73.34 260.201 73.652 260.201 74.192C260.201 74.588 260.489 74.852 261.065 74.996L262.097 75.248C263.093 75.488 263.585 75.944 263.585 76.82C263.585 77.936 262.625 78.644 261.233 78.644C259.853 78.644 258.977 77.912 258.977 76.796Z" fill="#192104"/>
<path d="M184.184 111H183.008V102.324H186.284C188.144 102.324 189.248 103.308 189.248 104.928C189.248 106.128 188.648 106.992 187.568 107.34L189.332 111H188.024L186.404 107.568H184.184V111ZM184.184 103.38V106.524H186.296C187.388 106.524 188.012 105.936 188.012 104.94C188.012 103.932 187.364 103.38 186.284 103.38H184.184ZM192.778 111.144C191.05 111.144 189.862 109.896 189.862 108.072C189.862 106.236 191.026 104.964 192.73 104.964C194.398 104.964 195.49 106.116 195.49 107.856V108.276L190.954 108.288C191.038 109.524 191.686 110.208 192.802 110.208C193.678 110.208 194.254 109.848 194.446 109.176H195.502C195.214 110.436 194.23 111.144 192.778 111.144ZM192.73 105.912C191.746 105.912 191.122 106.5 190.978 107.532H194.362C194.362 106.56 193.726 105.912 192.73 105.912ZM196.366 108.072C196.366 106.236 197.53 104.964 199.246 104.964C200.722 104.964 201.754 105.804 201.958 107.112H200.83C200.638 106.368 200.038 105.972 199.282 105.972C198.214 105.972 197.482 106.788 197.482 108.06C197.482 109.32 198.166 110.136 199.234 110.136C200.038 110.136 200.638 109.716 200.842 109.02H201.97C201.742 110.292 200.65 111.144 199.234 111.144C197.506 111.144 196.366 109.92 196.366 108.072ZM205.692 111.144C203.964 111.144 202.776 109.896 202.776 108.072C202.776 106.236 203.94 104.964 205.644 104.964C207.312 104.964 208.404 106.116 208.404 107.856V108.276L203.868 108.288C203.952 109.524 204.6 110.208 205.716 110.208C206.592 110.208 207.168 109.848 207.36 109.176H208.416C208.128 110.436 207.144 111.144 205.692 111.144ZM205.644 105.912C204.66 105.912 204.036 106.5 203.892 107.532H207.276C207.276 106.56 206.64 105.912 205.644 105.912ZM210.216 103.74C209.808 103.74 209.472 103.404 209.472 102.996C209.472 102.576 209.808 102.252 210.216 102.252C210.624 102.252 210.96 102.576 210.96 102.996C210.96 103.404 210.624 103.74 210.216 103.74ZM209.664 111V105.132H210.792V111H209.664ZM214.073 111L211.709 105.132H212.909L214.193 108.408C214.397 108.96 214.565 109.452 214.661 109.812C214.757 109.428 214.949 108.924 215.153 108.408L216.461 105.132H217.637L215.189 111H214.073ZM219.981 111.144C218.721 111.144 217.977 110.436 217.977 109.368C217.977 108.288 218.781 107.616 220.161 107.508L222.009 107.364V107.196C222.009 106.212 221.421 105.864 220.629 105.864C219.681 105.864 219.141 106.284 219.141 106.992H218.157C218.157 105.768 219.165 104.964 220.677 104.964C222.129 104.964 223.113 105.732 223.113 107.316V111H222.153L222.033 110.052C221.733 110.724 220.929 111.144 219.981 111.144ZM220.305 110.268C221.373 110.268 222.021 109.572 222.021 108.468V108.156L220.521 108.276C219.525 108.372 219.117 108.756 219.117 109.332C219.117 109.956 219.573 110.268 220.305 110.268ZM225.695 111H224.675V102.168H225.803V106.14C226.187 105.372 226.979 104.964 227.939 104.964C229.619 104.964 230.627 106.284 230.627 108.096C230.627 109.872 229.571 111.144 227.867 111.144C226.943 111.144 226.163 110.736 225.779 109.932L225.695 111ZM225.815 108.048C225.815 109.272 226.511 110.124 227.663 110.124C228.815 110.124 229.499 109.26 229.499 108.048C229.499 106.848 228.815 105.984 227.663 105.984C226.511 105.984 225.815 106.848 225.815 108.048ZM233.023 111H231.895V102.168H233.023V111ZM237.215 111.144C235.487 111.144 234.299 109.896 234.299 108.072C234.299 106.236 235.463 104.964 237.167 104.964C238.835 104.964 239.927 106.116 239.927 107.856V108.276L235.391 108.288C235.475 109.524 236.123 110.208 237.239 110.208C238.115 110.208 238.691 109.848 238.883 109.176H239.939C239.651 110.436 238.667 111.144 237.215 111.144ZM237.167 105.912C236.183 105.912 235.559 106.5 235.415 107.532H238.799C238.799 106.56 238.163 105.912 237.167 105.912ZM240.707 109.296H241.787C241.787 109.896 242.243 110.256 242.987 110.256C243.779 110.256 244.235 109.932 244.235 109.392C244.235 108.996 244.043 108.756 243.431 108.6L242.399 108.36C241.355 108.108 240.863 107.592 240.863 106.728C240.863 105.648 241.775 104.964 243.071 104.964C244.355 104.964 245.195 105.684 245.219 106.8H244.139C244.115 106.212 243.719 105.84 243.035 105.84C242.327 105.84 241.931 106.152 241.931 106.692C241.931 107.088 242.219 107.352 242.795 107.496L243.827 107.748C244.823 107.988 245.315 108.444 245.315 109.32C245.315 110.436 244.355 111.144 242.963 111.144C241.583 111.144 240.707 110.412 240.707 109.296ZM182.816 129.628V121.132H183.836L183.92 122.188C184.316 121.384 185.108 120.964 186.044 120.964C187.724 120.964 188.768 122.224 188.768 124.024C188.768 125.812 187.784 127.156 186.044 127.156C185.108 127.156 184.328 126.76 183.944 126.04V129.628H182.816ZM183.956 124.072C183.956 125.272 184.652 126.136 185.804 126.136C186.956 126.136 187.64 125.272 187.64 124.072C187.64 122.86 186.956 121.996 185.804 121.996C184.652 121.996 183.956 122.848 183.956 124.072ZM191.727 127.144C190.467 127.144 189.723 126.436 189.723 125.368C189.723 124.288 190.527 123.616 191.907 123.508L193.755 123.364V123.196C193.755 122.212 193.167 121.864 192.375 121.864C191.427 121.864 190.887 122.284 190.887 122.992H189.903C189.903 121.768 190.911 120.964 192.423 120.964C193.875 120.964 194.859 121.732 194.859 123.316V127H193.899L193.779 126.052C193.479 126.724 192.675 127.144 191.727 127.144ZM192.051 126.268C193.119 126.268 193.767 125.572 193.767 124.468V124.156L192.267 124.276C191.271 124.372 190.863 124.756 190.863 125.332C190.863 125.956 191.319 126.268 192.051 126.268ZM195.941 125.296H197.021C197.021 125.896 197.477 126.256 198.221 126.256C199.013 126.256 199.469 125.932 199.469 125.392C199.469 124.996 199.277 124.756 198.665 124.6L197.633 124.36C196.589 124.108 196.097 123.592 196.097 122.728C196.097 121.648 197.009 120.964 198.305 120.964C199.589 120.964 200.429 121.684 200.453 122.8H199.373C199.349 122.212 198.953 121.84 198.269 121.84C197.561 121.84 197.165 122.152 197.165 122.692C197.165 123.088 197.453 123.352 198.029 123.496L199.061 123.748C200.057 123.988 200.549 124.444 200.549 125.32C200.549 126.436 199.589 127.144 198.197 127.144C196.817 127.144 195.941 126.412 195.941 125.296ZM203.456 127H202.328V122.08H201.176V121.132H202.328V119.296H203.456V121.132H204.608V122.08H203.456V127ZM211.254 127.144C209.55 127.144 208.518 125.872 208.518 124.084C208.518 122.284 209.562 120.964 211.302 120.964C212.202 120.964 212.958 121.36 213.354 122.08V118.168H214.47V127H213.462L213.366 125.932C212.982 126.736 212.19 127.144 211.254 127.144ZM211.482 126.124C212.634 126.124 213.342 125.272 213.342 124.048C213.342 122.848 212.634 121.984 211.482 121.984C210.33 121.984 209.658 122.848 209.658 124.048C209.658 125.26 210.33 126.124 211.482 126.124ZM220.153 121.132H221.269V127H220.261L220.141 126.112C219.805 126.724 219.025 127.144 218.161 127.144C216.793 127.144 216.025 126.22 216.025 124.78V121.132H217.153V124.408C217.153 125.668 217.693 126.148 218.557 126.148C219.589 126.148 220.153 125.488 220.153 124.228V121.132ZM225.321 127.144C223.593 127.144 222.405 125.896 222.405 124.072C222.405 122.236 223.569 120.964 225.273 120.964C226.941 120.964 228.033 122.116 228.033 123.856V124.276L223.497 124.288C223.581 125.524 224.229 126.208 225.345 126.208C226.221 126.208 226.797 125.848 226.989 125.176H228.045C227.757 126.436 226.773 127.144 225.321 127.144ZM225.273 121.912C224.289 121.912 223.665 122.5 223.521 123.532H226.905C226.905 122.56 226.269 121.912 225.273 121.912Z" fill="#192104"/>
<defs>
<filter id="filter0_f_226_5355" x="53" y="54" width="437" height="422" filterUnits="userSpaceOnUse" color-interpolation-filters="sRGB">
<feFlood flood-opacity="0" result="BackgroundImageFix"/>
<feBlend mode="normal" in="SourceGraphic" in2="BackgroundImageFix" result="shape"/>
<feGaussianBlur stdDeviation="62" result="effect1_foregroundBlur_226_5355"/>
</filter>
</defs>
</svg>
