<svg width="24" height="24" viewBox="0 0 24 24" fill="none" xmlns="http://www.w3.org/2000/svg">
<g id="currency_exchange">
<mask id="mask0_284_1465" style="mask-type:alpha" maskUnits="userSpaceOnUse" x="0" y="0" width="24" height="24">
<rect id="Bounding box" width="24" height="24" fill="#D9D9D9"/>
</mask>
<g mask="url(#mask0_284_1465)">
<path id="currency_exchange_2" d="M12 22.5C10.05 22.5 8.28041 22.0173 6.69125 21.0518C5.10225 20.0864 3.85583 18.7928 2.952 17.171V20.1538H1.452V14.6538H6.952V16.1538H4.1115C4.8345 17.6103 5.90308 18.7821 7.31725 19.6693C8.73141 20.5564 10.2923 21 12 21C13.2243 21 14.3727 20.7737 15.4452 20.3212C16.5176 19.8686 17.4563 19.2509 18.2615 18.4683C19.0667 17.6856 19.7132 16.7613 20.201 15.6953C20.6888 14.6293 20.952 13.4808 20.9905 12.25H22.4902C22.4582 13.6705 22.1612 15.0026 21.599 16.2462C21.0368 17.4897 20.283 18.5763 19.3375 19.5058C18.392 20.4353 17.2894 21.1667 16.0297 21.7C14.7701 22.2333 13.4268 22.5 12 22.5ZM11.2922 18.8078V17.5462C10.5602 17.3756 9.95158 17.0717 9.46625 16.6345C8.98108 16.1973 8.609 15.6077 8.35 14.8655L9.61524 14.35C9.85374 15.0013 10.1952 15.4963 10.6395 15.8348C11.0837 16.1731 11.5872 16.3422 12.15 16.3422C12.7192 16.3422 13.2301 16.2003 13.6827 15.9163C14.1352 15.6324 14.3615 15.177 14.3615 14.55C14.3615 14.0282 14.167 13.6125 13.778 13.303C13.3888 12.9933 12.6628 12.6436 11.6 12.2537C10.5718 11.8846 9.83016 11.4712 9.375 11.0135C8.91983 10.5558 8.69225 9.95133 8.69225 9.2C8.69225 8.55517 8.925 7.96475 9.3905 7.42875C9.85583 6.89292 10.5064 6.55125 11.3422 6.40375V5.19225H12.7077V6.40375C13.2692 6.44742 13.7862 6.65867 14.2587 7.0375C14.7311 7.41633 15.0717 7.87175 15.2807 8.40375L14.0462 8.9C13.8744 8.5295 13.6288 8.2215 13.3095 7.976C12.9903 7.7305 12.5705 7.60775 12.05 7.60775C11.4282 7.60775 10.9407 7.75517 10.5875 8.05C10.2343 8.34483 10.0577 8.72817 10.0577 9.2C10.0577 9.67183 10.2302 10.0392 10.575 10.302C10.9198 10.5648 11.6179 10.8758 12.6692 11.2348C13.8692 11.6681 14.6757 12.1539 15.0885 12.6923C15.5013 13.2308 15.7077 13.85 15.7077 14.55C15.7077 15.027 15.6196 15.4456 15.4432 15.8057C15.2669 16.1661 15.0365 16.469 14.752 16.7145C14.4673 16.96 14.1432 17.1539 13.7797 17.2962C13.4162 17.4384 13.0422 17.5384 12.6577 17.5963V18.8078H11.2922ZM1.50975 11.75C1.55458 10.2975 1.86125 8.94783 2.42975 7.701C2.99841 6.45417 3.75866 5.36925 4.7105 4.44625C5.6625 3.52308 6.7635 2.80125 8.0135 2.28075C9.2635 1.76025 10.5923 1.5 12 1.5C13.9308 1.5 15.7004 1.98433 17.3087 2.953C18.9171 3.9215 20.1635 5.22633 21.048 6.8675V3.84625H22.548V9.34625H17.048V7.84625H19.8885C19.1847 6.41542 18.1241 5.25 16.7067 4.35C15.2894 3.45 13.7205 3 12 3C10.8013 3 9.66733 3.22308 8.598 3.66925C7.52883 4.11542 6.5885 4.72658 5.777 5.50275C4.9655 6.27908 4.311 7.20025 3.8135 8.26625C3.316 9.33225 3.048 10.4935 3.0095 11.75H1.50975Z" fill="#1C1B1F"/>
</g>
</g>
</svg>
