<svg width="24" height="24" viewBox="0 0 24 24" fill="none" xmlns="http://www.w3.org/2000/svg">
<g clip-path="url(#clip0_183_39657)">
<path d="M11.7842 24V23.9761C11.8046 23.9832 11.8046 23.9911 11.7842 24Z" fill="white"/>
<path d="M23.977 11.744L23.9247 11.6403C23.8689 10.3612 22.9675 9.44442 22.0316 8.69945C21.4795 8.17506 21.3838 7.94918 21.4183 7.17233L21.4857 6.35916C21.6204 4.83646 20.7244 3.37222 19.3197 2.77873C18.4813 2.42353 17.6881 2.49793 16.8045 2.5812C16.0928 2.69281 15.5725 2.31369 15.1374 1.8008C14.3681 0.784786 13.4375 0.0805713 12.0966 0.0477965C10.6742 0.0132501 9.6461 0.745811 8.83429 1.82561C8.23517 2.46782 8.05881 2.61132 7.15836 2.58031L6.25969 2.51565C4.8142 2.38544 3.45201 3.26947 2.83783 4.56274C2.42217 5.44058 2.48687 6.26615 2.58879 7.20776C2.62424 8.0165 2.44699 8.26187 1.87358 8.79069C0.798541 9.59234 0.0106535 10.6686 0.0478765 12.0761C0.0833271 13.4164 0.85349 14.4271 1.8789 15.1924C2.34064 15.5733 2.68451 16.0623 2.58791 16.693L2.52321 17.5646C2.3752 19.0031 3.13473 20.3823 4.39765 21.0662C5.29189 21.5498 6.12321 21.5046 7.09189 21.4072C7.98347 21.3806 8.17225 21.4356 8.77579 22.084L9.3173 22.7102C9.90401 23.4065 10.7832 23.8352 11.6925 23.9229L11.7847 23.976C10.9985 23.9318 10.192 23.5951 9.60356 23.0743C9.17284 22.6934 8.54891 21.7527 8.08008 21.5516C7.53237 21.316 6.42365 21.5578 5.77048 21.5153C4.06708 21.4054 2.62513 19.9625 2.47624 18.2697C2.42217 17.6541 2.54714 17.0331 2.54802 16.4184C2.54891 15.6176 1.7043 15.1596 1.18672 14.6618C-0.387279 13.1471 -0.399686 10.8484 1.17432 9.32926C1.67506 8.84561 2.51878 8.37171 2.54714 7.60814C2.57018 6.98631 2.41597 6.32018 2.47624 5.68595C2.63665 4.01355 4.0786 2.56703 5.76959 2.4625C6.39618 2.42353 7.35955 2.63169 7.90814 2.49085C8.48865 2.34026 9.13562 1.31627 9.61597 0.89374C10.9445 -0.272865 12.9793 -0.307411 14.3282 0.846793C14.9398 1.37119 15.5353 2.49085 16.3675 2.53514C17.0597 2.57145 17.7545 2.39075 18.4724 2.4935C20.1439 2.73356 21.4423 4.1659 21.5398 5.84893C21.5743 6.45305 21.4121 7.13867 21.468 7.72418C21.5291 8.35842 22.2798 8.81549 22.7114 9.22385C23.4541 9.92718 23.9371 10.6872 23.977 11.744Z" fill="white"/>
<path d="M23.9996 11.744C23.9934 11.7644 23.9854 11.7635 23.9766 11.744H23.9996Z" fill="white"/>
<path d="M12.2536 23.9761V24C12.2332 23.9929 12.2332 23.9858 12.2536 23.9761Z" fill="white"/>
<path d="M12.2769 23.9761C12.2699 23.9761 12.2619 23.9761 12.2539 23.9761C12.2583 23.9558 12.2663 23.9566 12.2769 23.9761Z" fill="white"/>
<path d="M12.2764 23.9761L12.3942 23.9531C12.3739 23.9903 12.3145 23.9752 12.2764 23.9761Z" fill="white"/>
<path d="M23.9248 12.3482L23.9771 12.2596C23.9434 13.0922 23.5473 13.9302 22.9685 14.5202C22.6043 14.8931 21.7871 15.4423 21.5815 15.8754C21.3272 16.4105 21.5709 17.4761 21.5399 18.1077C21.4513 19.8926 19.9942 21.4099 18.1987 21.5171C17.5685 21.5543 16.5192 21.3285 15.9821 21.5278C15.4956 21.7085 14.9514 22.5385 14.5641 22.9229C14.0191 23.4641 13.1691 23.907 12.3945 23.9531L12.4716 23.8999C13.6566 23.7759 14.5393 23 15.2235 22.0929C15.8084 21.4578 16.0043 21.3772 16.8728 21.4046C17.783 21.4906 18.5744 21.5561 19.435 21.1522C20.7502 20.5357 21.6019 19.1308 21.484 17.6807L21.4247 16.8684C21.3945 15.9897 21.4645 15.7948 22.1071 15.2067C23.051 14.5007 23.8433 13.5883 23.9248 12.3482Z" fill="white"/>
<path d="M23.9996 12.2595H23.9766C23.9828 12.2392 23.9907 12.2392 23.9996 12.2595Z" fill="white"/>
<path d="M24 11.744V12.2596H23.977C23.9087 12.1231 23.9087 11.8795 23.977 11.744H24Z" fill="#C9C9C9"/>
<path d="M12.253 23.9761V24H11.7842V23.9761C11.9029 23.9106 12.1369 23.9052 12.253 23.9761Z" fill="#B9B9B9"/>
<path d="M23.977 11.744C23.9371 10.6872 23.4541 9.92718 22.7114 9.22385C22.2798 8.81549 21.5291 8.35842 21.468 7.72418C21.4121 7.13867 21.5743 6.45305 21.5398 5.84893C21.4423 4.1659 20.1439 2.73356 18.4724 2.4935C17.7545 2.39075 17.0597 2.57146 16.3675 2.53514C15.5353 2.49085 14.9398 1.37119 14.3282 0.846793C12.9793 -0.307411 10.9445 -0.272865 9.61597 0.89374C9.13562 1.31627 8.48865 2.34026 7.90814 2.49085C7.35955 2.63169 6.39618 2.42353 5.76959 2.4625C4.0786 2.56703 2.63665 4.01355 2.47624 5.68595C2.41597 6.32018 2.57018 6.98631 2.54714 7.60814C2.51878 8.37171 1.67506 8.84561 1.17432 9.32926C-0.399686 10.8484 -0.387279 13.1471 1.18672 14.6618C1.7043 15.1596 2.54891 15.6176 2.54802 16.4184C2.54802 17.0331 2.42217 17.6541 2.47624 18.2697C2.62513 19.9625 4.06708 21.4054 5.77048 21.5153C6.42365 21.5578 7.53237 21.316 8.08008 21.5516C8.54891 21.7527 9.17284 22.6934 9.60356 23.0743C10.192 23.5952 10.9985 23.9318 11.7847 23.976C11.9344 23.9849 12.1019 23.9787 12.2535 23.976C12.2615 23.976 12.2694 23.976 12.2765 23.976L12.3944 23.953C13.169 23.907 14.0189 23.4641 14.564 22.9228C14.9513 22.5384 15.4954 21.7084 15.982 21.5277C16.5191 21.3284 17.5684 21.5543 18.1985 21.5171C19.9941 21.4099 21.4511 19.8925 21.5398 18.1076C21.5708 17.476 21.3271 16.4104 21.5814 15.8754C21.787 15.4422 22.6042 14.893 22.9684 14.5201C23.5471 13.9301 23.9433 13.0922 23.977 12.2595C23.9832 12.0947 23.9832 11.9087 23.977 11.744ZM16.1335 16.406C15.2278 17.15 13.8133 16.7824 13.3516 15.7195C12.8792 14.6335 13.5864 13.3251 14.7811 13.2038C16.6139 13.016 17.5365 15.2535 16.1335 16.406ZM10.5696 9.90769C9.91819 11.0504 8.23251 11.1035 7.50755 10.0069C6.76841 8.88902 7.46235 7.34152 8.80238 7.20422C10.286 7.05186 11.3078 8.61087 10.5696 9.90769ZM9.28805 16.4077C8.16959 17.4742 6.56102 16.0747 7.47122 14.8257L14.7971 7.50096C14.9725 7.35303 15.2047 7.23168 15.4369 7.20422C16.5864 7.06514 17.2414 8.41865 16.4499 9.24688L9.28805 16.4077Z" fill="white"/>
<path d="M12.3942 23.9531C12.3739 23.9903 12.3145 23.9752 12.2764 23.9761C12.2968 23.938 12.3561 23.9557 12.3942 23.9531Z" fill="#B9B9B9"/>
</g>
<defs>
<clipPath id="clip0_183_39657">
<rect width="24" height="24" fill="white"/>
</clipPath>
</defs>
</svg>
