<svg width="51" height="36" viewBox="0 0 51 36" fill="none" xmlns="http://www.w3.org/2000/svg">
<path id="&#226;&#128;&#156;" d="M21.8128 25.7143C21.8128 31.5665 17.734 36 11.5271 36C5.3202 36 0 31.0345 0 22.1675C0 11.1724 8.33498 1.7734 19.1527 0V6.56158C12.9458 7.80295 8.33498 12.2365 8.33498 17.3793C9.39902 16.6699 10.8177 16.1379 13.1232 16.1379C17.734 16.1379 21.8128 19.5074 21.8128 25.7143ZM50.5419 25.7143C50.5419 31.5665 46.2857 36 40.0788 36C34.0493 36 28.5517 31.0345 28.5517 22.1675C28.5517 11.1724 36.8867 1.7734 47.8818 0V6.56158C41.6749 7.80295 37.064 12.2365 37.064 17.202C38.1281 16.4926 39.7241 16.1379 41.8522 16.1379C46.4631 16.1379 50.5419 19.5074 50.5419 25.7143Z" fill="#004D26"/>
</svg>
