<svg width="49" height="48" viewBox="0 0 49 48" fill="none" xmlns="http://www.w3.org/2000/svg">
<g id="event_repeat">
<mask id="mask0_4_119" style="mask-type:alpha" maskUnits="userSpaceOnUse" x="0" y="0" width="49" height="48">
<rect id="Bounding box" x="0.25" width="48" height="48" fill="#D9D9D9"/>
</mask>
<g mask="url(#mask0_4_119)">
<path id="event_repeat_2" d="M10.25 44C9.15 44 8.20833 43.6083 7.425 42.825C6.64167 42.0417 6.25 41.1 6.25 40V12C6.25 10.9 6.64167 9.95833 7.425 9.175C8.20833 8.39167 9.15 8 10.25 8H12.25V4H16.25V8H32.25V4H36.25V8H38.25C39.35 8 40.2917 8.39167 41.075 9.175C41.8583 9.95833 42.25 10.9 42.25 12V24H38.25V20H10.25V40H24.25V44H10.25ZM38.25 48C35.8167 48 33.6917 47.2417 31.875 45.725C30.0583 44.2083 28.9167 42.3 28.45 40H31.55C31.9833 41.4667 32.8083 42.6667 34.025 43.6C35.2417 44.5333 36.65 45 38.25 45C40.1833 45 41.8333 44.3167 43.2 42.95C44.5667 41.5833 45.25 39.9333 45.25 38C45.25 36.0667 44.5667 34.4167 43.2 33.05C41.8333 31.6833 40.1833 31 38.25 31C37.2833 31 36.3833 31.175 35.55 31.525C34.7167 31.875 33.9833 32.3667 33.35 33H36.25V36H28.25V28H31.25V30.85C32.15 29.9833 33.2 29.2917 34.4 28.775C35.6 28.2583 36.8833 28 38.25 28C41.0167 28 43.375 28.975 45.325 30.925C47.275 32.875 48.25 35.2333 48.25 38C48.25 40.7667 47.275 43.125 45.325 45.075C43.375 47.025 41.0167 48 38.25 48Z" fill="#00954A"/>
</g>
</g>
</svg>
