<svg width="48" height="48" viewBox="0 0 48 48" fill="none" xmlns="http://www.w3.org/2000/svg">
<path d="M8.02624 34.5717L10.8133 21.2391H8.47183L8.89119 19.2121H11.2327L11.6783 17.0279C11.9142 15.9357 12.1501 15.1494 12.3947 14.6689C12.6394 14.1884 13.0413 13.7865 13.5917 13.4719C14.1421 13.1574 14.9023 13.0001 15.8546 13.0001C16.5186 13.0001 17.4797 13.1399 18.7465 13.4195L18.2659 15.7086C17.3748 15.4727 16.6321 15.3591 16.038 15.3591C15.5313 15.3591 15.1382 15.4902 14.876 15.7435C14.6139 15.9969 14.378 16.6085 14.1858 17.5608L13.8363 19.2121H16.7545L16.3351 21.2391H13.4169L10.6211 34.5717H8H8.02624Z" fill="white"/>
<path d="M15.5225 34.5714L21.8568 16.0403H26.8369L33.3284 34.5714H29.1084L26.1379 25.6247C25.7796 24.4715 25.4214 23.2133 25.0457 21.8416C24.6788 20.4699 24.2857 18.9672 23.8838 17.3421H24.7137C24.3118 18.9759 23.9449 20.4787 23.6042 21.8678C23.2634 23.2483 22.9139 24.5064 22.5819 25.6335L19.7249 34.5801H15.5312L15.5225 34.5714ZM19.4803 30.2641V27.2935H29.3705V30.2641H19.4803Z" fill="url(#paint0_linear_422_434)"/>
<path d="M39.409 16.0317V34.5629H35.6172V16.0317H39.409Z" fill="url(#paint1_linear_422_434)"/>
<defs>
<linearGradient id="paint0_linear_422_434" x1="21.634" y1="16.8909" x2="36.5858" y2="31.0587" gradientUnits="userSpaceOnUse">
<stop stop-color="white"/>
<stop offset="0.311476" stop-color="#FDE68A"/>
<stop offset="0.688365" stop-color="#C8A8F8"/>
<stop offset="1" stop-color="#FF8F33"/>
</linearGradient>
<linearGradient id="paint1_linear_422_434" x1="36.9187" y1="16.882" x2="42.7249" y2="18.0542" gradientUnits="userSpaceOnUse">
<stop stop-color="white"/>
<stop offset="0.311476" stop-color="#FDE68A"/>
<stop offset="0.688365" stop-color="#C8A8F8"/>
<stop offset="1" stop-color="#FF8F33"/>
</linearGradient>
</defs>
</svg>
