<svg width="107.002" height="25" viewBox="0 0 903 211" fill="none" xmlns="http://www.w3.org/2000/svg">
<g clip-path="url(#clip0_1013_2230)">
<path d="M462.038 0.27002H498.772V211H462.038V0.27002Z" fill="#96D300"/>
<path d="M597.294 177.386C606.834 177.386 615.17 173.73 622.259 166.419C629.347 159.108 632.869 148.23 632.869 133.786C632.869 119.343 629.347 108.465 622.259 101.154C615.17 93.8427 606.968 90.1872 597.561 90.1872C588.155 90.1872 579.417 93.8427 572.463 101.154C565.464 108.465 561.986 119.343 561.986 133.786C561.986 148.23 565.464 159.108 572.463 166.419C579.462 173.73 587.709 177.386 597.294 177.386ZM597.294 209.885C583.519 209.885 571.125 206.675 560.114 200.211C549.103 193.791 540.41 184.831 533.99 173.418C527.571 162.006 524.361 148.81 524.361 133.742C524.361 118.674 527.615 105.478 534.124 94.0656C540.633 82.6531 549.37 73.7371 560.382 67.273C571.393 60.8535 583.786 57.5991 597.561 57.5991C611.337 57.5991 623.418 60.8089 634.429 67.273C645.44 73.6925 654.133 82.6531 660.553 94.0656C666.973 105.478 670.182 118.718 670.182 133.742C670.182 148.765 666.973 162.006 660.553 173.418C654.133 184.831 645.396 193.747 634.295 200.211C623.195 206.63 610.846 209.885 597.294 209.885Z" fill="#96D300"/>
<path d="M694.479 211V0.27002H731.213V88.0482C735.983 80.0683 742.447 73.738 750.605 69.1908C758.719 64.5991 768.081 62.3255 778.602 62.3255C796.211 62.3255 809.852 67.9871 819.481 79.3105C829.155 90.6338 833.97 107.218 833.97 129.062V211H797.504V132.584C797.504 120.101 795.052 110.517 790.192 103.919C785.333 97.2762 777.621 93.9773 767.1 93.9773C756.579 93.9773 748.198 97.6775 741.422 105.078C734.646 112.478 731.213 122.821 731.213 136.105V211.045H694.479V211Z" fill="#96D300"/>
<path d="M430.028 65.8473H402.612V54.4348C402.612 48.3719 403.904 44.0922 406.579 41.5512C409.254 39.0101 413.757 37.7619 420.087 37.7619H430.028V0.27002H414.381C399.446 0.27002 387.633 3.97017 378.94 11.3705C370.246 18.7707 365.878 31.2532 365.878 48.8177V65.8027H346.352V99.7727H365.878V211H402.612V99.7727H430.028V65.8027V65.8473Z" fill="#96D300"/>
<path d="M68.2618 0.27002C53.3274 0.27002 41.5137 3.97017 32.8206 11.415C24.1275 18.8153 19.7586 31.3423 19.7586 48.9069V65.8919H0.187988V99.8173H19.7586V211.045H56.4926V99.8173H121.178V198.919C121.178 205.606 126.483 211.045 133.081 211.045H158.314C190.723 210.198 201.2 165.305 211.587 141.232C217.338 127.858 228.661 105.746 244.308 102.581C249.881 101.467 254.517 102.715 258.53 105.479C261.695 107.663 264.37 110.873 266.732 114.35C269.719 118.808 272.171 123.846 274.177 128.438C281.31 145.066 284.653 163.21 290.627 180.24C295.754 194.862 305.695 211.089 322.769 211C328.609 211 340.646 211 346.486 211V173.018C346.486 173.642 333.201 173.107 332.622 173.062C325.31 172.661 322.056 165.84 320.407 159.421C312.159 127.368 302.084 88.1819 270.432 71.7765C267.535 70.2607 264.503 69.0571 261.383 68.0763C256.078 66.4714 250.55 65.7136 244.977 65.6244C236.507 65.5352 228.126 67.6751 220.592 71.5535C193.353 85.5517 181.852 119.031 170.618 145.779C167.051 154.294 163.529 162.987 158.358 170.655V77.9285C158.358 71.2415 153.053 65.8027 146.455 65.8027H56.4926V54.3902C56.448 48.3273 57.7409 44.0031 60.4157 41.462C63.0905 38.9209 67.5931 37.6281 73.9234 37.6281H83.8648V0.27002H68.2172H68.2618ZM128.311 0.44834C118.147 0.44834 109.989 8.78481 109.989 19.172C109.989 29.5591 118.191 37.8956 128.311 37.8956C138.431 37.8956 146.723 29.5591 146.723 19.172C146.723 8.78481 138.431 0.44834 128.311 0.44834Z" fill="#96D300"/>
<path d="M850.731 182.916H871.417V186.393H862.991V210.956H859.202V186.393H850.731V182.916Z" fill="#96D300"/>
<path d="M875.252 211V182.959H878.996L888.67 206.542L898.344 182.959H902.133V211H898.389V199.899C898.389 194.639 898.389 192.767 898.612 190.76L890.409 211H886.842L878.684 190.85C878.863 192.187 878.952 195.085 878.952 199.008V211H875.207H875.252Z" fill="#96D300"/>
</g>
<defs>
<clipPath id="clip0_1013_2230">
<rect width="901.944" height="210.73" fill="white" transform="translate(0.187988 0.27002)"/>
</clipPath>
</defs>
</svg>
