<svg width="320" height="356" viewBox="0 0 320 356" fill="none" xmlns="http://www.w3.org/2000/svg">
<mask id="mask0_782_1491" style="mask-type:alpha" maskUnits="userSpaceOnUse" x="0" y="0" width="320" height="356">
<rect width="320" height="356" fill="#002211"/>
</mask>
<g mask="url(#mask0_782_1491)">
<rect x="161" y="183" width="250" height="148.305" rx="3" fill="white"/>
<path d="M176.312 203.712H174.388V197.891H176.28C178.019 197.891 179.195 199.067 179.195 200.806C179.195 202.536 178.035 203.712 176.312 203.712ZM176.224 198.616H175.177V202.979H176.256C177.552 202.979 178.373 202.142 178.373 200.806C178.373 199.453 177.552 198.616 176.224 198.616ZM180.021 199.461C180.021 198.463 180.826 197.786 182.026 197.786C183.137 197.786 183.853 198.406 183.918 199.413H183.121C183.081 198.833 182.67 198.495 182.018 198.495C181.285 198.495 180.81 198.865 180.81 199.437C180.81 199.904 181.076 200.186 181.623 200.314L182.581 200.54C183.531 200.757 184.014 201.273 184.014 202.094C184.014 203.14 183.201 203.809 181.961 203.809C180.778 203.809 179.989 203.189 179.941 202.19H180.746C180.762 202.746 181.229 203.1 181.961 203.1C182.734 203.1 183.225 202.738 183.225 202.158C183.225 201.699 182.976 201.409 182.42 201.281L181.462 201.063C180.512 200.846 180.021 200.298 180.021 199.461ZM190.416 200.798C190.416 202.569 189.257 203.809 187.606 203.809C185.964 203.809 184.821 202.569 184.821 200.798C184.821 199.034 185.972 197.786 187.614 197.786C189.265 197.786 190.416 199.026 190.416 200.798ZM189.587 200.798C189.587 199.445 188.798 198.551 187.614 198.551C186.431 198.551 185.65 199.445 185.65 200.798C185.65 202.15 186.431 203.052 187.614 203.052C188.798 203.052 189.587 202.142 189.587 200.798Z" fill="#0C1612"/>
<path d="M180.937 218.884H179.881V220.678H178.725V218.884H174.13V217.815L178.32 211.794H179.881V217.815H180.937V218.884ZM175.432 217.815H178.725V213.072L175.432 217.815ZM187.245 217.864L185.168 220.678H183.768L185.992 217.729C185.685 217.852 185.365 217.913 185.058 217.913C183.215 217.913 181.974 216.586 181.974 214.817C181.974 212.973 183.374 211.634 185.205 211.634C187.049 211.634 188.474 213.022 188.474 214.829C188.474 215.873 188.155 216.623 187.245 217.864ZM187.245 214.817C187.245 213.6 186.41 212.715 185.205 212.715C184.026 212.715 183.19 213.6 183.19 214.817C183.19 216.033 184.026 216.893 185.205 216.893C186.41 216.893 187.245 216.033 187.245 214.817ZM196.802 220.678H193.866V211.794H196.753C199.408 211.794 201.202 213.588 201.202 216.242C201.202 218.884 199.432 220.678 196.802 220.678ZM196.667 212.9H195.07V219.56H196.716C198.695 219.56 199.948 218.282 199.948 216.242C199.948 214.178 198.695 212.9 196.667 212.9ZM204.54 220.825C203.25 220.825 202.488 220.1 202.488 219.007C202.488 217.901 203.311 217.213 204.724 217.102L206.617 216.955V216.783C206.617 215.775 206.015 215.419 205.204 215.419C204.233 215.419 203.68 215.849 203.68 216.574H202.672C202.672 215.32 203.704 214.497 205.253 214.497C206.74 214.497 207.747 215.283 207.747 216.906V220.678H206.764L206.641 219.707C206.334 220.395 205.511 220.825 204.54 220.825ZM204.872 219.928C205.965 219.928 206.629 219.216 206.629 218.085V217.766L205.093 217.889C204.073 217.987 203.655 218.38 203.655 218.97C203.655 219.609 204.122 219.928 204.872 219.928ZM208.871 223.369V222.423H209.645C210.198 222.423 210.641 222.337 210.923 221.575L211.132 220.997L208.711 214.669H209.928L211.673 219.511L213.455 214.669H214.647L211.808 222.03C211.403 223.062 210.8 223.492 209.879 223.492C209.498 223.492 209.178 223.443 208.871 223.369ZM215.239 218.933H216.345C216.345 219.547 216.812 219.916 217.574 219.916C218.385 219.916 218.852 219.584 218.852 219.031C218.852 218.626 218.655 218.38 218.028 218.22L216.972 217.975C215.903 217.717 215.399 217.188 215.399 216.303C215.399 215.197 216.333 214.497 217.66 214.497C218.975 214.497 219.835 215.234 219.859 216.377H218.753C218.729 215.775 218.323 215.394 217.623 215.394C216.898 215.394 216.492 215.714 216.492 216.267C216.492 216.672 216.787 216.942 217.377 217.09L218.434 217.348C219.454 217.594 219.958 218.061 219.958 218.958C219.958 220.1 218.975 220.825 217.549 220.825C216.136 220.825 215.239 220.076 215.239 218.933Z" fill="#0C1612"/>
<path d="M223.93 214.41L223.642 214.698L226.108 217.162L227.565 215.705L229.832 217.958H228.636V218.358H230.494V216.501H230.099V217.664L227.56 215.122L226.102 216.579L223.93 214.41Z" fill="#00954A"/>
<path d="M235.744 218.672L232.849 218.678V218.233L234.231 217.041C234.925 216.442 235.121 216.151 235.121 215.694C235.121 215.154 234.813 214.834 234.297 214.834C233.769 214.834 233.424 215.22 233.413 215.831H232.831C232.849 214.911 233.43 214.312 234.302 214.312C235.163 214.312 235.714 214.834 235.714 215.658C235.714 216.27 235.412 216.703 234.652 217.361L233.763 218.132H235.744V218.672ZM239.645 218.678H238.227V214.389H239.621C240.903 214.389 241.769 215.255 241.769 216.536C241.769 217.812 240.915 218.678 239.645 218.678ZM239.58 214.923H238.809V218.138H239.604C240.559 218.138 241.164 217.521 241.164 216.536C241.164 215.54 240.559 214.923 239.58 214.923ZM243.321 218.749C242.698 218.749 242.331 218.399 242.331 217.871C242.331 217.337 242.728 217.005 243.41 216.952L244.324 216.881V216.797C244.324 216.311 244.033 216.139 243.642 216.139C243.173 216.139 242.906 216.347 242.906 216.697H242.42C242.42 216.092 242.918 215.694 243.665 215.694C244.383 215.694 244.87 216.074 244.87 216.857V218.678H244.395L244.336 218.209C244.187 218.542 243.79 218.749 243.321 218.749ZM243.481 218.316C244.009 218.316 244.33 217.972 244.33 217.426V217.272L243.588 217.331C243.096 217.379 242.894 217.569 242.894 217.853C242.894 218.162 243.12 218.316 243.481 218.316ZM245.353 219.977V219.52H245.727C245.993 219.52 246.207 219.479 246.343 219.111L246.444 218.832L245.276 215.777H245.863L246.705 218.114L247.566 215.777H248.141L246.771 219.331C246.575 219.829 246.284 220.036 245.839 220.036C245.655 220.036 245.501 220.013 245.353 219.977ZM248.368 217.836H248.902C248.902 218.132 249.127 218.31 249.495 218.31C249.886 218.31 250.112 218.15 250.112 217.883C250.112 217.687 250.017 217.569 249.714 217.492L249.204 217.373C248.688 217.248 248.445 216.993 248.445 216.566C248.445 216.032 248.896 215.694 249.536 215.694C250.171 215.694 250.586 216.05 250.598 216.602H250.064C250.052 216.311 249.857 216.127 249.518 216.127C249.168 216.127 248.973 216.281 248.973 216.548C248.973 216.744 249.115 216.875 249.4 216.946L249.91 217.07C250.402 217.189 250.646 217.414 250.646 217.847C250.646 218.399 250.171 218.749 249.483 218.749C248.801 218.749 248.368 218.387 248.368 217.836Z" fill="#00954A"/>
<path d="M174.753 234.097C174.753 233.692 174.991 233.365 175.364 233.23C175.047 233.095 174.875 232.829 174.875 232.489C174.875 231.962 175.327 231.603 175.998 231.603C176.66 231.603 177.107 231.962 177.107 232.494C177.107 232.839 176.93 233.104 176.613 233.23C176.991 233.351 177.233 233.687 177.233 234.102C177.233 234.694 176.739 235.09 175.993 235.09C175.243 235.09 174.753 234.694 174.753 234.097ZM175.294 232.517C175.294 232.848 175.569 233.062 175.989 233.062C176.413 233.062 176.678 232.853 176.678 232.526C176.678 232.205 176.413 232 175.989 232C175.569 232 175.294 232.205 175.294 232.517ZM175.201 234.064C175.201 234.442 175.513 234.684 175.993 234.684C176.469 234.684 176.781 234.442 176.781 234.064C176.781 233.692 176.473 233.454 175.989 233.454C175.509 233.454 175.201 233.692 175.201 234.064ZM177.709 233.351C177.709 232.307 178.249 231.599 179.098 231.599C179.941 231.599 180.482 232.307 180.482 233.351C180.482 234.4 179.964 235.095 179.098 235.095C178.226 235.095 177.709 234.4 177.709 233.351ZM178.161 233.351C178.161 234.181 178.506 234.684 179.098 234.684C179.689 234.684 180.03 234.181 180.03 233.351C180.03 232.512 179.689 232.009 179.098 232.009C178.506 232.009 178.161 232.512 178.161 233.351Z" fill="#5C6662"/>
<path d="M175.255 246.697L176.043 245.63H176.574L175.731 246.749C175.847 246.702 175.968 246.679 176.085 246.679C176.784 246.679 177.255 247.182 177.255 247.849C177.255 248.553 176.724 249.056 176.029 249.056C175.33 249.056 174.789 248.529 174.789 247.849C174.789 247.448 174.91 247.168 175.255 246.697ZM175.255 247.853C175.255 248.315 175.572 248.646 176.029 248.646C176.477 248.646 176.793 248.315 176.793 247.853C176.793 247.392 176.477 247.066 176.029 247.066C175.572 247.066 175.255 247.392 175.255 247.853ZM177.709 247.317C177.709 246.273 178.249 245.565 179.098 245.565C179.941 245.565 180.482 246.273 180.482 247.317C180.482 248.366 179.964 249.061 179.098 249.061C178.226 249.061 177.709 248.366 177.709 247.317ZM178.161 247.317C178.161 248.147 178.506 248.65 179.098 248.65C179.689 248.65 180.03 248.147 180.03 247.317C180.03 246.478 179.689 245.975 179.098 245.975C178.506 245.975 178.161 246.478 178.161 247.317Z" fill="#5C6662"/>
<path d="M177.225 264.328H176.824V265.009H176.386V264.328H174.643V263.923L176.232 261.639H176.824V263.923H177.225V264.328ZM175.137 263.923H176.386V262.123L175.137 263.923ZM177.709 263.326C177.709 262.282 178.249 261.573 179.098 261.573C179.941 261.573 180.482 262.282 180.482 263.326C180.482 264.375 179.964 265.069 179.098 265.069C178.226 265.069 177.709 264.375 177.709 263.326ZM178.161 263.326C178.161 264.156 178.506 264.659 179.098 264.659C179.689 264.659 180.03 264.156 180.03 263.326C180.03 262.487 179.689 261.984 179.098 261.984C178.506 261.984 178.161 262.487 178.161 263.326Z" fill="#5C6662"/>
<path d="M177.256 281.012L174.981 281.017V280.668L176.067 279.731C176.612 279.26 176.766 279.031 176.766 278.673C176.766 278.248 176.524 277.997 176.118 277.997C175.703 277.997 175.433 278.3 175.424 278.78H174.967C174.981 278.057 175.438 277.587 176.123 277.587C176.799 277.587 177.232 277.997 177.232 278.645C177.232 279.125 176.994 279.465 176.398 279.982L175.699 280.588H177.256V281.012ZM177.709 279.334C177.709 278.29 178.249 277.582 179.098 277.582C179.941 277.582 180.482 278.29 180.482 279.334C180.482 280.383 179.964 281.078 179.098 281.078C178.226 281.078 177.709 280.383 177.709 279.334ZM178.161 279.334C178.161 280.164 178.506 280.668 179.098 280.668C179.689 280.668 180.03 280.164 180.03 279.334C180.03 278.495 179.689 277.992 179.098 277.992C178.506 277.992 178.161 278.495 178.161 279.334Z" fill="#5C6662"/>
<path d="M177.709 295.343C177.709 294.299 178.249 293.59 179.098 293.59C179.941 293.59 180.482 294.299 180.482 295.343C180.482 296.391 179.964 297.086 179.098 297.086C178.226 297.086 177.709 296.391 177.709 295.343ZM178.161 295.343C178.161 296.172 178.506 296.676 179.098 296.676C179.689 296.676 180.03 296.172 180.03 295.343C180.03 294.504 179.689 294 179.098 294C178.506 294 178.161 294.504 178.161 295.343Z" fill="#5C6662"/>
<path d="M193.424 230.034L193.424 309.322" stroke="#EAEDD6" stroke-width="0.29661"/>
<path d="M189.665 314.656V314.489H190.108V314.656C190.108 314.987 190.29 315.225 190.663 315.225C191.045 315.225 191.213 314.992 191.213 314.642V312.223H191.67V314.661C191.67 315.267 191.264 315.649 190.663 315.649C190.02 315.649 189.665 315.239 189.665 314.656ZM193.055 315.649C192.566 315.649 192.277 315.374 192.277 314.959C192.277 314.54 192.589 314.279 193.125 314.237L193.843 314.181V314.116C193.843 313.734 193.615 313.598 193.307 313.598C192.939 313.598 192.729 313.761 192.729 314.036H192.347C192.347 313.561 192.738 313.249 193.326 313.249C193.89 313.249 194.272 313.547 194.272 314.162V315.593H193.899L193.852 315.225C193.736 315.486 193.424 315.649 193.055 315.649ZM193.181 315.309C193.596 315.309 193.848 315.039 193.848 314.61V314.489L193.265 314.535C192.878 314.572 192.72 314.722 192.72 314.945C192.72 315.188 192.897 315.309 193.181 315.309ZM195.349 315.593H194.911V313.314H195.308L195.354 313.664C195.499 313.403 195.788 313.249 196.109 313.249C196.71 313.249 196.985 313.617 196.985 314.2V315.593H196.547V314.297C196.547 313.836 196.333 313.65 195.997 313.65C195.587 313.65 195.349 313.943 195.349 314.386V315.593Z" fill="#5C6662"/>
<path d="M211.47 230.034L211.47 309.322" stroke="#EAEDD6" stroke-width="0.29661"/>
<path d="M209.745 314.162H208.421V315.593H207.965V312.223H209.997V312.643H208.421V313.747H209.745V314.162ZM211.314 315.649C210.643 315.649 210.181 315.164 210.181 314.456C210.181 313.743 210.634 313.249 211.295 313.249C211.943 313.249 212.367 313.696 212.367 314.372V314.535L210.606 314.54C210.638 315.02 210.89 315.286 211.323 315.286C211.664 315.286 211.887 315.146 211.962 314.885H212.372C212.26 315.374 211.878 315.649 211.314 315.649ZM211.295 313.617C210.913 313.617 210.671 313.845 210.615 314.246H211.929C211.929 313.869 211.682 313.617 211.295 313.617ZM213.286 315.593H212.889V312.163H213.328V313.706C213.477 313.407 213.784 313.249 214.157 313.249C214.81 313.249 215.201 313.761 215.201 314.465C215.201 315.155 214.791 315.649 214.129 315.649C213.77 315.649 213.467 315.491 213.318 315.178L213.286 315.593ZM213.332 314.447C213.332 314.922 213.603 315.253 214.05 315.253C214.497 315.253 214.763 314.917 214.763 314.447C214.763 313.981 214.497 313.645 214.05 313.645C213.603 313.645 213.332 313.981 213.332 314.447Z" fill="#5C6662"/>
<path d="M192.942 250.509L211.798 255.593L229.807 256.017L248.027 258.559L266.247 255.17L284.044 259.407L302.688 253.898L319.849 257.5C319.849 257.5 331.083 259.36 338.281 259.195" stroke="#00954A" stroke-width="0.847458"/>
<path d="M229.516 230.034L229.516 309.322" stroke="#EAEDD6" stroke-width="0.29661"/>
<path d="M226.214 315.593H225.767V312.223H226.214L227.375 315.057L228.536 312.223H228.992V315.593H228.545V314.26C228.545 313.631 228.55 313.403 228.573 313.165L227.589 315.593H227.161L226.182 313.174C226.205 313.337 226.214 313.682 226.214 314.153V315.593ZM230.402 315.649C229.912 315.649 229.623 315.374 229.623 314.959C229.623 314.54 229.936 314.279 230.472 314.237L231.189 314.181V314.116C231.189 313.734 230.961 313.598 230.653 313.598C230.285 313.598 230.075 313.761 230.075 314.036H229.693C229.693 313.561 230.085 313.249 230.672 313.249C231.236 313.249 231.618 313.547 231.618 314.162V315.593H231.245L231.199 315.225C231.082 315.486 230.77 315.649 230.402 315.649ZM230.528 315.309C230.942 315.309 231.194 315.039 231.194 314.61V314.489L230.611 314.535C230.225 314.572 230.066 314.722 230.066 314.945C230.066 315.188 230.243 315.309 230.528 315.309ZM233.563 313.295V313.696H233.367C232.952 313.696 232.696 313.948 232.696 314.386V315.593H232.258V313.319H232.668L232.696 313.664C232.789 313.426 233.017 313.267 233.33 313.267C233.409 313.267 233.474 313.277 233.563 313.295Z" fill="#5C6662"/>
<path d="M247.562 230.034L247.563 309.322" stroke="#EAEDD6" stroke-width="0.29661"/>
<path d="M244.263 315.593H243.787L245.018 312.223H245.526L246.761 315.593H246.281L245.978 314.754H244.561L244.263 315.593ZM245.214 312.95L244.701 314.358H245.843L245.325 312.95C245.302 312.885 245.279 312.806 245.27 312.755C245.26 312.801 245.237 312.881 245.214 312.95ZM247.167 316.614V313.314H247.563L247.596 313.724C247.75 313.412 248.057 313.249 248.421 313.249C249.073 313.249 249.479 313.738 249.479 314.437C249.479 315.132 249.097 315.654 248.421 315.654C248.057 315.654 247.754 315.5 247.605 315.22V316.614H247.167ZM247.61 314.456C247.61 314.922 247.88 315.258 248.328 315.258C248.775 315.258 249.041 314.922 249.041 314.456C249.041 313.985 248.775 313.65 248.328 313.65C247.88 313.65 247.61 313.981 247.61 314.456ZM251.3 313.295V313.696H251.104C250.689 313.696 250.433 313.948 250.433 314.386V315.593H249.994V313.319H250.405L250.433 313.664C250.526 313.426 250.754 313.267 251.067 313.267C251.146 313.267 251.211 313.277 251.3 313.295Z" fill="#5C6662"/>
<path d="M265.609 230.034L265.609 309.322" stroke="#EAEDD6" stroke-width="0.29661"/>
<path d="M262.032 315.593H261.584V312.223H262.032L263.192 315.057L264.353 312.223H264.81V315.593H264.362V314.26C264.362 313.631 264.367 313.403 264.39 313.165L263.407 315.593H262.978L261.999 313.174C262.023 313.337 262.032 313.682 262.032 314.153V315.593ZM266.219 315.649C265.73 315.649 265.441 315.374 265.441 314.959C265.441 314.54 265.753 314.279 266.289 314.237L267.007 314.181V314.116C267.007 313.734 266.778 313.598 266.471 313.598C266.103 313.598 265.893 313.761 265.893 314.036H265.511C265.511 313.561 265.902 313.249 266.489 313.249C267.053 313.249 267.436 313.547 267.436 314.162V315.593H267.063L267.016 315.225C266.9 315.486 266.587 315.649 266.219 315.649ZM266.345 315.309C266.76 315.309 267.011 315.039 267.011 314.61V314.489L266.429 314.535C266.042 314.572 265.883 314.722 265.883 314.945C265.883 315.188 266.061 315.309 266.345 315.309ZM267.801 316.614V316.255H268.095C268.305 316.255 268.473 316.222 268.58 315.934L268.659 315.714L267.741 313.314H268.202L268.864 315.15L269.54 313.314H269.992L268.915 316.106C268.761 316.497 268.533 316.661 268.184 316.661C268.039 316.661 267.918 316.642 267.801 316.614Z" fill="#5C6662"/>
<path d="M283.655 230.034L283.655 309.322" stroke="#EAEDD6" stroke-width="0.29661"/>
<path d="M279.819 314.656V314.489H280.262V314.656C280.262 314.987 280.444 315.225 280.816 315.225C281.199 315.225 281.366 314.992 281.366 314.642V312.223H281.823V314.661C281.823 315.267 281.418 315.649 280.816 315.649C280.173 315.649 279.819 315.239 279.819 314.656ZM284.118 313.314H284.551V315.593H284.16L284.113 315.248C283.983 315.486 283.68 315.649 283.344 315.649C282.813 315.649 282.514 315.29 282.514 314.731V313.314H282.953V314.586C282.953 315.076 283.162 315.262 283.498 315.262C283.899 315.262 284.118 315.006 284.118 314.517V313.314ZM285.658 315.593H285.22V313.314H285.616L285.662 313.664C285.807 313.403 286.096 313.249 286.418 313.249C287.019 313.249 287.294 313.617 287.294 314.2V315.593H286.856V314.297C286.856 313.836 286.641 313.65 286.306 313.65C285.896 313.65 285.658 313.943 285.658 314.386V315.593Z" fill="#5C6662"/>
<path d="M301.701 230.034L301.701 309.322" stroke="#EAEDD6" stroke-width="0.29661"/>
<path d="M298.66 314.656V314.489H299.103V314.656C299.103 314.987 299.284 315.225 299.657 315.225C300.039 315.225 300.207 314.992 300.207 314.642V312.223H300.664V314.661C300.664 315.267 300.258 315.649 299.657 315.649C299.014 315.649 298.66 315.239 298.66 314.656ZM302.959 313.314H303.392V315.593H303L302.954 315.248C302.823 315.486 302.52 315.649 302.185 315.649C301.653 315.649 301.355 315.29 301.355 314.731V313.314H301.793V314.586C301.793 315.076 302.003 315.262 302.339 315.262C302.739 315.262 302.959 315.006 302.959 314.517V313.314ZM304.508 315.593H304.07V312.163H304.508V315.593Z" fill="#5C6662"/>
<path d="M319.748 230.034L319.748 309.322" stroke="#EAEDD6" stroke-width="0.29661"/>
<path d="M316.02 315.593H315.545L316.775 312.223H317.283L318.518 315.593H318.038L317.735 314.754H316.318L316.02 315.593ZM316.971 312.95L316.458 314.358H317.6L317.083 312.95C317.059 312.885 317.036 312.806 317.027 312.755C317.017 312.801 316.994 312.881 316.971 312.95ZM320.436 313.314H320.869V315.593H320.478L320.431 315.248C320.301 315.486 319.998 315.649 319.662 315.649C319.131 315.649 318.833 315.29 318.833 314.731V313.314H319.271V314.586C319.271 315.076 319.48 315.262 319.816 315.262C320.217 315.262 320.436 315.006 320.436 314.517V313.314ZM321.393 314.395C321.393 313.752 321.808 313.249 322.47 313.249C322.838 313.249 323.122 313.417 323.267 313.701L323.3 313.314H323.691V315.5C323.691 316.218 323.248 316.675 322.549 316.675C321.929 316.675 321.505 316.325 321.421 315.747H321.859C321.915 316.083 322.167 316.278 322.549 316.278C322.978 316.278 323.258 315.999 323.258 315.565V315.109C323.109 315.374 322.81 315.533 322.451 315.533C321.803 315.533 321.393 315.034 321.393 314.395ZM321.831 314.386C321.831 314.815 322.097 315.15 322.526 315.15C322.969 315.15 323.239 314.834 323.239 314.386C323.239 313.948 322.978 313.631 322.531 313.631C322.092 313.631 321.831 313.967 321.831 314.386Z" fill="#5C6662"/>
<rect x="32" y="183" width="122" height="131.79" rx="3" fill="#F1F3E4"/>
<path d="M44.5985 196.124V201.296H43.8973V196.124H44.5985ZM46.5058 201.296H45.8333V197.798H46.4414L46.513 198.334C46.7348 197.934 47.1783 197.698 47.672 197.698C48.5949 197.698 49.017 198.263 49.017 199.157V201.296H48.3445V199.307C48.3445 198.599 48.0154 198.313 47.5003 198.313C46.8707 198.313 46.5058 198.764 46.5058 199.443V201.296ZM51.0018 201.296L49.5924 197.798H50.3078L51.0734 199.751C51.195 200.08 51.2951 200.373 51.3524 200.588C51.4096 200.359 51.5241 200.059 51.6457 199.751L52.4255 197.798H53.1266L51.6672 201.296H51.0018ZM53.4152 199.544C53.4152 198.463 54.1878 197.705 55.2395 197.705C56.2841 197.705 57.0567 198.463 57.0567 199.544C57.0567 200.624 56.2841 201.382 55.2395 201.382C54.1878 201.382 53.4152 200.624 53.4152 199.544ZM54.0948 199.544C54.0948 200.273 54.5599 200.781 55.2395 200.781C55.912 200.781 56.3842 200.273 56.3842 199.544C56.3842 198.814 55.912 198.306 55.2395 198.306C54.5599 198.306 54.0948 198.814 54.0948 199.544ZM58.2733 196.968C58.0301 196.968 57.8298 196.768 57.8298 196.524C57.8298 196.274 58.0301 196.081 58.2733 196.081C58.5166 196.081 58.7169 196.274 58.7169 196.524C58.7169 196.768 58.5166 196.968 58.2733 196.968ZM57.9442 201.296V197.798H58.6167V201.296H57.9442ZM59.5072 199.551C59.5072 198.456 60.2012 197.698 61.2243 197.698C62.1043 197.698 62.7195 198.199 62.8412 198.978H62.1686C62.0542 198.535 61.6965 198.299 61.2457 198.299C60.609 198.299 60.1726 198.785 60.1726 199.544C60.1726 200.295 60.5804 200.781 61.2171 200.781C61.6965 200.781 62.0542 200.531 62.1758 200.116H62.8483C62.7124 200.874 62.0613 201.382 61.2171 201.382C60.1869 201.382 59.5072 200.652 59.5072 199.551ZM65.2105 201.382C64.1803 201.382 63.472 200.638 63.472 199.551C63.472 198.456 64.166 197.698 65.1819 197.698C66.1764 197.698 66.8274 198.385 66.8274 199.422V199.672L64.1231 199.68C64.1731 200.416 64.5595 200.824 65.2248 200.824C65.7471 200.824 66.0905 200.61 66.205 200.209H66.8345C66.6628 200.96 66.0762 201.382 65.2105 201.382ZM65.1819 198.263C64.5952 198.263 64.2232 198.614 64.1374 199.229H66.1549C66.1549 198.649 65.7757 198.263 65.1819 198.263ZM67.4355 200.28H68.0793C68.0793 200.638 68.3512 200.853 68.7948 200.853C69.267 200.853 69.5388 200.66 69.5388 200.338C69.5388 200.102 69.4244 199.959 69.0595 199.866L68.4442 199.722C67.8218 199.572 67.5285 199.265 67.5285 198.749C67.5285 198.106 68.0722 197.698 68.8449 197.698C69.6104 197.698 70.1112 198.127 70.1255 198.792H69.4816C69.4673 198.442 69.2312 198.22 68.8234 198.22C68.4013 198.22 68.1652 198.406 68.1652 198.728C68.1652 198.964 68.3369 199.121 68.6803 199.207L69.2956 199.358C69.8894 199.501 70.1827 199.773 70.1827 200.295C70.1827 200.96 69.6104 201.382 68.7805 201.382C67.9577 201.382 67.4355 200.946 67.4355 200.28ZM73.5 201.296H72.7703L74.659 196.124H75.4388L77.3347 201.296H76.5978L76.1328 200.009H73.9579L73.5 201.296ZM74.9595 197.24L74.1725 199.4H75.9253L75.1312 197.24C75.0954 197.14 75.0597 197.018 75.0454 196.939C75.0311 197.011 74.9953 197.133 74.9595 197.24ZM78.9754 201.296H78.3029V198.363H77.6161V197.798H78.3029V196.703H78.9754V197.798H79.6622V198.363H78.9754V201.296ZM83.3238 201.296H82.6226V196.124H84.5758C85.6847 196.124 86.3429 196.71 86.3429 197.676C86.3429 198.392 85.9852 198.907 85.3413 199.114L86.393 201.296H85.6131L84.6473 199.25H83.3238V201.296ZM83.3238 196.753V198.628H84.5829C85.234 198.628 85.606 198.277 85.606 197.683C85.606 197.082 85.2196 196.753 84.5758 196.753H83.3238ZM87.6614 196.968C87.4181 196.968 87.2178 196.768 87.2178 196.524C87.2178 196.274 87.4181 196.081 87.6614 196.081C87.9046 196.081 88.105 196.274 88.105 196.524C88.105 196.768 87.9046 196.968 87.6614 196.968ZM87.3323 201.296V197.798H88.0048V201.296H87.3323ZM88.8381 200.28H89.4819C89.4819 200.638 89.7538 200.853 90.1974 200.853C90.6696 200.853 90.9414 200.66 90.9414 200.338C90.9414 200.102 90.827 199.959 90.4621 199.866L89.8468 199.722C89.2244 199.572 88.9311 199.265 88.9311 198.749C88.9311 198.106 89.4748 197.698 90.2475 197.698C91.013 197.698 91.5138 198.127 91.5281 198.792H90.8842C90.8699 198.442 90.6338 198.22 90.226 198.22C89.8039 198.22 89.5678 198.406 89.5678 198.728C89.5678 198.964 89.7395 199.121 90.0829 199.207L90.6982 199.358C91.292 199.501 91.5853 199.773 91.5853 200.295C91.5853 200.96 91.013 201.382 90.1831 201.382C89.3603 201.382 88.8381 200.946 88.8381 200.28ZM93.161 201.296H92.4885V196.031H93.161V199.443L94.7135 197.798H95.5577L94.2198 199.193L95.5505 201.296H94.7779L93.7548 199.68L93.161 200.302V201.296Z" fill="#0C1612"/>
<path d="M49.7172 215.338H48.7781V216.932H47.7516V215.338H43.6677V214.388L47.3913 209.037H48.7781V214.388H49.7172V215.338ZM44.8252 214.388H47.7516V210.173L44.8252 214.388ZM54.9013 210.904C54.9013 212.073 54.0714 212.914 52.903 212.914C51.7455 212.914 50.9156 212.073 50.9156 210.904C50.9156 209.725 51.7455 208.884 52.903 208.884C54.0714 208.884 54.9013 209.725 54.9013 210.904ZM59.0617 209.048L53.0668 216.932H52.0185L58.0134 209.048H59.0617ZM54.0604 210.904C54.0604 210.195 53.5909 209.703 52.903 209.703C52.2259 209.703 51.7564 210.195 51.7564 210.904C51.7564 211.603 52.2259 212.095 52.903 212.095C53.58 212.095 54.0604 211.603 54.0604 210.904ZM60.1864 215.065C60.1864 216.233 59.3456 217.074 58.1881 217.074C57.0306 217.074 56.1898 216.233 56.1898 215.065C56.1898 213.886 57.0306 213.056 58.1881 213.056C59.3456 213.056 60.1864 213.886 60.1864 215.065ZM59.3347 215.065C59.3347 214.355 58.8761 213.864 58.1881 213.864C57.5111 213.864 57.0415 214.355 57.0415 215.065C57.0415 215.764 57.5111 216.255 58.1881 216.255C58.8651 216.255 59.3347 215.764 59.3347 215.065Z" fill="#0C1612"/>
<g clip-path="url(#clip0_782_1491)">
<path d="M64.1562 214.971L63.9004 214.715L66.0915 212.526L67.3864 213.821L69.4007 211.819H68.338V211.463H69.989V213.114H69.6378V212.079L67.3816 214.339L66.0866 213.044L64.1562 214.971Z" fill="#C0463D"/>
</g>
<path d="M72.8256 211.585H72.0243V211.121H73.3212V214.932H72.8256V211.585ZM75.9583 212.022C75.9583 212.586 75.5577 212.992 74.9936 212.992C74.4348 212.992 74.0342 212.586 74.0342 212.022C74.0342 211.453 74.4348 211.047 74.9936 211.047C75.5577 211.047 75.9583 211.453 75.9583 212.022ZM77.9668 211.126L75.0727 214.932H74.5666L77.4607 211.126H77.9668ZM75.5524 212.022C75.5524 211.68 75.3257 211.442 74.9936 211.442C74.6668 211.442 74.4401 211.68 74.4401 212.022C74.4401 212.36 74.6668 212.597 74.9936 212.597C75.3205 212.597 75.5524 212.36 75.5524 212.022ZM78.5098 214.031C78.5098 214.595 78.1039 215.001 77.5451 215.001C76.9863 215.001 76.5804 214.595 76.5804 214.031C76.5804 213.461 76.9863 213.061 77.5451 213.061C78.1039 213.061 78.5098 213.461 78.5098 214.031ZM78.0986 214.031C78.0986 213.688 77.8772 213.451 77.5451 213.451C77.2182 213.451 76.9916 213.688 76.9916 214.031C76.9916 214.368 77.2182 214.605 77.5451 214.605C77.8719 214.605 78.0986 214.368 78.0986 214.031Z" fill="#C0463D"/>
<path d="M53.4094 270.957L50.8369 270.962V270.567L52.0652 269.507C52.682 268.975 52.8559 268.717 52.8559 268.311C52.8559 267.831 52.5818 267.546 52.1232 267.546C51.654 267.546 51.3482 267.889 51.3377 268.432H50.8211C50.8369 267.615 51.3535 267.083 52.1284 267.083C52.8928 267.083 53.3831 267.546 53.3831 268.279C53.3831 268.822 53.1142 269.207 52.4395 269.792L51.6487 270.477H53.4094V270.957ZM55.8249 268.052C55.8249 268.617 55.4242 269.022 54.8602 269.022C54.3014 269.022 53.9007 268.617 53.9007 268.052C53.9007 267.483 54.3014 267.077 54.8602 267.077C55.4242 267.077 55.8249 267.483 55.8249 268.052ZM57.8333 267.156L54.9392 270.962H54.4332L57.3273 267.156H57.8333ZM55.419 268.052C55.419 267.71 55.1923 267.473 54.8602 267.473C54.5333 267.473 54.3066 267.71 54.3066 268.052C54.3066 268.39 54.5333 268.627 54.8602 268.627C55.187 268.627 55.419 268.39 55.419 268.052ZM58.3763 270.061C58.3763 270.625 57.9704 271.031 57.4116 271.031C56.8528 271.031 56.4469 270.625 56.4469 270.061C56.4469 269.492 56.8528 269.091 57.4116 269.091C57.9704 269.091 58.3763 269.492 58.3763 270.061ZM57.9651 270.061C57.9651 269.718 57.7437 269.481 57.4116 269.481C57.0848 269.481 56.8581 269.718 56.8581 270.061C56.8581 270.398 57.0848 270.636 57.4116 270.636C57.7385 270.636 57.9651 270.398 57.9651 270.061Z" fill="#0C1612"/>
<path opacity="0.8" d="M48.9443 276.728C48.9443 276.104 49.4501 275.598 50.074 275.598H59.111C59.7349 275.598 60.2406 276.104 60.2406 276.728V291.697H48.9443V276.728Z" fill="#D7DAAE"/>
<path d="M51.28 299.333H50.8575L51.951 296.338H52.4025L53.5001 299.333H53.0735L52.8042 298.587H51.5451L51.28 299.333ZM52.125 296.984L51.6693 298.235H52.6841L52.2244 296.984C52.2036 296.926 52.1829 296.856 52.1747 296.81C52.1664 296.852 52.1457 296.922 52.125 296.984ZM55.2043 297.307H55.5895V299.333H55.2415L55.2001 299.026C55.0841 299.237 54.8149 299.382 54.5167 299.382C54.0445 299.382 53.7794 299.064 53.7794 298.566V297.307H54.1688V298.438C54.1688 298.873 54.3551 299.039 54.6534 299.039C55.0096 299.039 55.2043 298.811 55.2043 298.376V297.307ZM56.0549 298.268C56.0549 297.697 56.4236 297.249 57.0117 297.249C57.339 297.249 57.5916 297.398 57.72 297.651L57.749 297.307H58.0969V299.25C58.0969 299.888 57.7034 300.294 57.0822 300.294C56.5313 300.294 56.1543 299.983 56.0798 299.469H56.4691C56.5188 299.768 56.7425 299.942 57.0822 299.942C57.4632 299.942 57.7117 299.693 57.7117 299.308V298.902C57.5792 299.138 57.3141 299.279 56.9952 299.279C56.4194 299.279 56.0549 298.836 56.0549 298.268ZM56.4443 298.26C56.4443 298.641 56.6804 298.939 57.0614 298.939C57.4549 298.939 57.6952 298.658 57.6952 298.26C57.6952 297.871 57.4632 297.589 57.0656 297.589C56.6762 297.589 56.4443 297.887 56.4443 298.26Z" fill="#5C6662"/>
<path d="M71.2961 241.279C70.5159 241.279 70.0099 240.783 70.0099 240.024H70.5212C70.5212 240.514 70.8217 240.815 71.3067 240.815C71.8233 240.815 72.1554 240.472 72.1554 239.955C72.1554 239.465 71.8444 239.101 71.312 239.101C70.9904 239.101 70.6952 239.254 70.5212 239.47L70.0837 239.36L70.5476 237.404H72.4559V237.878H70.9219L70.6688 238.891C70.8691 238.738 71.1222 238.659 71.4068 238.659C72.1818 238.659 72.6826 239.202 72.6826 239.934C72.6826 240.725 72.1185 241.279 71.2961 241.279ZM75.0697 238.305C75.0697 238.869 74.669 239.275 74.105 239.275C73.5462 239.275 73.1455 238.869 73.1455 238.305C73.1455 237.736 73.5462 237.33 74.105 237.33C74.669 237.33 75.0697 237.736 75.0697 238.305ZM77.0781 237.409L74.184 241.215H73.678L76.5721 237.409H77.0781ZM74.6637 238.305C74.6637 237.963 74.4371 237.726 74.105 237.726C73.7781 237.726 73.5514 237.963 73.5514 238.305C73.5514 238.643 73.7781 238.88 74.105 238.88C74.4318 238.88 74.6637 238.643 74.6637 238.305ZM77.6211 240.314C77.6211 240.878 77.2152 241.284 76.6564 241.284C76.0976 241.284 75.6917 240.878 75.6917 240.314C75.6917 239.745 76.0976 239.344 76.6564 239.344C77.2152 239.344 77.6211 239.745 77.6211 240.314ZM77.2099 240.314C77.2099 239.971 76.9885 239.734 76.6564 239.734C76.3296 239.734 76.1029 239.971 76.1029 240.314C76.1029 240.651 76.3296 240.888 76.6564 240.888C76.9833 240.888 77.2099 240.651 77.2099 240.314Z" fill="#0C1612"/>
<path opacity="0.8" d="M68.1479 246.981C68.1479 246.357 68.6537 245.851 69.2776 245.851H78.3146C78.9385 245.851 79.4442 246.357 79.4442 246.981V291.697H68.1479V246.981Z" fill="#D7DAAE"/>
<path d="M70.3816 297.146C70.3816 296.632 70.7958 296.284 71.4129 296.284C71.9845 296.284 72.3531 296.603 72.3863 297.121H71.9762C71.9555 296.823 71.7443 296.649 71.4088 296.649C71.0318 296.649 70.7875 296.839 70.7875 297.133C70.7875 297.374 70.9242 297.519 71.2058 297.585L71.6987 297.701C72.1875 297.813 72.436 298.078 72.436 298.5C72.436 299.039 72.0176 299.382 71.3798 299.382C70.7709 299.382 70.365 299.064 70.3401 298.55H70.7543C70.7626 298.836 71.0029 299.018 71.3798 299.018C71.7774 299.018 72.0301 298.832 72.0301 298.533C72.0301 298.297 71.9017 298.148 71.6159 298.082L71.123 297.97C70.6342 297.858 70.3816 297.577 70.3816 297.146ZM73.7827 299.382C73.1863 299.382 72.7762 298.952 72.7762 298.322C72.7762 297.688 73.178 297.249 73.7662 297.249C74.3419 297.249 74.7188 297.647 74.7188 298.248V298.393L73.1532 298.397C73.1821 298.823 73.4058 299.059 73.791 299.059C74.0934 299.059 74.2922 298.935 74.3585 298.703H74.723C74.6236 299.138 74.2839 299.382 73.7827 299.382ZM73.7662 297.577C73.4265 297.577 73.2111 297.78 73.1614 298.136H74.3295C74.3295 297.8 74.1099 297.577 73.7662 297.577ZM75.1827 300.24V297.307H75.5348L75.5637 297.672C75.7004 297.394 75.9738 297.249 76.2969 297.249C76.8768 297.249 77.2371 297.684 77.2371 298.306C77.2371 298.923 76.8975 299.387 76.2969 299.387C75.9738 299.387 75.7046 299.25 75.572 299.001V300.24H75.1827ZM75.5762 298.322C75.5762 298.736 75.8164 299.035 76.214 299.035C76.6117 299.035 76.8478 298.736 76.8478 298.322C76.8478 297.904 76.6117 297.606 76.214 297.606C75.8164 297.606 75.5762 297.9 75.5762 298.322Z" fill="#5C6662"/>
<path d="M90.3697 255.435H89.9901V255.093L91.0708 254.054H89.3575V253.595H91.7245V254.012L90.6807 255.008C91.3291 255.087 91.8194 255.525 91.8194 256.21C91.8194 256.98 91.2395 257.47 90.4646 257.47C89.716 257.47 89.1783 257.011 89.1783 256.221H89.6896C89.6896 256.716 89.9954 257.006 90.4751 257.006C90.9706 257.006 91.2922 256.69 91.2922 256.2C91.2922 255.741 90.9759 255.435 90.3697 255.435ZM94.2146 254.497C94.2146 255.061 93.8139 255.467 93.2499 255.467C92.6911 255.467 92.2904 255.061 92.2904 254.497C92.2904 253.927 92.6911 253.522 93.2499 253.522C93.8139 253.522 94.2146 253.927 94.2146 254.497ZM96.223 253.601L93.3289 257.407H92.8229L95.717 253.601H96.223ZM93.8086 254.497C93.8086 254.154 93.582 253.917 93.2499 253.917C92.923 253.917 92.6963 254.154 92.6963 254.497C92.6963 254.834 92.923 255.071 93.2499 255.071C93.5767 255.071 93.8086 254.834 93.8086 254.497ZM96.766 256.505C96.766 257.069 96.3601 257.475 95.8013 257.475C95.2425 257.475 94.8366 257.069 94.8366 256.505C94.8366 255.936 95.2425 255.535 95.8013 255.535C96.3601 255.535 96.766 255.936 96.766 256.505ZM96.3548 256.505C96.3548 256.163 96.1334 255.925 95.8013 255.925C95.4745 255.925 95.2478 256.163 95.2478 256.505C95.2478 256.843 95.4745 257.08 95.8013 257.08C96.1282 257.08 96.3548 256.843 96.3548 256.505Z" fill="#0C1612"/>
<path opacity="0.8" d="M87.3521 263.172C87.3521 262.548 87.8578 262.042 88.4817 262.042H97.5187C98.1426 262.042 98.6483 262.548 98.6483 263.172V291.697H87.3521V263.172Z" fill="#D7DAAE"/>
<path d="M92.6442 297.833C92.6442 298.745 92.0478 299.382 91.1987 299.382C90.3537 299.382 89.7656 298.745 89.7656 297.833C89.7656 296.926 90.3579 296.284 91.2028 296.284C92.0519 296.284 92.6442 296.922 92.6442 297.833ZM92.2176 297.833C92.2176 297.138 91.8117 296.678 91.2028 296.678C90.594 296.678 90.1922 297.138 90.1922 297.833C90.1922 298.529 90.594 298.993 91.2028 298.993C91.8117 298.993 92.2176 298.525 92.2176 297.833ZM92.9936 298.322C92.9936 297.688 93.3954 297.249 93.9877 297.249C94.4971 297.249 94.8533 297.539 94.9237 297.991H94.5344C94.4681 297.734 94.261 297.597 94.0001 297.597C93.6314 297.597 93.3788 297.879 93.3788 298.318C93.3788 298.753 93.6149 299.035 93.9835 299.035C94.261 299.035 94.4681 298.89 94.5385 298.649H94.9279C94.8492 299.088 94.4723 299.382 93.9835 299.382C93.3871 299.382 92.9936 298.96 92.9936 298.322ZM95.9393 299.333H95.5499V297.635H95.1523V297.307H95.5499V296.674H95.9393V297.307H96.3369V297.635H95.9393V299.333Z" fill="#5C6662"/>
<path d="M111.146 246.847H110.692V247.617H110.197V246.847H108.225V246.388L110.023 243.805H110.692V246.388H111.146V246.847ZM108.784 246.388H110.197V244.354L108.784 246.388ZM113.596 244.707C113.596 245.271 113.195 245.677 112.631 245.677C112.072 245.677 111.672 245.271 111.672 244.707C111.672 244.137 112.072 243.732 112.631 243.732C113.195 243.732 113.596 244.137 113.596 244.707ZM115.604 243.811L112.71 247.617H112.204L115.098 243.811H115.604ZM113.19 244.707C113.19 244.364 112.963 244.127 112.631 244.127C112.304 244.127 112.078 244.364 112.078 244.707C112.078 245.044 112.304 245.281 112.631 245.281C112.958 245.281 113.19 245.044 113.19 244.707ZM116.147 246.715C116.147 247.279 115.741 247.685 115.183 247.685C114.624 247.685 114.218 247.279 114.218 246.715C114.218 246.146 114.624 245.745 115.183 245.745C115.741 245.745 116.147 246.146 116.147 246.715ZM115.736 246.715C115.736 246.373 115.515 246.135 115.183 246.135C114.856 246.135 114.629 246.373 114.629 246.715C114.629 247.053 114.856 247.29 115.183 247.29C115.509 247.29 115.736 247.053 115.736 246.715Z" fill="#C0463D"/>
<path d="M106.556 253.382C106.556 252.758 107.061 252.252 107.685 252.252H116.722C117.346 252.252 117.852 252.758 117.852 253.382V291.697H106.556V253.382Z" fill="#C0463D"/>
<path d="M109.197 299.333H108.791V296.338H109.197L110.73 298.653V296.338H111.136V299.333H110.73L109.197 297.017V299.333ZM111.663 298.318C111.663 297.693 112.111 297.253 112.719 297.253C113.324 297.253 113.772 297.693 113.772 298.318C113.772 298.943 113.324 299.382 112.719 299.382C112.111 299.382 111.663 298.943 111.663 298.318ZM112.057 298.318C112.057 298.74 112.326 299.035 112.719 299.035C113.109 299.035 113.382 298.74 113.382 298.318C113.382 297.895 113.109 297.601 112.719 297.601C112.326 297.601 112.057 297.895 112.057 298.318ZM114.706 299.333L113.89 297.307H114.304L114.747 298.438C114.818 298.629 114.876 298.798 114.909 298.923C114.942 298.79 115.008 298.616 115.079 298.438L115.53 297.307H115.936L115.091 299.333H114.706Z" fill="#5C6662"/>
<path d="M130.604 256.231V255.788H132.212V256.231H130.604Z" fill="#0C1612"/>
<mask id="mask1_782_1491" style="mask-type:alpha" maskUnits="userSpaceOnUse" x="125" y="262" width="13" height="30">
<path opacity="0.8" d="M125.759 263.172C125.759 262.548 126.265 262.042 126.889 262.042H135.926C136.55 262.042 137.056 262.548 137.056 263.172V291.697H125.759V263.172Z" fill="#E8EBD3"/>
</mask>
<g mask="url(#mask1_782_1491)">
<rect width="45.2549" height="1.15366" transform="matrix(0.964438 -0.264307 0.253429 0.967354 109.568 261.295)" fill="#D1D4A1"/>
<rect width="45.2549" height="1.15366" transform="matrix(0.964438 -0.264307 0.253429 0.967354 109.568 263.99)" fill="#D1D4A1"/>
<rect width="45.2549" height="1.15366" transform="matrix(0.964438 -0.264307 0.253429 0.967354 109.568 266.687)" fill="#D1D4A1"/>
<rect width="45.2549" height="1.15366" transform="matrix(0.964438 -0.264307 0.253429 0.967354 109.568 269.382)" fill="#D1D4A1"/>
<rect width="45.2549" height="1.15366" transform="matrix(0.964438 -0.264307 0.253429 0.967354 109.568 272.078)" fill="#D1D4A1"/>
<rect width="45.2549" height="1.15366" transform="matrix(0.964438 -0.264307 0.253429 0.967354 109.568 274.774)" fill="#D1D4A1"/>
<rect width="45.2549" height="1.15366" transform="matrix(0.964438 -0.264307 0.253429 0.967354 109.568 277.47)" fill="#D1D4A1"/>
<rect width="45.2549" height="1.15366" transform="matrix(0.964438 -0.264307 0.253429 0.967354 109.568 280.166)" fill="#D1D4A1"/>
<rect width="45.2549" height="1.15366" transform="matrix(0.964438 -0.264307 0.253429 0.967354 109.568 282.862)" fill="#D1D4A1"/>
<rect width="45.2549" height="1.15366" transform="matrix(0.964438 -0.264307 0.253429 0.967354 109.568 285.557)" fill="#D1D4A1"/>
<rect width="45.2549" height="1.15366" transform="matrix(0.964438 -0.264307 0.253429 0.967354 109.568 288.253)" fill="#D1D4A1"/>
<rect width="45.2549" height="1.15366" transform="matrix(0.964438 -0.264307 0.253429 0.967354 109.568 290.949)" fill="#D1D4A1"/>
<rect width="45.2549" height="1.15366" transform="matrix(0.964438 -0.264307 0.253429 0.967354 109.568 293.645)" fill="#D1D4A1"/>
<rect width="45.2549" height="1.15366" transform="matrix(0.964438 -0.264307 0.253429 0.967354 109.568 296.341)" fill="#D1D4A1"/>
<rect width="45.2549" height="1.15366" transform="matrix(0.964438 -0.264307 0.253429 0.967354 109.568 299.037)" fill="#D1D4A1"/>
<rect width="45.2549" height="1.15366" transform="matrix(0.964438 -0.264307 0.253429 0.967354 109.568 301.732)" fill="#D1D4A1"/>
</g>
<path d="M128.993 299.333H128.003V296.338H128.976C129.871 296.338 130.476 296.943 130.476 297.838C130.476 298.728 129.879 299.333 128.993 299.333ZM128.947 296.711H128.409V298.956H128.964C129.631 298.956 130.053 298.525 130.053 297.838C130.053 297.142 129.631 296.711 128.947 296.711ZM131.829 299.382C131.232 299.382 130.822 298.952 130.822 298.322C130.822 297.688 131.224 297.249 131.812 297.249C132.388 297.249 132.765 297.647 132.765 298.248V298.393L131.199 298.397C131.228 298.823 131.452 299.059 131.837 299.059C132.14 299.059 132.338 298.935 132.405 298.703H132.769C132.67 299.138 132.33 299.382 131.829 299.382ZM131.812 297.577C131.473 297.577 131.257 297.78 131.208 298.136H132.376C132.376 297.8 132.156 297.577 131.812 297.577ZM133.096 298.322C133.096 297.688 133.498 297.249 134.09 297.249C134.6 297.249 134.956 297.539 135.026 297.991H134.637C134.571 297.734 134.364 297.597 134.103 297.597C133.734 297.597 133.482 297.879 133.482 298.318C133.482 298.753 133.718 299.035 134.086 299.035C134.364 299.035 134.571 298.89 134.641 298.649H135.031C134.952 299.088 134.575 299.382 134.086 299.382C133.49 299.382 133.096 298.96 133.096 298.322Z" fill="#5C6662"/>
<path d="M21 33.8831C21 32.2908 22.2908 31 23.8831 31H262.223C263.815 31 265.106 32.2908 265.106 33.8831V172.925C265.106 174.518 263.815 175.809 262.223 175.809H23.8831C22.2908 175.809 21 174.518 21 172.925V33.8831Z" fill="#006331"/>
<path d="M34.8428 45.7286V51.4121H34.0724V45.7286H34.8428ZM36.9386 51.4121H36.1996V47.5681H36.8678L36.9464 48.1576C37.1901 47.7174 37.6775 47.458 38.2199 47.458C39.234 47.458 39.6978 48.079 39.6978 49.0617V51.4121H38.9589V49.2267C38.9589 48.4485 38.5973 48.1341 38.0313 48.1341C37.3395 48.1341 36.9386 48.6293 36.9386 49.3761V51.4121ZM41.8787 51.4121L40.3301 47.5681H41.1162L41.9573 49.7141C42.0909 50.0757 42.201 50.398 42.2639 50.6339C42.3268 50.3823 42.4525 50.0522 42.5862 49.7141L43.443 47.5681H44.2134L42.6098 51.4121H41.8787ZM44.5304 49.4862C44.5304 48.2991 45.3794 47.4659 46.535 47.4659C47.6827 47.4659 48.5317 48.2991 48.5317 49.4862C48.5317 50.6732 47.6827 51.5064 46.535 51.5064C45.3794 51.5064 44.5304 50.6732 44.5304 49.4862ZM45.2772 49.4862C45.2772 50.288 45.7882 50.8461 46.535 50.8461C47.2739 50.8461 47.7928 50.288 47.7928 49.4862C47.7928 48.6843 47.2739 48.1262 46.535 48.1262C45.7882 48.1262 45.2772 48.6843 45.2772 49.4862ZM49.8685 46.6562C49.6012 46.6562 49.3811 46.4361 49.3811 46.1688C49.3811 45.8937 49.6012 45.6814 49.8685 45.6814C50.1358 45.6814 50.3559 45.8937 50.3559 46.1688C50.3559 46.4361 50.1358 46.6562 49.8685 46.6562ZM49.5069 51.4121V47.5681H50.2458V51.4121H49.5069ZM51.2243 49.494C51.2243 48.2913 51.9868 47.458 53.1109 47.458C54.0779 47.458 54.7539 48.0083 54.8875 48.8651H54.1486C54.0228 48.3777 53.6298 48.1183 53.1345 48.1183C52.4349 48.1183 51.9554 48.6529 51.9554 49.4862C51.9554 50.3116 52.4035 50.8461 53.1031 50.8461C53.6298 50.8461 54.0228 50.571 54.1565 50.115H54.8954C54.746 50.9483 54.0307 51.5064 53.1031 51.5064C51.9711 51.5064 51.2243 50.7046 51.2243 49.494ZM57.491 51.5064C56.359 51.5064 55.5807 50.6889 55.5807 49.494C55.5807 48.2913 56.3432 47.458 57.4595 47.458C58.5522 47.458 59.2675 48.2127 59.2675 49.3525V49.6277L56.2961 49.6355C56.3511 50.4452 56.7756 50.8933 57.5067 50.8933C58.0805 50.8933 58.4579 50.6574 58.5836 50.2172H59.2754C59.0867 51.0426 58.4421 51.5064 57.491 51.5064ZM57.4595 48.079C56.8149 48.079 56.4061 48.4642 56.3118 49.1403H58.5286C58.5286 48.5035 58.112 48.079 57.4595 48.079ZM62.6826 51.4121V45.7286H64.8523C65.9607 45.7286 66.6367 46.2946 66.6367 47.23C66.6367 47.8825 66.3537 48.3227 65.7877 48.5586C66.4166 48.7629 66.7389 49.2189 66.7389 49.8949C66.7389 50.8383 66.055 51.4121 64.9309 51.4121H62.6826ZM64.8051 46.4125H63.453V48.2363H64.8523C65.489 48.2363 65.8506 47.8904 65.8506 47.3008C65.8506 46.7348 65.4733 46.4125 64.8051 46.4125ZM64.9151 48.9044H63.453V50.7282H64.9151C65.5755 50.7282 65.9449 50.3902 65.9449 49.8006C65.9449 49.2346 65.5676 48.9044 64.9151 48.9044ZM67.2884 53.1337V52.5284H67.7837C68.1374 52.5284 68.4204 52.4733 68.6012 51.986L68.7349 51.6165L67.1863 47.5681H67.9645L69.0808 50.6653L70.2206 47.5681H70.9831L69.1672 52.2768C68.9078 52.9372 68.5226 53.2123 67.9331 53.2123C67.6894 53.2123 67.485 53.1808 67.2884 53.1337ZM74.3986 51.4121H73.5968L75.6721 45.7286H76.529L78.6121 51.4121H77.8025L77.2915 49.9971H74.9017L74.3986 51.4121ZM76.0023 46.9549L75.1376 49.3289H77.0635L76.1909 46.9549C76.1516 46.8448 76.1123 46.7112 76.0966 46.6247C76.0809 46.7033 76.0416 46.837 76.0023 46.9549ZM79.0863 49.3918C79.0863 48.307 79.786 47.458 80.9022 47.458C81.5232 47.458 82.0028 47.741 82.2465 48.2205L82.3015 47.5681H82.9618V51.2549C82.9618 52.4655 82.215 53.2359 81.0359 53.2359C79.9903 53.2359 79.275 52.6463 79.1335 51.6715H79.8724C79.9668 52.2375 80.3913 52.5677 81.0359 52.5677C81.7591 52.5677 82.2307 52.096 82.2307 51.3649V50.5946C81.9792 51.0426 81.4761 51.3099 80.8708 51.3099C79.7781 51.3099 79.0863 50.4688 79.0863 49.3918ZM79.8253 49.3761C79.8253 50.0993 80.2733 50.6653 80.9966 50.6653C81.7434 50.6653 82.1993 50.1308 82.1993 49.3761C82.1993 48.6372 81.7591 48.1026 81.0044 48.1026C80.2655 48.1026 79.8253 48.6686 79.8253 49.3761ZM84.547 46.6562C84.2798 46.6562 84.0597 46.4361 84.0597 46.1688C84.0597 45.8937 84.2798 45.6814 84.547 45.6814C84.8143 45.6814 85.0344 45.8937 85.0344 46.1688C85.0344 46.4361 84.8143 46.6562 84.547 46.6562ZM84.1854 51.4121V47.5681H84.9244V51.4121H84.1854ZM86.8933 51.4121H86.1544V47.5681H86.8226L86.9012 48.1576C87.1449 47.7174 87.6323 47.458 88.1747 47.458C89.1887 47.458 89.6525 48.079 89.6525 49.0617V51.4121H88.9136V49.2267C88.9136 48.4485 88.552 48.1341 87.986 48.1341C87.2942 48.1341 86.8933 48.6293 86.8933 49.3761V51.4121ZM90.5895 49.3918C90.5895 48.307 91.2892 47.458 92.4054 47.458C93.0265 47.458 93.506 47.741 93.7497 48.2205L93.8047 47.5681H94.465V51.2549C94.465 52.4655 93.7182 53.2359 92.5391 53.2359C91.4936 53.2359 90.7782 52.6463 90.6367 51.6715H91.3756C91.47 52.2375 91.8945 52.5677 92.5391 52.5677C93.2623 52.5677 93.734 52.096 93.734 51.3649V50.5946C93.4824 51.0426 92.9793 51.3099 92.374 51.3099C91.2813 51.3099 90.5895 50.4688 90.5895 49.3918ZM91.3285 49.3761C91.3285 50.0993 91.7766 50.6653 92.4998 50.6653C93.2466 50.6653 93.7025 50.1308 93.7025 49.3761C93.7025 48.6372 93.2623 48.1026 92.5076 48.1026C91.7687 48.1026 91.3285 48.6686 91.3285 49.3761Z" fill="white"/>
<rect x="237.385" y="43.4121" width="16.5495" height="16.5495" rx="1.24122" fill="#006331"/>
<path d="M245.057 53.6694V53.2782H246.264V53.6694H245.057ZM243.678 51.8162V51.425H247.643V51.8162H243.678ZM242.644 49.963V49.5718H248.677V49.963H242.644Z" fill="white"/>
<path d="M49.3944 76.4988V76.1074C48.7937 76.071 48.3978 75.7297 48.3704 75.1972H48.8256C48.8347 75.4885 49.0486 75.6796 49.3944 75.716V74.5828L49.2306 74.5464C48.6936 74.4235 48.416 74.1231 48.416 73.6544C48.416 73.1356 48.8028 72.7669 49.3944 72.7168V72.3209H49.6857V72.7123C50.2364 72.7624 50.5868 73.0991 50.6187 73.6271H50.1772C50.159 73.3358 49.9815 73.1492 49.6857 73.1082V74.2369L49.8632 74.2779C50.4094 74.4008 50.6733 74.6875 50.6733 75.1426C50.6733 75.6842 50.2865 76.0483 49.6857 76.1029V76.4988H49.3944ZM49.3216 74.1505L49.3944 74.1687V73.1082C49.0577 73.1538 48.8529 73.3495 48.8529 73.6407C48.8529 73.9047 49.0031 74.0731 49.3216 74.1505ZM49.7722 74.6738L49.6857 74.6556V75.7069C50.0271 75.6614 50.2364 75.4657 50.2364 75.179C50.2364 74.915 50.0862 74.7466 49.7722 74.6738ZM53.5594 75.3929H53.168V76.0574H52.7402V75.3929H51.0381V74.997L52.59 72.7669H53.168V74.997H53.5594V75.3929ZM51.5205 74.997H52.7402V73.2402L51.5205 74.997ZM54.6277 76.0574H54.1908V72.7669H54.6277L55.761 75.534L56.8942 72.7669H57.3402V76.0574H56.9033V74.7558C56.9033 74.1413 56.9079 73.9183 56.9306 73.6862L55.9703 76.0574H55.5516L54.5959 73.6953C54.6186 73.8546 54.6277 74.1914 54.6277 74.6511V76.0574Z" fill="#97D2B5"/>
<path d="M256.793 74.3489C256.873 74.3489 256.938 74.2841 256.938 74.2041C256.938 74.1241 256.873 74.0593 256.793 74.0593L256.793 74.3489ZM60.6201 74.3489L256.793 74.3489L256.793 74.0593L60.6201 74.0593L60.6201 74.3489Z" fill="#00954A"/>
<path d="M49.7014 97.6402V97.2488C49.1006 97.2124 48.7047 96.871 48.6774 96.3386H49.1325C49.1416 96.6298 49.3555 96.821 49.7014 96.8574V95.7242L49.5375 95.6878C49.0005 95.5649 48.7229 95.2645 48.7229 94.7957C48.7229 94.2769 49.1097 93.9083 49.7014 93.8582V93.4623H49.9926V93.8537C50.5433 93.9037 50.8938 94.2405 50.9256 94.7684H50.4842C50.466 94.4772 50.2885 94.2906 49.9926 94.2496V95.3783L50.1701 95.4192C50.7163 95.5421 50.9802 95.8288 50.9802 96.284C50.9802 96.8255 50.5934 97.1896 49.9926 97.2442V97.6402H49.7014ZM49.6286 95.2918L49.7014 95.31V94.2496C49.3646 94.2951 49.1598 94.4908 49.1598 94.7821C49.1598 95.046 49.31 95.2144 49.6286 95.2918ZM50.0791 95.8152L49.9926 95.797V96.8483C50.334 96.8028 50.5433 96.6071 50.5433 96.3204C50.5433 96.0564 50.3931 95.888 50.0791 95.8152ZM52.3554 95.4966H52.0277V95.2008L52.9607 94.3042H51.4815V93.9083H53.525V94.2678L52.6239 95.128C53.1837 95.1962 53.6069 95.574 53.6069 96.1656C53.6069 96.8301 53.1063 97.2533 52.4373 97.2533C51.791 97.2533 51.3268 96.8574 51.3268 96.1747H51.7683C51.7683 96.6025 52.0322 96.8528 52.4464 96.8528C52.8742 96.8528 53.1518 96.5798 53.1518 96.1565C53.1518 95.7606 52.8787 95.4966 52.3554 95.4966ZM54.628 97.1987H54.1911V93.9083H54.628L55.7612 96.6754L56.8945 93.9083H57.3405V97.1987H56.9036V95.8971C56.9036 95.2827 56.9081 95.0597 56.9309 94.8276L55.9706 97.1987H55.5519L54.5961 94.8367C54.6189 94.996 54.628 95.3328 54.628 95.7924V97.1987Z" fill="#97D2B5"/>
<path d="M256.793 95.4902C256.873 95.4902 256.938 95.4254 256.938 95.3454C256.938 95.2655 256.873 95.2006 256.793 95.2006L256.793 95.4902ZM60.6206 95.4903L256.793 95.4902L256.793 95.2006L60.6206 95.2007L60.6206 95.4903Z" fill="#00954A"/>
<path d="M49.6703 118.781V118.39C49.0695 118.353 48.6736 118.012 48.6463 117.48H49.1014C49.1105 117.771 49.3244 117.962 49.6703 117.999V116.865L49.5064 116.829C48.9694 116.706 48.6918 116.406 48.6918 115.937C48.6918 115.418 49.0786 115.049 49.6703 114.999V114.603H49.9615V114.995C50.5122 115.045 50.8627 115.382 50.8945 115.91H50.4531C50.4349 115.618 50.2574 115.432 49.9615 115.391V116.519L50.139 116.56C50.6852 116.683 50.9491 116.97 50.9491 117.425C50.9491 117.967 50.5623 118.331 49.9615 118.385V118.781H49.6703ZM49.5974 116.433L49.6703 116.451V115.391C49.3335 115.436 49.1287 115.632 49.1287 115.923C49.1287 116.187 49.2789 116.356 49.5974 116.433ZM50.048 116.956L49.9615 116.938V117.989C50.3029 117.944 50.5122 117.748 50.5122 117.461C50.5122 117.198 50.362 117.029 50.048 116.956ZM53.5895 118.335L51.3685 118.34V117.999L52.4289 117.084C52.9614 116.624 53.1116 116.401 53.1116 116.051C53.1116 115.636 52.8749 115.391 52.479 115.391C52.0739 115.391 51.81 115.687 51.8009 116.155H51.3549C51.3685 115.45 51.8145 114.99 52.4835 114.99C53.1435 114.99 53.5667 115.391 53.5667 116.023C53.5667 116.492 53.3346 116.824 52.7521 117.329L52.0694 117.921H53.5895V118.335ZM54.628 118.34H54.1911V115.049H54.628L55.7612 117.816L56.8945 115.049H57.3405V118.34H56.9036V117.038C56.9036 116.424 56.9081 116.201 56.9309 115.969L55.9706 118.34H55.5519L54.5961 115.978C54.6189 116.137 54.628 116.474 54.628 116.934V118.34Z" fill="#97D2B5"/>
<path d="M256.793 116.631C256.873 116.631 256.938 116.567 256.938 116.487C256.938 116.407 256.873 116.342 256.793 116.342L256.793 116.631ZM60.6206 116.631L256.793 116.631L256.793 116.342L60.6206 116.342L60.6206 116.631Z" fill="#00954A"/>
<path d="M50.6303 139.923V139.531C50.0296 139.495 49.6336 139.154 49.6063 138.621H50.0614C50.0705 138.912 50.2844 139.103 50.6303 139.14V138.007L50.4665 137.97C49.9294 137.847 49.6518 137.547 49.6518 137.078C49.6518 136.559 50.0387 136.191 50.6303 136.141V135.745H50.9216V136.136C51.4723 136.186 51.8227 136.523 51.8546 137.051H51.4131C51.3949 136.76 51.2174 136.573 50.9216 136.532V137.661L51.0991 137.702C51.6452 137.825 51.9092 138.111 51.9092 138.566C51.9092 139.108 51.5223 139.472 50.9216 139.527V139.923H50.6303ZM50.5575 137.574L50.6303 137.592V136.532C50.2935 136.578 50.0887 136.773 50.0887 137.065C50.0887 137.329 50.2389 137.497 50.5575 137.574ZM51.008 138.098L50.9216 138.079V139.131C51.2629 139.085 51.4723 138.89 51.4723 138.603C51.4723 138.339 51.3221 138.17 51.008 138.098ZM52.9703 136.591H52.2785V136.191H53.3981V139.481H52.9703V136.591ZM54.628 139.481H54.1911V136.191H54.628L55.7613 138.958L56.8945 136.191H57.3405V139.481H56.9036V138.18C56.9036 137.565 56.9082 137.342 56.9309 137.11L55.9706 139.481H55.5519L54.5962 137.119C54.6189 137.278 54.628 137.615 54.628 138.075V139.481Z" fill="#97D2B5"/>
<path d="M256.793 137.773C256.873 137.773 256.938 137.708 256.938 137.628C256.938 137.548 256.873 137.483 256.793 137.483L256.793 137.773ZM60.6206 137.773L256.793 137.773L256.793 137.483L60.6206 137.483L60.6206 137.773Z" fill="#00954A"/>
<path d="M66.9248 93.7493C66.9248 93.0638 67.4805 92.5081 68.166 92.5081H100.438C101.123 92.5081 101.679 93.0638 101.679 93.7493V152.914H66.9248V93.7493Z" fill="#97D2B5"/>
<path d="M79.0394 158.753C79.0394 157.734 79.5674 157.042 80.3957 157.042C81.2194 157.042 81.7473 157.734 81.7473 158.753C81.7473 159.777 81.2422 160.455 80.3957 160.455C79.5446 160.455 79.0394 159.777 79.0394 158.753ZM79.4809 158.753C79.4809 159.563 79.8177 160.055 80.3957 160.055C80.9737 160.055 81.3059 159.563 81.3059 158.753C81.3059 157.934 80.9737 157.443 80.3957 157.443C79.8177 157.443 79.4809 157.934 79.4809 158.753ZM82.2906 159.381V158.999H83.6787V159.381H82.2906ZM85.1786 158.694H84.8509V158.398L85.7839 157.502H84.3048V157.106H86.3482V157.465L85.4471 158.325C86.0069 158.394 86.4301 158.771 86.4301 159.363C86.4301 160.028 85.9295 160.451 85.2605 160.451C84.6142 160.451 84.15 160.055 84.15 159.372H84.5915C84.5915 159.8 84.8554 160.05 85.2696 160.05C85.6974 160.05 85.975 159.777 85.975 159.354C85.975 158.958 85.702 158.694 85.1786 158.694ZM86.855 158.753C86.855 157.734 87.383 157.042 88.2113 157.042C89.035 157.042 89.5629 157.734 89.5629 158.753C89.5629 159.777 89.0578 160.455 88.2113 160.455C87.3602 160.455 86.855 159.777 86.855 158.753ZM87.2965 158.753C87.2965 159.563 87.6333 160.055 88.2113 160.055C88.7893 160.055 89.1215 159.563 89.1215 158.753C89.1215 157.934 88.7893 157.443 88.2113 157.443C87.6333 157.443 87.2965 157.934 87.2965 158.753Z" fill="#97D2B5"/>
<path d="M116.574 121.47C116.574 120.784 117.129 120.229 117.815 120.229H150.087C150.772 120.229 151.328 120.784 151.328 121.47V152.914H116.574V121.47Z" fill="#3CAE75"/>
<path d="M128.232 158.694H127.904V158.398L128.837 157.502H127.358V157.106H129.401V157.465L128.5 158.325C129.06 158.394 129.483 158.771 129.483 159.363C129.483 160.028 128.983 160.451 128.314 160.451C127.667 160.451 127.203 160.055 127.203 159.372H127.645C127.645 159.8 127.909 160.05 128.323 160.05C128.751 160.05 129.028 159.777 129.028 159.354C129.028 158.958 128.755 158.694 128.232 158.694ZM129.908 158.753C129.908 157.734 130.436 157.042 131.264 157.042C132.088 157.042 132.616 157.734 132.616 158.753C132.616 159.777 132.111 160.455 131.264 160.455C130.413 160.455 129.908 159.777 129.908 158.753ZM130.35 158.753C130.35 159.563 130.686 160.055 131.264 160.055C131.842 160.055 132.175 159.563 132.175 158.753C132.175 157.934 131.842 157.443 131.264 157.443C130.686 157.443 130.35 157.934 130.35 158.753ZM133.159 159.381V158.999H134.547V159.381H133.159ZM135.506 158.148L136.275 157.106H136.794L135.97 158.198C136.084 158.153 136.203 158.13 136.316 158.13C136.999 158.13 137.459 158.621 137.459 159.272C137.459 159.959 136.94 160.451 136.262 160.451C135.579 160.451 135.051 159.937 135.051 159.272C135.051 158.881 135.169 158.608 135.506 158.148ZM135.506 159.277C135.506 159.727 135.816 160.05 136.262 160.05C136.699 160.05 137.008 159.727 137.008 159.277C137.008 158.826 136.699 158.508 136.262 158.508C135.816 158.508 135.506 158.826 135.506 159.277ZM137.902 158.753C137.902 157.734 138.43 157.042 139.258 157.042C140.082 157.042 140.61 157.734 140.61 158.753C140.61 159.777 140.104 160.455 139.258 160.455C138.407 160.455 137.902 159.777 137.902 158.753ZM138.343 158.753C138.343 159.563 138.68 160.055 139.258 160.055C139.836 160.055 140.168 159.563 140.168 158.753C140.168 157.934 139.836 157.443 139.258 157.443C138.68 157.443 138.343 157.934 138.343 158.753Z" fill="#97D2B5"/>
<path d="M166.222 137.192C166.222 136.506 166.778 135.951 167.463 135.951H199.735C200.421 135.951 200.976 136.506 200.976 137.192V152.914H166.222V137.192Z" fill="#00954A"/>
<path d="M177.28 158.148L178.049 157.106H178.568L177.744 158.198C177.858 158.153 177.976 158.13 178.09 158.13C178.772 158.13 179.232 158.621 179.232 159.272C179.232 159.959 178.713 160.451 178.035 160.451C177.352 160.451 176.824 159.937 176.824 159.272C176.824 158.881 176.943 158.608 177.28 158.148ZM177.28 159.277C177.28 159.727 177.589 160.05 178.035 160.05C178.472 160.05 178.781 159.727 178.781 159.277C178.781 158.826 178.472 158.508 178.035 158.508C177.589 158.508 177.28 158.826 177.28 159.277ZM179.675 158.753C179.675 157.734 180.203 157.042 181.031 157.042C181.855 157.042 182.383 157.734 182.383 158.753C182.383 159.777 181.878 160.455 181.031 160.455C180.18 160.455 179.675 159.777 179.675 158.753ZM180.116 158.753C180.116 159.563 180.453 160.055 181.031 160.055C181.609 160.055 181.941 159.563 181.941 158.753C181.941 157.934 181.609 157.443 181.031 157.443C180.453 157.443 180.116 157.934 180.116 158.753ZM182.926 159.381V158.999H184.314V159.381H182.926ZM186.73 159.354L185.961 160.396H185.442L186.266 159.304C186.152 159.349 186.034 159.372 185.92 159.372C185.237 159.372 184.778 158.881 184.778 158.225C184.778 157.543 185.297 157.047 185.975 157.047C186.657 157.047 187.185 157.561 187.185 158.23C187.185 158.617 187.067 158.894 186.73 159.354ZM186.73 158.225C186.73 157.775 186.421 157.447 185.975 157.447C185.538 157.447 185.228 157.775 185.228 158.225C185.228 158.676 185.538 158.994 185.975 158.994C186.421 158.994 186.73 158.676 186.73 158.225ZM187.628 158.753C187.628 157.734 188.156 157.042 188.985 157.042C189.808 157.042 190.336 157.734 190.336 158.753C190.336 159.777 189.831 160.455 188.985 160.455C188.133 160.455 187.628 159.777 187.628 158.753ZM188.07 158.753C188.07 159.563 188.407 160.055 188.985 160.055C189.563 160.055 189.895 159.563 189.895 158.753C189.895 157.934 189.563 157.443 188.985 157.443C188.407 157.443 188.07 157.934 188.07 158.753Z" fill="#97D2B5"/>
<path d="M215.871 126.435C215.871 125.749 216.427 125.193 217.112 125.193H249.384C250.069 125.193 250.625 125.749 250.625 126.435V152.914H215.871V126.435Z" fill="#C0463D"/>
<path d="M227.787 159.354L227.018 160.396H226.499L227.323 159.304C227.209 159.349 227.091 159.372 226.977 159.372C226.294 159.372 225.835 158.881 225.835 158.225C225.835 157.543 226.354 157.047 227.032 157.047C227.714 157.047 228.242 157.561 228.242 158.23C228.242 158.617 228.124 158.894 227.787 159.354ZM227.787 158.225C227.787 157.775 227.478 157.447 227.032 157.447C226.595 157.447 226.285 157.775 226.285 158.225C226.285 158.676 226.595 158.994 227.032 158.994C227.478 158.994 227.787 158.676 227.787 158.225ZM228.685 158.753C228.685 157.734 229.213 157.042 230.041 157.042C230.865 157.042 231.393 157.734 231.393 158.753C231.393 159.777 230.888 160.455 230.041 160.455C229.19 160.455 228.685 159.777 228.685 158.753ZM229.127 158.753C229.127 159.563 229.463 160.055 230.041 160.055C230.619 160.055 230.952 159.563 230.952 158.753C230.952 157.934 230.619 157.443 230.041 157.443C229.463 157.443 229.127 157.934 229.127 158.753ZM231.936 159.381V158.999H233.324V159.381H231.936ZM234.204 157.506H233.512V157.106H234.631V160.396H234.204V157.506ZM237.473 160.392L235.252 160.396V160.055L236.312 159.14C236.845 158.68 236.995 158.457 236.995 158.107C236.995 157.693 236.758 157.447 236.362 157.447C235.957 157.447 235.693 157.743 235.684 158.212H235.238C235.252 157.506 235.698 157.047 236.367 157.047C237.027 157.047 237.45 157.447 237.45 158.08C237.45 158.548 237.218 158.881 236.635 159.386L235.952 159.978H237.473V160.392ZM237.915 158.753C237.915 157.734 238.443 157.042 239.271 157.042C240.095 157.042 240.623 157.734 240.623 158.753C240.623 159.777 240.118 160.455 239.271 160.455C238.42 160.455 237.915 159.777 237.915 158.753ZM238.356 158.753C238.356 159.563 238.693 160.055 239.271 160.055C239.849 160.055 240.181 159.563 240.181 158.753C240.181 157.934 239.849 157.443 239.271 157.443C238.693 157.443 238.356 157.934 238.356 158.753Z" fill="#97D2B5"/>
<path d="M256.793 153.244C256.907 153.244 257 153.152 257 153.037C257 152.923 256.907 152.83 256.793 152.83L256.793 153.244ZM60.6201 153.244L256.793 153.244L256.793 152.83L60.6201 152.83L60.6201 153.244Z" fill="#00954A"/>
<g filter="url(#filter0_d_782_1491)">
<rect x="146" y="46" width="157.696" height="54.4956" rx="3.50512" fill="#3CAE75" shape-rendering="crispEdges"/>
<path d="M197.575 73.2479C197.575 83.3418 189.393 91.5246 179.299 91.5246C169.205 91.5246 161.022 83.3418 161.022 73.2479C161.022 63.1539 169.205 54.9712 179.299 54.9712C189.393 54.9712 197.575 63.1539 197.575 73.2479Z" stroke="#002211" stroke-width="3.10359"/>
<path d="M179.299 53.4194C178.442 53.4194 177.747 54.1142 177.747 54.9712C177.747 55.8282 178.442 56.523 179.299 56.523V53.4194ZM179.299 56.523C188.536 56.523 196.024 64.011 196.024 73.2479H199.127C199.127 62.2969 190.25 53.4194 179.299 53.4194V56.523ZM196.024 73.2479C196.024 80.8289 190.979 87.2356 184.059 89.286L184.941 92.2617C193.142 89.8315 199.127 82.2407 199.127 73.2479H196.024Z" fill="#F6F7F2"/>
<path d="M174.336 76.7039H173.325V75.4191H169.282V74.7107L173.155 70.3748H174.336V74.5028H175.422V75.4191H174.336V76.7039ZM170.69 74.5028H173.325V71.565H173.25L170.69 74.4273V74.5028ZM178.988 76.7983C177.136 76.7983 176.135 76.0709 176.135 74.7957V74.6918H177.174V74.7957C177.174 75.542 177.741 75.8726 179.006 75.8726C180.14 75.8726 180.66 75.5325 180.66 74.6445C180.66 73.7755 180.159 73.4449 179.006 73.4449C178.1 73.4449 177.571 73.596 177.212 73.9172L177.146 73.8983V73.9172L176.201 73.851L176.541 70.3748H181.425V71.2911H177.429L177.202 73.3598L177.278 73.3693C177.599 73.0198 178.336 72.6325 179.384 72.6325C180.858 72.6325 181.727 73.3409 181.727 74.6445C181.727 75.9576 180.773 76.7983 178.988 76.7983ZM184.061 73.4165C183.013 73.4165 182.437 72.7269 182.437 71.839C182.437 70.9699 183.013 70.2709 184.061 70.2709C185.119 70.2709 185.686 70.9699 185.686 71.839C185.686 72.7269 185.119 73.4165 184.061 73.4165ZM183.854 76.7039H182.862L188.237 70.3748H189.229L183.854 76.7039ZM184.061 72.7269C184.694 72.7269 184.93 72.4246 184.93 71.839C184.93 71.2627 184.694 70.9605 184.061 70.9605C183.428 70.9605 183.192 71.2627 183.192 71.839C183.192 72.4246 183.428 72.7269 184.061 72.7269ZM188.019 76.7983C186.971 76.7983 186.395 76.1182 186.395 75.2302C186.395 74.3517 186.971 73.6621 188.019 73.6621C189.077 73.6621 189.644 74.3517 189.644 75.2302C189.644 76.1182 189.077 76.7983 188.019 76.7983ZM188.019 76.1087C188.652 76.1087 188.888 75.8159 188.888 75.2302C188.888 74.6445 188.652 74.3423 188.019 74.3423C187.386 74.3423 187.15 74.6445 187.15 75.2302C187.15 75.8159 187.386 76.1087 188.019 76.1087Z" fill="white"/>
<path d="M212.709 63.1838V62.4638H216.973V63.1838H215.237V68.2478H214.453V63.1838H212.709ZM216.801 66.2878C216.801 65.0798 217.665 64.2318 218.841 64.2318C220.009 64.2318 220.873 65.0798 220.873 66.2878C220.873 67.4958 220.009 68.3438 218.841 68.3438C217.665 68.3438 216.801 67.4958 216.801 66.2878ZM217.561 66.2878C217.561 67.1038 218.081 67.6718 218.841 67.6718C219.593 67.6718 220.121 67.1038 220.121 66.2878C220.121 65.4718 219.593 64.9038 218.841 64.9038C218.081 64.9038 217.561 65.4718 217.561 66.2878ZM222.826 68.2478H222.074V64.9678H221.306V64.3358H222.074V63.1118H222.826V64.3358H223.594V64.9678H222.826V68.2478ZM225.422 68.3438C224.582 68.3438 224.086 67.8718 224.086 67.1598C224.086 66.4398 224.622 65.9918 225.542 65.9198L226.774 65.8238V65.7118C226.774 65.0558 226.382 64.8238 225.854 64.8238C225.222 64.8238 224.862 65.1038 224.862 65.5758H224.206C224.206 64.7598 224.878 64.2238 225.886 64.2238C226.854 64.2238 227.51 64.7358 227.51 65.7918V68.2478H226.87L226.79 67.6158C226.59 68.0638 226.054 68.3438 225.422 68.3438ZM225.638 67.7598C226.35 67.7598 226.782 67.2958 226.782 66.5598V66.3518L225.782 66.4318C225.118 66.4958 224.846 66.7518 224.846 67.1358C224.846 67.5518 225.15 67.7598 225.638 67.7598ZM229.375 68.2478H228.623V62.3598H229.375V68.2478ZM234.822 68.2478H232.91V62.4638H234.79C236.518 62.4638 237.686 63.6318 237.686 65.3598C237.686 67.0798 236.534 68.2478 234.822 68.2478ZM234.734 63.1838H233.694V67.5198H234.766C236.054 67.5198 236.87 66.6878 236.87 65.3598C236.87 64.0158 236.054 63.1838 234.734 63.1838ZM241.315 64.3358H242.059V68.2478H241.387L241.307 67.6558C241.083 68.0638 240.563 68.3438 239.987 68.3438C239.075 68.3438 238.563 67.7278 238.563 66.7678V64.3358H239.315V66.5198C239.315 67.3598 239.675 67.6798 240.251 67.6798C240.939 67.6798 241.315 67.2398 241.315 66.3998V64.3358ZM244.816 68.3438C243.664 68.3438 242.872 67.5118 242.872 66.2958C242.872 65.0718 243.648 64.2238 244.784 64.2238C245.896 64.2238 246.624 64.9918 246.624 66.1518V66.4318L243.6 66.4398C243.656 67.2638 244.088 67.7198 244.832 67.7198C245.416 67.7198 245.8 67.4798 245.928 67.0318H246.632C246.44 67.8718 245.784 68.3438 244.816 68.3438ZM244.784 64.8558C244.128 64.8558 243.712 65.2478 243.616 65.9358H245.872C245.872 65.2878 245.448 64.8558 244.784 64.8558ZM250.132 68.2478H249.316L251.428 62.4638H252.3L254.42 68.2478H253.596L253.076 66.8078H250.644L250.132 68.2478ZM251.764 63.7118L250.884 66.1278H252.844L251.956 63.7118C251.916 63.5998 251.876 63.4638 251.86 63.3758C251.844 63.4558 251.804 63.5918 251.764 63.7118ZM255.869 68.2478H255.117V64.3358H255.789L255.861 64.8478C256.061 64.4798 256.477 64.2238 257.029 64.2238C257.637 64.2238 258.069 64.5278 258.269 65.0158C258.453 64.5278 258.925 64.2238 259.533 64.2238C260.429 64.2238 260.973 64.7838 260.973 65.6878V68.2478H260.237V65.8718C260.237 65.2558 259.893 64.9038 259.365 64.9038C258.797 64.9038 258.421 65.3038 258.421 65.9278V68.2478H257.677V65.8638C257.677 65.2478 257.341 64.9118 256.813 64.9118C256.245 64.9118 255.869 65.3038 255.869 65.9278V68.2478ZM261.815 66.2878C261.815 65.0798 262.679 64.2318 263.855 64.2318C265.023 64.2318 265.887 65.0798 265.887 66.2878C265.887 67.4958 265.023 68.3438 263.855 68.3438C262.679 68.3438 261.815 67.4958 261.815 66.2878ZM262.575 66.2878C262.575 67.1038 263.095 67.6718 263.855 67.6718C264.607 67.6718 265.135 67.1038 265.135 66.2878C265.135 65.4718 264.607 64.9038 263.855 64.9038C263.095 64.9038 262.575 65.4718 262.575 66.2878ZM269.386 64.3358H270.13V68.2478H269.458L269.378 67.6558C269.154 68.0638 268.634 68.3438 268.058 68.3438C267.146 68.3438 266.634 67.7278 266.634 66.7678V64.3358H267.386V66.5198C267.386 67.3598 267.746 67.6798 268.322 67.6798C269.01 67.6798 269.386 67.2398 269.386 66.3998V64.3358ZM272.029 68.2478H271.277V64.3358H271.957L272.037 64.9358C272.285 64.4878 272.781 64.2238 273.333 64.2238C274.365 64.2238 274.837 64.8558 274.837 65.8558V68.2478H274.085V66.0238C274.085 65.2318 273.717 64.9118 273.141 64.9118C272.437 64.9118 272.029 65.4158 272.029 66.1758V68.2478ZM277.038 68.2478H276.286V64.9678H275.518V64.3358H276.286V63.1118H277.038V64.3358H277.806V64.9678H277.038V68.2478Z" fill="#002211"/>
<path d="M215.592 83.3419V82.386C213.991 82.2708 212.966 81.338 212.931 79.9329H214.405C214.417 80.5894 214.843 81.004 215.592 81.0961V78.643L215.223 78.5624C213.772 78.2515 213.046 77.4453 213.046 76.1784C213.046 74.831 214.06 73.8636 215.592 73.7023V72.7234H216.478V73.7023C217.929 73.852 218.828 74.7619 218.874 76.1439H217.446C217.423 75.522 217.077 75.1189 216.478 74.9922V77.4683L216.87 77.5605C218.344 77.8829 219.012 78.597 219.012 79.8178C219.012 81.2228 218.022 82.1902 216.478 82.363V83.3419H215.592ZM215.545 77.261L215.592 77.2725V74.9807C214.901 75.0959 214.486 75.5105 214.486 76.1324C214.486 76.7428 214.808 77.0998 215.545 77.261ZM216.559 78.8503L216.478 78.8273V81.0731C217.169 80.9349 217.584 80.5318 217.584 79.9444C217.584 79.3571 217.25 79.0001 216.559 78.8503ZM221.877 75.1534H220.035V73.829H223.294V82.2478H221.877V75.1534ZM227.781 82.386C226.019 82.386 224.856 81.2574 224.856 79.5529H226.318C226.318 80.5088 226.883 81.0731 227.815 81.0731C228.806 81.0731 229.439 80.4281 229.439 79.4031C229.439 78.4242 228.852 77.7562 227.839 77.7562C227.194 77.7562 226.606 78.0787 226.307 78.5164L225.005 78.2399L226.042 73.829H230.43V75.188H227.101L226.652 76.9385C227.055 76.6737 227.562 76.5239 228.138 76.5239C229.819 76.5239 230.937 77.6641 230.937 79.3225C230.937 81.1422 229.658 82.386 227.781 82.386ZM233.009 82.386C232.503 82.386 232.077 81.9714 232.077 81.4762C232.077 80.9694 232.503 80.5548 233.009 80.5548C233.516 80.5548 233.942 80.9694 233.942 81.4762C233.942 81.9714 233.516 82.386 233.009 82.386ZM241.29 82.2363L235.451 82.2478V81.1422L238.204 78.8158C239.344 77.8484 239.724 77.2956 239.724 76.4894C239.724 75.5335 239.206 74.9922 238.319 74.9922C237.397 74.9922 236.822 75.6371 236.81 76.7197H235.347C235.359 74.877 236.534 73.6793 238.319 73.6793C240.115 73.6793 241.233 74.7043 241.233 76.4088C241.233 77.5835 240.588 78.4703 239.309 79.5644L237.789 80.8658H241.29V82.2363ZM244.295 82.2478H242.866V73.829H244.295L247.013 80.5318L249.73 73.829H251.182V82.2478H249.754V79.6565C249.754 77.9635 249.754 77.4683 249.834 76.8694L247.692 82.2478H246.333L244.202 76.881C244.283 77.3877 244.295 78.1824 244.295 79.2304V82.2478Z" fill="#F6F7F2"/>
</g>
</g>
<defs>
<filter id="filter0_d_782_1491" x="118" y="46" width="185.696" height="80.4956" filterUnits="userSpaceOnUse" color-interpolation-filters="sRGB">
<feFlood flood-opacity="0" result="BackgroundImageFix"/>
<feColorMatrix in="SourceAlpha" type="matrix" values="0 0 0 0 0 0 0 0 0 0 0 0 0 0 0 0 0 0 127 0" result="hardAlpha"/>
<feOffset dx="-16" dy="14"/>
<feGaussianBlur stdDeviation="6"/>
<feComposite in2="hardAlpha" operator="out"/>
<feColorMatrix type="matrix" values="0 0 0 0 0 0 0 0 0 0.133333 0 0 0 0 0.0666667 0 0 0 0.25 0"/>
<feBlend mode="normal" in2="BackgroundImageFix" result="effect1_dropShadow_782_1491"/>
<feBlend mode="normal" in="SourceGraphic" in2="effect1_dropShadow_782_1491" result="shape"/>
</filter>
<clipPath id="clip0_782_1491">
<rect width="7.53086" height="7.53086" fill="white" transform="translate(63.1792 209.401)"/>
</clipPath>
</defs>
</svg>
