<svg width="96" height="24" viewBox="0 0 96 24" fill="none" xmlns="http://www.w3.org/2000/svg">
<path d="M53.1777 0H57.407V23.9991H53.1777V0Z" fill="#00954A"/>
<path d="M68.754 20.1718C69.8551 20.1718 70.8134 19.7554 71.6284 18.9219C72.4433 18.0886 72.8513 16.8499 72.8513 15.2055C72.8513 13.5612 72.4433 12.3221 71.6284 11.4888C70.8134 10.6555 69.866 10.2389 68.7869 10.2389C67.6635 10.2389 66.6997 10.6555 65.8958 11.4888C65.0912 12.3221 64.6898 13.5612 64.6898 15.2055C64.6898 16.8499 65.0912 18.0886 65.8958 18.9219C66.6997 19.7554 67.6523 20.1718 68.754 20.1718ZM68.754 23.8717C67.1679 23.8717 65.7414 23.5052 64.475 22.7717C63.2079 22.0383 62.2061 21.0219 61.4681 19.7218C60.7299 18.422 60.3613 16.9167 60.3613 15.2055C60.3613 13.4945 60.7358 11.9887 61.4847 10.6889C62.2334 9.38882 63.241 8.37218 64.5081 7.63898C65.7747 6.90578 67.201 6.53906 68.7869 6.53906C70.3509 6.53906 71.766 6.90578 73.0328 7.63898C74.2994 8.37218 75.3015 9.38882 76.0397 10.6889C76.7775 11.9887 77.1465 13.4945 77.1465 15.2055C77.1465 16.9167 76.7775 18.422 76.0397 19.7218C75.3015 21.0219 74.2935 22.0383 73.0164 22.7717C71.7386 23.5052 70.3178 23.8717 68.754 23.8717Z" fill="#00954A"/>
<path d="M79.9414 23.9991V0H84.1705V9.99959C84.721 9.08879 85.4645 8.37215 86.4009 7.84967C87.337 7.32792 88.411 7.06655 89.6224 7.06655C91.6489 7.06655 93.2184 7.71119 94.3308 8.99951C95.4431 10.2888 95.9995 12.1776 95.9995 14.6662V23.9991H91.8031V15.066C91.8031 13.6442 91.5226 12.5551 90.9606 11.7996C90.3989 11.0443 89.5122 10.6663 88.301 10.6663C87.1115 10.6663 86.1254 11.0887 85.3436 11.933C84.5616 12.7776 84.1705 13.9553 84.1705 15.4661V23.9991H79.9414Z" fill="#00954A"/>
<path d="M49.4948 7.46639H46.3392L46.3349 6.16632C46.3349 5.47776 46.4886 4.98888 46.7976 4.69968C47.1057 4.41144 47.6236 4.26648 48.3504 4.26648H49.4948V0H47.6943C45.9756 0 44.6155 0.42216 43.6132 1.26648C42.6106 2.11152 42.1099 3.53304 42.1099 5.53296V7.46639H39.8633V11.333H42.1099V23.999H46.3392V11.333H49.4948V7.46639Z" fill="#00954A"/>
<path d="M7.83609 0C6.11768 0 4.75656 0.423168 3.75448 1.26751C2.75194 2.11231 2.25269 3.5351 2.25269 5.53502V7.46999H0V11.3325H2.25269V23.9999H6.48301V11.3325H13.9325V22.6199C13.9325 23.3822 14.5448 23.9999 15.3005 23.9999H18.2074C21.9381 23.9011 23.1478 18.7893 24.341 16.05C25.005 14.5253 26.3089 12.011 28.1104 11.6475C28.7499 11.5185 29.2876 11.6633 29.746 11.9775C30.1121 12.2285 30.4186 12.5919 30.6903 12.99C31.0364 13.4975 31.3186 14.0713 31.5453 14.595C32.3654 16.4905 32.7498 18.5548 33.441 20.4974C34.0329 22.1608 35.176 24.0129 37.1435 23.9999C37.8137 23.9951 39.2017 23.9999 39.8721 23.9999V22.8374V21.0225V19.6725C39.8702 19.7423 38.3419 19.6835 38.2736 19.6799C37.4295 19.6334 37.0574 18.8558 36.8683 18.1276C35.9202 14.4752 34.7602 10.012 31.114 8.14502C30.7816 7.97486 30.4302 7.83297 30.0731 7.72502C29.4605 7.53974 28.8234 7.45399 28.1846 7.44751C27.2082 7.43767 26.2442 7.67997 25.3744 8.12251C22.2378 9.71874 20.916 13.5289 19.6199 16.575C19.2076 17.5434 18.8032 18.5368 18.2074 19.4099V8.84999C18.2074 8.08771 17.5951 7.47002 16.8395 7.46999H6.48301L6.47556 6.17251C6.47556 5.48395 6.62771 4.99171 6.93651 4.70251C7.24484 4.41403 7.76353 4.26756 8.49034 4.26751H9.6353V0H7.83609ZM14.7503 0.0225119C13.5824 0.0225119 12.6389 0.974351 12.6389 2.15251C12.6389 3.33067 13.5824 4.28251 14.7503 4.28251C15.9184 4.28251 16.8692 3.33067 16.8692 2.15251C16.8692 0.974351 15.9184 0.0225119 14.7503 0.0225119Z" fill="#00954A"/>
</svg>
