<svg width="107.002" height="25" viewBox="0 0 535 125" fill="none" xmlns="http://www.w3.org/2000/svg">
<g clip-path="url(#clip0_5_1088)">
<path d="M273.953 0.00170898H295.742V124.998H273.953V0.00170898Z" fill="#002211"/>
<path d="M354.182 105.06C359.841 105.06 364.786 102.891 368.99 98.5548C373.194 94.2181 375.283 87.766 375.283 79.1984C375.283 70.6308 373.194 64.1787 368.99 59.842C364.786 55.5054 359.92 53.337 354.341 53.337C348.761 53.337 343.578 55.5054 339.453 59.842C335.301 64.1787 333.239 70.6308 333.239 79.1984C333.239 87.766 335.301 94.2181 339.453 98.5548C343.605 102.891 348.497 105.06 354.182 105.06ZM354.182 124.337C346.011 124.337 338.66 122.433 332.128 118.599C325.597 114.791 320.44 109.476 316.633 102.706C312.825 95.9369 310.921 88.1098 310.921 79.172C310.921 70.2342 312.851 62.407 316.712 55.6376C320.573 48.8681 325.756 43.5795 332.287 39.7452C338.818 35.9374 346.17 34.0071 354.341 34.0071C362.511 34.0071 369.678 35.911 376.209 39.7452C382.74 43.5531 387.897 48.8681 391.705 55.6376C395.513 62.407 397.416 70.2606 397.416 79.172C397.416 88.0833 395.513 95.9369 391.705 102.706C387.897 109.476 382.714 114.764 376.13 118.599C369.545 122.407 362.221 124.337 354.182 124.337Z" fill="#002211"/>
<path d="M411.828 124.998V0.00170898H433.617V52.0683C436.446 47.3349 440.28 43.58 445.12 40.8828C449.932 38.1592 455.485 36.8106 461.726 36.8106C472.171 36.8106 480.262 40.1688 485.974 46.8854C491.712 53.602 494.568 63.4388 494.568 76.3959V124.998H472.938V78.485C472.938 71.0809 471.483 65.3956 468.601 61.482C465.719 57.542 461.144 55.5852 454.903 55.5852C448.663 55.5852 443.692 57.78 439.672 62.1695C435.653 66.5591 433.617 72.6939 433.617 80.574V125.025H411.828V124.998Z" fill="#002211"/>
<path d="M254.968 38.8996H238.705V32.1301C238.705 28.5339 239.472 25.9953 241.059 24.4881C242.645 22.9808 245.316 22.2404 249.071 22.2404H254.968V0.00170898H245.686C236.828 0.00170898 229.82 2.19649 224.664 6.58605C219.508 10.9756 216.916 18.3797 216.916 28.7983V38.8731H205.334V59.0228H216.916V124.998H238.705V59.0228H254.968V38.8731V38.8996Z" fill="#002211"/>
<path d="M40.3811 0.00170898C31.5227 0.00170898 24.5152 2.19649 19.3588 6.61249C14.2024 11.0021 11.611 18.4326 11.611 28.8512V38.926H0.00244141V59.0492H11.611V125.025H33.4001V59.0492H71.7691V117.832C71.7691 121.799 74.9159 125.025 78.8294 125.025H93.7963C113.02 124.522 119.235 97.8942 125.396 83.6149C128.807 75.682 135.524 62.5662 144.805 60.6887C148.11 60.0276 150.861 60.768 153.24 62.4075C155.118 63.7032 156.704 65.6071 158.106 67.6697C159.878 70.314 161.332 73.3021 162.522 76.0257C166.753 85.889 168.736 96.6514 172.28 106.753C175.32 115.426 181.217 125.051 191.345 124.998C194.809 124.998 201.949 124.998 205.413 124.998V102.469C205.413 102.839 197.533 102.522 197.189 102.495C192.852 102.257 190.922 98.2115 189.944 94.4037C185.052 75.3911 179.075 52.1476 160.301 42.4165C158.582 41.5174 156.784 40.8035 154.933 40.2217C151.786 39.2698 148.507 38.8202 145.202 38.7674C140.178 38.7145 135.206 39.9837 130.737 42.2843C114.581 50.5874 107.758 70.4462 101.095 86.3121C98.9791 91.3628 96.8901 96.5192 93.8227 101.067V46.0657C93.8227 42.0992 90.676 38.8731 86.7624 38.8731H33.4001V32.1037C33.3737 28.5074 34.1405 25.9424 35.7271 24.4352C37.3137 22.9279 39.9845 22.1611 43.7394 22.1611H49.6362V0.00170898H40.3547H40.3811ZM76 0.107482C69.971 0.107482 65.1319 5.05235 65.1319 11.2136C65.1319 17.3749 69.9974 22.3197 76 22.3197C82.0026 22.3197 86.921 17.3749 86.921 11.2136C86.921 5.05235 82.0026 0.107482 76 0.107482Z" fill="#002211"/>
<path d="M504.511 108.339H516.78V110.401H511.783V124.971H509.535V110.401H504.511V108.339Z" fill="#002211"/>
<path d="M519.055 124.998V108.365H521.276L527.014 122.354L532.752 108.365H535V124.998H532.779V118.414C532.779 115.294 532.779 114.183 532.911 112.993L528.045 124.998H525.93L521.091 113.046C521.196 113.839 521.249 115.558 521.249 117.885V124.998H519.028H519.055Z" fill="#002211"/>
</g>
<defs>
<clipPath id="clip0_5_1088">
<rect width="534.998" height="124.997" fill="white" transform="translate(0.00244141 0.00170898)"/>
</clipPath>
</defs>
</svg>
