<svg width="92" height="25" viewBox="0 0 92 25" fill="none" xmlns="http://www.w3.org/2000/svg">
<g clip-path="url(#clip0_53_1214)">
<path d="M51.0167 0.5H55.1997V24.5H51.0167V0.5Z" fill="#00954A"/>
<path d="M65.6333 20.6711C66.7222 20.6711 67.6713 20.2546 68.4775 19.4215C69.2837 18.5885 69.6884 17.3509 69.6884 15.7057C69.6884 14.0604 69.2837 12.8228 68.4775 11.9898C67.6713 11.1568 66.7341 10.7402 65.666 10.7402C64.598 10.7402 63.6013 11.1568 62.807 11.9898C62.0097 12.8228 61.614 14.0634 61.614 15.7057C61.614 17.3509 62.0097 18.5885 62.807 19.4215C63.6013 20.2546 64.5444 20.6711 65.6333 20.6711ZM65.6333 24.3721C64.0655 24.3721 62.6523 24.0061 61.3998 23.2713C60.1473 22.5365 59.1566 21.522 58.4247 20.2218C57.6958 18.9217 57.3299 17.4163 57.3299 15.7057C57.3299 13.995 57.6988 12.4896 58.4396 11.1895C59.1804 9.88938 60.177 8.8719 61.4295 8.14003C62.682 7.40816 64.0922 7.03925 65.6631 7.03925C67.2339 7.03925 68.6084 7.40518 69.8639 8.14003C71.1164 8.8719 72.1071 9.88938 72.839 11.1895C73.5679 12.4896 73.9338 13.995 73.9338 15.7057C73.9338 17.4163 73.5679 18.9217 72.839 20.2218C72.1101 21.522 71.1105 22.5394 69.849 23.2713C68.5846 24.0061 67.1804 24.3721 65.6333 24.3721Z" fill="#00954A"/>
<path d="M75.9063 24.5V0.5H80.0893V10.4993C80.6337 9.58888 81.3685 8.87189 82.2938 8.34827C83.219 7.82763 84.2811 7.56582 85.4801 7.56582C87.4853 7.56582 89.0353 8.21142 90.1361 9.49963C91.2369 10.7878 91.7873 12.677 91.7873 15.1672V24.5H87.637V15.5658C87.637 14.1437 87.3604 13.0549 86.804 12.2992C86.2477 11.5435 85.37 11.1657 84.174 11.1657C82.9989 11.1657 82.0231 11.5881 81.2495 12.4331C80.476 13.278 80.0893 14.4561 80.0893 15.9675V24.5H75.9063Z" fill="#00954A"/>
<path d="M48.1636 7.96746H45.0427L45.0398 6.66735C45.0398 5.9801 45.1915 5.48922 45.4979 5.20063C45.8014 4.91205 46.3161 4.76627 47.0331 4.76627H48.1636V0.5H46.3815C44.6827 0.5 43.335 0.922462 42.3443 1.76739C41.3536 2.61231 40.8568 4.0344 40.8568 6.03366V7.96746H38.6344V11.8351H40.8568V24.5H45.0398V11.8351H48.1606V7.96746H48.1636Z" fill="#00954A"/>
<path d="M7.75009 0.5C6.05132 0.5 4.70361 0.922462 3.7129 1.76739C2.7222 2.61231 2.22834 4.0344 2.22834 6.03366V7.96746H0V11.8291H2.22834V24.497H6.4113V11.8291H12.9892V23.1166C12.9892 23.8782 13.5961 24.497 14.3429 24.497H17.2168C18.868 24.497 20.2752 23.783 21.6229 20.3527C22.929 16.9254 24.4254 11.7518 26.99 11.7518C29.3433 11.7518 30.801 16.8183 32.2112 20.6651C33.4429 23.5658 34.987 24.497 36.7393 24.497C37.4028 24.4911 37.9829 24.497 38.6463 24.497V23.3338V21.519V20.4658C38.6463 20.5342 37.9234 20.4777 37.8579 20.4717C36.8226 20.4717 35.945 19.3174 35.0792 16.5238C33.4994 11.4215 31.3247 7.94068 27.0852 7.94068C22.7713 7.94068 20.6947 11.2668 18.8412 16.5238C18.2283 18.1422 17.794 19.3174 17.4459 20.2159H17.2168V9.34492C17.2168 8.5833 16.6099 7.96448 15.8631 7.96448H6.4113L6.40535 6.66735C6.40535 5.9801 6.55708 5.48624 6.86054 5.19766C7.16698 4.90907 7.67869 4.76329 8.39866 4.76329H9.53217V0.5H7.75307H7.75009ZM13.7984 0.523801C12.6441 0.523801 11.7099 1.47583 11.7099 2.65396C11.7099 3.83209 12.6441 4.78412 13.7984 4.78412C14.9528 4.78412 15.8929 3.83209 15.8929 2.65396C15.8929 1.47583 14.9528 0.523801 13.7984 0.523801Z" fill="#00954A"/>
</g>
<defs>
<clipPath id="clip0_53_1214">
<rect width="91.7903" height="24" fill="white" transform="translate(0 0.5)"/>
</clipPath>
</defs>
</svg>
