<svg width="112" height="28" viewBox="0 0 112 28" fill="none" xmlns="http://www.w3.org/2000/svg">
<path d="M62.0405 0H66.9747V27.9989H62.0405V0Z" fill="#00954A"/>
<path d="M80.2134 23.5338C81.4979 23.5338 82.6159 23.048 83.5668 22.0756C84.5175 21.1034 84.9935 19.6583 84.9935 17.7397C84.9935 15.8214 84.5175 14.3758 83.5668 13.4036C82.6159 12.4315 81.5107 11.9454 80.2517 11.9454C78.941 11.9454 77.8166 12.4315 76.8788 13.4036C75.94 14.3758 75.4718 15.8214 75.4718 17.7397C75.4718 19.6583 75.94 21.1034 76.8788 22.0756C77.8166 23.048 78.928 23.5338 80.2134 23.5338ZM80.2134 27.8503C78.3629 27.8503 76.6986 27.4227 75.2212 26.567C73.7429 25.7113 72.5741 24.5256 71.7131 23.0088C70.8518 21.4923 70.4219 19.7361 70.4219 17.7397C70.4219 15.7436 70.8588 13.9869 71.7325 12.4704C72.606 10.9536 73.7815 9.76754 75.2597 8.91215C76.7375 8.05675 78.4015 7.62891 80.2517 7.62891C82.0763 7.62891 83.7273 8.05675 85.2053 8.91215C86.683 9.76754 87.8521 10.9536 88.7134 12.4704C89.5741 13.9869 90.0046 15.7436 90.0046 17.7397C90.0046 19.7361 89.5741 21.4923 88.7134 23.0088C87.8521 24.5256 86.6761 25.7113 85.1861 26.567C83.6954 27.4227 82.0378 27.8503 80.2134 27.8503Z" fill="#00954A"/>
<path d="M93.2656 27.9989V0H98.1995V11.6662C98.8418 10.6036 99.7092 9.76751 100.802 9.15795C101.894 8.54923 103.147 8.24431 104.56 8.24431C106.924 8.24431 108.755 8.99639 110.053 10.4994C111.351 12.0036 112 14.2072 112 17.1105V27.9989H107.104V17.577C107.104 15.9183 106.777 14.6476 106.121 13.7662C105.466 12.885 104.432 12.444 103.019 12.444C101.631 12.444 100.48 12.9368 99.5682 13.9219C98.6558 14.9072 98.1995 16.2811 98.1995 18.0437V27.9989H93.2656Z" fill="#00954A"/>
<path d="M57.7436 8.71079H54.062L54.057 7.19403C54.057 6.39072 54.2363 5.82036 54.5969 5.48296C54.9563 5.14668 55.5606 4.97756 56.4085 4.97756H57.7436V0H55.643C53.6379 0 52.0511 0.49252 50.8817 1.47756C49.7121 2.46344 49.1278 4.12188 49.1278 6.45512V8.71079H46.5068V13.2219H49.1278V27.9988H54.062V13.2219H57.7436V8.71079Z" fill="#00954A"/>
<path d="M9.14211 0C7.13729 0 5.54931 0.493696 4.38023 1.47876C3.21059 2.46436 2.62813 4.12428 2.62813 6.45752V8.71499H0V13.2213H2.62813V27.9999H7.56351V13.2213H16.2546V26.3899C16.2546 27.2792 16.969 27.9999 17.8506 27.9999H21.242C25.5944 27.8846 27.0058 21.9208 28.3978 18.725C29.1725 16.9461 30.6938 14.0128 32.7954 13.5888C33.5415 13.4383 34.1688 13.6072 34.7037 13.9738C35.1308 14.2665 35.4883 14.6906 35.8053 15.155C36.2092 15.7471 36.5383 16.4165 36.8029 17.0275C37.7596 19.239 38.2081 21.6473 39.0145 23.9136C39.705 25.8543 41.0387 28.015 43.3341 27.9999C44.116 27.9943 45.7353 27.9999 46.5175 27.9999V26.6436V24.5262V22.9512C46.5152 23.0327 44.7322 22.9641 44.6525 22.9599C43.6677 22.9056 43.2336 21.9984 43.013 21.1489C41.9069 16.8877 40.5535 11.6806 36.2996 9.50252C35.9119 9.304 35.5019 9.13847 35.0853 9.01252C34.3706 8.79636 33.6273 8.69632 32.882 8.68876C31.7429 8.67728 30.6183 8.95997 29.6035 9.47626C25.9442 11.3385 24.402 15.7837 22.8899 19.3375C22.4089 20.4673 21.937 21.6263 21.242 22.6449V10.325C21.242 9.43566 20.5276 8.71502 19.646 8.71499H7.56351L7.55482 7.20126C7.55482 6.39794 7.73232 5.82366 8.0926 5.48626C8.45231 5.1497 9.05745 4.97882 9.9054 4.97876H11.2412V0H9.14211ZM17.2087 0.0262639C15.8462 0.0262639 14.7454 1.13674 14.7454 2.51126C14.7454 3.88578 15.8462 4.99626 17.2087 4.99626C18.5715 4.99626 19.6807 3.88578 19.6807 2.51126C19.6807 1.13674 18.5715 0.0262639 17.2087 0.0262639Z" fill="#00954A"/>
</svg>
