<svg width="165" height="116" viewBox="0 0 165 116" fill="none" xmlns="http://www.w3.org/2000/svg">
<g id="Inside The CFO Office">
<path d="M8.48379 2.10649V30.4886H0.776294V2.10649H8.48379Z" fill="#0A0F15"/>
<path d="M19.8995 18.5149V30.4886H12.2474V9.20202H19.5113V13.2487H19.7331C20.1952 11.8998 21.0085 10.8419 22.1729 10.0751C23.3466 9.30827 24.7143 8.92486 26.2762 8.92486C27.7826 8.92486 29.0902 9.27132 30.1992 9.96424C31.3175 10.6479 32.1816 11.5903 32.7915 12.7914C33.4107 13.9924 33.7157 15.3644 33.7064 16.9073V30.4886H26.0544V18.5149C26.0636 17.4617 25.7956 16.6348 25.2504 16.0343C24.7143 15.4337 23.9658 15.1335 23.0047 15.1335C22.3762 15.1335 21.8263 15.272 21.355 15.5492C20.8929 15.8171 20.5371 16.2052 20.2876 16.7133C20.0381 17.2122 19.9087 17.8128 19.8995 18.5149Z" fill="#0A0F15"/>
<path d="M56.9467 16.1313H49.9046C49.8677 15.697 49.7152 15.3229 49.4472 15.0087C49.1792 14.6946 48.8326 14.4544 48.4075 14.2881C47.9916 14.1125 47.5295 14.0248 47.0213 14.0248C46.3651 14.0248 45.8014 14.1449 45.33 14.3851C44.8587 14.6253 44.6277 14.9671 44.6369 15.4106C44.6277 15.7247 44.7617 16.0158 45.0389 16.2837C45.3254 16.5516 45.8753 16.7595 46.6886 16.9073L51.0136 17.6834C53.1946 18.0807 54.8165 18.7505 55.8793 19.6929C56.9514 20.626 57.492 21.8779 57.5012 23.4485C57.492 24.9637 57.0392 26.2803 56.1427 27.3982C55.2555 28.5069 54.0403 29.3661 52.4969 29.9759C50.9628 30.5764 49.2115 30.8767 47.2431 30.8767C43.99 30.8767 41.444 30.2115 39.6049 28.8811C37.775 27.5506 36.7538 25.7952 36.5413 23.6148H44.1379C44.2395 24.2893 44.5722 24.8113 45.136 25.1808C45.709 25.5412 46.4298 25.7213 47.2985 25.7213C48.0009 25.7213 48.5785 25.6012 49.0313 25.361C49.4934 25.1208 49.729 24.7789 49.7383 24.3355C49.729 23.929 49.5257 23.6056 49.1283 23.3654C48.7402 23.1252 48.1303 22.9312 47.2985 22.7833L43.5279 22.1181C41.3562 21.7393 39.7296 21.0187 38.6484 19.9562C37.5671 18.8937 37.0311 17.5263 37.0403 15.8541C37.0311 14.3759 37.4192 13.124 38.2048 12.0984C38.9996 11.0637 40.1316 10.2784 41.6011 9.74251C43.0797 9.19741 44.831 8.92486 46.8549 8.92486C49.9324 8.92486 52.3583 9.56235 54.1327 10.8373C55.9163 12.1123 56.8543 13.8769 56.9467 16.1313Z" fill="#0A0F15"/>
<path d="M60.4331 30.4886V9.20202H68.0852V30.4886H60.4331ZM64.2592 6.98467C63.2241 6.98467 62.3369 6.64283 61.5976 5.95914C60.8582 5.27546 60.4886 4.45319 60.4886 3.49233C60.4886 2.53148 60.8582 1.70921 61.5976 1.02553C62.3369 0.341842 63.2241 0 64.2592 0C65.3035 0 66.1907 0.341842 66.9207 1.02553C67.6601 1.70921 68.0297 2.53148 68.0297 3.49233C68.0297 4.45319 67.6601 5.27546 66.9207 5.95914C66.1907 6.64283 65.3035 6.98467 64.2592 6.98467Z" fill="#0A0F15"/>
<path d="M79.6915 30.7658C78.1758 30.7658 76.7804 30.3685 75.505 29.574C74.2389 28.7794 73.2224 27.5737 72.4553 25.9569C71.6975 24.3401 71.3186 22.3029 71.3186 19.8453C71.3186 17.2769 71.716 15.1889 72.5107 13.5813C73.3148 11.9737 74.3498 10.7957 75.6159 10.0474C76.8913 9.29904 78.2313 8.92486 79.636 8.92486C80.6896 8.92486 81.6137 9.10964 82.4085 9.47919C83.2033 9.83951 83.8687 10.3246 84.4047 10.9343C84.9407 11.5349 85.3473 12.1955 85.6246 12.9161H85.7355V2.10649H93.3875V30.4886H85.7909V26.9963H85.6246C85.3288 27.7169 84.9037 28.3637 84.3492 28.9365C83.804 29.5001 83.1386 29.9482 82.3531 30.2808C81.5768 30.6041 80.6896 30.7658 79.6915 30.7658ZM82.5194 24.8898C83.2218 24.8898 83.8225 24.6866 84.3215 24.28C84.8298 23.8643 85.2179 23.2822 85.486 22.5339C85.7632 21.7763 85.9018 20.8801 85.9018 19.8453C85.9018 18.7921 85.7632 17.8913 85.486 17.1429C85.2179 16.3853 84.8298 15.8079 84.3215 15.4106C83.8225 15.0041 83.2218 14.8008 82.5194 14.8008C81.817 14.8008 81.2163 15.0041 80.7173 15.4106C80.2275 15.8079 79.8486 16.3853 79.5806 17.1429C79.3218 17.8913 79.1924 18.7921 79.1924 19.8453C79.1924 20.8986 79.3218 21.804 79.5806 22.5616C79.8486 23.3099 80.2275 23.8874 80.7173 24.2939C81.2163 24.6912 81.817 24.8898 82.5194 24.8898Z" fill="#0A0F15"/>
<path d="M107.347 30.8767C105.074 30.8767 103.114 30.4424 101.469 29.574C99.8335 28.6963 98.5721 27.4398 97.6849 25.8045C96.8069 24.1599 96.3679 22.192 96.3679 19.9008C96.3679 17.7019 96.8115 15.7802 97.6987 14.1356C98.5859 12.4911 99.8382 11.2115 101.455 10.2968C103.073 9.38219 104.981 8.92486 107.181 8.92486C108.789 8.92486 110.244 9.17431 111.547 9.67321C112.85 10.1721 113.964 10.8974 114.888 11.849C115.812 12.7914 116.524 13.937 117.023 15.2859C117.522 16.6348 117.771 18.1546 117.771 19.8453V21.6192H98.7523V17.4062H110.729C110.72 16.7965 110.563 16.2606 110.258 15.7987C109.962 15.3275 109.56 14.9625 109.052 14.7038C108.553 14.4359 107.985 14.3019 107.347 14.3019C106.728 14.3019 106.159 14.4359 105.642 14.7038C105.124 14.9625 104.708 15.3229 104.394 15.7848C104.089 16.2467 103.928 16.7872 103.909 17.4062V21.9518C103.909 22.6355 104.052 23.2453 104.339 23.7811C104.625 24.317 105.037 24.7374 105.573 25.0423C106.109 25.3471 106.755 25.4996 107.513 25.4996C108.04 25.4996 108.521 25.4257 108.955 25.2779C109.399 25.13 109.777 24.9175 110.092 24.6404C110.406 24.354 110.637 24.0121 110.785 23.6148H117.771C117.531 25.0931 116.963 26.3773 116.066 27.4675C115.17 28.5485 113.982 29.3892 112.504 29.9897C111.034 30.581 109.315 30.8767 107.347 30.8767Z" fill="#0A0F15"/>
<path d="M0 50.5927V44.3841H24.6751V50.5927H16.1358V72.7662H8.53924V50.5927H0Z" fill="#0A0F15"/>
<path d="M35.3387 60.7925V72.7662H27.6867V44.3841H35.0615V55.5263H35.2833C35.7638 54.1681 36.5632 53.1103 37.6815 52.3527C38.7997 51.5859 40.1444 51.2024 41.7154 51.2024C43.2218 51.2024 44.5295 51.5443 45.6385 52.228C46.7567 52.9116 47.6208 53.854 48.2308 55.0551C48.8499 56.2562 49.1549 57.6328 49.1457 59.1849V72.7662H41.4936V60.7925C41.5029 59.7393 41.2395 58.9124 40.7035 58.3118C40.1767 57.7113 39.4235 57.411 38.4439 57.411C37.8247 57.411 37.2795 57.5496 36.8081 57.8268C36.3461 58.0947 35.9856 58.4827 35.7269 58.9909C35.4773 59.4898 35.348 60.0903 35.3387 60.7925Z" fill="#0A0F15"/>
<path d="M63.1259 73.1543C60.8525 73.1543 58.8932 72.72 57.2482 71.8516C55.6125 70.9739 54.351 69.7174 53.4638 68.0821C52.5859 66.4375 52.1469 64.4696 52.1469 62.1783C52.1469 59.9795 52.5905 58.0578 53.4777 56.4132C54.3649 54.7687 55.6171 53.4891 57.2344 52.5744C58.8517 51.6598 60.7601 51.2024 62.9596 51.2024C64.5676 51.2024 66.0231 51.4519 67.3262 51.9508C68.6293 52.4497 69.7429 53.175 70.667 54.1266C71.5912 55.0689 72.3028 56.2146 72.8019 57.5635C73.3009 58.9124 73.5504 60.4322 73.5504 62.1229V63.8968H54.5312V59.6838H66.5083C66.4991 59.074 66.342 58.5382 66.037 58.0762C65.7413 57.605 65.3393 57.2401 64.831 56.9814C64.3319 56.7135 63.7636 56.5795 63.1259 56.5795C62.5067 56.5795 61.9384 56.7135 61.4208 56.9814C60.9033 57.2401 60.4874 57.6004 60.1732 58.0624C59.8682 58.5243 59.7065 59.0648 59.688 59.6838V64.2294C59.688 64.9131 59.8313 65.5229 60.1178 66.0587C60.4043 66.5946 60.8155 67.015 61.3515 67.3198C61.8875 67.6247 62.5344 67.7772 63.2923 67.7772C63.819 67.7772 64.2996 67.7033 64.7339 67.5554C65.1775 67.4076 65.5564 67.1951 65.8707 66.9179C66.1849 66.6315 66.4159 66.2897 66.5638 65.8924H73.5504C73.3101 67.3707 72.7418 68.6549 71.8454 69.7451C70.9489 70.826 69.7614 71.6668 68.2827 72.2673C66.8133 72.8586 65.0944 73.1543 63.1259 73.1543Z" fill="#0A0F15"/>
<path d="M110.844 55.0274H103.025C102.97 54.3806 102.822 53.794 102.582 53.2673C102.351 52.7407 102.027 52.288 101.611 51.9092C101.205 51.5212 100.71 51.2255 100.128 51.0223C99.5459 50.8098 98.8851 50.7035 98.1458 50.7035C96.852 50.7035 95.7568 51.0177 94.8604 51.6459C93.9732 52.2742 93.2986 53.175 92.8365 54.3483C92.3837 55.5217 92.1572 56.9306 92.1572 58.5751C92.1572 60.3121 92.3883 61.7672 92.8504 62.9406C93.3217 64.1047 94.0009 64.9824 94.8881 65.5737C95.7753 66.1557 96.8427 66.4468 98.0903 66.4468C98.8019 66.4468 99.4396 66.359 100.003 66.1834C100.567 65.9987 101.057 65.7354 101.473 65.3935C101.889 65.0517 102.226 64.6405 102.485 64.1601C102.753 63.6704 102.933 63.1207 103.025 62.5109L110.844 62.5664C110.751 63.7675 110.414 64.9916 109.832 66.2389C109.25 67.4769 108.422 68.6225 107.35 69.6758C106.288 70.7198 104.971 71.5605 103.4 72.198C101.829 72.8355 100.003 73.1543 97.924 73.1543C95.3179 73.1543 92.9797 72.5953 90.9096 71.4774C88.8487 70.3595 87.2176 68.7149 86.0162 66.5438C84.824 64.3726 84.2279 61.7164 84.2279 58.5751C84.2279 55.4154 84.8379 52.7546 86.0578 50.5927C87.2777 48.4215 88.9227 46.7816 90.9928 45.6729C93.0629 44.555 95.3733 43.996 97.924 43.996C99.7169 43.996 101.366 44.2409 102.873 44.7305C104.379 45.2202 105.701 45.9362 106.838 46.8786C107.974 47.8117 108.889 48.962 109.582 50.3294C110.275 51.6967 110.696 53.2627 110.844 55.0274Z" fill="#0A0F15"/>
<path d="M114.341 72.7662V44.3841H134.302V50.5927H122.048V55.4708H133.083V61.6794H122.048V72.7662H114.341Z" fill="#0A0F15"/>
<path d="M164.64 58.5751C164.64 61.7349 164.026 64.4003 162.797 66.5715C161.567 68.7334 159.909 70.3733 157.82 71.4912C155.731 72.5999 153.402 73.1543 150.833 73.1543C148.246 73.1543 145.908 72.5953 143.819 71.4774C141.74 70.3502 140.085 68.7057 138.856 66.5438C137.636 64.3726 137.026 61.7164 137.026 58.5751C137.026 55.4154 137.636 52.7546 138.856 50.5927C140.085 48.4215 141.74 46.7816 143.819 45.6729C145.908 44.555 148.246 43.996 150.833 43.996C153.402 43.996 155.731 44.555 157.82 45.6729C159.909 46.7816 161.567 48.4215 162.797 50.5927C164.026 52.7546 164.64 55.4154 164.64 58.5751ZM156.711 58.5751C156.711 56.8752 156.485 55.4431 156.032 54.279C155.588 53.1057 154.927 52.2187 154.049 51.6182C153.181 51.0084 152.109 50.7035 150.833 50.7035C149.558 50.7035 148.481 51.0084 147.603 51.6182C146.735 52.2187 146.074 53.1057 145.621 54.279C145.177 55.4431 144.956 56.8752 144.956 58.5751C144.956 60.2751 145.177 61.7118 145.621 62.8851C146.074 64.0492 146.735 64.9362 147.603 65.546C148.481 66.1465 149.558 66.4468 150.833 66.4468C152.109 66.4468 153.181 66.1465 154.049 65.546C154.927 64.9362 155.588 64.0492 156.032 62.8851C156.485 61.7118 156.711 60.2751 156.711 58.5751Z" fill="#0A0F15"/>
<path d="M28.2793 100.853C28.2793 104.012 27.6647 106.678 26.4356 108.849C25.2065 111.011 23.5476 112.651 21.459 113.769C19.3704 114.877 17.0415 115.432 14.4723 115.432C11.8847 115.432 9.54657 114.873 7.45797 113.755C5.37861 112.628 3.72436 110.983 2.49523 108.821C1.27534 106.65 0.665395 103.994 0.665395 100.853C0.665395 97.693 1.27534 95.0322 2.49523 92.8702C3.72436 90.6991 5.37861 89.0592 7.45797 87.9505C9.54657 86.8326 11.8847 86.2736 14.4723 86.2736C17.0415 86.2736 19.3704 86.8326 21.459 87.9505C23.5476 89.0592 25.2065 90.6991 26.4356 92.8702C27.6647 95.0322 28.2793 97.693 28.2793 100.853ZM20.35 100.853C20.35 99.1527 20.1236 97.7207 19.6707 96.5566C19.2271 95.3832 18.5664 94.4963 17.6884 93.8958C16.8197 93.286 15.7477 92.9811 14.4723 92.9811C13.197 92.9811 12.1204 93.286 11.2424 93.8958C10.3737 94.4963 9.71292 95.3832 9.26008 96.5566C8.81649 97.7207 8.59469 99.1527 8.59469 100.853C8.59469 102.553 8.81649 103.989 9.26008 105.163C9.71292 106.327 10.3737 107.214 11.2424 107.824C12.1204 108.424 13.197 108.724 14.4723 108.724C15.7477 108.724 16.8197 108.424 17.6884 107.824C18.5664 107.214 19.2271 106.327 19.6707 105.163C20.1236 103.989 20.35 102.553 20.35 100.853Z" fill="#0A0F15"/>
<path d="M44.7097 93.7572V99.3006H30.4592V93.7572H44.7097ZM33.1762 115.044V93.1474C33.1762 91.392 33.4904 89.9369 34.1188 88.782C34.7473 87.6271 35.6345 86.7633 36.7804 86.1905C37.9264 85.6176 39.2756 85.3312 40.8282 85.3312C41.7986 85.3312 42.7412 85.4051 43.6562 85.553C44.5803 85.7008 45.2642 85.8301 45.7078 85.941L44.5988 91.429C44.3216 91.3458 43.9981 91.2811 43.6284 91.2349C43.2588 91.1795 42.9353 91.1518 42.6581 91.1518C41.9372 91.1518 41.452 91.3042 41.2025 91.6091C40.953 91.914 40.8282 92.3159 40.8282 92.8148V115.044H33.1762Z" fill="#0A0F15"/>
<path d="M60.4158 93.7572V99.3006H46.1653V93.7572H60.4158ZM48.8823 115.044V93.1474C48.8823 91.392 49.1965 89.9369 49.8249 88.782C50.4534 87.6271 51.3406 86.7633 52.4865 86.1905C53.6325 85.6176 54.9817 85.3312 56.5343 85.3312C57.5047 85.3312 58.4473 85.4051 59.3623 85.553C60.2864 85.7008 60.9703 85.8301 61.4139 85.941L60.3049 91.429C60.0277 91.3458 59.7042 91.2811 59.3345 91.2349C58.9649 91.1795 58.6414 91.1518 58.3642 91.1518C57.6433 91.1518 57.1581 91.3042 56.9086 91.6091C56.6591 91.914 56.5343 92.3159 56.5343 92.8148V115.044H48.8823Z" fill="#0A0F15"/>
<path d="M63.3685 115.044V93.7572H71.0205V115.044H63.3685ZM67.1945 91.5398C66.1595 91.5398 65.2723 91.198 64.5329 90.5143C63.7936 89.8306 63.4239 89.0083 63.4239 88.0475C63.4239 87.0866 63.7936 86.2644 64.5329 85.5807C65.2723 84.897 66.1595 84.5552 67.1945 84.5552C68.2388 84.5552 69.126 84.897 69.8561 85.5807C70.5954 86.2644 70.9651 87.0866 70.9651 88.0475C70.9651 89.0083 70.5954 89.8306 69.8561 90.5143C69.126 91.198 68.2388 91.5398 67.1945 91.5398Z" fill="#0A0F15"/>
<path d="M85.1775 115.432C82.8671 115.432 80.8894 114.975 79.2444 114.06C77.5994 113.136 76.3379 111.852 75.46 110.207C74.582 108.553 74.1431 106.636 74.1431 104.456C74.1431 102.276 74.582 100.363 75.46 98.7185C76.3379 97.0647 77.5994 95.7805 79.2444 94.8659C80.8894 93.942 82.8671 93.48 85.1775 93.48C87.2661 93.48 89.0729 93.8588 90.5977 94.6164C92.1318 95.3648 93.3194 96.4273 94.1604 97.8039C95.0013 99.1712 95.4265 100.779 95.4357 102.627H88.3382C88.2365 101.509 87.913 100.659 87.3678 100.077C86.8318 99.4854 86.1386 99.1897 85.2884 99.1897C84.623 99.1897 84.0408 99.3837 83.5418 99.7718C83.0427 100.151 82.6546 100.728 82.3773 101.504C82.1001 102.271 81.9614 103.236 81.9614 104.4C81.9614 105.565 82.1001 106.535 82.3773 107.311C82.6546 108.078 83.0427 108.655 83.5418 109.043C84.0408 109.422 84.623 109.611 85.2884 109.611C85.8522 109.611 86.3512 109.482 86.7856 109.223C87.2199 108.955 87.5711 108.567 87.8391 108.059C88.1163 107.542 88.2827 106.913 88.3382 106.174H95.4357C95.408 108.05 94.9782 109.685 94.1465 111.08C93.3148 112.466 92.1364 113.538 90.6116 114.295C89.096 115.053 87.2846 115.432 85.1775 115.432Z" fill="#0A0F15"/>
<path d="M108.796 115.432C106.522 115.432 104.563 114.998 102.918 114.129C101.282 113.251 100.021 111.995 99.1335 110.36C98.2555 108.715 97.8166 106.747 97.8166 104.456C97.8166 102.257 98.2602 100.335 99.1474 98.6908C100.035 97.0463 101.287 95.7667 102.904 94.852C104.521 93.9373 106.43 93.48 108.629 93.48C110.237 93.48 111.693 93.7295 112.996 94.2284C114.299 94.7273 115.413 95.4525 116.337 96.4042C117.261 97.3465 117.972 98.4922 118.472 99.841C118.971 101.19 119.22 102.71 119.22 104.4V106.174H100.201V101.961H112.178C112.169 101.352 112.012 100.816 111.707 100.354C111.411 99.8826 111.009 99.5177 110.501 99.259C110.002 98.9911 109.433 98.8571 108.796 98.8571C108.176 98.8571 107.608 98.9911 107.09 99.259C106.573 99.5177 106.157 99.878 105.843 100.34C105.538 100.802 105.376 101.342 105.358 101.961V106.507C105.358 107.191 105.501 107.8 105.787 108.336C106.074 108.872 106.485 109.293 107.021 109.597C107.557 109.902 108.204 110.055 108.962 110.055C109.489 110.055 109.969 109.981 110.404 109.833C110.847 109.685 111.226 109.473 111.54 109.196C111.855 108.909 112.086 108.567 112.233 108.17H119.22C118.98 109.648 118.411 110.932 117.515 112.023C116.619 113.104 115.431 113.944 113.952 114.545C112.483 115.136 110.764 115.432 108.796 115.432Z" fill="#0A0F15"/>
</g>
</svg>
