<svg width="20" height="20" viewBox="0 0 20 20" fill="none" xmlns="http://www.w3.org/2000/svg">
<path d="M8.52498 14.2134L15.2634 7.475L14.3923 6.61925L8.52498 12.4962L5.56345 9.53463L4.7173 10.3904L8.52498 14.2134ZM10.0016 19.5C8.69797 19.5 7.46966 19.2506 6.31673 18.752C5.16379 18.2533 4.15555 17.5724 3.292 16.7092C2.42843 15.846 1.74721 14.8382 1.24833 13.6858C0.749442 12.5334 0.5 11.3053 0.5 10.0017C0.5 8.68774 0.749334 7.45271 1.248 6.29658C1.74667 5.14043 2.42758 4.13474 3.29075 3.27953C4.15393 2.42429 5.16173 1.74723 6.31415 1.24835C7.46658 0.749468 8.69463 0.500025 9.9983 0.500025C11.3122 0.500025 12.5473 0.749359 13.7034 1.24803C14.8596 1.74669 15.8652 2.42344 16.7205 3.27828C17.5757 4.13313 18.2527 5.13837 18.7516 6.294C19.2505 7.44962 19.5 8.68439 19.5 9.99833C19.5 11.302 19.2506 12.5303 18.752 13.6833C18.2533 14.8362 17.5765 15.8444 16.7217 16.708C15.8669 17.5715 14.8616 18.2528 13.706 18.7517C12.5504 19.2505 11.3156 19.5 10.0016 19.5Z" fill="#444444"/>
</svg>
