<?xml version="1.0" encoding="UTF-8"?>
<svg xmlns="http://www.w3.org/2000/svg" width="237" height="186" viewBox="0 0 237 186" fill="none">
  <path d="M38.4504 158.74C37.7971 158.241 37.0723 157.843 36.3004 157.56L34.1104 156.76C33.8804 156.68 33.5904 156.58 33.2604 156.44C32.9242 156.301 32.6054 156.123 32.3104 155.91C31.9998 155.686 31.735 155.404 31.5304 155.08C31.3041 154.685 31.1932 154.235 31.2104 153.78C31.2118 153.438 31.2763 153.099 31.4004 152.78C31.5259 152.416 31.7156 152.077 31.9604 151.78C32.211 151.484 32.5166 151.239 32.8604 151.06C33.2498 150.871 33.6777 150.775 34.1104 150.78C34.4485 150.79 34.7842 150.84 35.1104 150.93C35.4752 151.029 35.8156 151.203 36.1104 151.44C36.4318 151.711 36.6852 152.053 36.8504 152.44C37.0659 152.913 37.1686 153.43 37.1504 153.95H40.3104C40.3215 153.097 40.1617 152.25 39.8404 151.46C39.5483 150.743 39.1088 150.096 38.5504 149.56C37.9949 149.019 37.33 148.603 36.6004 148.34C35.8014 148.055 34.9586 147.913 34.1104 147.92C33.1846 147.896 32.2664 148.091 31.4304 148.49C30.7165 148.844 30.0754 149.329 29.5404 149.92C29.05 150.476 28.6699 151.121 28.4204 151.82C28.1858 152.461 28.0607 153.137 28.0504 153.82C28.0518 154.577 28.1699 155.329 28.4004 156.05C28.6115 156.745 28.997 157.375 29.5204 157.88C29.7508 158.104 29.9946 158.315 30.2504 158.51C30.5124 158.721 30.7975 158.903 31.1004 159.05C31.4919 159.261 31.896 159.448 32.3104 159.61L34.1104 160.31C34.4804 160.47 34.8704 160.62 35.2804 160.78C35.679 160.933 36.0556 161.138 36.4004 161.39C36.7527 161.658 37.0427 161.999 37.2504 162.39C37.4944 162.847 37.6118 163.362 37.5904 163.88C37.6183 164.373 37.5438 164.867 37.3717 165.329C37.1996 165.792 36.9336 166.215 36.5904 166.57C36.2625 166.894 35.8734 167.149 35.4459 167.32C35.0184 167.492 34.561 167.577 34.1004 167.57C33.429 167.606 32.7636 167.427 32.2004 167.06C31.7628 166.751 31.4005 166.348 31.1404 165.88C30.9182 165.471 30.7661 165.029 30.6904 164.57C30.6359 164.266 30.6025 163.958 30.5904 163.65H27.4304C27.4011 164.718 27.6166 165.778 28.0604 166.75C28.4425 167.556 28.9833 168.277 29.6504 168.87C30.2775 169.415 31.009 169.827 31.8004 170.08C32.543 170.324 33.3188 170.452 34.1004 170.46C35.0301 170.473 35.9537 170.307 36.8204 169.97C37.6037 169.657 38.3148 169.187 38.9104 168.59C39.4884 167.992 39.9467 167.29 40.2604 166.52C40.5853 165.688 40.7483 164.803 40.7404 163.91C40.7879 162.818 40.561 161.732 40.0804 160.75C39.6897 159.969 39.1335 159.283 38.4504 158.74V158.74ZM54.6704 162.46C54.7901 163.864 54.3719 165.262 53.5004 166.37C53.1077 166.786 52.6305 167.112 52.101 167.328C51.5714 167.543 51.0017 167.643 50.4304 167.62C49.8942 167.625 49.3608 167.544 48.8504 167.38C48.3579 167.225 47.9135 166.946 47.5604 166.57C47.155 166.132 46.8602 165.604 46.7004 165.03C46.4723 164.224 46.3678 163.387 46.3904 162.55V153.78H43.3904V162.55C43.3438 163.872 43.53 165.192 43.9404 166.45C44.2638 167.352 44.8108 168.157 45.5304 168.79C46.1198 169.302 46.7975 169.701 47.5304 169.97C48.3596 170.258 49.2325 170.4 50.1104 170.39C51.0878 170.402 52.0576 170.215 52.9604 169.84C53.7587 169.531 54.4309 168.964 54.8704 168.23H54.9304V170H57.7104V153.78H54.7104L54.6704 162.46ZM69.4704 161.28C68.9791 160.902 68.4327 160.602 67.8504 160.39L66.5604 159.95C66.2304 159.85 65.9104 159.75 65.6104 159.64C65.3242 159.547 65.0518 159.415 64.8004 159.25C64.5809 159.098 64.3939 158.905 64.2504 158.68C64.1025 158.425 64.0297 158.134 64.0404 157.84C64.0345 157.607 64.0787 157.376 64.1702 157.162C64.2617 156.948 64.3982 156.756 64.5704 156.6C64.9534 156.272 65.4463 156.1 65.9504 156.12C66.4579 156.098 66.9548 156.269 67.3404 156.6C67.737 156.996 67.9782 157.521 68.0204 158.08H71.0204C71.0311 157.295 70.8418 156.521 70.4704 155.83C70.1566 155.258 69.7235 154.76 69.2004 154.37C68.7229 154.004 68.1798 153.732 67.6004 153.57C67.0958 153.426 66.5748 153.349 66.0504 153.34C65.3348 153.331 64.6246 153.464 63.9604 153.73C63.3609 153.977 62.8143 154.337 62.3504 154.79C61.9246 155.218 61.5851 155.724 61.3504 156.28C61.1191 156.824 61.0001 157.409 61.0004 158C60.9726 158.735 61.1345 159.465 61.4704 160.12C61.762 160.649 62.1524 161.118 62.6204 161.5C63.0714 161.851 63.5697 162.137 64.1004 162.35C64.6304 162.55 65.1004 162.73 65.5704 162.88C66.0404 163.03 66.3204 163.16 66.6804 163.31C67.0015 163.435 67.3042 163.604 67.5804 163.81C67.8281 163.98 68.0362 164.202 68.1904 164.46C68.3358 164.741 68.408 165.054 68.4004 165.37C68.4172 165.671 68.3678 165.972 68.2554 166.252C68.1431 166.532 67.9707 166.784 67.7504 166.99C67.2862 167.403 66.6811 167.621 66.0604 167.6C65.6882 167.627 65.3147 167.569 64.9681 167.43C64.6216 167.292 64.3112 167.076 64.0604 166.8C63.5655 166.188 63.2908 165.427 63.2804 164.64H60.2804C60.248 165.604 60.4614 166.561 60.9004 167.42C61.2614 168.112 61.7701 168.716 62.3904 169.19C62.9463 169.618 63.582 169.931 64.2604 170.11C64.834 170.269 65.4252 170.356 66.0204 170.37C66.8023 170.384 67.5797 170.249 68.3104 169.97C68.9485 169.713 69.5296 169.332 70.0204 168.85C70.4901 168.386 70.855 167.827 71.0904 167.21C71.3407 166.573 71.4663 165.894 71.4604 165.21C71.4894 164.377 71.285 163.553 70.8704 162.83C70.5072 162.228 70.0319 161.702 69.4704 161.28V161.28ZM77.5804 148.34H74.5804V153.78H72.3904V156.56H74.5804V170H77.5804V156.56H80.2504V153.78H77.5804V148.34ZM95.0504 156.06H95.0004C94.4271 155.184 93.6151 154.49 92.6604 154.06C91.6719 153.596 90.5921 153.361 89.5004 153.37C88.1897 153.336 86.8889 153.606 85.7004 154.16C84.681 154.639 83.7693 155.319 83.0204 156.16C82.3187 156.973 81.779 157.914 81.4304 158.93C81.088 159.893 80.9089 160.907 80.9004 161.93C80.9006 162.999 81.0937 164.059 81.4704 165.06C81.8474 166.059 82.4146 166.976 83.1404 167.76C83.9029 168.576 84.8254 169.226 85.8504 169.67C87.0044 170.158 88.2475 170.4 89.5004 170.38C90.5904 170.383 91.667 170.14 92.6504 169.67C93.6373 169.185 94.456 168.415 95.0004 167.46H95.0604V170H98.0604V153.78H95.0604L95.0504 156.06ZM94.6704 164.12C94.3921 164.796 93.9844 165.41 93.4704 165.93C92.9615 166.45 92.3572 166.868 91.6904 167.16C90.987 167.466 90.2276 167.623 89.4604 167.62C88.6932 167.623 87.9351 167.455 87.2404 167.13C86.5785 166.827 85.9836 166.395 85.4904 165.86C84.9989 165.331 84.6121 164.713 84.3504 164.04C84.0737 163.364 83.9343 162.64 83.9404 161.91C83.9448 161.23 84.0561 160.555 84.2704 159.91C84.487 159.231 84.8259 158.597 85.2704 158.04C85.7503 157.464 86.3423 156.991 87.0104 156.65C87.7681 156.275 88.6054 156.09 89.4504 156.11C90.2041 156.105 90.9514 156.248 91.6504 156.53C92.3127 156.808 92.9167 157.208 93.4304 157.71C93.9491 158.233 94.3572 158.856 94.6304 159.54C94.9284 160.291 95.0778 161.092 95.0704 161.9C95.0874 162.659 94.9513 163.414 94.6704 164.12V164.12ZM101.81 169.99H104.81V153.78H101.81V169.99ZM101.81 151.91H104.81V148.34H101.81V151.91ZM121.9 156.24C121.324 155.328 120.512 154.589 119.55 154.1C118.502 153.577 117.342 153.316 116.17 153.34H115.39C114.979 153.366 114.573 153.444 114.18 153.57C113.687 153.731 113.214 153.95 112.77 154.22C112.246 154.549 111.791 154.977 111.43 155.48H111.37V153.75H108.53V170H111.58V161.16C111.486 159.807 111.903 158.469 112.75 157.41C113.144 156.985 113.625 156.65 114.16 156.429C114.695 156.208 115.272 156.106 115.85 156.13C116.676 156.077 117.496 156.291 118.19 156.74C118.704 157.114 119.114 157.613 119.38 158.19C119.632 158.718 119.784 159.287 119.83 159.87C119.83 160.44 119.88 160.87 119.88 161.19V170H122.93V160.4C122.917 159.602 122.823 158.808 122.65 158.03C122.496 157.398 122.243 156.793 121.9 156.24V156.24ZM139.75 156.06H139.69C139.117 155.184 138.305 154.49 137.35 154.06C136.362 153.597 135.282 153.362 134.19 153.37C132.88 153.336 131.579 153.606 130.39 154.16C129.371 154.639 128.459 155.319 127.71 156.16C127.009 156.973 126.469 157.914 126.12 158.93C125.778 159.893 125.599 160.907 125.59 161.93C125.591 162.999 125.784 164.059 126.16 165.06C126.542 166.084 127.127 167.02 127.88 167.812C128.632 168.604 129.537 169.236 130.54 169.67C131.694 170.158 132.938 170.4 134.19 170.38C135.28 170.383 136.357 170.14 137.34 169.67C138.327 169.185 139.146 168.415 139.69 167.46H139.75V170H142.75V153.78H139.75V156.06ZM139.37 164.12C139.092 164.796 138.684 165.41 138.17 165.93C137.662 166.45 137.057 166.868 136.39 167.16C135.687 167.467 134.928 167.624 134.16 167.62C133.393 167.624 132.635 167.457 131.94 167.13C131.277 166.83 130.682 166.397 130.19 165.86C129.677 165.323 129.273 164.691 129 164C128.732 163.322 128.596 162.599 128.6 161.87C128.605 161.19 128.716 160.515 128.93 159.87C129.147 159.191 129.486 158.557 129.93 158C130.41 157.424 131.002 156.951 131.67 156.61C132.428 156.234 133.265 156.049 134.11 156.07C134.85 156.057 135.585 156.191 136.272 156.466C136.959 156.741 137.584 157.15 138.11 157.67C138.629 158.193 139.037 158.816 139.31 159.5C139.608 160.251 139.758 161.052 139.75 161.86C139.779 162.631 139.65 163.4 139.37 164.12V164.12ZM161 155.74C159.446 154.22 157.364 153.36 155.19 153.34C154.117 153.329 153.053 153.547 152.07 153.98C151.091 154.414 150.248 155.105 149.63 155.98H149.57V148.29H146.5V170H149.5V167.65H149.56C149.957 168.181 150.444 168.639 151 169C151.475 169.331 151.985 169.61 152.52 169.83C152.996 170.029 153.492 170.173 154 170.26C154.424 170.327 154.852 170.364 155.28 170.37C156.412 170.382 157.533 170.153 158.57 169.7C159.562 169.269 160.459 168.648 161.21 167.87C161.959 167.083 162.556 166.164 162.97 165.16C163.402 164.114 163.619 162.992 163.61 161.86C163.625 160.676 163.386 159.504 162.91 158.42C162.448 157.414 161.8 156.505 161 155.74V155.74ZM160.08 164.13C159.8 164.813 159.389 165.434 158.87 165.96C158.365 166.475 157.764 166.886 157.1 167.17C156.444 167.467 155.731 167.62 155.01 167.62C154.325 167.613 153.646 167.477 153.01 167.22C152.353 166.957 151.752 166.57 151.24 166.08C150.708 165.563 150.28 164.949 149.98 164.27C149.65 163.496 149.487 162.661 149.5 161.82C149.5 161.102 149.632 160.39 149.89 159.72C150.153 159.049 150.532 158.429 151.01 157.89C151.511 157.325 152.127 156.875 152.818 156.569C153.508 156.264 154.256 156.111 155.01 156.12C155.773 156.108 156.528 156.269 157.22 156.59C157.882 156.893 158.477 157.325 158.97 157.86C159.468 158.395 159.862 159.02 160.13 159.7C160.401 160.395 160.54 161.134 160.54 161.88C160.536 162.655 160.373 163.421 160.06 164.13H160.08ZM166.38 169.99H169.38V153.78H166.38V169.99ZM166.38 151.91H169.38V148.34H166.38V151.91ZM173.09 170H176.09V148.34H173.09V170ZM179.83 151.92H182.83V148.35H179.83V151.92ZM179.83 170H182.83V153.78H179.83V170ZM190.23 148.35H187.23V153.79H185V156.57H187.2V170H190.2V156.56H192.86V153.78H190.2L190.23 148.35ZM206.73 153.79L201.85 166.37L197.08 153.79H193.8L200.27 169.67L197.9 175.4H201.06L210 153.78L206.73 153.79Z" fill="#E31F26"></path>
  <path d="M168.06 46.7799C164.096 46.7795 160.236 48.055 157.052 50.4177C153.868 52.7805 151.529 56.1051 150.38 59.8999H185.74C184.593 56.1042 182.255 52.7787 179.07 50.4158C175.886 48.0528 172.026 46.7779 168.06 46.7799V46.7799ZM168.06 9.93993C159.189 9.93205 150.432 11.9515 142.46 15.844C134.488 19.7366 127.51 25.3993 122.06 32.3999C120.761 34.0509 119.556 35.7737 118.45 37.5599C115.319 42.5787 112.978 48.0494 111.51 53.7799C108.83 64.2399 110.64 75.0499 106.08 85.1299C102.844 92.3001 97.6066 98.3835 90.9971 102.65C84.3876 106.916 76.6872 109.183 68.8204 109.18H67.4304V92.7199C67.4304 83.2466 69.5537 76.2466 73.8004 71.7199C78.0471 67.1933 83.8804 64.9533 91.3004 64.9999H92.4704V41.7499C85.8038 41.4566 80.5304 42.9199 76.6504 46.1399C72.5706 49.6093 69.4018 54.0244 67.4204 58.9999V42.6099H45.1704V101.61C40.0533 97.9751 35.8424 93.2103 32.8643 87.6852C29.8863 82.16 28.2211 76.023 27.9981 69.7503C27.7751 63.4776 29.0002 57.2378 31.5783 51.5151C34.1565 45.7924 38.0184 40.7406 42.8644 36.7515C47.7104 32.7625 53.4103 29.9436 59.5219 28.5133C65.6334 27.0831 71.9923 27.0801 78.1052 28.5046C84.2181 29.929 89.9206 32.7426 94.7704 36.727C99.6202 40.7115 103.487 45.7597 106.07 51.4799C107.915 44.67 110.875 38.2126 114.83 32.3699C107.349 22.7904 97.0633 15.785 85.4093 12.3312C73.7553 8.87725 61.3139 9.14706 49.8206 13.1029C38.3273 17.0588 28.3553 24.5035 21.2958 34.3984C14.2363 44.2933 10.4414 56.1449 10.4404 68.2999V68.2999C10.4404 83.7833 16.5911 98.6325 27.5395 109.581C38.4879 120.529 53.3371 126.68 68.8204 126.68C78.7567 126.665 88.5258 124.122 97.2082 119.29C105.891 114.458 113.201 107.496 118.45 99.0599C122.8 92.0599 125.12 84.1399 126.26 75.9999C127.43 67.6299 127.26 59.3399 130.81 51.4799C134.905 42.4062 142.171 35.1389 151.244 31.0421C160.317 26.9454 170.573 26.301 180.087 29.2298C189.601 32.1586 197.72 38.4593 202.918 46.9491C208.116 55.4389 210.037 65.5342 208.32 75.3399H150C150.578 78.0052 151.747 80.5068 153.42 82.6599C155.145 84.8913 157.359 86.6978 159.89 87.9407C162.422 89.1836 165.205 89.8299 168.025 89.8299C170.846 89.8299 173.629 89.1836 176.16 87.9407C178.692 86.6978 180.905 84.8913 182.63 82.6599H206.29C203.444 90.2332 198.414 96.7915 191.838 101.505C185.262 106.218 177.436 108.873 169.35 109.136C161.263 109.398 153.281 107.255 146.413 102.978C139.546 98.7013 134.102 92.4827 130.77 85.1099C128.931 91.9201 125.974 98.3778 122.02 104.22C128.115 112.028 136.095 118.157 145.211 122.03C154.326 125.904 164.278 127.394 174.129 126.362C183.979 125.329 193.405 121.807 201.519 116.128C209.634 110.448 216.17 102.797 220.512 93.8951C224.854 84.9932 226.861 75.1328 226.342 65.2417C225.823 55.3507 222.796 45.7543 217.546 37.3556C212.296 28.9568 204.996 22.0318 196.332 17.2322C187.668 12.4326 177.925 9.91628 168.02 9.91993L168.06 9.93993Z" fill="#E31F26"></path>
</svg>
