<svg width="48" height="48" viewBox="0 0 48 48" fill="none" xmlns="http://www.w3.org/2000/svg">
<g id="manufacturing">
<mask id="mask0_4_108" style="mask-type:alpha" maskUnits="userSpaceOnUse" x="0" y="0" width="48" height="48">
<rect id="Bounding box" width="48" height="48" fill="#D9D9D9"/>
</mask>
<g mask="url(#mask0_4_108)">
<path id="manufacturing_2" d="M11.7 24L11.1 21C10.7 20.8333 10.325 20.6583 9.975 20.475C9.625 20.2917 9.26667 20.0667 8.9 19.8L6 20.7L4 17.3L6.3 15.3C6.23333 14.8667 6.2 14.4333 6.2 14C6.2 13.5667 6.23333 13.1333 6.3 12.7L4 10.7L6 7.3L8.9 8.2C9.26667 7.93333 9.625 7.70833 9.975 7.525C10.325 7.34167 10.7 7.16667 11.1 7L11.7 4H15.7L16.3 7C16.7 7.16667 17.075 7.34167 17.425 7.525C17.775 7.70833 18.1333 7.93333 18.5 8.2L21.4 7.3L23.4 10.7L21.1 12.7C21.1667 13.1333 21.2 13.5667 21.2 14C21.2 14.4333 21.1667 14.8667 21.1 15.3L23.4 17.3L21.4 20.7L18.5 19.8C18.1333 20.0667 17.775 20.2917 17.425 20.475C17.075 20.6583 16.7 20.8333 16.3 21L15.7 24H11.7ZM13.7 18C14.8 18 15.7417 17.6083 16.525 16.825C17.3083 16.0417 17.7 15.1 17.7 14C17.7 12.9 17.3083 11.9583 16.525 11.175C15.7417 10.3917 14.8 10 13.7 10C12.6 10 11.6583 10.3917 10.875 11.175C10.0917 11.9583 9.7 12.9 9.7 14C9.7 15.1 10.0917 16.0417 10.875 16.825C11.6583 17.6083 12.6 18 13.7 18ZM29.6 46L28.7 41.8C28.1333 41.6 27.6083 41.3583 27.125 41.075C26.6417 40.7917 26.1667 40.4667 25.7 40.1L21.7 41.4L18.9 36.6L22.1 33.8C22.0333 33.2 22 32.6 22 32C22 31.4 22.0333 30.8 22.1 30.2L18.9 27.4L21.7 22.6L25.7 23.9C26.1667 23.5333 26.6417 23.2083 27.125 22.925C27.6083 22.6417 28.1333 22.4 28.7 22.2L29.6 18H35.2L36.1 22.2C36.6667 22.4 37.1917 22.6417 37.675 22.925C38.1583 23.2083 38.6333 23.5333 39.1 23.9L43.1 22.6L45.9 27.4L42.7 30.2C42.7667 30.8 42.8 31.4 42.8 32C42.8 32.6 42.7667 33.2 42.7 33.8L45.9 36.6L43.1 41.4L39.1 40.1C38.6333 40.4667 38.1583 40.7917 37.675 41.075C37.1917 41.3583 36.6667 41.6 36.1 41.8L35.2 46H29.6ZM32.4 38C34.0667 38 35.4833 37.4167 36.65 36.25C37.8167 35.0833 38.4 33.6667 38.4 32C38.4 30.3333 37.8167 28.9167 36.65 27.75C35.4833 26.5833 34.0667 26 32.4 26C30.7333 26 29.3167 26.5833 28.15 27.75C26.9833 28.9167 26.4 30.3333 26.4 32C26.4 33.6667 26.9833 35.0833 28.15 36.25C29.3167 37.4167 30.7333 38 32.4 38Z" fill="#00954A"/>
</g>
</g>
</svg>
