<svg width="24" height="24" viewBox="0 0 24 24" fill="none" xmlns="http://www.w3.org/2000/svg">
<g id="mic_double">
<mask id="mask0_149_4850" style="mask-type:alpha" maskUnits="userSpaceOnUse" x="0" y="0" width="24" height="24">
<rect id="Bounding box" width="24" height="24" fill="#D9D9D9"/>
</mask>
<g mask="url(#mask0_149_4850)">
<path id="mic_double_2" d="M7.36551 20.75V17.4538C5.71551 17.2653 4.34468 16.5576 3.25301 15.3307C2.16134 14.1037 1.61551 12.6602 1.61551 11H3.11551C3.11551 12.3833 3.60301 13.5625 4.57801 14.5375C5.55301 15.5125 6.73218 16 8.11551 16C8.22234 16 8.32918 15.9984 8.43601 15.9952C8.54284 15.9921 8.64751 15.9789 8.75001 15.9557C8.91534 16.1994 9.09259 16.4302 9.28176 16.648C9.47093 16.866 9.66868 17.0712 9.87501 17.2635C9.70834 17.307 9.54426 17.3428 9.38276 17.371C9.22109 17.3993 9.04859 17.4269 8.86526 17.4538V20.75H7.36551ZM7.55776 13.421C6.99493 13.2877 6.53051 13.0023 6.16451 12.565C5.79851 12.1275 5.61551 11.6058 5.61551 11V5C5.61551 4.30133 5.85751 3.71 6.34151 3.226C6.82534 2.742 7.41668 2.5 8.11551 2.5C8.81418 2.5 9.40551 2.742 9.88951 3.226C10.3733 3.71 10.6153 4.30133 10.6153 5V8.80775H7.19226V11C7.19226 11.424 7.22276 11.8378 7.28376 12.2413C7.34459 12.6447 7.43593 13.038 7.55776 13.421ZM15.8845 13.5C15.1858 13.5 14.5945 13.258 14.1105 12.774C13.6267 12.29 13.3848 11.6987 13.3848 11V5C13.3848 4.30133 13.6267 3.71 14.1105 3.226C14.5945 2.742 15.1858 2.5 15.8845 2.5C16.5833 2.5 17.1747 2.742 17.6585 3.226C18.1425 3.71 18.3845 4.30133 18.3845 5V11C18.3845 11.6987 18.1425 12.29 17.6585 12.774C17.1747 13.258 16.5833 13.5 15.8845 13.5ZM15.1348 20.75V17.4538C13.4848 17.2653 12.1139 16.5576 11.0223 15.3307C9.93059 14.1037 9.38476 12.6602 9.38476 11H10.8845C10.8845 12.3833 11.372 13.5625 12.347 14.5375C13.322 15.5125 14.5012 16 15.8845 16C17.2678 16 18.447 15.5125 19.422 14.5375C20.397 13.5625 20.8845 12.3833 20.8845 11H22.3845C22.3845 12.6602 21.8387 14.1037 20.747 15.3307C19.6553 16.5576 18.2845 17.2653 16.6345 17.4538V20.75H15.1348ZM15.8845 12C16.1678 12 16.4053 11.9042 16.597 11.7125C16.7887 11.5208 16.8845 11.2833 16.8845 11V5C16.8845 4.71667 16.7887 4.47917 16.597 4.2875C16.4053 4.09583 16.1678 4 15.8845 4C15.6012 4 15.3637 4.09583 15.172 4.2875C14.9803 4.47917 14.8845 4.71667 14.8845 5V11C14.8845 11.2833 14.9803 11.5208 15.172 11.7125C15.3637 11.9042 15.6012 12 15.8845 12Z" fill="#1C1B1F"/>
</g>
</g>
</svg>
