<svg width="574" height="511" viewBox="0 0 574 511" fill="none" xmlns="http://www.w3.org/2000/svg">
<path d="M18.6673 494.519L13.1237 510.189L0.876276 497.941L16.5459 492.398L18.6673 494.519ZM252.5 257.065C253.328 257.065 254 257.737 254 258.565V272.065C254 272.893 253.328 273.565 252.5 273.565C251.672 273.565 251 272.893 251 272.065V260.065H239C238.172 260.065 237.5 259.393 237.5 258.565C237.5 257.737 238.172 257.065 239 257.065H252.5ZM15.4853 493.458L251.439 257.504L253.561 259.626L17.6066 495.58L15.4853 493.458Z" fill="#96D300"/>
<path d="M83.6673 494.519L78.1237 510.189L65.8763 497.941L81.5459 492.398L83.6673 494.519ZM317.5 257.065C318.328 257.065 319 257.737 319 258.565V272.065C319 272.893 318.328 273.565 317.5 273.565C316.672 273.565 316 272.893 316 272.065V260.065H304C303.172 260.065 302.5 259.393 302.5 258.565C302.5 257.737 303.172 257.065 304 257.065H317.5ZM80.4853 493.458L316.439 257.504L318.561 259.626L82.6066 495.58L80.4853 493.458Z" fill="#96D300"/>
<path d="M148.667 494.519L143.124 510.189L130.876 497.941L146.546 492.398L148.667 494.519ZM382.5 257.065C383.328 257.065 384 257.737 384 258.565V272.065C384 272.893 383.328 273.565 382.5 273.565C381.672 273.565 381 272.893 381 272.065V260.065H369C368.172 260.065 367.5 259.393 367.5 258.565C367.5 257.737 368.172 257.065 369 257.065H382.5ZM145.485 493.458L381.439 257.504L383.561 259.626L147.607 495.58L145.485 493.458Z" fill="#96D300"/>
<path d="M337.741 238.385L332.198 254.055L319.95 241.808L335.62 236.264L337.741 238.385ZM571.574 0.931396C572.403 0.931396 573.074 1.60297 573.074 2.4314V15.9314C573.074 16.7598 572.403 17.4314 571.574 17.4314C570.746 17.4314 570.074 16.7598 570.074 15.9314V3.9314H558.074C557.246 3.9314 556.574 3.25982 556.574 2.4314C556.574 1.60297 557.246 0.931396 558.074 0.931396H571.574ZM334.559 237.325L570.514 1.37074L572.635 3.49206L336.681 239.446L334.559 237.325Z" fill="#96D300"/>
<path d="M272.593 237.653L267.049 253.322L254.802 241.075L270.471 235.531L272.593 237.653ZM506.425 0.198486C507.254 0.198486 507.925 0.870059 507.925 1.69849V15.1985C507.925 16.0269 507.254 16.6985 506.425 16.6985C505.597 16.6985 504.925 16.0269 504.925 15.1985V3.19849H492.925C492.097 3.19849 491.425 2.52691 491.425 1.69849C491.425 0.870059 492.097 0.198486 492.925 0.198486H506.425ZM269.411 236.592L505.365 0.637826L507.486 2.75915L271.532 238.713L269.411 236.592Z" fill="#96D300"/>
</svg>
