<svg width="86" height="86" viewBox="0 0 86 86" fill="none" xmlns="http://www.w3.org/2000/svg">
<g id="Group 2">
<circle id="Ellipse 112" cx="43" cy="43" r="25" fill="white"/>
<g id="play_circle">
<mask id="mask0_77_153" style="mask-type:alpha" maskUnits="userSpaceOnUse" x="0" y="0" width="86" height="86">
<rect id="Bounding box" width="86" height="86" fill="#D9D9D9"/>
</mask>
<g mask="url(#mask0_77_153)">
<path id="play_circle_2" d="M34.9375 57.4713L57.4713 43L34.9375 28.5288V57.4713ZM43.0063 77.0417C38.2978 77.0417 33.872 76.1483 29.7291 74.3614C25.5862 72.5745 21.9825 70.1495 18.9182 67.0863C15.8538 64.0232 13.4276 60.421 11.6395 56.2799C9.85206 52.1387 8.95831 47.7142 8.95831 43.0063C8.95831 38.2978 9.85176 33.8721 11.6386 29.7292C13.4255 25.5862 15.8506 21.9826 18.9137 18.9182C21.9769 15.8539 25.579 13.4277 29.7201 11.6396C33.8613 9.85212 38.2858 8.95837 42.9937 8.95837C47.7022 8.95837 52.1279 9.85182 56.2709 11.6387C60.4138 13.4256 64.0174 15.8506 67.0818 18.9138C70.1461 21.9769 72.5723 25.5791 74.3604 29.7202C76.1479 33.8613 77.0416 38.2859 77.0416 42.9938C77.0416 47.7023 76.1482 52.128 74.3613 56.2709C72.5744 60.4139 70.1494 64.0175 67.0863 67.0818C64.0231 70.1462 60.421 72.5724 56.2798 74.3605C52.1387 76.148 47.7142 77.0417 43.0063 77.0417Z" fill="#E32128"/>
</g>
</g>
</g>
</svg>
