<svg width="48" height="48" viewBox="0 0 48 48" fill="none" xmlns="http://www.w3.org/2000/svg">
<g id="play_circle">
<mask id="mask0_391_1378" style="mask-type:alpha" maskUnits="userSpaceOnUse" x="0" y="0" width="48" height="48">
<rect id="Bounding box" width="48" height="48" fill="#D9D9D9"/>
</mask>
<g mask="url(#mask0_391_1378)">
<path id="play_circle_2" d="M19.0039 33L33.0039 24L19.0039 15V33ZM24.0039 44C21.2372 44 18.6372 43.475 16.2039 42.425C13.7706 41.375 11.6539 39.95 9.85391 38.15C8.05391 36.35 6.62891 34.2333 5.57891 31.8C4.52891 29.3667 4.00391 26.7667 4.00391 24C4.00391 21.2333 4.52891 18.6333 5.57891 16.2C6.62891 13.7667 8.05391 11.65 9.85391 9.85C11.6539 8.05 13.7706 6.625 16.2039 5.575C18.6372 4.525 21.2372 4 24.0039 4C26.7706 4 29.3706 4.525 31.8039 5.575C34.2373 6.625 36.3539 8.05 38.1539 9.85C39.9539 11.65 41.3789 13.7667 42.4289 16.2C43.4789 18.6333 44.0039 21.2333 44.0039 24C44.0039 26.7667 43.4789 29.3667 42.4289 31.8C41.3789 34.2333 39.9539 36.35 38.1539 38.15C36.3539 39.95 34.2373 41.375 31.8039 42.425C29.3706 43.475 26.7706 44 24.0039 44ZM24.0039 40C28.4706 40 32.2539 38.45 35.3539 35.35C38.4539 32.25 40.0039 28.4667 40.0039 24C40.0039 19.5333 38.4539 15.75 35.3539 12.65C32.2539 9.55 28.4706 8 24.0039 8C19.5372 8 15.7539 9.55 12.6539 12.65C9.55391 15.75 8.00391 19.5333 8.00391 24C8.00391 28.4667 9.55391 32.25 12.6539 35.35C15.7539 38.45 19.5372 40 24.0039 40Z" fill="white"/>
</g>
</g>
</svg>
