<svg width="557" height="414" viewBox="0 0 557 414" fill="none" xmlns="http://www.w3.org/2000/svg">
<path d="M366.893 170.904V168.257H374.566L372.905 166.727C370.671 164.803 369.031 162.731 367.985 160.51C366.94 158.289 366.417 155.851 366.417 153.198C366.417 149.315 367.539 145.802 369.782 142.658C372.026 139.514 374.996 137.289 378.694 135.985V138.727C375.792 139.929 373.462 141.851 371.703 144.491C369.944 147.13 369.064 150.033 369.064 153.198C369.064 155.543 369.503 157.631 370.379 159.462C371.256 161.293 372.479 162.907 374.05 164.304L376.383 166.269V158.767H379.03V170.904H366.893ZM390.343 170.052V167.274C393.283 166.072 395.617 164.15 397.345 161.51C399.072 158.87 399.936 155.968 399.936 152.803C399.936 150.891 399.498 148.973 398.621 147.048C397.745 145.123 396.553 143.407 395.045 141.899L392.748 139.732V147.234H390.064V135.097H402.202V137.744H394.529L396.167 139.368C398.321 141.412 399.929 143.607 400.991 145.953C402.053 148.3 402.584 150.583 402.584 152.803C402.584 156.686 401.468 160.205 399.236 163.361C397.005 166.517 394.04 168.747 390.343 170.052Z" fill="#0F954C"/>
<rect y="32" width="259" height="319" rx="7" fill="#EAEDD6"/>
<rect x="15" y="112" width="229" height="56" rx="3" fill="#004D26"/>
<rect x="15" y="168" width="229" height="56" rx="3" fill="#EAEDD6"/>
<rect x="15" y="224" width="229" height="56" rx="3" fill="#EAEDD6"/>
<rect x="15" y="280" width="229" height="56" rx="3" fill="#EAEDD6"/>
<rect x="30" y="122" width="36" height="36" rx="3" fill="#00954A"/>
<rect x="30" y="178" width="36" height="36" rx="3" fill="#00954A"/>
<rect x="30" y="234" width="36" height="36" rx="3" fill="#00954A"/>
<rect x="30" y="290" width="36" height="36" rx="3" fill="#00954A"/>
<path d="M42.7253 313.542C42.494 313.542 42.2737 313.434 42.0643 313.219C41.855 313.004 41.7503 312.778 41.7503 312.54V310.563H54.7607L55.1045 310.906V301.5H57.1252C57.3565 301.5 57.574 301.608 57.7778 301.823C57.9817 302.037 58.0836 302.27 58.0836 302.519V317.358L54.2669 313.542H42.7253ZM37.917 312.625V298.711C37.917 298.472 38.0189 298.246 38.2227 298.031C38.4265 297.816 38.6441 297.708 38.8753 297.708H52.3586C52.601 297.708 52.8241 297.813 53.0279 298.023C53.2317 298.232 53.3336 298.461 53.3336 298.711V307.79C53.3336 308.028 53.2317 308.254 53.0279 308.469C52.8241 308.684 52.601 308.792 52.3586 308.792H41.7503L37.917 312.625Z" fill="#EAEDD6"/>
<path d="M80.35 145.5H74.176V135.378H80.35V136.638H75.548V139.802H79.874V141.02H75.548V144.226H80.35V145.5ZM83.7101 145.5H82.3381V135.378H86.1601C88.3301 135.378 89.6181 136.526 89.6181 138.416C89.6181 139.816 88.9181 140.824 87.6581 141.23L89.7161 145.5H88.1901L86.3001 141.496H83.7101V145.5ZM83.7101 136.61V140.278H86.1741C87.4481 140.278 88.1761 139.592 88.1761 138.43C88.1761 137.254 87.4201 136.61 86.1601 136.61H83.7101ZM95.4323 141.888H92.8703V145.5H91.4983V135.378H95.4323C97.4203 135.378 98.6943 136.68 98.6943 138.626C98.6943 140.516 97.4063 141.888 95.4323 141.888ZM95.1943 136.61H92.8703V140.656H95.1383C96.4963 140.656 97.2523 139.858 97.2523 138.612C97.2523 137.338 96.4823 136.61 95.1943 136.61ZM99.6907 145.5H98.3887L102.337 135.392H103.653L99.6907 145.5ZM104.278 145.5H102.85L106.546 135.378H108.072L111.782 145.5H110.34L109.43 142.98H105.174L104.278 145.5ZM107.134 137.562L105.594 141.79H109.024L107.47 137.562C107.4 137.366 107.33 137.128 107.302 136.974C107.274 137.114 107.204 137.352 107.134 137.562ZM112.195 142.084C112.195 139.942 113.553 138.458 115.555 138.458C117.277 138.458 118.481 139.438 118.719 140.964H117.403C117.179 140.096 116.479 139.634 115.597 139.634C114.351 139.634 113.497 140.586 113.497 142.07C113.497 143.54 114.295 144.492 115.541 144.492C116.479 144.492 117.179 144.002 117.417 143.19H118.733C118.467 144.674 117.193 145.668 115.541 145.668C113.525 145.668 112.195 144.24 112.195 142.084ZM119.674 142.084C119.674 139.942 121.032 138.458 123.034 138.458C124.756 138.458 125.96 139.438 126.198 140.964H124.882C124.658 140.096 123.958 139.634 123.076 139.634C121.83 139.634 120.976 140.586 120.976 142.07C120.976 143.54 121.774 144.492 123.02 144.492C123.958 144.492 124.658 144.002 124.896 143.19H126.212C125.946 144.674 124.672 145.668 123.02 145.668C121.004 145.668 119.674 144.24 119.674 142.084ZM127.152 142.07C127.152 139.956 128.664 138.472 130.722 138.472C132.766 138.472 134.278 139.956 134.278 142.07C134.278 144.184 132.766 145.668 130.722 145.668C128.664 145.668 127.152 144.184 127.152 142.07ZM128.482 142.07C128.482 143.498 129.392 144.492 130.722 144.492C132.038 144.492 132.962 143.498 132.962 142.07C132.962 140.642 132.038 139.648 130.722 139.648C129.392 139.648 128.482 140.642 128.482 142.07ZM140.303 138.654H141.605V145.5H140.429L140.289 144.464C139.897 145.178 138.987 145.668 137.979 145.668C136.383 145.668 135.487 144.59 135.487 142.91V138.654H136.803V142.476C136.803 143.946 137.433 144.506 138.441 144.506C139.645 144.506 140.303 143.736 140.303 142.266V138.654ZM144.831 145.5H143.515V138.654H144.705L144.845 139.704C145.279 138.92 146.147 138.458 147.113 138.458C148.919 138.458 149.745 139.564 149.745 141.314V145.5H148.429V141.608C148.429 140.222 147.785 139.662 146.777 139.662C145.545 139.662 144.831 140.544 144.831 141.874V145.5ZM153.499 145.5H152.183V139.76H150.839V138.654H152.183V136.512H153.499V138.654H154.843V139.76H153.499V145.5ZM156.668 137.03C156.192 137.03 155.8 136.638 155.8 136.162C155.8 135.672 156.192 135.294 156.668 135.294C157.144 135.294 157.536 135.672 157.536 136.162C157.536 136.638 157.144 137.03 156.668 137.03ZM156.024 145.5V138.654H157.34V145.5H156.024ZM160.567 145.5H159.251V138.654H160.441L160.581 139.704C161.015 138.92 161.883 138.458 162.849 138.458C164.655 138.458 165.481 139.564 165.481 141.314V145.5H164.165V141.608C164.165 140.222 163.521 139.662 162.513 139.662C161.281 139.662 160.567 140.544 160.567 141.874V145.5ZM166.87 141.902C166.87 139.97 168.116 138.458 170.104 138.458C171.21 138.458 172.064 138.962 172.498 139.816L172.596 138.654H173.772V145.22C173.772 147.376 172.442 148.748 170.342 148.748C168.48 148.748 167.206 147.698 166.954 145.962H168.27C168.438 146.97 169.194 147.558 170.342 147.558C171.63 147.558 172.47 146.718 172.47 145.416V144.044C172.022 144.842 171.126 145.318 170.048 145.318C168.102 145.318 166.87 143.82 166.87 141.902ZM168.186 141.874C168.186 143.162 168.984 144.17 170.272 144.17C171.602 144.17 172.414 143.218 172.414 141.874C172.414 140.558 171.63 139.606 170.286 139.606C168.97 139.606 168.186 140.614 168.186 141.874Z" fill="#EAEDD6"/>
<path d="M78.11 197.888H75.548V201.5H74.176V191.378H78.11C80.098 191.378 81.372 192.68 81.372 194.626C81.372 196.516 80.084 197.888 78.11 197.888ZM77.872 192.61H75.548V196.656H77.816C79.174 196.656 79.93 195.858 79.93 194.612C79.93 193.338 79.16 192.61 77.872 192.61ZM84.4306 201.668C82.9606 201.668 82.0926 200.842 82.0926 199.596C82.0926 198.336 83.0306 197.552 84.6406 197.426L86.7966 197.258V197.062C86.7966 195.914 86.1106 195.508 85.1866 195.508C84.0806 195.508 83.4506 195.998 83.4506 196.824H82.3026C82.3026 195.396 83.4786 194.458 85.2426 194.458C86.9366 194.458 88.0846 195.354 88.0846 197.202V201.5H86.9646L86.8246 200.394C86.4746 201.178 85.5366 201.668 84.4306 201.668ZM84.8086 200.646C86.0546 200.646 86.8106 199.834 86.8106 198.546V198.182L85.0606 198.322C83.8986 198.434 83.4226 198.882 83.4226 199.554C83.4226 200.282 83.9546 200.646 84.8086 200.646ZM89.085 204.566V203.488H89.967C90.597 203.488 91.101 203.39 91.423 202.522L91.661 201.864L88.903 194.654H90.289L92.277 200.17L94.307 194.654H95.665L92.431 203.04C91.969 204.216 91.283 204.706 90.233 204.706C89.799 204.706 89.435 204.65 89.085 204.566ZM98.0317 201.5H96.7157V194.654H97.8917L98.0177 195.55C98.3677 194.906 99.0957 194.458 100.062 194.458C101.126 194.458 101.882 194.99 102.232 195.844C102.554 194.99 103.38 194.458 104.444 194.458C106.012 194.458 106.964 195.438 106.964 197.02V201.5H105.676V197.342C105.676 196.264 105.074 195.648 104.15 195.648C103.156 195.648 102.498 196.348 102.498 197.44V201.5H101.196V197.328C101.196 196.25 100.608 195.662 99.6837 195.662C98.6897 195.662 98.0317 196.348 98.0317 197.44V201.5ZM111.742 201.668C109.726 201.668 108.34 200.212 108.34 198.084C108.34 195.942 109.698 194.458 111.686 194.458C113.632 194.458 114.906 195.802 114.906 197.832V198.322L109.614 198.336C109.712 199.778 110.468 200.576 111.77 200.576C112.792 200.576 113.464 200.156 113.688 199.372H114.92C114.584 200.842 113.436 201.668 111.742 201.668ZM111.686 195.564C110.538 195.564 109.81 196.25 109.642 197.454H113.59C113.59 196.32 112.848 195.564 111.686 195.564ZM117.692 201.5H116.376V194.654H117.566L117.706 195.704C118.14 194.92 119.008 194.458 119.974 194.458C121.78 194.458 122.606 195.564 122.606 197.314V201.5H121.29V197.608C121.29 196.222 120.646 195.662 119.638 195.662C118.406 195.662 117.692 196.544 117.692 197.874V201.5ZM126.361 201.5H125.045V195.76H123.701V194.654H125.045V192.512H126.361V194.654H127.705V195.76H126.361V201.5ZM128.326 199.512H129.586C129.586 200.212 130.118 200.632 130.986 200.632C131.91 200.632 132.442 200.254 132.442 199.624C132.442 199.162 132.218 198.882 131.504 198.7L130.3 198.42C129.082 198.126 128.508 197.524 128.508 196.516C128.508 195.256 129.572 194.458 131.084 194.458C132.582 194.458 133.562 195.298 133.59 196.6H132.33C132.302 195.914 131.84 195.48 131.042 195.48C130.216 195.48 129.754 195.844 129.754 196.474C129.754 196.936 130.09 197.244 130.762 197.412L131.966 197.706C133.128 197.986 133.702 198.518 133.702 199.54C133.702 200.842 132.582 201.668 130.958 201.668C129.348 201.668 128.326 200.814 128.326 199.512Z" fill="#192104"/>
<path d="M78.376 257.654C75.492 257.654 73.574 255.582 73.574 252.446C73.574 249.324 75.548 247.21 78.446 247.21C80.728 247.21 82.478 248.568 82.856 250.64H81.386C81.008 249.324 79.874 248.526 78.404 248.526C76.36 248.526 75.016 250.066 75.016 252.432C75.016 254.798 76.36 256.338 78.404 256.338C79.888 256.338 81.064 255.54 81.442 254.294H82.898C82.464 256.31 80.658 257.654 78.376 257.654ZM85.9523 257.5H84.5803V247.378H88.4023C90.5723 247.378 91.8603 248.526 91.8603 250.416C91.8603 251.816 91.1603 252.824 89.9003 253.23L91.9583 257.5H90.4323L88.5423 253.496H85.9523V257.5ZM85.9523 248.61V252.278H88.4163C89.6903 252.278 90.4183 251.592 90.4183 250.43C90.4183 249.254 89.6623 248.61 88.4023 248.61H85.9523ZM95.0845 257.5H93.7405V247.378H95.0845L98.5705 255.89L102.056 247.378H103.428V257.5H102.084V253.496C102.084 251.606 102.098 250.92 102.168 250.206L99.2145 257.5H97.9265L94.9865 250.234C95.0565 250.724 95.0845 251.76 95.0845 253.174V257.5Z" fill="#192104"/>
<path d="M78.376 313.654C75.492 313.654 73.574 311.582 73.574 308.446C73.574 305.324 75.548 303.21 78.446 303.21C80.728 303.21 82.478 304.568 82.856 306.64H81.386C81.008 305.324 79.874 304.526 78.404 304.526C76.36 304.526 75.016 306.066 75.016 308.432C75.016 310.798 76.36 312.338 78.404 312.338C79.888 312.338 81.064 311.54 81.442 310.294H82.898C82.464 312.31 80.658 313.654 78.376 313.654ZM83.9083 310.07C83.9083 307.956 85.4203 306.472 87.4783 306.472C89.5223 306.472 91.0343 307.956 91.0343 310.07C91.0343 312.184 89.5223 313.668 87.4783 313.668C85.4203 313.668 83.9083 312.184 83.9083 310.07ZM85.2383 310.07C85.2383 311.498 86.1483 312.492 87.4783 312.492C88.7943 312.492 89.7183 311.498 89.7183 310.07C89.7183 308.642 88.7943 307.648 87.4783 307.648C86.1483 307.648 85.2383 308.642 85.2383 310.07ZM93.8071 313.5H92.4911V306.654H93.6671L93.7931 307.55C94.1431 306.906 94.8711 306.458 95.8371 306.458C96.9011 306.458 97.6571 306.99 98.0071 307.844C98.3291 306.99 99.1551 306.458 100.219 306.458C101.787 306.458 102.739 307.438 102.739 309.02V313.5H101.451V309.342C101.451 308.264 100.849 307.648 99.9251 307.648C98.9311 307.648 98.2731 308.348 98.2731 309.44V313.5H96.9711V309.328C96.9711 308.25 96.3831 307.662 95.4591 307.662C94.4651 307.662 93.8071 308.348 93.8071 309.44V313.5ZM105.879 313.5H104.563V306.654H105.739L105.865 307.55C106.215 306.906 106.943 306.458 107.909 306.458C108.973 306.458 109.729 306.99 110.079 307.844C110.401 306.99 111.227 306.458 112.291 306.458C113.859 306.458 114.811 307.438 114.811 309.02V313.5H113.523V309.342C113.523 308.264 112.921 307.648 111.997 307.648C111.003 307.648 110.345 308.348 110.345 309.44V313.5H109.043V309.328C109.043 308.25 108.455 307.662 107.531 307.662C106.537 307.662 105.879 308.348 105.879 309.44V313.5ZM121.368 306.654H122.67V313.5H121.494L121.354 312.464C120.962 313.178 120.052 313.668 119.044 313.668C117.448 313.668 116.552 312.59 116.552 310.91V306.654H117.868V310.476C117.868 311.946 118.498 312.506 119.506 312.506C120.71 312.506 121.368 311.736 121.368 310.266V306.654ZM125.895 313.5H124.579V306.654H125.769L125.909 307.704C126.343 306.92 127.211 306.458 128.177 306.458C129.983 306.458 130.809 307.564 130.809 309.314V313.5H129.493V309.608C129.493 308.222 128.849 307.662 127.841 307.662C126.609 307.662 125.895 308.544 125.895 309.874V313.5ZM133.276 305.03C132.8 305.03 132.408 304.638 132.408 304.162C132.408 303.672 132.8 303.294 133.276 303.294C133.752 303.294 134.144 303.672 134.144 304.162C134.144 304.638 133.752 305.03 133.276 305.03ZM132.632 313.5V306.654H133.948V313.5H132.632ZM135.41 310.084C135.41 307.942 136.768 306.458 138.77 306.458C140.492 306.458 141.696 307.438 141.934 308.964H140.618C140.394 308.096 139.694 307.634 138.812 307.634C137.566 307.634 136.712 308.586 136.712 310.07C136.712 311.54 137.51 312.492 138.756 312.492C139.694 312.492 140.394 312.002 140.632 311.19H141.948C141.682 312.674 140.408 313.668 138.756 313.668C136.74 313.668 135.41 312.24 135.41 310.084ZM145.339 313.668C143.869 313.668 143.001 312.842 143.001 311.596C143.001 310.336 143.939 309.552 145.549 309.426L147.705 309.258V309.062C147.705 307.914 147.019 307.508 146.095 307.508C144.989 307.508 144.359 307.998 144.359 308.824H143.211C143.211 307.396 144.387 306.458 146.151 306.458C147.845 306.458 148.993 307.354 148.993 309.202V313.5H147.873L147.733 312.394C147.383 313.178 146.445 313.668 145.339 313.668ZM145.717 312.646C146.963 312.646 147.719 311.834 147.719 310.546V310.182L145.969 310.322C144.807 310.434 144.331 310.882 144.331 311.554C144.331 312.282 144.863 312.646 145.717 312.646ZM152.638 313.5H151.322V307.76H149.978V306.654H151.322V304.512H152.638V306.654H153.982V307.76H152.638V313.5ZM155.807 305.03C155.331 305.03 154.939 304.638 154.939 304.162C154.939 303.672 155.331 303.294 155.807 303.294C156.283 303.294 156.675 303.672 156.675 304.162C156.675 304.638 156.283 305.03 155.807 305.03ZM155.163 313.5V306.654H156.479V313.5H155.163ZM157.942 310.07C157.942 307.956 159.454 306.472 161.512 306.472C163.556 306.472 165.068 307.956 165.068 310.07C165.068 312.184 163.556 313.668 161.512 313.668C159.454 313.668 157.942 312.184 157.942 310.07ZM159.272 310.07C159.272 311.498 160.182 312.492 161.512 312.492C162.828 312.492 163.752 311.498 163.752 310.07C163.752 308.642 162.828 307.648 161.512 307.648C160.182 307.648 159.272 308.642 159.272 310.07ZM167.84 313.5H166.524V306.654H167.714L167.854 307.704C168.288 306.92 169.156 306.458 170.122 306.458C171.928 306.458 172.754 307.564 172.754 309.314V313.5H171.438V309.608C171.438 308.222 170.794 307.662 169.786 307.662C168.554 307.662 167.84 308.544 167.84 309.874V313.5ZM173.935 311.512H175.195C175.195 312.212 175.727 312.632 176.595 312.632C177.519 312.632 178.051 312.254 178.051 311.624C178.051 311.162 177.827 310.882 177.113 310.7L175.909 310.42C174.691 310.126 174.117 309.524 174.117 308.516C174.117 307.256 175.181 306.458 176.693 306.458C178.191 306.458 179.171 307.298 179.199 308.6H177.939C177.911 307.914 177.449 307.48 176.651 307.48C175.825 307.48 175.363 307.844 175.363 308.474C175.363 308.936 175.699 309.244 176.371 309.412L177.575 309.706C178.737 309.986 179.311 310.518 179.311 311.54C179.311 312.842 178.191 313.668 176.567 313.668C174.957 313.668 173.935 312.814 173.935 311.512Z" fill="#192104"/>
<path d="M216.203 144.944L215.503 144.244L219.747 139.978L215.503 135.735L216.203 135.013L221.169 139.978L216.203 144.944Z" fill="#EAEDD6"/>
<path d="M216.203 200.944L215.503 200.244L219.747 195.978L215.503 191.735L216.203 191.013L221.169 195.978L216.203 200.944Z" fill="#192104"/>
<path d="M216.203 256.944L215.503 256.244L219.747 251.978L215.503 247.735L216.203 247.013L221.169 251.978L216.203 256.944Z" fill="#192104"/>
<path d="M216.203 312.944L215.503 312.244L219.747 307.978L215.503 303.735L216.203 303.013L221.169 307.978L216.203 312.944Z" fill="#192104"/>
<circle cx="17.9655" cy="48.0007" r="4.96552" fill="#192104"/>
<circle cx="30.9997" cy="48.0007" r="4.96552" fill="#192104"/>
<circle cx="44.0349" cy="48.0007" r="4.96552" fill="#192104"/>
<path d="M16.762 73.842V87H14.458V73.842H16.762ZM21.5507 87H19.3547V78.108H21.3887L21.5687 79.26C22.1267 78.36 23.2067 77.838 24.4127 77.838C26.6447 77.838 27.7967 79.224 27.7967 81.528V87H25.6007V82.05C25.6007 80.556 24.8627 79.836 23.7287 79.836C22.3787 79.836 21.5507 80.772 21.5507 82.212V87ZM32.9783 87H30.7823V79.944H29.0723V78.108H30.7823V75.336H32.9783V78.108H34.7063V79.944H32.9783V87ZM39.9616 87.234C37.3156 87.234 35.4616 85.308 35.4616 82.554C35.4616 79.764 37.2796 77.838 39.8896 77.838C42.5536 77.838 44.2456 79.62 44.2456 82.392V83.058L37.5496 83.076C37.7116 84.642 38.5396 85.434 39.9976 85.434C41.2036 85.434 41.9956 84.966 42.2476 84.12H44.2816C43.9036 86.064 42.2836 87.234 39.9616 87.234ZM39.9076 79.638C38.6116 79.638 37.8196 80.34 37.6036 81.672H42.0676C42.0676 80.448 41.2216 79.638 39.9076 79.638ZM45.4991 82.356C45.4991 79.764 47.1911 77.82 49.7291 77.82C51.0611 77.82 52.1051 78.378 52.6271 79.332L52.7531 78.108H54.7871V86.55C54.7871 89.52 53.0051 91.374 50.1251 91.374C47.5691 91.374 45.8231 89.916 45.5531 87.54H47.7491C47.8931 88.692 48.7751 89.376 50.1251 89.376C51.6371 89.376 52.6091 88.422 52.6091 86.946V85.47C52.0511 86.298 50.9531 86.82 49.6751 86.82C47.1551 86.82 45.4991 84.93 45.4991 82.356ZM47.7131 82.302C47.7131 83.796 48.6671 84.912 50.1071 84.912C51.6191 84.912 52.5551 83.85 52.5551 82.302C52.5551 80.79 51.6371 79.746 50.1071 79.746C48.6491 79.746 47.7131 80.844 47.7131 82.302ZM62.6398 78.072V80.106H61.8298C60.2458 80.106 59.2558 80.952 59.2558 82.68V87H57.0598V78.126H59.1298L59.2558 79.422C59.6338 78.54 60.4798 77.946 61.6678 77.946C61.9738 77.946 62.2798 77.982 62.6398 78.072ZM66.4206 87.234C64.5306 87.234 63.3786 86.136 63.3786 84.462C63.3786 82.824 64.5666 81.798 66.6726 81.636L69.3366 81.438V81.24C69.3366 80.034 68.6166 79.548 67.5006 79.548C66.2046 79.548 65.4846 80.088 65.4846 81.024H63.6126C63.6126 79.098 65.1966 77.838 67.6086 77.838C70.0026 77.838 71.4786 79.134 71.4786 81.6V87H69.5526L69.3906 85.686C69.0126 86.604 67.8066 87.234 66.4206 87.234ZM67.1406 85.578C68.4906 85.578 69.3546 84.768 69.3546 83.4V82.932L67.5006 83.076C66.1326 83.202 65.6106 83.652 65.6106 84.372C65.6106 85.182 66.1506 85.578 67.1406 85.578ZM76.5369 87H74.3409V79.944H72.6309V78.108H74.3409V75.336H76.5369V78.108H78.2649V79.944H76.5369V87ZM80.7281 76.326C79.9721 76.326 79.3781 75.732 79.3781 74.994C79.3781 74.256 79.9721 73.68 80.7281 73.68C81.4481 73.68 82.0421 74.256 82.0421 74.994C82.0421 75.732 81.4481 76.326 80.7281 76.326ZM79.6301 87V78.108H81.8261V87H79.6301ZM83.5729 82.536C83.5729 79.764 85.5709 77.856 88.3249 77.856C91.0789 77.856 93.0769 79.764 93.0769 82.536C93.0769 85.308 91.0789 87.216 88.3249 87.216C85.5709 87.216 83.5729 85.308 83.5729 82.536ZM85.7689 82.536C85.7689 84.156 86.8129 85.254 88.3249 85.254C89.8369 85.254 90.8809 84.156 90.8809 82.536C90.8809 80.916 89.8369 79.818 88.3249 79.818C86.8129 79.818 85.7689 80.916 85.7689 82.536ZM97.0136 87H94.8176V78.108H96.8516L97.0316 79.26C97.5896 78.36 98.6696 77.838 99.8756 77.838C102.108 77.838 103.26 79.224 103.26 81.528V87H101.064V82.05C101.064 80.556 100.326 79.836 99.1916 79.836C97.8416 79.836 97.0136 80.772 97.0136 82.212V87ZM104.628 84.3H106.716C106.734 85.074 107.31 85.56 108.318 85.56C109.344 85.56 109.902 85.146 109.902 84.498C109.902 84.048 109.668 83.724 108.876 83.544L107.274 83.166C105.672 82.806 104.898 82.05 104.898 80.628C104.898 78.882 106.374 77.838 108.426 77.838C110.424 77.838 111.774 78.99 111.792 80.718H109.704C109.686 79.962 109.182 79.476 108.336 79.476C107.472 79.476 106.968 79.872 106.968 80.538C106.968 81.042 107.364 81.366 108.12 81.546L109.722 81.924C111.216 82.266 111.972 82.95 111.972 84.318C111.972 86.118 110.442 87.234 108.246 87.234C106.032 87.234 104.628 86.046 104.628 84.3Z" fill="#192104"/>
<mask id="mask0_226_5059" style="mask-type:alpha" maskUnits="userSpaceOnUse" x="0" y="32" width="259" height="319">
<rect y="32" width="259" height="319" rx="7" fill="#EAEDD6"/>
</mask>
<g mask="url(#mask0_226_5059)">
<g filter="url(#filter0_f_226_5059)">
<rect x="101.5" y="214" width="158" height="134" rx="7" fill="#90945B"/>
</g>
</g>
<rect x="215" width="273" height="92" rx="7" fill="#00954A"/>
<path d="M305.16 41H304.008V32.324H305.16L308.148 39.62L311.136 32.324H312.312V41H311.16V37.568C311.16 35.948 311.172 35.36 311.232 34.748L308.7 41H307.596L305.076 34.772C305.136 35.192 305.16 36.08 305.16 37.292V41ZM318.196 35.132H319.312V41H318.304L318.184 40.112C317.848 40.724 317.068 41.144 316.204 41.144C314.836 41.144 314.068 40.22 314.068 38.78V35.132H315.196V38.408C315.196 39.668 315.736 40.148 316.6 40.148C317.632 40.148 318.196 39.488 318.196 38.228V35.132ZM322.101 41H320.973V32.168H322.101V41ZM325.417 41H324.289V36.08H323.137V35.132H324.289V33.296H325.417V35.132H326.569V36.08H325.417V41ZM328.134 33.74C327.726 33.74 327.39 33.404 327.39 32.996C327.39 32.576 327.726 32.252 328.134 32.252C328.542 32.252 328.878 32.576 328.878 32.996C328.878 33.404 328.542 33.74 328.134 33.74ZM327.582 41V35.132H328.71V41H327.582ZM330.347 43.628V35.132H331.367L331.451 36.188C331.847 35.384 332.639 34.964 333.575 34.964C335.255 34.964 336.299 36.224 336.299 38.024C336.299 39.812 335.315 41.156 333.575 41.156C332.639 41.156 331.859 40.76 331.475 40.04V43.628H330.347ZM331.487 38.072C331.487 39.272 332.183 40.136 333.335 40.136C334.487 40.136 335.171 39.272 335.171 38.072C335.171 36.86 334.487 35.996 333.335 35.996C332.183 35.996 331.487 36.848 331.487 38.072ZM338.695 41H337.567V32.168H338.695V41ZM342.887 41.144C341.159 41.144 339.971 39.896 339.971 38.072C339.971 36.236 341.135 34.964 342.839 34.964C344.507 34.964 345.599 36.116 345.599 37.856V38.276L341.063 38.288C341.147 39.524 341.795 40.208 342.911 40.208C343.787 40.208 344.363 39.848 344.555 39.176H345.611C345.323 40.436 344.339 41.144 342.887 41.144ZM342.839 35.912C341.855 35.912 341.231 36.5 341.087 37.532H344.471C344.471 36.56 343.835 35.912 342.839 35.912ZM353.704 37.904H351.508V41H350.332V32.324H353.704C355.408 32.324 356.5 33.44 356.5 35.108C356.5 36.728 355.396 37.904 353.704 37.904ZM353.5 33.38H351.508V36.848H353.452C354.616 36.848 355.264 36.164 355.264 35.096C355.264 34.004 354.604 33.38 353.5 33.38ZM358.792 41H357.664V32.168H358.792V41ZM362.169 41.144C360.909 41.144 360.165 40.436 360.165 39.368C360.165 38.288 360.969 37.616 362.349 37.508L364.197 37.364V37.196C364.197 36.212 363.609 35.864 362.817 35.864C361.869 35.864 361.329 36.284 361.329 36.992H360.345C360.345 35.768 361.353 34.964 362.865 34.964C364.317 34.964 365.301 35.732 365.301 37.316V41H364.341L364.221 40.052C363.921 40.724 363.117 41.144 362.169 41.144ZM362.493 40.268C363.561 40.268 364.209 39.572 364.209 38.468V38.156L362.709 38.276C361.713 38.372 361.305 38.756 361.305 39.332C361.305 39.956 361.761 40.268 362.493 40.268ZM368.425 41H367.297V36.08H366.145V35.132H367.297V33.296H368.425V35.132H369.577V36.08H368.425V41ZM370.071 35.132H370.935V34.196C370.935 32.756 371.727 32.168 372.795 32.168C373.011 32.168 373.263 32.18 373.491 32.216V33.188H372.987C372.255 33.188 372.063 33.56 372.063 34.196V35.132H373.455V36.08H372.063V41H370.935V36.08H370.071V35.132ZM373.944 38.06C373.944 36.248 375.24 34.976 377.004 34.976C378.756 34.976 380.052 36.248 380.052 38.06C380.052 39.872 378.756 41.144 377.004 41.144C375.24 41.144 373.944 39.872 373.944 38.06ZM375.084 38.06C375.084 39.284 375.864 40.136 377.004 40.136C378.132 40.136 378.924 39.284 378.924 38.06C378.924 36.836 378.132 35.984 377.004 35.984C375.864 35.984 375.084 36.836 375.084 38.06ZM384.66 35.084V36.116H384.156C383.088 36.116 382.428 36.764 382.428 37.892V41H381.3V35.144H382.356L382.428 36.032C382.668 35.42 383.256 35.012 384.06 35.012C384.264 35.012 384.432 35.036 384.66 35.084ZM386.846 41H385.718V35.132H386.726L386.834 35.9C387.134 35.348 387.758 34.964 388.586 34.964C389.498 34.964 390.146 35.42 390.446 36.152C390.722 35.42 391.43 34.964 392.342 34.964C393.686 34.964 394.502 35.804 394.502 37.16V41H393.398V37.436C393.398 36.512 392.882 35.984 392.09 35.984C391.238 35.984 390.674 36.584 390.674 37.52V41H389.558V37.424C389.558 36.5 389.054 35.996 388.262 35.996C387.41 35.996 386.846 36.584 386.846 37.52V41Z" fill="#F6F7F2"/>
<path d="M303.624 53.568C303.624 51.52 305.32 50.096 307.784 50.096C310.152 50.096 311.656 51.408 311.72 53.52H309.672C309.624 52.512 308.904 51.92 307.752 51.92C306.488 51.92 305.672 52.528 305.672 53.504C305.672 54.336 306.12 54.8 307.096 55.024L308.936 55.424C310.936 55.856 311.912 56.88 311.912 58.624C311.912 60.8 310.216 62.208 307.64 62.208C305.144 62.208 303.512 60.88 303.464 58.784H305.512C305.528 59.776 306.328 60.368 307.64 60.368C309 60.368 309.864 59.776 309.864 58.8C309.864 58.016 309.464 57.552 308.504 57.344L306.648 56.928C304.664 56.496 303.624 55.36 303.624 53.568ZM315.829 62.208C314.149 62.208 313.125 61.232 313.125 59.744C313.125 58.288 314.181 57.376 316.053 57.232L318.421 57.056V56.88C318.421 55.808 317.781 55.376 316.789 55.376C315.637 55.376 314.997 55.856 314.997 56.688H313.333C313.333 54.976 314.741 53.856 316.885 53.856C319.013 53.856 320.325 55.008 320.325 57.2V62H318.613L318.469 60.832C318.133 61.648 317.061 62.208 315.829 62.208ZM316.469 60.736C317.669 60.736 318.437 60.016 318.437 58.8V58.384L316.789 58.512C315.573 58.624 315.109 59.024 315.109 59.664C315.109 60.384 315.589 60.736 316.469 60.736ZM324.194 62H322.242V54.096H324.034L324.194 55.024C324.594 54.368 325.394 53.856 326.53 53.856C327.73 53.856 328.562 54.448 328.978 55.36C329.378 54.448 330.306 53.856 331.506 53.856C333.426 53.856 334.482 55.008 334.482 56.832V62H332.546V57.344C332.546 56.208 331.938 55.616 331.01 55.616C330.066 55.616 329.346 56.224 329.346 57.52V62H327.394V57.328C327.394 56.224 326.802 55.632 325.874 55.632C324.946 55.632 324.194 56.24 324.194 57.52V62ZM339.935 62.208C337.583 62.208 335.935 60.496 335.935 58.048C335.935 55.568 337.551 53.856 339.871 53.856C342.239 53.856 343.743 55.44 343.743 57.904V58.496L337.791 58.512C337.935 59.904 338.671 60.608 339.967 60.608C341.039 60.608 341.743 60.192 341.967 59.44H343.775C343.439 61.168 341.999 62.208 339.935 62.208ZM339.887 55.456C338.735 55.456 338.031 56.08 337.839 57.264H341.807C341.807 56.176 341.055 55.456 339.887 55.456ZM354.113 62H349.905V50.304H354.001C357.457 50.304 359.841 52.688 359.841 56.176C359.841 59.616 357.505 62 354.113 62ZM353.809 52.192H351.953V60.112H353.921C356.257 60.112 357.681 58.608 357.681 56.176C357.681 53.696 356.225 52.192 353.809 52.192ZM363.813 62.208C362.133 62.208 361.109 61.232 361.109 59.744C361.109 58.288 362.165 57.376 364.037 57.232L366.405 57.056V56.88C366.405 55.808 365.765 55.376 364.773 55.376C363.621 55.376 362.981 55.856 362.981 56.688H361.317C361.317 54.976 362.725 53.856 364.869 53.856C366.997 53.856 368.309 55.008 368.309 57.2V62H366.597L366.453 60.832C366.117 61.648 365.045 62.208 363.813 62.208ZM364.453 60.736C365.653 60.736 366.421 60.016 366.421 58.8V58.384L364.773 58.512C363.557 58.624 363.093 59.024 363.093 59.664C363.093 60.384 363.573 60.736 364.453 60.736ZM369.32 65.664V64.032H370.488C371.256 64.032 371.736 63.856 372.072 62.928L372.296 62.336L369.112 54.096H371.176L373.208 59.856L375.352 54.096H377.368L373.496 63.76C372.904 65.232 372.072 65.84 370.776 65.84C370.232 65.84 369.752 65.776 369.32 65.664ZM385.125 50.304V62H383.077V50.304H385.125ZM389.382 62H387.43V54.096H389.238L389.398 55.12C389.894 54.32 390.854 53.856 391.926 53.856C393.91 53.856 394.934 55.088 394.934 57.136V62H392.982V57.6C392.982 56.272 392.326 55.632 391.318 55.632C390.118 55.632 389.382 56.464 389.382 57.744V62ZM399.54 62H397.588V55.728H396.068V54.096H397.588V51.632H399.54V54.096H401.076V55.728H399.54V62ZM405.747 62.208C403.395 62.208 401.747 60.496 401.747 58.048C401.747 55.568 403.363 53.856 405.683 53.856C408.051 53.856 409.555 55.44 409.555 57.904V58.496L403.603 58.512C403.747 59.904 404.483 60.608 405.779 60.608C406.851 60.608 407.555 60.192 407.779 59.44H409.587C409.251 61.168 407.811 62.208 405.747 62.208ZM405.699 55.456C404.547 55.456 403.843 56.08 403.651 57.264H407.619C407.619 56.176 406.867 55.456 405.699 55.456ZM410.669 57.872C410.669 55.568 412.173 53.84 414.429 53.84C415.613 53.84 416.541 54.336 417.005 55.184L417.117 54.096H418.925V61.6C418.925 64.24 417.341 65.888 414.781 65.888C412.509 65.888 410.957 64.592 410.717 62.48H412.669C412.797 63.504 413.581 64.112 414.781 64.112C416.125 64.112 416.989 63.264 416.989 61.952V60.64C416.493 61.376 415.517 61.84 414.381 61.84C412.141 61.84 410.669 60.16 410.669 57.872ZM412.637 57.824C412.637 59.152 413.485 60.144 414.765 60.144C416.109 60.144 416.941 59.2 416.941 57.824C416.941 56.48 416.125 55.552 414.765 55.552C413.469 55.552 412.637 56.528 412.637 57.824ZM425.906 54.064V55.872H425.186C423.778 55.872 422.898 56.624 422.898 58.16V62H420.946V54.112H422.786L422.898 55.264C423.234 54.48 423.986 53.952 425.042 53.952C425.314 53.952 425.586 53.984 425.906 54.064ZM429.266 62.208C427.586 62.208 426.562 61.232 426.562 59.744C426.562 58.288 427.618 57.376 429.49 57.232L431.858 57.056V56.88C431.858 55.808 431.218 55.376 430.226 55.376C429.074 55.376 428.434 55.856 428.434 56.688H426.77C426.77 54.976 428.178 53.856 430.322 53.856C432.45 53.856 433.762 55.008 433.762 57.2V62H432.05L431.906 60.832C431.57 61.648 430.498 62.208 429.266 62.208ZM429.906 60.736C431.106 60.736 431.874 60.016 431.874 58.8V58.384L430.226 58.512C429.01 58.624 428.546 59.024 428.546 59.664C428.546 60.384 429.026 60.736 429.906 60.736ZM438.259 62H436.307V55.728H434.787V54.096H436.307V51.632H438.259V54.096H439.795V55.728H438.259V62ZM441.984 52.512C441.312 52.512 440.784 51.984 440.784 51.328C440.784 50.672 441.312 50.16 441.984 50.16C442.624 50.16 443.152 50.672 443.152 51.328C443.152 51.984 442.624 52.512 441.984 52.512ZM441.008 62V54.096H442.96V62H441.008ZM444.513 58.032C444.513 55.568 446.289 53.872 448.737 53.872C451.185 53.872 452.961 55.568 452.961 58.032C452.961 60.496 451.185 62.192 448.737 62.192C446.289 62.192 444.513 60.496 444.513 58.032ZM446.465 58.032C446.465 59.472 447.393 60.448 448.737 60.448C450.081 60.448 451.009 59.472 451.009 58.032C451.009 56.592 450.081 55.616 448.737 55.616C447.393 55.616 446.465 56.592 446.465 58.032ZM456.46 62H454.508V54.096H456.316L456.476 55.12C456.972 54.32 457.932 53.856 459.004 53.856C460.988 53.856 462.012 55.088 462.012 57.136V62H460.06V57.6C460.06 56.272 459.404 55.632 458.396 55.632C457.196 55.632 456.46 56.464 456.46 57.744V62Z" fill="#F6F7F2"/>
<circle cx="260" cy="46" r="28" fill="#004D26"/>
<path d="M247 46.75L254.189 53.9393C254.775 54.5251 255.725 54.5251 256.311 53.9393L273.25 37" stroke="#EAEDD6" stroke-width="3.5" stroke-linecap="round"/>
<rect x="124" y="217" width="433" height="197" rx="11" fill="#EAEDD6"/>
<path d="M549 292L132 292" stroke="#C3C887" stroke-width="0.5"/>
<path d="M549 330L132 330" stroke="#C3C887" stroke-width="0.5"/>
<path d="M549 370L132 370" stroke="#C3C887" stroke-width="0.5"/>
<path d="M549 254L132 254" stroke="#96D300"/>
<path d="M131 231C131 227.134 134.134 224 138 224H543C546.866 224 550 227.134 550 231V254H131V231Z" fill="#004D26"/>
<path d="M141.508 235.228V244H139.972V235.228H141.508ZM144.7 244H143.236V238.072H144.592L144.712 238.84C145.084 238.24 145.804 237.892 146.608 237.892C148.096 237.892 148.864 238.816 148.864 240.352V244H147.4V240.7C147.4 239.704 146.908 239.224 146.152 239.224C145.252 239.224 144.7 239.848 144.7 240.808V244ZM151.866 244L149.514 238.072H151.074L152.106 240.796C152.358 241.504 152.562 242.116 152.634 242.44C152.718 242.068 152.934 241.444 153.186 240.796L154.266 238.072H155.778L153.306 244H151.866ZM155.978 241.024C155.978 239.176 157.31 237.904 159.146 237.904C160.982 237.904 162.314 239.176 162.314 241.024C162.314 242.872 160.982 244.144 159.146 244.144C157.31 244.144 155.978 242.872 155.978 241.024ZM157.442 241.024C157.442 242.104 158.138 242.836 159.146 242.836C160.154 242.836 160.85 242.104 160.85 241.024C160.85 239.944 160.154 239.212 159.146 239.212C158.138 239.212 157.442 239.944 157.442 241.024ZM164.207 236.884C163.703 236.884 163.307 236.488 163.307 235.996C163.307 235.504 163.703 235.12 164.207 235.12C164.687 235.12 165.083 235.504 165.083 235.996C165.083 236.488 164.687 236.884 164.207 236.884ZM163.475 244V238.072H164.939V244H163.475ZM166.103 241.024C166.103 239.188 167.315 237.892 169.067 237.892C170.687 237.892 171.791 238.792 171.947 240.22H170.483C170.315 239.548 169.823 239.2 169.127 239.2C168.191 239.2 167.567 239.908 167.567 241.024C167.567 242.14 168.143 242.836 169.079 242.836C169.811 242.836 170.327 242.476 170.483 241.828H171.959C171.779 243.208 170.627 244.156 169.079 244.156C167.279 244.156 166.103 242.908 166.103 241.024ZM175.701 244.156C173.937 244.156 172.701 242.872 172.701 241.036C172.701 239.176 173.913 237.892 175.653 237.892C177.429 237.892 178.557 239.08 178.557 240.928V241.372L174.093 241.384C174.201 242.428 174.753 242.956 175.725 242.956C176.529 242.956 177.057 242.644 177.225 242.08H178.581C178.329 243.376 177.249 244.156 175.701 244.156ZM175.665 239.092C174.801 239.092 174.273 239.56 174.129 240.448H177.105C177.105 239.632 176.541 239.092 175.665 239.092ZM184.715 235.228V244H183.179V235.228H184.715ZM189.816 244H186.66V235.228H189.732C192.324 235.228 194.112 237.016 194.112 239.632C194.112 242.212 192.36 244 189.816 244ZM189.588 236.644H188.196V242.584H189.672C191.424 242.584 192.492 241.456 192.492 239.632C192.492 237.772 191.4 236.644 189.588 236.644Z" fill="#EAEDD6"/>
<path d="M227.68 244.144C225.124 244.144 223.468 242.368 223.468 239.62C223.468 236.896 225.184 235.084 227.752 235.084C229.828 235.084 231.376 236.296 231.676 238.18H230.056C229.756 237.16 228.88 236.56 227.716 236.56C226.096 236.56 225.076 237.736 225.076 239.608C225.076 241.468 226.108 242.668 227.716 242.668C228.904 242.668 229.816 242.044 230.104 241.072H231.7C231.364 242.92 229.756 244.144 227.68 244.144ZM236.881 238.072H238.345V244H236.989L236.881 243.208C236.521 243.772 235.753 244.156 234.961 244.156C233.593 244.156 232.789 243.232 232.789 241.78V238.072H234.253V241.264C234.253 242.392 234.697 242.848 235.513 242.848C236.437 242.848 236.881 242.308 236.881 241.18V238.072ZM239.284 242.2H240.676C240.688 242.716 241.072 243.04 241.744 243.04C242.428 243.04 242.8 242.764 242.8 242.332C242.8 242.032 242.644 241.816 242.116 241.696L241.048 241.444C239.98 241.204 239.464 240.7 239.464 239.752C239.464 238.588 240.448 237.892 241.816 237.892C243.148 237.892 244.048 238.66 244.06 239.812H242.668C242.656 239.308 242.32 238.984 241.756 238.984C241.18 238.984 240.844 239.248 240.844 239.692C240.844 240.028 241.108 240.244 241.612 240.364L242.68 240.616C243.676 240.844 244.18 241.3 244.18 242.212C244.18 243.412 243.16 244.156 241.696 244.156C240.22 244.156 239.284 243.364 239.284 242.2ZM247.311 244H245.847V239.296H244.707V238.072H245.847V236.224H247.311V238.072H248.463V239.296H247.311V244ZM248.967 241.024C248.967 239.176 250.299 237.904 252.135 237.904C253.971 237.904 255.303 239.176 255.303 241.024C255.303 242.872 253.971 244.144 252.135 244.144C250.299 244.144 248.967 242.872 248.967 241.024ZM250.431 241.024C250.431 242.104 251.127 242.836 252.135 242.836C253.143 242.836 253.839 242.104 253.839 241.024C253.839 239.944 253.143 239.212 252.135 239.212C251.127 239.212 250.431 239.944 250.431 241.024ZM257.927 244H256.463V238.072H257.807L257.927 238.768C258.227 238.276 258.827 237.892 259.679 237.892C260.579 237.892 261.203 238.336 261.515 239.02C261.815 238.336 262.511 237.892 263.411 237.892C264.851 237.892 265.643 238.756 265.643 240.124V244H264.191V240.508C264.191 239.656 263.735 239.212 263.039 239.212C262.331 239.212 261.791 239.668 261.791 240.64V244H260.327V240.496C260.327 239.668 259.883 239.224 259.187 239.224C258.491 239.224 257.927 239.68 257.927 240.64V244ZM269.732 244.156C267.968 244.156 266.732 242.872 266.732 241.036C266.732 239.176 267.944 237.892 269.684 237.892C271.46 237.892 272.588 239.08 272.588 240.928V241.372L268.124 241.384C268.232 242.428 268.784 242.956 269.756 242.956C270.56 242.956 271.088 242.644 271.256 242.08H272.612C272.36 243.376 271.28 244.156 269.732 244.156ZM269.696 239.092C268.832 239.092 268.304 239.56 268.16 240.448H271.136C271.136 239.632 270.572 239.092 269.696 239.092ZM277.48 238.048V239.404H276.94C275.884 239.404 275.224 239.968 275.224 241.12V244H273.76V238.084H275.14L275.224 238.948C275.476 238.36 276.04 237.964 276.832 237.964C277.036 237.964 277.24 237.988 277.48 238.048Z" fill="#EAEDD6"/>
<path d="M226.168 273.668L223.204 269.324H224.608L225.964 271.256C226.348 271.82 226.636 272.3 226.888 272.78L229.18 269.324H230.536L227.632 273.656L230.572 278H229.18L227.848 276.092C227.512 275.6 227.188 275.072 226.9 274.568L224.572 278H223.192L226.168 273.668ZM233.794 274.472L230.854 269.324H232.174L234.106 272.792C234.226 272.996 234.298 273.164 234.394 273.368C234.502 273.152 234.526 273.08 234.682 272.792L236.602 269.324H237.886L234.97 274.472V278H233.794V274.472ZM241.999 278.132C239.527 278.132 237.883 276.356 237.883 273.668C237.883 270.992 239.575 269.18 242.059 269.18C244.015 269.18 245.515 270.344 245.839 272.12H244.579C244.255 270.992 243.283 270.308 242.023 270.308C240.271 270.308 239.119 271.628 239.119 273.656C239.119 275.684 240.271 277.004 242.023 277.004C243.295 277.004 244.303 276.32 244.627 275.252H245.875C245.503 276.98 243.955 278.132 241.999 278.132ZM251.774 269.324V278H250.598V269.324H251.774ZM254.733 278H253.605V272.132H254.625L254.745 273.032C255.117 272.36 255.861 271.964 256.689 271.964C258.237 271.964 258.945 272.912 258.945 274.412V278H257.817V274.664C257.817 273.476 257.265 272.996 256.401 272.996C255.345 272.996 254.733 273.752 254.733 274.892V278ZM260.123 275.072C260.123 273.236 261.287 271.964 263.003 271.964C264.479 271.964 265.511 272.804 265.715 274.112H264.587C264.395 273.368 263.795 272.972 263.039 272.972C261.971 272.972 261.239 273.788 261.239 275.06C261.239 276.32 261.923 277.136 262.991 277.136C263.795 277.136 264.395 276.716 264.599 276.02H265.727C265.499 277.292 264.407 278.144 262.991 278.144C261.263 278.144 260.123 276.92 260.123 275.072ZM267.523 278.144C267.055 278.144 266.659 277.76 266.659 277.304C266.659 276.836 267.055 276.452 267.523 276.452C267.979 276.452 268.375 276.836 268.375 277.304C268.375 277.76 267.979 278.144 267.523 278.144Z" fill="#192104"/>
<path d="M224.368 316H223.144L226.312 307.324H227.62L230.8 316H229.564L228.784 313.84H225.136L224.368 316ZM226.816 309.196L225.496 312.82H228.436L227.104 309.196C227.044 309.028 226.984 308.824 226.96 308.692C226.936 308.812 226.876 309.016 226.816 309.196ZM231.953 316V307.324H235.265C236.957 307.324 237.989 308.188 237.989 309.616C237.989 310.612 237.557 311.284 236.693 311.644C237.653 311.956 238.145 312.652 238.145 313.684C238.145 315.124 237.101 316 235.385 316H231.953ZM235.193 308.368H233.129V311.152H235.265C236.237 311.152 236.789 310.624 236.789 309.724C236.789 308.86 236.213 308.368 235.193 308.368ZM235.361 312.172H233.129V314.956H235.361C236.369 314.956 236.933 314.44 236.933 313.54C236.933 312.676 236.357 312.172 235.361 312.172ZM243.217 316.132C240.745 316.132 239.101 314.356 239.101 311.668C239.101 308.992 240.793 307.18 243.277 307.18C245.233 307.18 246.733 308.344 247.057 310.12H245.797C245.473 308.992 244.501 308.308 243.241 308.308C241.489 308.308 240.337 309.628 240.337 311.656C240.337 313.684 241.489 315.004 243.241 315.004C244.513 315.004 245.521 314.32 245.845 313.252H247.093C246.721 314.98 245.173 316.132 243.217 316.132ZM252.993 307.324V316H251.817V307.324H252.993ZM255.952 316H254.824V310.132H255.844L255.964 311.032C256.336 310.36 257.08 309.964 257.908 309.964C259.456 309.964 260.164 310.912 260.164 312.412V316H259.036V312.664C259.036 311.476 258.484 310.996 257.62 310.996C256.564 310.996 255.952 311.752 255.952 312.892V316ZM261.342 313.072C261.342 311.236 262.506 309.964 264.222 309.964C265.698 309.964 266.73 310.804 266.934 312.112H265.806C265.614 311.368 265.014 310.972 264.258 310.972C263.19 310.972 262.458 311.788 262.458 313.06C262.458 314.32 263.142 315.136 264.21 315.136C265.014 315.136 265.614 314.716 265.818 314.02H266.946C266.718 315.292 265.626 316.144 264.21 316.144C262.482 316.144 261.342 314.92 261.342 313.072ZM268.742 316.144C268.274 316.144 267.878 315.76 267.878 315.304C267.878 314.836 268.274 314.452 268.742 314.452C269.198 314.452 269.594 314.836 269.594 315.304C269.594 315.76 269.198 316.144 268.742 316.144Z" fill="#192104"/>
<path d="M225.16 354H224.008V345.324H225.16L228.148 352.62L231.136 345.324H232.312V354H231.16V350.568C231.16 348.948 231.172 348.36 231.232 347.748L228.7 354H227.596L225.076 347.772C225.136 348.192 225.16 349.08 225.16 350.292V354ZM235.508 354H234.332V345.324H235.508L239.948 352.032V345.324H241.124V354H239.948L235.508 347.292V354ZM250.969 349.656C250.969 352.296 249.241 354.144 246.781 354.144C244.333 354.144 242.629 352.296 242.629 349.656C242.629 347.028 244.345 345.168 246.793 345.168C249.253 345.168 250.969 347.016 250.969 349.656ZM249.733 349.656C249.733 347.64 248.557 346.308 246.793 346.308C245.029 346.308 243.865 347.64 243.865 349.656C243.865 351.672 245.029 353.016 246.793 353.016C248.557 353.016 249.733 351.66 249.733 349.656ZM256.93 345.324V354H255.754V345.324H256.93ZM259.889 354H258.761V348.132H259.781L259.901 349.032C260.273 348.36 261.017 347.964 261.845 347.964C263.393 347.964 264.101 348.912 264.101 350.412V354H262.973V350.664C262.973 349.476 262.421 348.996 261.557 348.996C260.501 348.996 259.889 349.752 259.889 350.892V354ZM265.28 351.072C265.28 349.236 266.444 347.964 268.16 347.964C269.636 347.964 270.668 348.804 270.872 350.112H269.744C269.552 349.368 268.952 348.972 268.196 348.972C267.128 348.972 266.396 349.788 266.396 351.06C266.396 352.32 267.08 353.136 268.148 353.136C268.952 353.136 269.552 352.716 269.756 352.02H270.884C270.656 353.292 269.564 354.144 268.148 354.144C266.42 354.144 265.28 352.92 265.28 351.072ZM272.679 354.144C272.211 354.144 271.815 353.76 271.815 353.304C271.815 352.836 272.211 352.452 272.679 352.452C273.135 352.452 273.531 352.836 273.531 353.304C273.531 353.76 273.135 354.144 272.679 354.144Z" fill="#192104"/>
<path d="M224.368 392H223.144L226.312 383.324H227.62L230.8 392H229.564L228.784 389.84H225.136L224.368 392ZM226.816 385.196L225.496 388.82H228.436L227.104 385.196C227.044 385.028 226.984 384.824 226.96 384.692C226.936 384.812 226.876 385.016 226.816 385.196ZM231.953 392V383.324H235.265C236.957 383.324 237.989 384.188 237.989 385.616C237.989 386.612 237.557 387.284 236.693 387.644C237.653 387.956 238.145 388.652 238.145 389.684C238.145 391.124 237.101 392 235.385 392H231.953ZM235.193 384.368H233.129V387.152H235.265C236.237 387.152 236.789 386.624 236.789 385.724C236.789 384.86 236.213 384.368 235.193 384.368ZM235.361 388.172H233.129V390.956H235.361C236.369 390.956 236.933 390.44 236.933 389.54C236.933 388.676 236.357 388.172 235.361 388.172ZM243.217 392.132C240.745 392.132 239.101 390.356 239.101 387.668C239.101 384.992 240.793 383.18 243.277 383.18C245.233 383.18 246.733 384.344 247.057 386.12H245.797C245.473 384.992 244.501 384.308 243.241 384.308C241.489 384.308 240.337 385.628 240.337 387.656C240.337 389.684 241.489 391.004 243.241 391.004C244.513 391.004 245.521 390.32 245.845 389.252H247.093C246.721 390.98 245.173 392.132 243.217 392.132ZM252.993 383.324V392H251.817V383.324H252.993ZM255.952 392H254.824V386.132H255.844L255.964 387.032C256.336 386.36 257.08 385.964 257.908 385.964C259.456 385.964 260.164 386.912 260.164 388.412V392H259.036V388.664C259.036 387.476 258.484 386.996 257.62 386.996C256.564 386.996 255.952 387.752 255.952 388.892V392ZM261.342 389.072C261.342 387.236 262.506 385.964 264.222 385.964C265.698 385.964 266.73 386.804 266.934 388.112H265.806C265.614 387.368 265.014 386.972 264.258 386.972C263.19 386.972 262.458 387.788 262.458 389.06C262.458 390.32 263.142 391.136 264.21 391.136C265.014 391.136 265.614 390.716 265.818 390.02H266.946C266.718 391.292 265.626 392.144 264.21 392.144C262.482 392.144 261.342 390.92 261.342 389.072ZM268.742 392.144C268.274 392.144 267.878 391.76 267.878 391.304C267.878 390.836 268.274 390.452 268.742 390.452C269.198 390.452 269.594 390.836 269.594 391.304C269.594 391.76 269.198 392.144 268.742 392.144Z" fill="#192104"/>
<path d="M139.744 274.532H140.944L141.28 272.792H139.888L140.104 271.736H141.496L141.964 269.324H143.08L142.612 271.736H144.448L144.916 269.324H146.044L145.576 271.736H146.812L146.608 272.792H145.36L145.024 274.532H146.368L146.164 275.588H144.808L144.34 278H143.224L143.692 275.588H141.844L141.376 278H140.26L140.728 275.588H139.528L139.744 274.532ZM142.06 274.532H143.896L144.244 272.792H142.396L142.06 274.532ZM149.599 270.38H147.775V269.324H150.727V278H149.599V270.38ZM158.135 277.988L152.279 278V277.1L155.075 274.688C156.479 273.476 156.875 272.888 156.875 271.964C156.875 270.872 156.251 270.224 155.207 270.224C154.139 270.224 153.443 271.004 153.419 272.24H152.243C152.279 270.38 153.455 269.168 155.219 269.168C156.959 269.168 158.075 270.224 158.075 271.892C158.075 273.128 157.463 274.004 155.927 275.336L154.127 276.896H158.135V277.988ZM165.451 276.248H164.419V278H163.291V276.248H158.803V275.204L162.895 269.324H164.419V275.204H165.451V276.248ZM160.075 275.204H163.291V270.572L160.075 275.204ZM169.399 278.144C167.623 278.144 166.471 277.016 166.471 275.288H167.635C167.635 276.404 168.319 277.088 169.423 277.088C170.599 277.088 171.355 276.308 171.355 275.132C171.355 274.016 170.647 273.188 169.435 273.188C168.703 273.188 168.031 273.536 167.635 274.028L166.639 273.776L167.695 269.324H172.039V270.404H168.547L167.971 272.708C168.427 272.36 169.003 272.18 169.651 272.18C171.415 272.18 172.555 273.416 172.555 275.084C172.555 276.884 171.271 278.144 169.399 278.144ZM174.676 272.072L176.704 269.324H178.072L175.9 272.204C176.2 272.084 176.512 272.024 176.812 272.024C178.612 272.024 179.824 273.32 179.824 275.036C179.824 276.848 178.456 278.144 176.668 278.144C174.868 278.144 173.476 276.788 173.476 275.036C173.476 274.004 173.788 273.284 174.676 272.072ZM174.676 275.048C174.676 276.236 175.492 277.088 176.668 277.088C177.82 277.088 178.636 276.236 178.636 275.048C178.636 273.86 177.82 273.02 176.668 273.02C175.492 273.02 174.676 273.86 174.676 275.048Z" fill="#192104"/>
<path d="M139.744 312.532H140.944L141.28 310.792H139.888L140.104 309.736H141.496L141.964 307.324H143.08L142.612 309.736H144.448L144.916 307.324H146.044L145.576 309.736H146.812L146.608 310.792H145.36L145.024 312.532H146.368L146.164 313.588H144.808L144.34 316H143.224L143.692 313.588H141.844L141.376 316H140.26L140.728 313.588H139.528L139.744 312.532ZM142.06 312.532H143.896L144.244 310.792H142.396L142.06 312.532ZM149.599 308.38H147.775V307.324H150.727V316H149.599V308.38ZM155.184 316.144C153.408 316.144 152.256 315.016 152.256 313.288H153.42C153.42 314.404 154.104 315.088 155.208 315.088C156.384 315.088 157.14 314.308 157.14 313.132C157.14 312.016 156.432 311.188 155.22 311.188C154.488 311.188 153.816 311.536 153.42 312.028L152.424 311.776L153.48 307.324H157.824V308.404H154.332L153.756 310.708C154.212 310.36 154.788 310.18 155.436 310.18C157.2 310.18 158.34 311.416 158.34 313.084C158.34 314.884 157.056 316.144 155.184 316.144ZM162.274 316.144C160.498 316.144 159.346 315.016 159.346 313.288H160.51C160.51 314.404 161.194 315.088 162.298 315.088C163.474 315.088 164.23 314.308 164.23 313.132C164.23 312.016 163.522 311.188 162.31 311.188C161.578 311.188 160.906 311.536 160.51 312.028L159.514 311.776L160.57 307.324H164.914V308.404H161.422L160.846 310.708C161.302 310.36 161.878 310.18 162.526 310.18C164.29 310.18 165.43 311.416 165.43 313.084C165.43 314.884 164.146 316.144 162.274 316.144ZM169.363 316.144C167.587 316.144 166.435 315.016 166.435 313.288H167.599C167.599 314.404 168.283 315.088 169.387 315.088C170.563 315.088 171.319 314.308 171.319 313.132C171.319 312.016 170.611 311.188 169.399 311.188C168.667 311.188 167.995 311.536 167.599 312.028L166.603 311.776L167.659 307.324H172.003V308.404H168.511L167.935 310.708C168.391 310.36 168.967 310.18 169.615 310.18C171.379 310.18 172.519 311.416 172.519 313.084C172.519 314.884 171.235 316.144 169.363 316.144ZM174.641 310.072L176.669 307.324H178.037L175.865 310.204C176.165 310.084 176.477 310.024 176.777 310.024C178.577 310.024 179.789 311.32 179.789 313.036C179.789 314.848 178.421 316.144 176.633 316.144C174.833 316.144 173.441 314.788 173.441 313.036C173.441 312.004 173.753 311.284 174.641 310.072ZM174.641 313.048C174.641 314.236 175.457 315.088 176.633 315.088C177.785 315.088 178.601 314.236 178.601 313.048C178.601 311.86 177.785 311.02 176.633 311.02C175.457 311.02 174.641 311.86 174.641 313.048Z" fill="#192104"/>
<path d="M139.744 350.532H140.944L141.28 348.792H139.888L140.104 347.736H141.496L141.964 345.324H143.08L142.612 347.736H144.448L144.916 345.324H146.044L145.576 347.736H146.812L146.608 348.792H145.36L145.024 350.532H146.368L146.164 351.588H144.808L144.34 354H143.224L143.692 351.588H141.844L141.376 354H140.26L140.728 351.588H139.528L139.744 350.532ZM142.06 350.532H143.896L144.244 348.792H142.396L142.06 350.532ZM149.599 346.38H147.775V345.324H150.727V354H149.599V346.38ZM157.367 351.252L155.339 354H153.971L156.143 351.12C155.843 351.24 155.531 351.3 155.231 351.3C153.431 351.3 152.219 350.004 152.219 348.276C152.219 346.476 153.587 345.168 155.375 345.168C157.175 345.168 158.567 346.524 158.567 348.288C158.567 349.308 158.255 350.04 157.367 351.252ZM157.367 348.276C157.367 347.088 156.551 346.224 155.375 346.224C154.223 346.224 153.407 347.088 153.407 348.276C153.407 349.464 154.223 350.304 155.375 350.304C156.551 350.304 157.367 349.464 157.367 348.276ZM159.651 349.668C159.651 346.98 161.043 345.156 163.227 345.156C165.398 345.156 166.791 346.98 166.791 349.668C166.791 352.368 165.459 354.156 163.227 354.156C160.983 354.156 159.651 352.368 159.651 349.668ZM160.815 349.668C160.815 351.804 161.703 353.1 163.227 353.1C164.751 353.1 165.627 351.804 165.627 349.668C165.627 347.508 164.751 346.212 163.227 346.212C161.703 346.212 160.815 347.508 160.815 349.668ZM169.627 346.38H167.803V345.324H170.755V354H169.627V346.38ZM178.162 353.988L172.306 354V353.1L175.102 350.688C176.506 349.476 176.902 348.888 176.902 347.964C176.902 346.872 176.278 346.224 175.234 346.224C174.166 346.224 173.47 347.004 173.446 348.24H172.27C172.306 346.38 173.482 345.168 175.246 345.168C176.986 345.168 178.102 346.224 178.102 347.892C178.102 349.128 177.49 350.004 175.954 351.336L174.154 352.896H178.162V353.988Z" fill="#192104"/>
<path d="M139.744 388.532H140.944L141.28 386.792H139.888L140.104 385.736H141.496L141.964 383.324H143.08L142.612 385.736H144.448L144.916 383.324H146.044L145.576 385.736H146.812L146.608 386.792H145.36L145.024 388.532H146.368L146.164 389.588H144.808L144.34 392H143.224L143.692 389.588H141.844L141.376 392H140.26L140.728 389.588H139.528L139.744 388.532ZM142.06 388.532H143.896L144.244 386.792H142.396L142.06 388.532ZM149.599 384.38H147.775V383.324H150.727V392H149.599V384.38ZM155.184 392.144C153.408 392.144 152.256 391.016 152.256 389.288H153.42C153.42 390.404 154.104 391.088 155.208 391.088C156.384 391.088 157.14 390.308 157.14 389.132C157.14 388.016 156.432 387.188 155.22 387.188C154.488 387.188 153.816 387.536 153.42 388.028L152.424 387.776L153.48 383.324H157.824V384.404H154.332L153.756 386.708C154.212 386.36 154.788 386.18 155.436 386.18C157.2 386.18 158.34 387.416 158.34 389.084C158.34 390.884 157.056 392.144 155.184 392.144ZM160.462 386.072L162.49 383.324H163.858L161.686 386.204C161.986 386.084 162.298 386.024 162.598 386.024C164.398 386.024 165.61 387.32 165.61 389.036C165.61 390.848 164.242 392.144 162.454 392.144C160.654 392.144 159.262 390.788 159.262 389.036C159.262 388.004 159.574 387.284 160.462 386.072ZM160.462 389.048C160.462 390.236 161.278 391.088 162.454 391.088C163.606 391.088 164.422 390.236 164.422 389.048C164.422 387.86 163.606 387.02 162.454 387.02C161.278 387.02 160.462 387.86 160.462 389.048ZM172.349 391.988L166.493 392V391.1L169.289 388.688C170.693 387.476 171.089 386.888 171.089 385.964C171.089 384.872 170.465 384.224 169.421 384.224C168.353 384.224 167.657 385.004 167.633 386.24H166.457C166.493 384.38 167.669 383.168 169.433 383.168C171.173 383.168 172.289 384.224 172.289 385.892C172.289 387.128 171.677 388.004 170.141 389.336L168.341 390.896H172.349V391.988ZM179.665 390.248H178.633V392H177.505V390.248H173.017V389.204L177.109 383.324H178.633V389.204H179.665V390.248ZM174.289 389.204H177.505V384.572L174.289 389.204Z" fill="#192104"/>
<path d="M318.128 244H314.972V235.228H318.044C320.636 235.228 322.424 237.016 322.424 239.632C322.424 242.212 320.672 244 318.128 244ZM317.9 236.644H316.508V242.584H317.984C319.736 242.584 320.804 241.456 320.804 239.632C320.804 237.772 319.712 236.644 317.9 236.644ZM327.659 238.072H329.123V244H327.767L327.659 243.208C327.299 243.772 326.531 244.156 325.739 244.156C324.371 244.156 323.567 243.232 323.567 241.78V238.072H325.031V241.264C325.031 242.392 325.475 242.848 326.291 242.848C327.215 242.848 327.659 242.308 327.659 241.18V238.072ZM333.17 244.156C331.406 244.156 330.17 242.872 330.17 241.036C330.17 239.176 331.382 237.892 333.122 237.892C334.898 237.892 336.026 239.08 336.026 240.928V241.372L331.562 241.384C331.67 242.428 332.222 242.956 333.194 242.956C333.998 242.956 334.526 242.644 334.694 242.08H336.05C335.798 243.376 334.718 244.156 333.17 244.156ZM333.134 239.092C332.27 239.092 331.742 239.56 331.598 240.448H334.574C334.574 239.632 334.01 239.092 333.134 239.092ZM343.804 244H340.648V235.228H343.72C346.312 235.228 348.1 237.016 348.1 239.632C348.1 242.212 346.348 244 343.804 244ZM343.576 236.644H342.184V242.584H343.66C345.412 242.584 346.48 241.456 346.48 239.632C346.48 237.772 345.388 236.644 343.576 236.644ZM351.079 244.156C349.819 244.156 349.051 243.424 349.051 242.308C349.051 241.216 349.843 240.532 351.247 240.424L353.023 240.292V240.16C353.023 239.356 352.543 239.032 351.799 239.032C350.935 239.032 350.455 239.392 350.455 240.016H349.207C349.207 238.732 350.263 237.892 351.871 237.892C353.467 237.892 354.451 238.756 354.451 240.4V244H353.167L353.059 243.124C352.807 243.736 352.003 244.156 351.079 244.156ZM351.559 243.052C352.459 243.052 353.035 242.512 353.035 241.6V241.288L351.799 241.384C350.887 241.468 350.539 241.768 350.539 242.248C350.539 242.788 350.899 243.052 351.559 243.052ZM357.823 244H356.359V239.296H355.219V238.072H356.359V236.224H357.823V238.072H358.975V239.296H357.823V244ZM362.478 244.156C360.714 244.156 359.478 242.872 359.478 241.036C359.478 239.176 360.69 237.892 362.43 237.892C364.206 237.892 365.334 239.08 365.334 240.928V241.372L360.87 241.384C360.978 242.428 361.53 242.956 362.502 242.956C363.306 242.956 363.834 242.644 364.002 242.08H365.358C365.106 243.376 364.026 244.156 362.478 244.156ZM362.442 239.092C361.578 239.092 361.05 239.56 360.906 240.448H363.882C363.882 239.632 363.318 239.092 362.442 239.092Z" fill="#EAEDD6"/>
<path d="M320.408 277.988L314.552 278V277.1L317.348 274.688C318.752 273.476 319.148 272.888 319.148 271.964C319.148 270.872 318.524 270.224 317.48 270.224C316.412 270.224 315.716 271.004 315.692 272.24H314.516C314.552 270.38 315.728 269.168 317.492 269.168C319.232 269.168 320.348 270.224 320.348 271.892C320.348 273.128 319.736 274.004 318.2 275.336L316.4 276.896H320.408V277.988ZM326.542 275.252L324.514 278H323.146L325.318 275.12C325.018 275.24 324.706 275.3 324.406 275.3C322.606 275.3 321.394 274.004 321.394 272.276C321.394 270.476 322.762 269.168 324.55 269.168C326.35 269.168 327.742 270.524 327.742 272.288C327.742 273.308 327.43 274.04 326.542 275.252ZM326.542 272.276C326.542 271.088 325.726 270.224 324.55 270.224C323.398 270.224 322.582 271.088 322.582 272.276C322.582 273.464 323.398 274.304 324.55 274.304C325.726 274.304 326.542 273.464 326.542 272.276ZM331.76 275.588V275.156H332.9V275.588C332.9 276.44 333.368 277.052 334.328 277.052C335.312 277.052 335.744 276.452 335.744 275.552V269.324H336.92V275.6C336.92 277.16 335.876 278.144 334.328 278.144C332.672 278.144 331.76 277.088 331.76 275.588ZM342.743 272.132H343.859V278H342.851L342.731 277.112C342.395 277.724 341.615 278.144 340.751 278.144C339.383 278.144 338.615 277.22 338.615 275.78V272.132H339.743V275.408C339.743 276.668 340.283 277.148 341.147 277.148C342.179 277.148 342.743 276.488 342.743 275.228V272.132ZM346.648 278H345.52V269.168H346.648V278Z" fill="#192104"/>
<path d="M316.244 308.38H314.42V307.324H317.372V316H316.244V308.38ZM320.063 310.072L322.091 307.324H323.459L321.287 310.204C321.587 310.084 321.899 310.024 322.199 310.024C323.999 310.024 325.211 311.32 325.211 313.036C325.211 314.848 323.843 316.144 322.055 316.144C320.255 316.144 318.863 314.788 318.863 313.036C318.863 312.004 319.175 311.284 320.063 310.072ZM320.063 313.048C320.063 314.236 320.879 315.088 322.055 315.088C323.207 315.088 324.023 314.236 324.023 313.048C324.023 311.86 323.207 311.02 322.055 311.02C320.879 311.02 320.063 311.86 320.063 313.048ZM330.356 316H329.132L332.3 307.324H333.608L336.788 316H335.552L334.772 313.84H331.124L330.356 316ZM332.804 309.196L331.484 312.82H334.424L333.092 309.196C333.032 309.028 332.972 308.824 332.948 308.692C332.924 308.812 332.864 309.016 332.804 309.196ZM341.642 310.132H342.758V316H341.75L341.63 315.112C341.294 315.724 340.514 316.144 339.65 316.144C338.282 316.144 337.514 315.22 337.514 313.78V310.132H338.642V313.408C338.642 314.668 339.182 315.148 340.046 315.148C341.078 315.148 341.642 314.488 341.642 313.228V310.132ZM344.022 312.916C344.022 311.26 345.09 309.964 346.794 309.964C347.742 309.964 348.474 310.396 348.846 311.128L348.93 310.132H349.938V315.76C349.938 317.608 348.798 318.784 346.998 318.784C345.402 318.784 344.31 317.884 344.094 316.396H345.222C345.366 317.26 346.014 317.764 346.998 317.764C348.102 317.764 348.822 317.044 348.822 315.928V314.752C348.438 315.436 347.67 315.844 346.746 315.844C345.078 315.844 344.022 314.56 344.022 312.916ZM345.15 312.892C345.15 313.996 345.834 314.86 346.938 314.86C348.078 314.86 348.774 314.044 348.774 312.892C348.774 311.764 348.102 310.948 346.95 310.948C345.822 310.948 345.15 311.812 345.15 312.892Z" fill="#192104"/>
<path d="M320.408 353.988L314.552 354V353.1L317.348 350.688C318.752 349.476 319.148 348.888 319.148 347.964C319.148 346.872 318.524 346.224 317.48 346.224C316.412 346.224 315.716 347.004 315.692 348.24H314.516C314.552 346.38 315.728 345.168 317.492 345.168C319.232 345.168 320.348 346.224 320.348 347.892C320.348 349.128 319.736 350.004 318.2 351.336L316.4 352.896H320.408V353.988ZM327.724 352.248H326.692V354H325.564V352.248H321.076V351.204L325.168 345.324H326.692V351.204H327.724V352.248ZM322.348 351.204H325.564V346.572L322.348 351.204ZM332.946 354H331.722L334.89 345.324H336.198L339.378 354H338.142L337.362 351.84H333.714L332.946 354ZM335.394 347.196L334.074 350.82H337.014L335.682 347.196C335.622 347.028 335.562 346.824 335.538 346.692C335.514 346.812 335.454 347.016 335.394 347.196ZM344.231 348.132H345.347V354H344.339L344.219 353.112C343.883 353.724 343.103 354.144 342.239 354.144C340.871 354.144 340.103 353.22 340.103 351.78V348.132H341.231V351.408C341.231 352.668 341.771 353.148 342.635 353.148C343.667 353.148 344.231 352.488 344.231 351.228V348.132ZM346.612 350.916C346.612 349.26 347.68 347.964 349.384 347.964C350.332 347.964 351.064 348.396 351.436 349.128L351.52 348.132H352.528V353.76C352.528 355.608 351.388 356.784 349.588 356.784C347.992 356.784 346.9 355.884 346.684 354.396H347.812C347.956 355.26 348.604 355.764 349.588 355.764C350.692 355.764 351.412 355.044 351.412 353.928V352.752C351.028 353.436 350.26 353.844 349.336 353.844C347.668 353.844 346.612 352.56 346.612 350.916ZM347.74 350.892C347.74 351.996 348.424 352.86 349.528 352.86C350.668 352.86 351.364 352.044 351.364 350.892C351.364 349.764 350.692 348.948 349.54 348.948C348.412 348.948 347.74 349.812 347.74 350.892Z" fill="#192104"/>
<path d="M316.244 384.38H314.42V383.324H317.372V392H316.244V384.38ZM325.427 390.248H324.395V392H323.267V390.248H318.779V389.204L322.871 383.324H324.395V389.204H325.427V390.248ZM320.051 389.204H323.267V384.572L320.051 389.204ZM329.785 385.664C329.785 384.176 330.985 383.168 332.773 383.168C334.429 383.168 335.497 384.092 335.593 385.592H334.405C334.345 384.728 333.733 384.224 332.761 384.224C331.669 384.224 330.961 384.776 330.961 385.628C330.961 386.324 331.357 386.744 332.173 386.936L333.601 387.272C335.017 387.596 335.737 388.364 335.737 389.588C335.737 391.148 334.525 392.144 332.677 392.144C330.913 392.144 329.737 391.22 329.665 389.732H330.865C330.889 390.56 331.585 391.088 332.677 391.088C333.829 391.088 334.561 390.548 334.561 389.684C334.561 389 334.189 388.568 333.361 388.376L331.933 388.052C330.517 387.728 329.785 386.912 329.785 385.664ZM339.555 392.144C337.827 392.144 336.639 390.896 336.639 389.072C336.639 387.236 337.803 385.964 339.507 385.964C341.175 385.964 342.267 387.116 342.267 388.856V389.276L337.731 389.288C337.815 390.524 338.463 391.208 339.579 391.208C340.455 391.208 341.031 390.848 341.223 390.176H342.279C341.991 391.436 341.007 392.144 339.555 392.144ZM339.507 386.912C338.523 386.912 337.899 387.5 337.755 388.532H341.139C341.139 387.56 340.503 386.912 339.507 386.912ZM343.527 394.628V386.132H344.547L344.631 387.188C345.027 386.384 345.819 385.964 346.755 385.964C348.435 385.964 349.479 387.224 349.479 389.024C349.479 390.812 348.495 392.156 346.755 392.156C345.819 392.156 345.039 391.76 344.655 391.04V394.628H343.527ZM344.667 389.072C344.667 390.272 345.363 391.136 346.515 391.136C347.667 391.136 348.351 390.272 348.351 389.072C348.351 387.86 347.667 386.996 346.515 386.996C345.363 386.996 344.667 387.848 344.667 389.072ZM352.32 392H351.192V387.08H350.04V386.132H351.192V384.296H352.32V386.132H353.472V387.08H352.32V392Z" fill="#192104"/>
<path d="M478.468 237.676C478.468 236.14 479.74 235.072 481.588 235.072C483.364 235.072 484.492 236.056 484.54 237.64H483.004C482.968 236.884 482.428 236.44 481.564 236.44C480.616 236.44 480.004 236.896 480.004 237.628C480.004 238.252 480.34 238.6 481.072 238.768L482.452 239.068C483.952 239.392 484.684 240.16 484.684 241.468C484.684 243.1 483.412 244.156 481.48 244.156C479.608 244.156 478.384 243.16 478.348 241.588H479.884C479.896 242.332 480.496 242.776 481.48 242.776C482.5 242.776 483.148 242.332 483.148 241.6C483.148 241.012 482.848 240.664 482.128 240.508L480.736 240.196C479.248 239.872 478.468 239.02 478.468 237.676ZM487.874 244H486.41V239.296H485.27V238.072H486.41V236.224H487.874V238.072H489.026V239.296H487.874V244ZM491.665 244.156C490.405 244.156 489.637 243.424 489.637 242.308C489.637 241.216 490.429 240.532 491.833 240.424L493.609 240.292V240.16C493.609 239.356 493.129 239.032 492.385 239.032C491.521 239.032 491.041 239.392 491.041 240.016H489.793C489.793 238.732 490.849 237.892 492.457 237.892C494.053 237.892 495.037 238.756 495.037 240.4V244H493.753L493.645 243.124C493.393 243.736 492.589 244.156 491.665 244.156ZM492.145 243.052C493.045 243.052 493.621 242.512 493.621 241.6V241.288L492.385 241.384C491.473 241.468 491.125 241.768 491.125 242.248C491.125 242.788 491.485 243.052 492.145 243.052ZM498.409 244H496.945V239.296H495.805V238.072H496.945V236.224H498.409V238.072H499.561V239.296H498.409V244ZM504.491 238.072H505.955V244H504.599L504.491 243.208C504.131 243.772 503.363 244.156 502.571 244.156C501.203 244.156 500.399 243.232 500.399 241.78V238.072H501.863V241.264C501.863 242.392 502.307 242.848 503.123 242.848C504.047 242.848 504.491 242.308 504.491 241.18V238.072ZM506.894 242.2H508.286C508.298 242.716 508.682 243.04 509.354 243.04C510.038 243.04 510.41 242.764 510.41 242.332C510.41 242.032 510.254 241.816 509.726 241.696L508.658 241.444C507.59 241.204 507.074 240.7 507.074 239.752C507.074 238.588 508.058 237.892 509.426 237.892C510.758 237.892 511.658 238.66 511.67 239.812H510.278C510.266 239.308 509.93 238.984 509.366 238.984C508.79 238.984 508.454 239.248 508.454 239.692C508.454 240.028 508.718 240.244 509.222 240.364L510.29 240.616C511.286 240.844 511.79 241.3 511.79 242.212C511.79 243.412 510.77 244.156 509.306 244.156C507.83 244.156 506.894 243.364 506.894 242.2Z" fill="#EAEDD6"/>
<path d="M405.226 244H403.63L406.798 235.228H408.37L411.538 244H409.918L409.21 241.972H405.934L405.226 244ZM407.386 237.844L406.39 240.676H408.766L407.758 237.844C407.686 237.616 407.602 237.352 407.578 237.172C407.542 237.34 407.47 237.604 407.386 237.844ZM413.886 244H412.422V238.072H413.766L413.886 238.768C414.186 238.276 414.786 237.892 415.638 237.892C416.538 237.892 417.162 238.336 417.474 239.02C417.774 238.336 418.47 237.892 419.37 237.892C420.81 237.892 421.602 238.756 421.602 240.124V244H420.15V240.508C420.15 239.656 419.694 239.212 418.998 239.212C418.29 239.212 417.75 239.668 417.75 240.64V244H416.286V240.496C416.286 239.668 415.842 239.224 415.146 239.224C414.45 239.224 413.886 239.68 413.886 240.64V244ZM422.691 241.024C422.691 239.176 424.023 237.904 425.859 237.904C427.695 237.904 429.027 239.176 429.027 241.024C429.027 242.872 427.695 244.144 425.859 244.144C424.023 244.144 422.691 242.872 422.691 241.024ZM424.155 241.024C424.155 242.104 424.851 242.836 425.859 242.836C426.867 242.836 427.563 242.104 427.563 241.024C427.563 239.944 426.867 239.212 425.859 239.212C424.851 239.212 424.155 239.944 424.155 241.024ZM434.067 238.072H435.531V244H434.175L434.067 243.208C433.707 243.772 432.939 244.156 432.147 244.156C430.779 244.156 429.975 243.232 429.975 241.78V238.072H431.439V241.264C431.439 242.392 431.883 242.848 432.699 242.848C433.623 242.848 434.067 242.308 434.067 241.18V238.072ZM438.507 244H437.043V238.072H438.399L438.519 238.84C438.891 238.24 439.611 237.892 440.415 237.892C441.903 237.892 442.671 238.816 442.671 240.352V244H441.207V240.7C441.207 239.704 440.715 239.224 439.959 239.224C439.059 239.224 438.507 239.848 438.507 240.808V244ZM446.125 244H444.661V239.296H443.521V238.072H444.661V236.224H446.125V238.072H447.277V239.296H446.125V244Z" fill="#EAEDD6"/>
<path d="M409.523 279.164V278.132C407.939 278.036 406.895 277.136 406.823 275.732H408.023C408.047 276.5 408.611 277.004 409.523 277.1V274.112L409.091 274.016C407.675 273.692 406.943 272.9 406.943 271.664C406.943 270.296 407.963 269.324 409.523 269.192V268.148H410.291V269.18C411.743 269.312 412.667 270.2 412.751 271.592H411.587C411.539 270.824 411.071 270.332 410.291 270.224V273.2L410.759 273.308C412.199 273.632 412.895 274.388 412.895 275.588C412.895 277.016 411.875 277.976 410.291 278.12V279.164H409.523ZM409.331 272.972L409.523 273.02V270.224C408.635 270.344 408.095 270.86 408.095 271.628C408.095 272.324 408.491 272.768 409.331 272.972ZM410.519 274.352L410.291 274.304V277.076C411.191 276.956 411.743 276.44 411.743 275.684C411.743 274.988 411.347 274.544 410.519 274.352ZM418.89 270.38H417.066V269.324H420.018V278H418.89V270.38ZM427.425 277.988L421.569 278V277.1L424.365 274.688C425.769 273.476 426.165 272.888 426.165 271.964C426.165 270.872 425.541 270.224 424.497 270.224C423.429 270.224 422.733 271.004 422.709 272.24H421.533C421.569 270.38 422.745 269.168 424.509 269.168C426.249 269.168 427.365 270.224 427.365 271.892C427.365 273.128 426.753 274.004 425.217 275.336L423.417 276.896H427.425V277.988ZM430.533 277.532C430.533 278.396 429.885 279.116 429.033 279.224V278.72C429.525 278.636 429.873 278.312 429.873 277.94C429.789 277.988 429.693 278.012 429.549 278.012C429.153 278.012 428.817 277.724 428.817 277.28C428.817 276.8 429.141 276.452 429.621 276.452C430.125 276.452 430.533 276.872 430.533 277.532ZM432.613 270.38H430.789V269.324H433.741V278H432.613V270.38ZM435.328 273.668C435.328 270.98 436.72 269.156 438.904 269.156C441.076 269.156 442.468 270.98 442.468 273.668C442.468 276.368 441.136 278.156 438.904 278.156C436.66 278.156 435.328 276.368 435.328 273.668ZM436.492 273.668C436.492 275.804 437.38 277.1 438.904 277.1C440.428 277.1 441.304 275.804 441.304 273.668C441.304 271.508 440.428 270.212 438.904 270.212C437.38 270.212 436.492 271.508 436.492 273.668ZM445.304 270.38H443.48V269.324H446.432V278H445.304V270.38Z" fill="#192104"/>
<path d="M403.277 317.164V316.132C401.693 316.036 400.649 315.136 400.577 313.732H401.777C401.801 314.5 402.365 315.004 403.277 315.1V312.112L402.845 312.016C401.429 311.692 400.697 310.9 400.697 309.664C400.697 308.296 401.717 307.324 403.277 307.192V306.148H404.045V307.18C405.497 307.312 406.421 308.2 406.505 309.592H405.341C405.293 308.824 404.825 308.332 404.045 308.224V311.2L404.513 311.308C405.953 311.632 406.649 312.388 406.649 313.588C406.649 315.016 405.629 315.976 404.045 316.12V317.164H403.277ZM403.085 310.972L403.277 311.02V308.224C402.389 308.344 401.849 308.86 401.849 309.628C401.849 310.324 402.245 310.768 403.085 310.972ZM404.273 312.352L404.045 312.304V315.076C404.945 314.956 405.497 314.44 405.497 313.684C405.497 312.988 405.101 312.544 404.273 312.352ZM412.644 308.38H410.82V307.324H413.772V316H412.644V308.38ZM420.411 313.252L418.383 316H417.015L419.187 313.12C418.887 313.24 418.575 313.3 418.275 313.3C416.475 313.3 415.263 312.004 415.263 310.276C415.263 308.476 416.631 307.168 418.419 307.168C420.219 307.168 421.611 308.524 421.611 310.288C421.611 311.308 421.299 312.04 420.411 313.252ZM420.411 310.276C420.411 309.088 419.595 308.224 418.419 308.224C417.267 308.224 416.451 309.088 416.451 310.276C416.451 311.464 417.267 312.304 418.419 312.304C419.595 312.304 420.411 311.464 420.411 310.276ZM424.123 315.532C424.123 316.396 423.475 317.116 422.623 317.224V316.72C423.115 316.636 423.463 316.312 423.463 315.94C423.379 315.988 423.283 316.012 423.139 316.012C422.743 316.012 422.407 315.724 422.407 315.28C422.407 314.8 422.731 314.452 423.211 314.452C423.715 314.452 424.123 314.872 424.123 315.532ZM425.027 311.668C425.027 308.98 426.419 307.156 428.603 307.156C430.775 307.156 432.167 308.98 432.167 311.668C432.167 314.368 430.835 316.156 428.603 316.156C426.359 316.156 425.027 314.368 425.027 311.668ZM426.191 311.668C426.191 313.804 427.079 315.1 428.603 315.1C430.127 315.1 431.003 313.804 431.003 311.668C431.003 309.508 430.127 308.212 428.603 308.212C427.079 308.212 426.191 309.508 426.191 311.668ZM438.399 313.252L436.371 316H435.003L437.175 313.12C436.875 313.24 436.563 313.3 436.263 313.3C434.463 313.3 433.251 312.004 433.251 310.276C433.251 308.476 434.619 307.168 436.407 307.168C438.207 307.168 439.599 308.524 439.599 310.288C439.599 311.308 439.287 312.04 438.399 313.252ZM438.399 310.276C438.399 309.088 437.583 308.224 436.407 308.224C435.255 308.224 434.439 309.088 434.439 310.276C434.439 311.464 435.255 312.304 436.407 312.304C437.583 312.304 438.399 311.464 438.399 310.276ZM445.735 313.252L443.707 316H442.339L444.511 313.12C444.211 313.24 443.899 313.3 443.599 313.3C441.799 313.3 440.587 312.004 440.587 310.276C440.587 308.476 441.955 307.168 443.743 307.168C445.543 307.168 446.935 308.524 446.935 310.288C446.935 311.308 446.623 312.04 445.735 313.252ZM445.735 310.276C445.735 309.088 444.919 308.224 443.743 308.224C442.591 308.224 441.775 309.088 441.775 310.276C441.775 311.464 442.591 312.304 443.743 312.304C444.919 312.304 445.735 311.464 445.735 310.276Z" fill="#192104"/>
<path d="M400.64 355.164V354.132C399.056 354.036 398.012 353.136 397.94 351.732H399.14C399.164 352.5 399.728 353.004 400.64 353.1V350.112L400.208 350.016C398.792 349.692 398.06 348.9 398.06 347.664C398.06 346.296 399.08 345.324 400.64 345.192V344.148H401.408V345.18C402.86 345.312 403.784 346.2 403.868 347.592H402.704C402.656 346.824 402.188 346.332 401.408 346.224V349.2L401.876 349.308C403.316 349.632 404.012 350.388 404.012 351.588C404.012 353.016 402.992 353.976 401.408 354.12V355.164H400.64ZM400.448 348.972L400.64 349.02V346.224C399.752 346.344 399.212 346.86 399.212 347.628C399.212 348.324 399.608 348.768 400.448 348.972ZM401.636 350.352L401.408 350.304V353.076C402.308 352.956 402.86 352.44 402.86 351.684C402.86 350.988 402.464 350.544 401.636 350.352ZM414.171 353.988L408.315 354V353.1L411.111 350.688C412.515 349.476 412.911 348.888 412.911 347.964C412.911 346.872 412.287 346.224 411.243 346.224C410.175 346.224 409.479 347.004 409.455 348.24H408.279C408.315 346.38 409.491 345.168 411.255 345.168C412.995 345.168 414.111 346.224 414.111 347.892C414.111 349.128 413.499 350.004 411.963 351.336L410.163 352.896H414.171V353.988ZM414.691 345.324H420.751V346.404L417.463 354H416.239L419.563 346.404H414.691V345.324ZM422.154 353.532C422.154 354.396 421.506 355.116 420.654 355.224V354.72C421.146 354.636 421.494 354.312 421.494 353.94C421.41 353.988 421.314 354.012 421.17 354.012C420.774 354.012 420.438 353.724 420.438 353.28C420.438 352.8 420.762 352.452 421.242 352.452C421.746 352.452 422.154 352.872 422.154 353.532ZM423.058 349.668C423.058 346.98 424.45 345.156 426.634 345.156C428.806 345.156 430.198 346.98 430.198 349.668C430.198 352.368 428.866 354.156 426.634 354.156C424.39 354.156 423.058 352.368 423.058 349.668ZM424.222 349.668C424.222 351.804 425.11 353.1 426.634 353.1C428.158 353.1 429.034 351.804 429.034 349.668C429.034 347.508 428.158 346.212 426.634 346.212C425.11 346.212 424.222 347.508 424.222 349.668ZM431.379 349.668C431.379 346.98 432.771 345.156 434.955 345.156C437.127 345.156 438.519 346.98 438.519 349.668C438.519 352.368 437.187 354.156 434.955 354.156C432.711 354.156 431.379 352.368 431.379 349.668ZM432.543 349.668C432.543 351.804 433.431 353.1 434.955 353.1C436.479 353.1 437.355 351.804 437.355 349.668C437.355 347.508 436.479 346.212 434.955 346.212C433.431 346.212 432.543 347.508 432.543 349.668ZM439.699 349.668C439.699 346.98 441.091 345.156 443.275 345.156C445.447 345.156 446.839 346.98 446.839 349.668C446.839 352.368 445.507 354.156 443.275 354.156C441.031 354.156 439.699 352.368 439.699 349.668ZM440.863 349.668C440.863 351.804 441.751 353.1 443.275 353.1C444.799 353.1 445.675 351.804 445.675 349.668C445.675 347.508 444.799 346.212 443.275 346.212C441.751 346.212 440.863 347.508 440.863 349.668Z" fill="#192104"/>
<path d="M399.597 393.164V392.132C398.013 392.036 396.969 391.136 396.897 389.732H398.097C398.121 390.5 398.685 391.004 399.597 391.1V388.112L399.165 388.016C397.749 387.692 397.017 386.9 397.017 385.664C397.017 384.296 398.037 383.324 399.597 383.192V382.148H400.365V383.18C401.817 383.312 402.741 384.2 402.825 385.592H401.661C401.613 384.824 401.145 384.332 400.365 384.224V387.2L400.833 387.308C402.273 387.632 402.969 388.388 402.969 389.588C402.969 391.016 401.949 391.976 400.365 392.12V393.164H399.597ZM399.405 386.972L399.597 387.02V384.224C398.709 384.344 398.169 384.86 398.169 385.628C398.169 386.324 398.565 386.768 399.405 386.972ZM400.593 388.352L400.365 388.304V391.076C401.265 390.956 401.817 390.44 401.817 389.684C401.817 388.988 401.421 388.544 400.593 388.352ZM410.224 392.144C408.448 392.144 407.296 391.016 407.296 389.288H408.46C408.46 390.404 409.144 391.088 410.248 391.088C411.424 391.088 412.18 390.308 412.18 389.132C412.18 388.016 411.472 387.188 410.26 387.188C409.528 387.188 408.856 387.536 408.46 388.028L407.464 387.776L408.52 383.324H412.864V384.404H409.372L408.796 386.708C409.252 386.36 409.828 386.18 410.476 386.18C412.24 386.18 413.38 387.416 413.38 389.084C413.38 390.884 412.096 392.144 410.224 392.144ZM417.314 392.144C415.538 392.144 414.386 391.016 414.386 389.288H415.55C415.55 390.404 416.234 391.088 417.338 391.088C418.514 391.088 419.27 390.308 419.27 389.132C419.27 388.016 418.562 387.188 417.35 387.188C416.618 387.188 415.946 387.536 415.55 388.028L414.554 387.776L415.61 383.324H419.954V384.404H416.462L415.886 386.708C416.342 386.36 416.918 386.18 417.566 386.18C419.33 386.18 420.47 387.416 420.47 389.084C420.47 390.884 419.186 392.144 417.314 392.144ZM423.15 391.532C423.15 392.396 422.502 393.116 421.65 393.224V392.72C422.142 392.636 422.49 392.312 422.49 391.94C422.406 391.988 422.31 392.012 422.166 392.012C421.77 392.012 421.434 391.724 421.434 391.28C421.434 390.8 421.758 390.452 422.238 390.452C422.742 390.452 423.15 390.872 423.15 391.532ZM427.205 392.144C425.429 392.144 424.277 391.016 424.277 389.288H425.441C425.441 390.404 426.125 391.088 427.229 391.088C428.405 391.088 429.161 390.308 429.161 389.132C429.161 388.016 428.453 387.188 427.241 387.188C426.509 387.188 425.837 387.536 425.441 388.028L424.445 387.776L425.501 383.324H429.845V384.404H426.353L425.777 386.708C426.233 386.36 426.809 386.18 427.457 386.18C429.221 386.18 430.361 387.416 430.361 389.084C430.361 390.884 429.077 392.144 427.205 392.144ZM431.379 387.668C431.379 384.98 432.771 383.156 434.955 383.156C437.127 383.156 438.519 384.98 438.519 387.668C438.519 390.368 437.187 392.156 434.955 392.156C432.711 392.156 431.379 390.368 431.379 387.668ZM432.543 387.668C432.543 389.804 433.431 391.1 434.955 391.1C436.479 391.1 437.355 389.804 437.355 387.668C437.355 385.508 436.479 384.212 434.955 384.212C433.431 384.212 432.543 385.508 432.543 387.668ZM439.699 387.668C439.699 384.98 441.091 383.156 443.275 383.156C445.447 383.156 446.839 384.98 446.839 387.668C446.839 390.368 445.507 392.156 443.275 392.156C441.031 392.156 439.699 390.368 439.699 387.668ZM440.863 387.668C440.863 389.804 441.751 391.1 443.275 391.1C444.799 391.1 445.675 389.804 445.675 387.668C445.675 385.508 444.799 384.212 443.275 384.212C441.751 384.212 440.863 385.508 440.863 387.668Z" fill="#192104"/>
<rect x="479" y="271.5" width="5" height="5" rx="1" fill="#00954A"/>
<rect x="479" y="309.5" width="5" height="5" rx="1" fill="#00954A"/>
<rect x="479" y="347.5" width="5" height="5" rx="1" fill="#00954A"/>
<rect x="479" y="385.5" width="5" height="5" rx="1" fill="#00954A"/>
<path d="M491.876 279H489.008V270.324H491.828C494.42 270.324 496.172 272.076 496.172 274.668C496.172 277.248 494.444 279 491.876 279ZM491.744 271.404H490.184V277.908H491.792C493.724 277.908 494.948 276.66 494.948 274.668C494.948 272.652 493.724 271.404 491.744 271.404ZM500.836 273.084V274.116H500.332C499.264 274.116 498.604 274.764 498.604 275.892V279H497.476V273.144H498.532L498.604 274.032C498.844 273.42 499.432 273.012 500.236 273.012C500.44 273.012 500.608 273.036 500.836 273.084ZM503.376 279.144C502.116 279.144 501.372 278.436 501.372 277.368C501.372 276.288 502.176 275.616 503.556 275.508L505.404 275.364V275.196C505.404 274.212 504.816 273.864 504.024 273.864C503.076 273.864 502.536 274.284 502.536 274.992H501.552C501.552 273.768 502.56 272.964 504.072 272.964C505.524 272.964 506.508 273.732 506.508 275.316V279H505.548L505.428 278.052C505.128 278.724 504.324 279.144 503.376 279.144ZM503.7 278.268C504.768 278.268 505.416 277.572 505.416 276.468V276.156L503.916 276.276C502.92 276.372 502.512 276.756 502.512 277.332C502.512 277.956 502.968 278.268 503.7 278.268ZM507.411 273.132H508.275V272.196C508.275 270.756 509.055 270.168 510.075 270.168C510.291 270.168 510.555 270.18 510.771 270.216V271.188H510.267C509.583 271.188 509.403 271.56 509.403 272.196V273.132H512.151V271.296H513.279V273.132H514.431V274.08H513.279V279H512.151V274.08H509.403V279H508.275V274.08H507.411V273.132Z" fill="#192104"/>
<path d="M488.504 310.664C488.504 309.176 489.704 308.168 491.492 308.168C493.148 308.168 494.216 309.092 494.312 310.592H493.124C493.064 309.728 492.452 309.224 491.48 309.224C490.388 309.224 489.68 309.776 489.68 310.628C489.68 311.324 490.076 311.744 490.892 311.936L492.32 312.272C493.736 312.596 494.456 313.364 494.456 314.588C494.456 316.148 493.244 317.144 491.396 317.144C489.632 317.144 488.456 316.22 488.384 314.732H489.584C489.608 315.56 490.304 316.088 491.396 316.088C492.548 316.088 493.28 315.548 493.28 314.684C493.28 314 492.908 313.568 492.08 313.376L490.652 313.052C489.236 312.728 488.504 311.912 488.504 310.664ZM498.274 317.144C496.546 317.144 495.358 315.896 495.358 314.072C495.358 312.236 496.522 310.964 498.226 310.964C499.894 310.964 500.986 312.116 500.986 313.856V314.276L496.45 314.288C496.534 315.524 497.182 316.208 498.298 316.208C499.174 316.208 499.75 315.848 499.942 315.176H500.998C500.71 316.436 499.726 317.144 498.274 317.144ZM498.226 311.912C497.242 311.912 496.618 312.5 496.474 313.532H499.858C499.858 312.56 499.222 311.912 498.226 311.912ZM503.374 317H502.246V311.132H503.266L503.386 312.032C503.758 311.36 504.502 310.964 505.33 310.964C506.878 310.964 507.586 311.912 507.586 313.412V317H506.458V313.664C506.458 312.476 505.906 311.996 505.042 311.996C503.986 311.996 503.374 312.752 503.374 313.892V317ZM510.804 317H509.676V312.08H508.524V311.132H509.676V309.296H510.804V311.132H511.956V312.08H510.804V317Z" fill="#192104"/>
<path d="M492.608 355.132C490.136 355.132 488.492 353.356 488.492 350.668C488.492 347.992 490.184 346.18 492.668 346.18C494.624 346.18 496.124 347.344 496.448 349.12H495.188C494.864 347.992 493.892 347.308 492.632 347.308C490.88 347.308 489.728 348.628 489.728 350.656C489.728 352.684 490.88 354.004 492.632 354.004C493.904 354.004 494.912 353.32 495.236 352.252H496.484C496.112 353.98 494.564 355.132 492.608 355.132ZM501.094 349.084V350.116H500.59C499.522 350.116 498.862 350.764 498.862 351.892V355H497.734V349.144H498.79L498.862 350.032C499.102 349.42 499.69 349.012 500.494 349.012C500.698 349.012 500.866 349.036 501.094 349.084ZM504.473 355.144C502.745 355.144 501.557 353.896 501.557 352.072C501.557 350.236 502.721 348.964 504.425 348.964C506.093 348.964 507.185 350.116 507.185 351.856V352.276L502.649 352.288C502.733 353.524 503.381 354.208 504.497 354.208C505.373 354.208 505.949 353.848 506.141 353.176H507.197C506.909 354.436 505.925 355.144 504.473 355.144ZM504.425 349.912C503.441 349.912 502.817 350.5 502.673 351.532H506.057C506.057 350.56 505.421 349.912 504.425 349.912ZM510.797 355.144C509.093 355.144 508.061 353.872 508.061 352.084C508.061 350.284 509.105 348.964 510.845 348.964C511.745 348.964 512.501 349.36 512.897 350.08V346.168H514.013V355H513.005L512.909 353.932C512.525 354.736 511.733 355.144 510.797 355.144ZM511.025 354.124C512.177 354.124 512.885 353.272 512.885 352.048C512.885 350.848 512.177 349.984 511.025 349.984C509.873 349.984 509.201 350.848 509.201 352.048C509.201 353.26 509.873 354.124 511.025 354.124ZM516.192 347.74C515.784 347.74 515.448 347.404 515.448 346.996C515.448 346.576 515.784 346.252 516.192 346.252C516.6 346.252 516.936 346.576 516.936 346.996C516.936 347.404 516.6 347.74 516.192 347.74ZM515.64 355V349.132H516.768V355H515.64ZM520.062 355H518.934V350.08H517.782V349.132H518.934V347.296H520.062V349.132H521.214V350.08H520.062V355Z" fill="#192104"/>
<path d="M492.38 389.904H490.184V393H489.008V384.324H492.38C494.084 384.324 495.176 385.44 495.176 387.108C495.176 388.728 494.072 389.904 492.38 389.904ZM492.176 385.38H490.184V388.848H492.128C493.292 388.848 493.94 388.164 493.94 387.096C493.94 386.004 493.28 385.38 492.176 385.38ZM497.798 393.144C496.538 393.144 495.794 392.436 495.794 391.368C495.794 390.288 496.598 389.616 497.978 389.508L499.826 389.364V389.196C499.826 388.212 499.238 387.864 498.446 387.864C497.498 387.864 496.958 388.284 496.958 388.992H495.974C495.974 387.768 496.982 386.964 498.494 386.964C499.946 386.964 500.93 387.732 500.93 389.316V393H499.97L499.85 392.052C499.55 392.724 498.746 393.144 497.798 393.144ZM498.122 392.268C499.19 392.268 499.838 391.572 499.838 390.468V390.156L498.338 390.276C497.342 390.372 496.934 390.756 496.934 391.332C496.934 391.956 497.39 392.268 498.122 392.268ZM503.044 385.74C502.636 385.74 502.3 385.404 502.3 384.996C502.3 384.576 502.636 384.252 503.044 384.252C503.452 384.252 503.788 384.576 503.788 384.996C503.788 385.404 503.452 385.74 503.044 385.74ZM502.492 393V387.132H503.62V393H502.492ZM507.609 393.144C505.905 393.144 504.873 391.872 504.873 390.084C504.873 388.284 505.917 386.964 507.657 386.964C508.557 386.964 509.313 387.36 509.709 388.08V384.168H510.825V393H509.817L509.721 391.932C509.337 392.736 508.545 393.144 507.609 393.144ZM507.837 392.124C508.989 392.124 509.697 391.272 509.697 390.048C509.697 388.848 508.989 387.984 507.837 387.984C506.685 387.984 506.013 388.848 506.013 390.048C506.013 391.26 506.685 392.124 507.837 392.124Z" fill="#192104"/>
<path d="M45.8517 150.292L45.3621 147.036C44.9913 146.909 44.592 146.725 44.1642 146.484C43.7364 146.244 43.3677 145.988 43.058 145.719L40.0288 147.098L37.8643 143.271L40.6018 141.256C40.5656 141.066 40.5396 140.858 40.5236 140.633C40.5076 140.408 40.4997 140.201 40.4997 140.011C40.4997 139.827 40.5076 139.623 40.5236 139.398C40.5396 139.173 40.5656 138.955 40.6018 138.744L37.8643 136.719L40.0288 132.923L43.0475 134.281C43.3781 134.012 43.7503 133.758 44.1642 133.521C44.5781 133.283 44.974 133.107 45.3517 132.992L45.8517 129.708H50.1475L50.6371 132.975C51.0357 133.122 51.4343 133.305 51.8329 133.523C52.2316 133.741 52.5906 133.994 52.91 134.281L55.9808 132.923L58.135 136.719L55.3558 138.731C55.4058 138.947 55.4371 139.163 55.4496 139.381C55.4621 139.599 55.4683 139.806 55.4683 140C55.4683 140.188 55.4604 140.388 55.4444 140.6C55.4284 140.813 55.3989 141.033 55.3558 141.263L58.1246 143.271L55.96 147.098L52.91 145.708C52.5725 145.992 52.2083 146.253 51.8173 146.493C51.4263 146.732 51.0329 146.91 50.6371 147.025L50.1475 150.292H45.8517ZM47.9684 143.052C48.8184 143.052 49.5395 142.756 50.1319 142.164C50.7242 141.571 51.0204 140.85 51.0204 140C51.0204 139.15 50.7242 138.429 50.1319 137.837C49.5395 137.244 48.8184 136.948 47.9684 136.948C47.1253 136.948 46.4059 137.244 45.8101 137.837C45.2142 138.429 44.9163 139.15 44.9163 140C44.9163 140.85 45.2142 141.571 45.8101 142.164C46.4059 142.756 47.1253 143.052 47.9684 143.052Z" fill="#EAEDD6"/>
<path d="M38.7816 204.667C38.3426 204.667 37.9638 204.507 37.6451 204.189C37.3263 203.87 37.167 203.491 37.167 203.052V189.49C37.167 189.051 37.3263 188.672 37.6451 188.353C37.9638 188.034 38.3426 187.875 38.7816 187.875H56.8218C57.2608 187.875 57.6397 188.034 57.9584 188.353C58.2771 188.672 58.4365 189.051 58.4365 189.49V203.052C58.4365 203.491 58.2771 203.87 57.9584 204.189C57.6397 204.507 57.2608 204.667 56.8218 204.667H38.7816ZM38.4371 195.364H57.1663V192.432H38.4371V195.364Z" fill="#EAEDD6"/>
<path d="M48.1295 251.535C48.5503 251.034 48.8527 250.504 49.0368 249.946C49.2208 249.387 49.3128 248.756 49.3128 248.051C49.3128 247.346 49.2208 246.716 49.0368 246.161C48.8527 245.606 48.5503 245.078 48.1295 244.577C49.2933 244.353 50.3058 244.566 51.1669 245.216C52.028 245.865 52.4586 246.812 52.4586 248.056C52.4586 249.301 52.028 250.246 51.1669 250.891C50.3058 251.537 49.2933 251.752 48.1295 251.535ZM53.7399 259.916V257.892C53.7399 257.097 53.5537 256.359 53.1815 255.679C52.8093 254.998 52.1531 254.433 51.2128 253.981C53.6558 254.309 55.3568 254.796 56.3159 255.444C57.2749 256.091 57.7544 256.907 57.7544 257.892V259.916H53.7399ZM56.2919 252.631V250.069H53.7294V248.839H56.2919V246.277H57.521V248.839H60.0835V250.069H57.521V252.631H56.2919ZM43.943 251.65C42.8968 251.65 42.0372 251.312 41.3641 250.635C40.6911 249.958 40.3545 249.097 40.3545 248.051C40.3545 247.005 40.6911 246.145 41.3641 245.472C42.0372 244.799 42.8968 244.462 43.943 244.462C44.9892 244.462 45.8505 244.799 46.5271 245.472C47.2037 246.145 47.5419 247.005 47.5419 248.051C47.5419 249.097 47.2037 249.958 46.5271 250.635C45.8505 251.312 44.9892 251.65 43.943 251.65ZM35.917 259.916V257.86C35.917 257.319 36.0667 256.822 36.366 256.37C36.6653 255.918 37.0705 255.576 37.5816 255.344C38.7844 254.814 39.8819 254.427 40.8743 254.181C41.8666 253.935 42.8896 253.812 43.943 253.812C44.9965 253.812 46.0149 253.935 46.9982 254.181C47.9815 254.427 49.0781 254.814 50.2878 255.344C50.792 255.576 51.1982 255.918 51.5065 256.37C51.8148 256.822 51.969 257.319 51.969 257.86V259.916H35.917Z" fill="#EAEDD6"/>
<defs>
<filter id="filter0_f_226_5059" x="-102.5" y="10" width="566" height="542" filterUnits="userSpaceOnUse" color-interpolation-filters="sRGB">
<feFlood flood-opacity="0" result="BackgroundImageFix"/>
<feBlend mode="normal" in="SourceGraphic" in2="BackgroundImageFix" result="shape"/>
<feGaussianBlur stdDeviation="102" result="effect1_foregroundBlur_226_5059"/>
</filter>
</defs>
</svg>
