<svg width="25" height="24" viewBox="0 0 25 24" fill="none" xmlns="http://www.w3.org/2000/svg">
<g id="readiness_score">
<mask id="mask0_149_4792" style="mask-type:alpha" maskUnits="userSpaceOnUse" x="0" y="0" width="25" height="24">
<rect id="Bounding box" x="0.5" width="24" height="24" fill="#D9D9D9"/>
</mask>
<g mask="url(#mask0_149_4792)">
<path id="readiness_score_2" d="M7.8845 20.525C7.35517 20.5083 6.85167 20.3717 6.374 20.1152C5.8965 19.8589 5.44492 19.4827 5.01925 18.9865C4.38458 18.2442 3.88942 17.3461 3.53375 16.2922C3.17792 15.2384 3 14.1506 3 13.0287C3 11.7096 3.24808 10.4705 3.74425 9.3115C4.24042 8.1525 4.91767 7.14383 5.776 6.2855C6.63433 5.42717 7.64142 4.74833 8.79725 4.249C9.95292 3.74967 11.1872 3.5 12.5 3.5C13.8128 3.5 15.0471 3.75225 16.2028 4.25675C17.3586 4.76125 18.3641 5.44617 19.2193 6.3115C20.0744 7.177 20.7517 8.19275 21.251 9.35875C21.7503 10.5247 22 11.7744 22 13.1077C22 14.2884 21.8092 15.4067 21.4277 16.4625C21.0464 17.5182 20.5109 18.4166 19.8212 19.1577C19.3929 19.6116 18.9477 19.9529 18.4855 20.1817C18.0233 20.4106 17.5448 20.525 17.05 20.525C16.782 20.525 16.5173 20.4923 16.2557 20.427C15.9942 20.3615 15.7327 20.2634 15.4712 20.1327L14.0712 19.4327C13.8328 19.3134 13.5802 19.224 13.3135 19.1645C13.0468 19.1048 12.7725 19.075 12.4905 19.075C12.202 19.075 11.926 19.1048 11.6625 19.1645C11.399 19.224 11.1512 19.3134 10.9193 19.4327L9.52875 20.1327C9.25058 20.2801 8.97817 20.3865 8.7115 20.452C8.44483 20.5173 8.16917 20.5417 7.8845 20.525ZM7.925 19.025C8.075 19.025 8.22917 19.0083 8.3875 18.975C8.54583 18.9417 8.7 18.8833 8.85 18.8L10.25 18.1C10.6 17.9167 10.9625 17.7833 11.3375 17.7C11.7125 17.6167 12.0917 17.575 12.475 17.575C12.8583 17.575 13.2417 17.6167 13.625 17.7C14.0083 17.7833 14.375 17.9167 14.725 18.1L16.15 18.8C16.3 18.8833 16.45 18.9417 16.6 18.975C16.75 19.0083 16.9 19.025 17.05 19.025C17.3667 19.025 17.6683 18.9417 17.9548 18.775C18.2413 18.6083 18.5262 18.3583 18.8095 18.025C19.3428 17.3917 19.7579 16.6333 20.0548 15.75C20.3516 14.8667 20.5 13.9552 20.5 13.0155C20.5 10.7822 19.725 8.88792 18.175 7.33275C16.625 5.77758 14.7333 5 12.5 5C10.2667 5 8.375 5.78333 6.825 7.35C5.275 8.91667 4.5 10.8167 4.5 13.05C4.5 14 4.65575 14.925 4.96725 15.825C5.27875 16.725 5.70633 17.4833 6.25 18.1C6.53333 18.4333 6.80833 18.6708 7.075 18.8125C7.34167 18.9542 7.625 19.025 7.925 19.025ZM12.5 14.75C12.9858 14.75 13.399 14.5798 13.7395 14.2395C14.0798 13.899 14.25 13.4858 14.25 13C14.25 12.8603 14.2327 12.7222 14.198 12.5855C14.1635 12.449 14.1148 12.3173 14.052 12.1905L15.6 10.1595C15.8052 10.3827 15.9847 10.6279 16.1385 10.8952C16.2923 11.1626 16.4205 11.4507 16.523 11.7595H18.073C17.7845 10.4275 17.1214 9.34292 16.0837 8.50575C15.0459 7.66858 13.8513 7.25 12.5 7.25C11.1487 7.25 9.94992 7.67117 8.90375 8.5135C7.85775 9.35583 7.19558 10.4378 6.91725 11.7595H8.45775C8.73592 10.8532 9.24933 10.125 9.998 9.575C10.7468 9.025 11.5808 8.75 12.5 8.75C12.8538 8.75 13.1894 8.79258 13.5068 8.87775C13.8241 8.96308 14.1283 9.08458 14.4193 9.24225L12.8558 11.3037C12.8033 11.2911 12.744 11.2789 12.678 11.2672C12.6118 11.2557 12.5525 11.25 12.5 11.25C12.0142 11.25 11.601 11.4202 11.2605 11.7605C10.9202 12.101 10.75 12.5142 10.75 13C10.75 13.4858 10.9202 13.899 11.2605 14.2395C11.601 14.5798 12.0142 14.75 12.5 14.75Z" fill="#1C1B1F"/>
</g>
</g>
</svg>
