<svg width="25" height="24" viewBox="0 0 25 24" fill="none" xmlns="http://www.w3.org/2000/svg">
<g id="restore_page">
<mask id="mask0_284_1501" style="mask-type:alpha" maskUnits="userSpaceOnUse" x="0" y="0" width="25" height="24">
<rect id="Bounding box" x="0.666656" width="24" height="24" fill="#D9D9D9"/>
</mask>
<g mask="url(#mask0_284_1501)">
<path id="restore_page_2" d="M12.6667 17.4423C13.8897 17.4423 14.9358 17.0077 15.8052 16.1385C16.6743 15.2692 17.1089 14.223 17.1089 13C17.1089 11.777 16.6743 10.7308 15.8052 9.8615C14.9358 8.99233 13.8897 8.55775 12.6667 8.55775C11.9948 8.55775 11.3903 8.69367 10.8532 8.9655C10.316 9.23717 9.84999 9.573 9.45516 9.973V8.34625H8.26291V12.0963H12.0129V10.9038H10.2319C10.5026 10.5718 10.8507 10.2965 11.2762 10.078C11.7018 9.85933 12.1653 9.75 12.6667 9.75C13.5667 9.75 14.3333 10.0667 14.9667 10.7C15.6 11.3333 15.9167 12.1 15.9167 13C15.9167 13.9 15.6 14.6667 14.9667 15.3C14.3333 15.9333 13.5667 16.25 12.6667 16.25C11.9333 16.25 11.2917 16.0375 10.7417 15.6125C10.1917 15.1875 9.79999 14.65 9.56666 14H8.32441C8.57691 15.0257 9.10191 15.8558 9.89941 16.4902C10.6967 17.1249 11.6192 17.4423 12.6667 17.4423ZM6.97441 21.5C6.46924 21.5 6.04166 21.325 5.69166 20.975C5.34166 20.625 5.16666 20.1974 5.16666 19.6923V4.30775C5.16666 3.80258 5.34166 3.375 5.69166 3.025C6.04166 2.675 6.46924 2.5 6.97441 2.5H14.4552L20.1667 8.2115V19.6923C20.1667 20.1974 19.9917 20.625 19.6417 20.975C19.2917 21.325 18.8641 21.5 18.3589 21.5H6.97441ZM6.97441 20H18.3589C18.4359 20 18.5064 19.9679 18.5704 19.9038C18.6346 19.8398 18.6667 19.7693 18.6667 19.6923V8.85L13.8167 4H6.97441C6.89741 4 6.82691 4.03208 6.76291 4.09625C6.69874 4.16025 6.66666 4.23075 6.66666 4.30775V19.6923C6.66666 19.7693 6.69874 19.8398 6.76291 19.9038C6.82691 19.9679 6.89741 20 6.97441 20Z" fill="#1C1B1F"/>
</g>
</g>
</svg>
