<svg width="20" height="20" viewBox="0 0 20 20" fill="none" xmlns="http://www.w3.org/2000/svg">
<g id="search">
<path id="Vector" d="M16.4711 17.1346L11.0641 11.7276C10.6495 12.0944 10.1661 12.3771 9.61388 12.5756C9.06163 12.7741 8.49001 12.8734 7.89903 12.8734C6.48412 12.8734 5.28665 12.3837 4.30661 11.4044C3.32657 10.425 2.83655 9.23751 2.83655 7.84189C2.83655 6.44626 3.32623 5.25833 4.30559 4.27809C5.28495 3.29786 6.47397 2.80774 7.87265 2.80774C9.27135 2.80774 10.4606 3.29755 11.4405 4.27718C12.4203 5.25679 12.9102 6.44466 12.9102 7.8408C12.9102 8.42452 12.8103 8.99282 12.6105 9.5457C12.4108 10.0986 12.1218 10.5994 11.7435 11.0481L17.1634 16.4343L16.4711 17.1346ZM7.88621 11.9279C9.02448 11.9279 9.9888 11.5313 10.7792 10.738C11.5695 9.94475 11.9647 8.97893 11.9647 7.84057C11.9647 6.70223 11.5695 5.73641 10.7792 4.94314C9.9888 4.14987 9.02448 3.75324 7.88621 3.75324C6.74083 3.75324 5.77045 4.14987 4.97509 4.94314C4.17973 5.73641 3.78205 6.70223 3.78205 7.84057C3.78205 8.97893 4.17973 9.94475 4.97509 10.738C5.77045 11.5313 6.74083 11.9279 7.88621 11.9279Z" fill="#BFBFBF"/>
</g>
</svg>
