<svg width="1323" height="540" viewBox="0 0 1323 540" fill="none" xmlns="http://www.w3.org/2000/svg">
<path d="M1.0001 1.40667e-05L1 540" stroke="url(#paint0_linear_194_195)"/>
<path d="M48.1661 1.40667e-05L48.166 540" stroke="url(#paint1_linear_194_195)"/>
<path d="M95.3341 1.40667e-05L95.334 540" stroke="url(#paint2_linear_194_195)"/>
<path d="M142.5 1.40667e-05L142.5 540" stroke="url(#paint3_linear_194_195)"/>
<path d="M189.667 1.40667e-05L189.667 540" stroke="url(#paint4_linear_194_195)"/>
<path d="M236.834 1.40667e-05L236.834 540" stroke="url(#paint5_linear_194_195)"/>
<path d="M284 1.40667e-05L284 540" stroke="url(#paint6_linear_194_195)"/>
<path d="M331.167 1.40667e-05L331.167 540" stroke="url(#paint7_linear_194_195)"/>
<path d="M378.334 1.40667e-05L378.334 540" stroke="url(#paint8_linear_194_195)"/>
<path d="M425.502 1.40667e-05L425.502 540" stroke="url(#paint9_linear_194_195)"/>
<path d="M472.666 1.40667e-05L472.666 540" stroke="url(#paint10_linear_194_195)"/>
<path d="M519.834 1.40667e-05L519.834 540" stroke="url(#paint11_linear_194_195)"/>
<path d="M567 1.40667e-05L567 540" stroke="url(#paint12_linear_194_195)"/>
<path d="M614.168 1.40667e-05L614.168 540" stroke="url(#paint13_linear_194_195)"/>
<path d="M661.334 1.40667e-05L661.334 540" stroke="url(#paint14_linear_194_195)"/>
<path d="M708.5 1.40667e-05L708.5 540" stroke="url(#paint15_linear_194_195)"/>
<path d="M755.668 1.40667e-05L755.668 540" stroke="url(#paint16_linear_194_195)"/>
<path d="M802.834 1.40667e-05L802.834 540" stroke="url(#paint17_linear_194_195)"/>
<path d="M850 1.40667e-05L850 540" stroke="url(#paint18_linear_194_195)"/>
<path d="M897.168 1.40667e-05L897.168 540" stroke="url(#paint19_linear_194_195)"/>
<path d="M944.334 1.40667e-05L944.334 540" stroke="url(#paint20_linear_194_195)"/>
<path d="M991.5 1.40667e-05L991.5 540" stroke="url(#paint21_linear_194_195)"/>
<path d="M1038.67 1.40667e-05L1038.67 540" stroke="url(#paint22_linear_194_195)"/>
<path d="M1085.83 1.40667e-05L1085.83 540" stroke="url(#paint23_linear_194_195)"/>
<path d="M1133 1.40667e-05L1133 540" stroke="url(#paint24_linear_194_195)"/>
<path d="M1180.17 1.40667e-05L1180.17 540" stroke="url(#paint25_linear_194_195)"/>
<path d="M1227.33 1.40667e-05L1227.33 540" stroke="url(#paint26_linear_194_195)"/>
<path d="M1274.5 1.40667e-05L1274.5 540" stroke="url(#paint27_linear_194_195)"/>
<path d="M1321.67 1.40667e-05L1321.67 540" stroke="url(#paint28_linear_194_195)"/>
<defs>
<linearGradient id="paint0_linear_194_195" x1="0.5" y1="540" x2="0.500023" y2="-2.16775e-08" gradientUnits="userSpaceOnUse">
<stop stop-color="#10633A"/>
<stop offset="1" stop-color="#0C492B"/>
</linearGradient>
<linearGradient id="paint1_linear_194_195" x1="47.666" y1="540" x2="47.666" y2="-2.16775e-08" gradientUnits="userSpaceOnUse">
<stop stop-color="#10633A"/>
<stop offset="1" stop-color="#0C492B"/>
</linearGradient>
<linearGradient id="paint2_linear_194_195" x1="94.834" y1="540" x2="94.834" y2="-2.16775e-08" gradientUnits="userSpaceOnUse">
<stop stop-color="#10633A"/>
<stop offset="1" stop-color="#0C492B"/>
</linearGradient>
<linearGradient id="paint3_linear_194_195" x1="142" y1="540" x2="142" y2="-2.16775e-08" gradientUnits="userSpaceOnUse">
<stop stop-color="#10633A"/>
<stop offset="1" stop-color="#0C492B"/>
</linearGradient>
<linearGradient id="paint4_linear_194_195" x1="189.167" y1="540" x2="189.167" y2="-2.16775e-08" gradientUnits="userSpaceOnUse">
<stop stop-color="#10633A"/>
<stop offset="1" stop-color="#0C492B"/>
</linearGradient>
<linearGradient id="paint5_linear_194_195" x1="236.334" y1="540" x2="236.334" y2="-2.16775e-08" gradientUnits="userSpaceOnUse">
<stop stop-color="#10633A"/>
<stop offset="1" stop-color="#0C492B"/>
</linearGradient>
<linearGradient id="paint6_linear_194_195" x1="283.5" y1="540" x2="283.5" y2="-2.16775e-08" gradientUnits="userSpaceOnUse">
<stop stop-color="#10633A"/>
<stop offset="1" stop-color="#0C492B"/>
</linearGradient>
<linearGradient id="paint7_linear_194_195" x1="330.667" y1="540" x2="330.667" y2="-2.16775e-08" gradientUnits="userSpaceOnUse">
<stop stop-color="#10633A"/>
<stop offset="1" stop-color="#0C492B"/>
</linearGradient>
<linearGradient id="paint8_linear_194_195" x1="377.834" y1="540" x2="377.834" y2="-2.16775e-08" gradientUnits="userSpaceOnUse">
<stop stop-color="#10633A"/>
<stop offset="1" stop-color="#0C492B"/>
</linearGradient>
<linearGradient id="paint9_linear_194_195" x1="425.002" y1="540" x2="425.002" y2="-2.16775e-08" gradientUnits="userSpaceOnUse">
<stop stop-color="#10633A"/>
<stop offset="1" stop-color="#0C492B"/>
</linearGradient>
<linearGradient id="paint10_linear_194_195" x1="472.166" y1="540" x2="472.166" y2="-2.16775e-08" gradientUnits="userSpaceOnUse">
<stop stop-color="#10633A"/>
<stop offset="1" stop-color="#0C492B"/>
</linearGradient>
<linearGradient id="paint11_linear_194_195" x1="519.334" y1="540" x2="519.334" y2="-2.16775e-08" gradientUnits="userSpaceOnUse">
<stop stop-color="#10633A"/>
<stop offset="1" stop-color="#0C492B"/>
</linearGradient>
<linearGradient id="paint12_linear_194_195" x1="566.5" y1="540" x2="566.5" y2="-2.16775e-08" gradientUnits="userSpaceOnUse">
<stop stop-color="#10633A"/>
<stop offset="1" stop-color="#0C492B"/>
</linearGradient>
<linearGradient id="paint13_linear_194_195" x1="613.668" y1="540" x2="613.668" y2="-2.16775e-08" gradientUnits="userSpaceOnUse">
<stop stop-color="#10633A"/>
<stop offset="1" stop-color="#0C492B"/>
</linearGradient>
<linearGradient id="paint14_linear_194_195" x1="660.834" y1="540" x2="660.834" y2="-2.16775e-08" gradientUnits="userSpaceOnUse">
<stop stop-color="#10633A"/>
<stop offset="1" stop-color="#0C492B"/>
</linearGradient>
<linearGradient id="paint15_linear_194_195" x1="708" y1="540" x2="708" y2="-2.16775e-08" gradientUnits="userSpaceOnUse">
<stop stop-color="#10633A"/>
<stop offset="1" stop-color="#0C492B"/>
</linearGradient>
<linearGradient id="paint16_linear_194_195" x1="755.168" y1="540" x2="755.168" y2="-2.16775e-08" gradientUnits="userSpaceOnUse">
<stop stop-color="#10633A"/>
<stop offset="1" stop-color="#0C492B"/>
</linearGradient>
<linearGradient id="paint17_linear_194_195" x1="802.334" y1="540" x2="802.334" y2="-2.16775e-08" gradientUnits="userSpaceOnUse">
<stop stop-color="#10633A"/>
<stop offset="1" stop-color="#0C492B"/>
</linearGradient>
<linearGradient id="paint18_linear_194_195" x1="849.5" y1="540" x2="849.5" y2="-2.16775e-08" gradientUnits="userSpaceOnUse">
<stop stop-color="#10633A"/>
<stop offset="1" stop-color="#0C492B"/>
</linearGradient>
<linearGradient id="paint19_linear_194_195" x1="896.668" y1="540" x2="896.668" y2="-2.16775e-08" gradientUnits="userSpaceOnUse">
<stop stop-color="#10633A"/>
<stop offset="1" stop-color="#0C492B"/>
</linearGradient>
<linearGradient id="paint20_linear_194_195" x1="943.834" y1="540" x2="943.834" y2="-2.16775e-08" gradientUnits="userSpaceOnUse">
<stop stop-color="#10633A"/>
<stop offset="1" stop-color="#0C492B"/>
</linearGradient>
<linearGradient id="paint21_linear_194_195" x1="991" y1="540" x2="991" y2="-2.16775e-08" gradientUnits="userSpaceOnUse">
<stop stop-color="#10633A"/>
<stop offset="1" stop-color="#0C492B"/>
</linearGradient>
<linearGradient id="paint22_linear_194_195" x1="1038.17" y1="540" x2="1038.17" y2="-2.16775e-08" gradientUnits="userSpaceOnUse">
<stop stop-color="#10633A"/>
<stop offset="1" stop-color="#0C492B"/>
</linearGradient>
<linearGradient id="paint23_linear_194_195" x1="1085.33" y1="540" x2="1085.33" y2="-2.16775e-08" gradientUnits="userSpaceOnUse">
<stop stop-color="#10633A"/>
<stop offset="1" stop-color="#0C492B"/>
</linearGradient>
<linearGradient id="paint24_linear_194_195" x1="1132.5" y1="540" x2="1132.5" y2="-2.16775e-08" gradientUnits="userSpaceOnUse">
<stop stop-color="#10633A"/>
<stop offset="1" stop-color="#0C492B"/>
</linearGradient>
<linearGradient id="paint25_linear_194_195" x1="1179.67" y1="540" x2="1179.67" y2="-2.16775e-08" gradientUnits="userSpaceOnUse">
<stop stop-color="#10633A"/>
<stop offset="1" stop-color="#0C492B"/>
</linearGradient>
<linearGradient id="paint26_linear_194_195" x1="1226.83" y1="540" x2="1226.83" y2="-2.16775e-08" gradientUnits="userSpaceOnUse">
<stop stop-color="#10633A"/>
<stop offset="1" stop-color="#0C492B"/>
</linearGradient>
<linearGradient id="paint27_linear_194_195" x1="1274" y1="540" x2="1274" y2="-2.16775e-08" gradientUnits="userSpaceOnUse">
<stop stop-color="#10633A"/>
<stop offset="1" stop-color="#0C492B"/>
</linearGradient>
<linearGradient id="paint28_linear_194_195" x1="1321.17" y1="540" x2="1321.17" y2="-2.16775e-08" gradientUnits="userSpaceOnUse">
<stop stop-color="#10633A"/>
<stop offset="1" stop-color="#0C492B"/>
</linearGradient>
</defs>
</svg>
