<svg width="335" height="335" viewBox="0 0 335 335" fill="none" xmlns="http://www.w3.org/2000/svg">
<rect width="335" height="335" rx="16" fill="#E31F26"/>
<g clip-path="url(#clip0_238_772)">
<path d="M83.0645 249.537C82.3635 249.002 81.5858 248.575 80.7576 248.271L78.4077 247.413C78.161 247.327 77.8498 247.22 77.4957 247.07C77.135 246.92 76.7929 246.729 76.4764 246.501C76.1431 246.261 75.859 245.958 75.6395 245.61C75.3966 245.186 75.2776 244.704 75.2961 244.215C75.2976 243.848 75.3668 243.485 75.5 243.142C75.6346 242.752 75.8382 242.388 76.1008 242.069C76.3697 241.752 76.6976 241.489 77.0665 241.297C77.4843 241.094 77.9435 240.991 78.4077 240.996C78.7705 241.007 79.1307 241.061 79.4807 241.157C79.8721 241.264 80.2374 241.45 80.5537 241.705C80.8985 241.995 81.1704 242.362 81.3477 242.778C81.5789 243.285 81.6891 243.84 81.6696 244.398H85.0602C85.0721 243.483 84.9006 242.574 84.5559 241.726C84.2425 240.957 83.7709 240.263 83.1718 239.687C82.5757 239.107 81.8623 238.661 81.0795 238.378C80.2221 238.073 79.3178 237.92 78.4077 237.928C77.4144 237.902 76.4292 238.111 75.5322 238.539C74.7662 238.919 74.0783 239.44 73.5042 240.074C72.978 240.67 72.5702 241.362 72.3025 242.112C72.0508 242.8 71.9165 243.526 71.9055 244.258C71.907 245.071 72.0337 245.877 72.281 246.651C72.5075 247.397 72.9212 248.073 73.4828 248.615C73.73 248.855 73.9916 249.081 74.266 249.291C74.5472 249.517 74.8531 249.712 75.1781 249.87C75.5981 250.096 76.0317 250.297 76.4764 250.471L78.4077 251.222C78.8047 251.394 79.2232 251.555 79.6631 251.726C80.0908 251.89 80.4949 252.11 80.8649 252.381C81.2429 252.668 81.554 253.034 81.7769 253.454C82.0387 253.944 82.1647 254.497 82.1417 255.052C82.1716 255.581 82.0917 256.112 81.907 256.607C81.7224 257.104 81.437 257.558 81.0687 257.939C80.7169 258.286 80.2994 258.56 79.8407 258.744C79.382 258.928 78.8912 259.019 78.397 259.012C77.6766 259.05 76.9627 258.858 76.3584 258.465C75.8888 258.133 75.5001 257.701 75.221 257.198C74.9826 256.76 74.8194 256.285 74.7382 255.793C74.6797 255.467 74.6438 255.136 74.6309 254.806H71.2403C71.2088 255.952 71.44 257.089 71.9162 258.132C72.3262 258.997 72.9065 259.77 73.6223 260.407C74.2951 260.991 75.08 261.433 75.9292 261.705C76.726 261.967 77.5584 262.104 78.397 262.113C79.3946 262.127 80.3856 261.949 81.3155 261.587C82.156 261.251 82.919 260.747 83.558 260.106C84.1782 259.465 84.67 258.711 85.0065 257.885C85.3552 256.992 85.5301 256.043 85.5216 255.085C85.5725 253.913 85.3291 252.748 84.8134 251.694C84.3942 250.856 83.7974 250.12 83.0645 249.537ZM100.468 253.529C100.597 255.035 100.148 256.535 99.2128 257.724C98.7914 258.171 98.2794 258.52 97.7112 258.752C97.143 258.983 96.5317 259.09 95.9187 259.065C95.3434 259.071 94.7711 258.984 94.2234 258.808C93.695 258.642 93.2181 258.342 92.8393 257.939C92.4043 257.469 92.088 256.902 91.9165 256.286C91.6718 255.422 91.5596 254.524 91.5839 253.625V244.215H88.365V253.625C88.315 255.044 88.5148 256.46 88.9551 257.81C89.3021 258.778 89.889 259.642 90.6611 260.321C91.2935 260.87 92.0207 261.298 92.8071 261.587C93.6968 261.896 94.6334 262.048 95.5754 262.038C96.6241 262.05 97.6647 261.85 98.6334 261.447C99.4899 261.116 100.211 260.508 100.683 259.72H100.747V261.619H103.73V244.215H100.511L100.468 253.529ZM116.348 252.263C115.821 251.857 115.235 251.535 114.61 251.308L113.226 250.836C112.872 250.728 112.528 250.621 112.207 250.503C111.899 250.403 111.607 250.262 111.337 250.085C111.102 249.922 110.901 249.714 110.747 249.473C110.589 249.199 110.51 248.887 110.522 248.572C110.516 248.322 110.563 248.074 110.661 247.844C110.759 247.615 110.906 247.409 111.091 247.241C111.502 246.889 112.03 246.705 112.571 246.726C113.116 246.703 113.649 246.886 114.063 247.241C114.488 247.666 114.747 248.229 114.792 248.829H118.011C118.023 247.987 117.82 247.156 117.421 246.415C117.084 245.801 116.62 245.267 116.059 244.848C115.546 244.456 114.963 244.164 114.342 243.99C113.8 243.836 113.241 243.753 112.679 243.743C111.911 243.734 111.149 243.876 110.436 244.162C109.793 244.427 109.206 244.813 108.709 245.299C108.252 245.758 107.887 246.301 107.636 246.898C107.387 247.482 107.26 248.109 107.26 248.743C107.23 249.532 107.404 250.315 107.764 251.018C108.077 251.586 108.496 252.089 108.998 252.499C109.482 252.875 110.017 253.182 110.586 253.411C111.155 253.625 111.659 253.819 112.164 253.98C112.668 254.14 112.968 254.28 113.355 254.441C113.699 254.575 114.024 254.756 114.32 254.977C114.586 255.16 114.809 255.398 114.975 255.675C115.131 255.976 115.208 256.312 115.2 256.651C115.218 256.974 115.165 257.297 115.045 257.598C114.924 257.898 114.739 258.168 114.503 258.389C114.005 258.833 113.355 259.067 112.689 259.044C112.29 259.073 111.889 259.011 111.517 258.862C111.146 258.713 110.813 258.482 110.543 258.186C110.012 257.529 109.718 256.712 109.706 255.868H106.488C106.453 256.902 106.682 257.929 107.153 258.851C107.54 259.593 108.086 260.241 108.752 260.75C109.348 261.209 110.03 261.545 110.758 261.737C111.373 261.908 112.008 262.001 112.646 262.016C113.485 262.031 114.32 261.886 115.104 261.587C115.788 261.311 116.412 260.902 116.938 260.385C117.442 259.887 117.834 259.288 118.086 258.626C118.355 257.942 118.49 257.213 118.483 256.48C118.515 255.586 118.295 254.702 117.85 253.926C117.461 253.28 116.951 252.716 116.348 252.263ZM125.05 238.378H121.831V244.215H119.481V247.198H121.831V261.619H125.05V247.198H127.915V244.215H125.05V238.378ZM143.795 246.662H143.741C143.126 245.722 142.255 244.977 141.231 244.516C140.17 244.018 139.011 243.766 137.84 243.776C136.434 243.739 135.038 244.029 133.763 244.623C132.669 245.137 131.691 245.867 130.887 246.769C130.134 247.641 129.555 248.651 129.181 249.741C128.814 250.775 128.621 251.863 128.612 252.96C128.613 254.107 128.82 255.245 129.224 256.319C129.628 257.391 130.237 258.374 131.016 259.216C131.834 260.091 132.824 260.789 133.924 261.265C135.162 261.789 136.496 262.048 137.84 262.027C139.009 262.03 140.165 261.769 141.22 261.265C142.279 260.745 143.157 259.918 143.741 258.894H143.806V261.619H147.025V244.215H143.806L143.795 246.662ZM143.387 255.31C143.089 256.035 142.651 256.694 142.1 257.252C141.554 257.81 140.905 258.259 140.19 258.572C139.435 258.9 138.62 259.069 137.797 259.065C136.974 259.069 136.16 258.888 135.415 258.54C134.705 258.215 134.066 257.751 133.537 257.177C133.01 256.609 132.595 255.946 132.314 255.224C132.017 254.499 131.868 253.722 131.874 252.939C131.879 252.209 131.998 251.485 132.228 250.793C132.461 250.064 132.824 249.384 133.301 248.786C133.816 248.168 134.451 247.661 135.168 247.295C135.981 246.892 136.88 246.694 137.786 246.715C138.595 246.71 139.397 246.864 140.147 247.166C140.857 247.464 141.506 247.894 142.057 248.432C142.613 248.993 143.051 249.662 143.344 250.396C143.664 251.202 143.824 252.061 143.816 252.928C143.835 253.742 143.689 254.552 143.387 255.31ZM151.048 261.608H154.267V244.215H151.048V261.608ZM151.048 242.209H154.267V238.378H151.048V242.209ZM172.604 246.855C171.986 245.876 171.115 245.083 170.082 244.559C168.958 243.998 167.713 243.718 166.456 243.743H165.619C165.178 243.771 164.742 243.855 164.321 243.99C163.792 244.163 163.284 244.398 162.808 244.688C162.245 245.041 161.757 245.5 161.37 246.039H161.306V244.183H158.258V261.619H161.531V252.134C161.43 250.682 161.877 249.247 162.786 248.11C163.209 247.654 163.725 247.295 164.299 247.058C164.873 246.821 165.492 246.711 166.112 246.737C166.999 246.68 167.879 246.91 168.623 247.391C169.175 247.793 169.615 248.328 169.9 248.947C170.17 249.514 170.334 250.124 170.383 250.75C170.383 251.361 170.437 251.823 170.437 252.166V261.619H173.709V251.319C173.695 250.462 173.594 249.61 173.409 248.776C173.243 248.097 172.972 247.448 172.604 246.855ZM191.757 246.662H191.692C191.077 245.722 190.206 244.977 189.181 244.516C188.121 244.019 186.963 243.767 185.791 243.776C184.385 243.739 182.989 244.029 181.714 244.623C180.62 245.137 179.642 245.867 178.838 246.769C178.086 247.641 177.506 248.651 177.132 249.741C176.765 250.775 176.573 251.863 176.563 252.96C176.564 254.107 176.771 255.245 177.175 256.319C177.585 257.417 178.212 258.422 179.02 259.271C179.827 260.121 180.798 260.799 181.874 261.265C183.113 261.789 184.447 262.048 185.791 262.027C186.96 262.03 188.116 261.769 189.171 261.265C190.23 260.745 191.109 259.918 191.692 258.894H191.757V261.619H194.976V244.215H191.757V246.662ZM191.349 255.31C191.051 256.035 190.613 256.694 190.061 257.252C189.516 257.81 188.867 258.259 188.151 258.572C187.397 258.901 186.583 259.07 185.759 259.065C184.936 259.07 184.122 258.891 183.377 258.54C182.665 258.218 182.027 257.753 181.499 257.177C180.949 256.601 180.515 255.923 180.222 255.181C179.935 254.454 179.789 253.678 179.793 252.896C179.798 252.166 179.917 251.442 180.147 250.75C180.38 250.021 180.744 249.341 181.22 248.743C181.735 248.125 182.37 247.618 183.087 247.252C183.9 246.849 184.798 246.65 185.705 246.673C186.499 246.659 187.288 246.802 188.025 247.097C188.762 247.393 189.433 247.831 189.997 248.389C190.554 248.95 190.992 249.619 191.284 250.353C191.604 251.159 191.765 252.018 191.757 252.885C191.788 253.712 191.649 254.537 191.349 255.31ZM214.557 246.318C212.89 244.688 210.656 243.765 208.323 243.743C207.172 243.732 206.03 243.965 204.976 244.43C203.925 244.896 203.021 245.637 202.358 246.576H202.293V238.325H198.999V261.619H202.218V259.098H202.283C202.708 259.667 203.231 260.159 203.828 260.546C204.337 260.901 204.884 261.201 205.459 261.437C205.969 261.65 206.501 261.805 207.047 261.898C207.501 261.97 207.961 262.01 208.42 262.016C209.635 262.029 210.837 261.783 211.95 261.297C213.014 260.835 213.977 260.168 214.783 259.334C215.586 258.489 216.227 257.503 216.671 256.426C217.135 255.304 217.367 254.1 217.358 252.885C217.374 251.615 217.117 250.357 216.607 249.194C216.111 248.115 215.416 247.139 214.557 246.318ZM213.57 255.321C213.27 256.054 212.829 256.72 212.272 257.284C211.73 257.837 211.085 258.278 210.373 258.583C209.669 258.901 208.904 259.065 208.13 259.065C207.395 259.058 206.667 258.912 205.984 258.636C205.279 258.354 204.634 257.939 204.085 257.413C203.514 256.858 203.055 256.2 202.733 255.471C202.379 254.64 202.204 253.745 202.218 252.842C202.218 252.072 202.36 251.308 202.637 250.589C202.919 249.869 203.325 249.204 203.838 248.625C204.376 248.019 205.037 247.536 205.778 247.208C206.519 246.881 207.321 246.717 208.13 246.726C208.949 246.713 209.759 246.886 210.502 247.23C211.212 247.556 211.85 248.019 212.379 248.593C212.914 249.167 213.336 249.838 213.624 250.567C213.915 251.313 214.064 252.106 214.064 252.907C214.06 253.738 213.885 254.56 213.549 255.321H213.57ZM220.33 261.608H223.549V244.215H220.33V261.608ZM220.33 242.209H223.549V238.378H220.33V242.209ZM227.53 261.619H230.749V238.378H227.53V261.619ZM234.762 242.22H237.98V238.389H234.762V242.22ZM234.762 261.619H237.98V244.215H234.762V261.619ZM245.92 238.389H242.702V244.226H240.309V247.209H242.669V261.619H245.888V247.198H248.742V244.215H245.888L245.92 238.389ZM263.625 244.226L258.388 257.724L253.27 244.226H249.751L256.693 261.265L254.15 267.413H257.541L267.133 244.215L263.625 244.226Z" fill="white"/>
<path d="M222.133 129.407C217.879 129.407 213.738 130.775 210.321 133.31C206.905 135.845 204.395 139.413 203.162 143.484H241.103C239.872 139.412 237.364 135.844 233.946 133.308C230.53 130.773 226.388 129.405 222.133 129.407ZM222.133 89.8785C212.614 89.8701 203.218 92.0369 194.665 96.2135C186.111 100.39 178.623 106.466 172.776 113.978C171.382 115.749 170.089 117.598 168.902 119.514C165.543 124.899 163.031 130.769 161.456 136.918C158.58 148.141 160.522 159.74 155.63 170.556C152.157 178.249 146.538 184.776 139.446 189.354C132.354 193.932 124.092 196.364 115.651 196.361H114.159V178.7C114.159 168.535 116.438 161.024 120.994 156.167C125.551 151.31 131.81 148.907 139.771 148.957H141.027V124.01C133.874 123.695 128.215 125.265 124.052 128.72C119.675 132.443 116.275 137.18 114.149 142.519V124.933H90.275V188.238C84.7845 184.338 80.2663 179.226 77.0708 173.297C73.8755 167.369 72.0888 160.784 71.8495 154.054C71.6102 147.323 72.9247 140.628 75.691 134.488C78.4573 128.347 82.6011 122.927 87.8007 118.647C93.0004 114.367 99.1162 111.342 105.674 109.807C112.231 108.273 119.054 108.27 125.613 109.798C132.172 111.326 138.291 114.345 143.495 118.62C148.698 122.896 152.847 128.312 155.619 134.45C157.599 127.143 160.775 120.214 165.018 113.945C156.991 103.667 145.955 96.1501 133.45 92.4443C120.946 88.7383 107.597 89.0278 95.2645 93.2723C82.9325 97.5169 72.2328 105.505 64.6581 116.122C57.0834 126.739 53.0116 139.455 53.0105 152.497C53.0105 169.111 59.6101 185.044 71.3574 196.791C83.1048 208.538 99.0377 215.138 115.651 215.138C126.312 215.122 136.794 212.393 146.11 207.209C155.427 202.024 163.27 194.554 168.902 185.502C173.57 177.991 176.059 169.493 177.282 160.759C178.538 151.779 178.355 142.884 182.164 134.45C186.558 124.714 194.354 116.916 204.09 112.521C213.825 108.125 224.829 107.434 235.037 110.576C245.246 113.719 253.957 120.479 259.535 129.589C265.112 138.698 267.173 149.53 265.331 160.051H202.755C203.375 162.911 204.629 165.595 206.424 167.905C208.275 170.3 210.651 172.238 213.366 173.572C216.083 174.905 219.069 175.599 222.095 175.599C225.122 175.599 228.108 174.905 230.824 173.572C233.541 172.238 235.915 170.3 237.766 167.905H263.153C260.099 176.031 254.702 183.068 247.646 188.126C240.59 193.183 232.193 196.031 223.517 196.314C214.84 196.595 206.275 194.295 198.906 189.706C191.538 185.117 185.697 178.445 182.121 170.534C180.148 177.841 176.975 184.77 172.733 191.039C179.273 199.417 187.835 205.993 197.616 210.149C207.396 214.305 218.075 215.904 228.645 214.797C239.213 213.688 249.327 209.909 258.033 203.816C266.741 197.721 273.754 189.512 278.413 179.96C283.071 170.409 285.225 159.829 284.668 149.216C284.111 138.603 280.863 128.307 275.23 119.295C269.597 110.283 261.764 102.853 252.468 97.703C243.172 92.5531 232.718 89.8531 222.09 89.8571L222.133 89.8785Z" fill="white"/>
</g>
<defs>
<clipPath id="clip0_238_772">
<rect width="335" height="199" fill="white" transform="translate(0 80)"/>
</clipPath>
</defs>
</svg>
