<svg width="114" height="148" viewBox="0 0 114 148" fill="none" xmlns="http://www.w3.org/2000/svg">
<g id="users-love-us 1" clip-path="url(#clip0_4_265)">
<g id="Layer_2">
<path id="Fill-1_3_" d="M9.84238 109.238L57.8391 133.662L104.013 109.238V13.7307H9.84238V109.238Z" fill="white"/>
<path id="Path-2_3_" d="M104.985 14.0955L8.87027 110.939L58.6896 135.606L104.985 111.912V14.0955Z" fill="#F2F3F2"/>
<path id="outline_3_" d="M6.68307 45.5668V111.304L8.38422 112.155L56.3809 136.578L57.8391 137.307L59.2972 136.578L105.593 112.155L107.294 111.304V10.5718H6.68307V45.5668ZM9.84235 109.481V13.7311H104.135V109.481L57.8391 133.905L9.84235 109.481Z" fill="#DCDEDC"/>
<path id="g2_3_" d="M56.9885 15.3107C57.4745 15.3107 57.9606 15.3107 58.4466 15.4322L56.9885 18.227C54.8013 18.1054 52.8571 19.8066 52.7356 21.9938C52.6141 24.181 54.3152 26.1251 56.5024 26.2467H56.9885C57.9606 26.2467 58.9326 25.8821 59.6617 25.2746L61.2414 27.9478C60.0262 28.7984 58.5681 29.2844 56.9885 29.2844C53.1001 29.4059 49.8194 26.4897 49.6978 22.6013C49.5763 18.713 52.4926 15.4322 56.3809 15.3107H56.9885ZM61.9704 21.2647L63.7931 24.3025L61.9704 27.2187L60.2693 24.3025H56.7455L58.5681 21.2647H61.9704ZM59.0542 20.1711C59.0542 19.6851 59.1757 19.199 59.4187 18.8345C59.6617 18.47 60.1478 18.1054 60.5123 17.8624L60.7553 17.7409C61.2414 17.4979 61.3629 17.3764 61.3629 17.1334C61.3629 16.8903 60.9983 16.6473 60.7553 16.6473C60.2693 16.6473 59.9047 16.8903 59.6617 17.3764L59.0542 16.7688C59.1757 16.5258 59.4187 16.2828 59.6617 16.0398C60.0262 15.7967 60.3908 15.7967 60.7553 15.7967C61.1198 15.7967 61.6059 15.9182 61.8489 16.1613C62.0919 16.4043 62.3349 16.7688 62.3349 17.1334C62.3349 17.7409 61.9704 18.2269 61.2414 18.47L60.8768 18.713C60.5123 18.956 60.2693 19.0775 60.1478 19.4421H62.3349V20.2926L59.0542 20.1711ZM56.9885 35.36L68.532 28.7984V10.5718H45.3235V28.6769L56.9885 35.36Z" fill="#FF492C"/>
</g>
<g id="Layer_1">
<path id="Vector" d="M28.312 59.6618V48.9689C28.312 48.8473 28.4335 48.7258 28.555 48.7258H31.3498C31.4713 48.7258 31.5928 48.8473 31.5928 48.9689V59.6618C31.5928 61.2414 32.6864 62.4565 34.3875 62.4565C36.0887 62.4565 37.1823 61.3629 37.1823 59.6618V48.9689C37.1823 48.8473 37.3038 48.7258 37.4253 48.7258H40.22C40.3416 48.7258 40.4631 48.8473 40.4631 48.9689V59.6618C40.4631 63.0641 38.0329 65.2513 34.3875 65.2513C30.7422 65.2513 28.312 62.9426 28.312 59.6618ZM42.5287 61.7275V61.4845C42.5287 61.3629 42.6503 61.2414 42.7718 61.2414H45.3235C45.445 61.2414 45.5665 61.3629 45.5665 61.4845C45.5665 62.2135 46.4171 62.6996 47.6322 62.6996C48.7258 62.6996 49.4549 62.2135 49.4549 61.606C49.4549 60.6339 47.6322 60.6339 45.931 60.0263C44.3514 59.5403 42.6503 58.6897 42.6503 56.624C42.6503 54.3153 44.5944 52.8572 47.6322 52.8572C50.67 52.8572 52.6141 54.4368 52.6141 56.624C52.6141 56.7455 52.4926 56.867 52.3711 56.867H49.8194C49.6979 56.867 49.5764 56.7455 49.5764 56.624C49.5764 55.895 48.8473 55.4089 47.6322 55.4089C46.6601 55.4089 45.931 55.7735 45.931 56.5025C45.931 57.4746 47.5107 57.4746 49.3333 58.0822C51.156 58.5682 52.9787 59.4188 52.9787 61.606C52.9787 63.9147 50.913 65.2513 47.8752 65.2513C44.5944 65.2513 42.5287 63.7932 42.5287 61.7275ZM65.4943 59.7833C65.4943 60.0263 65.3728 60.0263 65.1297 60.0263H57.8391C57.7176 60.0263 57.7176 60.0263 57.7176 60.1478C57.7176 60.5124 57.8391 60.7554 57.9606 61.1199C58.3251 61.9705 59.0542 62.4565 60.3908 62.4565C61.4844 62.4565 62.2135 61.9705 62.821 61.2414C62.9425 61.1199 63.0641 60.9984 63.1856 61.2414L64.8867 62.9426C65.0082 63.0641 65.0082 63.1856 64.8867 63.3071C63.7931 64.6437 62.092 65.3728 60.1478 65.3728C57.4746 65.3728 55.6519 64.0362 54.8013 61.849C54.4368 60.9984 54.3153 60.1478 54.3153 58.9327C54.3153 58.0822 54.4368 57.2316 54.6798 56.5025C55.4089 54.3153 57.2315 52.8572 59.7833 52.8572C62.9425 52.8572 64.8867 54.9229 65.2512 57.8391C65.4943 58.4467 65.4943 59.0542 65.4943 59.7833ZM57.9606 56.9886C57.8391 57.2316 57.8391 57.4746 57.8391 57.7176C57.8391 57.8391 57.8391 57.8391 57.9606 57.8391H61.9705C62.092 57.8391 62.092 57.8391 62.092 57.7176C62.092 57.4746 61.9705 57.2316 61.9705 57.1101C61.7274 56.138 60.9984 55.6519 59.9048 55.6519C58.9327 55.6519 58.3251 56.138 57.9606 56.9886ZM74.9721 53.2217C75.0936 53.3432 75.0936 53.4647 75.0936 53.5863L74.6076 56.2595C74.6076 56.5025 74.4861 56.5025 74.243 56.381C73.8785 56.2595 73.3925 56.2595 72.9064 56.2595C71.8128 56.381 70.8407 57.1101 70.8407 58.3252V64.7652C70.8407 64.8868 70.7192 65.0083 70.5977 65.0083H67.803C67.6815 65.0083 67.5599 64.8868 67.5599 64.7652V53.3432C67.5599 53.2217 67.6815 53.1002 67.803 53.1002H70.5977C70.7192 53.1002 70.8407 53.2217 70.8407 53.3432V54.1938C70.8407 54.3153 70.9622 54.3153 70.9622 54.3153C71.5698 53.4647 72.4204 52.8572 73.514 52.8572C74.243 52.8572 74.6076 52.9787 74.9721 53.2217ZM75.9442 61.7275V61.4845C75.9442 61.3629 76.0657 61.2414 76.1872 61.2414H78.7389C78.8604 61.2414 78.982 61.3629 78.982 61.4845C78.982 62.2135 79.8325 62.6996 81.0476 62.6996C82.1412 62.6996 82.8703 62.2135 82.8703 61.606C82.8703 60.6339 81.0476 60.6339 79.3465 60.0263C77.7668 59.5403 76.0657 58.6897 76.0657 56.624C76.0657 54.3153 78.0099 52.8572 81.0476 52.8572C84.0854 52.8572 86.0296 54.4368 86.0296 56.624C86.0296 56.7455 85.9081 56.867 85.7865 56.867H83.2348C83.1133 56.867 82.9918 56.7455 82.9918 56.624C82.9918 55.895 82.2627 55.4089 81.0476 55.4089C80.0755 55.4089 79.3465 55.7735 79.3465 56.5025C79.3465 57.4746 80.9261 57.4746 82.7488 58.0822C84.5714 58.5682 86.3941 59.4188 86.3941 61.606C86.3941 63.9147 84.3284 65.2513 81.2907 65.2513C78.0099 65.2513 75.9442 63.7932 75.9442 61.7275ZM17.7406 84.45V68.6536C17.7406 68.5321 17.8621 68.4106 17.9836 68.4106H20.7783C20.8998 68.4106 21.0214 68.5321 21.0214 68.6536V81.7767C21.0214 81.8983 21.0214 81.8982 21.1429 81.8982H28.798C28.9196 81.8982 29.0411 82.0198 29.0411 82.1413V84.45C29.0411 84.5715 28.9196 84.693 28.798 84.693H17.9836C17.8621 84.693 17.7406 84.5715 17.7406 84.45ZM30.9852 81.0477C30.7422 80.3186 30.6207 79.468 30.6207 78.6175C30.6207 77.7669 30.7422 76.7948 30.9852 76.1872C31.7143 73.8785 33.6585 72.5419 36.3317 72.5419C38.8834 72.5419 40.8276 74.0001 41.5567 76.1872C41.7997 76.9163 41.9212 77.7669 41.9212 78.6175C41.9212 79.468 41.7997 80.3186 41.5567 80.9262C40.8276 83.3564 38.8834 84.8145 36.3317 84.8145C33.6585 84.936 31.5928 83.4779 30.9852 81.0477ZM38.3974 80.3186C38.5189 79.8326 38.6404 79.225 38.6404 78.739C38.6404 78.1314 38.5189 77.5239 38.3974 77.0378C38.0329 75.9442 37.3038 75.3367 36.3317 75.3367C35.2381 75.3367 34.509 75.9442 34.266 77.0378C34.023 77.4024 34.023 78.0099 34.023 78.739C34.023 79.3465 34.023 79.9541 34.1445 80.3186C34.509 81.4122 35.2381 82.0198 36.3317 82.0198C37.3038 82.1413 38.0329 81.4122 38.3974 80.3186ZM46.4171 84.45L42.6503 72.9065C42.5287 72.6634 42.6503 72.5419 42.8933 72.5419H45.931C46.0526 72.5419 46.1741 72.6634 46.2956 72.7849L48.2397 79.8326C48.2397 79.9541 48.3613 79.9541 48.3613 79.8326L50.3054 72.7849C50.3054 72.6634 50.4269 72.5419 50.67 72.5419H53.7077C53.9508 72.5419 54.0723 72.6634 53.9508 72.9065L50.1839 84.3285C50.1839 84.45 50.0624 84.5715 49.8194 84.5715H46.7816C46.5386 84.693 46.4171 84.693 46.4171 84.45ZM65.6158 79.468C65.6158 79.7111 65.4943 79.7111 65.2512 79.7111H57.9606C57.8391 79.7111 57.8391 79.7111 57.8391 79.8326C57.8391 80.1971 57.9606 80.4401 58.0821 80.8046C58.4466 81.6552 59.1757 82.1413 60.5123 82.1413C61.6059 82.1413 62.335 81.6552 62.9425 80.9262C63.064 80.8046 63.1856 80.6831 63.3071 80.9262L65.0082 82.6273C65.1297 82.7488 65.1297 82.8703 65.0082 82.9918C63.9146 84.3285 62.2135 85.0575 60.2693 85.0575C57.5961 85.0575 55.7734 83.7209 54.9228 81.5337C54.5583 80.6831 54.4368 79.8326 54.4368 78.6175C54.4368 77.7669 54.5583 76.9163 54.8013 76.1872C55.5304 74.0001 57.353 72.5419 59.9048 72.5419C63.064 72.5419 65.0082 74.6076 65.3727 77.5239C65.6158 78.1314 65.6158 78.739 65.6158 79.468ZM58.0821 76.6733C57.9606 76.9163 57.9606 77.1593 57.9606 77.4024C57.9606 77.5239 57.9606 77.5239 58.0821 77.5239H62.092C62.2135 77.5239 62.2135 77.5239 62.2135 77.4024C62.2135 77.1593 62.092 76.9163 62.092 76.7948C61.8489 75.8227 61.1199 75.3367 60.0263 75.3367C58.9327 75.3367 58.3251 75.8227 58.0821 76.6733ZM72.4204 79.3465V68.6536C72.4204 68.5321 72.5419 68.4106 72.6634 68.4106H75.4581C75.5797 68.4106 75.7012 68.5321 75.7012 68.6536V79.3465C75.7012 80.9262 76.7948 82.1413 78.4959 82.1413C80.1971 82.1413 81.2907 81.0477 81.2907 79.3465V68.6536C81.2907 68.5321 81.4122 68.4106 81.5337 68.4106H84.3284C84.4499 68.4106 84.5714 68.5321 84.5714 68.6536V79.3465C84.5714 82.7488 82.1412 84.936 78.4959 84.936C74.8506 84.936 72.4204 82.6273 72.4204 79.3465ZM86.6371 81.4122V81.1692C86.6371 81.0477 86.7586 80.9262 86.8801 80.9262H89.4319C89.5534 80.9262 89.6749 81.0477 89.6749 81.1692C89.6749 81.8983 90.5255 82.3843 91.7406 82.3843C92.8342 82.3843 93.5632 81.8982 93.5632 81.2907C93.5632 80.3186 91.7406 80.3186 90.0394 79.7111C88.4598 79.225 86.7586 78.3744 86.7586 76.3088C86.7586 74.0001 88.7028 72.5419 91.7406 72.5419C94.7783 72.5419 96.7225 74.1216 96.7225 76.3088C96.7225 76.4303 96.601 76.5518 96.4795 76.5518H93.9278C93.8063 76.5518 93.6847 76.4303 93.6847 76.3088C93.6847 75.5797 92.9557 75.0936 91.7406 75.0936C90.7685 75.0936 90.0394 75.4582 90.0394 76.1872C90.0394 77.1593 91.6191 77.1593 93.4417 77.7669C95.2644 78.2529 97.087 79.1035 97.087 81.2907C97.087 83.5994 95.0214 84.936 91.9836 84.936C88.7028 84.936 86.6371 83.4779 86.6371 81.4122Z" fill="#252530"/>
<path id="Vector_2" d="M23.4516 98.667H47.7537V99.6391H23.4516V98.667ZM66.9524 98.667H91.2545V99.6391H66.9524V98.667Z" fill="#DCDEDC"/>
<path id="Vector_3" d="M51.5205 97.5734L55.2873 96.9658L57.2315 93.199L59.0542 96.8443L63.064 97.5734L60.2693 100.368L60.8768 104.378L57.2315 102.677L53.5862 104.378L54.0722 100.368L51.5205 97.5734Z" fill="#DCDEDC"/>
</g>
</g>
<defs>
<clipPath id="clip0_4_265">
<rect width="113.977" height="148" fill="white"/>
</clipPath>
</defs>
</svg>
