<svg width="115" height="149" viewBox="0 0 115 149" fill="none" xmlns="http://www.w3.org/2000/svg">
<g clip-path="url(#clip0_1404_4761)">
<path d="M10.6906 109.325L58.6873 133.749L104.861 109.325V13.8176H10.6906V109.325Z" fill="white"/>
<path d="M105.833 14.1824L9.71848 111.026L59.5378 135.693L105.833 111.998V14.1824Z" fill="#F2F3F2"/>
<path d="M7.53128 45.6538V111.391L9.23243 112.242L57.2291 136.665L58.6873 137.394L60.1454 136.665L106.441 112.242L108.142 111.391V10.6587H7.53128V45.6538ZM10.6906 109.568V13.818H104.983V109.568L58.6873 133.992L10.6906 109.568Z" fill="#DCDEDC"/>
<path d="M57.8367 15.3976C58.3227 15.3976 58.8088 15.3976 59.2948 15.5191L57.8367 18.3139C55.6495 18.1924 53.7053 19.8935 53.5838 22.0807C53.4623 24.2679 55.1635 26.2121 57.3506 26.3336H57.8367C58.8088 26.3336 59.7809 25.969 60.5099 25.3615L62.0896 28.0347C60.8745 28.8853 59.4163 29.3713 57.8367 29.3713C53.9483 29.4928 50.6676 26.5766 50.546 22.6882C50.4245 18.7999 53.3408 15.5191 57.2291 15.3976H57.8367ZM62.8186 21.3516L64.6413 24.3894L62.8186 27.3057L61.1175 24.3894H57.5937L59.4163 21.3516H62.8186ZM59.9024 20.258C59.9024 19.772 60.0239 19.2859 60.2669 18.9214C60.5099 18.5569 60.996 18.1924 61.3605 17.9493L61.6035 17.8278C62.0896 17.5848 62.2111 17.4633 62.2111 17.2203C62.2111 16.9772 61.8465 16.7342 61.6035 16.7342C61.1175 16.7342 60.7529 16.9772 60.5099 17.4633L59.9024 16.8557C60.0239 16.6127 60.2669 16.3697 60.5099 16.1267C60.8745 15.8837 61.239 15.8837 61.6035 15.8837C61.968 15.8837 62.4541 16.0052 62.6971 16.2482C62.9401 16.4912 63.1832 16.8557 63.1832 17.2203C63.1832 17.8278 62.8186 18.3139 62.0896 18.5569L61.725 18.7999C61.3605 19.0429 61.1175 19.1644 60.996 19.529H63.1832V20.3795L59.9024 20.258ZM57.8367 35.4469L69.3802 28.8853V10.6587H46.1717V28.7638L57.8367 35.4469Z" fill="#FF492C"/>
<path d="M29.1602 59.7487V49.0558C29.1602 48.9343 29.2817 48.8127 29.4032 48.8127H32.198C32.3195 48.8127 32.441 48.9343 32.441 49.0558V59.7487C32.441 61.3283 33.5346 62.5435 35.2357 62.5435C36.9369 62.5435 38.0305 61.4499 38.0305 59.7487V49.0558C38.0305 48.9343 38.152 48.8127 38.2735 48.8127H41.0682C41.1898 48.8127 41.3113 48.9343 41.3113 49.0558V59.7487C41.3113 63.151 38.8811 65.3382 35.2357 65.3382C31.5904 65.3382 29.1602 63.0295 29.1602 59.7487ZM43.377 61.8144V61.5714C43.377 61.4499 43.4985 61.3283 43.62 61.3283H46.1717C46.2932 61.3283 46.4147 61.4499 46.4147 61.5714C46.4147 62.3004 47.2653 62.7865 48.4804 62.7865C49.574 62.7865 50.3031 62.3004 50.3031 61.6929C50.3031 60.7208 48.4804 60.7208 46.7793 60.1132C45.1996 59.6272 43.4985 58.7766 43.4985 56.7109C43.4985 54.4022 45.4426 52.9441 48.4804 52.9441C51.5182 52.9441 53.4623 54.5237 53.4623 56.7109C53.4623 56.8324 53.3408 56.954 53.2193 56.954H50.6676C50.5461 56.954 50.4246 56.8324 50.4246 56.7109C50.4246 55.9819 49.6955 55.4958 48.4804 55.4958C47.5083 55.4958 46.7793 55.8604 46.7793 56.5894C46.7793 57.5615 48.3589 57.5615 50.1815 58.1691C52.0042 58.6551 53.8269 59.5057 53.8269 61.6929C53.8269 64.0016 51.7612 65.3382 48.7234 65.3382C45.4426 65.3382 43.377 63.8801 43.377 61.8144ZM66.3425 59.8702C66.3425 60.1132 66.221 60.1132 65.9779 60.1132H58.6873C58.5658 60.1132 58.5658 60.1132 58.5658 60.2347C58.5658 60.5993 58.6873 60.8423 58.8088 61.2068C59.1733 62.0574 59.9024 62.5435 61.239 62.5435C62.3326 62.5435 63.0617 62.0574 63.6692 61.3283C63.7907 61.2068 63.9123 61.0853 64.0338 61.3283L65.7349 63.0295C65.8564 63.151 65.8564 63.2725 65.7349 63.394C64.6413 64.7306 62.9402 65.4597 60.996 65.4597C58.3228 65.4597 56.5001 64.1231 55.6495 61.9359C55.285 61.0853 55.1635 60.2347 55.1635 59.0196C55.1635 58.1691 55.285 57.3185 55.528 56.5894C56.2571 54.4022 58.0797 52.9441 60.6315 52.9441C63.7907 52.9441 65.7349 55.0098 66.0994 57.926C66.3425 58.5336 66.3425 59.1412 66.3425 59.8702ZM58.8088 57.0755C58.6873 57.3185 58.6873 57.5615 58.6873 57.8045C58.6873 57.926 58.6873 57.926 58.8088 57.926H62.8187C62.9402 57.926 62.9402 57.926 62.9402 57.8045C62.9402 57.5615 62.8187 57.3185 62.8187 57.197C62.5756 56.2249 61.8466 55.7389 60.753 55.7389C59.7809 55.7389 59.1733 56.2249 58.8088 57.0755ZM75.8203 53.3086C75.9418 53.4302 75.9418 53.5517 75.9418 53.6732L75.4558 56.3464C75.4558 56.5894 75.3343 56.5894 75.0912 56.4679C74.7267 56.3464 74.2407 56.3464 73.7546 56.3464C72.661 56.4679 71.6889 57.197 71.6889 58.4121V64.8522C71.6889 64.9737 71.5674 65.0952 71.4459 65.0952H68.6512C68.5297 65.0952 68.4081 64.9737 68.4081 64.8522V53.4302C68.4081 53.3086 68.5297 53.1871 68.6512 53.1871H71.4459C71.5674 53.1871 71.6889 53.3086 71.6889 53.4302V54.2807C71.6889 54.4022 71.8105 54.4022 71.8105 54.4022C72.418 53.5517 73.2686 52.9441 74.3622 52.9441C75.0912 52.9441 75.4558 53.0656 75.8203 53.3086ZM76.7924 61.8144V61.5714C76.7924 61.4499 76.9139 61.3283 77.0354 61.3283H79.5871C79.7086 61.3283 79.8302 61.4499 79.8302 61.5714C79.8302 62.3004 80.6807 62.7865 81.8958 62.7865C82.9894 62.7865 83.7185 62.3004 83.7185 61.6929C83.7185 60.7208 81.8958 60.7208 80.1947 60.1132C78.6151 59.6272 76.9139 58.7766 76.9139 56.7109C76.9139 54.4022 78.8581 52.9441 81.8958 52.9441C84.9336 52.9441 86.8778 54.5237 86.8778 56.7109C86.8778 56.8324 86.7563 56.954 86.6348 56.954H84.083C83.9615 56.954 83.84 56.8324 83.84 56.7109C83.84 55.9819 83.1109 55.4958 81.8958 55.4958C80.9237 55.4958 80.1947 55.8604 80.1947 56.5894C80.1947 57.5615 81.7743 57.5615 83.597 58.1691C85.4196 58.6551 87.2423 59.5057 87.2423 61.6929C87.2423 64.0016 85.1766 65.3382 82.1389 65.3382C78.8581 65.3382 76.7924 63.8801 76.7924 61.8144ZM18.5888 84.5369V68.7405C18.5888 68.619 18.7103 68.4975 18.8318 68.4975H21.6265C21.7481 68.4975 21.8696 68.619 21.8696 68.7405V81.8637C21.8696 81.9852 21.8696 81.9852 21.9911 81.9852H29.6462C29.7678 81.9852 29.8893 82.1067 29.8893 82.2282V84.5369C29.8893 84.6584 29.7678 84.7799 29.6462 84.7799H18.8318C18.7103 84.7799 18.5888 84.6584 18.5888 84.5369ZM31.8334 81.1346C31.5904 80.4055 31.4689 79.5549 31.4689 78.7044C31.4689 77.8538 31.5904 76.8817 31.8334 76.2742C32.5625 73.9655 34.5067 72.6288 37.1799 72.6288C39.7316 72.6288 41.6758 74.087 42.4049 76.2742C42.6479 77.0032 42.7694 77.8538 42.7694 78.7044C42.7694 79.5549 42.6479 80.4055 42.4049 81.0131C41.6758 83.4433 39.7316 84.9014 37.1799 84.9014C34.5067 85.0229 32.441 83.5648 31.8334 81.1346ZM39.2456 80.4055C39.3671 79.9195 39.4886 79.3119 39.4886 78.8259C39.4886 78.2183 39.3671 77.6108 39.2456 77.1247C38.8811 76.0311 38.152 75.4236 37.1799 75.4236C36.0863 75.4236 35.3572 76.0311 35.1142 77.1247C34.8712 77.4893 34.8712 78.0968 34.8712 78.8259C34.8712 79.4334 34.8712 80.041 34.9927 80.4055C35.3572 81.4991 36.0863 82.1067 37.1799 82.1067C38.152 82.2282 38.8811 81.4991 39.2456 80.4055ZM47.2653 84.5369L43.4985 72.9934C43.377 72.7503 43.4985 72.6288 43.7415 72.6288H46.7793C46.9008 72.6288 47.0223 72.7504 47.1438 72.8719L49.088 79.9195C49.088 80.041 49.2095 80.041 49.2095 79.9195L51.1536 72.8719C51.1536 72.7504 51.2751 72.6288 51.5182 72.6288H54.5559C54.799 72.6288 54.9205 72.7503 54.799 72.9934L51.0321 84.4154C51.0321 84.5369 50.9106 84.6584 50.6676 84.6584H47.6298C47.3868 84.7799 47.2653 84.7799 47.2653 84.5369ZM66.464 79.5549C66.464 79.798 66.3425 79.798 66.0994 79.798H58.8088C58.6873 79.798 58.6873 79.798 58.6873 79.9195C58.6873 80.284 58.8088 80.527 58.9303 80.8916C59.2948 81.7421 60.0239 82.2282 61.3605 82.2282C62.4541 82.2282 63.1832 81.7421 63.7907 81.0131C63.9123 80.8916 64.0338 80.7701 64.1553 81.0131L65.8564 82.7142C65.9779 82.8357 65.9779 82.9572 65.8564 83.0788C64.7628 84.4154 63.0617 85.1444 61.1175 85.1444C58.4443 85.1444 56.6216 83.8078 55.771 81.6206C55.4065 80.7701 55.285 79.9195 55.285 78.7044C55.285 77.8538 55.4065 77.0032 55.6495 76.2742C56.3786 74.087 58.2013 72.6288 60.753 72.6288C63.9123 72.6288 65.8564 74.6945 66.221 77.6108C66.464 78.2183 66.464 78.8259 66.464 79.5549ZM58.9303 76.7602C58.8088 77.0032 58.8088 77.2462 58.8088 77.4893C58.8088 77.6108 58.8088 77.6108 58.9303 77.6108H62.9402C63.0617 77.6108 63.0617 77.6108 63.0617 77.4893C63.0617 77.2462 62.9402 77.0032 62.9402 76.8817C62.6972 75.9096 61.9681 75.4236 60.8745 75.4236C59.7809 75.4236 59.1733 75.9096 58.9303 76.7602ZM73.2686 79.4334V68.7405C73.2686 68.619 73.3901 68.4975 73.5116 68.4975H76.3063C76.4279 68.4975 76.5494 68.619 76.5494 68.7405V79.4334C76.5494 81.0131 77.643 82.2282 79.3441 82.2282C81.0453 82.2282 82.1389 81.1346 82.1389 79.4334V68.7405C82.1389 68.619 82.2604 68.4975 82.3819 68.4975H85.1766C85.2981 68.4975 85.4196 68.619 85.4196 68.7405V79.4334C85.4196 82.8357 82.9894 85.0229 79.3441 85.0229C75.6988 85.0229 73.2686 82.7142 73.2686 79.4334ZM87.4853 81.4991V81.2561C87.4853 81.1346 87.6068 81.0131 87.7283 81.0131H90.2801C90.4016 81.0131 90.5231 81.1346 90.5231 81.2561C90.5231 81.9852 91.3737 82.4712 92.5888 82.4712C93.6824 82.4712 94.4114 81.9852 94.4114 81.3776C94.4114 80.4055 92.5888 80.4055 90.8876 79.798C89.308 79.3119 87.6068 78.4613 87.6068 76.3957C87.6068 74.087 89.551 72.6288 92.5888 72.6288C95.6265 72.6288 97.5707 74.2085 97.5707 76.3957C97.5707 76.5172 97.4492 76.6387 97.3277 76.6387H94.776C94.6545 76.6387 94.5329 76.5172 94.5329 76.3957C94.5329 75.6666 93.8039 75.1806 92.5888 75.1806C91.6167 75.1806 90.8876 75.5451 90.8876 76.2742C90.8876 77.2462 92.4673 77.2462 94.2899 77.8538C96.1126 78.3398 97.9352 79.1904 97.9352 81.3776C97.9352 83.6863 95.8696 85.0229 92.8318 85.0229C89.551 85.0229 87.4853 83.5648 87.4853 81.4991Z" fill="#252530"/>
<path d="M24.2998 98.7539H48.6019V99.726H24.2998V98.7539ZM67.8006 98.7539H92.1027V99.726H67.8006V98.7539Z" fill="#DCDEDC"/>
<path d="M52.3687 97.6603L56.1355 97.0527L58.0797 93.2859L59.9024 96.9312L63.9122 97.6603L61.1175 100.455L61.725 104.465L58.0797 102.764L54.4344 104.465L54.9204 100.455L52.3687 97.6603Z" fill="#DCDEDC"/>
</g>
<defs>
<clipPath id="clip0_1404_4761">
<rect width="113.977" height="148" fill="white" transform="translate(0.848206 0.0869141)"/>
</clipPath>
</defs>
</svg>
