<svg width="115" height="148" viewBox="0 0 115 148" fill="none" xmlns="http://www.w3.org/2000/svg">
<g id="AccountsReceivable_HighPerformer_HighPerformer 1">
<path id="Vector" d="M10.6949 109.009L58.545 133.358L104.578 109.009V13.7937H10.6949V109.009Z" fill="white"/>
<path id="Vector_2" d="M105.547 14.1572L9.72559 110.705L59.3927 135.297L105.547 111.674V14.1572Z" fill="#F2F3F2" fill-opacity="0.5"/>
<path id="Vector_3" d="M7.54517 45.5322V111.069L9.24112 111.917L57.0912 136.266L58.5448 136.992L59.9985 136.266L106.153 111.917L107.849 111.069V10.644H7.54517V45.5322ZM10.6948 109.251V13.7937H104.699V109.251L58.5448 133.6L10.6948 109.251Z" fill="#DCDEDC"/>
<path id="Vector_4" d="M57.697 15.3685C58.1815 15.3685 58.6661 15.3685 59.1507 15.4896L57.697 18.2758C55.5165 18.1547 53.5783 19.8506 53.4571 22.0311C53.336 24.2116 55.0319 26.1499 57.2124 26.271H57.697C58.6661 26.271 59.6352 25.9076 60.3621 25.3019L61.9369 27.967C60.7255 28.8149 59.2718 29.2995 57.697 29.2995C53.8205 29.4206 50.5498 26.5133 50.4286 22.6368C50.3075 18.7604 53.2148 15.4896 57.0913 15.3685H57.697ZM62.6637 21.3043L64.4808 24.3328L62.6637 27.2401L60.9678 24.3328H57.4547L59.2718 21.3043H62.6637ZM59.7564 20.2141C59.7564 19.7295 59.8775 19.2449 60.1198 18.8815C60.3621 18.5181 60.8466 18.1547 61.21 17.9124L61.4523 17.7913C61.9369 17.549 62.058 17.4278 62.058 17.1856C62.058 16.9433 61.6946 16.701 61.4523 16.701C60.9678 16.701 60.6043 16.9433 60.3621 17.4278L59.7564 16.8221C59.8775 16.5799 60.1198 16.3376 60.3621 16.0953C60.7255 15.853 61.0889 15.853 61.4523 15.853C61.8157 15.853 62.3003 15.9742 62.5426 16.2165C62.7848 16.4587 63.0271 16.8221 63.0271 17.1856C63.0271 17.7913 62.6637 18.2758 61.9369 18.5181L61.5734 18.7604C61.21 19.0027 60.9678 19.1238 60.8466 19.4872H63.0271V20.3352L59.7564 20.2141ZM57.697 35.3565L69.2052 28.8149V10.644H46.0676V28.6938L57.697 35.3565ZM110.15 78.2398H5.24365L1.36719 86.7195L5.24365 95.1993H110.15L113.906 86.7195L110.15 78.2398Z" fill="#FF492C"/>
<path id="Vector_5" d="M21.8397 60.0569C22.6392 60.0569 23.3418 60.2185 23.9475 60.5415C24.5532 60.8645 25.0216 61.3289 25.3527 61.9346C25.6838 62.5322 25.8494 63.2187 25.8494 63.994C25.8494 64.7612 25.6798 65.4355 25.3406 66.017C24.9933 66.5904 24.5088 67.0386 23.8869 67.3616C23.2651 67.6847 22.5463 67.8462 21.7307 67.8462H19.1504C19.0939 67.8462 19.0656 67.8785 19.0656 67.9431V72.5706C19.0656 72.6352 19.0414 72.6877 18.9929 72.7281C18.9525 72.7685 18.9 72.7887 18.8354 72.7887H16.7155C16.6509 72.7887 16.5984 72.7685 16.558 72.7281C16.5176 72.6877 16.4974 72.6352 16.4974 72.5706V60.275C16.4974 60.2104 16.5176 60.1579 16.558 60.1175C16.5984 60.0771 16.6509 60.0569 16.7155 60.0569H21.8397ZM21.452 65.7989C22.0174 65.7989 22.4656 65.6374 22.7967 65.3144C23.1359 64.9914 23.3055 64.5714 23.3055 64.0545C23.3055 63.5135 23.1359 63.0814 22.7967 62.7584C22.4656 62.4272 22.0174 62.2617 21.452 62.2617H19.1504C19.0939 62.2617 19.0656 62.294 19.0656 62.3586V65.702C19.0656 65.7666 19.0939 65.7989 19.1504 65.7989H21.452ZM35.0196 67.1557C35.0843 67.616 35.1044 68.1289 35.0802 68.6942C35.0721 68.8476 34.9954 68.9243 34.85 68.9243H29.2413C29.1686 68.9243 29.1403 68.9526 29.1565 69.0091C29.1969 69.2514 29.2655 69.4937 29.3624 69.736C29.6774 70.4144 30.3194 70.7535 31.2886 70.7535C32.0638 70.7455 32.6736 70.4305 33.1178 69.8087C33.1743 69.736 33.2308 69.6996 33.2874 69.6996C33.3197 69.6996 33.36 69.7239 33.4085 69.7723L34.7168 71.0564C34.7814 71.121 34.8137 71.1775 34.8137 71.226C34.8137 71.2502 34.7895 71.2987 34.741 71.3714C34.3372 71.8721 33.8244 72.2557 33.2026 72.5222C32.5646 72.7968 31.87 72.9341 31.119 72.9341C30.0852 72.9341 29.205 72.6999 28.4781 72.2314C27.7594 71.755 27.2425 71.0927 26.9275 70.2448C26.6691 69.6391 26.5399 68.8476 26.5399 67.8704C26.5399 67.2001 26.6328 66.6106 26.8185 66.1018C27.1012 65.2457 27.5898 64.5633 28.2843 64.0545C28.9788 63.5458 29.8026 63.2914 30.7555 63.2914C31.9669 63.2914 32.9401 63.6427 33.675 64.3453C34.4099 65.0479 34.8581 65.9847 35.0196 67.1557ZM30.7798 65.5082C30.0126 65.5082 29.5078 65.8636 29.2655 66.5742C29.2171 66.7358 29.1767 66.9296 29.1444 67.1557C29.1444 67.2122 29.1767 67.2405 29.2413 67.2405H32.3788C32.4515 67.2405 32.4757 67.2122 32.4515 67.1557C32.3869 66.8084 32.3546 66.6388 32.3546 66.6469C32.2496 66.2835 32.0598 66.0008 31.7852 65.7989C31.5187 65.6051 31.1836 65.5082 30.7798 65.5082ZM41.3189 63.3277C41.755 63.3277 42.1023 63.4125 42.3607 63.5821C42.4495 63.6306 42.4818 63.7194 42.4576 63.8486L42.0821 65.9201C42.074 66.0655 41.9892 66.1099 41.8277 66.0533C41.6419 65.9887 41.432 65.9564 41.1978 65.9564C41.1008 65.9564 40.9635 65.9685 40.7859 65.9928C40.3579 66.0331 39.9904 66.1947 39.6835 66.4773C39.3847 66.76 39.2353 67.1396 39.2353 67.616V72.5706C39.2353 72.6352 39.2111 72.6877 39.1626 72.7281C39.1222 72.7685 39.0738 72.7887 39.0172 72.7887H36.8852C36.8287 72.7887 36.7762 72.7685 36.7277 72.7281C36.6873 72.6877 36.6671 72.6352 36.6671 72.5706V63.6669C36.6671 63.6104 36.6873 63.5579 36.7277 63.5094C36.7762 63.469 36.8287 63.4488 36.8852 63.4488H39.0172C39.0738 63.4488 39.1222 63.469 39.1626 63.5094C39.2111 63.5579 39.2353 63.6104 39.2353 63.6669V64.3574C39.2353 64.3897 39.2474 64.4139 39.2716 64.4301C39.2878 64.4462 39.3039 64.4382 39.3201 64.4058C39.8208 63.6871 40.4871 63.3277 41.3189 63.3277ZM49.0597 63.4367C49.1243 63.4367 49.1768 63.4569 49.2172 63.4973C49.2576 63.5377 49.2777 63.5902 49.2777 63.6548V65.375C49.2777 65.4396 49.2576 65.4921 49.2172 65.5324C49.1768 65.5728 49.1243 65.593 49.0597 65.593H47.3032C47.2386 65.593 47.2063 65.6213 47.2063 65.6778V72.5706C47.2063 72.6352 47.1861 72.6877 47.1457 72.7281C47.1053 72.7685 47.0528 72.7887 46.9882 72.7887H44.8683C44.8037 72.7887 44.7512 72.7685 44.7108 72.7281C44.6704 72.6877 44.6502 72.6352 44.6502 72.5706V65.6778C44.6502 65.6213 44.6179 65.593 44.5533 65.593H43.4873C43.4227 65.593 43.3702 65.5728 43.3298 65.5324C43.2894 65.4921 43.2692 65.4396 43.2692 65.375V63.6548C43.2692 63.5902 43.2894 63.5377 43.3298 63.4973C43.3702 63.4569 43.4227 63.4367 43.4873 63.4367H44.5533C44.6179 63.4367 44.6502 63.4044 44.6502 63.3398V62.9401C44.6502 62.189 44.7633 61.6035 44.9894 61.1835C45.2236 60.7717 45.5951 60.4769 46.1039 60.2992C46.6208 60.1215 47.3355 60.0448 48.2481 60.0691H48.9386C48.9951 60.0691 49.0435 60.0892 49.0839 60.1296C49.1324 60.1781 49.1566 60.2306 49.1566 60.2871V61.7529C49.1566 61.8175 49.1324 61.87 49.0839 61.9104C49.0435 61.9588 48.9951 61.9831 48.9386 61.9831H48.3329C47.9129 61.9911 47.6181 62.0759 47.4485 62.2375C47.287 62.407 47.2063 62.7099 47.2063 63.146V63.3398C47.2063 63.4044 47.2386 63.4367 47.3032 63.4367H49.0597ZM54.3293 72.9341C53.3117 72.9341 52.4395 72.6675 51.7126 72.1345C50.9858 71.6015 50.4891 70.8747 50.2226 69.954C50.053 69.3887 49.9682 68.7709 49.9682 68.1006C49.9682 67.3899 50.053 66.7479 50.2226 66.1745C50.5053 65.2781 51.01 64.5754 51.7369 64.0667C52.4637 63.5579 53.3359 63.3035 54.3535 63.3035C55.3388 63.3035 56.1867 63.5538 56.8974 64.0545C57.5919 64.5633 58.0846 65.2659 58.3753 66.1624C58.5772 66.7681 58.6782 67.402 58.6782 68.0643C58.6782 68.7184 58.5934 69.3322 58.4238 69.9056C58.1573 70.8505 57.6606 71.5894 56.9338 72.1224C56.215 72.6635 55.3468 72.9341 54.3293 72.9341ZM54.3293 70.7414C54.725 70.7414 55.0642 70.6203 55.3468 70.378C55.6295 70.1357 55.8314 69.8006 55.9525 69.3726C56.0414 68.9849 56.0858 68.5609 56.0858 68.1006C56.0858 67.5918 56.0414 67.1638 55.9525 66.8165C55.8152 66.4046 55.6093 66.0816 55.3347 65.8474C55.0521 65.6213 54.7088 65.5082 54.305 65.5082C53.9012 65.5082 53.562 65.6213 53.2875 65.8474C53.0129 66.0816 52.815 66.4046 52.6939 66.8165C52.597 67.0992 52.5485 67.5272 52.5485 68.1006C52.5485 68.6498 52.5929 69.0737 52.6818 69.3726C52.8029 69.8006 53.0048 70.1357 53.2875 70.378C53.5701 70.6203 53.9174 70.7414 54.3293 70.7414ZM64.9774 63.3277C65.4135 63.3277 65.7608 63.4125 66.0192 63.5821C66.1161 63.6306 66.1484 63.7194 66.1161 63.8486L65.7406 65.9201C65.7325 66.0655 65.6477 66.1099 65.4862 66.0533C65.3004 65.9887 65.0905 65.9564 64.8563 65.9564C64.7594 65.9564 64.6261 65.9685 64.4565 65.9928C64.0204 66.0331 63.6489 66.1947 63.342 66.4773C63.0432 66.76 62.8938 67.1396 62.8938 67.616V72.5706C62.8938 72.6352 62.8696 72.6877 62.8211 72.7281C62.7808 72.7685 62.7283 72.7887 62.6636 72.7887H60.5437C60.4872 72.7887 60.4347 72.7685 60.3862 72.7281C60.3458 72.6877 60.3257 72.6352 60.3257 72.5706V63.6669C60.3257 63.6104 60.3458 63.5579 60.3862 63.5094C60.4347 63.469 60.4872 63.4488 60.5437 63.4488H62.6636C62.7283 63.4488 62.7808 63.469 62.8211 63.5094C62.8696 63.5579 62.8938 63.6104 62.8938 63.6669V64.3574C62.8938 64.3897 62.9019 64.4139 62.918 64.4301C62.9503 64.4462 62.9705 64.4382 62.9786 64.4058C63.4793 63.6871 64.1456 63.3277 64.9774 63.3277ZM77.6365 63.3035C78.5814 63.3035 79.3203 63.5861 79.8533 64.1515C80.3863 64.7248 80.6528 65.5284 80.6528 66.5621V72.5706C80.6528 72.6352 80.6327 72.6877 80.5923 72.7281C80.5519 72.7685 80.5034 72.7887 80.4469 72.7887H78.3148C78.2583 72.7887 78.2058 72.7685 78.1574 72.7281C78.117 72.6877 78.0968 72.6352 78.0968 72.5706V67.1194C78.0968 66.6267 77.9716 66.235 77.7213 65.9443C77.4628 65.6536 77.1196 65.5082 76.6916 65.5082C76.2716 65.5082 75.9284 65.6536 75.6619 65.9443C75.3954 66.235 75.2621 66.6227 75.2621 67.1073V72.5706C75.2621 72.6352 75.2419 72.6877 75.2016 72.7281C75.1531 72.7685 75.1006 72.7887 75.0441 72.7887H72.9363C72.8717 72.7887 72.8192 72.7685 72.7788 72.7281C72.7384 72.6877 72.7182 72.6352 72.7182 72.5706V67.1194C72.7182 66.6348 72.585 66.2431 72.3185 65.9443C72.0519 65.6536 71.7047 65.5082 71.2767 65.5082C70.8971 65.5082 70.574 65.6213 70.3075 65.8474C70.0491 66.0816 69.8957 66.4046 69.8472 66.8165V72.5706C69.8472 72.6352 69.827 72.6877 69.7866 72.7281C69.7382 72.7685 69.6857 72.7887 69.6292 72.7887H67.5092C67.4446 72.7887 67.3921 72.7685 67.3517 72.7281C67.3114 72.6877 67.2912 72.6352 67.2912 72.5706V63.6669C67.2912 63.6104 67.3114 63.5579 67.3517 63.5094C67.3921 63.469 67.4446 63.4488 67.5092 63.4488H69.6292C69.6857 63.4488 69.7382 63.469 69.7866 63.5094C69.827 63.5579 69.8472 63.6104 69.8472 63.6669V64.3816C69.8472 64.4139 69.8593 64.4381 69.8836 64.4543C69.9078 64.4624 69.932 64.4462 69.9562 64.4058C70.4569 63.6709 71.2282 63.3035 72.27 63.3035C72.8757 63.3035 73.4047 63.4327 73.8569 63.6911C74.3092 63.9415 74.6564 64.3049 74.8987 64.7814C74.931 64.8541 74.9754 64.8541 75.032 64.7814C75.2904 64.2807 75.6498 63.9092 76.1101 63.6669C76.5624 63.4246 77.0712 63.3035 77.6365 63.3035ZM90.6711 67.1557C90.7438 67.616 90.768 68.1289 90.7438 68.6942C90.7276 68.8476 90.6468 68.9243 90.5015 68.9243H84.8927C84.82 68.9243 84.7958 68.9526 84.82 69.0091C84.8523 69.2514 84.9169 69.4937 85.0139 69.736C85.3288 70.4144 85.9709 70.7535 86.94 70.7535C87.7153 70.7455 88.329 70.4305 88.7813 69.8087C88.8297 69.736 88.8822 69.6996 88.9388 69.6996C88.9792 69.6996 89.0236 69.7239 89.072 69.7723L90.3803 71.0564C90.4369 71.121 90.4651 71.1775 90.4651 71.226C90.4651 71.2502 90.4409 71.2987 90.3924 71.3714C89.9967 71.8721 89.4839 72.2557 88.854 72.5222C88.2241 72.7968 87.5336 72.9341 86.7825 72.9341C85.7407 72.9341 84.8604 72.6999 84.1417 72.2314C83.4148 71.755 82.8939 71.0927 82.579 70.2448C82.3286 69.6391 82.2034 68.8476 82.2034 67.8704C82.2034 67.2001 82.2923 66.6106 82.4699 66.1018C82.7526 65.2457 83.2412 64.5633 83.9357 64.0545C84.6302 63.5458 85.458 63.2914 86.4191 63.2914C87.6305 63.2914 88.6036 63.6427 89.3385 64.3453C90.0734 65.0479 90.5176 65.9847 90.6711 67.1557ZM86.4312 65.5082C85.6721 65.5082 85.1713 65.8636 84.9291 66.5742C84.8806 66.7358 84.8362 66.9296 84.7958 67.1557C84.7958 67.2122 84.8281 67.2405 84.8927 67.2405H88.0302C88.1029 67.2405 88.1271 67.2122 88.1029 67.1557C88.0464 66.8084 88.0181 66.6388 88.0181 66.6469C87.9051 66.2835 87.7153 66.0008 87.4488 65.7989C87.1742 65.6051 86.835 65.5082 86.4312 65.5082ZM96.9703 63.3277C97.4064 63.3277 97.7537 63.4125 98.0121 63.5821C98.109 63.6306 98.1454 63.7194 98.1211 63.8486L97.7456 65.9201C97.7295 66.0655 97.6406 66.1099 97.4791 66.0533C97.3014 65.9887 97.0915 65.9564 96.8492 65.9564C96.7523 65.9564 96.619 65.9685 96.4494 65.9928C96.0133 66.0331 95.6418 66.1947 95.3349 66.4773C95.0361 66.76 94.8867 67.1396 94.8867 67.616V72.5706C94.8867 72.6352 94.8665 72.6877 94.8261 72.7281C94.7777 72.7685 94.7252 72.7887 94.6687 72.7887H92.5366C92.4801 72.7887 92.4316 72.7685 92.3913 72.7281C92.3428 72.6877 92.3186 72.6352 92.3186 72.5706V63.6669C92.3186 63.6104 92.3428 63.5579 92.3913 63.5094C92.4316 63.469 92.4801 63.4488 92.5366 63.4488H94.6687C94.7252 63.4488 94.7777 63.469 94.8261 63.5094C94.8665 63.5579 94.8867 63.6104 94.8867 63.6669V64.3574C94.8867 64.3897 94.8988 64.4139 94.9231 64.4301C94.9473 64.4462 94.9675 64.4382 94.9836 64.4058C95.4763 63.6871 96.1385 63.3277 96.9703 63.3277ZM46.9882 42.1162C46.9882 42.0597 47.0084 42.0072 47.0488 41.9587C47.0892 41.9183 47.1376 41.8982 47.1942 41.8982H49.3262C49.3827 41.8982 49.4352 41.9183 49.4837 41.9587C49.5241 42.0072 49.5443 42.0597 49.5443 42.1162V54.3997C49.5443 54.4643 49.5241 54.5168 49.4837 54.5572C49.4352 54.5976 49.3827 54.6178 49.3262 54.6178H47.1942C47.1376 54.6178 47.0892 54.5976 47.0488 54.5572C47.0084 54.5168 46.9882 54.4643 46.9882 54.3997V49.3846C46.9882 49.328 46.9559 49.2998 46.8913 49.2998H42.8695C42.8129 49.2998 42.7847 49.328 42.7847 49.3846V54.3997C42.7847 54.4643 42.7645 54.5168 42.7241 54.5572C42.6757 54.5976 42.6232 54.6178 42.5666 54.6178H40.4346C40.378 54.6178 40.3296 54.5976 40.2892 54.5572C40.2407 54.5168 40.2165 54.4643 40.2165 54.3997V42.1162C40.2165 42.0597 40.2407 42.0072 40.2892 41.9587C40.3296 41.9183 40.378 41.8982 40.4346 41.8982H42.5666C42.6232 41.8982 42.6757 41.9183 42.7241 41.9587C42.7645 42.0072 42.7847 42.0597 42.7847 42.1162V46.9981C42.7847 47.0627 42.8129 47.095 42.8695 47.095H46.8913C46.9559 47.095 46.9882 47.0627 46.9882 46.9981V42.1162ZM52.8514 44.224C52.4395 44.224 52.0963 44.0867 51.8217 43.8122C51.5471 43.5457 51.4098 43.2065 51.4098 42.7946C51.4098 42.3666 51.5431 42.0193 51.8096 41.7528C52.0761 41.4863 52.4233 41.353 52.8514 41.353C53.2794 41.353 53.6266 41.4863 53.8932 41.7528C54.1597 42.0193 54.2929 42.3666 54.2929 42.7946C54.2929 43.2065 54.1556 43.5457 53.881 43.8122C53.6065 44.0867 53.2632 44.224 52.8514 44.224ZM51.7611 54.6178C51.7046 54.6178 51.6521 54.5976 51.6036 54.5572C51.5632 54.5168 51.5431 54.4643 51.5431 54.3997V45.4839C51.5431 45.4193 51.5632 45.3668 51.6036 45.3264C51.6521 45.286 51.7046 45.2658 51.7611 45.2658H53.8932C53.9497 45.2658 53.9981 45.286 54.0385 45.3264C54.087 45.3668 54.1112 45.4193 54.1112 45.4839V54.3997C54.1112 54.4643 54.087 54.5168 54.0385 54.5572C53.9981 54.5976 53.9497 54.6178 53.8932 54.6178H51.7611ZM61.8036 45.496C61.8036 45.4395 61.8278 45.387 61.8762 45.3385C61.9166 45.2981 61.9651 45.2779 62.0216 45.2779H64.1537C64.2102 45.2779 64.2627 45.2981 64.3111 45.3385C64.3515 45.387 64.3717 45.4395 64.3717 45.496V53.7819C64.3717 55.3648 63.9154 56.4954 63.0028 57.1738C62.0903 57.8603 60.9112 58.2035 59.4656 58.2035C59.0375 58.2035 58.5651 58.1712 58.0482 58.1066C57.9271 58.0905 57.8665 58.0137 57.8665 57.8764L57.9392 55.9988C57.9392 55.8373 58.024 55.7686 58.1936 55.7928C58.6297 55.8655 59.0295 55.9019 59.3929 55.9019C60.1682 55.9019 60.7658 55.7363 61.1857 55.4052C61.5976 55.0579 61.8036 54.5128 61.8036 53.7698C61.8036 53.7294 61.7914 53.7052 61.7672 53.6971C61.743 53.6891 61.7188 53.7012 61.6945 53.7335C61.2342 54.2261 60.5639 54.4724 59.6836 54.4724C58.8922 54.4724 58.1694 54.2826 57.5152 53.9031C56.853 53.5235 56.3806 52.9097 56.0979 52.0617C55.9202 51.5045 55.8314 50.7817 55.8314 49.8934C55.8314 48.9485 55.9404 48.1813 56.1585 47.5917C56.4088 46.8487 56.8368 46.2551 57.4425 45.811C58.0482 45.3587 58.7549 45.1326 59.5625 45.1326C60.4912 45.1326 61.2019 45.4112 61.6945 45.9684C61.7188 45.9927 61.743 46.0007 61.7672 45.9927C61.7914 45.9846 61.8036 45.9644 61.8036 45.9321V45.496ZM61.6582 51.3591C61.7551 51.0038 61.8036 50.5071 61.8036 49.8691C61.8036 49.4976 61.7914 49.2109 61.7672 49.009C61.743 48.7991 61.7026 48.6012 61.6461 48.4155C61.533 48.0924 61.3513 47.8299 61.1009 47.628C60.8506 47.4342 60.5356 47.3373 60.1561 47.3373C59.7926 47.3373 59.4858 47.4342 59.2354 47.628C58.977 47.8299 58.7872 48.0924 58.666 48.4155C58.4965 48.7789 58.4117 49.2715 58.4117 49.8934C58.4117 50.5717 58.4843 51.0563 58.6297 51.347C58.7347 51.6781 58.9245 51.9406 59.1991 52.1344C59.4736 52.3363 59.7967 52.4373 60.1682 52.4373C60.5558 52.4373 60.8789 52.3363 61.1373 52.1344C61.3876 51.9406 61.5613 51.6822 61.6582 51.3591ZM71.0828 45.1326C72.0519 45.1326 72.8313 45.4314 73.4208 46.029C74.0104 46.6186 74.3051 47.4221 74.3051 48.4397V54.3997C74.3051 54.4643 74.285 54.5168 74.2446 54.5572C74.2042 54.5976 74.1557 54.6178 74.0992 54.6178H71.9672C71.9106 54.6178 71.8581 54.5976 71.8097 54.5572C71.7693 54.5168 71.7491 54.4643 71.7491 54.3997V48.9606C71.7491 48.4841 71.6118 48.0924 71.3372 47.7855C71.0707 47.4867 70.7113 47.3373 70.2591 47.3373C69.8149 47.3373 69.4555 47.4867 69.1809 47.7855C68.9064 48.0924 68.7691 48.4841 68.7691 48.9606V54.3997C68.7691 54.4643 68.7489 54.5168 68.7085 54.5572C68.6681 54.5976 68.6156 54.6178 68.551 54.6178H66.4311C66.3665 54.6178 66.314 54.5976 66.2736 54.5572C66.2332 54.5168 66.213 54.4643 66.213 54.3997V42.1162C66.213 42.0597 66.2332 42.0072 66.2736 41.9587C66.314 41.9183 66.3665 41.8982 66.4311 41.8982H68.551C68.6156 41.8982 68.6681 41.9183 68.7085 41.9587C68.7489 42.0072 68.7691 42.0597 68.7691 42.1162V46.138C68.7691 46.1703 68.7812 46.1946 68.8054 46.2107C68.8296 46.2188 68.8458 46.2107 68.8539 46.1865C69.3546 45.4839 70.0976 45.1326 71.0828 45.1326Z" fill="#252530"/>
<path id="Vector_6" d="M41.0282 91.541C40.3983 91.541 39.8491 91.4401 39.3807 91.2382C38.9123 91.0363 38.5489 90.7536 38.2904 90.3902C38.0401 90.0268 37.9149 89.5987 37.9149 89.1061V88.8033C37.9149 88.7629 37.9311 88.7265 37.9634 88.6942C37.9876 88.67 38.0199 88.6579 38.0603 88.6579H39.1384C39.1788 88.6579 39.2151 88.67 39.2475 88.6942C39.2717 88.7265 39.2838 88.7629 39.2838 88.8033V89.0334C39.2838 89.4049 39.4493 89.7118 39.7805 89.9541C40.1116 90.2044 40.5638 90.3296 41.1372 90.3296C41.6299 90.3296 42.0014 90.2246 42.2517 90.0147C42.5021 89.8047 42.6272 89.5341 42.6272 89.203C42.6272 88.9769 42.5586 88.7831 42.4213 88.6216C42.284 88.4681 42.0902 88.3268 41.8398 88.1976C41.5814 88.0683 41.1978 87.9068 40.689 87.713C40.1156 87.503 39.6512 87.3052 39.2959 87.1194C38.9406 86.9337 38.6458 86.6793 38.4116 86.3562C38.1693 86.0413 38.0482 85.6456 38.0482 85.1691C38.0482 84.4584 38.3066 83.8971 38.8235 83.4852C39.3403 83.0734 40.0308 82.8674 40.8949 82.8674C41.5006 82.8674 42.0377 82.9724 42.5061 83.1824C42.9664 83.3924 43.3258 83.6871 43.5842 84.0667C43.8427 84.4382 43.9719 84.8703 43.9719 85.3629V85.5688C43.9719 85.6092 43.9557 85.6456 43.9234 85.6779C43.8992 85.7021 43.8669 85.7142 43.8265 85.7142H42.7363C42.6959 85.7142 42.6636 85.7021 42.6394 85.6779C42.607 85.6456 42.5909 85.6092 42.5909 85.5688V85.4356C42.5909 85.056 42.4375 84.737 42.1306 84.4786C41.8156 84.2121 41.3835 84.0788 40.8344 84.0788C40.3902 84.0788 40.047 84.1717 39.8047 84.3574C39.5543 84.5432 39.4292 84.8057 39.4292 85.1448C39.4292 85.3871 39.4938 85.585 39.623 85.7384C39.7522 85.8919 39.946 86.0292 40.2044 86.1503C40.4629 86.2795 40.8626 86.441 41.4037 86.6349C41.9771 86.8529 42.4375 87.0508 42.7847 87.2284C43.1239 87.4061 43.4187 87.6524 43.669 87.9674C43.9113 88.2904 44.0325 88.6902 44.0325 89.1667C44.0325 89.8935 43.7619 90.4709 43.2208 90.899C42.6878 91.327 41.9569 91.541 41.0282 91.541ZM48.8538 82.9522C49.3626 82.9522 49.8108 83.0572 50.1984 83.2672C50.5861 83.4772 50.8849 83.7719 51.0949 84.1515C51.3129 84.5392 51.422 84.9833 51.422 85.484C51.422 85.9767 51.3129 86.4128 51.0949 86.7923C50.8768 87.1719 50.5699 87.4626 50.1742 87.6645C49.7704 87.8745 49.3061 87.9795 48.7811 87.9795H46.8429C46.8025 87.9795 46.7823 87.9997 46.7823 88.0401V91.2987C46.7823 91.3391 46.7702 91.3714 46.746 91.3956C46.7137 91.4279 46.6773 91.4441 46.637 91.4441H45.5225C45.4821 91.4441 45.4498 91.4279 45.4256 91.3956C45.3933 91.3714 45.3771 91.3391 45.3771 91.2987V83.0976C45.3771 83.0572 45.3933 83.0209 45.4256 82.9886C45.4498 82.9643 45.4821 82.9522 45.5225 82.9522H48.8538ZM48.6479 86.8408C49.0597 86.8408 49.3909 86.7197 49.6412 86.4774C49.8916 86.2351 50.0167 85.9161 50.0167 85.5204C50.0167 85.1166 49.8916 84.7895 49.6412 84.5392C49.3909 84.2888 49.0597 84.1636 48.6479 84.1636H46.8429C46.8025 84.1636 46.7823 84.1838 46.7823 84.2242V86.7802C46.7823 86.8206 46.8025 86.8408 46.8429 86.8408H48.6479ZM57.4184 91.4441C57.3376 91.4441 57.2811 91.4078 57.2488 91.3351L55.6497 87.8463C55.6336 87.814 55.6093 87.7978 55.577 87.7978H54.1234C54.083 87.7978 54.0628 87.818 54.0628 87.8584V91.2987C54.0628 91.3391 54.0466 91.3714 54.0143 91.3956C53.9901 91.4279 53.9578 91.4441 53.9174 91.4441H52.8029C52.7626 91.4441 52.7303 91.4279 52.706 91.3956C52.6737 91.3714 52.6576 91.3391 52.6576 91.2987V83.1097C52.6576 83.0693 52.6737 83.037 52.706 83.0128C52.7303 82.9805 52.7626 82.9643 52.8029 82.9643H56.1343C56.6269 82.9643 57.063 83.0653 57.4426 83.2672C57.8221 83.4772 58.1169 83.7679 58.3269 84.1394C58.5369 84.519 58.6419 84.951 58.6419 85.4356C58.6419 85.9928 58.5005 86.4653 58.2179 86.8529C57.9271 87.2486 57.5274 87.5232 57.0186 87.6767C57.0024 87.6767 56.9903 87.6847 56.9823 87.7009C56.9742 87.717 56.9742 87.7332 56.9823 87.7493L58.6903 91.2745C58.7065 91.3068 58.7145 91.331 58.7145 91.3472C58.7145 91.4118 58.6701 91.4441 58.5813 91.4441H57.4184ZM54.1234 84.1757C54.083 84.1757 54.0628 84.1959 54.0628 84.2363V86.647C54.0628 86.6874 54.083 86.7075 54.1234 86.7075H55.9405C56.3281 86.7075 56.639 86.5904 56.8732 86.3562C57.1155 86.1301 57.2366 85.8273 57.2366 85.4477C57.2366 85.0681 57.1155 84.7612 56.8732 84.527C56.639 84.2928 56.3281 84.1757 55.9405 84.1757H54.1234ZM60.2288 91.4441C60.1884 91.4441 60.1521 91.4279 60.1198 91.3956C60.0955 91.3714 60.0834 91.3391 60.0834 91.2987V83.1097C60.0834 83.0693 60.0955 83.037 60.1198 83.0128C60.1521 82.9805 60.1884 82.9643 60.2288 82.9643H61.3433C61.3836 82.9643 61.416 82.9805 61.4402 83.0128C61.4725 83.037 61.4886 83.0693 61.4886 83.1097V91.2987C61.4886 91.3391 61.4725 91.3714 61.4402 91.3956C61.416 91.4279 61.3836 91.4441 61.3433 91.4441H60.2288ZM68.1876 83.1097C68.1876 83.0693 68.2038 83.037 68.2361 83.0128C68.2603 82.9805 68.2926 82.9643 68.333 82.9643H69.4475C69.4879 82.9643 69.5242 82.9805 69.5565 83.0128C69.5807 83.037 69.5929 83.0693 69.5929 83.1097V91.2987C69.5929 91.3391 69.5807 91.3714 69.5565 91.3956C69.5242 91.4279 69.4879 91.4441 69.4475 91.4441H68.3693C68.2886 91.4441 68.2321 91.4118 68.1998 91.3472L64.7109 85.6294C64.6948 85.6052 64.6786 85.5931 64.6625 85.5931C64.6463 85.6011 64.6383 85.6213 64.6383 85.6536L64.6625 91.2987C64.6625 91.3391 64.6463 91.3714 64.614 91.3956C64.5898 91.4279 64.5575 91.4441 64.5171 91.4441H63.4026C63.3623 91.4441 63.33 91.4279 63.3057 91.3956C63.2734 91.3714 63.2573 91.3391 63.2573 91.2987V83.1097C63.2573 83.0693 63.2734 83.037 63.3057 83.0128C63.33 82.9805 63.3623 82.9643 63.4026 82.9643H64.4808C64.5615 82.9643 64.6181 82.9967 64.6504 83.0613L68.1271 88.779C68.1432 88.8033 68.1594 88.8113 68.1755 88.8033C68.1917 88.8033 68.1998 88.7871 68.1998 88.7548L68.1876 83.1097ZM74.1962 91.541C73.5905 91.541 73.0574 91.4239 72.5971 91.1897C72.1368 90.9474 71.7814 90.6082 71.5311 90.1721C71.2807 89.736 71.1556 89.2353 71.1556 88.67V85.7384C71.1556 85.165 71.2807 84.6603 71.5311 84.2242C71.7814 83.7962 72.1368 83.461 72.5971 83.2187C73.0574 82.9845 73.5905 82.8674 74.1962 82.8674C74.7938 82.8674 75.3228 82.9845 75.7831 83.2187C76.2353 83.4529 76.5866 83.7719 76.837 84.1757C77.0873 84.5795 77.2125 85.0358 77.2125 85.5446V85.6415C77.2125 85.6819 77.2004 85.7142 77.1762 85.7384C77.1439 85.7707 77.1075 85.7869 77.0672 85.7869H75.9648C75.9244 85.7869 75.8921 85.7707 75.8679 85.7384C75.8356 85.7142 75.8194 85.6819 75.8194 85.6415V85.581C75.8194 85.1448 75.67 84.7855 75.3712 84.5028C75.0805 84.2202 74.6888 84.0788 74.1962 84.0788C73.7035 84.0788 73.3078 84.2282 73.009 84.527C72.7102 84.8178 72.5608 85.2054 72.5608 85.69V88.7185C72.5608 89.203 72.7183 89.5947 73.0332 89.8935C73.3482 90.1843 73.756 90.3296 74.2567 90.3296C74.7413 90.3296 75.1249 90.2004 75.4075 89.942C75.6821 89.6916 75.8194 89.3444 75.8194 88.9002V88.1491C75.8194 88.1087 75.7992 88.0885 75.7589 88.0885H74.2688C74.2285 88.0885 74.1921 88.0724 74.1598 88.0401C74.1356 88.0158 74.1235 87.9836 74.1235 87.9432V87.0467C74.1235 87.0064 74.1356 86.9741 74.1598 86.9498C74.1921 86.9175 74.2285 86.9014 74.2688 86.9014H77.0672C77.1075 86.9014 77.1439 86.9175 77.1762 86.9498C77.2004 86.9741 77.2125 87.0064 77.2125 87.0467V88.5973C77.2125 89.5261 76.942 90.2489 76.4009 90.7657C75.8517 91.2826 75.1168 91.541 74.1962 91.541Z" fill="white"/>
<path id="Vector_7" d="M41.4522 113.322C41.4279 113.346 41.4199 113.37 41.4279 113.394C41.4441 113.419 41.4683 113.431 41.5006 113.431H46.2614C46.3179 113.431 46.3664 113.451 46.4068 113.491C46.4552 113.532 46.4795 113.58 46.4795 113.637V115.345C46.4795 115.401 46.4552 115.45 46.4068 115.49C46.3664 115.53 46.3179 115.551 46.2614 115.551H38.3631C38.2985 115.551 38.246 115.53 38.2056 115.49C38.1653 115.45 38.1451 115.401 38.1451 115.345V113.721C38.1451 113.616 38.1814 113.528 38.2541 113.455C38.8275 112.898 39.413 112.288 40.0106 111.626C40.6082 110.963 40.9838 110.552 41.1372 110.39C41.4603 110.002 41.7914 109.631 42.1306 109.276C43.1966 108.097 43.7296 107.22 43.7296 106.647C43.7296 106.235 43.5842 105.896 43.2935 105.629C43.0028 105.371 42.6232 105.242 42.1548 105.242C41.6864 105.242 41.3068 105.371 41.0161 105.629C40.7173 105.896 40.5679 106.247 40.5679 106.683V107.119C40.5679 107.176 40.5477 107.224 40.5073 107.265C40.4669 107.305 40.4185 107.325 40.3619 107.325H38.2904C38.2339 107.325 38.1855 107.305 38.1451 107.265C38.0966 107.224 38.0724 107.176 38.0724 107.119V106.296C38.1128 105.666 38.3147 105.104 38.6781 104.612C39.0415 104.127 39.522 103.756 40.1196 103.497C40.7253 103.239 41.4037 103.11 42.1548 103.11C42.9866 103.11 43.7094 103.267 44.3232 103.582C44.937 103.889 45.4094 104.305 45.7405 104.83C46.0797 105.363 46.2493 105.948 46.2493 106.586C46.2493 107.079 46.1241 107.584 45.8738 108.101C45.6315 108.617 45.264 109.175 44.7714 109.772C44.408 110.225 44.0163 110.677 43.5963 111.129C43.1764 111.573 42.5505 112.215 41.7187 113.055L41.4522 113.322ZM52.1851 115.744C50.893 115.744 49.8754 115.385 49.1324 114.666C48.3813 113.948 48.0058 112.966 48.0058 111.723V107.083C48.0058 105.864 48.3813 104.898 49.1324 104.188C49.8754 103.469 50.893 103.11 52.1851 103.11C53.4692 103.11 54.4908 103.469 55.2499 104.188C56.001 104.898 56.3765 105.864 56.3765 107.083V111.723C56.3765 112.966 56.001 113.948 55.2499 114.666C54.4908 115.385 53.4692 115.744 52.1851 115.744ZM52.1851 113.625C52.7101 113.625 53.126 113.463 53.4329 113.14C53.7478 112.817 53.9053 112.385 53.9053 111.844V107.01C53.9053 106.477 53.7478 106.049 53.4329 105.726C53.126 105.403 52.7101 105.242 52.1851 105.242C51.6683 105.242 51.2564 105.403 50.9495 105.726C50.6345 106.049 50.4771 106.477 50.4771 107.01V111.844C50.4771 112.385 50.6345 112.817 50.9495 113.14C51.2564 113.463 51.6683 113.625 52.1851 113.625ZM61.2948 113.322C61.2706 113.346 61.2665 113.37 61.2827 113.394C61.2908 113.419 61.315 113.431 61.3554 113.431H66.1161C66.1727 113.431 66.2211 113.451 66.2615 113.491C66.3019 113.532 66.3221 113.58 66.3221 113.637V115.345C66.3221 115.401 66.3019 115.45 66.2615 115.49C66.2211 115.53 66.1727 115.551 66.1161 115.551H58.2057C58.1492 115.551 58.1008 115.53 58.0604 115.49C58.02 115.45 57.9998 115.401 57.9998 115.345V113.721C57.9998 113.616 58.0321 113.528 58.0967 113.455C58.6782 112.898 59.2637 112.288 59.8532 111.626C60.4509 110.963 60.8264 110.552 60.9798 110.39C61.311 110.002 61.6461 109.631 61.9853 109.276C63.0513 108.097 63.5843 107.22 63.5843 106.647C63.5843 106.235 63.439 105.896 63.1482 105.629C62.8494 105.371 62.4658 105.242 61.9974 105.242C61.529 105.242 61.1494 105.371 60.8587 105.629C60.568 105.896 60.4226 106.247 60.4226 106.683V107.119C60.4226 107.176 60.4024 107.224 60.362 107.265C60.3216 107.305 60.2692 107.325 60.2045 107.325H58.1331C58.0765 107.325 58.0281 107.305 57.9877 107.265C57.9473 107.224 57.9271 107.176 57.9271 107.119V106.296C57.9594 105.666 58.1573 105.104 58.5207 104.612C58.8841 104.127 59.3687 103.756 59.9744 103.497C60.5801 103.239 61.2544 103.11 61.9974 103.11C62.8292 103.11 63.552 103.267 64.1658 103.582C64.7877 103.889 65.2641 104.305 65.5952 104.83C65.9264 105.363 66.0919 105.948 66.0919 106.586C66.0919 107.079 65.9708 107.584 65.7285 108.101C65.4781 108.617 65.1067 109.175 64.614 109.772C64.2506 110.225 63.8589 110.677 63.439 111.129C63.019 111.573 62.3931 112.215 61.5613 113.055L61.2948 113.322ZM76.631 110.196C76.6876 110.196 76.7401 110.216 76.7885 110.257C76.8289 110.297 76.8491 110.346 76.8491 110.402V112.183C76.8491 112.239 76.8289 112.288 76.7885 112.328C76.7401 112.369 76.6876 112.389 76.631 112.389H75.88C75.8234 112.389 75.7952 112.417 75.7952 112.474V115.345C75.7952 115.401 75.775 115.45 75.7346 115.49C75.6862 115.53 75.6337 115.551 75.5771 115.551H73.5299C73.4653 115.551 73.4128 115.53 73.3724 115.49C73.332 115.45 73.3118 115.401 73.3118 115.345V112.474C73.3118 112.417 73.2836 112.389 73.227 112.389H67.8363C67.7798 112.389 67.7273 112.369 67.6788 112.328C67.6385 112.288 67.6183 112.239 67.6183 112.183V110.778C67.6183 110.705 67.6385 110.616 67.6788 110.511L70.8406 103.412C70.889 103.307 70.9698 103.255 71.0829 103.255H73.2755C73.3562 103.255 73.4128 103.275 73.4451 103.316C73.4774 103.356 73.4733 103.417 73.433 103.497L70.5014 110.087C70.4933 110.111 70.4933 110.136 70.5014 110.16C70.5175 110.184 70.5377 110.196 70.562 110.196H73.227C73.2836 110.196 73.3118 110.164 73.3118 110.099V107.931C73.3118 107.866 73.332 107.814 73.3724 107.773C73.4128 107.733 73.4653 107.713 73.5299 107.713H75.5771C75.6337 107.713 75.6862 107.733 75.7346 107.773C75.775 107.814 75.7952 107.866 75.7952 107.931V110.099C75.7952 110.164 75.8234 110.196 75.88 110.196H76.631Z" fill="#252530"/>
</g>
</svg>
