<svg width="115" height="148" viewBox="0 0 115 148" fill="none" xmlns="http://www.w3.org/2000/svg">
<g id="AccountsReceivable_BestMeetsRequirements_MeetsRequirements 1" clip-path="url(#clip0_4_284)">
<path id="Vector" d="M10.318 109.009L58.168 133.358L104.201 109.009V13.7937H10.318V109.009Z" fill="white"/>
<path id="Vector_2" d="M105.17 14.1572L9.34875 110.705L59.0159 135.297L105.17 111.674V14.1572Z" fill="#F2F3F2" fill-opacity="0.5"/>
<path id="Vector_3" d="M7.16821 45.5322V111.069L8.86416 111.917L56.7142 136.266L58.1679 136.992L59.6216 136.266L105.776 111.917L107.472 111.069V10.644H7.16821V45.5322ZM10.3178 109.251V13.7937H104.322V109.251L58.1679 133.6L10.3178 109.251Z" fill="#DCDEDC"/>
<path id="Vector_4" d="M57.3199 15.3685C57.8045 15.3685 58.289 15.3685 58.7736 15.4896L57.3199 18.2758C55.1394 18.1547 53.2012 19.8506 53.0801 22.0311C52.9589 24.2116 54.6549 26.1499 56.8354 26.271H57.3199C58.289 26.271 59.2582 25.9076 59.985 25.3019L61.5598 27.967C60.3484 28.8149 58.8947 29.2995 57.3199 29.2995C53.4435 29.4206 50.1727 26.5133 50.0516 22.6368C49.9304 18.7604 52.8378 15.4896 56.7142 15.3685H57.3199ZM62.2866 21.3043L64.1037 24.3328L62.2866 27.2401L60.5907 24.3328H57.0777L58.8947 21.3043H62.2866ZM59.3793 20.2141C59.3793 19.7295 59.5004 19.2449 59.7427 18.8815C59.985 18.5181 60.4696 18.1547 60.833 17.9124L61.0752 17.7913C61.5598 17.549 61.6809 17.4278 61.6809 17.1856C61.6809 16.9433 61.3175 16.701 61.0752 16.701C60.5907 16.701 60.2273 16.9433 59.985 17.4278L59.3793 16.8221C59.5004 16.5799 59.7427 16.3376 59.985 16.0953C60.3484 15.853 60.7118 15.853 61.0752 15.853C61.4387 15.853 61.9232 15.9742 62.1655 16.2165C62.4078 16.4587 62.6501 16.8221 62.6501 17.1856C62.6501 17.7913 62.2866 18.2758 61.5598 18.5181L61.1964 18.7604C60.833 19.0027 60.5907 19.1238 60.4696 19.4872H62.6501V20.3352L59.3793 20.2141ZM57.3199 35.3565L68.8282 28.8149V10.644H45.6906V28.6938L57.3199 35.3565Z" fill="#FF492C"/>
<path id="Vector_5" d="M109.773 78.2397H4.86682L0.990356 86.7195L4.86682 95.1993H109.773L113.529 86.7195L109.773 78.2397Z" fill="#FFD200"/>
<path id="Vector_6" d="M21.148 72.7886C21.0672 72.7886 21.0066 72.7482 20.9663 72.6674L19.3067 68.9727C19.2824 68.9404 19.2542 68.9242 19.2219 68.9242H17.9862C17.9378 68.9242 17.9135 68.9484 17.9135 68.9969V72.6311C17.9135 72.6715 17.8974 72.7078 17.8651 72.7401C17.8409 72.7724 17.8045 72.7886 17.7561 72.7886H16.1934C16.153 72.7886 16.1166 72.7724 16.0843 72.7401C16.052 72.7078 16.0359 72.6715 16.0359 72.6311V63.6183C16.0359 63.5779 16.052 63.5416 16.0843 63.5093C16.1166 63.477 16.153 63.4608 16.1934 63.4608H20.0093C20.5746 63.4608 21.0753 63.5779 21.5114 63.8121C21.9394 64.0383 22.2705 64.3653 22.5047 64.7934C22.7389 65.2214 22.856 65.714 22.856 66.2713C22.856 66.877 22.7066 67.3938 22.4078 67.8218C22.1009 68.2579 21.6769 68.5648 21.1359 68.7425C21.0955 68.7587 21.0834 68.7869 21.0995 68.8273L22.9166 72.6068C22.9328 72.6391 22.9408 72.6634 22.9408 72.6795C22.9408 72.7522 22.8924 72.7886 22.7955 72.7886H21.148ZM17.9862 65.072C17.9378 65.072 17.9135 65.0962 17.9135 65.1447V67.4221C17.9135 67.4625 17.9378 67.4827 17.9862 67.4827H19.7306C20.1021 67.4827 20.405 67.3736 20.6392 67.1556C20.8734 66.9294 20.9905 66.6387 20.9905 66.2834C20.9905 65.928 20.8734 65.6373 20.6392 65.4112C20.405 65.185 20.1021 65.072 19.7306 65.072H17.9862ZM30.0638 68.6577C30.1204 68.9969 30.1405 69.3765 30.1244 69.7964C30.1163 69.9014 30.0557 69.9539 29.9427 69.9539H25.8361C25.7795 69.9539 25.7593 69.9741 25.7755 70.0145C25.7997 70.1921 25.8482 70.3698 25.9209 70.5475C26.1551 71.0482 26.6275 71.2985 27.3382 71.2985C27.9035 71.2905 28.3517 71.0603 28.6828 70.608C28.7151 70.5515 28.7555 70.5233 28.804 70.5233C28.8282 70.5233 28.8605 70.5394 28.9009 70.5717L29.8579 71.5287C29.8983 71.5691 29.9185 71.6054 29.9185 71.6377C29.9185 71.662 29.9023 71.6983 29.87 71.7468C29.5793 72.1102 29.1997 72.3928 28.7313 72.5947C28.271 72.7966 27.7662 72.8976 27.217 72.8976C26.4498 72.8976 25.8038 72.7239 25.2788 72.3767C24.7458 72.0294 24.3662 71.5449 24.1401 70.923C23.9544 70.4788 23.8615 69.8974 23.8615 69.1786C23.8615 68.686 23.9261 68.2539 24.0553 67.8824C24.2653 67.2525 24.6247 66.7518 25.1335 66.3803C25.6422 66.0088 26.2479 65.823 26.9505 65.823C27.8389 65.823 28.5536 66.0815 29.0947 66.5983C29.6277 67.1071 29.9508 67.7936 30.0638 68.6577ZM26.9627 67.4463C26.4054 67.4463 26.038 67.7088 25.8603 68.2337C25.8199 68.3468 25.7876 68.4881 25.7634 68.6577C25.7634 68.7062 25.7876 68.7304 25.8361 68.7304H28.1377C28.1862 68.7304 28.2023 68.7062 28.1862 68.6577C28.1458 68.3993 28.1256 68.2741 28.1256 68.2822C28.0448 68.0157 27.9035 67.8097 27.7016 67.6644C27.4997 67.519 27.2534 67.4463 26.9627 67.4463ZM35.5272 66.1017C35.5272 66.0532 35.5434 66.0128 35.5757 65.9805C35.608 65.9563 35.6483 65.9442 35.6968 65.9442H37.2474C37.2958 65.9442 37.3362 65.9563 37.3685 65.9805C37.3928 66.0128 37.4049 66.0532 37.4049 66.1017V75.1023C37.4049 75.1508 37.3928 75.1911 37.3685 75.2235C37.3362 75.2558 37.2958 75.2719 37.2474 75.2719H35.6968C35.6483 75.2719 35.608 75.2558 35.5757 75.2235C35.5434 75.1911 35.5272 75.1508 35.5272 75.1023V72.2555C35.5272 72.2313 35.5191 72.2152 35.503 72.2071C35.4868 72.199 35.4707 72.2071 35.4545 72.2313C35.0992 72.6755 34.6025 72.8976 33.9645 72.8976C33.3104 72.8976 32.7652 72.732 32.3291 72.4009C31.885 72.0617 31.5619 71.6095 31.36 71.0441C31.1985 70.5757 31.1177 70.0185 31.1177 69.3724C31.1177 68.7748 31.1945 68.2418 31.3479 67.7734C31.5417 67.1677 31.8648 66.6912 32.317 66.3439C32.7612 66.0048 33.2942 65.8352 33.9161 65.8352C34.5702 65.8352 35.083 66.0774 35.4545 66.562C35.4707 66.5862 35.4868 66.5943 35.503 66.5862C35.5191 66.5781 35.5272 66.562 35.5272 66.5378V66.1017ZM35.2244 70.7534C35.4182 70.4223 35.5151 69.9579 35.5151 69.3603C35.5151 68.795 35.4263 68.3468 35.2486 68.0157C35.0305 67.6361 34.7196 67.4463 34.3158 67.4463C33.8797 67.4463 33.5526 67.6361 33.3346 68.0157C33.1488 68.371 33.056 68.8152 33.056 69.3482C33.056 69.9458 33.165 70.4183 33.383 70.7655C33.6092 71.1128 33.9241 71.2864 34.3279 71.2864C34.7237 71.2864 35.0225 71.1088 35.2244 70.7534ZM42.844 66.1017C42.844 66.0532 42.8602 66.0128 42.8925 65.9805C42.9248 65.9563 42.9611 65.9442 43.0015 65.9442H44.5642C44.6127 65.9442 44.653 65.9563 44.6853 65.9805C44.7096 66.0128 44.7217 66.0532 44.7217 66.1017V72.6311C44.7217 72.6715 44.7096 72.7078 44.6853 72.7401C44.653 72.7724 44.6127 72.7886 44.5642 72.7886H43.0015C42.9611 72.7886 42.9248 72.7724 42.8925 72.7401C42.8602 72.7078 42.844 72.6715 42.844 72.6311V72.1707C42.844 72.1465 42.836 72.1344 42.8198 72.1344C42.8036 72.1263 42.7875 72.1344 42.7713 72.1586C42.416 72.6432 41.8628 72.8855 41.1117 72.8855C40.4414 72.8855 39.8882 72.6795 39.4521 72.2677C39.016 71.8639 38.798 71.2905 38.798 70.5475V66.1017C38.798 66.0532 38.8141 66.0128 38.8464 65.9805C38.8787 65.9563 38.9151 65.9442 38.9555 65.9442H40.506C40.5464 65.9442 40.5828 65.9563 40.6151 65.9805C40.6474 66.0128 40.6635 66.0532 40.6635 66.1017V70.0871C40.6635 70.4425 40.7604 70.7292 40.9543 70.9472C41.14 71.1734 41.4025 71.2864 41.7417 71.2864C42.0405 71.2864 42.2908 71.1936 42.4927 71.0078C42.6865 70.8301 42.8036 70.5919 42.844 70.2931V66.1017ZM47.1202 65.1689C46.8214 65.1689 46.5711 65.0679 46.3692 64.866C46.1673 64.6641 46.0663 64.4138 46.0663 64.115C46.0663 63.8 46.1673 63.5456 46.3692 63.3518C46.563 63.158 46.8134 63.0611 47.1202 63.0611C47.4352 63.0611 47.6896 63.158 47.8834 63.3518C48.0772 63.5456 48.1742 63.8 48.1742 64.115C48.1742 64.4138 48.0772 64.6641 47.8834 64.866C47.6815 65.0679 47.4271 65.1689 47.1202 65.1689ZM46.3207 72.7886C46.2803 72.7886 46.244 72.7724 46.2117 72.7401C46.1794 72.7078 46.1632 72.6715 46.1632 72.6311V66.0896C46.1632 66.0411 46.1794 66.0007 46.2117 65.9684C46.244 65.9361 46.2803 65.92 46.3207 65.92H47.8834C47.9319 65.92 47.9682 65.9361 47.9925 65.9684C48.0248 66.0007 48.0409 66.0411 48.0409 66.0896V72.6311C48.0409 72.6715 48.0248 72.7078 47.9925 72.7401C47.9682 72.7724 47.9319 72.7886 47.8834 72.7886H46.3207ZM52.9228 65.8473C53.2378 65.8473 53.4922 65.9078 53.686 66.029C53.7506 66.0694 53.7748 66.138 53.7587 66.2349L53.4801 67.7492C53.472 67.8541 53.4114 67.8864 53.2984 67.8461C53.1611 67.7976 53.0036 67.7734 52.8259 67.7734C52.7532 67.7734 52.6563 67.7855 52.5352 67.8097C52.2121 67.834 51.9416 67.9511 51.7235 68.161C51.4974 68.371 51.3843 68.6496 51.3843 68.9969V72.6311C51.3843 72.6715 51.3722 72.7078 51.348 72.7401C51.3157 72.7724 51.2753 72.7886 51.2269 72.7886H49.6642C49.6238 72.7886 49.5875 72.7724 49.5551 72.7401C49.5228 72.7078 49.5067 72.6715 49.5067 72.6311V66.1017C49.5067 66.0532 49.5228 66.0128 49.5551 65.9805C49.5875 65.9563 49.6238 65.9442 49.6642 65.9442H51.2269C51.2753 65.9442 51.3157 65.9563 51.348 65.9805C51.3722 66.0128 51.3843 66.0532 51.3843 66.1017V66.6105C51.3843 66.6347 51.3965 66.6508 51.4207 66.6589C51.4368 66.667 51.449 66.6629 51.457 66.6468C51.8205 66.1138 52.309 65.8473 52.9228 65.8473ZM60.5061 68.6577C60.5546 68.9969 60.5708 69.3765 60.5546 69.7964C60.5465 69.9014 60.49 69.9539 60.385 69.9539H56.2663C56.2097 69.9539 56.1936 69.9741 56.2178 70.0145C56.242 70.1921 56.2905 70.3698 56.3632 70.5475C56.5893 71.0482 57.0577 71.2985 57.7684 71.2985C58.3418 71.2905 58.79 71.0603 59.113 70.608C59.1534 70.5515 59.1938 70.5233 59.2342 70.5233C59.2665 70.5233 59.2988 70.5394 59.3311 70.5717L60.2881 71.5287C60.3365 71.5691 60.3608 71.6054 60.3608 71.6377C60.3608 71.662 60.3406 71.6983 60.3002 71.7468C60.0095 72.1102 59.6339 72.3928 59.1736 72.5947C58.7133 72.7966 58.2045 72.8976 57.6473 72.8976C56.8881 72.8976 56.242 72.7239 55.709 72.3767C55.1841 72.0294 54.8045 71.5449 54.5703 70.923C54.3846 70.4788 54.2917 69.8974 54.2917 69.1786C54.2917 68.686 54.3603 68.2539 54.4976 67.8824C54.6995 67.2525 55.0549 66.7518 55.5637 66.3803C56.0724 66.0088 56.6781 65.823 57.3807 65.823C58.2691 65.823 58.9838 66.0815 59.5249 66.5983C60.0579 67.1071 60.385 67.7936 60.5061 68.6577ZM57.3929 67.4463C56.8356 67.4463 56.4682 67.7088 56.2905 68.2337C56.2582 68.3468 56.2259 68.4881 56.1936 68.6577C56.1936 68.7062 56.2178 68.7304 56.2663 68.7304H58.5679C58.6244 68.7304 58.6446 68.7062 58.6285 68.6577C58.58 68.3993 58.5558 68.2741 58.5558 68.2822C58.475 68.0157 58.3378 67.8097 58.1439 67.6644C57.942 67.519 57.6917 67.4463 57.3929 67.4463ZM69.313 65.8352C70.0075 65.8352 70.5486 66.0451 70.9362 66.4651C71.3239 66.877 71.5177 67.4625 71.5177 68.2216V72.6311C71.5177 72.6715 71.5056 72.7078 71.4814 72.7401C71.4491 72.7724 71.4087 72.7886 71.3602 72.7886H69.8096C69.7612 72.7886 69.7208 72.7724 69.6885 72.7401C69.6562 72.7078 69.64 72.6715 69.64 72.6311V68.6335C69.64 68.2701 69.5472 67.9793 69.3614 67.7613C69.1757 67.5513 68.9294 67.4463 68.6225 67.4463C68.3075 67.4463 68.0531 67.5513 67.8593 67.7613C67.6655 67.9793 67.5686 68.266 67.5686 68.6214V72.6311C67.5686 72.6715 67.5524 72.7078 67.5201 72.7401C67.4878 72.7724 67.4515 72.7886 67.4111 72.7886H65.8605C65.812 72.7886 65.7757 72.7724 65.7515 72.7401C65.7192 72.7078 65.703 72.6715 65.703 72.6311V68.6335C65.703 68.2781 65.6061 67.9914 65.4123 67.7734C65.2104 67.5553 64.956 67.4463 64.6491 67.4463C64.3665 67.4463 64.1282 67.5311 63.9344 67.7007C63.7406 67.8703 63.6275 68.1045 63.5952 68.4033V72.6311C63.5952 72.6715 63.579 72.7078 63.5467 72.7401C63.5144 72.7724 63.4781 72.7886 63.4377 72.7886H61.875C61.8346 72.7886 61.7983 72.7724 61.766 72.7401C61.7337 72.7078 61.7175 72.6715 61.7175 72.6311V66.1017C61.7175 66.0532 61.7337 66.0128 61.766 65.9805C61.7983 65.9563 61.8346 65.9442 61.875 65.9442H63.4377C63.4781 65.9442 63.5144 65.9563 63.5467 65.9805C63.579 66.0128 63.5952 66.0532 63.5952 66.1017V66.6226C63.5952 66.6468 63.6033 66.6629 63.6194 66.671C63.6356 66.6791 63.6558 66.671 63.68 66.6468C64.0434 66.1057 64.6047 65.8352 65.3638 65.8352C65.808 65.8352 66.1997 65.928 66.5389 66.1138C66.87 66.2995 67.1244 66.566 67.3021 66.9133C67.3263 66.9618 67.3546 66.9618 67.3869 66.9133C67.5888 66.5499 67.8553 66.2793 68.1864 66.1017C68.5175 65.924 68.893 65.8352 69.313 65.8352ZM78.8709 68.6577C78.9193 68.9969 78.9355 69.3765 78.9193 69.7964C78.9113 69.9014 78.8547 69.9539 78.7497 69.9539H74.631C74.5745 69.9539 74.5543 69.9741 74.5704 70.0145C74.6027 70.1921 74.6512 70.3698 74.7158 70.5475C74.95 71.0482 75.4224 71.2985 76.1331 71.2985C76.6984 71.2905 77.1467 71.0603 77.4778 70.608C77.5181 70.5515 77.5585 70.5233 77.5989 70.5233C77.6231 70.5233 77.6554 70.5394 77.6958 70.5717L78.6528 71.5287C78.6932 71.5691 78.7134 71.6054 78.7134 71.6377C78.7134 71.662 78.6972 71.6983 78.6649 71.7468C78.3742 72.1102 77.9987 72.3928 77.5383 72.5947C77.0699 72.7966 76.5611 72.8976 76.012 72.8976C75.2528 72.8976 74.6068 72.7239 74.0737 72.3767C73.5488 72.0294 73.1692 71.5449 72.935 70.923C72.7493 70.4788 72.6564 69.8974 72.6564 69.1786C72.6564 68.686 72.721 68.2539 72.8502 67.8824C73.0602 67.2525 73.4196 66.7518 73.9284 66.3803C74.4372 66.0088 75.0429 65.823 75.7455 65.823C76.6338 65.823 77.3486 66.0815 77.8896 66.5983C78.4227 67.1071 78.7497 67.7936 78.8709 68.6577ZM75.7576 67.4463C75.2003 67.4463 74.8329 67.7088 74.6552 68.2337C74.6229 68.3468 74.5906 68.4881 74.5583 68.6577C74.5583 68.7062 74.5825 68.7304 74.631 68.7304H76.9326C76.9892 68.7304 77.0053 68.7062 76.9811 68.6577C76.9407 68.3993 76.9205 68.2741 76.9205 68.2822C76.8398 68.0157 76.6984 67.8097 76.4965 67.6644C76.3027 67.519 76.0564 67.4463 75.7576 67.4463ZM83.6438 65.8352C84.3544 65.8352 84.9278 66.0532 85.3639 66.4893C85.8 66.9254 86.0181 67.515 86.0181 68.2579V72.6311C86.0181 72.6715 86.0019 72.7078 85.9696 72.7401C85.9454 72.7724 85.9091 72.7886 85.8606 72.7886H84.2979C84.2575 72.7886 84.2212 72.7724 84.1889 72.7401C84.1566 72.7078 84.1404 72.6715 84.1404 72.6311V68.6456C84.1404 68.2902 84.0395 67.9995 83.8376 67.7734C83.6438 67.5553 83.3813 67.4463 83.0502 67.4463C82.7191 67.4463 82.4566 67.5553 82.2628 67.7734C82.0609 67.9995 81.9599 68.2902 81.9599 68.6456V72.6311C81.9599 72.6715 81.9438 72.7078 81.9115 72.7401C81.8792 72.7724 81.8428 72.7886 81.8024 72.7886H80.2397C80.1913 72.7886 80.155 72.7724 80.1307 72.7401C80.0984 72.7078 80.0823 72.6715 80.0823 72.6311V66.1017C80.0823 66.0532 80.0984 66.0128 80.1307 65.9805C80.155 65.9563 80.1913 65.9442 80.2397 65.9442H81.8024C81.8428 65.9442 81.8792 65.9563 81.9115 65.9805C81.9438 66.0128 81.9599 66.0532 81.9599 66.1017V66.562C81.9599 66.5943 81.968 66.6145 81.9842 66.6226C82.0003 66.6306 82.0124 66.6266 82.0205 66.6105C82.3839 66.0936 82.925 65.8352 83.6438 65.8352ZM91.2998 67.2888C91.2998 67.3292 91.2836 67.3655 91.2513 67.3979C91.219 67.4302 91.1827 67.4463 91.1423 67.4463H89.8582C89.8178 67.4463 89.7976 67.4665 89.7976 67.5069V70.3415C89.7976 70.6323 89.8542 70.8503 89.9672 70.9957C90.0884 71.133 90.2822 71.2016 90.5487 71.2016H90.9969C91.0373 71.2016 91.0736 71.2178 91.1059 71.2501C91.1382 71.2824 91.1544 71.3187 91.1544 71.3591V72.6311C91.1544 72.728 91.1019 72.7845 90.9969 72.8007C90.6173 72.8168 90.3508 72.8249 90.1974 72.8249C89.4544 72.8249 88.9012 72.7038 88.5378 72.4615C88.1744 72.2192 87.9886 71.7589 87.9805 71.0805V67.5069C87.9805 67.4665 87.9563 67.4463 87.9079 67.4463H87.1568C87.1083 67.4463 87.068 67.4302 87.0357 67.3979C87.0114 67.3655 86.9993 67.3292 86.9993 67.2888V66.1017C86.9993 66.0532 87.0114 66.0128 87.0357 65.9805C87.068 65.9563 87.1083 65.9442 87.1568 65.9442H87.9079C87.9563 65.9442 87.9805 65.92 87.9805 65.8715V64.2846C87.9805 64.2442 87.9967 64.2079 88.029 64.1755C88.0613 64.1432 88.0976 64.1271 88.138 64.1271H89.628C89.6765 64.1271 89.7169 64.1432 89.7492 64.1755C89.7815 64.2079 89.7976 64.2442 89.7976 64.2846V65.8715C89.7976 65.92 89.8178 65.9442 89.8582 65.9442H91.1423C91.1827 65.9442 91.219 65.9563 91.2513 65.9805C91.2836 66.0128 91.2998 66.0532 91.2998 66.1017V67.2888ZM95.1641 72.8855C94.5665 72.8855 94.0456 72.8007 93.6014 72.6311C93.1572 72.4615 92.814 72.2273 92.5717 71.9285C92.3295 71.6216 92.2083 71.2783 92.2083 70.8988V70.7655C92.2083 70.7171 92.2245 70.6767 92.2568 70.6444C92.281 70.6202 92.3173 70.608 92.3658 70.608H93.8437C93.8841 70.608 93.9204 70.6202 93.9527 70.6444C93.985 70.6767 94.0012 70.7171 94.0012 70.7655V70.7776C94.0012 70.9715 94.1102 71.137 94.3282 71.2743C94.5463 71.4116 94.8209 71.4802 95.152 71.4802C95.4508 71.4802 95.6931 71.4197 95.8788 71.2985C96.0646 71.1774 96.1575 71.032 96.1575 70.8624C96.1575 70.7009 96.0807 70.5798 95.9273 70.499C95.7658 70.4183 95.5033 70.3335 95.1399 70.2446C94.7199 70.1396 94.3888 70.0387 94.1465 69.9418C93.5812 69.7399 93.129 69.4976 92.7898 69.2149C92.4506 68.9323 92.281 68.5245 92.281 67.9914C92.281 67.3373 92.5394 66.8164 93.0563 66.4287C93.5651 66.0411 94.2394 65.8473 95.0793 65.8473C95.6527 65.8473 96.1494 65.9361 96.5693 66.1138C96.9974 66.2995 97.3285 66.558 97.5627 66.8891C97.805 67.2121 97.9261 67.5836 97.9261 68.0035C97.9261 68.052 97.9099 68.0883 97.8776 68.1126C97.8453 68.1449 97.8049 68.161 97.7565 68.161H96.3392C96.2907 68.161 96.2503 68.1449 96.218 68.1126C96.1857 68.0883 96.1696 68.052 96.1696 68.0035C96.1696 67.8097 96.0727 67.6442 95.8788 67.5069C95.6769 67.3777 95.4104 67.3131 95.0793 67.3131C94.7886 67.3131 94.5503 67.3656 94.3646 67.4705C94.1788 67.5755 94.086 67.7209 94.086 67.9066C94.086 68.0843 94.1748 68.2176 94.3525 68.3064C94.5382 68.3952 94.8451 68.4921 95.2731 68.5971C95.37 68.6214 95.4791 68.6496 95.6002 68.6819C95.7294 68.7142 95.8627 68.7506 96 68.791C96.6299 68.9767 97.1266 69.2149 97.49 69.5057C97.8534 69.8045 98.0351 70.2325 98.0351 70.7898C98.0351 71.4439 97.7767 71.9567 97.2598 72.3282C96.743 72.6997 96.0444 72.8855 95.1641 72.8855ZM30.4151 54.6055C30.3586 54.6298 30.3586 54.654 30.4151 54.6782C31.255 55.1143 31.675 55.8371 31.675 56.8466C31.675 57.7107 31.3802 58.3649 30.7907 58.8091C30.2092 59.2452 29.442 59.4632 28.489 59.4632H25.0365C24.9962 59.4632 24.9598 59.4471 24.9275 59.4148C24.8952 59.3825 24.8791 59.3461 24.8791 59.3057V50.293C24.8791 50.2526 24.8952 50.2163 24.9275 50.184C24.9598 50.1517 24.9962 50.1355 25.0365 50.1355H28.38C30.4878 50.1355 31.5417 50.9875 31.5417 52.6915C31.5417 53.5799 31.1662 54.2179 30.4151 54.6055ZM26.8294 51.7467C26.7809 51.7467 26.7567 51.7709 26.7567 51.8193V53.8908C26.7567 53.9393 26.7809 53.9635 26.8294 53.9635H28.38C28.7999 53.9635 29.127 53.8626 29.3612 53.6607C29.5873 53.4668 29.7004 53.2044 29.7004 52.8732C29.7004 52.526 29.5873 52.2514 29.3612 52.0495C29.127 51.8476 28.7999 51.7467 28.38 51.7467H26.8294ZM28.489 57.84C28.9009 57.84 29.2199 57.735 29.446 57.525C29.6802 57.315 29.7973 57.0283 29.7973 56.6649C29.7973 56.3015 29.6802 56.0148 29.446 55.8048C29.2199 55.5948 28.8968 55.4899 28.4769 55.4899H26.8294C26.7809 55.4899 26.7567 55.5141 26.7567 55.5625V57.7673C26.7567 57.8157 26.7809 57.84 26.8294 57.84H28.489ZM39.0887 55.3324C39.1372 55.6716 39.1533 56.0511 39.1372 56.4711C39.1291 56.5761 39.0726 56.6286 38.9676 56.6286H34.8488C34.7923 56.6286 34.7721 56.6488 34.7883 56.6891C34.8206 56.8668 34.8731 57.0445 34.9457 57.2222C35.1719 57.7229 35.6403 57.9732 36.351 57.9732C36.9244 57.9651 37.3726 57.735 37.6956 57.2827C37.736 57.2262 37.7764 57.1979 37.8167 57.1979C37.841 57.1979 37.8733 57.2141 37.9137 57.2464L38.8707 58.2034C38.9191 58.2438 38.9433 58.2801 38.9433 58.3124C38.9433 58.3366 38.9232 58.373 38.8828 58.4214C38.592 58.7848 38.2165 59.0675 37.7562 59.2694C37.2878 59.4713 36.779 59.5723 36.2298 59.5723C35.4707 59.5723 34.8246 59.3986 34.2916 59.0514C33.7667 58.7041 33.3871 58.2195 33.1529 57.5977C32.9671 57.1535 32.8743 56.572 32.8743 55.8533C32.8743 55.3606 32.9429 54.9286 33.0802 54.5571C33.2821 53.9272 33.6374 53.4264 34.1462 53.055C34.655 52.6835 35.2607 52.4977 35.9633 52.4977C36.8517 52.4977 37.5664 52.7561 38.1075 53.273C38.6405 53.7818 38.9676 54.4682 39.0887 55.3324ZM35.9754 54.121C35.4182 54.121 35.0507 54.3835 34.8731 54.9084C34.8408 55.0215 34.8085 55.1628 34.7761 55.3324C34.7761 55.3808 34.8004 55.4051 34.8488 55.4051H37.1505C37.207 55.4051 37.2272 55.3808 37.211 55.3324C37.1626 55.0739 37.1384 54.9488 37.1384 54.9568C37.0576 54.6903 36.9163 54.4844 36.7144 54.339C36.5206 54.1937 36.2742 54.121 35.9754 54.121ZM42.9409 59.5601C42.3433 59.5601 41.8224 59.4753 41.3782 59.3057C40.9341 59.1362 40.5908 58.9019 40.3486 58.6031C40.0982 58.2963 39.973 57.953 39.973 57.5735V57.4402C39.973 57.3917 39.9892 57.3514 40.0215 57.3191C40.0538 57.2948 40.0942 57.2827 40.1426 57.2827H41.6205C41.6609 57.2827 41.6972 57.2948 41.7295 57.3191C41.7618 57.3514 41.778 57.3917 41.778 57.4402V57.4523C41.778 57.6461 41.887 57.8117 42.1051 57.949C42.3231 58.0863 42.5937 58.1549 42.9167 58.1549C43.2236 58.1549 43.4699 58.0944 43.6557 57.9732C43.8414 57.8521 43.9343 57.7067 43.9343 57.5371C43.9343 57.3756 43.8535 57.2545 43.692 57.1737C43.5305 57.0929 43.268 57.0081 42.9046 56.9193C42.4927 56.8143 42.1656 56.7134 41.9234 56.6165C41.358 56.4146 40.9058 56.1723 40.5666 55.8896C40.2274 55.607 40.0578 55.1991 40.0578 54.6661C40.0578 54.012 40.3122 53.4911 40.821 53.1034C41.3298 52.7158 42.0082 52.5219 42.8561 52.5219C43.4215 52.5219 43.9181 52.6108 44.3462 52.7885C44.7742 52.9742 45.1053 53.2326 45.3395 53.5637C45.5737 53.8868 45.6908 54.2583 45.6908 54.6782C45.6908 54.7267 45.6746 54.763 45.6423 54.7872C45.6181 54.8196 45.5818 54.8357 45.5333 54.8357H44.1039C44.0635 54.8357 44.0272 54.8196 43.9949 54.7872C43.9625 54.763 43.9464 54.7267 43.9464 54.6782C43.9464 54.4844 43.8454 54.3188 43.6435 54.1816C43.4497 54.0523 43.1873 53.9877 42.8561 53.9877C42.5654 53.9877 42.3272 54.0402 42.1414 54.1452C41.9476 54.2502 41.8507 54.3956 41.8507 54.5813C41.8507 54.759 41.9436 54.8922 42.1293 54.9811C42.3151 55.0699 42.6179 55.1668 43.0378 55.2718L43.377 55.3566L43.7768 55.4656C44.4067 55.6514 44.9034 55.8896 45.2668 56.1804C45.6302 56.4792 45.8119 56.9072 45.8119 57.4644C45.8119 58.1186 45.5535 58.6314 45.0366 59.0029C44.5117 59.3744 43.8131 59.5601 42.9409 59.5601ZM50.815 53.9635C50.815 54.0039 50.7988 54.0402 50.7665 54.0725C50.7342 54.1048 50.6939 54.121 50.6454 54.121H49.3734C49.325 54.121 49.3008 54.1412 49.3008 54.1816V57.0162C49.3008 57.3069 49.3613 57.525 49.4825 57.6704C49.6036 57.8077 49.7974 57.8763 50.0639 57.8763H50.5C50.5485 57.8763 50.5889 57.8925 50.6212 57.9248C50.6535 57.9571 50.6696 57.9934 50.6696 58.0338V59.3057C50.6696 59.4027 50.6131 59.4592 50.5 59.4753C50.1285 59.4915 49.862 59.4996 49.7005 59.4996C48.9656 59.4996 48.4164 59.3784 48.053 59.1362C47.6896 58.8939 47.5039 58.4335 47.4958 57.7552V54.1816C47.4958 54.1412 47.4715 54.121 47.4231 54.121H46.672C46.6236 54.121 46.5832 54.1048 46.5509 54.0725C46.5186 54.0402 46.5024 54.0039 46.5024 53.9635V52.7763C46.5024 52.7279 46.5186 52.6875 46.5509 52.6552C46.5832 52.631 46.6236 52.6189 46.672 52.6189H47.4231C47.4715 52.6189 47.4958 52.5946 47.4958 52.5462V50.9592C47.4958 50.9189 47.5119 50.8825 47.5442 50.8502C47.5685 50.8179 47.6048 50.8018 47.6533 50.8018H49.1433C49.1917 50.8018 49.2321 50.8179 49.2644 50.8502C49.2886 50.8825 49.3008 50.9189 49.3008 50.9592V52.5462C49.3008 52.5946 49.325 52.6189 49.3734 52.6189H50.6454C50.6939 52.6189 50.7342 52.631 50.7665 52.6552C50.7988 52.6875 50.815 52.7279 50.815 52.7763V53.9635ZM60.7242 50.2445C60.7726 50.1718 60.8332 50.1355 60.9059 50.1355H62.4686C62.5171 50.1355 62.5574 50.1517 62.5897 50.184C62.614 50.2163 62.6261 50.2526 62.6261 50.293V59.3057C62.6261 59.3461 62.614 59.3825 62.5897 59.4148C62.5574 59.4471 62.5171 59.4632 62.4686 59.4632H60.9059C60.8655 59.4632 60.8292 59.4471 60.7969 59.4148C60.7646 59.3825 60.7484 59.3461 60.7484 59.3057V53.4305C60.7484 53.3901 60.7403 53.3699 60.7242 53.3699C60.708 53.3699 60.6919 53.3861 60.6757 53.4184L59.2584 55.6231C59.218 55.6958 59.1575 55.7321 59.0767 55.7321H58.2893C58.2085 55.7321 58.1439 55.6958 58.0955 55.6231L56.6903 53.4184C56.6741 53.3861 56.6539 53.374 56.6297 53.382C56.6135 53.382 56.6055 53.4022 56.6055 53.4426V59.3057C56.6055 59.3461 56.5893 59.3825 56.557 59.4148C56.5247 59.4471 56.4884 59.4632 56.448 59.4632H54.8853C54.8449 59.4632 54.8086 59.4471 54.7763 59.4148C54.7439 59.3825 54.7278 59.3461 54.7278 59.3057V50.293C54.7278 50.2526 54.7439 50.2163 54.7763 50.184C54.8086 50.1517 54.8449 50.1355 54.8853 50.1355H56.448C56.5287 50.1355 56.5893 50.1718 56.6297 50.2445L58.6285 53.3457C58.6608 53.4022 58.6891 53.4022 58.7133 53.3457L60.7242 50.2445ZM70.1973 55.3324C70.2538 55.6716 70.274 56.0511 70.2579 56.4711C70.2417 56.5761 70.1811 56.6286 70.0762 56.6286H65.9574C65.909 56.6286 65.8928 56.6488 65.909 56.6891C65.9332 56.8668 65.9816 57.0445 66.0543 57.2222C66.2885 57.7229 66.761 57.9732 67.4717 57.9732C68.037 57.9651 68.4852 57.735 68.8163 57.2827C68.8486 57.2262 68.889 57.1979 68.9374 57.1979C68.9617 57.1979 68.9899 57.2141 69.0222 57.2464L69.9914 58.2034C70.0317 58.2438 70.0519 58.2801 70.0519 58.3124C70.0519 58.3366 70.0358 58.373 70.0035 58.4214C69.7047 58.7848 69.3251 59.0675 68.8648 59.2694C68.4044 59.4713 67.8997 59.5723 67.3505 59.5723C66.5833 59.5723 65.9372 59.3986 65.4123 59.0514C64.8793 58.7041 64.4997 58.2195 64.2736 57.5977C64.0878 57.1535 63.995 56.572 63.995 55.8533C63.995 55.3606 64.0596 54.9286 64.1888 54.5571C64.3907 53.9272 64.7501 53.4264 65.2669 53.055C65.7757 52.6835 66.3814 52.4977 67.084 52.4977C67.9724 52.4977 68.6831 52.7561 69.2161 53.273C69.7572 53.7818 70.0842 54.4682 70.1973 55.3324ZM67.0961 54.121C66.5389 54.121 66.1714 54.3835 65.9938 54.9084C65.9534 55.0215 65.9211 55.1628 65.8968 55.3324C65.8968 55.3808 65.917 55.4051 65.9574 55.4051H68.2712C68.3196 55.4051 68.3358 55.3808 68.3196 55.3324C68.2793 55.0739 68.2591 54.9488 68.2591 54.9568C68.1783 54.6903 68.037 54.4844 67.8351 54.339C67.6332 54.1937 67.3869 54.121 67.0961 54.121ZM77.4778 55.3324C77.5262 55.6716 77.5424 56.0511 77.5262 56.4711C77.5181 56.5761 77.4616 56.6286 77.3566 56.6286H73.2379C73.1814 56.6286 73.1652 56.6488 73.1894 56.6891C73.2137 56.8668 73.2621 57.0445 73.3348 57.2222C73.5609 57.7229 74.0293 57.9732 74.74 57.9732C75.3134 57.9651 75.7616 57.735 76.0847 57.2827C76.125 57.2262 76.1654 57.1979 76.2058 57.1979C76.2381 57.1979 76.2704 57.2141 76.3027 57.2464L77.2597 58.2034C77.3082 58.2438 77.3324 58.2801 77.3324 58.3124C77.3324 58.3366 77.3122 58.373 77.2718 58.4214C76.9811 58.7848 76.6056 59.0675 76.1452 59.2694C75.6849 59.4713 75.1761 59.5723 74.6189 59.5723C73.8597 59.5723 73.2137 59.3986 72.6806 59.0514C72.1557 58.7041 71.7761 58.2195 71.5419 57.5977C71.3562 57.1535 71.2633 56.572 71.2633 55.8533C71.2633 55.3606 71.332 54.9286 71.4693 54.5571C71.6712 53.9272 72.0265 53.4264 72.5353 53.055C73.0441 52.6835 73.6498 52.4977 74.3524 52.4977C75.2407 52.4977 75.9554 52.7561 76.4965 53.273C77.0295 53.7818 77.3566 54.4682 77.4778 55.3324ZM74.3645 54.121C73.8072 54.121 73.4398 54.3835 73.2621 54.9084C73.2298 55.0215 73.1975 55.1628 73.1652 55.3324C73.1652 55.3808 73.1894 55.4051 73.2379 55.4051H75.5395C75.5961 55.4051 75.6163 55.3808 75.6001 55.3324C75.5517 55.0739 75.5274 54.9488 75.5274 54.9568C75.4467 54.6903 75.3094 54.4844 75.1155 54.339C74.9137 54.1937 74.6633 54.121 74.3645 54.121ZM82.4566 53.9635C82.4566 54.0039 82.4404 54.0402 82.4081 54.0725C82.3839 54.1048 82.3476 54.121 82.2991 54.121H81.015C80.9747 54.121 80.9545 54.1412 80.9545 54.1816V57.0162C80.9545 57.3069 81.015 57.525 81.1362 57.6704C81.2573 57.8077 81.4511 57.8763 81.7176 57.8763H82.1537C82.1941 57.8763 82.2305 57.8925 82.2628 57.9248C82.2951 57.9571 82.3112 57.9934 82.3112 58.0338V59.3057C82.3112 59.4027 82.2587 59.4592 82.1537 59.4753C81.7822 59.4915 81.5157 59.4996 81.3542 59.4996C80.6193 59.4996 80.0661 59.3784 79.6946 59.1362C79.3312 58.8939 79.1455 58.4335 79.1374 57.7552V54.1816C79.1374 54.1412 79.1172 54.121 79.0768 54.121H78.3136C78.2733 54.121 78.2369 54.1048 78.2046 54.0725C78.1723 54.0402 78.1561 54.0039 78.1561 53.9635V52.7763C78.1561 52.7279 78.1723 52.6875 78.2046 52.6552C78.2369 52.631 78.2733 52.6189 78.3136 52.6189H79.0768C79.1172 52.6189 79.1374 52.5946 79.1374 52.5462V50.9592C79.1374 50.9189 79.1535 50.8825 79.1858 50.8502C79.2181 50.8179 79.2545 50.8018 79.2949 50.8018H80.797C80.8374 50.8018 80.8737 50.8179 80.906 50.8502C80.9383 50.8825 80.9545 50.9189 80.9545 50.9592V52.5462C80.9545 52.5946 80.9747 52.6189 81.015 52.6189H82.2991C82.3476 52.6189 82.3839 52.631 82.4081 52.6552C82.4404 52.6875 82.4566 52.7279 82.4566 52.7763V53.9635ZM86.3209 59.5601C85.7314 59.5601 85.2105 59.4753 84.7582 59.3057C84.3141 59.1362 83.9708 58.9019 83.7286 58.6031C83.4863 58.2963 83.3651 57.953 83.3651 57.5735V57.4402C83.3651 57.3917 83.3813 57.3514 83.4136 57.3191C83.4459 57.2948 83.4822 57.2827 83.5226 57.2827H85.0005C85.049 57.2827 85.0894 57.2948 85.1217 57.3191C85.1459 57.3514 85.158 57.3917 85.158 57.4402V57.4523C85.158 57.6461 85.267 57.8117 85.4851 57.949C85.7031 58.0863 85.9777 58.1549 86.3088 58.1549C86.6076 58.1549 86.854 58.0944 87.0478 57.9732C87.2335 57.8521 87.3264 57.7067 87.3264 57.5371C87.3264 57.3756 87.2456 57.2545 87.0841 57.1737C86.9226 57.0929 86.6601 57.0081 86.2967 56.9193C85.8768 56.8143 85.5497 56.7134 85.3155 56.6165C84.7421 56.4146 84.2858 56.1723 83.9466 55.8896C83.6155 55.607 83.4499 55.1991 83.4499 54.6661C83.4499 54.012 83.7043 53.4911 84.2131 53.1034C84.7219 52.7158 85.4003 52.5219 86.2483 52.5219C86.8136 52.5219 87.3102 52.6108 87.7383 52.7885C88.1663 52.9742 88.4974 53.2326 88.7316 53.5637C88.9658 53.8868 89.0829 54.2583 89.0829 54.6782C89.0829 54.7267 89.0668 54.763 89.0345 54.7872C89.0022 54.8196 88.9658 54.8357 88.9254 54.8357H87.496C87.4475 54.8357 87.4112 54.8196 87.387 54.7872C87.3547 54.763 87.3385 54.7267 87.3385 54.6782C87.3385 54.4844 87.2376 54.3188 87.0357 54.1816C86.8338 54.0523 86.5713 53.9877 86.2483 53.9877C85.9494 53.9877 85.7072 54.0402 85.5214 54.1452C85.3357 54.2502 85.2428 54.3956 85.2428 54.5813C85.2428 54.759 85.3357 54.8922 85.5214 54.9811C85.6991 55.0699 86.0019 55.1668 86.43 55.2718C86.5269 55.296 86.6359 55.3243 86.757 55.3566C86.8863 55.3889 87.0195 55.4253 87.1568 55.4656C87.7948 55.6514 88.2955 55.8896 88.6589 56.1804C89.0223 56.4792 89.2041 56.9072 89.2041 57.4644C89.2041 58.1186 88.9416 58.6314 88.4166 59.0029C87.8998 59.3744 87.2012 59.5601 86.3209 59.5601Z" fill="#252530"/>
<path id="Vector_7" d="M40.6514 91.541C40.0214 91.541 39.4723 91.4401 39.0039 91.2382C38.5355 91.0363 38.172 90.7536 37.9136 90.3902C37.6633 90.0268 37.5381 89.5987 37.5381 89.1061V88.8033C37.5381 88.7629 37.5542 88.7265 37.5865 88.6942C37.6108 88.67 37.6431 88.6579 37.6835 88.6579H38.7616C38.802 88.6579 38.8383 88.67 38.8706 88.6942C38.8948 88.7265 38.907 88.7629 38.907 88.8033V89.0334C38.907 89.4049 39.0725 89.7118 39.4036 89.9541C39.7347 90.2044 40.187 90.3296 40.7604 90.3296C41.253 90.3296 41.6245 90.2246 41.8749 90.0147C42.1252 89.8047 42.2504 89.5341 42.2504 89.203C42.2504 88.9769 42.1818 88.7831 42.0445 88.6216C41.9072 88.4681 41.7134 88.3268 41.463 88.1976C41.2046 88.0683 40.821 87.9068 40.3122 87.713C39.7388 87.503 39.2744 87.3052 38.9191 87.1194C38.5637 86.9337 38.269 86.6793 38.0348 86.3562C37.7925 86.0413 37.6713 85.6456 37.6713 85.1691C37.6713 84.4584 37.9298 83.8971 38.4466 83.4852C38.9635 83.0734 39.654 82.8674 40.5181 82.8674C41.1238 82.8674 41.6609 82.9724 42.1293 83.1824C42.5896 83.3924 42.949 83.6871 43.2074 84.0667C43.4658 84.4382 43.5951 84.8703 43.5951 85.3629V85.5688C43.5951 85.6092 43.5789 85.6456 43.5466 85.6779C43.5224 85.7021 43.4901 85.7142 43.4497 85.7142H42.3594C42.3191 85.7142 42.2868 85.7021 42.2625 85.6779C42.2302 85.6456 42.2141 85.6092 42.2141 85.5688V85.4356C42.2141 85.056 42.0606 84.737 41.7537 84.4786C41.4388 84.2121 41.0067 84.0788 40.4575 84.0788C40.0134 84.0788 39.6701 84.1717 39.4279 84.3574C39.1775 84.5432 39.0523 84.8057 39.0523 85.1448C39.0523 85.3871 39.1169 85.585 39.2462 85.7384C39.3754 85.8919 39.5692 86.0292 39.8276 86.1503C40.086 86.2795 40.4858 86.441 41.0269 86.6349C41.6003 86.8529 42.0606 87.0508 42.4079 87.2284C42.7471 87.4061 43.0419 87.6524 43.2922 87.9674C43.5345 88.2904 43.6556 88.6902 43.6556 89.1667C43.6556 89.8935 43.3851 90.4709 42.844 90.899C42.311 91.327 41.5801 91.541 40.6514 91.541ZM48.477 82.9522C48.9858 82.9522 49.434 83.0572 49.8216 83.2672C50.2093 83.4772 50.5081 83.7719 50.718 84.1515C50.9361 84.5392 51.0451 84.9833 51.0451 85.484C51.0451 85.9767 50.9361 86.4128 50.718 86.7923C50.5 87.1719 50.1931 87.4626 49.7974 87.6645C49.3936 87.8745 48.9292 87.9795 48.4043 87.9795H46.4661C46.4257 87.9795 46.4055 87.9997 46.4055 88.0401V91.2987C46.4055 91.3391 46.3934 91.3714 46.3691 91.3956C46.3368 91.4279 46.3005 91.4441 46.2601 91.4441H45.1456C45.1053 91.4441 45.073 91.4279 45.0487 91.3956C45.0164 91.3714 45.0003 91.3391 45.0003 91.2987V83.0976C45.0003 83.0572 45.0164 83.0209 45.0487 82.9886C45.073 82.9643 45.1053 82.9522 45.1456 82.9522H48.477ZM48.271 86.8408C48.6829 86.8408 49.014 86.7197 49.2644 86.4774C49.5147 86.2351 49.6399 85.9161 49.6399 85.5204C49.6399 85.1166 49.5147 84.7895 49.2644 84.5392C49.014 84.2888 48.6829 84.1636 48.271 84.1636H46.4661C46.4257 84.1636 46.4055 84.1838 46.4055 84.2242V86.7802C46.4055 86.8206 46.4257 86.8408 46.4661 86.8408H48.271ZM57.0415 91.4441C56.9608 91.4441 56.9042 91.4078 56.8719 91.3351L55.2729 87.8463C55.2567 87.814 55.2325 87.7978 55.2002 87.7978H53.7465C53.7062 87.7978 53.686 87.818 53.686 87.8584V91.2987C53.686 91.3391 53.6698 91.3714 53.6375 91.3956C53.6133 91.4279 53.581 91.4441 53.5406 91.4441H52.4261C52.3857 91.4441 52.3534 91.4279 52.3292 91.3956C52.2969 91.3714 52.2807 91.3391 52.2807 91.2987V83.1097C52.2807 83.0693 52.2969 83.037 52.3292 83.0128C52.3534 82.9805 52.3857 82.9643 52.4261 82.9643H55.7574C56.2501 82.9643 56.6862 83.0653 57.0657 83.2672C57.4453 83.4772 57.7401 83.7679 57.9501 84.1394C58.16 84.519 58.265 84.951 58.265 85.4356C58.265 85.9928 58.1237 86.4653 57.841 86.8529C57.5503 87.2486 57.1505 87.5232 56.6418 87.6767C56.6256 87.6767 56.6135 87.6847 56.6054 87.7009C56.5973 87.717 56.5973 87.7332 56.6054 87.7493L58.3135 91.2745C58.3296 91.3068 58.3377 91.331 58.3377 91.3472C58.3377 91.4118 58.2933 91.4441 58.2045 91.4441H57.0415ZM53.7465 84.1757C53.7062 84.1757 53.686 84.1959 53.686 84.2363V86.647C53.686 86.6874 53.7062 86.7075 53.7465 86.7075H55.5636C55.9513 86.7075 56.2622 86.5904 56.4964 86.3562C56.7387 86.1301 56.8598 85.8273 56.8598 85.4477C56.8598 85.0681 56.7387 84.7612 56.4964 84.527C56.2622 84.2928 55.9513 84.1757 55.5636 84.1757H53.7465ZM59.852 91.4441C59.8116 91.4441 59.7752 91.4279 59.7429 91.3956C59.7187 91.3714 59.7066 91.3391 59.7066 91.2987V83.1097C59.7066 83.0693 59.7187 83.037 59.7429 83.0128C59.7752 82.9805 59.8116 82.9643 59.852 82.9643H60.9664C61.0068 82.9643 61.0391 82.9805 61.0633 83.0128C61.0957 83.037 61.1118 83.0693 61.1118 83.1097V91.2987C61.1118 91.3391 61.0957 91.3714 61.0633 91.3956C61.0391 91.4279 61.0068 91.4441 60.9664 91.4441H59.852ZM67.8108 83.1097C67.8108 83.0693 67.827 83.037 67.8593 83.0128C67.8835 82.9805 67.9158 82.9643 67.9562 82.9643H69.0707C69.111 82.9643 69.1474 82.9805 69.1797 83.0128C69.2039 83.037 69.216 83.0693 69.216 83.1097V91.2987C69.216 91.3391 69.2039 91.3714 69.1797 91.3956C69.1474 91.4279 69.111 91.4441 69.0707 91.4441H67.9925C67.9118 91.4441 67.8552 91.4118 67.8229 91.3472L64.3341 85.6294C64.318 85.6052 64.3018 85.5931 64.2857 85.5931C64.2695 85.6011 64.2614 85.6213 64.2614 85.6536L64.2857 91.2987C64.2857 91.3391 64.2695 91.3714 64.2372 91.3956C64.213 91.4279 64.1807 91.4441 64.1403 91.4441H63.0258C62.9854 91.4441 62.9531 91.4279 62.9289 91.3956C62.8966 91.3714 62.8804 91.3391 62.8804 91.2987V83.1097C62.8804 83.0693 62.8966 83.037 62.9289 83.0128C62.9531 82.9805 62.9854 82.9643 63.0258 82.9643H64.1039C64.1847 82.9643 64.2412 82.9967 64.2735 83.0613L67.7502 88.779C67.7664 88.8033 67.7825 88.8113 67.7987 88.8033C67.8148 88.8033 67.8229 88.7871 67.8229 88.7548L67.8108 83.1097ZM73.8193 91.541C73.2136 91.541 72.6806 91.4239 72.2203 91.1897C71.76 90.9474 71.4046 90.6082 71.1543 90.1721C70.9039 89.736 70.7787 89.2353 70.7787 88.67V85.7384C70.7787 85.165 70.9039 84.6603 71.1543 84.2242C71.4046 83.7962 71.76 83.461 72.2203 83.2187C72.6806 82.9845 73.2136 82.8674 73.8193 82.8674C74.4169 82.8674 74.9459 82.9845 75.4062 83.2187C75.8585 83.4529 76.2098 83.7719 76.4602 84.1757C76.7105 84.5795 76.8357 85.0358 76.8357 85.5446V85.6415C76.8357 85.6819 76.8236 85.7142 76.7993 85.7384C76.767 85.7707 76.7307 85.7869 76.6903 85.7869H75.588C75.5476 85.7869 75.5153 85.7707 75.491 85.7384C75.4587 85.7142 75.4426 85.6819 75.4426 85.6415V85.581C75.4426 85.1448 75.2932 84.7855 74.9944 84.5028C74.7036 84.2202 74.312 84.0788 73.8193 84.0788C73.3267 84.0788 72.931 84.2282 72.6322 84.527C72.3333 84.8178 72.1839 85.2054 72.1839 85.69V88.7185C72.1839 89.203 72.3414 89.5947 72.6564 89.8935C72.9713 90.1843 73.3792 90.3296 73.8799 90.3296C74.3644 90.3296 74.7481 90.2004 75.0307 89.942C75.3053 89.6916 75.4426 89.3444 75.4426 88.9002V88.1491C75.4426 88.1087 75.4224 88.0885 75.382 88.0885H73.892C73.8516 88.0885 73.8153 88.0724 73.783 88.0401C73.7588 88.0158 73.7466 87.9836 73.7466 87.9432V87.0467C73.7466 87.0064 73.7588 86.9741 73.783 86.9498C73.8153 86.9175 73.8516 86.9014 73.892 86.9014H76.6903C76.7307 86.9014 76.767 86.9175 76.7993 86.9498C76.8236 86.9741 76.8357 87.0064 76.8357 87.0467V88.5973C76.8357 89.5261 76.5651 90.2489 76.0241 90.7657C75.4749 91.2826 74.74 91.541 73.8193 91.541Z" fill="#242530"/>
<path id="Vector_8" d="M41.0752 113.322C41.051 113.346 41.0429 113.37 41.051 113.394C41.0671 113.419 41.0914 113.431 41.1237 113.431H45.8845C45.941 113.431 45.9894 113.451 46.0298 113.491C46.0783 113.532 46.1025 113.58 46.1025 113.637V115.345C46.1025 115.401 46.0783 115.45 46.0298 115.49C45.9894 115.53 45.941 115.551 45.8845 115.551H37.9862C37.9216 115.551 37.8691 115.53 37.8287 115.49C37.7883 115.45 37.7681 115.401 37.7681 115.345V113.721C37.7681 113.616 37.8045 113.528 37.8771 113.455C38.4505 112.898 39.036 112.288 39.6337 111.626C40.2313 110.963 40.6068 110.552 40.7603 110.39C41.0833 110.002 41.4144 109.631 41.7536 109.276C42.8196 108.097 43.3526 107.22 43.3526 106.647C43.3526 106.235 43.2073 105.896 42.9165 105.629C42.6258 105.371 42.2462 105.242 41.7778 105.242C41.3094 105.242 40.9299 105.371 40.6391 105.629C40.3403 105.896 40.1909 106.247 40.1909 106.683V107.119C40.1909 107.176 40.1707 107.224 40.1303 107.265C40.09 107.305 40.0415 107.325 39.985 107.325H37.9135C37.857 107.325 37.8085 107.305 37.7681 107.265C37.7197 107.224 37.6954 107.176 37.6954 107.119V106.296C37.7358 105.666 37.9377 105.104 38.3011 104.612C38.6645 104.127 39.1451 103.756 39.7427 103.497C40.3484 103.239 41.0268 103.11 41.7778 103.11C42.6097 103.11 43.3325 103.267 43.9462 103.582C44.56 103.889 45.0324 104.305 45.3636 104.83C45.7027 105.363 45.8723 105.948 45.8723 106.586C45.8723 107.079 45.7472 107.584 45.4968 108.101C45.2545 108.617 44.8871 109.175 44.3944 109.772C44.031 110.225 43.6393 110.677 43.2194 111.129C42.7994 111.573 42.1736 112.215 41.3417 113.055L41.0752 113.322ZM51.8082 115.744C50.516 115.744 49.4984 115.385 48.7555 114.666C48.0044 113.948 47.6289 112.966 47.6289 111.723V107.083C47.6289 105.864 48.0044 104.898 48.7555 104.188C49.4984 103.469 50.516 103.11 51.8082 103.11C53.0922 103.11 54.1139 103.469 54.873 104.188C55.6241 104.898 55.9996 105.864 55.9996 107.083V111.723C55.9996 112.966 55.6241 113.948 54.873 114.666C54.1139 115.385 53.0922 115.744 51.8082 115.744ZM51.8082 113.625C52.3331 113.625 52.749 113.463 53.0559 113.14C53.3709 112.817 53.5283 112.385 53.5283 111.844V107.01C53.5283 106.477 53.3709 106.049 53.0559 105.726C52.749 105.403 52.3331 105.242 51.8082 105.242C51.2913 105.242 50.8794 105.403 50.5725 105.726C50.2576 106.049 50.1001 106.477 50.1001 107.01V111.844C50.1001 112.385 50.2576 112.817 50.5725 113.14C50.8794 113.463 51.2913 113.625 51.8082 113.625ZM60.9178 113.322C60.8936 113.346 60.8896 113.37 60.9057 113.394C60.9138 113.419 60.938 113.431 60.9784 113.431H65.7392C65.7957 113.431 65.8442 113.451 65.8846 113.491C65.9249 113.532 65.9451 113.58 65.9451 113.637V115.345C65.9451 115.401 65.9249 115.45 65.8846 115.49C65.8442 115.53 65.7957 115.551 65.7392 115.551H57.8288C57.7723 115.551 57.7238 115.53 57.6834 115.49C57.643 115.45 57.6229 115.401 57.6229 115.345V113.721C57.6229 113.616 57.6552 113.528 57.7198 113.455C58.3012 112.898 58.8867 112.288 59.4763 111.626C60.0739 110.963 60.4494 110.552 60.6029 110.39C60.934 110.002 61.2692 109.631 61.6083 109.276C62.6744 108.097 63.2074 107.22 63.2074 106.647C63.2074 106.235 63.062 105.896 62.7713 105.629C62.4725 105.371 62.0889 105.242 61.6205 105.242C61.1521 105.242 60.7725 105.371 60.4817 105.629C60.191 105.896 60.0456 106.247 60.0456 106.683V107.119C60.0456 107.176 60.0255 107.224 59.9851 107.265C59.9447 107.305 59.8922 107.325 59.8276 107.325H57.7561C57.6996 107.325 57.6511 107.305 57.6107 107.265C57.5704 107.224 57.5502 107.176 57.5502 107.119V106.296C57.5825 105.666 57.7803 105.104 58.1438 104.612C58.5072 104.127 58.9917 103.756 59.5974 103.497C60.2031 103.239 60.8775 103.11 61.6205 103.11C62.4523 103.11 63.1751 103.267 63.7889 103.582C64.4107 103.889 64.8872 104.305 65.2183 104.83C65.5494 105.363 65.715 105.948 65.715 106.586C65.715 107.079 65.5938 107.584 65.3515 108.101C65.1012 108.617 64.7297 109.175 64.2371 109.772C63.8736 110.225 63.482 110.677 63.062 111.129C62.6421 111.573 62.0162 112.215 61.1844 113.055L60.9178 113.322ZM76.2541 110.196C76.3106 110.196 76.3631 110.216 76.4116 110.257C76.452 110.297 76.4721 110.346 76.4721 110.402V112.183C76.4721 112.239 76.452 112.288 76.4116 112.328C76.3631 112.369 76.3106 112.389 76.2541 112.389H75.503C75.4465 112.389 75.4182 112.417 75.4182 112.474V115.345C75.4182 115.401 75.398 115.45 75.3577 115.49C75.3092 115.53 75.2567 115.551 75.2002 115.551H73.1529C73.0883 115.551 73.0358 115.53 72.9954 115.49C72.9551 115.45 72.9349 115.401 72.9349 115.345V112.474C72.9349 112.417 72.9066 112.389 72.8501 112.389H67.4594C67.4028 112.389 67.3503 112.369 67.3019 112.328C67.2615 112.288 67.2413 112.239 67.2413 112.183V110.778C67.2413 110.705 67.2615 110.616 67.3019 110.511L70.4636 103.412C70.5121 103.307 70.5928 103.255 70.7059 103.255H72.8985C72.9793 103.255 73.0358 103.275 73.0681 103.316C73.1004 103.356 73.0964 103.417 73.056 103.497L70.1244 110.087C70.1164 110.111 70.1164 110.136 70.1244 110.16C70.1406 110.184 70.1608 110.196 70.185 110.196H72.8501C72.9066 110.196 72.9349 110.164 72.9349 110.099V107.931C72.9349 107.866 72.9551 107.814 72.9954 107.773C73.0358 107.733 73.0883 107.713 73.1529 107.713H75.2002C75.2567 107.713 75.3092 107.733 75.3577 107.773C75.398 107.814 75.4182 107.866 75.4182 107.931V110.099C75.4182 110.164 75.4465 110.196 75.503 110.196H76.2541Z" fill="#252530"/>
</g>
<defs>
<clipPath id="clip0_4_284">
<rect width="113.871" height="147.79" fill="white" transform="translate(0.505737 0.10498)"/>
</clipPath>
</defs>
</svg>
