<svg width="49" height="48" viewBox="0 0 49 48" fill="none" xmlns="http://www.w3.org/2000/svg">
<g id="warning">
<mask id="mask0_4_141" style="mask-type:alpha" maskUnits="userSpaceOnUse" x="0" y="0" width="49" height="48">
<rect id="Bounding box" x="0.25" width="48" height="48" fill="#D9D9D9"/>
</mask>
<g mask="url(#mask0_4_141)">
<path id="warning_2" d="M2.25 42L24.25 4L46.25 42H2.25ZM24.25 36C24.8167 36 25.2917 35.8083 25.675 35.425C26.0583 35.0417 26.25 34.5667 26.25 34C26.25 33.4333 26.0583 32.9583 25.675 32.575C25.2917 32.1917 24.8167 32 24.25 32C23.6833 32 23.2083 32.1917 22.825 32.575C22.4417 32.9583 22.25 33.4333 22.25 34C22.25 34.5667 22.4417 35.0417 22.825 35.425C23.2083 35.8083 23.6833 36 24.25 36ZM22.25 30H26.25V20H22.25V30Z" fill="#00954A"/>
</g>
</g>
</svg>
