<svg width="35" height="25" viewBox="0 0 35 25" fill="none" xmlns="http://www.w3.org/2000/svg">
<path id="&#226;&#128;&#156;" d="M14.76 17.4C14.76 21.36 12 24.36 7.8 24.36C3.6 24.36 0 21 0 15C0 7.56 5.64 1.2 12.96 0V4.44C8.76 5.28 5.64 8.28 5.64 11.76C6.36 11.28 7.32 10.92 8.88 10.92C12 10.92 14.76 13.2 14.76 17.4ZM34.2 17.4C34.2 21.36 31.32 24.36 27.12 24.36C23.04 24.36 19.32 21 19.32 15C19.32 7.56 24.96 1.2 32.4 0V4.44C28.2 5.28 25.08 8.28 25.08 11.64C25.8 11.16 26.88 10.92 28.32 10.92C31.44 10.92 34.2 13.2 34.2 17.4Z" fill="#373E4E"/>
</svg>
