<svg width="24" height="24" viewBox="0 0 24 24" fill="none" xmlns="http://www.w3.org/2000/svg">
<mask id="mask0_471_4284" style="mask-type:alpha" maskUnits="userSpaceOnUse" x="0" y="0" width="24" height="24">
<rect width="24" height="24" fill="#D9D9D9"/>
</mask>
<g mask="url(#mask0_471_4284)">
<path d="M4.85677 19.1432C4.5421 18.8286 4.38477 18.4475 4.38477 18C4.38477 17.5525 4.5421 17.1714 4.85677 16.8568C5.17143 16.5421 5.55252 16.3848 6.00002 16.3848C6.44752 16.3848 6.8286 16.5421 7.14327 16.8568C7.45793 17.1714 7.61527 17.5525 7.61527 18C7.61527 18.4475 7.45793 18.8286 7.14327 19.1432C6.8286 19.4579 6.44752 19.6152 6.00002 19.6152C5.55252 19.6152 5.17143 19.4579 4.85677 19.1432ZM4.85677 13.1433C4.5421 12.8286 4.38477 12.4475 4.38477 12C4.38477 11.5525 4.5421 11.1714 4.85677 10.8568C5.17143 10.5421 5.55252 10.3848 6.00002 10.3848C6.44752 10.3848 6.8286 10.5421 7.14327 10.8568C7.45793 11.1714 7.61527 11.5525 7.61527 12C7.61527 12.4475 7.45793 12.8286 7.14327 13.1433C6.8286 13.4579 6.44752 13.6152 6.00002 13.6152C5.55252 13.6152 5.17143 13.4579 4.85677 13.1433ZM4.85677 7.14325C4.5421 6.82858 4.38477 6.4475 4.38477 6C4.38477 5.5525 4.5421 5.17142 4.85677 4.85675C5.17143 4.54208 5.55252 4.38475 6.00002 4.38475C6.44752 4.38475 6.8286 4.54208 7.14327 4.85675C7.45793 5.17142 7.61527 5.5525 7.61527 6C7.61527 6.4475 7.45793 6.82858 7.14327 7.14325C6.8286 7.45792 6.44752 7.61525 6.00002 7.61525C5.55252 7.61525 5.17143 7.45792 4.85677 7.14325ZM10.8568 19.1432C10.5421 18.8286 10.3848 18.4475 10.3848 18C10.3848 17.5525 10.5421 17.1714 10.8568 16.8568C11.1714 16.5421 11.5525 16.3848 12 16.3848C12.4475 16.3848 12.8286 16.5421 13.1433 16.8568C13.4579 17.1714 13.6153 17.5525 13.6153 18C13.6153 18.4475 13.4579 18.8286 13.1433 19.1432C12.8286 19.4579 12.4475 19.6152 12 19.6152C11.5525 19.6152 11.1714 19.4579 10.8568 19.1432ZM10.8568 13.1433C10.5421 12.8286 10.3848 12.4475 10.3848 12C10.3848 11.5525 10.5421 11.1714 10.8568 10.8568C11.1714 10.5421 11.5525 10.3848 12 10.3848C12.4475 10.3848 12.8286 10.5421 13.1433 10.8568C13.4579 11.1714 13.6153 11.5525 13.6153 12C13.6153 12.4475 13.4579 12.8286 13.1433 13.1433C12.8286 13.4579 12.4475 13.6152 12 13.6152C11.5525 13.6152 11.1714 13.4579 10.8568 13.1433ZM12 7.61525C11.5525 7.61525 11.1714 7.45792 10.8568 7.14325C10.5421 6.82858 10.3848 6.4475 10.3848 6C10.3848 5.532 10.5473 5.14575 10.8723 4.84125C11.1973 4.53692 11.5853 4.38475 12.0365 4.38475C12.016 4.48725 12.0032 4.58725 11.998 4.68475C11.993 4.78208 11.9905 4.88717 11.9905 5C11.9905 5.44617 12.0286 5.883 12.1048 6.3105C12.1811 6.73817 12.2968 7.14942 12.452 7.54425C12.3775 7.57108 12.3048 7.58967 12.2338 7.6C12.1626 7.61017 12.0847 7.61525 12 7.61525ZM15.6885 8.3115C14.8128 7.43583 14.375 6.37367 14.375 5.125C14.375 3.87633 14.8128 2.81417 15.6885 1.9385C16.5642 1.06283 17.6263 0.625 18.875 0.625C20.1237 0.625 21.1858 1.06283 22.0615 1.9385C22.9372 2.81417 23.375 3.87633 23.375 5.125C23.375 6.37367 22.9372 7.43583 22.0615 8.3115C21.1858 9.18717 20.1237 9.625 18.875 9.625C17.6263 9.625 16.5642 9.18717 15.6885 8.3115ZM16.8568 19.1432C16.5421 18.8286 16.3848 18.4475 16.3848 18C16.3848 17.5525 16.5421 17.1714 16.8568 16.8568C17.1714 16.5421 17.5525 16.3848 18 16.3848C18.4475 16.3848 18.8286 16.5421 19.1433 16.8568C19.4579 17.1714 19.6153 17.5525 19.6153 18C19.6153 18.4475 19.4579 18.8286 19.1433 19.1432C18.8286 19.4579 18.4475 19.6152 18 19.6152C17.5525 19.6152 17.1714 19.4579 16.8568 19.1432ZM18 13.6152C17.5525 13.6152 17.1714 13.4579 16.8568 13.1433C16.5421 12.8286 16.3848 12.4475 16.3848 12C16.3848 11.9153 16.3898 11.8374 16.4 11.7662C16.4103 11.6952 16.4289 11.6225 16.4558 11.548C16.8506 11.7032 17.2618 11.8189 17.6895 11.8953C18.117 11.9714 18.5538 12.0095 19 12.0095C19.1128 12.0095 19.2179 12.007 19.3153 12.002C19.4128 11.9968 19.5128 11.984 19.6153 11.9635C19.6153 12.4147 19.4631 12.8027 19.1588 13.1277C18.8543 13.4527 18.468 13.6152 18 13.6152ZM19.2153 7.71525C19.3089 7.62175 19.3558 7.50833 19.3558 7.375C19.3558 7.24167 19.3089 7.12817 19.2153 7.0345C19.1218 6.941 19.0083 6.89425 18.875 6.89425C18.7417 6.89425 18.6282 6.941 18.5345 7.0345C18.441 7.12817 18.3943 7.24167 18.3943 7.375C18.3943 7.50833 18.441 7.62175 18.5345 7.71525C18.6282 7.80892 18.7417 7.85575 18.875 7.85575C19.0083 7.85575 19.1218 7.80892 19.2153 7.71525ZM18.4328 5.93275H19.3173V2.43275H18.4328V5.93275Z" fill="#006333"/>
</g>
<mask id="mask1_471_4284" style="mask-type:alpha" maskUnits="userSpaceOnUse" x="4" y="0" width="20" height="20">
<mask id="mask2_471_4284" style="mask-type:alpha" maskUnits="userSpaceOnUse" x="0" y="0" width="24" height="24">
<rect width="24" height="24" fill="#D9D9D9"/>
</mask>
<g mask="url(#mask2_471_4284)">
<path d="M4.85677 19.1432C4.5421 18.8286 4.38477 18.4475 4.38477 18C4.38477 17.5525 4.5421 17.1714 4.85677 16.8568C5.17143 16.5421 5.55252 16.3848 6.00002 16.3848C6.44752 16.3848 6.8286 16.5421 7.14327 16.8568C7.45793 17.1714 7.61527 17.5525 7.61527 18C7.61527 18.4475 7.45793 18.8286 7.14327 19.1432C6.8286 19.4579 6.44752 19.6152 6.00002 19.6152C5.55252 19.6152 5.17143 19.4579 4.85677 19.1432ZM4.85677 13.1433C4.5421 12.8286 4.38477 12.4475 4.38477 12C4.38477 11.5525 4.5421 11.1714 4.85677 10.8568C5.17143 10.5421 5.55252 10.3848 6.00002 10.3848C6.44752 10.3848 6.8286 10.5421 7.14327 10.8568C7.45793 11.1714 7.61527 11.5525 7.61527 12C7.61527 12.4475 7.45793 12.8286 7.14327 13.1433C6.8286 13.4579 6.44752 13.6152 6.00002 13.6152C5.55252 13.6152 5.17143 13.4579 4.85677 13.1433ZM4.85677 7.14325C4.5421 6.82858 4.38477 6.4475 4.38477 6C4.38477 5.5525 4.5421 5.17142 4.85677 4.85675C5.17143 4.54208 5.55252 4.38475 6.00002 4.38475C6.44752 4.38475 6.8286 4.54208 7.14327 4.85675C7.45793 5.17142 7.61527 5.5525 7.61527 6C7.61527 6.4475 7.45793 6.82858 7.14327 7.14325C6.8286 7.45792 6.44752 7.61525 6.00002 7.61525C5.55252 7.61525 5.17143 7.45792 4.85677 7.14325ZM10.8568 19.1432C10.5421 18.8286 10.3848 18.4475 10.3848 18C10.3848 17.5525 10.5421 17.1714 10.8568 16.8568C11.1714 16.5421 11.5525 16.3848 12 16.3848C12.4475 16.3848 12.8286 16.5421 13.1433 16.8568C13.4579 17.1714 13.6153 17.5525 13.6153 18C13.6153 18.4475 13.4579 18.8286 13.1433 19.1432C12.8286 19.4579 12.4475 19.6152 12 19.6152C11.5525 19.6152 11.1714 19.4579 10.8568 19.1432ZM10.8568 13.1433C10.5421 12.8286 10.3848 12.4475 10.3848 12C10.3848 11.5525 10.5421 11.1714 10.8568 10.8568C11.1714 10.5421 11.5525 10.3848 12 10.3848C12.4475 10.3848 12.8286 10.5421 13.1433 10.8568C13.4579 11.1714 13.6153 11.5525 13.6153 12C13.6153 12.4475 13.4579 12.8286 13.1433 13.1433C12.8286 13.4579 12.4475 13.6152 12 13.6152C11.5525 13.6152 11.1714 13.4579 10.8568 13.1433ZM12 7.61525C11.5525 7.61525 11.1714 7.45792 10.8568 7.14325C10.5421 6.82858 10.3848 6.4475 10.3848 6C10.3848 5.532 10.5473 5.14575 10.8723 4.84125C11.1973 4.53692 11.5853 4.38475 12.0365 4.38475C12.016 4.48725 12.0032 4.58725 11.998 4.68475C11.993 4.78208 11.9905 4.88717 11.9905 5C11.9905 5.44617 12.0286 5.883 12.1048 6.3105C12.1811 6.73817 12.2968 7.14942 12.452 7.54425C12.3775 7.57108 12.3048 7.58967 12.2338 7.6C12.1626 7.61017 12.0847 7.61525 12 7.61525ZM15.6885 8.3115C14.8128 7.43583 14.375 6.37367 14.375 5.125C14.375 3.87633 14.8128 2.81417 15.6885 1.9385C16.5642 1.06283 17.6263 0.625 18.875 0.625C20.1237 0.625 21.1858 1.06283 22.0615 1.9385C22.9372 2.81417 23.375 3.87633 23.375 5.125C23.375 6.37367 22.9372 7.43583 22.0615 8.3115C21.1858 9.18717 20.1237 9.625 18.875 9.625C17.6263 9.625 16.5642 9.18717 15.6885 8.3115ZM16.8568 19.1432C16.5421 18.8286 16.3848 18.4475 16.3848 18C16.3848 17.5525 16.5421 17.1714 16.8568 16.8568C17.1714 16.5421 17.5525 16.3848 18 16.3848C18.4475 16.3848 18.8286 16.5421 19.1433 16.8568C19.4579 17.1714 19.6153 17.5525 19.6153 18C19.6153 18.4475 19.4579 18.8286 19.1433 19.1432C18.8286 19.4579 18.4475 19.6152 18 19.6152C17.5525 19.6152 17.1714 19.4579 16.8568 19.1432ZM18 13.6152C17.5525 13.6152 17.1714 13.4579 16.8568 13.1433C16.5421 12.8286 16.3848 12.4475 16.3848 12C16.3848 11.9153 16.3898 11.8374 16.4 11.7662C16.4103 11.6952 16.4289 11.6225 16.4558 11.548C16.8506 11.7032 17.2618 11.8189 17.6895 11.8953C18.117 11.9714 18.5538 12.0095 19 12.0095C19.1128 12.0095 19.2179 12.007 19.3153 12.002C19.4128 11.9968 19.5128 11.984 19.6153 11.9635C19.6153 12.4147 19.4631 12.8027 19.1588 13.1277C18.8543 13.4527 18.468 13.6152 18 13.6152ZM19.2153 7.71525C19.3089 7.62175 19.3558 7.50833 19.3558 7.375C19.3558 7.24167 19.3089 7.12817 19.2153 7.0345C19.1218 6.941 19.0083 6.89425 18.875 6.89425C18.7417 6.89425 18.6282 6.941 18.5345 7.0345C18.441 7.12817 18.3943 7.24167 18.3943 7.375C18.3943 7.50833 18.441 7.62175 18.5345 7.71525C18.6282 7.80892 18.7417 7.85575 18.875 7.85575C19.0083 7.85575 19.1218 7.80892 19.2153 7.71525ZM18.4328 5.93275H19.3173V2.43275H18.4328V5.93275Z" fill="#006333"/>
</g>
</mask>
<g mask="url(#mask1_471_4284)">
<rect x="13.6934" y="-0.898926" width="12" height="11" fill="#00954A"/>
</g>
</svg>
