<svg width="48" height="48" viewBox="0 0 48 48" fill="none" xmlns="http://www.w3.org/2000/svg">
<mask id="mask0_198_3160" style="mask-type:alpha" maskUnits="userSpaceOnUse" x="0" y="0" width="48" height="48">
<rect width="48" height="48" fill="#D9D9D9"/>
</mask>
<g mask="url(#mask0_198_3160)">
<path d="M9 7V21.65V21.5V41V7ZM9 44C8.2 44 7.5 43.7 6.9 43.1C6.3 42.5 6 41.8 6 41V7C6 6.2 6.3 5.5 6.9 4.9C7.5 4.3 8.2 4 9 4H27.05L38 14.95V22.65C37.5333 22.4167 37.05 22.2167 36.55 22.05C36.05 21.8833 35.5333 21.75 35 21.65V16.3H25.55V7H9V41H24.75C25.4167 41.7 26.1583 42.3 26.975 42.8C27.7917 43.3 28.6833 43.7 29.65 44H9Z" fill="#004D28"/>
</g>
<mask id="mask1_198_3160" style="mask-type:alpha" maskUnits="userSpaceOnUse" x="0" y="0" width="48" height="48">
<rect width="48" height="48" fill="#D9D9D9"/>
</mask>
<g mask="url(#mask1_198_3160)">
<path d="M36.925 36.925C37.975 35.875 38.5 34.5667 38.5 33C38.5 31.4333 37.975 30.125 36.925 29.075C35.875 28.025 34.5667 27.5 33 27.5C31.4333 27.5 30.125 28.025 29.075 29.075C28.025 30.125 27.5 31.4333 27.5 33C27.5 34.5667 28.025 35.875 29.075 36.925C30.125 37.975 31.4333 38.5 33 38.5C34.5667 38.5 35.875 37.975 36.925 36.925ZM43.2 45.3L37.842 39.95C37.1473 40.4167 36.3917 40.7917 35.575 41.075C34.7583 41.3583 33.9 41.5 33 41.5C30.639 41.5 28.632 40.673 26.979 39.019C25.3263 37.365 24.5 35.3567 24.5 32.994C24.5 30.6313 25.327 28.625 26.981 26.975C28.635 25.325 30.6433 24.5 33.006 24.5C35.3687 24.5 37.375 25.3263 39.025 26.979C40.675 28.632 41.5 30.639 41.5 33C41.5 33.9 41.3583 34.7583 41.075 35.575C40.7917 36.3917 40.4167 37.1473 39.95 37.842L45.3 43.2L43.2 45.3Z" fill="#00954A"/>
</g>
</svg>
