<svg width="102" height="36" viewBox="0 0 102 36" fill="none" xmlns="http://www.w3.org/2000/svg">
<rect width="102" height="36" fill="white"/>
<path d="M1.14773 16V4.36364H3.25568V9.28977H8.64773V4.36364H10.7614V16H8.64773V11.0568H3.25568V16H1.14773ZM16.7699 16.1705C15.9176 16.1705 15.179 15.983 14.554 15.608C13.929 15.233 13.4441 14.7083 13.0994 14.0341C12.7585 13.3598 12.5881 12.572 12.5881 11.6705C12.5881 10.7689 12.7585 9.97917 13.0994 9.30114C13.4441 8.62311 13.929 8.09659 14.554 7.72159C15.179 7.34659 15.9176 7.15909 16.7699 7.15909C17.6222 7.15909 18.3608 7.34659 18.9858 7.72159C19.6108 8.09659 20.0938 8.62311 20.4347 9.30114C20.7794 9.97917 20.9517 10.7689 20.9517 11.6705C20.9517 12.572 20.7794 13.3598 20.4347 14.0341C20.0938 14.7083 19.6108 15.233 18.9858 15.608C18.3608 15.983 17.6222 16.1705 16.7699 16.1705ZM16.7812 14.5227C17.2434 14.5227 17.6297 14.3958 17.9403 14.142C18.2509 13.8845 18.482 13.5398 18.6335 13.108C18.7888 12.6761 18.8665 12.1951 18.8665 11.6648C18.8665 11.1307 18.7888 10.6477 18.6335 10.2159C18.482 9.7803 18.2509 9.43371 17.9403 9.17614C17.6297 8.91856 17.2434 8.78977 16.7812 8.78977C16.3078 8.78977 15.9138 8.91856 15.5994 9.17614C15.2888 9.43371 15.0559 9.7803 14.9006 10.2159C14.7491 10.6477 14.6733 11.1307 14.6733 11.6648C14.6733 12.1951 14.7491 12.6761 14.9006 13.108C15.0559 13.5398 15.2888 13.8845 15.5994 14.142C15.9138 14.3958 16.3078 14.5227 16.7812 14.5227ZM29.5952 9.57955L27.7202 9.78409C27.6671 9.5947 27.5743 9.41667 27.4418 9.25C27.313 9.08333 27.1387 8.94886 26.919 8.84659C26.6993 8.74432 26.4304 8.69318 26.1122 8.69318C25.6842 8.69318 25.3243 8.78598 25.0327 8.97159C24.7448 9.1572 24.6027 9.39773 24.6065 9.69318C24.6027 9.94697 24.6955 10.1534 24.8849 10.3125C25.0781 10.4716 25.3963 10.6023 25.8395 10.7045L27.3281 11.0227C28.1539 11.2008 28.7675 11.483 29.169 11.8693C29.5743 12.2557 29.7789 12.7614 29.7827 13.3864C29.7789 13.9356 29.6179 14.4205 29.2997 14.8409C28.9853 15.2576 28.5478 15.5833 27.9872 15.8182C27.4266 16.053 26.7827 16.1705 26.0554 16.1705C24.9872 16.1705 24.1274 15.947 23.4759 15.5C22.8243 15.0492 22.4361 14.4223 22.3111 13.6193L24.3168 13.4261C24.4077 13.8201 24.6009 14.1174 24.8963 14.3182C25.1918 14.5189 25.5762 14.6193 26.0497 14.6193C26.5384 14.6193 26.9304 14.5189 27.2259 14.3182C27.5251 14.1174 27.6747 13.8693 27.6747 13.5739C27.6747 13.3239 27.5781 13.1174 27.3849 12.9545C27.1955 12.7917 26.9001 12.6667 26.4986 12.5795L25.0099 12.267C24.1728 12.0928 23.5535 11.7992 23.152 11.3864C22.7505 10.9697 22.5516 10.4432 22.5554 9.80682C22.5516 9.26894 22.6974 8.80303 22.9929 8.40909C23.2921 8.01136 23.7069 7.70455 24.2372 7.48864C24.7713 7.26894 25.3868 7.15909 26.0838 7.15909C27.1065 7.15909 27.9115 7.37689 28.4986 7.8125C29.0895 8.24811 29.455 8.83712 29.5952 9.57955ZM33.3537 13.2614L33.348 10.7784H33.6776L36.8139 7.27273H39.2173L35.3594 11.5682H34.9332L33.3537 13.2614ZM31.4787 16V4.36364H33.5355V16H31.4787ZM36.956 16L34.1151 12.0284L35.5014 10.5795L39.4162 16H36.956ZM40.5881 16V7.27273H42.6449V16H40.5881ZM41.6222 6.03409C41.2964 6.03409 41.0161 5.92614 40.7812 5.71023C40.5464 5.49053 40.429 5.22727 40.429 4.92045C40.429 4.60985 40.5464 4.34659 40.7812 4.13068C41.0161 3.91098 41.2964 3.80114 41.6222 3.80114C41.9517 3.80114 42.232 3.91098 42.4631 4.13068C42.6979 4.34659 42.8153 4.60985 42.8153 4.92045C42.8153 5.22727 42.6979 5.49053 42.4631 5.71023C42.232 5.92614 41.9517 6.03409 41.6222 6.03409ZM46.8168 10.8864V16H44.7599V7.27273H46.7259V8.75568H46.8281C47.0289 8.26705 47.349 7.87879 47.7884 7.59091C48.2315 7.30303 48.7789 7.15909 49.4304 7.15909C50.0327 7.15909 50.5573 7.28788 51.0043 7.54545C51.455 7.80303 51.8035 8.17614 52.0497 8.66477C52.2997 9.15341 52.4228 9.74621 52.419 10.4432V16H50.3622V10.7614C50.3622 10.178 50.2107 9.72159 49.9077 9.39205C49.6084 9.0625 49.1937 8.89773 48.6634 8.89773C48.3035 8.89773 47.9834 8.97727 47.7031 9.13636C47.4266 9.29167 47.2088 9.51705 47.0497 9.8125C46.8944 10.108 46.8168 10.4659 46.8168 10.8864ZM61.4077 9.57955L59.5327 9.78409C59.4796 9.5947 59.3868 9.41667 59.2543 9.25C59.1255 9.08333 58.9512 8.94886 58.7315 8.84659C58.5118 8.74432 58.2429 8.69318 57.9247 8.69318C57.4967 8.69318 57.1368 8.78598 56.8452 8.97159C56.5573 9.1572 56.4152 9.39773 56.419 9.69318C56.4152 9.94697 56.508 10.1534 56.6974 10.3125C56.8906 10.4716 57.2088 10.6023 57.652 10.7045L59.1406 11.0227C59.9664 11.2008 60.58 11.483 60.9815 11.8693C61.3868 12.2557 61.5914 12.7614 61.5952 13.3864C61.5914 13.9356 61.4304 14.4205 61.1122 14.8409C60.7978 15.2576 60.3603 15.5833 59.7997 15.8182C59.2391 16.053 58.5952 16.1705 57.8679 16.1705C56.7997 16.1705 55.9399 15.947 55.2884 15.5C54.6368 15.0492 54.2486 14.4223 54.1236 13.6193L56.1293 13.4261C56.2202 13.8201 56.4134 14.1174 56.7088 14.3182C57.0043 14.5189 57.3887 14.6193 57.8622 14.6193C58.3509 14.6193 58.7429 14.5189 59.0384 14.3182C59.3376 14.1174 59.4872 13.8693 59.4872 13.5739C59.4872 13.3239 59.3906 13.1174 59.1974 12.9545C59.008 12.7917 58.7126 12.6667 58.3111 12.5795L56.8224 12.267C55.9853 12.0928 55.366 11.7992 54.9645 11.3864C54.563 10.9697 54.3641 10.4432 54.3679 9.80682C54.3641 9.26894 54.5099 8.80303 54.8054 8.40909C55.1046 8.01136 55.5194 7.70455 56.0497 7.48864C56.5838 7.26894 57.1993 7.15909 57.8963 7.15909C58.919 7.15909 59.724 7.37689 60.3111 7.8125C60.902 8.24811 61.2675 8.83712 61.4077 9.57955ZM67.098 16.1705C66.2457 16.1705 65.5071 15.983 64.8821 15.608C64.2571 15.233 63.7723 14.7083 63.4276 14.0341C63.0866 13.3598 62.9162 12.572 62.9162 11.6705C62.9162 10.7689 63.0866 9.97917 63.4276 9.30114C63.7723 8.62311 64.2571 8.09659 64.8821 7.72159C65.5071 7.34659 66.2457 7.15909 67.098 7.15909C67.9503 7.15909 68.6889 7.34659 69.3139 7.72159C69.9389 8.09659 70.4219 8.62311 70.7628 9.30114C71.1075 9.97917 71.2798 10.7689 71.2798 11.6705C71.2798 12.572 71.1075 13.3598 70.7628 14.0341C70.4219 14.7083 69.9389 15.233 69.3139 15.608C68.6889 15.983 67.9503 16.1705 67.098 16.1705ZM67.1094 14.5227C67.5715 14.5227 67.9579 14.3958 68.2685 14.142C68.5791 13.8845 68.8101 13.5398 68.9616 13.108C69.117 12.6761 69.1946 12.1951 69.1946 11.6648C69.1946 11.1307 69.117 10.6477 68.9616 10.2159C68.8101 9.7803 68.5791 9.43371 68.2685 9.17614C67.9579 8.91856 67.5715 8.78977 67.1094 8.78977C66.6359 8.78977 66.242 8.91856 65.9276 9.17614C65.617 9.43371 65.384 9.7803 65.2287 10.2159C65.0772 10.6477 65.0014 11.1307 65.0014 11.6648C65.0014 12.1951 65.0772 12.6761 65.2287 13.108C65.384 13.5398 65.617 13.8845 65.9276 14.142C66.242 14.3958 66.6359 14.5227 67.1094 14.5227ZM75.0824 10.8864V16H73.0256V7.27273H74.9915V8.75568H75.0938C75.2945 8.26705 75.6146 7.87879 76.054 7.59091C76.4972 7.30303 77.0445 7.15909 77.696 7.15909C78.2983 7.15909 78.8229 7.28788 79.2699 7.54545C79.7206 7.80303 80.0691 8.17614 80.3153 8.66477C80.5653 9.15341 80.6884 9.74621 80.6847 10.4432V16H78.6278V10.7614C78.6278 10.178 78.4763 9.72159 78.1733 9.39205C77.8741 9.0625 77.4593 8.89773 76.929 8.89773C76.5691 8.89773 76.2491 8.97727 75.9688 9.13636C75.6922 9.29167 75.4744 9.51705 75.3153 9.8125C75.16 10.108 75.0824 10.4659 75.0824 10.8864ZM1.14773 32V20.3636H8.60227V22.1307H3.25568V25.2898H8.09091V27.0568H3.25568V32H1.14773ZM12.8651 32.1761C12.312 32.1761 11.8139 32.0777 11.3707 31.8807C10.9313 31.6799 10.5829 31.3845 10.3253 30.9943C10.0715 30.6042 9.9446 30.1231 9.9446 29.5511C9.9446 29.0587 10.0355 28.6515 10.2173 28.3295C10.3991 28.0076 10.6473 27.75 10.9616 27.5568C11.276 27.3636 11.6302 27.2178 12.0241 27.1193C12.4219 27.017 12.8329 26.9432 13.2571 26.8977C13.7685 26.8447 14.1832 26.7973 14.5014 26.7557C14.8196 26.7102 15.0507 26.642 15.1946 26.5511C15.3423 26.4564 15.4162 26.3106 15.4162 26.1136V26.0795C15.4162 25.6515 15.2893 25.3201 15.0355 25.0852C14.7817 24.8504 14.4162 24.733 13.9389 24.733C13.4351 24.733 13.0355 24.8428 12.7401 25.0625C12.4484 25.2822 12.2514 25.5417 12.1491 25.8409L10.2287 25.5682C10.3802 25.0379 10.6302 24.5947 10.9787 24.2386C11.3272 23.8788 11.7533 23.6098 12.2571 23.4318C12.7609 23.25 13.3177 23.1591 13.9276 23.1591C14.348 23.1591 14.7666 23.2083 15.1832 23.3068C15.5999 23.4053 15.9806 23.5682 16.3253 23.7955C16.67 24.0189 16.9465 24.3239 17.1548 24.7102C17.367 25.0966 17.473 25.5795 17.473 26.1591V32H15.4957V30.8011H15.4276C15.3026 31.0436 15.1264 31.2708 14.8991 31.483C14.6757 31.6913 14.3935 31.8598 14.0526 31.9886C13.7154 32.1136 13.3196 32.1761 12.8651 32.1761ZM13.3991 30.6648C13.812 30.6648 14.17 30.5833 14.473 30.4205C14.776 30.2538 15.009 30.0341 15.1719 29.7614C15.3385 29.4886 15.4219 29.1913 15.4219 28.8693V27.8409C15.3575 27.8939 15.2476 27.9432 15.0923 27.9886C14.9408 28.0341 14.7704 28.0739 14.581 28.108C14.3916 28.142 14.2041 28.1723 14.0185 28.1989C13.8329 28.2254 13.6719 28.2481 13.5355 28.267C13.2287 28.3087 12.9541 28.3769 12.7116 28.4716C12.4692 28.5663 12.2779 28.6989 12.1378 28.8693C11.9976 29.036 11.9276 29.2519 11.9276 29.517C11.9276 29.8958 12.0658 30.1818 12.3423 30.375C12.6188 30.5682 12.9711 30.6648 13.3991 30.6648ZM19.5412 32V23.2727H21.5071V24.7557H21.6094C21.7912 24.2557 22.0923 23.8655 22.5128 23.5852C22.9332 23.3011 23.4351 23.1591 24.0185 23.1591C24.6094 23.1591 25.1075 23.303 25.5128 23.5909C25.9219 23.875 26.2098 24.2633 26.3764 24.7557H26.4673C26.6605 24.2708 26.9863 23.8845 27.4446 23.5966C27.9067 23.3049 28.4541 23.1591 29.0866 23.1591C29.8897 23.1591 30.545 23.4129 31.0526 23.9205C31.5601 24.428 31.8139 25.1686 31.8139 26.142V32H29.7514V26.4602C29.7514 25.9186 29.6075 25.5227 29.3196 25.2727C29.0317 25.0189 28.6795 24.892 28.2628 24.892C27.7666 24.892 27.3783 25.0473 27.098 25.358C26.8215 25.6648 26.6832 26.0644 26.6832 26.5568V32H24.6662V26.375C24.6662 25.9242 24.5298 25.5644 24.2571 25.2955C23.9882 25.0265 23.6359 24.892 23.2003 24.892C22.9048 24.892 22.6359 24.9678 22.3935 25.1193C22.151 25.267 21.9579 25.4773 21.8139 25.75C21.67 26.0189 21.598 26.3333 21.598 26.6932V32H19.5412ZM33.9006 32V23.2727H35.9574V32H33.9006ZM34.9347 22.0341C34.6089 22.0341 34.3286 21.9261 34.0938 21.7102C33.8589 21.4905 33.7415 21.2273 33.7415 20.9205C33.7415 20.6098 33.8589 20.3466 34.0938 20.1307C34.3286 19.911 34.6089 19.8011 34.9347 19.8011C35.2642 19.8011 35.5445 19.911 35.7756 20.1307C36.0104 20.3466 36.1278 20.6098 36.1278 20.9205C36.1278 21.2273 36.0104 21.4905 35.7756 21.7102C35.5445 21.9261 35.2642 22.0341 34.9347 22.0341ZM40.1293 20.3636V32H38.0724V20.3636H40.1293ZM43.5227 35.2727C43.2424 35.2727 42.983 35.25 42.7443 35.2045C42.5095 35.1629 42.322 35.1136 42.1818 35.0568L42.6591 33.4545C42.9583 33.5417 43.2254 33.5833 43.4602 33.5795C43.6951 33.5758 43.9015 33.5019 44.0795 33.358C44.2614 33.2178 44.4148 32.983 44.5398 32.6534L44.7159 32.1818L41.5511 23.2727H43.733L45.7443 29.8636H45.8352L47.8523 23.2727H50.0398L46.5455 33.0568C46.3826 33.5189 46.1667 33.9148 45.8977 34.2443C45.6288 34.5777 45.2992 34.8314 44.9091 35.0057C44.5227 35.1837 44.0606 35.2727 43.5227 35.2727ZM65.9205 26.1818C65.9205 27.4356 65.6856 28.5095 65.2159 29.4034C64.75 30.2936 64.1136 30.9754 63.3068 31.4489C62.5038 31.9223 61.5928 32.1591 60.5739 32.1591C59.5549 32.1591 58.642 31.9223 57.8352 31.4489C57.0322 30.9716 56.3958 30.2879 55.9261 29.3977C55.4602 28.5038 55.2273 27.4318 55.2273 26.1818C55.2273 24.928 55.4602 23.8561 55.9261 22.9659C56.3958 22.072 57.0322 21.3883 57.8352 20.9148C58.642 20.4413 59.5549 20.2045 60.5739 20.2045C61.5928 20.2045 62.5038 20.4413 63.3068 20.9148C64.1136 21.3883 64.75 22.072 65.2159 22.9659C65.6856 23.8561 65.9205 24.928 65.9205 26.1818ZM63.8011 26.1818C63.8011 25.2992 63.6629 24.5549 63.3864 23.9489C63.1136 23.339 62.7348 22.8788 62.25 22.5682C61.7652 22.2538 61.2064 22.0966 60.5739 22.0966C59.9413 22.0966 59.3826 22.2538 58.8977 22.5682C58.4129 22.8788 58.0322 23.339 57.7557 23.9489C57.483 24.5549 57.3466 25.2992 57.3466 26.1818C57.3466 27.0644 57.483 27.8106 57.7557 28.4205C58.0322 29.0265 58.4129 29.4867 58.8977 29.8011C59.3826 30.1117 59.9413 30.267 60.5739 30.267C61.2064 30.267 61.7652 30.1117 62.25 29.8011C62.7348 29.4867 63.1136 29.0265 63.3864 28.4205C63.6629 27.8106 63.8011 27.0644 63.8011 26.1818ZM72.2429 23.2727V24.8636H67.0838V23.2727H72.2429ZM68.3736 32V22.4489C68.3736 21.8617 68.4948 21.3731 68.7372 20.983C68.9834 20.5928 69.313 20.3011 69.7259 20.108C70.1387 19.9148 70.5971 19.8182 71.1009 19.8182C71.4569 19.8182 71.7732 19.8466 72.0497 19.9034C72.3262 19.9602 72.5308 20.0114 72.6634 20.0568L72.2543 21.6477C72.1671 21.6212 72.0573 21.5947 71.9247 21.5682C71.7921 21.5379 71.6444 21.5227 71.4815 21.5227C71.099 21.5227 70.8281 21.6155 70.669 21.8011C70.5137 21.983 70.4361 22.2443 70.4361 22.5852V32H68.3736ZM78.2741 23.2727V24.8636H73.1151V23.2727H78.2741ZM74.4048 32V22.4489C74.4048 21.8617 74.526 21.3731 74.7685 20.983C75.0147 20.5928 75.3442 20.3011 75.7571 20.108C76.17 19.9148 76.6283 19.8182 77.1321 19.8182C77.4882 19.8182 77.8045 19.8466 78.081 19.9034C78.3575 19.9602 78.562 20.0114 78.6946 20.0568L78.2855 21.6477C78.1984 21.6212 78.0885 21.5947 77.956 21.5682C77.8234 21.5379 77.6757 21.5227 77.5128 21.5227C77.1302 21.5227 76.8594 21.6155 76.7003 21.8011C76.545 21.983 76.4673 22.2443 76.4673 22.5852V32H74.4048ZM79.8849 32V23.2727H81.9418V32H79.8849ZM80.919 22.0341C80.5933 22.0341 80.313 21.9261 80.0781 21.7102C79.8433 21.4905 79.7259 21.2273 79.7259 20.9205C79.7259 20.6098 79.8433 20.3466 80.0781 20.1307C80.313 19.911 80.5933 19.8011 80.919 19.8011C81.2486 19.8011 81.5289 19.911 81.7599 20.1307C81.9948 20.3466 82.1122 20.6098 82.1122 20.9205C82.1122 21.2273 81.9948 21.4905 81.7599 21.7102C81.5289 21.9261 81.2486 22.0341 80.919 22.0341ZM87.8636 32.1705C86.9924 32.1705 86.2443 31.9792 85.6193 31.5966C84.9981 31.214 84.5189 30.6856 84.1818 30.0114C83.8485 29.3333 83.6818 28.553 83.6818 27.6705C83.6818 26.7841 83.8523 26.0019 84.1932 25.3239C84.5341 24.642 85.0152 24.1117 85.6364 23.733C86.2614 23.3504 87 23.1591 87.8523 23.1591C88.5606 23.1591 89.1875 23.2898 89.733 23.5511C90.2822 23.8087 90.7197 24.1742 91.0455 24.6477C91.3712 25.1174 91.5568 25.6667 91.6023 26.2955H89.6364C89.5568 25.875 89.3674 25.5246 89.0682 25.2443C88.7727 24.9602 88.3769 24.8182 87.8807 24.8182C87.4602 24.8182 87.0909 24.9318 86.7727 25.1591C86.4545 25.3826 86.2064 25.7045 86.0284 26.125C85.8542 26.5455 85.767 27.0492 85.767 27.6364C85.767 28.2311 85.8542 28.7424 86.0284 29.1705C86.2027 29.5947 86.447 29.9223 86.7614 30.1534C87.0795 30.3807 87.4527 30.4943 87.8807 30.4943C88.1837 30.4943 88.4545 30.4375 88.6932 30.3239C88.9356 30.2064 89.1383 30.0379 89.3011 29.8182C89.464 29.5985 89.5758 29.3314 89.6364 29.017H91.6023C91.553 29.6345 91.3712 30.1818 91.0568 30.6591C90.7424 31.1326 90.3144 31.5038 89.7727 31.7727C89.2311 32.0379 88.5947 32.1705 87.8636 32.1705ZM97.1548 32.1705C96.2798 32.1705 95.5241 31.9886 94.8878 31.625C94.2552 31.2576 93.7685 30.7386 93.4276 30.0682C93.0866 29.3939 92.9162 28.6004 92.9162 27.6875C92.9162 26.7898 93.0866 26.0019 93.4276 25.3239C93.7723 24.642 94.2533 24.1117 94.8707 23.733C95.4882 23.3504 96.2135 23.1591 97.0469 23.1591C97.5848 23.1591 98.0923 23.2462 98.5696 23.4205C99.0507 23.5909 99.4749 23.8561 99.8423 24.2159C100.214 24.5758 100.505 25.0341 100.717 25.5909C100.929 26.1439 101.036 26.803 101.036 27.5682V28.1989H93.8821V26.8125H99.0639C99.0601 26.4186 98.9749 26.0682 98.8082 25.7614C98.6416 25.4508 98.4086 25.2064 98.1094 25.0284C97.8139 24.8504 97.4692 24.7614 97.0753 24.7614C96.6548 24.7614 96.2855 24.8636 95.9673 25.0682C95.6491 25.2689 95.401 25.5341 95.223 25.8636C95.0488 26.1894 94.9598 26.5473 94.956 26.9375V28.1477C94.956 28.6553 95.0488 29.0909 95.2344 29.4545C95.42 29.8144 95.6795 30.0909 96.0128 30.2841C96.3461 30.4735 96.7363 30.5682 97.1832 30.5682C97.4825 30.5682 97.7533 30.5265 97.9957 30.4432C98.2382 30.3561 98.4484 30.2292 98.6264 30.0625C98.8045 29.8958 98.9389 29.6894 99.0298 29.4432L100.95 29.6591C100.829 30.1667 100.598 30.6098 100.257 30.9886C99.92 31.3636 99.4882 31.6553 98.9616 31.8636C98.4351 32.0682 97.8329 32.1705 97.1548 32.1705Z" fill="black"/>
</svg>
